org.tildearrow.furnace - Pattern Data (219)
0
===0F638080............|===176B................|===3E638080............|===0C5F80FF............|===0F5F8080............|C-4C1..8080............|===A000................|===A000................|.......................|.......................|
.......................|.......................|.......................|.......................|.......................|.......................|.......................|.......................|.......................|.......................|
.......................|.......................|.......................|.......................|.......................|.......................|.......................|.......................|.......................|.......................|
.......................|.......................|.......................|.......................|.......................|.......................|.......................|.......................|.......................|.......................|
.......................|.......................|.......................|.......................|.......................|C-4C5..................|.......................|.......................|.......................|.......................|
.......................|.......................|.......................|.......................|.......................|.......................|.......................|.......................|.......................|.......................|
.......................|.......................|.......................|.......................|.......................|.......................|.......................|.......................|.......................|.......................|
.......................|.......................|.......................|.......................|.......................|C-4C1..................|.......................|.......................|.......................|.......................|
.......................|.......................|.......................|.......................|.......................|.......................|.......................|.......................|.......................|.......................|
.......................|.......................|.......................|.......................|.......................|.......................|.......................|.......................|.......................|.......................|
.......................|.......................|.......................|.......................|.......................|.......................|.......................|.......................|.......................|.......................|
.......................|.......................|.......................|.......................|.......................|.......................|.......................|.......................|.......................|.......................|
.......................|.......................|.......................|.......................|.......................|.......................|.......................|.......................|.......................|.......................|
.......................|.......................|.......................|.......................|.......................|.......................|.......................|.......................|.......................|.......................|
.......................|.......................|.......................|.......................|.......................|C-4C5..................|.......................|.......................|.......................|.......................|
.......................|.......................|.......................|.......................|.......................|.......................|.......................|.......................|.......................|.......................|
.......................|.......................|.......................|.......................|.......................|.......................|.......................|.......................|.......................|.......................|
.......................|.......................|.......................|.......................|.......................|.......................|.......................|.......................|.......................|.......................|
.......................|.......................|.......................|.......................|.......................|.......................|.......................|.......................|.......................|.......................|
.......................|.......................|.......................|.......................|.......................|.......................|.......................|.......................|.......................|.......................|
.......................|.......................|.......................|.......................|.......................|.......................|.......................|.......................|.......................|.......................|
.......................|.......................|.......................|.......................|.......................|C-4C2..8000............|.......................|.......................|.......................|.......................|
.......................|.......................|.......................|.......................|.......................|.......................|.......................|.......................|.......................|.......................|
.......................|.......................|.......................|.......................|.......................|.......................|.......................|.......................|.......................|.......................|
.......................|.......................|.......................|.......................|.......................|.......................|.......................|.......................|.......................|.......................|
.......................|.......................|.......................|.......................|.......................|C-4C2..................|.......................|.......................|.......................|.......................|
.......................|.......................|.......................|.......................|.......................|.......................|.......................|.......................|.......................|.......................|
.......................|.......................|.......................|.......................|.......................|.......................|.......................|.......................|.......................|.......................|
.......................|.......................|.......................|.......................|.......................|C-4C2..................|.......................|.......................|.......................|.......................|
.......................|.......................|.......................|.......................|.......................|.......................|.......................|.......................|.......................|.......................|
.......................|.......................|.......................|.......................|.......................|.......................|.......................|.......................|.......................|.......................|
.......................|.......................|.......................|.......................|.......................|.......................|.......................|.......................|.......................|.......................|
.......................|.......................|.......................|.......................|.......................|.......................|.......................|.......................|.......................|.......................|
.......................|.......................|.......................|.......................|.......................|.......................|.......................|.......................|.......................|.......................|
.......................|.......................|.......................|.......................|.......................|.......................|.......................|.......................|.......................|.......................|
.......................|.......................|.......................|.......................|.......................|C-4C2..................|.......................|.......................|.......................|.......................|
.......................|.......................|.......................|.......................|.......................|.......................|.......................|.......................|.......................|.......................|
.......................|.......................|.......................|.......................|.......................|.......................|.......................|.......................|.......................|.......................|
.......................|.......................|.......................|.......................|.......................|.......................|.......................|.......................|.......................|.......................|
.......................|.......................|.......................|.......................|.......................|.......................|.......................|.......................|.......................|.......................|
.......................|.......................|.......................|.......................|.......................|.......................|.......................|.......................|.......................|.......................|
.......................|.......................|.......................|.......................|.......................|.......................|.......................|.......................|.......................|.......................|
.......................|.......................|.......................|.......................|.......................|C-4C3..8080............|.......................|.......................|.......................|.......................|
.......................|.......................|.......................|.......................|.......................|.......................|.......................|.......................|.......................|.......................|
.......................|.......................|.......................|.......................|.......................|.......................|.......................|.......................|.......................|.......................|
.......................|.......................|.......................|.......................|.......................|.......................|.......................|.......................|.......................|.......................|
.......................|.......................|.......................|.......................|.......................|C-4C3..................|.......................|.......................|.......................|.......................|
.......................|.......................|.......................|.......................|.......................|.......................|.......................|.......................|.......................|.......................|
.......................|.......................|.......................|.......................|.......................|.......................|.......................|.......................|.......................|.......................|
.......................|.......................|.......................|.......................|.......................|C-4C4..80FF............|.......................|.......................|.......................|.......................|
.......................|.......................|.......................|.......................|.......................|.......................|.......................|.......................|.......................|.......................|
.......................|.......................|.......................|.......................|.......................|.......................|.......................|.......................|.......................|.......................|
.......................|.......................|.......................|.......................|.......................|.......................|.......................|.......................|.......................|.......................|
.......................|.......................|.......................|.......................|.......................|.......................|.......................|.......................|.......................|.......................|
.......................|.......................|.......................|.......................|.......................|.......................|.......................|.......................|.......................|.......................|
.......................|.......................|.......................|.......................|.......................|.......................|.......................|.......................|.......................|.......................|
.......................|.......................|.......................|.......................|.......................|C-4C4..................|.......................|.......................|.......................|.......................|
.......................|.......................|.......................|.......................|.......................|.......................|.......................|.......................|.......................|.......................|
.......................|.......................|.......................|.......................|.......................|.......................|.......................|.......................|.......................|.......................|
.......................|.......................|.......................|.......................|.......................|.......................|.......................|.......................|.......................|.......................|
.......................|.......................|.......................|.......................|.......................|.......................|.......................|.......................|.......................|.......................|
.......................|.......................|.......................|.......................|.......................|.......................|.......................|.......................|.......................|.......................|
.......................|.......................|.......................|.......................|.......................|.......................|.......................|.......................|.......................|.......................|
D-4....................|D-3....................|A-3....................|D-3....................|.......................|C-4C0..8080............|F#1..0B................|.......................|.......................|.......................|
D-5....0340............|.......................|A-4....0340............|.......................|.......................|.......................|.......................|.......................|.......................|.......................|
.......................|.......................|.......................|.......................|.......................|.......................|.......................|.......................|.......................|.......................|
.......................|.......................|.......................|.......................|.......................|.......................|.......................|.......................|.......................|.......................|
.......................|.......................|.......................|.......................|.......................|.......................|.......................|.......................|.......................|.......................|
.......................|.......................|.......................|.......................|.......................|.......................|.......................|.......................|.......................|.......................|
.......................|.......................|.......................|.......................|.......................|.......................|.......................|.......................|.......................|.......................|
.......................|.......................|.......................|.......................|.......................|.......................|.......................|.......................|.......................|.......................|
.......................|.......................|.......................|.......................|.......................|.......................|.......................|.......................|.......................|.......................|
.......................|.......................|.......................|.......................|.......................|.......................|.......................|.......................|.......................|.......................|
.......................|.......................|.......................|.......................|.......................|.......................|.......................|.......................|.......................|.......................|
.......................|.......................|.......................|.......................|D-4....................|.......................|.......................|F#1..0A................|.......................|.......................|
.......................|.......................|.......................|.......................|D-5....0340............|.......................|.......................|.......................|.......................|.......................|
.......................|.......................|.......................|.......................|.......................|.......................|.......................|.......................|.......................|.......................|
.......................|.......................|.......................|.......................|.......................|.......................|.......................|.......................|.......................|.......................|
.......................|.......................|.......................|.......................|.......................|.......................|.......................|.......................|.......................|.......................|
.......................|.......................|.......................|.......................|.......................|.......................|.......................|.......................|.......................|.......................|
.......................|.......................|.......................|.......................|.......................|.......................|.......................|.......................|.......................|.......................|
.......................|.......................|.......................|.......................|.......................|.......................|.......................|.......................|.......................|.......................|
.......................|.......................|.......................|.......................|.......................|.......................|.......................|.......................|.......................|.......................|
===....E3000452........|===....E3000452........|===....E3000452........|===....E3000452........|.......................|.......................|===....................|.......................|.......................|.......................|
D-5....0400EA00........|D-3....0400EA00........|A-40F5F0400EA00........|D-4....0400EA00........|.......................|C-4C0..0400EA00........|F#2....0400EA00........|.......................|.......................|.......................|
C-0....0340............|.......................|C-0....0340............|.......................|.......................|.......................|.......................|.......................|.......................|.......................|
.......................|.......................|.......................|.......................|.......................|.......................|.......................|.......................|.......................|.......................|
.......................|.......................|.......................|.......................|.......................|.......................|.......................|.......................|.......................|.......................|
.......................|.......................|.......................|.......................|.......................|.......................|.......................|.......................|.......................|.......................|
.......................|.......................|.......................|.......................|.......................|.......................|.......................|.......................|.......................|.......................|
.......................|.......................|.......................|.......................|.......................|.......................|.......................|.......................|.......................|.......................|
.......................|.......................|.......................|.......................|.......................|.......................|.......................|.......................|.......................|.......................|
.......................|.......................|.......................|.......................|.......................|.......................|.......................|.......................|.......................|.......................|
.......................|.......................|.......................|.......................|.......................|.......................|.......................|.......................|.......................|.......................|
.......................|.......................|.......................|.......................|===....E3000452........|.......................|.......................|===....................|.......................|.......................|
.......................|.......................|.......................|.......................|D-5....0400EA00........|.......................|.......................|F#2....0400EA00........|.......................|.......................|
.......................|.......................|.......................|.......................|C-0....0340............|.......................|.......................|.......................|.......................|.......................|
.......................|===....................|.......................|.......................|.......................|.......................|.......................|.......................|.......................|.......................|
.......................|D-3....................|.......................|.......................|.......................|C-4C0..................|.......................|.......................|.......................|.......................|
.......................|.......................|.......................|.......................|.......................|.......................|.......................|.......................|.......................|.......................|
.......................|.......................|.......................|.......................|.......................|.......................|.......................|.......................|.......................|.......................|
.......................|.......................|.......................|.......................|.......................|.......................|.......................|.......................|.......................|.......................|
.......................|.......................|.......................|.......................|.......................|.......................|.......................|.......................|.......................|.......................|
.......................|.......................|.......................|.......................|.......................|.......................|.......................|.......................|.......................|.......................|
.......E3000452........|===....................|.......E3000452........|.......E3000452........|.......................|.......................|.......0452............|.......................|.......................|.......................|
.......................|D-3....................|.......................|.......................|.......................|C-4C1..................|.......................|.......................|.......................|.......................|
.......................|.......................|.......................|.......................|.......................|.......................|.......................|.......................|.......................|.......................|
.......................|.......................|.......................|.......................|.......................|.......................|.......................|.......................|.......................|.......................|
.......................|.......................|.......................|.......................|.......................|.......................|.......................|.......................|.......................|.......................|
.......................|.......................|.......................|.......................|.......................|.......................|.......................|.......................|.......................|.......................|
.......................|.......................|.......................|.......................|.......................|.......................|.......................|.......................|.......................|.......................|
.......................|===....................|.......................|.......................|.......................|.......................|.......................|.......................|.......................|.......................|
.......................|D-3....................|.......................|.......................|.......................|C-4C0..................|.......................|.......................|.......................|.......................|
.......................|.......................|.......................|.......................|.......................|.......................|.......................|.......................|.......................|.......................|
.......................|.......................|.......................|.......................|.......................|.......................|.......................|.......................|.......................|.......................|
===....................|.......................|===....................|.......................|.......E3000452........|.......................|.......................|.......0452............|.......................|.......................|
C-0....0400............|.......................|C-0....0400............|.......................|.......................|.......................|.......................|.......................|.......................|.......................|
.......................|.......................|.......................|.......................|.......................|.......................|.......................|.......................|.......................|.......................|
.......................|===....................|.......................|.......................|.......................|.......................|.......................|.......................|.......................|.......................|
.......................|D-3....................|.......................|.......................|.......................|C-4C0..................|.......................|.......................|.......................|.......................|
===....................|.......................|===....................|.......................|.......................|.......................|.......................|.......................|.......................|.......................|
C-0....................|.......................|C-0....................|.......................|.......................|.......................|.......................|.......................|.......................|.......................|
C-0....0340............|.......................|F#5....0340............|.......................|.......................|.......................|.......................|.......................|.......................|.......................|
.......................|.......................|.......................|.......................|.......................|.......................|.......................|.......................|.......................|.......................|
.......................|.......................|.......................|.......................|.......................|.......................|.......................|.......................|.......................|.......................|
===....................|===....................|===....................|.......................|.......................|.......................|.......................|.......................|.......................|.......................|
C-0....................|D-3....................|F#5....................|.......................|===....................|C-4C0..................|.......................|.......................|.......................|.......................|
C-0....0340............|.......................|E-5....0340............|.......................|C-0....0400............|.......................|.......................|.......................|.......................|.......................|
.......................|.......................|.......................|.......................|.......................|.......................|.......................|.......................|.......................|.......................|
.......................|.......................|.......................|.......................|.......................|.......................|.......................|.......................|.......................|.......................|
.......................|.......................|.......................|.......................|.......................|.......................|.......................|.......................|.......................|.......................|
.......................|.......................|.......................|.......................|===....................|.......................|.......................|.......................|.......................|.......................|
.......................|.......................|.......................|.......................|C-0....................|.......................|.......................|.......................|.......................|.......................|
.......................|.......................|.......................|.......................|C-0....0340............|.......................|.......................|.......................|.......................|.......................|
.......................|.......................|.......................|.......................|.......................|.......................|.......................|.......................|.......................|.......................|
.......................|.......................|.......................|.......................|.......................|.......................|.......................|.......................|.......................|.......................|
.......................|.......................|.......................|.......................|===....................|.......................|.......................|.......................|.......................|.......................|
.......................|.......................|.......................|.......................|C-0....................|.......................|.......................|.......................|.......................|.......................|
.......................|.......................|.......................|.......................|C-0....0340............|.......................|.......................|.......................|.......................|.......................|
.......................|===....................|.......................|.......................|.......................|.......................|.......................|.......................|.......................|.......................|
.......................|D-3....................|.......................|.......................|.......................|C-4C0..................|.......................|.......................|.......................|.......................|
.......................|.......................|.......................|.......................|.......................|.......................|.......................|.......................|.......................|.......................|
.......................|.......................|.......................|.......................|.......................|.......................|.......................|.......................|.......................|.......................|
.......................|.......................|.......................|.......................|.......................|.......................|.......................|.......................|.......................|.......................|
.......................|.......................|.......................|.......................|.......................|.......................|.......................|.......................|.......................|.......................|
.......................|.......................|.......................|.......................|.......................|.......................|.......................|.......................|.......................|.......................|
===....E3000452........|===....................|===....E3000452........|.......................|.......................|.......................|.......................|.......................|.......................|.......................|
C-0....0400............|D-3....................|E-5....0400............|.......................|.......................|C-4C1..................|.......................|.......................|.......................|.......................|
.......................|.......................|.......................|.......................|.......................|.......................|.......................|.......................|.......................|.......................|
.......................|.......................|.......................|.......................|.......................|.......................|.......................|.......................|.......................|.......................|
.......................|.......................|.......................|.......................|.......................|.......................|.......................|.......................|.......................|.......................|
.......................|.......................|.......................|.......................|.......................|.......................|.......................|.......................|.......................|.......................|
.......................|.......................|.......................|.......................|.......................|.......................|.......................|.......................|.......................|.......................|
.......................|===....................|.......................|.......................|.......................|.......................|.......................|.......................|.......................|.......................|
.......................|D-3....................|.......................|.......................|.......................|C-4C0..................|.......................|.......................|.......................|.......................|
.......................|.......................|.......................|.......................|.......................|.......................|.......................|.......................|.......................|.......................|
.......................|.......................|.......................|.......................|.......................|.......................|.......................|.......................|.......................|.......................|
.......................|.......................|.......................|.......................|===....E3000452........|.......................|.......................|.......................|.......................|.......................|
.......................|.......................|.......................|.......................|C-0....0400............|.......................|.......................|.......................|.......................|.......................|
.......................|.......................|.......................|.......................|.......................|.......................|.......................|.......................|.......................|.......................|
.......................|===....................|.......................|.......................|.......................|.......................|.......................|.......................|.......................|.......................|
.......................|D-3....................|.......................|.......................|.......................|C-4C0..................|.......................|.......................|.......................|.......................|
===....................|.......................|===....................|.......................|.......................|.......................|.......................|.......................|.......................|.......................|
C-0....................|.......................|E-5....................|.......................|.......................|.......................|.......................|.......................|.......................|.......................|
C-0....0340............|.......................|C-0....0340............|.......................|.......................|.......................|.......................|.......................|.......................|.......................|
.......................|.......................|.......................|.......................|.......................|.......................|.......................|.......................|.......................|.......................|
.......................|.......................|.......................|.......................|.......................|.......................|.......................|.......................|.......................|.......................|
===....................|===....................|===....................|===....................|.......................|.......................|===....................|.......................|.......................|.......................|
C-0....................|C-3....................|C-0....................|E-4....0400............|.......................|C-4C0..................|G-2....0400............|.......................|.......................|.......................|
C-0....0340............|.......................|G-5....0340............|.......................|.......................|.......................|.......................|.......................|.......................|.......................|
.......................|.......................|.......................|.......................|.......................|.......................|.......................|.......................|.......................|.......................|
.......................|.......................|.......................|.......................|.......................|.......................|.......................|.......................|.......................|.......................|
.......................|.......................|.......................|.......................|.......................|.......................|.......................|.......................|.......................|.......................|
.......................|.......................|.......................|.......................|===....................|.......................|.......................|.......................|.......................|.......................|
.......................|.......................|.......................|.......................|C-0....................|.......................|.......................|.......................|.......................|.......................|
.......................|.......................|.......................|.......................|C-0....0340............|.......................|.......................|.......................|.......................|.......................|
.......................|.......................|.......................|.......................|.......................|.......................|.......................|.......................|.......................|.......................|
.......................|.......................|.......................|.......................|.......................|.......................|.......................|.......................|.......................|.......................|
.......................|.......................|.......................|.......................|===....................|.......................|.......................|===....................|.......................|.......................|
.......................|.......................|.......................|.......................|C-0....................|.......................|.......................|G-2....0400............|.......................|.......................|
.......................|.......................|.......................|.......................|C-0....0340............|.......................|.......................|.......................|.......................|.......................|
.......................|===....................|.......................|.......................|.......................|.......................|.......................|.......................|.......................|.......................|
.......................|C-3....................|.......................|.......................|.......................|C-4C0..................|.......................|.......................|.......................|.......................|
.......................|.......................|.......................|.......................|.......................|.......................|.......................|.......................|.......................|.......................|
.......................|.......................|.......................|.......................|.......................|.......................|.......................|.......................|.......................|.......................|
.......................|.......................|.......................|.......................|.......................|.......................|.......................|.......................|.......................|.......................|
.......................|.......................|.......................|.......................|.......................|.......................|.......................|.......................|.......................|.......................|
.......................|.......................|.......................|.......................|.......................|.......................|.......................|.......................|.......................|.......................|
===....E3000452........|===....................|===....E3000452........|.......E3000452........|.......................|.......................|.......0452............|.......................|.......................|.......................|
C-0....0400............|C-3....................|G-5....0400............|.......................|.......................|C-4C1..................|.......................|.......................|.......................|.......................|
C-0....0340............|.......................|.......................|.......................|.......................|.......................|.......................|.......................|.......................|.......................|
.......................|.......................|.......................|.......................|.......................|.......................|.......................|.......................|.......................|.......................|
.......................|.......................|.......................|.......................|.......................|.......................|.......................|.......................|.......................|.......................|
.......................|.......................|.......................|.......................|.......................|.......................|.......................|.......................|.......................|.......................|
.......................|.......................|.......................|.......................|.......................|.......................|.......................|.......................|.......................|.......................|
.......................|===....................|.......................|.......................|.......................|.......................|.......................|.......................|.......................|.......................|
.......................|C-3....................|.......................|.......................|.......................|C-4C0..................|.......................|.......................|.......................|.......................|
.......................|.......................|.......................|.......................|.......................|.......................|.......................|.......................|.......................|.......................|
.......................|.......................|.......................|.......................|.......................|.......................|.......................|.......................|.......................|.......................|
.......................|.......................|.......................|.......................|===....E3000452........|.......................|.......................|.......0452............|.......................|.......................|
.......................|.......................|.......................|.......................|C-0....0400............|.......................|.......................|.......................|.......................|.......................|
.......................|.......................|.......................|.......................|C-0....0340............|.......................|.......................|.......................|.......................|.......................|
.......................|===....................|.......................|.......................|.......................|.......................|.......................|.......................|.......................|.......................|
.......................|C-3....................|.......................|.......................|.......................|C-4C0..................|.......................|.......................|.......................|.......................|
.......................|.......................|.......................|.......................|.......................|.......................|.......................|.......................|.......................|.......................|
.......................|.......................|.......................|.......................|.......................|.......................|.......................|.......................|.......................|.......................|
.......................|.......................|.......................|.......................|.......................|.......................|.......................|.......................|.......................|.......................|
.......................|.......................|.......................|.......................|.......................|.......................|.......................|.......................|.......................|.......................|
.......................|.......................|.......................|.......................|.......................|.......................|.......................|.......................|.......................|.......................|
===....E3000452........|===....................|===....E3000452........|.......................|.......................|.......................|.......................|.......................|.......................|.......................|
C-0....0400............|C-3....................|G-5....0400............|.......................|.......................|C-4C0..................|.......................|.......................|.......................|.......................|
C-0....0340............|.......................|E-5....0340............|.......................|.......................|.......................|.......................|.......................|.......................|.......................|
.......................|.......................|.......................|.......................|.......................|.......................|.......................|.......................|.......................|.......................|
.......................|.......................|.......................|.......................|.......................|.......................|.......................|.......................|.......................|.......................|
.......................|.......................|.......................|.......................|.......................|.......................|.......................|.......................|.......................|.......................|
.......................|.......................|.......................|.......................|.......................|.......................|.......................|.......................|.......................|.......................|
.......................|.......................|.......................|.......................|.......................|.......................|.......................|.......................|.......................|.......................|
.......................|.......................|.......................|.......................|.......................|.......................|.......................|.......................|.......................|.......................|
.......................|.......................|.......................|.......................|.......................|.......................|.......................|.......................|.......................|.......................|
.......................|.......................|.......................|.......................|.......................|.......................|.......................|.......................|.......................|.......................|
.......................|.......................|.......................|.......................|===....E3000452........|.......................|.......................|.......................|.......................|.......................|
.......................|.......................|.......................|.......................|C-0....0400............|.......................|.......................|.......................|.......................|.......................|
.......................|.......................|.......................|.......................|C-0....0340............|.......................|.......................|.......................|.......................|.......................|
.......................|===....................|.......................|.......................|.......................|.......................|.......................|.......................|.......................|.......................|
.......................|C-3....................|.......................|.......................|.......................|C-4C0..................|.......................|.......................|.......................|.......................|
.......................|.......................|.......................|.......................|.......................|.......................|.......................|.......................|.......................|.......................|
.......................|.......................|.......................|.......................|.......................|.......................|.......................|.......................|.......................|.......................|
.......................|.......................|.......................|.......................|.......................|.......................|.......................|.......................|.......................|.......................|
.......................|.......................|.......................|.......................|.......................|.......................|.......................|.......................|.......................|.......................|
.......................|.......................|.......................|.......................|.......................|.......................|.......................|.......................|.......................|.......................|
===....E3000452........|===....................|===....E3000452........|.......................|.......................|.......................|.......................|.......................|.......................|.......................|
C-0....0400............|C-3....................|E-5....0400............|.......................|.......................|C-4C1..................|.......................|.......................|.......................|.......................|
G-5....0340............|.......................|D-5....0340............|.......................|.......................|.......................|.......................|.......................|.......................|.......................|
.......................|.......................|.......................|.......................|.......................|.......................|.......................|.......................|.......................|.......................|
.......................|.......................|.......................|.......................|.......................|.......................|.......................|.......................|.......................|.......................|
.......................|.......................|.......................|.......................|.......................|.......................|.......................|.......................|.......................|.......................|
.......................|.......................|.......................|.......................|.......................|.......................|.......................|.......................|.......................|.......................|
.......................|===....................|.......................|.......................|.......................|.......................|.......................|.......................|.......................|.......................|
.......................|C-3....................|.......................|.......................|.......................|C-4C0..................|.......................|.......................|.......................|.......................|
.......................|.......................|.......................|.......................|.......................|.......................|.......................|.......................|.......................|.......................|
.......................|.......................|.......................|.......................|.......................|.......................|.......................|.......................|.......................|.......................|
.......................|.......................|.......................|.......................|===....E3000452........|.......................|.......................|.......................|.......................|.......................|
.......................|.......................|.......................|.......................|C-0....0400............|.......................|.......................|.......................|.......................|.......................|
.......................|.......................|.......................|.......................|G-5....0340............|.......................|.......................|.......................|.......................|.......................|
.......................|===....................|.......................|.......................|.......................|.......................|.......................|.......................|.......................|.......................|
.......................|C-3....................|.......................|.......................|.......................|C-4C0..................|.......................|.......................|.......................|.......................|
.......................|.......................|.......................|.......................|.......................|.......................|.......................|.......................|.......................|.......................|
.......................|.......................|.......................|.......................|.......................|.......................|.......................|.......................|.......................|.......................|
.......................|.......................|.......................|.......................|.......................|.......................|.......................|.......................|.......................|.......................|
.......................|.......................|.......................|.......................|.......................|.......................|.......................|.......................|.......................|.......................|
.......................|.......................|.......................|.......................|.......................|.......................|.......................|.......................|.......................|.......................|
===....E3000452........|===....................|===....E3000452........|===....................|.......................|.......................|===....................|.......................|.......................|.......................|
G-5....0400............|D-3....................|D-5....0400............|F#4....0400............|.......................|C-4C0..................|A-2....0400............|.......................|.......................|.......................|
C-0....0340............|.......................|E-5....0340............|.......................|.......................|.......................|.......................|.......................|.......................|.......................|
.......................|.......................|.......................|.......................|.......................|.......................|.......................|.......................|.......................|.......................|
.......................|.......................|.......................|.......................|.......................|.......................|.......................|.......................|.......................|.......................|
org.tildearrow.furnace - Pattern Data (219)
0
.......................|.......................|.......................|.......................|.......................|.......................|.......................|.......................|.......................|.......................|
.......................|.......................|.......................|.......................|.......................|.......................|.......................|.......................|.......................|.......................|
.......................|.......................|.......................|.......................|.......................|.......................|.......................|.......................|.......................|.......................|
.......................|.......................|.......................|.......................|.......................|.......................|.......................|.......................|.......................|.......................|
.......................|.......................|.......................|.......................|.......................|.......................|.......................|.......................|.......................|.......................|
.......................|.......................|.......................|.......................|.......................|.......................|.......................|.......................|.......................|.......................|
.......................|.......................|.......................|.......................|===....E3000452........|.......................|.......................|===....................|.......................|.......................|
.......................|.......................|.......................|.......................|G-5....0400............|.......................|.......................|A-2....0400............|.......................|.......................|
.......................|.......................|.......................|.......................|C-0....0340............|.......................|.......................|.......................|.......................|.......................|
.......................|===....................|.......................|.......................|.......................|.......................|.......................|.......................|.......................|.......................|
.......................|D-3....................|.......................|.......................|.......................|C-4C0..................|.......................|.......................|.......................|.......................|
.......................|.......................|.......................|.......................|.......................|.......................|.......................|.......................|.......................|.......................|
.......................|.......................|.......................|.......................|.......................|.......................|.......................|.......................|.......................|.......................|
.......................|.......................|.......................|.......................|.......................|.......................|.......................|.......................|.......................|.......................|
.......................|.......................|.......................|.......................|.......................|.......................|.......................|.......................|.......................|.......................|
.......................|.......................|.......................|.......................|.......................|.......................|.......................|.......................|.......................|.......................|
.......E3000452........|===....................|.......E3000452........|===....E3000452........|.......................|.......................|===....0452............|.......................|.......................|.......................|
.......................|D-3....................|.......................|A-3066B0400............|.......................|C-4C1..................|D-2..0E0400............|.......................|.......................|.......................|
.......................|.......................|.......................|.......................|.......................|.......................|.......................|.......................|.......................|.......................|
.......................|.......................|.......................|.......................|.......................|.......................|.......................|.......................|.......................|.......................|
.......................|.......................|.......................|.......................|.......................|.......................|.......................|.......................|.......................|.......................|
.......................|.......................|.......................|.......................|.......................|.......................|.......................|.......................|.......................|.......................|
.......................|.......................|.......................|.......................|.......................|.......................|.......................|.......................|.......................|.......................|
.......................|===....................|.......................|===....................|.......................|.......................|===....................|.......................|.......................|.......................|
.......................|D-3....................|.......................|A-3....................|.......................|C-4C1..................|D-2....................|.......................|.......................|.......................|
.......................|.......................|.......................|.......................|.......................|.......................|.......................|.......................|.......................|.......................|
.......................|.......................|.......................|.......................|.......................|.......................|.......................|.......................|.......................|.......................|
.......................|.......................|.......................|.......................|.......E3000452........|.......................|.......................|===....0452............|.......................|.......................|
.......................|.......................|.......................|.......................|.......................|.......................|.......................|D-2....0400............|.......................|.......................|
.......................|.......................|.......................|.......................|.......................|.......................|.......................|.......................|.......................|.......................|
.......................|===....................|.......................|===....................|.......................|.......................|===....................|.......................|.......................|.......................|
.......................|D-3....................|.......................|A-3....................|.......................|C-4C1..................|D-2....................|.......................|.......................|.......................|
.......................|.......................|.......................|.......................|.......................|.......................|.......................|.......................|.......................|.......................|
.......................|.......................|.......................|.......................|.......................|.......................|.......................|.......................|.......................|.......................|
.......................|.......................|.......................|.......................|.......................|.......................|.......................|===....................|.......................|.......................|
.......................|.......................|.......................|.......................|.......................|.......................|.......................|D-2....................|.......................|.......................|
.......................|.......................|.......................|.......................|.......................|.......................|.......................|.......................|.......................|.......................|
.......................|===....................|.......................|===....................|.......................|.......................|===....................|.......................|.......................|.......................|
.......................|D-3....................|.......................|===....................|.......................|C-4C0..................|===....................|.......................|.......................|.......................|
.......................|.......................|.......................|.......................|.......................|.......................|.......................|.......................|.......................|.......................|
.......................|.......................|.......................|.......................|.......................|.......................|.......................|.......................|.......................|.......................|
.......................|.......................|.......................|.......................|.......................|.......................|.......................|===....................|.......................|.......................|
.......................|.......................|.......................|.......................|.......................|.......................|.......................|D-2....................|.......................|.......................|
.......................|.......................|.......................|.......................|.......................|.......................|.......................|.......................|.......................|.......................|
.......................|.......................|.......................|.......................|.......................|.......................|.......................|.......................|.......................|.......................|
.......................|.......................|.......................|.......................|.......................|.......................|.......................|.......................|.......................|.......................|
.......................|.......................|.......................|.......................|.......................|.......................|.......................|.......................|.......................|.......................|
.......................|.......................|.......................|.......................|.......................|.......................|.......................|.......................|.......................|.......................|
.......................|.......................|.......................|.......................|.......................|.......................|.......................|===....................|.......................|.......................|
.......................|.......................|.......................|.......................|.......................|.......................|.......................|===....................|.......................|.......................|
.......................|.......................|.......................|.......................|.......................|.......................|.......................|.......................|.......................|.......................|
.......................|===....................|.......................|.......................|.......................|.......................|.......................|.......................|.......................|.......................|
.......................|D-3....................|.......................|.......................|.......................|C-4C0..................|.......................|.......................|.......................|.......................|
.......................|.......................|.......................|.......................|.......................|.......................|.......................|.......................|.......................|.......................|
.......................|.......................|.......................|.......................|.......................|.......................|.......................|.......................|.......................|.......................|
.......................|.......................|.......................|.......................|.......................|.......................|.......................|.......................|.......................|.......................|
.......................|.......................|.......................|.......................|.......................|.......................|.......................|.......................|.......................|.......................|
.......................|.......................|.......................|.......................|.......................|.......................|.......................|.......................|.......................|.......................|
.......................|===....................|.......................|.......................|.......................|.......................|.......................|.......................|.......................|.......................|
.......................|D-3....................|.......................|A-3....8000............|.......................|C-4C1..................|D-2....................|.......................|.......................|.......................|
.......................|.......................|.......................|.......................|.......................|.......................|.......................|.......................|.......................|.......................|
.......................|.......................|.......................|.......................|.......................|.......................|.......................|.......................|.......................|.......................|
.......................|.......................|.......................|.......................|.......................|.......................|.......................|.......................|.......................|.......................|
.......................|.......................|.......................|.......................|.......................|.......................|.......................|.......................|.......................|.......................|
.......................|.......................|.......................|.......................|.......................|.......................|.......................|.......................|.......................|.......................|
.......................|===....................|.......................|===....................|.......................|.......................|===....................|.......................|.......................|.......................|
.......................|D-3....................|.......................|A-3....................|.......................|C-4C1..................|D-2....................|.......................|.......................|.......................|
.......................|.......................|.......................|.......................|.......................|.......................|.......................|.......................|.......................|.......................|
.......................|.......................|.......................|.......................|.......................|.......................|.......................|.......................|.......................|.......................|
.......................|.......................|.......................|.......................|.......................|.......................|.......................|.......................|.......................|.......................|
.......................|.......................|.......................|.......................|.......................|.......................|.......................|D-2....................|.......................|.......................|
.......................|.......................|.......................|.......................|.......................|.......................|.......................|.......................|.......................|.......................|
.......................|===....................|.......................|===....................|.......................|.......................|===....................|.......................|.......................|.......................|
.......................|D-3....................|.......................|A-3....................|.......................|C-4C1..................|D-2....................|.......................|.......................|.......................|
.......................|.......................|.......................|.......................|.......................|.......................|.......................|.......................|.......................|.......................|
.......................|.......................|.......................|.......................|.......................|.......................|.......................|.......................|.......................|.......................|
.......................|.......................|.......................|.......................|.......................|.......................|.......................|===....................|.......................|.......................|
.......................|.......................|.......................|.......................|.......................|.......................|.......................|D-2....................|.......................|.......................|
.......................|.......................|.......................|.......................|.......................|.......................|.......................|.......................|.......................|.......................|
.......................|===....................|.......................|===....................|.......................|.......................|===....................|.......................|.......................|.......................|
.......................|D-3....................|.......................|===....................|.......................|C-4C0..................|===....................|.......................|.......................|.......................|
.......................|.......................|.......................|.......................|.......................|.......................|.......................|.......................|.......................|.......................|
.......................|.......................|.......................|.......................|.......................|.......................|.......................|.......................|.......................|.......................|
.......................|.......................|.......................|.......................|.......................|.......................|.......................|===....................|.......................|.......................|
.......................|.......................|.......................|.......................|.......................|.......................|.......................|D-2....................|.......................|.......................|
.......................|.......................|.......................|.......................|.......................|.......................|.......................|.......................|.......................|.......................|
.......................|.......................|.......................|.......................|.......................|.......................|.......................|.......................|.......................|.......................|
.......................|.......................|.......................|.......................|.......................|.......................|.......................|.......................|.......................|.......................|
.......................|.......................|.......................|.......................|.......................|.......................|.......................|.......................|.......................|.......................|
.......................|.......................|.......................|.......................|.......................|.......................|.......................|.......................|.......................|.......................|
.......................|.......................|.......................|.......................|.......................|.......................|.......................|===....................|.......................|.......................|
.......................|.......................|.......................|.......................|.......................|.......................|.......................|===....................|.......................|.......................|
.......................|.......................|.......................|.......................|.......................|.......................|.......................|.......................|.......................|.......................|
.......................|===....................|.......................|.......................|.......................|.......................|.......................|.......................|.......................|.......................|
.......................|D-3....................|.......................|.......................|.......................|C-4C0..................|.......................|.......................|.......................|.......................|
.......................|.......................|.......................|.......................|.......................|.......................|.......................|.......................|.......................|.......................|
.......................|.......................|.......................|.......................|.......................|.......................|.......................|.......................|.......................|.......................|
.......................|.......................|.......................|.......................|.......................|.......................|.......................|.......................|.......................|.......................|
.......................|.......................|.......................|.......................|.......................|.......................|.......................|.......................|.......................|.......................|
.......................|.......................|.......................|.......................|.......................|.......................|.......................|.......................|.......................|.......................|
.......................|===....................|.......................|.......................|.......................|.......................|.......................|.......................|.......................|.......................|
.......................|D-3....................|.......................|A-3....80FF............|.......................|C-4C1..................|D-2....................|.......................|.......................|.......................|
.......................|.......................|.......................|.......................|.......................|.......................|.......................|.......................|.......................|.......................|
.......................|.......................|.......................|.......................|.......................|.......................|.......................|.......................|.......................|.......................|
.......................|.......................|.......................|.......................|.......................|.......................|.......................|.......................|.......................|.......................|
.......................|.......................|.......................|.......................|.......................|.......................|.......................|.......................|.......................|.......................|
.......................|.......................|.......................|.......................|.......................|.......................|.......................|.......................|.......................|.......................|
.......................|===....................|.......................|===....................|.......................|.......................|===....................|.......................|.......................|.......................|
.......................|D-3....................|.......................|A-3....................|.......................|C-4C1..................|D-2....................|.......................|.......................|.......................|
.......................|.......................|.......................|.......................|.......................|.......................|.......................|.......................|.......................|.......................|
.......................|.......................|.......................|.......................|.......................|.......................|.......................|.......................|.......................|.......................|
.......................|.......................|.......................|.......................|.......................|.......................|.......................|.......................|.......................|.......................|
.......................|.......................|.......................|.......................|.......................|.......................|.......................|D-2....................|.......................|.......................|
.......................|.......................|.......................|.......................|.......................|.......................|.......................|.......................|.......................|.......................|
.......................|===....................|.......................|===....................|.......................|.......................|===....................|.......................|.......................|.......................|
.......................|D-3....................|.......................|A-3....................|.......................|C-4C1..................|D-2....................|.......................|.......................|.......................|
.......................|.......................|.......................|.......................|.......................|.......................|.......................|.......................|.......................|.......................|
.......................|.......................|.......................|.......................|.......................|.......................|.......................|.......................|.......................|.......................|
.......................|.......................|.......................|.......................|.......................|.......................|.......................|===....................|.......................|.......................|
.......................|.......................|.......................|.......................|.......................|.......................|.......................|D-2....................|.......................|.......................|
.......................|.......................|.......................|.......................|.......................|.......................|.......................|.......................|.......................|.......................|
.......................|===....................|.......................|===....................|.......................|.......................|===....................|.......................|.......................|.......................|
.......................|G-3....................|.......................|G-3..6F8000............|.......................|C-4C2..8000............|G-1....................|.......................|.......................|.......................|
.......................|.......................|.......................|.......................|.......................|.......................|.......................|.......................|.......................|.......................|
.......................|.......................|.......................|.......................|.......................|.......................|.......................|.......................|.......................|.......................|
.......................|.......................|.......................|.......................|.......................|.......................|.......................|===....................|.......................|.......................|
.......................|.......................|.......................|.......................|.......................|.......................|.......................|D-2....................|.......................|.......................|
.......................|.......................|.......................|.......................|.......................|.......................|.......................|.......................|.......................|.......................|
.......................|===....................|.......................|===....................|.......................|.......................|===....................|.......................|.......................|.......................|
.......................|A-3....................|.......................|A-3....................|.......................|C-4C3..8080............|A-1....................|.......................|.......................|.......................|
.......................|.......................|.......................|.......................|.......................|.......................|.......................|.......................|.......................|.......................|
.......................|.......................|.......................|.......................|.......................|.......................|.......................|.......................|.......................|.......................|
.......................|.......................|.......................|.......................|.......................|.......................|.......................|===....................|.......................|.......................|
.......................|.......................|.......................|.......................|.......................|.......................|.......................|G-1....................|.......................|.......................|
.......................|.......................|.......................|.......................|.......................|.......................|.......................|.......................|.......................|.......................|
.......................|===....................|.......................|===....................|.......................|.......................|===....................|.......................|.......................|.......................|
.......................|C-4....................|.......................|C-4....................|.......................|C-4C3..................|C-2....................|.......................|.......................|.......................|
.......................|.......................|.......................|.......................|.......................|.......................|.......................|.......................|.......................|.......................|
.......................|.......................|.......................|.......................|.......................|.......................|.......................|.......................|.......................|.......................|
.......................|.......................|.......................|.......................|.......................|.......................|.......................|===....................|.......................|.......................|
.......................|.......................|.......................|.......................|.......................|.......................|.......................|A-1....................|.......................|.......................|
.......................|.......................|.......................|.......................|.......................|.......................|.......................|.......................|.......................|.......................|
===....................|===....................|===....................|===....................|.......................|.......................|===....................|.......................|.......................|.......................|
C-0....0400............|D-4....................|E-5....0400............|D-4....80FF............|.......................|C-4C3..................|D-2....................|.......................|.......................|.......................|
D-5....0340............|.......................|A-4....0340............|.......................|.......................|.......................|.......................|.......................|.......................|.......................|
.......................|.......................|.......................|.......................|.......................|.......................|.......................|.......................|.......................|.......................|
.......................|.......................|.......................|.......................|.......................|.......................|.......................|===....................|.......................|.......................|
.......................|.......................|.......................|.......................|.......................|.......................|.......................|C-2....................|.......................|.......................|
.......................|.......................|.......................|.......................|.......................|.......................|.......................|.......................|.......................|.......................|
.......................|===....................|.......................|===....................|.......................|.......................|===....................|.......................|.......................|.......................|
.......................|A-3....................|.......................|A-3....................|.......................|C-4C4..80FF............|A-1....................|.......................|.......................|.......................|
.......................|.......................|.......................|.......................|.......................|.......................|.......................|.......................|.......................|.......................|
.......................|.......................|.......................|.......................|.......................|.......................|.......................|.......................|.......................|.......................|
.......................|.......................|.......................|.......................|===....................|.......................|.......................|===....................|.......................|.......................|
.......................|.......................|.......................|.......................|C-0....0400............|.......................|.......................|D-2....................|.......................|.......................|
.......................|.......................|.......................|.......................|D-5....0340............|.......................|.......................|.......................|.......................|.......................|
.......................|===....................|.......................|===....................|.......................|.......................|===....................|.......................|.......................|.......................|
.......................|D-3....................|.......................|D-3....................|.......................|C-4C4..................|D-1....................|.......................|.......................|.......................|
.......................|.......................|.......................|.......................|.......................|.......................|.......................|.......................|.......................|.......................|
.......................|.......................|.......................|.......................|.......................|.......................|.......................|.......................|.......................|.......................|
.......................|.......................|.......................|.......................|.......................|.......................|.......................|===....................|.......................|.......................|
.......................|.......................|.......................|.......................|.......................|.......................|.......................|A-1....................|.......................|.......................|
.......................|.......................|.......................|.......................|.......................|.......................|.......................|.......................|.......................|.......................|
===....E3000452........|===....................|===....E3000452........|===....................|.......................|.......................|===....................|.......................|.......................|.......................|
D-5....0400............|D-3....................|A-4....0400............|D-40C5F................|.......................|C-4C0..8080............|F#2..0B................|.......................|.......................|.......................|
C-0....0340............|.......................|C-0....0340............|.......................|.......................|.......................|.......................|.......................|.......................|.......................|
.......................|.......................|.......................|.......................|.......................|.......................|.......................|.......................|.......................|.......................|
.......................|.......................|.......................|.......................|.......................|.......................|.......................|===....................|.......................|.......................|
.......................|.......................|.......................|.......................|.......................|.......................|.......................|D-1....................|.......................|.......................|
.......................|.......................|.......................|.......................|.......................|.......................|.......................|.......................|.......................|.......................|
.......................|.......................|.......................|.......................|.......................|.......................|.......................|.......................|.......................|.......................|
.......................|.......................|.......................|.......................|.......................|.......................|.......................|.......................|.......................|.......................|
.......................|.......................|.......................|.......................|.......................|.......................|.......................|.......................|.......................|.......................|
.......................|.......................|.......................|.......................|.......................|.......................|.......................|.......................|.......................|.......................|
.......................|.......................|.......................|.......................|===....E3000452........|.......................|.......................|===....................|.......................|.......................|
.......................|.......................|.......................|.......................|D-5....0400............|.......................|.......................|F#2....................|.......................|.......................|
.......................|.......................|.......................|.......................|C-0....0340............|.......................|.......................|.......................|.......................|.......................|
.......................|===....................|.......................|.......................|.......................|.......................|.......................|.......................|.......................|.......................|
.......................|D-3....................|.......................|.......................|.......................|C-4C0..................|.......................|.......................|.......................|.......................|
.......................|.......................|.......................|.......................|.......................|.......................|.......................|.......................|.......................|.......................|
.......................|.......................|.......................|.......................|.......................|.......................|.......................|.......................|.......................|.......................|
.......................|.......................|.......................|.......................|.......................|.......................|.......................|.......................|.......................|.......................|
.......................|.......................|.......................|.......................|.......................|.......................|.......................|.......................|.......................|.......................|
.......................|.......................|.......................|.......................|.......................|.......................|.......................|.......................|.......................|.......................|
.......E3000452........|===....................|.......E3000452........|.......E3000452........|.......................|.......................|.......0452............|.......................|.......................|.......................|
.......................|D-3....................|.......................|.......................|.......................|C-4C1..................|.......................|.......................|.......................|.......................|
.......................|.......................|.......................|.......................|.......................|.......................|.......................|.......................|.......................|.......................|
.......................|.......................|.......................|.......................|.......................|.......................|.......................|.......................|.......................|.......................|
.......................|.......................|.......................|.......................|.......................|.......................|.......................|.......................|.......................|.......................|
.......................|.......................|.......................|.......................|.......................|.......................|.......................|.......................|.......................|.......................|
.......................|.......................|.......................|.......................|.......................|.......................|.......................|.......................|.......................|.......................|
.......................|===....................|.......................|.......................|.......................|.......................|.......................|.......................|.......................|.......................|
.......................|D-3....................|.......................|.......................|.......................|C-4C0..................|.......................|.......................|.......................|.......................|
.......................|.......................|.......................|.......................|.......................|.......................|.......................|.......................|.......................|.......................|
.......................|.......................|.......................|.......................|.......................|.......................|.......................|.......................|.......................|.......................|
===....................|.......................|===....................|.......................|.......E3000452........|.......................|.......................|.......0452............|.......................|.......................|
C-0....0400............|.......................|C-0....0400............|.......................|.......................|.......................|.......................|.......................|.......................|.......................|
.......................|.......................|.......................|.......................|.......................|.......................|.......................|.......................|.......................|.......................|
.......................|===....................|.......................|.......................|.......................|.......................|.......................|.......................|.......................|.......................|
.......................|D-3....................|.......................|.......................|.......................|C-4C0..................|.......................|.......................|.......................|.......................|
===....................|.......................|===....................|.......................|.......................|.......................|.......................|.......................|.......................|.......................|
C-0....................|.......................|C-0....................|.......................|.......................|.......................|.......................|.......................|.......................|.......................|
C-0....0340............|.......................|F#5....0340............|.......................|.......................|.......................|.......................|.......................|.......................|.......................|
.......................|.......................|.......................|.......................|.......................|.......................|.......................|.......................|.......................|.......................|
.......................|.......................|.......................|.......................|.......................|.......................|.......................|.......................|.......................|.......................|
===....................|===....................|===....................|.......................|.......................|.......................|.......................|.......................|.......................|.......................|
C-0....................|D-3....................|F#5....................|.......................|===....................|C-4C0..................|.......................|.......................|.......................|.......................|
C-0....0340............|.......................|E-5....0340............|.......................|C-0....0400............|.......................|.......................|.......................|.......................|.......................|
.......................|.......................|.......................|.......................|.......................|.......................|.......................|.......................|.......................|.......................|
.......................|.......................|.......................|.......................|.......................|.......................|.......................|.......................|.......................|.......................|
.......................|.......................|.......................|.......................|.......................|.......................|.......................|.......................|.......................|.......................|
.......................|.......................|.......................|.......................|===....................|.......................|.......................|.......................|.......................|.......................|
.......................|.......................|.......................|.......................|C-0....................|.......................|.......................|.......................|.......................|.......................|
.......................|.......................|.......................|.......................|C-0....0340............|.......................|.......................|.......................|.......................|.......................|
.......................|.......................|.......................|.......................|.......................|.......................|.......................|.......................|.......................|.......................|
.......................|.......................|.......................|.......................|.......................|.......................|.......................|.......................|.......................|.......................|
.......................|.......................|.......................|.......................|===....................|.......................|.......................|.......................|.......................|.......................|
.......................|.......................|.......................|.......................|C-0....................|.......................|.......................|.......................|.......................|.......................|
.......................|.......................|.......................|.......................|C-0....0340............|.......................|.......................|.......................|.......................|.......................|
.......................|===....................|.......................|.......................|.......................|.......................|.......................|.......................|.......................|.......................|
.......................|D-3....................|.......................|.......................|.......................|C-4C0..................|.......................|.......................|.......................|.......................|
.......................|.......................|.......................|.......................|.......................|.......................|.......................|.......................|.......................|.......................|
.......................|.......................|.......................|.......................|.......................|.......................|.......................|.......................|.......................|.......................|
.......................|.......................|.......................|.......................|.......................|.......................|.......................|.......................|.......................|.......................|
.......................|.......................|.......................|.......................|.......................|.......................|.......................|.......................|.......................|.......................|
.......................|.......................|.......................|.......................|.......................|.......................|.......................|.......................|.......................|.......................|
===....E3000452........|===....................|===....E3000452........|.......................|.......................|.......................|.......................|.......................|.......................|.......................|
C-0....0400............|D-3....................|E-5....0400............|.......................|.......................|C-4C1..................|.......................|.......................|.......................|.......................|
.......................|.......................|.......................|.......................|.......................|.......................|.......................|.......................|.......................|.......................|
.......................|.......................|.......................|.......................|.......................|.......................|.......................|.......................|.......................|.......................|
.......................|.......................|.......................|.......................|.......................|.......................|.......................|.......................|.......................|.......................|
.......................|.......................|.......................|.......................|.......................|.......................|.......................|.......................|.......................|.......................|
.......................|.......................|.......................|.......................|.......................|.......................|.......................|.......................|.......................|.......................|
.......................|===....................|.......................|.......................|.......................|.......................|.......................|.......................|.......................|.......................|
.......................|D-3....................|.......................|.......................|.......................|C-4C0..................|.......................|.......................|.......................|.......................|
.......................|.......................|.......................|.......................|.......................|.......................|.......................|.......................|.......................|.......................|
.......................|.......................|.......................|.......................|.......................|.......................|.......................|.......................|.......................|.......................|
.......................|.......................|.......................|.......................|===....E3000452........|.......................|.......................|.......................|.......................|.......................|
.......................|.......................|.......................|.......................|C-0....0400............|.......................|.......................|.......................|.......................|.......................|
.......................|.......................|.......................|.......................|.......................|.......................|.......................|.......................|.......................|.......................|
.......................|===....................|.......................|.......................|.......................|.......................|.......................|.......................|.......................|.......................|
.......................|D-3....................|.......................|.......................|.......................|C-4C0..................|.......................|.......................|.......................|.......................|
===....................|.......................|===....................|.......................|.......................|.......................|.......................|.......................|.......................|.......................|
C-0....................|.......................|E-5....................|.......................|.......................|.......................|.......................|.......................|.......................|.......................|
C-0....0340............|.......................|C-0....0340............|.......................|.......................|.......................|.......................|.......................|.......................|.......................|
.......................|.......................|.......................|.......................|.......................|.......................|.......................|.......................|.......................|.......................|
.......................|.......................|.......................|.......................|.......................|.......................|.......................|.......................|.......................|.......................|
===....................|===....................|===....................|===....................|.......................|.......................|===....................|.......................|.......................|.......................|
C-0....................|C-3....................|C-0....................|E-4....0400............|.......................|C-4C0..................|G-2....0400............|.......................|.......................|.......................|
C-0....0340............|.......................|G-5....0340............|.......................|.......................|.......................|.......................|.......................|.......................|.......................|
.......................|.......................|.......................|.......................|.......................|.......................|.......................|.......................|.......................|.......................|
.......................|.......................|.......................|.......................|.......................|.......................|.......................|.......................|.......................|.......................|
.......................|.......................|.......................|.......................|.......................|.......................|.......................|.......................|.......................|.......................|
.......................|.......................|.......................|.......................|===....................|.......................|.......................|.......................|.......................|.......................|
.......................|.......................|.......................|.......................|C-0....................|.......................|.......................|.......................|.......................|.......................|
.......................|.......................|.......................|.......................|C-0....0340............|.......................|.......................|.......................|.......................|.......................|
org.tildearrow.furnace - Pattern Data (219)
0
.......................|.......................|.......................|.......................|.......................|.......................|.......................|.......................|.......................|.......................|
.......................|.......................|.......................|.......................|.......................|.......................|.......................|.......................|.......................|.......................|
.......................|.......................|.......................|.......................|===....................|.......................|.......................|===....................|.......................|.......................|
.......................|.......................|.......................|.......................|C-0....................|.......................|.......................|G-2....0400............|.......................|.......................|
.......................|.......................|.......................|.......................|C-0....0340............|.......................|.......................|.......................|.......................|.......................|
.......................|===....................|.......................|.......................|.......................|.......................|.......................|.......................|.......................|.......................|
.......................|C-3....................|.......................|.......................|.......................|C-4C0..................|.......................|.......................|.......................|.......................|
.......................|.......................|.......................|.......................|.......................|.......................|.......................|.......................|.......................|.......................|
.......................|.......................|.......................|.......................|.......................|.......................|.......................|.......................|.......................|.......................|
.......................|.......................|.......................|.......................|.......................|.......................|.......................|.......................|.......................|.......................|
.......................|.......................|.......................|.......................|.......................|.......................|.......................|.......................|.......................|.......................|
.......................|.......................|.......................|.......................|.......................|.......................|.......................|.......................|.......................|.......................|
===....E3000452........|===....................|===....E3000452........|.......E3000452........|.......................|.......................|.......0452............|.......................|.......................|.......................|
C-0....0400............|C-3....................|G-5....0400............|.......................|.......................|C-4C1..................|.......................|.......................|.......................|.......................|
C-0....0340............|.......................|C-0....0340............|.......................|.......................|.......................|.......................|.......................|.......................|.......................|
.......................|.......................|.......................|.......................|.......................|.......................|.......................|.......................|.......................|.......................|
.......................|.......................|.......................|.......................|.......................|.......................|.......................|.......................|.......................|.......................|
.......................|.......................|.......................|.......................|.......................|.......................|.......................|.......................|.......................|.......................|
.......................|.......................|.......................|.......................|.......................|.......................|.......................|.......................|.......................|.......................|
.......................|===....................|.......................|.......................|.......................|.......................|.......................|.......................|.......................|.......................|
.......................|C-3....................|.......................|.......................|.......................|C-4C0..................|.......................|.......................|.......................|.......................|
.......................|.......................|.......................|.......................|.......................|.......................|.......................|.......................|.......................|.......................|
.......................|.......................|.......................|.......................|.......................|.......................|.......................|.......................|.......................|.......................|
.......................|.......................|.......................|.......................|===....E3000452........|.......................|.......................|.......0452............|.......................|.......................|
.......................|.......................|.......................|.......................|C-0....0400............|.......................|.......................|.......................|.......................|.......................|
.......................|.......................|.......................|.......................|C-0....0340............|.......................|.......................|.......................|.......................|.......................|
.......................|===....................|.......................|.......................|.......................|.......................|.......................|.......................|.......................|.......................|
.......................|C-3....................|.......................|.......................|.......................|C-4C0..................|.......................|.......................|.......................|.......................|
.......................|.......................|.......................|.......................|.......................|.......................|.......................|.......................|.......................|.......................|
.......................|.......................|.......................|.......................|.......................|.......................|.......................|.......................|.......................|.......................|
.......................|.......................|.......................|.......................|.......................|.......................|.......................|.......................|.......................|.......................|
.......................|.......................|.......................|.......................|.......................|.......................|.......................|.......................|.......................|.......................|
.......................|.......................|.......................|.......................|.......................|.......................|.......................|.......................|.......................|.......................|
===....E3000452........|===....................|===....E3000452........|.......................|.......................|.......................|.......................|.......................|.......................|.......................|
C-0....0400............|C-3....................|C-0....0400............|.......................|.......................|C-4C0..................|.......................|.......................|.......................|.......................|
C-0....0340............|.......................|C-0....0340............|.......................|.......................|.......................|.......................|.......................|.......................|.......................|
.......................|.......................|.......................|.......................|.......................|.......................|.......................|.......................|.......................|.......................|
.......................|.......................|.......................|.......................|.......................|.......................|.......................|.......................|.......................|.......................|
.......................|.......................|.......................|.......................|.......................|.......................|.......................|.......................|.......................|.......................|
.......................|.......................|.......................|.......................|.......................|.......................|.......................|.......................|.......................|.......................|
.......................|.......................|.......................|.......................|.......................|.......................|.......................|.......................|.......................|.......................|
.......................|.......................|.......................|.......................|.......................|.......................|.......................|.......................|.......................|.......................|
.......................|.......................|.......................|.......................|.......................|.......................|.......................|.......................|.......................|.......................|
.......................|.......................|.......................|.......................|.......................|.......................|.......................|.......................|.......................|.......................|
.......................|.......................|.......................|.......................|===....E3000452........|.......................|.......................|.......................|.......................|.......................|
.......................|.......................|.......................|.......................|C-0....0400............|.......................|.......................|.......................|.......................|.......................|
.......................|.......................|.......................|.......................|C-0....0340............|.......................|.......................|.......................|.......................|.......................|
.......................|===....................|.......................|.......................|.......................|.......................|.......................|.......................|.......................|.......................|
.......................|C-3....................|.......................|.......................|.......................|C-4C0..................|.......................|.......................|.......................|.......................|
.......................|.......................|.......................|.......................|.......................|.......................|.......................|.......................|.......................|.......................|
.......................|.......................|.......................|.......................|.......................|.......................|.......................|.......................|.......................|.......................|
.......................|.......................|.......................|.......................|.......................|.......................|.......................|.......................|.......................|.......................|
.......................|.......................|.......................|.......................|.......................|.......................|.......................|.......................|.......................|.......................|
.......................|.......................|.......................|.......................|.......................|.......................|.......................|.......................|.......................|.......................|
===....E3000452........|===....................|===....E3000452........|.......................|.......................|.......................|.......................|.......................|.......................|.......................|
C-0....0400............|C-3....................|C-0....0400............|.......................|.......................|C-4C1..................|.......................|.......................|.......................|.......................|
C-0....0340............|.......................|E-5....0340............|.......................|.......................|.......................|.......................|.......................|.......................|.......................|
.......................|.......................|.......................|.......................|.......................|.......................|.......................|.......................|.......................|.......................|
.......................|.......................|.......................|.......................|.......................|.......................|.......................|.......................|.......................|.......................|
.......................|.......................|.......................|.......................|.......................|.......................|.......................|.......................|.......................|.......................|
.......................|.......................|.......................|.......................|.......................|.......................|.......................|.......................|.......................|.......................|
.......................|===....................|.......................|.......................|.......................|.......................|.......................|.......................|.......................|.......................|
.......................|C-3....................|.......................|.......................|.......................|C-4C0..................|.......................|.......................|.......................|.......................|
.......................|.......................|.......................|.......................|.......................|.......................|.......................|.......................|.......................|.......................|
.......................|.......................|.......................|.......................|.......................|.......................|.......................|.......................|.......................|.......................|
.......................|.......................|.......................|.......................|===....E3000452........|.......................|.......................|.......................|.......................|.......................|
.......................|.......................|.......................|.......................|C-0....0400............|.......................|.......................|.......................|.......................|.......................|
.......................|.......................|.......................|.......................|C-0....0340............|.......................|.......................|.......................|.......................|.......................|
.......................|===....................|.......................|.......................|.......................|.......................|.......................|.......................|.......................|.......................|
.......................|C-3....................|.......................|.......................|.......................|C-4C0..................|.......................|.......................|.......................|.......................|
===....................|.......................|===....................|.......................|.......................|.......................|.......................|.......................|.......................|.......................|
C-0....................|.......................|E-5....................|.......................|.......................|.......................|.......................|.......................|.......................|.......................|
G-5....0340............|.......................|D-5....0340............|.......................|.......................|.......................|.......................|.......................|.......................|.......................|
.......................|.......................|.......................|.......................|.......................|.......................|.......................|.......................|.......................|.......................|
.......................|.......................|.......................|.......................|.......................|.......................|.......................|.......................|.......................|.......................|
===....................|===....................|===....................|===....................|.......................|.......................|===....................|.......................|.......................|.......................|
G-5....................|D-3....................|D-5....................|F#4....0400............|.......................|C-4C0..................|A-2....0400............|.......................|.......................|.......................|
C-0....0340............|.......................|E-5....0340............|.......................|.......................|.......................|.......................|.......................|.......................|.......................|
.......................|.......................|.......................|.......................|.......................|.......................|.......................|.......................|.......................|.......................|
.......................|.......................|.......................|.......................|.......................|.......................|.......................|.......................|.......................|.......................|
.......................|.......................|.......................|.......................|.......................|.......................|.......................|.......................|.......................|.......................|
.......................|.......................|.......................|.......................|===....................|.......................|.......................|.......................|.......................|.......................|
.......................|.......................|.......................|.......................|C-0....................|.......................|.......................|.......................|.......................|.......................|
.......................|.......................|.......................|.......................|G-5....0340............|.......................|.......................|.......................|.......................|.......................|
.......................|.......................|.......................|.......................|.......................|.......................|.......................|.......................|.......................|.......................|
.......................|.......................|.......................|.......................|.......................|.......................|.......................|.......................|.......................|.......................|
.......................|.......................|.......................|.......................|===....................|.......................|.......................|===....................|.......................|.......................|
.......................|.......................|.......................|.......................|G-5....................|.......................|.......................|A-2....0400............|.......................|.......................|
.......................|.......................|.......................|.......................|C-0....0340............|.......................|.......................|.......................|.......................|.......................|
.......................|===....................|.......................|.......................|.......................|.......................|.......................|.......................|.......................|.......................|
.......................|D-3....................|.......................|.......................|.......................|C-4C0..................|.......................|.......................|.......................|.......................|
.......................|.......................|.......................|.......................|.......................|.......................|.......................|.......................|.......................|.......................|
.......................|.......................|.......................|.......................|.......................|.......................|.......................|.......................|.......................|.......................|
.......................|.......................|.......................|.......................|.......................|.......................|.......................|.......................|.......................|.......................|
.......................|.......................|.......................|.......................|.......................|.......................|.......................|.......................|.......................|.......................|
.......................|.......................|.......................|.......................|.......................|.......................|.......................|.......................|.......................|.......................|
.......E3000452........|===....................|.......E3000452........|===....E3000452........|.......................|.......................|===....0452............|.......................|.......................|.......................|
.......................|D-3....................|.......................|A-3066B0400............|.......................|C-4C1..................|D-2..0E0400............|.......................|.......................|.......................|
.......................|.......................|.......................|.......................|.......................|.......................|.......................|.......................|.......................|.......................|
.......................|.......................|.......................|.......................|.......................|.......................|.......................|.......................|.......................|.......................|
.......................|.......................|.......................|.......................|.......................|.......................|.......................|.......................|.......................|.......................|
.......................|.......................|.......................|.......................|.......................|.......................|.......................|.......................|.......................|.......................|
.......................|.......................|.......................|.......................|.......................|.......................|.......................|.......................|.......................|.......................|
.......................|===....................|.......................|===....................|.......................|.......................|===....................|.......................|.......................|.......................|
.......................|D-3....................|.......................|A-3....................|.......................|C-4C1..................|D-2....................|.......................|.......................|.......................|
.......................|.......................|.......................|.......................|.......................|.......................|.......................|.......................|.......................|.......................|
.......................|.......................|.......................|.......................|.......................|.......................|.......................|.......................|.......................|.......................|
.......................|.......................|.......................|.......................|.......E3000452........|.......................|.......................|===....0452............|.......................|.......................|
.......................|.......................|.......................|.......................|.......................|.......................|.......................|D-2....0400............|.......................|.......................|
.......................|.......................|.......................|.......................|.......................|.......................|.......................|.......................|.......................|.......................|
.......................|===....................|.......................|===....................|.......................|.......................|===....................|.......................|.......................|.......................|
.......................|D-3....................|.......................|A-3....................|.......................|C-4C1..................|D-2....................|.......................|.......................|.......................|
.......................|.......................|.......................|.......................|.......................|.......................|.......................|.......................|.......................|.......................|
.......................|.......................|.......................|.......................|.......................|.......................|.......................|.......................|.......................|.......................|
.......................|.......................|.......................|.......................|.......................|.......................|.......................|===....................|.......................|.......................|
.......................|.......................|.......................|.......................|.......................|.......................|.......................|D-2....................|.......................|.......................|
.......................|.......................|.......................|.......................|.......................|.......................|.......................|.......................|.......................|.......................|
.......................|===....................|.......................|===....................|.......................|.......................|===....................|.......................|.......................|.......................|
.......................|D-3....................|.......................|===....................|.......................|C-4C0..................|===....................|.......................|.......................|.......................|
.......................|.......................|.......................|.......................|.......................|.......................|.......................|.......................|.......................|.......................|
.......................|.......................|.......................|.......................|.......................|.......................|.......................|.......................|.......................|.......................|
.......................|.......................|.......................|.......................|.......................|.......................|.......................|===....................|.......................|.......................|
.......................|.......................|.......................|.......................|.......................|.......................|.......................|D-2....................|.......................|.......................|
.......................|.......................|.......................|.......................|.......................|.......................|.......................|.......................|.......................|.......................|
.......................|.......................|.......................|.......................|.......................|.......................|.......................|.......................|.......................|.......................|
.......................|.......................|.......................|.......................|.......................|.......................|.......................|.......................|.......................|.......................|
.......................|.......................|.......................|.......................|.......................|.......................|.......................|.......................|.......................|.......................|
.......................|.......................|.......................|.......................|.......................|.......................|.......................|.......................|.......................|.......................|
.......................|.......................|.......................|.......................|.......................|.......................|.......................|===....................|.......................|.......................|
.......................|.......................|.......................|.......................|.......................|.......................|.......................|===....................|.......................|.......................|
.......................|.......................|.......................|.......................|.......................|.......................|.......................|.......................|.......................|.......................|
.......................|===....................|.......................|.......................|.......................|.......................|.......................|.......................|.......................|.......................|
.......................|D-3....................|.......................|.......................|.......................|C-4C0..................|.......................|.......................|.......................|.......................|
.......................|.......................|.......................|.......................|.......................|.......................|.......................|.......................|.......................|.......................|
.......................|.......................|.......................|.......................|.......................|.......................|.......................|.......................|.......................|.......................|
.......................|.......................|.......................|.......................|.......................|.......................|.......................|.......................|.......................|.......................|
.......................|.......................|.......................|.......................|.......................|.......................|.......................|.......................|.......................|.......................|
.......................|.......................|.......................|.......................|.......................|.......................|.......................|.......................|.......................|.......................|
.......................|===....................|.......................|.......................|.......................|.......................|.......................|.......................|.......................|.......................|
.......................|D-3....................|.......................|A-3....8000............|.......................|C-4C1..................|D-2....................|.......................|.......................|.......................|
.......................|.......................|.......................|.......................|.......................|.......................|.......................|.......................|.......................|.......................|
.......................|.......................|.......................|.......................|.......................|.......................|.......................|.......................|.......................|.......................|
.......................|.......................|.......................|.......................|.......................|.......................|.......................|.......................|.......................|.......................|
.......................|.......................|.......................|.......................|.......................|.......................|.......................|.......................|.......................|.......................|
.......................|.......................|.......................|.......................|.......................|.......................|.......................|.......................|.......................|.......................|
.......................|===....................|.......................|===....................|.......................|.......................|===....................|.......................|.......................|.......................|
.......................|D-3....................|.......................|A-3....................|.......................|C-4C1..................|D-2....................|.......................|.......................|.......................|
.......................|.......................|.......................|.......................|.......................|.......................|.......................|.......................|.......................|.......................|
.......................|.......................|.......................|.......................|.......................|.......................|.......................|.......................|.......................|.......................|
.......................|.......................|.......................|.......................|.......................|.......................|.......................|.......................|.......................|.......................|
.......................|.......................|.......................|.......................|.......................|.......................|.......................|D-2....................|.......................|.......................|
.......................|.......................|.......................|.......................|.......................|.......................|.......................|.......................|.......................|.......................|
.......................|===....................|.......................|===....................|.......................|.......................|===....................|.......................|.......................|.......................|
.......................|D-3....................|.......................|A-3....................|.......................|C-4C1..................|D-2....................|.......................|.......................|.......................|
.......................|.......................|.......................|.......................|.......................|.......................|.......................|.......................|.......................|.......................|
.......................|.......................|.......................|.......................|.......................|.......................|.......................|.......................|.......................|.......................|
.......................|.......................|.......................|.......................|.......................|.......................|.......................|===....................|.......................|.......................|
.......................|.......................|.......................|.......................|.......................|.......................|.......................|D-2....................|.......................|.......................|
.......................|.......................|.......................|.......................|.......................|.......................|.......................|.......................|.......................|.......................|
===....................|===....................|===....................|===....................|.......................|.......................|===....................|.......................|.......................|.......................|
C-0....0400............|D-3....................|E-5....0400............|===....................|.......................|C-4C0..................|===....................|.......................|.......................|.......................|
D-5....0340............|.......................|A-4....0340............|.......................|.......................|.......................|.......................|.......................|.......................|.......................|
.......................|.......................|.......................|.......................|.......................|.......................|.......................|.......................|.......................|.......................|
.......................|.......................|.......................|.......................|.......................|.......................|.......................|===....................|.......................|.......................|
.......................|.......................|.......................|.......................|.......................|.......................|.......................|D-2....................|.......................|.......................|
.......................|.......................|.......................|.......................|.......................|.......................|.......................|.......................|.......................|.......................|
.......................|.......................|.......................|.......................|.......................|.......................|.......................|.......................|.......................|.......................|
.......................|.......................|.......................|.......................|.......................|.......................|.......................|.......................|.......................|.......................|
.......................|.......................|.......................|.......................|.......................|.......................|.......................|.......................|.......................|.......................|
.......................|.......................|.......................|.......................|.......................|.......................|.......................|.......................|.......................|.......................|
.......................|.......................|.......................|.......................|===....................|.......................|.......................|===....................|.......................|.......................|
.......................|.......................|.......................|.......................|C-0....0400............|.......................|.......................|===....................|.......................|.......................|
.......................|.......................|.......................|.......................|D-5....0340............|.......................|.......................|.......................|.......................|.......................|
.......................|===....................|.......................|.......................|.......................|.......................|.......................|.......................|.......................|.......................|
.......................|D-3....................|.......................|.......................|.......................|C-4C0..................|.......................|.......................|.......................|.......................|
.......................|.......................|.......................|.......................|.......................|.......................|.......................|.......................|.......................|.......................|
.......................|.......................|.......................|.......................|.......................|.......................|.......................|.......................|.......................|.......................|
.......................|.......................|.......................|.......................|.......................|.......................|.......................|.......................|.......................|.......................|
.......................|.......................|.......................|.......................|.......................|.......................|.......................|.......................|.......................|.......................|
.......................|.......................|.......................|.......................|.......................|.......................|.......................|.......................|.......................|.......................|
.......E3000452........|===....................|.......E3000452........|.......................|.......................|.......................|.......................|.......................|.......................|.......................|
.......................|D-3....................|.......................|A-3....80FF............|.......................|C-4C1..................|D-2....................|.......................|.......................|.......................|
.......................|.......................|.......................|.......................|.......................|.......................|.......................|.......................|.......................|.......................|
.......................|.......................|.......................|.......................|.......................|.......................|.......................|.......................|.......................|.......................|
.......................|.......................|.......................|.......................|.......................|.......................|.......................|.......................|.......................|.......................|
.......................|.......................|.......................|.......................|.......................|.......................|.......................|.......................|.......................|.......................|
.......................|.......................|.......................|.......................|.......................|.......................|.......................|.......................|.......................|.......................|
.......................|===....................|.......................|===....................|.......................|.......................|===....................|.......................|.......................|.......................|
.......................|D-3....................|.......................|A-3....................|.......................|C-4C1..................|D-2....................|.......................|.......................|.......................|
.......................|.......................|.......................|.......................|.......................|.......................|.......................|.......................|.......................|.......................|
.......................|.......................|.......................|.......................|.......................|.......................|.......................|.......................|.......................|.......................|
.......................|.......................|.......................|.......................|.......E3000452........|.......................|.......................|.......................|.......................|.......................|
.......................|.......................|.......................|.......................|.......................|.......................|.......................|D-2....................|.......................|.......................|
.......................|.......................|.......................|.......................|.......................|.......................|.......................|.......................|.......................|.......................|
.......................|===....................|.......................|===....................|.......................|.......................|===....................|.......................|.......................|.......................|
.......................|D-3....................|.......................|A-3....................|.......................|C-4C1..................|D-2....................|.......................|.......................|.......................|
.......................|.......................|.......................|.......................|.......................|.......................|.......................|.......................|.......................|.......................|
.......................|.......................|.......................|.......................|.......................|.......................|.......................|.......................|.......................|.......................|
.......................|.......................|.......................|.......................|.......................|.......................|.......................|===....................|.......................|.......................|
.......................|.......................|.......................|.......................|.......................|.......................|.......................|D-2....................|.......................|.......................|
.......................|.......................|.......................|.......................|.......................|.......................|.......................|.......................|.......................|.......................|
.......................|===....................|.......................|===....................|.......................|.......................|===....................|.......................|.......................|.......................|
.......................|A-3....................|.......................|A-3..6F8000............|.......................|C-4C2..8000............|A-1....................|.......................|.......................|.......................|
.......................|.......................|.......................|.......................|.......................|.......................|.......................|.......................|.......................|.......................|
.......................|.......................|.......................|.......................|.......................|.......................|.......................|.......................|.......................|.......................|
.......................|.......................|.......................|.......................|.......................|.......................|.......................|===....................|.......................|.......................|
.......................|.......................|.......................|.......................|.......................|.......................|.......................|D-2....................|.......................|.......................|
.......................|.......................|.......................|.......................|.......................|.......................|.......................|.......................|.......................|.......................|
.......................|===....................|.......................|===....................|.......................|.......................|===....................|.......................|.......................|.......................|
.......................|G-3....................|.......................|G-3....................|.......................|C-4C3..8080............|G-1....................|.......................|.......................|.......................|
.......................|.......................|.......................|.......................|.......................|.......................|.......................|.......................|.......................|.......................|
.......................|.......................|.......................|.......................|.......................|.......................|.......................|.......................|.......................|.......................|
.......................|.......................|.......................|.......................|.......................|.......................|.......................|===....................|.......................|.......................|
.......................|.......................|.......................|.......................|.......................|.......................|.......................|A-1....................|.......................|.......................|
.......................|.......................|.......................|.......................|.......................|.......................|.......................|.......................|.......................|.......................|
.......................|===....................|.......................|===....................|.......................|.......................|===....................|.......................|.......................|.......................|
.......................|F#3....................|.......................|F#3....................|.......................|C-4C3..................|F#1....................|.......................|.......................|.......................|
.......................|.......................|.......................|.......................|.......................|.......................|.......................|.......................|.......................|.......................|
.......................|.......................|.......................|.......................|.......................|.......................|.......................|.......................|.......................|.......................|
.......................|.......................|.......................|.......................|.......................|.......................|.......................|===....................|.......................|.......................|
.......................|.......................|.......................|.......................|.......................|.......................|.......................|G-1....................|.......................|.......................|
.......................|.......................|.......................|.......................|.......................|.......................|.......................|.......................|.......................|.......................|
.......................|===....................|.......................|===....................|.......................|.......................|===....................|.......................|.......................|.......................|
.......................|D-3....................|.......................|D-3....80FF............|.......................|C-4C3..................|D-1....................|.......................|.......................|.......................|
.......................|.......................|.......................|.......................|.......................|.......................|.......................|.......................|.......................|.......................|
.......................|.......................|.......................|.......................|.......................|.......................|.......................|.......................|.......................|.......................|
.......................|.......................|.......................|.......................|.......................|.......................|.......................|===....................|.......................|.......................|
.......................|.......................|.......................|.......................|.......................|.......................|.......................|F#1....................|.......................|.......................|
.......................|.......................|.......................|.......................|.......................|.......................|.......................|.......................|.......................|.......................|
.......................|.......................|.......................|===....................|.......................|.......................|===....................|.......................|.......................|.......................|
.......................|.......................|.......................|C#3....................|.......................|C-4C4..80FF............|C#1....................|.......................|.......................|.......................|
.......................|.......................|.......................|.......................|.......................|.......................|.......................|.......................|.......................|.......................|
.......................|.......................|.......................|.......................|.......................|.......................|.......................|.......................|.......................|.......................|
.......................|.......................|.......................|.......................|.......................|.......................|.......................|===....................|.......................|.......................|
.......................|.......................|.......................|.......................|.......................|.......................|.......................|D-1....................|.......................|.......................|
.......................|.......................|.......................|.......................|.......................|.......................|.......................|.......................|.......................|.......................|
.......................|===....................|.......................|===....................|.......................|.......................|===....................|.......................|.......................|.......................|
.......................|A-2....................|.......................|A-2....................|.......................|C-4C4..................|A-0....................|.......................|.......................|.......................|
.......................|.......................|.......................|.......................|.......................|.......................|.......................|.......................|.......................|.......................|
.......................|.......................|.......................|.......................|.......................|.......................|.......................|.......................|.......................|.......................|
.......................|.......................|.......................|.......................|.......................|.......................|.......................|===....................|.......................|.......................|
.......................|.......................|.......................|.......................|.......................|.......................|.......................|C#1....................|.......................|.......................|
.......................|.......................|.......................|.......................|.......................|.......................|.......................|.......................|.......................|.......................|
===....................|===....................|===....................|===....................|.......................|.......................|===....................|.......................|.......................|.......................|
A-4396F80000400........|F-2....................|A-3396B80FF0400........|F-30C5F8080............|.......................|C-4C0..8080............|A-1..0C................|.......................|.......................|.......................|
.......................|.......................|.......................|.......................|.......................|.......................|.......................|.......................|.......................|.......................|
.......................|.......................|.......................|.......................|.......................|.......................|.......................|.......................|.......................|.......................|
.......................|.......................|.......................|.......................|.......................|.......................|.......................|===....................|.......................|.......................|
.......................|.......................|.......................|.......................|.......................|.......................|.......................|A-0....................|.......................|.......................|
.......................|.......................|.......................|.......................|.......................|.......................|.......................|.......................|.......................|.......................|
===....................|===....................|===....................|.......................|.......................|.......................|.......................|.......................|.......................|.......................|
G-4....................|F-2....................|G-3....................|.......................|.......................|.......................|.......................|.......................|.......................|.......................|
.......................|.......................|.......................|.......................|.......................|.......................|.......................|.......................|.......................|.......................|
.......................|.......................|.......................|.......................|.......................|.......................|.......................|.......................|.......................|.......................|
.......................|.......................|.......................|.......................|===....................|.......................|.......................|===....................|.......................|.......................|
.......................|.......................|.......................|.......................|A-439630400............|.......................|.......................|A-1....................|.......................|.......................|
org.tildearrow.furnace - Pattern Data (219)
0
.......................|.......................|.......................|.......................|.......................|.......................|.......................|.......................|.......................|.......................|
===....................|===....................|===....................|.......................|.......................|.......................|.......................|.......................|.......................|.......................|
A-4....................|F-2....................|A-3....................|.......................|.......................|C-4C0..................|.......................|.......................|.......................|.......................|
.......................|.......................|.......................|.......................|.......................|.......................|.......................|.......................|.......................|.......................|
.......................|.......................|.......................|.......................|.......................|.......................|.......................|.......................|.......................|.......................|
.......................|.......................|.......................|.......................|===....................|.......................|.......................|.......................|.......................|.......................|
.......................|.......................|.......................|.......................|G-4....................|.......................|.......................|.......................|.......................|.......................|
.......................|.......................|.......................|.......................|.......................|.......................|.......................|.......................|.......................|.......................|
===....................|===....................|===....................|===....E3000452........|.......................|.......................|===....0452............|.......................|.......................|.......................|
B-4....................|F-2....................|B-3....................|G-3....0400............|.......................|C-4C1..................|B-1....0400............|.......................|.......................|.......................|
.......................|.......................|.......................|.......................|.......................|.......................|.......................|.......................|.......................|.......................|
.......................|.......................|.......................|.......................|.......................|.......................|.......................|.......................|.......................|.......................|
.......................|.......................|.......................|.......................|===....................|.......................|.......................|.......................|.......................|.......................|
.......................|.......................|.......................|.......................|A-4....................|.......................|.......................|.......................|.......................|.......................|
.......................|.......................|.......................|.......................|.......................|.......................|.......................|.......................|.......................|.......................|
===....................|===....................|===....................|.......................|.......................|.......................|.......................|.......................|.......................|.......................|
A-4....................|F-2....................|A-3....................|.......................|.......................|.......................|.......................|.......................|.......................|.......................|
.......................|.......................|.......................|.......................|.......................|.......................|.......................|.......................|.......................|.......................|
.......................|.......................|.......................|.......................|.......................|.......................|.......................|.......................|.......................|.......................|
.......................|.......................|.......................|.......................|===....................|.......................|.......................|===....0452............|.......................|.......................|
.......................|.......................|.......................|.......................|B-4....................|.......................|.......................|B-1....0400............|.......................|.......................|
.......................|.......................|.......................|.......................|.......................|.......................|.......................|.......................|.......................|.......................|
===....................|===....................|===....................|.......................|.......................|.......................|.......................|.......................|.......................|.......................|
B-4....................|F-2....................|B-3....................|.......................|.......................|.......................|.......................|.......................|.......................|.......................|
.......................|.......................|.......................|.......................|.......................|.......................|.......................|.......................|.......................|.......................|
.......................|.......................|.......................|.......................|.......................|.......................|.......................|.......................|.......................|.......................|
.......................|.......................|.......................|.......................|===....................|.......................|.......................|.......................|.......................|.......................|
.......................|.......................|.......................|.......................|A-4....................|.......................|.......................|.......................|.......................|.......................|
.......................|.......................|.......................|.......................|.......................|.......................|.......................|.......................|.......................|.......................|
===....................|===....................|===....................|===....E3000452........|.......................|.......................|===....0452............|.......................|.......................|.......................|
C-5....................|F-2....................|C-4....................|A-3....0400............|.......................|C-4C0..................|C-2....0400............|.......................|.......................|.......................|
.......................|.......................|.......................|.......................|.......................|.......................|.......................|.......................|.......................|.......................|
.......................|.......................|.......................|.......................|.......................|.......................|.......................|.......................|.......................|.......................|
.......................|.......................|.......................|.......................|===....................|.......................|.......................|.......................|.......................|.......................|
.......................|.......................|.......................|.......................|B-4....................|.......................|.......................|.......................|.......................|.......................|
.......................|.......................|.......................|.......................|.......................|.......................|.......................|.......................|.......................|.......................|
===....................|===....................|===....................|.......................|.......................|.......................|.......................|.......................|.......................|.......................|
B-4....................|F-2....................|B-3....................|.......................|.......................|.......................|.......................|.......................|.......................|.......................|
.......................|.......................|.......................|.......................|.......................|.......................|.......................|.......................|.......................|.......................|
.......................|.......................|.......................|.......................|.......................|.......................|.......................|.......................|.......................|.......................|
.......................|.......................|.......................|.......................|===....................|.......................|.......................|===....0452............|.......................|.......................|
.......................|.......................|.......................|.......................|C-5....................|.......................|.......................|C-2....0400............|.......................|.......................|
.......................|.......................|.......................|.......................|.......................|.......................|.......................|.......................|.......................|.......................|
===....................|===....................|===....................|.......................|.......................|.......................|.......................|.......................|.......................|.......................|
C-5....................|F-2....................|C-4....................|.......................|.......................|C-4C0..................|.......................|.......................|.......................|.......................|
.......................|.......................|.......................|.......................|.......................|.......................|.......................|.......................|.......................|.......................|
.......................|.......................|.......................|.......................|.......................|.......................|.......................|.......................|.......................|.......................|
.......................|.......................|.......................|.......................|===....................|.......................|.......................|.......................|.......................|.......................|
.......................|.......................|.......................|.......................|B-4....................|.......................|.......................|.......................|.......................|.......................|
.......................|.......................|.......................|.......................|.......................|.......................|.......................|.......................|.......................|.......................|
===....................|===....................|===....................|===....E3000452........|.......................|.......................|===....0452............|.......................|.......................|.......................|
D-5....................|F-2....................|D-4....................|B-3....0400............|.......................|C-4C1..................|D-2....0400............|.......................|.......................|.......................|
.......................|.......................|.......................|.......................|.......................|.......................|.......................|.......................|.......................|.......................|
.......................|.......................|.......................|.......................|.......................|.......................|.......................|.......................|.......................|.......................|
.......................|.......................|.......................|.......................|===....................|.......................|.......................|.......................|.......................|.......................|
.......................|.......................|.......................|.......................|C-5....................|.......................|.......................|.......................|.......................|.......................|
.......................|.......................|.......................|.......................|.......................|.......................|.......................|.......................|.......................|.......................|
===....................|===....................|===....................|.......................|.......................|.......................|.......................|.......................|.......................|.......................|
A-4....................|F-2....................|A-3....................|.......................|.......................|.......................|.......................|.......................|.......................|.......................|
.......................|.......................|.......................|.......................|.......................|.......................|.......................|.......................|.......................|.......................|
.......................|.......................|.......................|.......................|.......................|.......................|.......................|.......................|.......................|.......................|
.......................|.......................|.......................|.......................|===....................|.......................|.......................|===....0452............|.......................|.......................|
.......................|.......................|.......................|.......................|D-5....................|.......................|.......................|D-2....0400............|.......................|.......................|
.......................|.......................|.......................|.......................|.......................|.......................|.......................|.......................|.......................|.......................|
===....................|===....................|===....................|.......................|.......................|.......................|.......................|.......................|.......................|.......................|
D-4....................|F-2....................|D-3....................|.......................|.......................|.......................|.......................|.......................|.......................|.......................|
.......................|.......................|.......................|.......................|.......................|.......................|.......................|.......................|.......................|.......................|
.......................|.......................|.......................|.......................|.......................|.......................|.......................|.......................|.......................|.......................|
.......................|.......................|.......................|.......................|===....................|.......................|.......................|.......................|.......................|.......................|
.......................|.......................|.......................|.......................|A-4....................|.......................|.......................|.......................|.......................|.......................|
.......................|.......................|.......................|.......................|.......................|.......................|.......................|.......................|.......................|.......................|
===....................|===....................|===....................|===....E3000452........|.......................|.......................|===....0452............|.......................|.......................|.......................|
C-0....................|F-2....................|A-4....................|F-4....0400............|.......................|C-4C0..................|A-2....0400............|.......................|.......................|.......................|
.......................|.......................|.......................|.......................|.......................|.......................|.......................|.......................|.......................|.......................|
.......................|.......................|.......................|.......................|.......................|.......................|.......................|.......................|.......................|.......................|
.......................|.......................|.......................|.......................|===....................|.......................|.......................|.......................|.......................|.......................|
.......................|.......................|.......................|.......................|D-4....................|.......................|.......................|.......................|.......................|.......................|
.......................|.......................|.......................|.......................|.......................|.......................|.......................|.......................|.......................|.......................|
===....................|===....................|===....................|.......................|.......................|.......................|.......................|.......................|.......................|.......................|
G-5....................|F-2....................|G-4....................|.......................|.......................|.......................|.......................|.......................|.......................|.......................|
.......................|.......................|.......................|.......................|.......................|.......................|.......................|.......................|.......................|.......................|
.......................|.......................|.......................|.......................|.......................|.......................|.......................|.......................|.......................|.......................|
.......................|.......................|.......................|.......................|===....................|.......................|.......................|===....0452............|.......................|.......................|
.......................|.......................|.......................|.......................|C-0....................|.......................|.......................|A-2....0400............|.......................|.......................|
.......................|.......................|.......................|.......................|.......................|.......................|.......................|.......................|.......................|.......................|
===....................|===....................|===....................|.......................|.......................|.......................|.......................|.......................|.......................|.......................|
C-0....................|F-2....................|A-4....................|.......................|.......................|C-4C0..................|.......................|.......................|.......................|.......................|
.......................|.......................|.......................|.......................|.......................|.......................|.......................|.......................|.......................|.......................|
.......................|.......................|.......................|.......................|.......................|.......................|.......................|.......................|.......................|.......................|
.......................|.......................|.......................|.......................|===....................|.......................|.......................|.......................|.......................|.......................|
.......................|.......................|.......................|.......................|G-5....................|.......................|.......................|.......................|.......................|.......................|
.......................|.......................|.......................|.......................|.......................|.......................|.......................|.......................|.......................|.......................|
===....................|===....................|===....................|===....E3000452........|.......................|.......................|===....0452............|.......................|.......................|.......................|
C-0....................|F-2....................|B-4....................|G-4....0400............|.......................|C-4C1..................|B-2....0400............|.......................|.......................|.......................|
.......................|.......................|.......................|.......................|.......................|.......................|.......................|.......................|.......................|.......................|
.......................|.......................|.......................|.......................|.......................|.......................|.......................|.......................|.......................|.......................|
.......................|.......................|.......................|.......................|===....................|.......................|.......................|.......................|.......................|.......................|
.......................|.......................|.......................|.......................|C-0....................|.......................|.......................|.......................|.......................|.......................|
.......................|.......................|.......................|.......................|.......................|.......................|.......................|.......................|.......................|.......................|
===....................|===....................|===....................|.......................|.......................|.......................|.......................|.......................|.......................|.......................|
C-0....................|F-2....................|A-4....................|.......................|.......................|.......................|.......................|.......................|.......................|.......................|
.......................|.......................|.......................|.......................|.......................|.......................|.......................|.......................|.......................|.......................|
.......................|.......................|.......................|.......................|.......................|.......................|.......................|.......................|.......................|.......................|
.......................|.......................|.......................|.......................|===....................|.......................|.......................|===....0452............|.......................|.......................|
.......................|.......................|.......................|.......................|C-0....................|.......................|.......................|B-2....0400............|.......................|.......................|
.......................|.......................|.......................|.......................|.......................|.......................|.......................|.......................|.......................|.......................|
===....................|===....................|===....................|.......................|.......................|.......................|.......................|.......................|.......................|.......................|
C-0....................|F-2....................|B-4....................|.......................|.......................|.......................|.......................|.......................|.......................|.......................|
.......................|.......................|.......................|.......................|.......................|.......................|.......................|.......................|.......................|.......................|
.......................|.......................|.......................|.......................|.......................|.......................|.......................|.......................|.......................|.......................|
.......................|.......................|.......................|.......................|===....................|.......................|.......................|.......................|.......................|.......................|
.......................|.......................|.......................|.......................|C-0....................|.......................|.......................|.......................|.......................|.......................|
.......................|.......................|.......................|.......................|.......................|.......................|.......................|.......................|.......................|.......................|
===....................|===....................|===....................|===....E3000452........|.......................|.......................|===....0452............|.......................|.......................|.......................|
C-0....................|F-2....................|C-5....................|A-4....0400............|.......................|C-4C0..................|C-3....0400............|.......................|.......................|.......................|
.......................|.......................|.......................|.......................|.......................|.......................|.......................|.......................|.......................|.......................|
.......................|.......................|.......................|.......................|.......................|.......................|.......................|.......................|.......................|.......................|
.......................|.......................|.......................|.......................|===....................|.......................|.......................|.......................|.......................|.......................|
.......................|.......................|.......................|.......................|C-0....................|.......................|.......................|.......................|.......................|.......................|
.......................|.......................|.......................|.......................|.......................|.......................|.......................|.......................|.......................|.......................|
===....................|===....................|===....................|.......................|.......................|.......................|.......................|.......................|.......................|.......................|
C-0....................|F-2....................|B-4....................|.......................|.......................|.......................|.......................|.......................|.......................|.......................|
.......................|.......................|.......................|.......................|.......................|.......................|.......................|.......................|.......................|.......................|
.......................|.......................|.......................|.......................|.......................|.......................|.......................|.......................|.......................|.......................|
.......................|.......................|.......................|.......................|===....................|.......................|.......................|===....0452............|.......................|.......................|
.......................|.......................|.......................|.......................|C-0....................|.......................|.......................|C-3....0400............|.......................|.......................|
.......................|.......................|.......................|.......................|.......................|.......................|.......................|.......................|.......................|.......................|
===....................|===....................|===....................|.......................|.......................|.......................|.......................|.......................|.......................|.......................|
C-0....................|F-2....................|C-5....................|.......................|.......................|C-4C0..................|.......................|.......................|.......................|.......................|
.......................|.......................|.......................|.......................|.......................|.......................|.......................|.......................|.......................|.......................|
.......................|.......................|.......................|.......................|.......................|.......................|.......................|.......................|.......................|.......................|
.......................|.......................|.......................|.......................|===....................|.......................|.......................|.......................|.......................|.......................|
.......................|.......................|.......................|.......................|C-0....................|.......................|.......................|.......................|.......................|.......................|
.......................|.......................|.......................|.......................|.......................|.......................|.......................|.......................|.......................|.......................|
===....................|===....................|===....................|===....E3000452........|.......................|.......................|===....0452............|.......................|.......................|.......................|
C-0....................|F-2....................|D-5....................|B-4....0400............|.......................|C-4C1..................|D-3....0400............|.......................|.......................|.......................|
.......................|.......................|.......................|.......................|.......................|.......................|.......................|.......................|.......................|.......................|
.......................|.......................|.......................|.......................|.......................|.......................|.......................|.......................|.......................|.......................|
.......................|.......................|.......................|.......................|===....................|.......................|.......................|.......................|.......................|.......................|
.......................|.......................|.......................|.......................|C-0....................|.......................|.......................|.......................|.......................|.......................|
.......................|.......................|.......................|.......................|.......................|.......................|.......................|.......................|.......................|.......................|
===....................|===....................|===....................|.......................|.......................|.......................|.......................|.......................|.......................|.......................|
C-0....................|F-2....................|A-4....................|.......................|.......................|C-4C0..................|.......................|.......................|.......................|.......................|
.......................|.......................|.......................|.......................|.......................|.......................|.......................|.......................|.......................|.......................|
.......................|.......................|.......................|.......................|.......................|.......................|.......................|.......................|.......................|.......................|
.......................|.......................|.......................|.......................|===....................|.......................|.......................|===....0452............|.......................|.......................|
.......................|.......................|.......................|.......................|C-0....................|.......................|.......................|D-3....0400............|.......................|.......................|
.......................|.......................|.......................|.......................|.......................|.......................|.......................|.......................|.......................|.......................|
===....................|===....................|===....................|.......................|.......................|.......................|.......................|.......................|.......................|.......................|
D-5....................|F-2....................|D-4....................|.......................|.......................|C-4C0..................|.......................|.......................|.......................|.......................|
.......................|.......................|.......................|.......................|.......................|.......................|.......................|.......................|.......................|.......................|
.......................|.......................|.......................|.......................|.......................|.......................|.......................|.......................|.......................|.......................|
.......................|.......................|.......................|.......................|===....................|.......................|.......................|.......................|.......................|.......................|
.......................|.......................|.......................|.......................|C-0....................|.......................|.......................|.......................|.......................|.......................|
.......................|.......................|.......................|.......................|.......................|.......................|.......................|.......................|.......................|.......................|
===....................|===....................|===....................|===....E3000452........|.......................|.......................|===....0452............|.......................|.......................|.......................|
B-4....................|G-2....................|B-3....................|G-3....0400............|.......................|C-4C0..................|B-1....0400............|.......................|.......................|.......................|
.......................|.......................|.......................|.......................|.......................|.......................|.......................|.......................|.......................|.......................|
.......................|.......................|.......................|.......................|.......................|.......................|.......................|.......................|.......................|.......................|
.......................|.......................|.......................|.......................|===....................|.......................|.......................|.......................|.......................|.......................|
.......................|.......................|.......................|.......................|D-5....................|.......................|.......................|.......................|.......................|.......................|
.......................|.......................|.......................|.......................|.......................|.......................|.......................|.......................|.......................|.......................|
===....................|===....................|===....................|.......................|.......................|.......................|.......................|.......................|.......................|.......................|
A-4....................|G-2....................|A-3....................|.......................|.......................|.......................|.......................|.......................|.......................|.......................|
.......................|.......................|.......................|.......................|.......................|.......................|.......................|.......................|.......................|.......................|
.......................|.......................|.......................|.......................|.......................|.......................|.......................|.......................|.......................|.......................|
.......................|.......................|.......................|.......................|===....................|.......................|.......................|===....0452............|.......................|.......................|
.......................|.......................|.......................|.......................|B-4....................|.......................|.......................|B-1....0400............|.......................|.......................|
.......................|.......................|.......................|.......................|.......................|.......................|.......................|.......................|.......................|.......................|
===....................|===....................|===....................|.......................|.......................|.......................|.......................|.......................|.......................|.......................|
B-4....................|G-2....................|B-3....................|.......................|.......................|C-4C0..................|.......................|.......................|.......................|.......................|
.......................|.......................|.......................|.......................|.......................|.......................|.......................|.......................|.......................|.......................|
.......................|.......................|.......................|.......................|.......................|.......................|.......................|.......................|.......................|.......................|
.......................|.......................|.......................|.......................|===....................|.......................|.......................|.......................|.......................|.......................|
.......................|.......................|.......................|.......................|A-4....................|.......................|.......................|.......................|.......................|.......................|
.......................|.......................|.......................|.......................|.......................|.......................|.......................|.......................|.......................|.......................|
===....................|===....................|===....................|===....E3000452........|.......................|.......................|===....0452............|.......................|.......................|.......................|
C-5....................|G-2....................|C-4....................|A-3....0400............|.......................|C-4C1..................|C-2....0400............|.......................|.......................|.......................|
.......................|.......................|.......................|.......................|.......................|.......................|.......................|.......................|.......................|.......................|
.......................|.......................|.......................|.......................|.......................|.......................|.......................|.......................|.......................|.......................|
.......................|.......................|.......................|.......................|===....................|.......................|.......................|.......................|.......................|.......................|
.......................|.......................|.......................|.......................|B-4....................|.......................|.......................|.......................|.......................|.......................|
.......................|.......................|.......................|.......................|.......................|.......................|.......................|.......................|.......................|.......................|
===....................|===....................|===....................|.......................|.......................|.......................|.......................|.......................|.......................|.......................|
B-4....................|G-2....................|B-3....................|.......................|.......................|.......................|.......................|.......................|.......................|.......................|
.......................|.......................|.......................|.......................|.......................|.......................|.......................|.......................|.......................|.......................|
.......................|.......................|.......................|.......................|.......................|.......................|.......................|.......................|.......................|.......................|
.......................|.......................|.......................|.......................|===....................|.......................|.......................|===....0452............|.......................|.......................|
.......................|.......................|.......................|.......................|C-5....................|.......................|.......................|C-2....0400............|.......................|.......................|
.......................|.......................|.......................|.......................|.......................|.......................|.......................|.......................|.......................|.......................|
===....................|===....................|===....................|.......................|.......................|.......................|.......................|.......................|.......................|.......................|
C-5....................|G-2....................|C-4....................|.......................|.......................|.......................|.......................|.......................|.......................|.......................|
.......................|.......................|.......................|.......................|.......................|.......................|.......................|.......................|.......................|.......................|
.......................|.......................|.......................|.......................|.......................|.......................|.......................|.......................|.......................|.......................|
.......................|.......................|.......................|.......................|===....................|.......................|.......................|.......................|.......................|.......................|
.......................|.......................|.......................|.......................|B-4....................|.......................|.......................|.......................|.......................|.......................|
.......................|.......................|.......................|.......................|.......................|.......................|.......................|.......................|.......................|.......................|
===....................|===....................|===....................|===....E3000452........|.......................|.......................|===....0452............|.......................|.......................|.......................|
D-5....................|G-2....................|D-4....................|B-3....0400............|.......................|C-4C0..................|D-2....0400............|.......................|.......................|.......................|
.......................|.......................|.......................|.......................|.......................|.......................|.......................|.......................|.......................|.......................|
.......................|.......................|.......................|.......................|.......................|.......................|.......................|.......................|.......................|.......................|
.......................|.......................|.......................|.......................|===....................|.......................|.......................|.......................|.......................|.......................|
.......................|.......................|.......................|.......................|C-5....................|.......................|.......................|.......................|.......................|.......................|
.......................|.......................|.......................|.......................|.......................|.......................|.......................|.......................|.......................|.......................|
===....................|===....................|===....................|.......................|.......................|.......................|.......................|.......................|.......................|.......................|
C-5....................|G-2....................|C-4....................|.......................|.......................|.......................|.......................|.......................|.......................|.......................|
.......................|.......................|.......................|.......................|.......................|.......................|.......................|.......................|.......................|.......................|
.......................|.......................|.......................|.......................|.......................|.......................|.......................|.......................|.......................|.......................|
.......................|.......................|.......................|.......................|===....................|.......................|.......................|===....0452............|.......................|.......................|
.......................|.......................|.......................|.......................|D-5....................|.......................|.......................|D-2....0400............|.......................|.......................|
.......................|.......................|.......................|.......................|.......................|.......................|.......................|.......................|.......................|.......................|
===....................|===....................|===....................|.......................|.......................|.......................|.......................|.......................|.......................|.......................|
D-5....................|G-2....................|D-4....................|.......................|.......................|C-4C0..................|.......................|.......................|.......................|.......................|
.......................|.......................|.......................|.......................|.......................|.......................|.......................|.......................|.......................|.......................|
.......................|.......................|.......................|.......................|.......................|.......................|.......................|.......................|.......................|.......................|
.......................|.......................|.......................|.......................|===....................|.......................|.......................|.......................|.......................|.......................|
.......................|.......................|.......................|.......................|C-5....................|.......................|.......................|.......................|.......................|.......................|
.......................|.......................|.......................|.......................|.......................|.......................|.......................|.......................|.......................|.......................|
===....................|===....................|===....................|===....E3000452........|.......................|.......................|===....0452............|.......................|.......................|.......................|
E-5....................|G-2....................|E-4....................|C-4....0400............|.......................|C-4C1..................|E-2....0400............|.......................|.......................|.......................|
.......................|.......................|.......................|.......................|.......................|.......................|.......................|.......................|.......................|.......................|
.......................|.......................|.......................|.......................|.......................|.......................|.......................|.......................|.......................|.......................|
.......................|.......................|.......................|.......................|===....................|.......................|.......................|.......................|.......................|.......................|
.......................|.......................|.......................|.......................|D-5....................|.......................|.......................|.......................|.......................|.......................|
.......................|.......................|.......................|.......................|.......................|.......................|.......................|.......................|.......................|.......................|
===....................|===....................|===....................|.......................|.......................|.......................|.......................|.......................|.......................|.......................|
B-4....................|G-2....................|B-3....................|.......................|.......................|.......................|.......................|.......................|.......................|.......................|
.......................|.......................|.......................|.......................|.......................|.......................|.......................|.......................|.......................|.......................|
.......................|.......................|.......................|.......................|.......................|.......................|.......................|.......................|.......................|.......................|
.......................|.......................|.......................|.......................|===....................|.......................|.......................|===....0452............|.......................|.......................|
.......................|.......................|.......................|.......................|E-5....................|.......................|.......................|E-2....0400............|.......................|.......................|
.......................|.......................|.......................|.......................|.......................|.......................|.......................|.......................|.......................|.......................|
===....................|===....................|===....................|.......................|.......................|.......................|.......................|.......................|.......................|.......................|
E-4....................|G-2....................|E-3....................|.......................|.......................|.......................|.......................|.......................|.......................|.......................|
.......................|.......................|.......................|.......................|.......................|.......................|.......................|.......................|.......................|.......................|
.......................|.......................|.......................|.......................|.......................|.......................|.......................|.......................|.......................|.......................|
.......................|.......................|.......................|.......................|===....................|.......................|.......................|.......................|.......................|.......................|
.......................|.......................|.......................|.......................|B-4....................|.......................|.......................|.......................|.......................|.......................|
.......................|.......................|.......................|.......................|.......................|.......................|.......................|.......................|.......................|.......................|
===....................|===....................|===....................|===....E3000452........|.......................|.......................|===....0452............|.......................|.......................|.......................|
C-0....................|G-2....................|B-4....................|G-4....0400............|.......................|C-4C0..................|B-2....0400............|.......................|.......................|.......................|
.......................|.......................|.......................|.......................|.......................|.......................|.......................|.......................|.......................|.......................|
.......................|.......................|.......................|.......................|.......................|.......................|.......................|.......................|.......................|.......................|
.......................|.......................|.......................|.......................|===....................|.......................|.......................|.......................|.......................|.......................|
.......................|.......................|.......................|.......................|E-4....................|.......................|.......................|.......................|.......................|.......................|
.......................|.......................|.......................|.......................|.......................|.......................|.......................|.......................|.......................|.......................|
===....................|===....................|===....................|.......................|.......................|.......................|.......................|.......................|.......................|.......................|
C-0....................|G-2....................|A-4....................|.......................|.......................|.......................|.......................|.......................|.......................|.......................|
.......................|.......................|.......................|.......................|.......................|.......................|.......................|.......................|.......................|.......................|
.......................|.......................|.......................|.......................|.......................|.......................|.......................|.......................|.......................|.......................|
.......................|.......................|.......................|.......................|===....................|.......................|.......................|===....0452............|.......................|.......................|
.......................|.......................|.......................|.......................|C-0....................|.......................|.......................|B-2....0400............|.......................|.......................|
.......................|.......................|.......................|.......................|.......................|.......................|.......................|.......................|.......................|.......................|
===....................|===....................|===....................|.......................|.......................|.......................|.......................|.......................|.......................|.......................|
C-0....................|G-2....................|B-4....................|.......................|.......................|C-4C0..................|.......................|.......................|.......................|.......................|
.......................|.......................|.......................|.......................|.......................|.......................|.......................|.......................|.......................|.......................|
org.tildearrow.furnace - Pattern Data (219)
0
.......................|.......................|.......................|.......................|.......................|.......................|.......................|.......................|.......................|.......................|
.......................|.......................|.......................|.......................|===....................|.......................|.......................|.......................|.......................|.......................|
.......................|.......................|.......................|.......................|C-0....................|.......................|.......................|.......................|.......................|.......................|
.......................|.......................|.......................|.......................|.......................|.......................|.......................|.......................|.......................|.......................|
===....................|===....................|===....................|===....E3000452........|.......................|.......................|===....0452............|.......................|.......................|.......................|
C-0....................|G-2....................|C-5....................|A-4....0400............|.......................|C-4C1..................|C-3....0400............|.......................|.......................|.......................|
.......................|.......................|.......................|.......................|.......................|.......................|.......................|.......................|.......................|.......................|
.......................|.......................|.......................|.......................|.......................|.......................|.......................|.......................|.......................|.......................|
.......................|.......................|.......................|.......................|===....................|.......................|.......................|.......................|.......................|.......................|
.......................|.......................|.......................|.......................|C-0....................|.......................|.......................|.......................|.......................|.......................|
.......................|.......................|.......................|.......................|.......................|.......................|.......................|.......................|.......................|.......................|
===....................|===....................|===....................|.......................|.......................|.......................|.......................|.......................|.......................|.......................|
C-0....................|G-2....................|B-4....................|.......................|.......................|.......................|.......................|.......................|.......................|.......................|
.......................|.......................|.......................|.......................|.......................|.......................|.......................|.......................|.......................|.......................|
.......................|.......................|.......................|.......................|.......................|.......................|.......................|.......................|.......................|.......................|
.......................|.......................|.......................|.......................|===....................|.......................|.......................|===....0452............|.......................|.......................|
.......................|.......................|.......................|.......................|C-0....................|.......................|.......................|C-3....0400............|.......................|.......................|
.......................|.......................|.......................|.......................|.......................|.......................|.......................|.......................|.......................|.......................|
===....................|===....................|===....................|.......................|.......................|.......................|.......................|.......................|.......................|.......................|
C-0....................|G-2....................|C-5....................|.......................|.......................|.......................|.......................|.......................|.......................|.......................|
.......................|.......................|.......................|.......................|.......................|.......................|.......................|.......................|.......................|.......................|
.......................|.......................|.......................|.......................|.......................|.......................|.......................|.......................|.......................|.......................|
.......................|.......................|.......................|.......................|===....................|.......................|.......................|.......................|.......................|.......................|
.......................|.......................|.......................|.......................|C-0....................|.......................|.......................|.......................|.......................|.......................|
.......................|.......................|.......................|.......................|.......................|.......................|.......................|.......................|.......................|.......................|
===....................|===....................|===....................|===....E3000452........|.......................|.......................|===....0452............|.......................|.......................|.......................|
C-0....................|G-2....................|D-5....................|B-4....0400............|.......................|C-4C0..................|D-3....0400............|.......................|.......................|.......................|
.......................|.......................|.......................|.......................|.......................|.......................|.......................|.......................|.......................|.......................|
.......................|.......................|.......................|.......................|.......................|.......................|.......................|.......................|.......................|.......................|
.......................|.......................|.......................|.......................|===....................|.......................|.......................|.......................|.......................|.......................|
.......................|.......................|.......................|.......................|C-0....................|.......................|.......................|.......................|.......................|.......................|
.......................|.......................|.......................|.......................|.......................|.......................|.......................|.......................|.......................|.......................|
===....................|===....................|===....................|.......................|.......................|.......................|.......................|.......................|.......................|.......................|
C-0....................|G-2....................|C-5....................|.......................|.......................|.......................|.......................|.......................|.......................|.......................|
.......................|.......................|.......................|.......................|.......................|.......................|.......................|.......................|.......................|.......................|
.......................|.......................|.......................|.......................|.......................|.......................|.......................|.......................|.......................|.......................|
.......................|.......................|.......................|.......................|===....................|.......................|.......................|===....0452............|.......................|.......................|
.......................|.......................|.......................|.......................|C-0....................|.......................|.......................|D-3....0400............|.......................|.......................|
.......................|.......................|.......................|.......................|.......................|.......................|.......................|.......................|.......................|.......................|
===....................|===....................|===....................|.......................|.......................|.......................|.......................|.......................|.......................|.......................|
C-0....................|G-2....................|D-5....................|.......................|.......................|C-4C0..................|.......................|.......................|.......................|.......................|
.......................|.......................|.......................|.......................|.......................|.......................|.......................|.......................|.......................|.......................|
.......................|.......................|.......................|.......................|.......................|.......................|.......................|.......................|.......................|.......................|
.......................|.......................|.......................|.......................|===....................|.......................|.......................|.......................|.......................|.......................|
.......................|.......................|.......................|.......................|C-0....................|.......................|.......................|.......................|.......................|.......................|
.......................|.......................|.......................|.......................|.......................|.......................|.......................|.......................|.......................|.......................|
===....................|===....................|===....................|===....E3000452........|.......................|.......................|===....0452............|.......................|.......................|.......................|
C-0....................|G-2....................|E-5....................|C-5....0400............|.......................|C-4C1..................|E-3....0400............|.......................|.......................|.......................|
.......................|.......................|.......................|.......................|.......................|.......................|.......................|.......................|.......................|.......................|
.......................|.......................|.......................|.......................|.......................|.......................|.......................|.......................|.......................|.......................|
.......................|.......................|.......................|.......................|===....................|.......................|.......................|.......................|.......................|.......................|
.......................|.......................|.......................|.......................|C-0....................|.......................|.......................|.......................|.......................|.......................|
.......................|.......................|.......................|.......................|.......................|.......................|.......................|.......................|.......................|.......................|
===....................|===....................|===....................|.......................|.......................|.......................|.......................|.......................|.......................|.......................|
C-0....................|G-2....................|B-4....................|.......................|.......................|C-4C0..................|.......................|.......................|.......................|.......................|
.......................|.......................|.......................|.......................|.......................|.......................|.......................|.......................|.......................|.......................|
.......................|.......................|.......................|.......................|.......................|.......................|.......................|.......................|.......................|.......................|
.......................|.......................|.......................|.......................|===....................|.......................|.......................|===....0452............|.......................|.......................|
.......................|.......................|.......................|.......................|C-0....................|.......................|.......................|E-3....0400............|.......................|.......................|
.......................|.......................|.......................|.......................|.......................|.......................|.......................|.......................|.......................|.......................|
===....................|===....................|===....................|.......................|.......................|.......................|.......................|.......................|.......................|.......................|
E-5....................|G-2....................|E-4....................|.......................|.......................|C-4C0..................|.......................|.......................|.......................|.......................|
.......................|.......................|.......................|.......................|.......................|.......................|.......................|.......................|.......................|.......................|
.......................|.......................|.......................|.......................|.......................|.......................|.......................|.......................|.......................|.......................|
.......................|.......................|.......................|.......................|===....................|.......................|.......................|.......................|.......................|.......................|
.......................|.......................|.......................|.......................|C-0....................|.......................|.......................|.......................|.......................|.......................|
.......................|.......................|.......................|.......................|.......................|.......................|.......................|.......................|.......................|.......................|
===....................|===....................|===....................|===....E3000452........|.......................|.......................|===....0452............|.......................|.......................|.......................|
D-5....................|A#2....................|D-4....................|A#3....0400............|.......................|C-4C0..................|D-2....0400............|.......................|.......................|.......................|
.......................|.......................|.......................|.......................|.......................|.......................|.......................|.......................|.......................|.......................|
.......................|.......................|.......................|.......................|.......................|.......................|.......................|.......................|.......................|.......................|
.......................|.......................|.......................|.......................|===....................|.......................|.......................|.......................|.......................|.......................|
.......................|.......................|.......................|.......................|E-5....................|.......................|.......................|.......................|.......................|.......................|
.......................|.......................|.......................|.......................|.......................|.......................|.......................|.......................|.......................|.......................|
===....................|===....................|===....................|.......................|.......................|.......................|.......................|.......................|.......................|.......................|
C-5....................|A#2....................|C-4....................|.......................|.......................|.......................|.......................|.......................|.......................|.......................|
.......................|.......................|.......................|.......................|.......................|.......................|.......................|.......................|.......................|.......................|
.......................|.......................|.......................|.......................|.......................|.......................|.......................|.......................|.......................|.......................|
.......................|.......................|.......................|.......................|===....................|.......................|.......................|===....0452............|.......................|.......................|
.......................|.......................|.......................|.......................|D-5....................|.......................|.......................|D-2....0400............|.......................|.......................|
.......................|.......................|.......................|.......................|.......................|.......................|.......................|.......................|.......................|.......................|
===....................|===....................|===....................|.......................|.......................|.......................|.......................|.......................|.......................|.......................|
D-5....................|A#2....................|D-4....................|.......................|.......................|C-4C0..................|.......................|.......................|.......................|.......................|
.......................|.......................|.......................|.......................|.......................|.......................|.......................|.......................|.......................|.......................|
.......................|.......................|.......................|.......................|.......................|.......................|.......................|.......................|.......................|.......................|
.......................|.......................|.......................|.......................|===....................|.......................|.......................|.......................|.......................|.......................|
.......................|.......................|.......................|.......................|C-5....................|.......................|.......................|.......................|.......................|.......................|
.......................|.......................|.......................|.......................|.......................|.......................|.......................|.......................|.......................|.......................|
===....................|===....................|===....................|===....E3000452........|.......................|.......................|===....0452............|.......................|.......................|.......................|
E-5....................|A#2....................|E-4....................|C-4....0400............|.......................|C-4C1..................|E-2....0400............|.......................|.......................|.......................|
.......................|.......................|.......................|.......................|.......................|.......................|.......................|.......................|.......................|.......................|
.......................|.......................|.......................|.......................|.......................|.......................|.......................|.......................|.......................|.......................|
.......................|.......................|.......................|.......................|===....................|.......................|.......................|.......................|.......................|.......................|
.......................|.......................|.......................|.......................|D-5....................|.......................|.......................|.......................|.......................|.......................|
.......................|.......................|.......................|.......................|.......................|.......................|.......................|.......................|.......................|.......................|
===....................|===....................|===....................|.......................|.......................|.......................|.......................|.......................|.......................|.......................|
D-5....................|A#2....................|D-4....................|.......................|.......................|.......................|.......................|.......................|.......................|.......................|
.......................|.......................|.......................|.......................|.......................|.......................|.......................|.......................|.......................|.......................|
.......................|.......................|.......................|.......................|.......................|.......................|.......................|.......................|.......................|.......................|
.......................|.......................|.......................|.......................|===....................|.......................|.......................|===....0452............|.......................|.......................|
.......................|.......................|.......................|.......................|E-5....................|.......................|.......................|E-2....0400............|.......................|.......................|
.......................|.......................|.......................|.......................|.......................|.......................|.......................|.......................|.......................|.......................|
===....................|===....................|===....................|.......................|.......................|.......................|.......................|.......................|.......................|.......................|
E-5....................|A#2....................|E-4....................|.......................|.......................|.......................|.......................|.......................|.......................|.......................|
.......................|.......................|.......................|.......................|.......................|.......................|.......................|.......................|.......................|.......................|
.......................|.......................|.......................|.......................|.......................|.......................|.......................|.......................|.......................|.......................|
.......................|.......................|.......................|.......................|===....................|.......................|.......................|.......................|.......................|.......................|
.......................|.......................|.......................|.......................|D-5....................|.......................|.......................|.......................|.......................|.......................|
.......................|.......................|.......................|.......................|.......................|.......................|.......................|.......................|.......................|.......................|
===....................|===....................|===....................|===....E3000452........|.......................|.......................|===....0452............|.......................|.......................|.......................|
F-5....................|A#2....................|F-4....................|D-4....0400............|.......................|C-4C0..................|F-2....0400............|.......................|.......................|.......................|
.......................|.......................|.......................|.......................|.......................|.......................|.......................|.......................|.......................|.......................|
.......................|.......................|.......................|.......................|.......................|.......................|.......................|.......................|.......................|.......................|
.......................|.......................|.......................|.......................|===....................|.......................|.......................|.......................|.......................|.......................|
.......................|.......................|.......................|.......................|E-5....................|.......................|.......................|.......................|.......................|.......................|
.......................|.......................|.......................|.......................|.......................|.......................|.......................|.......................|.......................|.......................|
===....................|===....................|===....................|.......................|.......................|.......................|.......................|.......................|.......................|.......................|
E-5....................|A#2....................|E-4....................|.......................|.......................|.......................|.......................|.......................|.......................|.......................|
.......................|.......................|.......................|.......................|.......................|.......................|.......................|.......................|.......................|.......................|
.......................|.......................|.......................|.......................|.......................|.......................|.......................|.......................|.......................|.......................|
.......................|.......................|.......................|.......................|===....................|.......................|.......................|===....0452............|.......................|.......................|
.......................|.......................|.......................|.......................|F-5....................|.......................|.......................|F-2....0400............|.......................|.......................|
.......................|.......................|.......................|.......................|.......................|.......................|.......................|.......................|.......................|.......................|
===....................|===....................|===....................|.......................|.......................|.......................|.......................|.......................|.......................|.......................|
F-5....................|A#2....................|F-4....................|.......................|.......................|C-4C0..................|.......................|.......................|.......................|.......................|
.......................|.......................|.......................|.......................|.......................|.......................|.......................|.......................|.......................|.......................|
.......................|.......................|.......................|.......................|.......................|.......................|.......................|.......................|.......................|.......................|
.......................|.......................|.......................|.......................|===....................|.......................|.......................|.......................|.......................|.......................|
.......................|.......................|.......................|.......................|E-5....................|.......................|.......................|.......................|.......................|.......................|
.......................|.......................|.......................|.......................|.......................|.......................|.......................|.......................|.......................|.......................|
===....................|===....................|===....................|===....E3000452........|.......................|.......................|===....0452............|.......................|.......................|.......................|
G-5....................|A#2....................|G-4....................|E-4....0400............|.......................|C-4C1..................|G-2....0400............|.......................|.......................|.......................|
.......................|.......................|.......................|.......................|.......................|.......................|.......................|.......................|.......................|.......................|
.......................|.......................|.......................|.......................|.......................|.......................|.......................|.......................|.......................|.......................|
.......................|.......................|.......................|.......................|===....................|.......................|.......................|.......................|.......................|.......................|
.......................|.......................|.......................|.......................|F-5....................|.......................|.......................|.......................|.......................|.......................|
.......................|.......................|.......................|.......................|.......................|.......................|.......................|.......................|.......................|.......................|
===....................|===....................|===....................|.......................|.......................|.......................|.......................|.......................|.......................|.......................|
D-5....................|A#2....................|D-4....................|.......................|.......................|.......................|.......................|.......................|.......................|.......................|
.......................|.......................|.......................|.......................|.......................|.......................|.......................|.......................|.......................|.......................|
.......................|.......................|.......................|.......................|.......................|.......................|.......................|.......................|.......................|.......................|
.......................|.......................|.......................|.......................|===....................|.......................|.......................|===....0452............|.......................|.......................|
.......................|.......................|.......................|.......................|G-5....................|.......................|.......................|G-2....0400............|.......................|.......................|
.......................|.......................|.......................|.......................|.......................|.......................|.......................|.......................|.......................|.......................|
===....................|===....................|===....................|.......................|.......................|.......................|.......................|.......................|.......................|.......................|
G-4....................|A#2....................|G-3....................|.......................|.......................|.......................|.......................|.......................|.......................|.......................|
.......................|.......................|.......................|.......................|.......................|.......................|.......................|.......................|.......................|.......................|
.......................|.......................|.......................|.......................|.......................|.......................|.......................|.......................|.......................|.......................|
.......................|.......................|.......................|.......................|===....................|.......................|.......................|.......................|.......................|.......................|
.......................|.......................|.......................|.......................|D-5....................|.......................|.......................|.......................|.......................|.......................|
.......................|.......................|.......................|.......................|.......................|.......................|.......................|.......................|.......................|.......................|
===....................|===....................|===....................|===....E3000452........|.......................|.......................|===....0452............|.......................|.......................|.......................|
C-0....................|A#2....................|D-5....................|A#4....0400............|.......................|C-4C0..................|D-3....0400............|.......................|.......................|.......................|
.......................|.......................|.......................|.......................|.......................|.......................|.......................|.......................|.......................|.......................|
.......................|.......................|.......................|.......................|.......................|.......................|.......................|.......................|.......................|.......................|
.......................|.......................|.......................|.......................|===....................|.......................|.......................|.......................|.......................|.......................|
.......................|.......................|.......................|.......................|G-4....................|.......................|.......................|.......................|.......................|.......................|
.......................|.......................|.......................|.......................|.......................|.......................|.......................|.......................|.......................|.......................|
===....................|===....................|===....................|.......................|.......................|.......................|.......................|.......................|.......................|.......................|
C-0....................|A#2....................|C-5....................|.......................|.......................|.......................|.......................|.......................|.......................|.......................|
.......................|.......................|.......................|.......................|.......................|.......................|.......................|.......................|.......................|.......................|
.......................|.......................|.......................|.......................|.......................|.......................|.......................|.......................|.......................|.......................|
.......................|.......................|.......................|.......................|===....................|.......................|.......................|===....0452............|.......................|.......................|
.......................|.......................|.......................|.......................|C-0....................|.......................|.......................|D-3....0400............|.......................|.......................|
.......................|.......................|.......................|.......................|.......................|.......................|.......................|.......................|.......................|.......................|
===....................|===....................|===....................|.......................|.......................|.......................|.......................|.......................|.......................|.......................|
C-0....................|A#2....................|D-5....................|.......................|.......................|C-4C0..................|.......................|.......................|.......................|.......................|
.......................|.......................|.......................|.......................|.......................|.......................|.......................|.......................|.......................|.......................|
.......................|.......................|.......................|.......................|.......................|.......................|.......................|.......................|.......................|.......................|
.......................|.......................|.......................|.......................|===....................|.......................|.......................|.......................|.......................|.......................|
.......................|.......................|.......................|.......................|C-0....................|.......................|.......................|.......................|.......................|.......................|
.......................|.......................|.......................|.......................|.......................|.......................|.......................|.......................|.......................|.......................|
===....................|===....................|===....................|===....E3000452........|.......................|.......................|===....0452............|.......................|.......................|.......................|
C-0....................|A#2....................|E-5....................|C-5....0400............|.......................|C-4C1..................|E-3....0400............|.......................|.......................|.......................|
.......................|.......................|.......................|.......................|.......................|.......................|.......................|.......................|.......................|.......................|
.......................|.......................|.......................|.......................|.......................|.......................|.......................|.......................|.......................|.......................|
.......................|.......................|.......................|.......................|===....................|.......................|.......................|.......................|.......................|.......................|
.......................|.......................|.......................|.......................|C-0....................|.......................|.......................|.......................|.......................|.......................|
.......................|.......................|.......................|.......................|.......................|.......................|.......................|.......................|.......................|.......................|
===....................|===....................|===....................|.......................|.......................|.......................|.......................|.......................|.......................|.......................|
C-0....................|A#2....................|D-5....................|.......................|.......................|.......................|.......................|.......................|.......................|.......................|
.......................|.......................|.......................|.......................|.......................|.......................|.......................|.......................|.......................|.......................|
.......................|.......................|.......................|.......................|.......................|.......................|.......................|.......................|.......................|.......................|
.......................|.......................|.......................|.......................|===....................|.......................|.......................|===....0452............|.......................|.......................|
.......................|.......................|.......................|.......................|C-0....................|.......................|.......................|E-3....0400............|.......................|.......................|
.......................|.......................|.......................|.......................|.......................|.......................|.......................|.......................|.......................|.......................|
===....................|===....................|===....................|.......................|.......................|.......................|.......................|.......................|.......................|.......................|
C-0....................|A#2....................|E-5....................|.......................|.......................|.......................|.......................|.......................|.......................|.......................|
.......................|.......................|.......................|.......................|.......................|.......................|.......................|.......................|.......................|.......................|
.......................|.......................|.......................|.......................|.......................|.......................|.......................|.......................|.......................|.......................|
.......................|.......................|.......................|.......................|===....................|.......................|.......................|.......................|.......................|.......................|
.......................|.......................|.......................|.......................|C-0....................|.......................|.......................|.......................|.......................|.......................|
.......................|.......................|.......................|.......................|.......................|.......................|.......................|.......................|.......................|.......................|
===....................|===....................|===....................|===....E3000452........|.......................|.......................|===....0452............|.......................|.......................|.......................|
C-0....................|A#2....................|F-5....................|D-5....0400............|.......................|C-4C0..................|F-3....0400............|.......................|.......................|.......................|
.......................|.......................|.......................|.......................|.......................|.......................|.......................|.......................|.......................|.......................|
.......................|.......................|.......................|.......................|.......................|.......................|.......................|.......................|.......................|.......................|
.......................|.......................|.......................|.......................|===....................|.......................|.......................|.......................|.......................|.......................|
.......................|.......................|.......................|.......................|C-0....................|.......................|.......................|.......................|.......................|.......................|
.......................|.......................|.......................|.......................|.......................|.......................|.......................|.......................|.......................|.......................|
===....................|===....................|===....................|.......................|.......................|.......................|.......................|.......................|.......................|.......................|
C-0....................|A#2....................|E-5....................|.......................|.......................|.......................|.......................|.......................|.......................|.......................|
.......................|.......................|.......................|.......................|.......................|.......................|.......................|.......................|.......................|.......................|
.......................|.......................|.......................|.......................|.......................|.......................|.......................|.......................|.......................|.......................|
.......................|.......................|.......................|.......................|===....................|.......................|.......................|===....0452............|.......................|.......................|
.......................|.......................|.......................|.......................|C-0....................|.......................|.......................|F-3....0400............|.......................|.......................|
.......................|.......................|.......................|.......................|.......................|.......................|.......................|.......................|.......................|.......................|
===....................|===....................|===....................|.......................|.......................|.......................|.......................|.......................|.......................|.......................|
C-0....................|A#2....................|F-5....................|.......................|.......................|C-4C0..................|.......................|.......................|.......................|.......................|
.......................|.......................|.......................|.......................|.......................|.......................|.......................|.......................|.......................|.......................|
.......................|.......................|.......................|.......................|.......................|.......................|.......................|.......................|.......................|.......................|
.......................|.......................|.......................|.......................|===....................|.......................|.......................|.......................|.......................|.......................|
.......................|.......................|.......................|.......................|C-0....................|.......................|.......................|.......................|.......................|.......................|
.......................|.......................|.......................|.......................|.......................|.......................|.......................|.......................|.......................|.......................|
===....................|===....................|===....................|===....E3000452........|.......................|.......................|===....0452............|.......................|.......................|.......................|
C-0....................|A#2....................|G-5....................|E-5....0400............|.......................|C-4C1..................|G-3....0400............|.......................|.......................|.......................|
.......................|.......................|.......................|.......................|.......................|.......................|.......................|.......................|.......................|.......................|
.......................|.......................|.......................|.......................|.......................|.......................|.......................|.......................|.......................|.......................|
.......................|.......................|.......................|.......................|===....................|.......................|.......................|.......................|.......................|.......................|
.......................|.......................|.......................|.......................|C-0....................|.......................|.......................|.......................|.......................|.......................|
.......................|.......................|.......................|.......................|.......................|.......................|.......................|.......................|.......................|.......................|
===....................|===....................|===....................|.......................|.......................|.......................|.......................|.......................|.......................|.......................|
C-0....................|A#2....................|D-5....................|.......................|.......................|C-4C0..................|.......................|.......................|.......................|.......................|
.......................|.......................|.......................|.......................|.......................|.......................|.......................|.......................|.......................|.......................|
.......................|.......................|.......................|.......................|.......................|.......................|.......................|.......................|.......................|.......................|
.......................|.......................|.......................|.......................|===....................|.......................|.......................|===....0452............|.......................|.......................|
.......................|.......................|.......................|.......................|C-0....................|.......................|.......................|G-3....0400............|.......................|.......................|
.......................|.......................|.......................|.......................|.......................|.......................|.......................|.......................|.......................|.......................|
===....................|===....................|===....................|.......................|.......................|.......................|.......................|.......................|.......................|.......................|
G-5....................|A#2....................|G-4....................|.......................|.......................|C-4C0..................|.......................|.......................|.......................|.......................|
.......................|.......................|.......................|.......................|.......................|.......................|.......................|.......................|.......................|.......................|
.......................|.......................|.......................|.......................|.......................|.......................|.......................|.......................|.......................|.......................|
.......................|.......................|.......................|.......................|===....................|.......................|.......................|.......................|.......................|.......................|
.......................|.......................|.......................|.......................|C-0....................|.......................|.......................|.......................|.......................|.......................|
.......................|.......................|.......................|.......................|.......................|.......................|.......................|.......................|.......................|.......................|
===....................|===....................|===....................|===....E3000452........|.......................|.......................|===....0452............|.......................|.......................|.......................|
F#5....................|D-3....................|F#4....................|D-5....0400............|.......................|C-4C0..................|F#3....0400............|.......................|.......................|.......................|
.......................|.......................|.......................|.......................|.......................|.......................|.......................|.......................|.......................|.......................|
.......................|.......................|.......................|.......................|.......................|.......................|.......................|.......................|.......................|.......................|
.......................|.......................|.......................|.......................|===....................|.......................|.......................|.......................|.......................|.......................|
.......................|.......................|.......................|.......................|G-5....................|.......................|.......................|.......................|.......................|.......................|
.......................|.......................|.......................|.......................|.......................|.......................|.......................|.......................|.......................|.......................|
===....................|===....................|===....................|.......................|.......................|.......................|.......................|.......................|.......................|.......................|
E-5....................|D-3....................|E-4....................|.......................|.......................|.......................|.......................|.......................|.......................|.......................|
.......................|.......................|.......................|.......................|.......................|.......................|.......................|.......................|.......................|.......................|
.......................|.......................|.......................|.......................|.......................|.......................|.......................|.......................|.......................|.......................|
.......................|.......................|.......................|.......................|===....................|.......................|.......................|===....0452............|.......................|.......................|
.......................|.......................|.......................|.......................|C-0....................|.......................|.......................|F#3....0400............|.......................|.......................|
.......................|.......................|.......................|.......................|.......................|.......................|.......................|.......................|.......................|.......................|
===....................|===....................|===....................|.......................|.......................|.......................|.......................|.......................|.......................|.......................|
F#5....................|D-3....................|F#4....................|.......................|.......................|C-4C0..................|.......................|.......................|.......................|.......................|
.......................|.......................|.......................|.......................|.......................|.......................|.......................|.......................|.......................|.......................|
.......................|.......................|.......................|.......................|.......................|.......................|.......................|.......................|.......................|.......................|
.......................|.......................|.......................|.......................|===....................|.......................|.......................|.......................|.......................|.......................|
.......................|.......................|.......................|.......................|C-0....................|.......................|.......................|.......................|.......................|.......................|
.......................|.......................|.......................|.......................|.......................|.......................|.......................|.......................|.......................|.......................|
org.tildearrow.furnace - Pattern Data (219)
0
===....................|===....................|===....................|.......E3000452........|.......................|.......................|.......0452............|.......................|.......................|.......................|
G-5....................|D-3....................|G-4....................|.......................|.......................|.......................|.......................|.......................|.......................|.......................|
.......................|.......................|.......................|.......................|.......................|.......................|.......................|.......................|.......................|.......................|
.......................|.......................|.......................|.......................|.......................|.......................|.......................|.......................|.......................|.......................|
.......................|.......................|.......................|.......................|===....................|.......................|.......................|.......................|.......................|.......................|
.......................|.......................|.......................|.......................|C-0....................|.......................|.......................|.......................|.......................|.......................|
.......................|.......................|.......................|.......................|.......................|.......................|.......................|.......................|.......................|.......................|
===....................|===....................|===....................|.......................|.......................|.......................|.......................|.......................|.......................|.......................|
F#5....................|D-3....................|F#4....................|.......................|.......................|C-4C0..................|.......................|.......................|.......................|.......................|
.......................|.......................|.......................|.......................|.......................|.......................|.......................|.......................|.......................|.......................|
.......................|.......................|.......................|.......................|.......................|.......................|.......................|.......................|.......................|.......................|
.......................|.......................|.......................|.......................|===....................|.......................|.......................|.......0452............|.......................|.......................|
.......................|.......................|.......................|.......................|C-0....................|.......................|.......................|.......................|.......................|.......................|
.......................|.......................|.......................|.......................|.......................|.......................|.......................|.......................|.......................|.......................|
===....................|===....................|===....................|.......................|.......................|.......................|.......................|.......................|.......................|.......................|
G-5....................|D-3....................|G-4....................|.......................|.......................|.......................|.......................|.......................|.......................|.......................|
.......................|.......................|.......................|.......................|.......................|.......................|.......................|.......................|.......................|.......................|
.......................|.......................|.......................|.......................|.......................|.......................|.......................|.......................|.......................|.......................|
.......................|.......................|.......................|.......................|===....................|.......................|.......................|.......................|.......................|.......................|
.......................|.......................|.......................|.......................|C-0....................|.......................|.......................|.......................|.......................|.......................|
.......................|.......................|.......................|.......................|.......................|.......................|.......................|.......................|.......................|.......................|
===....................|===....................|===....................|.......................|.......................|.......................|.......................|.......................|.......................|.......................|
C-0....................|D-3....................|A-4....................|.......................|.......................|C-4C1..................|.......................|.......................|.......................|.......................|
.......................|.......................|.......................|.......................|.......................|.......................|.......................|.......................|.......................|.......................|
.......................|.......................|.......................|.......................|.......................|.......................|.......................|.......................|.......................|.......................|
.......................|.......................|.......................|.......................|===....................|.......................|.......................|.......................|.......................|.......................|
.......................|.......................|.......................|.......................|C-0....................|.......................|.......................|.......................|.......................|.......................|
.......................|.......................|.......................|.......................|.......................|.......................|.......................|.......................|.......................|.......................|
===....................|===....................|===....................|.......................|.......................|.......................|.......................|.......................|.......................|.......................|
G-5....................|D-3....................|G-4....................|.......................|.......................|C-4C0..................|.......................|.......................|.......................|.......................|
.......................|.......................|.......................|.......................|.......................|.......................|.......................|.......................|.......................|.......................|
.......................|.......................|.......................|.......................|.......................|.......................|.......................|.......................|.......................|.......................|
.......................|.......................|.......................|.......................|===....................|.......................|.......................|.......................|.......................|.......................|
.......................|.......................|.......................|.......................|C-0....................|.......................|.......................|.......................|.......................|.......................|
.......................|.......................|.......................|.......................|.......................|.......................|.......................|.......................|.......................|.......................|
===....................|===....................|===....................|.......................|.......................|.......................|.......................|.......................|.......................|.......................|
C-0....................|D-3....................|A-4....................|.......................|.......................|.......................|.......................|.......................|.......................|.......................|
.......................|.......................|.......................|.......................|.......................|.......................|.......................|.......................|.......................|.......................|
.......................|.......................|.......................|.......................|.......................|.......................|.......................|.......................|.......................|.......................|
.......................|.......................|.......................|.......................|===....................|.......................|.......................|.......................|.......................|.......................|
.......................|.......................|.......................|.......................|C-0....................|.......................|.......................|.......................|.......................|.......................|
.......................|.......................|.......................|.......................|.......................|.......................|.......................|.......................|.......................|.......................|
===....................|===....................|===....................|.......................|.......................|.......................|.......................|.......................|.......................|.......................|
C-0....................|D-3....................|B-4....................|.......................|.......................|C-4C0..................|.......................|.......................|.......................|.......................|
.......................|.......................|.......................|.......................|.......................|.......................|.......................|.......................|.......................|.......................|
.......................|.......................|.......................|.......................|.......................|.......................|.......................|.......................|.......................|.......................|
.......................|.......................|.......................|.......................|===....................|.......................|.......................|.......................|.......................|.......................|
.......................|.......................|.......................|.......................|C-0....................|.......................|.......................|.......................|.......................|.......................|
.......................|.......................|.......................|.......................|.......................|.......................|.......................|.......................|.......................|.......................|
===....................|===....................|===....................|.......................|.......................|.......................|.......................|.......................|.......................|.......................|
F#5....................|D-3....................|F#4....................|.......................|.......................|.......................|.......................|.......................|.......................|.......................|
.......................|.......................|.......................|.......................|.......................|.......................|.......................|.......................|.......................|.......................|
.......................|.......................|.......................|.......................|.......................|.......................|.......................|.......................|.......................|.......................|
.......................|.......................|.......................|.......................|===....................|.......................|.......................|.......................|.......................|.......................|
.......................|.......................|.......................|.......................|C-0....................|.......................|.......................|.......................|.......................|.......................|
.......................|.......................|.......................|.......................|.......................|.......................|.......................|.......................|.......................|.......................|
===....................|===....................|===....................|.......................|.......................|.......................|.......................|.......................|.......................|.......................|
B-4....................|D-3....................|B-3....................|.......................|.......................|C-4C0..................|.......................|.......................|.......................|.......................|
.......................|.......................|.......................|.......................|.......................|.......................|.......................|.......................|.......................|.......................|
.......................|.......................|.......................|.......................|.......................|.......................|.......................|.......................|.......................|.......................|
.......................|.......................|.......................|.......................|===....................|.......................|.......................|.......................|.......................|.......................|
.......................|.......................|.......................|.......................|C-0....................|.......................|.......................|.......................|.......................|.......................|
.......................|.......................|.......................|.......................|.......................|.......................|.......................|.......................|.......................|.......................|
===....................|===....................|===....................|===....................|.......................|.......................|===....................|.......................|.......................|.......................|
C-0....................|C#3....................|F#5....................|C#3....0400............|.......................|C-4C1..................|C#1....0400............|.......................|.......................|.......................|
.......................|.......................|.......................|.......................|.......................|.......................|.......................|.......................|.......................|.......................|
.......................|.......................|.......................|.......................|.......................|.......................|.......................|.......................|.......................|.......................|
.......................|.......................|.......................|.......................|===....................|.......................|.......................|.......................|.......................|.......................|
.......................|.......................|.......................|.......................|C-0....................|.......................|.......................|.......................|.......................|.......................|
.......................|.......................|.......................|.......................|.......................|.......................|.......................|.......................|.......................|.......................|
===....................|===....................|===....................|===....................|.......................|.......................|===....................|.......................|.......................|.......................|
C-0....................|D-3....................|E-5....................|D-3....................|.......................|C-4C0..................|D-1....................|.......................|.......................|.......................|
.......................|.......................|.......................|.......................|.......................|.......................|.......................|.......................|.......................|.......................|
.......................|.......................|.......................|.......................|.......................|.......................|.......................|.......................|.......................|.......................|
.......................|.......................|.......................|.......................|===....................|.......................|.......................|===....................|.......................|.......................|
.......................|.......................|.......................|.......................|C-0....................|.......................|.......................|C#1....0400............|.......................|.......................|
.......................|.......................|.......................|.......................|.......................|.......................|.......................|.......................|.......................|.......................|
===....................|===....................|===....................|===....................|.......................|.......................|===....................|.......................|.......................|.......................|
C-0....................|D-3....................|F#5....................|D-3....................|.......................|C-4C0..................|D-1....................|.......................|.......................|.......................|
.......................|.......................|.......................|.......................|.......................|.......................|.......................|.......................|.......................|.......................|
.......................|.......................|.......................|.......................|.......................|.......................|.......................|.......................|.......................|.......................|
.......................|.......................|.......................|.......................|===....................|.......................|.......................|===....................|.......................|.......................|
.......................|.......................|.......................|.......................|C-0....................|.......................|.......................|D-1....................|.......................|.......................|
.......................|.......................|.......................|.......................|.......................|.......................|.......................|.......................|.......................|.......................|
===....................|===....................|===....................|===....................|.......................|.......................|===....................|.......................|.......................|.......................|
C-0....................|C#3....................|G-5....................|C#3....................|.......................|C-4C1..................|C#1....................|.......................|.......................|.......................|
.......................|.......................|.......................|.......................|.......................|.......................|.......................|.......................|.......................|.......................|
.......................|.......................|.......................|.......................|.......................|.......................|.......................|.......................|.......................|.......................|
.......................|.......................|.......................|.......................|===....................|.......................|.......................|===....................|.......................|.......................|
.......................|.......................|.......................|.......................|C-0....................|.......................|.......................|D-1....................|.......................|.......................|
.......................|.......................|.......................|.......................|.......................|.......................|.......................|.......................|.......................|.......................|
===....................|===....................|===....................|===....................|.......................|.......................|===....................|.......................|.......................|.......................|
C-0....................|D-3....................|F#5....................|D-3....................|.......................|C-4C0..................|D-1....................|.......................|.......................|.......................|
.......................|.......................|.......................|.......................|.......................|.......................|.......................|.......................|.......................|.......................|
.......................|.......................|.......................|.......................|.......................|.......................|.......................|.......................|.......................|.......................|
.......................|.......................|.......................|.......................|===....................|.......................|.......................|===....................|.......................|.......................|
.......................|.......................|.......................|.......................|C-0....................|.......................|.......................|C#1....................|.......................|.......................|
.......................|.......................|.......................|.......................|.......................|.......................|.......................|.......................|.......................|.......................|
===....................|===....................|===....................|===....................|.......................|.......................|===....................|.......................|.......................|.......................|
C-0....................|D-3....................|G-5....................|D-3....................|.......................|C-4C0..................|D-1....................|.......................|.......................|.......................|
.......................|.......................|.......................|.......................|.......................|.......................|.......................|.......................|.......................|.......................|
.......................|.......................|.......................|.......................|.......................|.......................|.......................|.......................|.......................|.......................|
.......................|.......................|.......................|.......................|===....................|.......................|.......................|===....................|.......................|.......................|
.......................|.......................|.......................|.......................|C-0....................|.......................|.......................|D-1....................|.......................|.......................|
.......................|.......................|.......................|.......................|.......................|.......................|.......................|.......................|.......................|.......................|
===....................|===....................|===....................|===....................|.......................|.......................|===....................|.......................|.......................|.......................|
C-0....................|F#3....................|C-0....................|F#3....................|.......................|C-4C5..................|F#1....................|.......................|.......................|.......................|
.......................|.......................|.......................|.......................|.......................|.......................|.......................|.......................|.......................|.......................|
.......................|.......................|.......................|.......................|.......................|.......................|.......................|.......................|.......................|.......................|
.......................|.......................|.......................|.......................|===....................|.......................|.......................|===....................|.......................|.......................|
.......................|.......................|.......................|.......................|C-0....................|C-4C5..................|.......................|D-1....................|.......................|.......................|
.......................|.......................|.......................|.......................|.......................|.......................|.......................|.......................|.......................|.......................|
===....................|===....................|===....................|===....................|.......................|.......................|===....................|.......................|.......................|.......................|
C-0....................|E-3....................|G-5....................|E-3....................|.......................|C-4C5..................|E-1....................|.......................|.......................|.......................|
.......................|.......................|.......................|.......................|.......................|.......................|.......................|.......................|.......................|.......................|
.......................|.......................|.......................|.......................|.......................|.......................|.......................|.......................|.......................|.......................|
.......................|.......................|.......................|.......................|===....................|.......................|.......................|===....................|.......................|.......................|
.......................|.......................|.......................|.......................|C-0....................|C-4C5..................|.......................|F#1....................|.......................|.......................|
.......................|.......................|.......................|.......................|.......................|.......................|.......................|.......................|.......................|.......................|
===....................|===....................|===....................|===....................|.......................|.......................|===....................|.......................|.......................|.......................|
C-0....................|D-3....................|C-0....................|D-3....................|.......................|C-4C5..................|D-1....................|.......................|.......................|.......................|
.......................|.......................|.......................|.......................|.......................|.......................|.......................|.......................|.......................|.......................|
.......................|.......................|.......................|.......................|.......................|.......................|.......................|.......................|.......................|.......................|
.......................|.......................|.......................|.......................|===....................|.......................|.......................|===....................|.......................|.......................|
.......................|.......................|.......................|.......................|C-0....................|C-4C5..................|.......................|E-1....................|.......................|.......................|
.......................|.......................|.......................|.......................|.......................|.......................|.......................|.......................|.......................|.......................|
===....................|===....................|===....................|===....................|.......................|.......................|===....................|.......................|.......................|.......................|
C-00F6B................|C#3....................|E-50F67................|C#3....................|.......................|C-4C5..................|C#1....................|.......................|.......................|.......................|
.......................|.......................|.......................|.......................|.......................|.......................|.......................|.......................|.......................|.......................|
.......................|.......................|.......................|.......................|.......................|.......................|.......................|.......................|.......................|.......................|
.......................|.......................|.......................|.......................|===....................|.......................|.......................|===....................|.......................|.......................|
.......................|.......................|.......................|.......................|C-0....................|C-4C5..................|.......................|D-1....................|.......................|.......................|
.......................|.......................|.......................|.......................|.......................|.......................|.......................|.......................|.......................|.......................|
===....................|===....................|===....................|===....................|.......................|.......................|===....................|.......................|.......................|.......................|
C-0....................|B-2....................|E-5....................|B-2....................|.......................|C-4C5..................|B-0....................|.......................|.......................|.......................|
.......................|.......................|.......................|.......................|.......................|.......................|.......................|.......................|.......................|.......................|
.......................|.......................|.......................|.......................|.......................|.......................|.......................|.......................|.......................|.......................|
.......................|.......................|.......................|.......................|===....................|.......................|.......................|===....................|.......................|.......................|
.......................|.......................|.......................|.......................|C-00F5F................|C-4C5..................|.......................|C#1....................|.......................|.......................|
.......................|.......................|.......................|.......................|.......................|.......................|.......................|.......................|.......................|.......................|
===....................|===....................|===....................|===....................|.......................|.......................|===....................|.......................|.......................|.......................|
C-0....................|A-2....................|E-5....................|A-2....................|.......................|C-4C5..................|A-0....................|.......................|.......................|.......................|
.......................|.......................|.......................|.......................|.......................|.......................|.......................|.......................|.......................|.......................|
.......................|.......................|.......................|.......................|.......................|.......................|.......................|.......................|.......................|.......................|
.......................|.......................|.......................|.......................|===....................|.......................|.......................|===....................|.......................|.......................|
.......................|.......................|.......................|.......................|C-0....................|C-4C1..................|.......................|B-0....................|.......................|.......................|
.......................|.......................|.......................|.......................|.......................|.......................|.......................|.......................|.......................|.......................|
===....................|===....................|===....................|===....................|.......................|.......................|===....................|.......................|.......................|.......................|
C-0....................|G-2....................|E-5....................|===....................|.......................|C-4C0..................|===....................|.......................|.......................|.......................|
G-5....0340............|.......................|D-5....0340............|.......................|.......................|.......................|.......................|.......................|.......................|.......................|
.......................|.......................|.......................|.......................|.......................|.......................|.......................|.......................|.......................|.......................|
.......................|.......................|.......................|.......................|===....................|.......................|.......................|===....................|.......................|.......................|
.......................|.......................|.......................|.......................|C-0....................|.......................|.......................|A-0....................|.......................|.......................|
.......................|.......................|.......................|.......................|.......................|.......................|.......................|.......................|.......................|.......................|
.......................|.......................|.......................|.......................|.......................|.......................|.......................|.......................|.......................|.......................|
.......................|.......................|.......................|.......................|.......................|.......................|.......................|.......................|.......................|.......................|
.......................|.......................|.......................|.......................|.......................|.......................|.......................|.......................|.......................|.......................|
.......................|.......................|.......................|.......................|.......................|.......................|.......................|.......................|.......................|.......................|
.......................|.......................|.......................|.......................|===....................|.......................|.......................|===....................|.......................|.......................|
.......................|.......................|.......................|.......................|C-0....................|.......................|.......................|===....................|.......................|.......................|
.......................|.......................|.......................|.......................|G-5....0340............|.......................|.......................|.......................|.......................|.......................|
.......................|===....................|.......................|.......................|.......................|.......................|.......................|.......................|.......................|.......................|
.......................|G-2....................|.......................|.......................|.......................|.......................|.......................|.......................|.......................|.......................|
.......................|.......................|.......................|.......................|.......................|.......................|.......................|.......................|.......................|.......................|
.......................|.......................|.......................|.......................|.......................|.......................|.......................|.......................|.......................|.......................|
.......................|.......................|.......................|.......................|.......................|.......................|.......................|.......................|.......................|.......................|
.......................|.......................|.......................|.......................|.......................|.......................|.......................|.......................|.......................|.......................|
.......................|.......................|.......................|.......................|.......................|.......................|.......................|.......................|.......................|.......................|
.......E3000452........|===....................|.......E3000452........|.......................|.......................|.......................|.......................|.......................|.......................|.......................|
.......................|G-2....................|.......................|F#4....................|.......................|C-4C1..................|A-2....................|.......................|.......................|.......................|
.......................|.......................|.......................|.......................|.......................|.......................|.......................|.......................|.......................|.......................|
.......................|.......................|.......................|.......................|.......................|.......................|.......................|.......................|.......................|.......................|
.......................|.......................|.......................|.......................|.......................|.......................|.......................|.......................|.......................|.......................|
.......................|.......................|.......................|.......................|.......................|.......................|.......................|.......................|.......................|.......................|
.......................|.......................|.......................|.......................|.......................|.......................|.......................|.......................|.......................|.......................|
.......................|===....................|.......................|===....................|.......................|.......................|===....................|.......................|.......................|.......................|
.......................|G-2....................|.......................|F#4....................|.......................|.......................|A-2....................|.......................|.......................|.......................|
.......................|.......................|.......................|.......................|.......................|.......................|.......................|.......................|.......................|.......................|
.......................|.......................|.......................|.......................|.......................|.......................|.......................|.......................|.......................|.......................|
.......................|.......................|.......................|.......................|.......E3000452........|.......................|.......................|.......................|.......................|.......................|
.......................|.......................|.......................|.......................|.......................|.......................|.......................|A-2....................|.......................|.......................|
.......................|.......................|.......................|.......................|.......................|.......................|.......................|.......................|.......................|.......................|
.......................|===....................|.......................|===....................|.......................|.......................|===....................|.......................|.......................|.......................|
.......................|G-2....................|.......................|F#4....................|.......................|.......................|A-2....................|.......................|.......................|.......................|
.......................|.......................|.......................|.......................|.......................|.......................|.......................|.......................|.......................|.......................|
.......................|.......................|.......................|.......................|.......................|.......................|.......................|.......................|.......................|.......................|
.......................|.......................|.......................|.......................|.......................|.......................|.......................|===....................|.......................|.......................|
.......................|.......................|.......................|.......................|.......................|.......................|.......................|A-2....................|.......................|.......................|
.......................|.......................|.......................|.......................|.......................|.......................|.......................|.......................|.......................|.......................|
.......................|===....................|.......................|===....................|.......................|.......................|===....................|.......................|.......................|.......................|
.......................|G-2....................|.......................|A-4....................|.......................|C-4C0..................|D-3....................|.......................|.......................|.......................|
.......................|.......................|.......................|.......................|.......................|.......................|.......................|.......................|.......................|.......................|
.......................|.......................|.......................|.......................|.......................|.......................|.......................|.......................|.......................|.......................|
.......................|.......................|.......................|.......................|.......................|.......................|.......................|===....................|.......................|.......................|
.......................|.......................|.......................|.......................|.......................|.......................|.......................|A-2....................|.......................|.......................|
.......................|.......................|.......................|.......................|.......................|.......................|.......................|.......................|.......................|.......................|
.......................|.......................|.......................|.......................|.......................|.......................|.......................|.......................|.......................|.......................|
.......................|.......................|.......................|.......................|.......................|.......................|.......................|.......................|.......................|.......................|
.......................|.......................|.......................|.......................|.......................|.......................|.......................|.......................|.......................|.......................|
.......................|.......................|.......................|.......................|.......................|.......................|.......................|.......................|.......................|.......................|
.......................|.......................|.......................|.......................|.......................|.......................|.......................|===....................|.......................|.......................|
.......................|.......................|.......................|.......................|.......................|.......................|.......................|D-3....................|.......................|.......................|
.......................|.......................|.......................|.......................|.......................|.......................|.......................|.......................|.......................|.......................|
.......................|===....................|.......................|.......................|.......................|.......................|.......................|.......................|.......................|.......................|
.......................|G-2....................|.......................|.......................|.......................|C-4C0..................|.......................|.......................|.......................|.......................|
.......................|.......................|.......................|.......................|.......................|.......................|.......................|.......................|.......................|.......................|
.......................|.......................|.......................|.......................|.......................|.......................|.......................|.......................|.......................|.......................|
.......................|.......................|.......................|.......................|.......................|.......................|.......................|.......................|.......................|.......................|
.......................|.......................|.......................|.......................|.......................|.......................|.......................|.......................|.......................|.......................|
.......................|.......................|.......................|.......................|.......................|.......................|.......................|.......................|.......................|.......................|
.......................|===....................|.......................|.......E3000452........|.......................|.......................|.......0452............|.......................|.......................|.......................|
.......................|G-2....................|.......................|.......................|.......................|C-4C1..................|.......................|.......................|.......................|.......................|
.......................|.......................|.......................|.......................|.......................|.......................|.......................|.......................|.......................|.......................|
.......................|.......................|.......................|.......................|.......................|.......................|.......................|.......................|.......................|.......................|
.......................|.......................|.......................|.......................|.......................|.......................|.......................|.......................|.......................|.......................|
.......................|.......................|.......................|.......................|.......................|.......................|.......................|.......................|.......................|.......................|
.......................|.......................|.......................|.......................|.......................|.......................|.......................|.......................|.......................|.......................|
.......................|===....................|.......................|.......................|.......................|.......................|.......................|.......................|.......................|.......................|
.......................|G-2....................|.......................|.......................|.......................|.......................|.......................|.......................|.......................|.......................|
.......................|.......................|.......................|.......................|.......................|.......................|.......................|.......................|.......................|.......................|
.......................|.......................|.......................|.......................|.......................|.......................|.......................|.......................|.......................|.......................|
.......................|.......................|.......................|.......................|.......................|.......................|.......................|.......0452............|.......................|.......................|
.......................|.......................|.......................|.......................|.......................|.......................|.......................|.......................|.......................|.......................|
.......................|.......................|.......................|.......................|.......................|.......................|.......................|.......................|.......................|.......................|
===....................|===....................|===....................|.......................|.......................|.......................|.......................|.......................|.......................|.......................|
G-5....0400............|G-2....................|D-5....0400............|.......................|.......................|.......................|.......................|.......................|.......................|.......................|
C-0....0340............|.......................|E-5....0340............|.......................|.......................|.......................|.......................|.......................|.......................|.......................|
.......................|.......................|.......................|.......................|.......................|.......................|.......................|.......................|.......................|.......................|
.......................|.......................|.......................|.......................|.......................|.......................|.......................|.......................|.......................|.......................|
.......................|.......................|.......................|.......................|.......................|.......................|.......................|.......................|.......................|.......................|
.......................|.......................|.......................|.......................|.......................|.......................|.......................|.......................|.......................|.......................|
===....................|===....................|===....................|===....................|.......................|.......................|===....................|.......................|.......................|.......................|
C-0....................|G-2....................|E-5....................|D-5....0400............|.......................|C-4C0..................|G-3....0400............|.......................|.......................|.......................|
C-0....0340............|.......................|G-5....0340............|.......................|.......................|.......................|.......................|.......................|.......................|.......................|
.......................|.......................|.......................|.......................|.......................|.......................|.......................|.......................|.......................|.......................|
.......................|.......................|.......................|.......................|===....................|.......................|.......................|.......................|.......................|.......................|
.......................|.......................|.......................|.......................|G-5....0400............|.......................|.......................|.......................|.......................|.......................|
.......................|.......................|.......................|.......................|C-0....0340............|.......................|.......................|.......................|.......................|.......................|
.......................|.......................|.......................|.......................|.......................|.......................|.......................|.......................|.......................|.......................|
.......................|.......................|.......................|.......................|.......................|.......................|.......................|.......................|.......................|.......................|
.......................|.......................|.......................|.......................|.......................|.......................|.......................|.......................|.......................|.......................|
.......................|.......................|.......................|.......................|.......................|.......................|.......................|.......................|.......................|.......................|
.......................|.......................|.......................|.......................|===....................|.......................|.......................|===....................|.......................|.......................|
.......................|.......................|.......................|.......................|C-0....................|.......................|.......................|G-3....0400............|.......................|.......................|
.......................|.......................|.......................|.......................|C-0....0340............|.......................|.......................|.......................|.......................|.......................|
.......................|===....................|.......................|.......................|.......................|.......................|.......................|.......................|.......................|.......................|
.......................|G-2....................|.......................|.......................|.......................|.......................|.......................|.......................|.......................|.......................|
.......................|.......................|.......................|.......................|.......................|.......................|.......................|.......................|.......................|.......................|
.......................|.......................|.......................|.......................|.......................|.......................|.......................|.......................|.......................|.......................|
.......................|.......................|.......................|.......................|.......................|.......................|.......................|.......................|.......................|.......................|
.......................|.......................|.......................|.......................|.......................|.......................|.......................|.......................|.......................|.......................|
.......................|.......................|.......................|.......................|.......................|.......................|.......................|.......................|.......................|.......................|
===....E3000452........|===....................|===....E3000452........|.......E3000452........|.......................|.......................|.......0452............|.......................|.......................|.......................|
C-0....0400............|G-2....................|G-5....0400............|.......................|.......................|C-4C1..................|.......................|.......................|.......................|.......................|
.......................|.......................|.......................|.......................|.......................|.......................|.......................|.......................|.......................|.......................|
.......................|.......................|.......................|.......................|.......................|.......................|.......................|.......................|.......................|.......................|
org.tildearrow.furnace - Pattern Data (219)
0
.......................|.......................|.......................|.......................|.......................|.......................|.......................|.......................|.......................|.......................|
.......................|.......................|.......................|.......................|.......................|.......................|.......................|.......................|.......................|.......................|
.......................|.......................|.......................|.......................|.......................|.......................|.......................|.......................|.......................|.......................|
===....................|.......................|===....................|.......................|.......................|.......................|.......................|.......................|.......................|.......................|
C-0....................|.......................|G-5....................|.......................|.......................|.......................|.......................|.......................|.......................|.......................|
.......................|.......................|.......................|.......................|.......................|.......................|.......................|.......................|.......................|.......................|
.......................|.......................|.......................|.......................|.......................|.......................|.......................|.......................|.......................|.......................|
.......................|.......................|.......................|.......................|===....E3000452........|.......................|.......................|.......0452............|.......................|.......................|
.......................|.......................|.......................|.......................|C-0....0400............|.......................|.......................|.......................|.......................|.......................|
.......................|.......................|.......................|.......................|.......................|.......................|.......................|.......................|.......................|.......................|
===....................|===....................|===....................|.......................|.......................|.......................|.......................|.......................|.......................|.......................|
C-0....................|G-2....................|G-5....................|.......................|.......................|C-4C0..................|.......................|.......................|.......................|.......................|
C-0....0340............|.......................|.......................|.......................|.......................|.......................|.......................|.......................|.......................|.......................|
.......................|.......................|.......................|.......................|.......................|.......................|.......................|.......................|.......................|.......................|
.......................|.......................|.......................|.......................|===....................|.......................|.......................|.......................|.......................|.......................|
.......................|.......................|.......................|.......................|C-0....................|.......................|.......................|.......................|.......................|.......................|
.......................|.......................|.......................|.......................|.......................|.......................|.......................|.......................|.......................|.......................|
===....................|===....................|===....................|===....................|.......................|.......................|===....................|.......................|.......................|.......................|
C-0....................|G-2....................|G-5....................|G-5....0400............|.......................|.......................|B-3....0400............|.......................|.......................|.......................|
C-0....0340............|.......................|.......................|.......................|.......................|.......................|.......................|.......................|.......................|.......................|
.......................|.......................|.......................|.......................|.......................|.......................|.......................|.......................|.......................|.......................|
.......................|.......................|.......................|.......................|===....................|.......................|.......................|.......................|.......................|.......................|
.......................|.......................|.......................|.......................|C-0....................|.......................|.......................|.......................|.......................|.......................|
.......................|.......................|.......................|.......................|C-0....0340............|.......................|.......................|.......................|.......................|.......................|
.......................|===....................|.......................|.......................|.......................|.......................|.......................|.......................|.......................|.......................|
.......................|G-2....................|.......................|.......................|.......................|.......................|.......................|.......................|.......................|.......................|
.......................|.......................|.......................|.......................|.......................|.......................|.......................|.......................|.......................|.......................|
.......................|.......................|.......................|.......................|.......................|.......................|.......................|.......................|.......................|.......................|
.......................|.......................|.......................|.......................|===....................|.......................|.......................|===....................|.......................|.......................|
.......................|.......................|.......................|.......................|C-0....................|.......................|.......................|B-3....0400............|.......................|.......................|
.......................|.......................|.......................|.......................|C-0....0340............|.......................|.......................|.......................|.......................|.......................|
.......................|===....................|.......................|.......................|.......................|.......................|.......................|.......................|.......................|.......................|
.......................|G-2....................|.......................|.......................|.......................|C-4C0..................|.......................|.......................|.......................|.......................|
.......................|.......................|.......................|.......................|.......................|.......................|.......................|.......................|.......................|.......................|
.......................|.......................|.......................|.......................|.......................|.......................|.......................|.......................|.......................|.......................|
.......................|.......................|.......................|.......................|.......................|.......................|.......................|.......................|.......................|.......................|
.......................|.......................|.......................|.......................|.......................|.......................|.......................|.......................|.......................|.......................|
.......................|.......................|.......................|.......................|.......................|.......................|.......................|.......................|.......................|.......................|
===....E3000452........|===....................|===....E3000452........|.......E3000452........|.......................|.......................|.......0452............|.......................|.......................|.......................|
C-0....0400............|G-2....................|G-5....0400............|.......................|.......................|C-4C1..................|.......................|.......................|.......................|.......................|
D-5....0340............|.......................|A-4....0340............|.......................|.......................|.......................|.......................|.......................|.......................|.......................|
.......................|.......................|.......................|.......................|.......................|.......................|.......................|.......................|.......................|.......................|
.......................|.......................|.......................|.......................|.......................|.......................|.......................|.......................|.......................|.......................|
.......................|.......................|.......................|.......................|.......................|.......................|.......................|.......................|.......................|.......................|
.......................|.......................|.......................|.......................|.......................|.......................|.......................|.......................|.......................|.......................|
.......................|===....................|.......................|.......................|.......................|.......................|.......................|.......................|.......................|.......................|
.......................|G-2....................|.......................|.......................|.......................|.......................|.......................|.......................|.......................|.......................|
.......................|.......................|.......................|.......................|.......................|.......................|.......................|.......................|.......................|.......................|
.......................|.......................|.......................|.......................|.......................|.......................|.......................|.......................|.......................|.......................|
.......................|.......................|.......................|.......................|===....E3000452........|.......................|.......................|.......0452............|.......................|.......................|
.......................|.......................|.......................|.......................|C-0....0400............|.......................|.......................|.......................|.......................|.......................|
.......................|.......................|.......................|.......................|D-5....0340............|.......................|.......................|.......................|.......................|.......................|
.......................|===....................|.......................|.......................|.......................|.......................|.......................|.......................|.......................|.......................|
.......................|G-2....................|.......................|.......................|.......................|.......................|.......................|.......................|.......................|.......................|
.......................|.......................|.......................|.......................|.......................|.......................|.......................|.......................|.......................|.......................|
.......................|.......................|.......................|.......................|.......................|.......................|.......................|.......................|.......................|.......................|
.......................|.......................|.......................|.......................|.......................|.......................|.......................|.......................|.......................|.......................|
.......................|.......................|.......................|.......................|.......................|.......................|.......................|.......................|.......................|.......................|
.......................|.......................|.......................|.......................|.......................|.......................|.......................|.......................|.......................|.......................|
===....E3000452........|===....................|===....E3000452........|===....................|.......................|.......................|===....................|.......................|.......................|.......................|
D-5....0400............|D-3....................|A-4....0400............|===....................|.......................|C-4C0..................|===....................|.......................|.......................|.......................|
F#5....0340............|.......................|D-5....0340............|.......................|.......................|.......................|.......................|.......................|.......................|.......................|
.......................|.......................|.......................|.......................|.......................|.......................|.......................|.......................|.......................|.......................|
.......................|.......................|.......................|.......................|.......................|.......................|.......................|.......................|.......................|.......................|
.......................|.......................|.......................|.......................|.......................|.......................|.......................|.......................|.......................|.......................|
.......................|.......................|.......................|.......................|.......................|.......................|.......................|.......................|.......................|.......................|
.......................|.......................|.......................|.......................|.......................|.......................|.......................|.......................|.......................|.......................|
.......................|.......................|.......................|.......................|.......................|.......................|.......................|.......................|.......................|.......................|
.......................|.......................|.......................|.......................|.......................|.......................|.......................|.......................|.......................|.......................|
.......................|.......................|.......................|.......................|.......................|.......................|.......................|.......................|.......................|.......................|
.......................|.......................|.......................|.......................|===....E3000452........|.......................|.......................|===....................|.......................|.......................|
.......................|.......................|.......................|.......................|D-5....0400............|.......................|.......................|===....................|.......................|.......................|
.......................|.......................|.......................|.......................|F#5....0340............|.......................|.......................|.......................|.......................|.......................|
.......................|===....................|.......................|.......................|.......................|.......................|.......................|.......................|.......................|.......................|
.......................|D-3....................|.......................|.......................|.......................|.......................|.......................|.......................|.......................|.......................|
.......................|.......................|.......................|.......................|.......................|.......................|.......................|.......................|.......................|.......................|
.......................|.......................|.......................|.......................|.......................|.......................|.......................|.......................|.......................|.......................|
.......................|.......................|.......................|.......................|.......................|.......................|.......................|.......................|.......................|.......................|
.......................|.......................|.......................|.......................|.......................|.......................|.......................|.......................|.......................|.......................|
.......................|.......................|.......................|.......................|.......................|.......................|.......................|.......................|.......................|.......................|
.......E3000452........|===....................|.......E3000452........|.......................|.......................|.......................|.......................|.......................|.......................|.......................|
.......................|D-3....................|.......................|A-4....0400............|.......................|C-4C1..................|D-3....0400............|.......................|.......................|.......................|
.......................|.......................|.......................|.......................|.......................|.......................|.......................|.......................|.......................|.......................|
.......................|.......................|.......................|.......................|.......................|.......................|.......................|.......................|.......................|.......................|
.......................|.......................|.......................|.......................|.......................|.......................|.......................|.......................|.......................|.......................|
.......................|.......................|.......................|.......................|.......................|.......................|.......................|.......................|.......................|.......................|
.......................|.......................|.......................|.......................|.......................|.......................|.......................|.......................|.......................|.......................|
.......................|===....................|.......................|===....................|.......................|.......................|===....................|.......................|.......................|.......................|
.......................|D-3....................|.......................|A-4....................|.......................|.......................|D-3....................|.......................|.......................|.......................|
.......................|.......................|.......................|.......................|.......................|.......................|.......................|.......................|.......................|.......................|
.......................|.......................|.......................|.......................|.......................|.......................|.......................|.......................|.......................|.......................|
.......................|.......................|.......................|.......................|.......E3000452........|.......................|.......................|.......................|.......................|.......................|
.......................|.......................|.......................|.......................|.......................|.......................|.......................|D-3....0400............|.......................|.......................|
.......................|.......................|.......................|.......................|.......................|.......................|.......................|.......................|.......................|.......................|
.......................|===....................|.......................|===....................|.......................|.......................|===....................|.......................|.......................|.......................|
.......................|D-3....................|.......................|A-4....................|.......................|.......................|D-3....................|.......................|.......................|.......................|
.......................|.......................|.......................|.......................|.......................|.......................|.......................|.......................|.......................|.......................|
.......................|.......................|.......................|.......................|.......................|.......................|.......................|.......................|.......................|.......................|
.......................|.......................|.......................|.......................|.......................|.......................|.......................|===....................|.......................|.......................|
.......................|.......................|.......................|.......................|.......................|.......................|.......................|D-3....................|.......................|.......................|
.......................|.......................|.......................|.......................|.......................|.......................|.......................|.......................|.......................|.......................|
.......................|===....................|.......................|===....................|.......................|.......................|===....................|.......................|.......................|.......................|
.......................|D-3....................|.......................|===....................|.......................|C-4C0..................|===....................|.......................|.......................|.......................|
.......................|.......................|.......................|.......................|.......................|.......................|.......................|.......................|.......................|.......................|
.......................|.......................|.......................|.......................|.......................|.......................|.......................|.......................|.......................|.......................|
.......................|.......................|.......................|.......................|.......................|.......................|.......................|===....................|.......................|.......................|
.......................|.......................|.......................|.......................|.......................|.......................|.......................|D-3....................|.......................|.......................|
.......................|.......................|.......................|.......................|.......................|.......................|.......................|.......................|.......................|.......................|
.......................|.......................|.......................|.......................|.......................|.......................|.......................|.......................|.......................|.......................|
.......................|.......................|.......................|.......................|.......................|.......................|.......................|.......................|.......................|.......................|
.......................|.......................|.......................|.......................|.......................|.......................|.......................|.......................|.......................|.......................|
.......................|.......................|.......................|.......................|.......................|.......................|.......................|.......................|.......................|.......................|
.......................|.......................|.......................|.......................|.......................|.......................|.......................|===....................|.......................|.......................|
.......................|.......................|.......................|.......................|.......................|.......................|.......................|===....................|.......................|.......................|
.......................|.......................|.......................|.......................|.......................|.......................|.......................|.......................|.......................|.......................|
.......................|===....................|.......................|.......................|.......................|.......................|.......................|.......................|.......................|.......................|
.......................|D-3....................|.......................|.......................|.......................|C-4C0..................|.......................|.......................|.......................|.......................|
.......................|.......................|.......................|.......................|.......................|.......................|.......................|.......................|.......................|.......................|
.......................|.......................|.......................|.......................|.......................|.......................|.......................|.......................|.......................|.......................|
.......................|.......................|.......................|.......................|.......................|.......................|.......................|.......................|.......................|.......................|
.......................|.......................|.......................|.......................|.......................|.......................|.......................|.......................|.......................|.......................|
.......................|.......................|.......................|.......................|.......................|.......................|.......................|.......................|.......................|.......................|
.......................|===....................|.......................|.......................|.......................|.......................|.......................|.......................|.......................|.......................|
.......................|D-3....................|.......................|A-4....................|.......................|C-4C1..................|D-3....................|.......................|.......................|.......................|
.......................|.......................|.......................|.......................|.......................|.......................|.......................|.......................|.......................|.......................|
.......................|.......................|.......................|.......................|.......................|.......................|.......................|.......................|.......................|.......................|
.......................|.......................|.......................|.......................|.......................|.......................|.......................|.......................|.......................|.......................|
.......................|.......................|.......................|.......................|.......................|.......................|.......................|.......................|.......................|.......................|
.......................|.......................|.......................|.......................|.......................|.......................|.......................|.......................|.......................|.......................|
.......................|===....................|.......................|===....................|.......................|.......................|===....................|.......................|.......................|.......................|
.......................|D-3....................|.......................|A-4....................|.......................|.......................|D-3....................|.......................|.......................|.......................|
.......................|.......................|.......................|.......................|.......................|.......................|.......................|.......................|.......................|.......................|
.......................|.......................|.......................|.......................|.......................|.......................|.......................|.......................|.......................|.......................|
.......................|.......................|.......................|.......................|.......................|.......................|.......................|.......................|.......................|.......................|
.......................|.......................|.......................|.......................|.......................|.......................|.......................|D-3....................|.......................|.......................|
.......................|.......................|.......................|.......................|.......................|.......................|.......................|.......................|.......................|.......................|
.......................|===....................|.......................|===....................|.......................|.......................|===....................|.......................|.......................|.......................|
.......................|D-3....................|.......................|A-4....................|.......................|.......................|D-3....................|.......................|.......................|.......................|
.......................|.......................|.......................|.......................|.......................|.......................|.......................|.......................|.......................|.......................|
.......................|.......................|.......................|.......................|.......................|.......................|.......................|.......................|.......................|.......................|
.......................|.......................|.......................|.......................|.......................|.......................|.......................|===....................|.......................|.......................|
.......................|.......................|.......................|.......................|.......................|.......................|.......................|D-3....................|.......................|.......................|
.......................|.......................|.......................|.......................|.......................|.......................|.......................|.......................|.......................|.......................|
.......................|===....................|.......................|===....................|.......................|.......................|===....................|.......................|.......................|.......................|
.......................|C-3....................|.......................|===....................|.......................|C-4C0..................|===....................|.......................|.......................|.......................|
.......................|.......................|.......................|.......................|.......................|.......................|.......................|.......................|.......................|.......................|
.......................|.......................|.......................|.......................|.......................|.......................|.......................|.......................|.......................|.......................|
.......................|.......................|.......................|.......................|.......................|.......................|.......................|===....................|.......................|.......................|
.......................|.......................|.......................|.......................|.......................|.......................|.......................|D-3....................|.......................|.......................|
.......................|.......................|.......................|.......................|.......................|.......................|.......................|.......................|.......................|.......................|
.......................|.......................|.......................|.......................|.......................|.......................|.......................|.......................|.......................|.......................|
.......................|.......................|.......................|.......................|.......................|.......................|.......................|.......................|.......................|.......................|
.......................|.......................|.......................|.......................|.......................|.......................|.......................|.......................|.......................|.......................|
.......................|.......................|.......................|.......................|.......................|.......................|.......................|.......................|.......................|.......................|
.......................|.......................|.......................|.......................|.......................|.......................|.......................|===....................|.......................|.......................|
.......................|.......................|.......................|.......................|.......................|.......................|.......................|===....................|.......................|.......................|
.......................|.......................|.......................|.......................|.......................|.......................|.......................|.......................|.......................|.......................|
.......................|===....................|.......................|.......................|.......................|.......................|.......................|.......................|.......................|.......................|
.......................|C-3....................|.......................|.......................|.......................|C-4C0..................|.......................|.......................|.......................|.......................|
.......................|.......................|.......................|.......................|.......................|.......................|.......................|.......................|.......................|.......................|
.......................|.......................|.......................|.......................|.......................|.......................|.......................|.......................|.......................|.......................|
.......................|.......................|.......................|.......................|.......................|.......................|.......................|.......................|.......................|.......................|
.......................|.......................|.......................|.......................|.......................|.......................|.......................|.......................|.......................|.......................|
.......................|.......................|.......................|.......................|.......................|.......................|.......................|.......................|.......................|.......................|
.......................|===....................|.......................|.......................|.......................|.......................|.......................|.......................|.......................|.......................|
.......................|C-3....................|.......................|A-4....................|.......................|C-4C1..................|C-3....................|.......................|.......................|.......................|
.......................|.......................|.......................|.......................|.......................|.......................|.......................|.......................|.......................|.......................|
.......................|.......................|.......................|.......................|.......................|.......................|.......................|.......................|.......................|.......................|
.......................|.......................|.......................|.......................|.......................|.......................|.......................|.......................|.......................|.......................|
.......................|.......................|.......................|.......................|.......................|.......................|.......................|.......................|.......................|.......................|
.......................|.......................|.......................|.......................|.......................|.......................|.......................|.......................|.......................|.......................|
.......................|===....................|.......................|===....................|.......................|.......................|===....................|.......................|.......................|.......................|
.......................|C-3....................|.......................|A-4....................|.......................|C-4C0..................|C-3....................|.......................|.......................|.......................|
.......................|.......................|.......................|.......................|.......................|.......................|.......................|.......................|.......................|.......................|
.......................|.......................|.......................|.......................|.......................|.......................|.......................|.......................|.......................|.......................|
.......................|.......................|.......................|.......................|.......................|.......................|.......................|.......................|.......................|.......................|
.......................|.......................|.......................|.......................|.......................|.......................|.......................|C-3....................|.......................|.......................|
.......................|.......................|.......................|.......................|.......................|.......................|.......................|.......................|.......................|.......................|
.......................|===....................|.......................|===....................|.......................|.......................|===....................|.......................|.......................|.......................|
.......................|C-3....................|.......................|A-4....................|.......................|C-4C0..................|C-3....................|.......................|.......................|.......................|
.......................|.......................|.......................|.......................|.......................|.......................|.......................|.......................|.......................|.......................|
.......................|.......................|.......................|.......................|.......................|.......................|.......................|.......................|.......................|.......................|
.......................|.......................|.......................|.......................|.......................|.......................|.......................|===....................|.......................|.......................|
.......................|.......................|.......................|.......................|.......................|.......................|.......................|C-3....................|.......................|.......................|
.......................|.......................|.......................|.......................|.......................|.......................|.......................|.......................|.......................|.......................|
.......................|===....................|.......................|===....................|.......................|.......................|===....................|.......................|.......................|.......................|
.......................|B-2....................|.......................|G-5....................|.......................|C-4C2..8000............|B-3....................|.......................|.......................|.......................|
.......................|.......................|.......................|.......................|.......................|.......................|.......................|.......................|.......................|.......................|
.......................|.......................|.......................|.......................|.......................|.......................|.......................|.......................|.......................|.......................|
.......................|.......................|.......................|.......................|.......................|.......................|.......................|===....................|.......................|.......................|
.......................|.......................|.......................|.......................|.......................|.......................|.......................|C-3....................|.......................|.......................|
.......................|.......................|.......................|.......................|.......................|.......................|.......................|.......................|.......................|.......................|
.......................|===....................|.......................|===....................|.......................|.......................|===....................|.......................|.......................|.......................|
.......................|B-2....................|.......................|G-4....................|.......................|C-4C3..8080............|B-2....................|.......................|.......................|.......................|
.......................|.......................|.......................|.......................|.......................|.......................|.......................|.......................|.......................|.......................|
.......................|.......................|.......................|.......................|.......................|.......................|.......................|.......................|.......................|.......................|
.......................|.......................|.......................|.......................|.......................|.......................|.......................|===....................|.......................|.......................|
.......................|.......................|.......................|.......................|.......................|.......................|.......................|B-3....................|.......................|.......................|
.......................|.......................|.......................|.......................|.......................|.......................|.......................|.......................|.......................|.......................|
.......................|===....................|.......................|===....................|.......................|.......................|===....................|.......................|.......................|.......................|
.......................|B-2....................|.......................|G-4....................|.......................|C-4C3..................|B-2....................|.......................|.......................|.......................|
.......................|.......................|.......................|.......................|.......................|.......................|.......................|.......................|.......................|.......................|
.......................|.......................|.......................|.......................|.......................|.......................|.......................|.......................|.......................|.......................|
.......................|.......................|.......................|.......................|.......................|.......................|.......................|===....................|.......................|.......................|
.......................|.......................|.......................|.......................|.......................|.......................|.......................|B-2....................|.......................|.......................|
.......................|.......................|.......................|.......................|.......................|.......................|.......................|.......................|.......................|.......................|
===....................|===....................|===....................|===....................|.......................|.......................|===....................|.......................|.......................|.......................|
F#5....0400............|A-2....................|D-5....0400............|F#5....................|.......................|C-4C3..................|A-3....................|.......................|.......................|.......................|
C-0....0340............|.......................|E-5....0340............|.......................|.......................|.......................|.......................|.......................|.......................|.......................|
.......................|.......................|.......................|.......................|.......................|.......................|.......................|.......................|.......................|.......................|
.......................|.......................|.......................|.......................|.......................|.......................|.......................|===....................|.......................|.......................|
.......................|.......................|.......................|.......................|.......................|.......................|.......................|B-2....................|.......................|.......................|
.......................|.......................|.......................|.......................|.......................|.......................|.......................|.......................|.......................|.......................|
===....................|===....................|===....................|===....................|.......................|.......................|===....................|.......................|.......................|.......................|
C-0....................|A-2....................|E-5....................|F#4....................|.......................|C-4C4..80FF............|A-2....................|.......................|.......................|.......................|
.......................|.......................|.......................|.......................|.......................|.......................|.......................|.......................|.......................|.......................|
.......................|.......................|.......................|.......................|.......................|.......................|.......................|.......................|.......................|.......................|
.......................|.......................|.......................|.......................|===....................|.......................|.......................|===....................|.......................|.......................|
.......................|.......................|.......................|.......................|F#5....0400............|.......................|.......................|A-3....................|.......................|.......................|
.......................|.......................|.......................|.......................|C-0....0340............|.......................|.......................|.......................|.......................|.......................|
===....................|===....................|===....................|===....................|.......................|.......................|===....................|.......................|.......................|.......................|
C-0....................|A-2....................|E-5....................|F#4....................|.......................|C-4C4..................|A-2....................|.......................|.......................|.......................|
.......................|.......................|.......................|.......................|.......................|.......................|.......................|.......................|.......................|.......................|
.......................|.......................|.......................|.......................|.......................|.......................|.......................|.......................|.......................|.......................|
.......................|.......................|.......................|.......................|===....................|.......................|.......................|===....................|.......................|.......................|
.......................|.......................|.......................|.......................|C-0....................|.......................|.......................|A-2....................|.......................|.......................|
.......................|.......................|.......................|.......................|.......................|.......................|.......................|.......................|.......................|.......................|
===....................|===....................|===....................|===....................|.......................|.......................|===....................|.......................|.......................|.......................|
C-0....................|G-2....................|E-5....................|===....................|.......................|C-4C0..8080............|===....................|.......................|.......................|.......................|
G-5....0340............|.......................|D-5....0340............|.......................|.......................|.......................|.......................|.......................|.......................|.......................|
.......................|.......................|.......................|.......................|.......................|.......................|.......................|.......................|.......................|.......................|
.......................|.......................|.......................|.......................|===....................|.......................|.......................|===....................|.......................|.......................|
.......................|.......................|.......................|.......................|C-0....................|.......................|.......................|A-2....................|.......................|.......................|
.......................|.......................|.......................|.......................|.......................|.......................|.......................|.......................|.......................|.......................|
.......................|.......................|.......................|.......................|.......................|.......................|.......................|.......................|.......................|.......................|
.......................|.......................|.......................|.......................|.......................|.......................|.......................|.......................|.......................|.......................|
.......................|.......................|.......................|.......................|.......................|.......................|.......................|.......................|.......................|.......................|
.......................|.......................|.......................|.......................|.......................|.......................|.......................|.......................|.......................|.......................|
.......................|.......................|.......................|.......................|===....................|.......................|.......................|===....................|.......................|.......................|
.......................|.......................|.......................|.......................|C-0....................|.......................|.......................|===....................|.......................|.......................|
.......................|.......................|.......................|.......................|G-5....0340............|.......................|.......................|.......................|.......................|.......................|
.......................|===....................|.......................|.......................|.......................|.......................|.......................|.......................|.......................|.......................|
.......................|G-2....................|.......................|.......................|.......................|.......................|.......................|.......................|.......................|.......................|
.......................|.......................|.......................|.......................|.......................|.......................|.......................|.......................|.......................|.......................|
.......................|.......................|.......................|.......................|.......................|.......................|.......................|.......................|.......................|.......................|
.......................|.......................|.......................|.......................|.......................|.......................|.......................|.......................|.......................|.......................|
.......................|.......................|.......................|.......................|.......................|.......................|.......................|.......................|.......................|.......................|
.......................|.......................|.......................|.......................|.......................|.......................|.......................|.......................|.......................|.......................|
.......E3000452........|===....................|.......E3000452........|.......................|.......................|.......................|.......................|.......................|.......................|.......................|
.......................|G-2....................|.......................|F#4....................|.......................|C-4C1..................|A-2....................|.......................|.......................|.......................|
.......................|.......................|.......................|.......................|.......................|.......................|.......................|.......................|.......................|.......................|
.......................|.......................|.......................|.......................|.......................|.......................|.......................|.......................|.......................|.......................|
.......................|.......................|.......................|.......................|.......................|.......................|.......................|.......................|.......................|.......................|
.......................|.......................|.......................|.......................|.......................|.......................|.......................|.......................|.......................|.......................|
.......................|.......................|.......................|.......................|.......................|.......................|.......................|.......................|.......................|.......................|
.......................|===....................|.......................|===....................|.......................|.......................|===....................|.......................|.......................|.......................|
org.tildearrow.furnace - Pattern Data (219)
0
.......................|G-2....................|.......................|F#4....................|.......................|.......................|A-2....................|.......................|.......................|.......................|
.......................|.......................|.......................|.......................|.......................|.......................|.......................|.......................|.......................|.......................|
.......................|.......................|.......................|.......................|.......................|.......................|.......................|.......................|.......................|.......................|
.......................|.......................|.......................|.......................|.......E3000452........|.......................|.......................|.......................|.......................|.......................|
.......................|.......................|.......................|.......................|.......................|.......................|.......................|A-2....................|.......................|.......................|
.......................|.......................|.......................|.......................|.......................|.......................|.......................|.......................|.......................|.......................|
.......................|===....................|.......................|===....................|.......................|.......................|===....................|.......................|.......................|.......................|
.......................|G-2....................|.......................|F#4....................|.......................|.......................|A-2....................|.......................|.......................|.......................|
.......................|.......................|.......................|.......................|.......................|.......................|.......................|.......................|.......................|.......................|
.......................|.......................|.......................|.......................|.......................|.......................|.......................|.......................|.......................|.......................|
.......................|.......................|.......................|.......................|.......................|.......................|.......................|===....................|.......................|.......................|
.......................|.......................|.......................|.......................|.......................|.......................|.......................|A-2....................|.......................|.......................|
.......................|.......................|.......................|.......................|.......................|.......................|.......................|.......................|.......................|.......................|
.......................|===....................|.......................|===....................|.......................|.......................|===....................|.......................|.......................|.......................|
.......................|G-2....................|.......................|A-4....................|.......................|C-4C0..................|D-3....................|.......................|.......................|.......................|
.......................|.......................|.......................|.......................|.......................|.......................|.......................|.......................|.......................|.......................|
.......................|.......................|.......................|.......................|.......................|.......................|.......................|.......................|.......................|.......................|
.......................|.......................|.......................|.......................|.......................|.......................|.......................|===....................|.......................|.......................|
.......................|.......................|.......................|.......................|.......................|.......................|.......................|A-2....................|.......................|.......................|
.......................|.......................|.......................|.......................|.......................|.......................|.......................|.......................|.......................|.......................|
.......................|.......................|.......................|.......................|.......................|.......................|.......................|.......................|.......................|.......................|
.......................|.......................|.......................|.......................|.......................|.......................|.......................|.......................|.......................|.......................|
.......................|.......................|.......................|.......................|.......................|.......................|.......................|.......................|.......................|.......................|
.......................|.......................|.......................|.......................|.......................|.......................|.......................|.......................|.......................|.......................|
.......................|.......................|.......................|.......................|.......................|.......................|.......................|===....................|.......................|.......................|
.......................|.......................|.......................|.......................|.......................|.......................|.......................|D-3....................|.......................|.......................|
.......................|.......................|.......................|.......................|.......................|.......................|.......................|.......................|.......................|.......................|
.......................|===....................|.......................|.......................|.......................|.......................|.......................|.......................|.......................|.......................|
.......................|G-2....................|.......................|.......................|.......................|C-4C0..................|.......................|.......................|.......................|.......................|
.......................|.......................|.......................|.......................|.......................|.......................|.......................|.......................|.......................|.......................|
.......................|.......................|.......................|.......................|.......................|.......................|.......................|.......................|.......................|.......................|
.......................|.......................|.......................|.......................|.......................|.......................|.......................|.......................|.......................|.......................|
.......................|.......................|.......................|.......................|.......................|.......................|.......................|.......................|.......................|.......................|
.......................|.......................|.......................|.......................|.......................|.......................|.......................|.......................|.......................|.......................|
.......................|===....................|.......................|.......E3000452........|.......................|.......................|.......0452............|.......................|.......................|.......................|
.......................|G-2....................|.......................|.......................|.......................|C-4C1..................|.......................|.......................|.......................|.......................|
.......................|.......................|.......................|.......................|.......................|.......................|.......................|.......................|.......................|.......................|
.......................|.......................|.......................|.......................|.......................|.......................|.......................|.......................|.......................|.......................|
.......................|.......................|.......................|.......................|.......................|.......................|.......................|.......................|.......................|.......................|
.......................|.......................|.......................|.......................|.......................|.......................|.......................|.......................|.......................|.......................|
.......................|.......................|.......................|.......................|.......................|.......................|.......................|.......................|.......................|.......................|
===....................|===....................|.......................|.......................|.......................|.......................|.......................|.......................|.......................|.......................|
G-5....0400............|G-2....................|.......................|.......................|.......................|.......................|.......................|.......................|.......................|.......................|
.......................|.......................|.......................|.......................|.......................|.......................|.......................|.......................|.......................|.......................|
.......................|.......................|.......................|.......................|.......................|.......................|.......................|.......................|.......................|.......................|
.......................|.......................|.......................|.......................|.......................|.......................|.......................|.......0452............|.......................|.......................|
.......................|.......................|.......................|.......................|.......................|.......................|.......................|.......................|.......................|.......................|
.......................|.......................|.......................|.......................|.......................|.......................|.......................|.......................|.......................|.......................|
===....................|===....................|===....................|.......................|.......................|.......................|.......................|.......................|.......................|.......................|
G-5....................|G-2....................|D-5....0400............|.......................|.......................|.......................|.......................|.......................|.......................|.......................|
C-0....0340............|.......................|E-5....0340............|.......................|.......................|.......................|.......................|.......................|.......................|.......................|
.......................|.......................|.......................|.......................|.......................|.......................|.......................|.......................|.......................|.......................|
.......................|.......................|.......................|.......................|===....................|.......................|.......................|.......................|.......................|.......................|
.......................|.......................|.......................|.......................|G-5....0400............|.......................|.......................|.......................|.......................|.......................|
.......................|.......................|.......................|.......................|.......................|.......................|.......................|.......................|.......................|.......................|
===....................|===....................|===....................|===....................|.......................|.......................|===....................|.......................|.......................|.......................|
C-0....................|G-2....................|E-5....................|E-5....0400............|.......................|C-4C0..................|G-3....0400............|.......................|.......................|.......................|
C-0....0340............|.......................|G-5....0340............|.......................|.......................|.......................|.......................|.......................|.......................|.......................|
.......................|.......................|.......................|.......................|.......................|.......................|.......................|.......................|.......................|.......................|
.......................|.......................|.......................|.......................|===....................|.......................|.......................|.......................|.......................|.......................|
.......................|.......................|.......................|.......................|G-5....................|.......................|.......................|.......................|.......................|.......................|
.......................|.......................|.......................|.......................|C-0....0340............|.......................|.......................|.......................|.......................|.......................|
.......................|.......................|.......................|.......................|.......................|.......................|.......................|.......................|.......................|.......................|
.......................|.......................|.......................|.......................|.......................|.......................|.......................|.......................|.......................|.......................|
.......................|.......................|.......................|.......................|.......................|.......................|.......................|.......................|.......................|.......................|
.......................|.......................|.......................|.......................|.......................|.......................|.......................|.......................|.......................|.......................|
.......................|.......................|.......................|.......................|===....................|.......................|.......................|===....................|.......................|.......................|
.......................|.......................|.......................|.......................|C-0....................|.......................|.......................|G-3....0400............|.......................|.......................|
.......................|.......................|.......................|.......................|C-0....0340............|.......................|.......................|.......................|.......................|.......................|
.......................|===....................|.......................|.......................|.......................|.......................|.......................|.......................|.......................|.......................|
.......................|G-2....................|.......................|.......................|.......................|.......................|.......................|.......................|.......................|.......................|
.......................|.......................|.......................|.......................|.......................|.......................|.......................|.......................|.......................|.......................|
.......................|.......................|.......................|.......................|.......................|.......................|.......................|.......................|.......................|.......................|
.......................|.......................|.......................|.......................|.......................|.......................|.......................|.......................|.......................|.......................|
.......................|.......................|.......................|.......................|.......................|.......................|.......................|.......................|.......................|.......................|
.......................|.......................|.......................|.......................|.......................|.......................|.......................|.......................|.......................|.......................|
===....E3000452........|===....................|===....E3000452........|.......E3000452........|.......................|.......................|.......0452............|.......................|.......................|.......................|
C-0....0400............|G-2....................|G-5....0400............|.......................|.......................|C-4C1..................|.......................|.......................|.......................|.......................|
.......................|.......................|.......................|.......................|.......................|.......................|.......................|.......................|.......................|.......................|
.......................|.......................|.......................|.......................|.......................|.......................|.......................|.......................|.......................|.......................|
.......................|.......................|.......................|.......................|.......................|.......................|.......................|.......................|.......................|.......................|
.......................|.......................|.......................|.......................|.......................|.......................|.......................|.......................|.......................|.......................|
.......................|.......................|.......................|.......................|.......................|.......................|.......................|.......................|.......................|.......................|
===....................|.......................|===....................|.......................|.......................|.......................|.......................|.......................|.......................|.......................|
C-0....................|.......................|G-5....................|.......................|.......................|.......................|.......................|.......................|.......................|.......................|
.......................|.......................|.......................|.......................|.......................|.......................|.......................|.......................|.......................|.......................|
.......................|.......................|.......................|.......................|.......................|.......................|.......................|.......................|.......................|.......................|
.......................|.......................|.......................|.......................|===....E3000452........|.......................|.......................|.......0452............|.......................|.......................|
.......................|.......................|.......................|.......................|C-0....0400............|.......................|.......................|.......................|.......................|.......................|
.......................|.......................|.......................|.......................|.......................|.......................|.......................|.......................|.......................|.......................|
===....................|===....................|===....................|.......................|.......................|.......................|.......................|.......................|.......................|.......................|
C-0....................|G-2....................|G-5....................|.......................|.......................|C-4C0..................|.......................|.......................|.......................|.......................|
C-0....0340............|.......................|.......................|.......................|.......................|.......................|.......................|.......................|.......................|.......................|
.......................|.......................|.......................|.......................|.......................|.......................|.......................|.......................|.......................|.......................|
.......................|.......................|.......................|.......................|===....................|.......................|.......................|.......................|.......................|.......................|
.......................|.......................|.......................|.......................|C-0....................|.......................|.......................|.......................|.......................|.......................|
.......................|.......................|.......................|.......................|.......................|.......................|.......................|.......................|.......................|.......................|
===....................|===....................|===....................|===....................|.......................|.......................|===....................|.......................|.......................|.......................|
C-0....................|G-2....................|G-5....................|G-5....0400............|.......................|.......................|B-3....0400............|.......................|.......................|.......................|
C-0....0340............|.......................|.......................|.......................|.......................|.......................|.......................|.......................|.......................|.......................|
.......................|.......................|.......................|.......................|.......................|.......................|.......................|.......................|.......................|.......................|
.......................|.......................|.......................|.......................|===....................|.......................|.......................|.......................|.......................|.......................|
.......................|.......................|.......................|.......................|C-0....................|.......................|.......................|.......................|.......................|.......................|
.......................|.......................|.......................|.......................|C-0....0340............|.......................|.......................|.......................|.......................|.......................|
.......................|===....................|.......................|.......................|.......................|.......................|.......................|.......................|.......................|.......................|
.......................|G-2....................|.......................|.......................|.......................|.......................|.......................|.......................|.......................|.......................|
.......................|.......................|.......................|.......................|.......................|.......................|.......................|.......................|.......................|.......................|
.......................|.......................|.......................|.......................|.......................|.......................|.......................|.......................|.......................|.......................|
.......................|.......................|.......................|.......................|===....................|.......................|.......................|===....................|.......................|.......................|
.......................|.......................|.......................|.......................|C-0....................|.......................|.......................|B-3....0400............|.......................|.......................|
.......................|.......................|.......................|.......................|C-0....0340............|.......................|.......................|.......................|.......................|.......................|
.......................|===....................|.......................|.......................|.......................|.......................|.......................|.......................|.......................|.......................|
.......................|G-2....................|.......................|.......................|.......................|C-4C0..................|.......................|.......................|.......................|.......................|
.......................|.......................|.......................|.......................|.......................|.......................|.......................|.......................|.......................|.......................|
.......................|.......................|.......................|.......................|.......................|.......................|.......................|.......................|.......................|.......................|
.......................|.......................|.......................|.......................|.......................|.......................|.......................|.......................|.......................|.......................|
.......................|.......................|.......................|.......................|.......................|.......................|.......................|.......................|.......................|.......................|
.......................|.......................|.......................|.......................|.......................|.......................|.......................|.......................|.......................|.......................|
===....E3000452........|===....................|===....E3000452........|.......E3000452........|.......................|.......................|.......0452............|.......................|.......................|.......................|
C-0....0400............|G-2....................|G-5....0400............|.......................|.......................|C-4C1..................|.......................|.......................|.......................|.......................|
C-0....0340............|.......................|C-0....0340............|.......................|.......................|.......................|.......................|.......................|.......................|.......................|
.......................|.......................|.......................|.......................|.......................|.......................|.......................|.......................|.......................|.......................|
.......................|.......................|.......................|.......................|.......................|.......................|.......................|.......................|.......................|.......................|
.......................|.......................|.......................|.......................|.......................|.......................|.......................|.......................|.......................|.......................|
.......................|.......................|.......................|.......................|.......................|.......................|.......................|.......................|.......................|.......................|
.......................|===....................|.......................|.......................|.......................|.......................|.......................|.......................|.......................|.......................|
.......................|G-2....................|.......................|.......................|.......................|.......................|.......................|.......................|.......................|.......................|
.......................|.......................|.......................|.......................|.......................|.......................|.......................|.......................|.......................|.......................|
.......................|.......................|.......................|.......................|.......................|.......................|.......................|.......................|.......................|.......................|
.......................|.......................|.......................|.......................|===....E3000452........|.......................|.......................|.......0452............|.......................|.......................|
.......................|.......................|.......................|.......................|C-0....0400............|.......................|.......................|.......................|.......................|.......................|
.......................|.......................|.......................|.......................|C-0....0340............|.......................|.......................|.......................|.......................|.......................|
.......................|===....................|.......................|.......................|.......................|.......................|.......................|.......................|.......................|.......................|
.......................|G-2....................|.......................|.......................|.......................|.......................|.......................|.......................|.......................|.......................|
.......................|.......................|.......................|.......................|.......................|.......................|.......................|.......................|.......................|.......................|
.......................|.......................|.......................|.......................|.......................|.......................|.......................|.......................|.......................|.......................|
.......................|.......................|.......................|.......................|.......................|.......................|.......................|.......................|.......................|.......................|
.......................|.......................|.......................|.......................|.......................|.......................|.......................|.......................|.......................|.......................|
.......................|.......................|.......................|.......................|.......................|.......................|.......................|.......................|.......................|.......................|
===....E3000452........|===....................|===....E3000452........|===....................|.......................|.......................|===....................|.......................|.......................|.......................|
C-0....0400............|D-3....................|C-0....0400............|C-0....0400............|.......................|C-4C0..................|D-4....0400............|.......................|.......................|.......................|
C-0....0340............|.......................|C-0....0340............|.......................|.......................|.......................|.......................|.......................|.......................|.......................|
.......................|.......................|.......................|.......................|.......................|.......................|.......................|.......................|.......................|.......................|
.......................|.......................|.......................|.......................|.......................|.......................|.......................|.......................|.......................|.......................|
.......................|.......................|.......................|.......................|.......................|.......................|.......................|.......................|.......................|.......................|
.......................|.......................|.......................|.......................|.......................|.......................|.......................|.......................|.......................|.......................|
.......................|.......................|.......................|.......................|.......................|.......................|.......................|.......................|.......................|.......................|
.......................|.......................|.......................|.......................|.......................|.......................|.......................|.......................|.......................|.......................|
.......................|.......................|.......................|.......................|.......................|.......................|.......................|.......................|.......................|.......................|
.......................|.......................|.......................|.......................|.......................|.......................|.......................|.......................|.......................|.......................|
.......................|.......................|.......................|.......................|===....E3000452........|.......................|.......................|===....................|.......................|.......................|
.......................|.......................|.......................|.......................|C-0....0400............|.......................|.......................|D-4....0400............|.......................|.......................|
.......................|.......................|.......................|.......................|C-0....0340............|.......................|.......................|.......................|.......................|.......................|
.......................|===....................|.......................|.......................|.......................|.......................|.......................|.......................|.......................|.......................|
.......................|D-3....................|.......................|.......................|.......................|.......................|.......................|.......................|.......................|.......................|
.......................|.......................|.......................|.......................|.......................|.......................|.......................|.......................|.......................|.......................|
.......................|.......................|.......................|.......................|.......................|.......................|.......................|.......................|.......................|.......................|
.......................|.......................|.......................|.......................|.......................|.......................|.......................|.......................|.......................|.......................|
.......................|.......................|.......................|.......................|.......................|.......................|.......................|.......................|.......................|.......................|
.......................|.......................|.......................|.......................|.......................|.......................|.......................|.......................|.......................|.......................|
.......E3000452........|===....................|.......E3000452........|.......E3000452........|.......................|.......................|.......0452............|.......................|.......................|.......................|
.......................|D-3....................|.......................|.......................|.......................|C-4C0..................|.......................|.......................|.......................|.......................|
.......................|.......................|.......................|.......................|.......................|.......................|.......................|.......................|.......................|.......................|
.......................|.......................|.......................|.......................|.......................|.......................|.......................|.......................|.......................|.......................|
.......................|.......................|.......................|.......................|.......................|.......................|.......................|.......................|.......................|.......................|
.......................|.......................|.......................|.......................|.......................|.......................|.......................|.......................|.......................|.......................|
.......................|.......................|.......................|.......................|.......................|.......................|.......................|.......................|.......................|.......................|
.......................|.......................|.......................|.......................|.......................|.......................|.......................|.......................|.......................|.......................|
.......................|.......................|.......................|.......................|.......................|.......................|.......................|.......................|.......................|.......................|
.......................|.......................|.......................|.......................|.......................|.......................|.......................|.......................|.......................|.......................|
.......................|.......................|.......................|.......................|.......................|.......................|.......................|.......................|.......................|.......................|
.......................|.......................|.......................|.......................|.......E3000452........|.......................|.......................|.......0452............|.......................|.......................|
.......................|.......................|.......................|.......................|.......................|.......................|.......................|.......................|.......................|.......................|
.......................|.......................|.......................|.......................|.......................|.......................|.......................|.......................|.......................|.......................|
.......................|===....................|.......................|.......................|.......................|.......................|.......................|.......................|.......................|.......................|
.......................|D-3....................|.......................|.......................|.......................|C-4C0..................|.......................|.......................|.......................|.......................|
.......................|.......................|.......................|.......................|.......................|.......................|.......................|.......................|.......................|.......................|
.......................|.......................|.......................|.......................|.......................|.......................|.......................|.......................|.......................|.......................|
.......................|.......................|.......................|.......................|.......................|.......................|.......................|.......................|.......................|.......................|
.......................|.......................|.......................|.......................|.......................|.......................|.......................|.......................|.......................|.......................|
.......................|.......................|.......................|.......................|.......................|.......................|.......................|.......................|.......................|.......................|
.......................|===....................|.......................|.......................|.......................|.......................|.......................|.......................|.......................|.......................|
.......................|D-3....................|.......................|.......................|.......................|C-4C1..................|.......................|.......................|.......................|.......................|
.......................|.......................|.......................|.......................|.......................|.......................|.......................|.......................|.......................|.......................|
.......................|.......................|.......................|.......................|.......................|.......................|.......................|.......................|.......................|.......................|
.......................|.......................|.......................|.......................|.......................|.......................|.......................|.......................|.......................|.......................|
.......................|.......................|.......................|.......................|.......................|.......................|.......................|.......................|.......................|.......................|
.......................|.......................|.......................|.......................|.......................|.......................|.......................|.......................|.......................|.......................|
.......................|.......................|.......................|.......................|.......................|.......................|.......................|.......................|.......................|.......................|
.......................|.......................|.......................|.......................|.......................|.......................|.......................|.......................|.......................|.......................|
.......................|.......................|.......................|.......................|.......................|.......................|.......................|.......................|.......................|.......................|
.......................|.......................|.......................|.......................|.......................|.......................|.......................|.......................|.......................|.......................|
.......................|.......................|.......................|.......................|.......................|.......................|.......................|.......................|.......................|.......................|
.......................|.......................|.......................|.......................|.......................|.......................|.......................|.......................|.......................|.......................|
.......................|.......................|.......................|.......................|.......................|.......................|.......................|.......................|.......................|.......................|
.......................|===....................|.......................|.......................|.......................|.......................|.......................|.......................|.......................|.......................|
.......................|D-3....................|.......................|.......................|.......................|.......................|.......................|.......................|.......................|.......................|
.......................|.......................|.......................|.......................|.......................|.......................|.......................|.......................|.......................|.......................|
.......................|.......................|.......................|.......................|.......................|.......................|.......................|.......................|.......................|.......................|
.......................|.......................|.......................|.......................|.......................|.......................|.......................|.......................|.......................|.......................|
.......................|.......................|.......................|.......................|.......................|.......................|.......................|.......................|.......................|.......................|
.......................|.......................|.......................|.......................|.......................|.......................|.......................|.......................|.......................|.......................|
===....................|===....................|===....................|.......................|.......................|.......................|.......................|.......................|.......................|.......................|
E-439..0400............|D-3....................|B-3396B0400............|.......................|.......................|C-4C0..................|.......................|.......................|.......................|.......................|
.......................|.......................|.......................|.......................|.......................|.......................|.......................|.......................|.......................|.......................|
.......................|.......................|.......................|.......................|.......................|.......................|.......................|.......................|.......................|.......................|
.......................|.......................|.......................|.......................|.......................|.......................|.......................|.......................|.......................|.......................|
.......................|.......................|.......................|.......................|.......................|.......................|.......................|.......................|.......................|.......................|
.......................|.......................|.......................|.......................|.......................|.......................|.......................|.......................|.......................|.......................|
===....................|===....................|===....................|.......................|.......................|.......................|.......................|.......................|.......................|.......................|
D-4....................|D-3....................|A-3....................|.......................|.......................|.......................|.......................|.......................|.......................|.......................|
.......................|.......................|.......................|.......................|.......................|.......................|.......................|.......................|.......................|.......................|
.......................|.......................|.......................|.......................|.......................|.......................|.......................|.......................|.......................|.......................|
.......................|.......................|.......................|.......................|===....................|.......................|.......................|.......................|.......................|.......................|
.......................|.......................|.......................|.......................|C-039630400............|.......................|.......................|.......................|.......................|.......................|
.......................|.......................|.......................|.......................|E-4....0340............|.......................|.......................|.......................|.......................|.......................|
===....................|===....................|===....................|.......................|.......................|.......................|.......................|.......................|.......................|.......................|
E-4....................|D-3....................|B-3....................|.......................|.......................|C-4C0..................|.......................|.......................|.......................|.......................|
.......................|.......................|.......................|.......................|.......................|.......................|.......................|.......................|.......................|.......................|
.......................|.......................|.......................|.......................|.......................|.......................|.......................|.......................|.......................|.......................|
.......................|.......................|.......................|.......................|===....................|.......................|.......................|.......................|.......................|.......................|
.......................|.......................|.......................|.......................|E-4....................|.......................|.......................|.......................|.......................|.......................|
.......................|.......................|.......................|.......................|D-4....0340............|.......................|.......................|.......................|.......................|.......................|
===....................|===....................|===....................|.......................|.......................|.......................|.......................|.......................|.......................|.......................|
F-4....................|F-2....................|C-4....................|.......................|.......................|C-4C0..................|.......................|.......................|.......................|.......................|
.......................|.......................|.......................|.......................|.......................|.......................|.......................|.......................|.......................|.......................|
.......................|.......................|.......................|.......................|.......................|.......................|.......................|.......................|.......................|.......................|
.......................|.......................|.......................|.......................|===....................|.......................|.......................|.......................|.......................|.......................|
.......................|.......................|.......................|.......................|D-4....................|.......................|.......................|.......................|.......................|.......................|
.......................|.......................|.......................|.......................|E-4....0340............|.......................|.......................|.......................|.......................|.......................|
.......................|.......................|.......................|.......................|.......................|.......................|.......................|.......................|.......................|.......................|
.......................|.......................|.......................|.......................|.......................|.......................|.......................|.......................|.......................|.......................|
.......................|.......................|.......................|.......................|.......................|.......................|.......................|.......................|.......................|.......................|
.......................|.......................|.......................|.......................|.......................|.......................|.......................|.......................|.......................|.......................|
.......................|.......................|.......................|.......................|===....................|.......................|.......................|.......................|.......................|.......................|
.......................|.......................|.......................|.......................|E-4....................|.......................|.......................|.......................|.......................|.......................|
.......................|.......................|.......................|.......................|F-4....0340............|.......................|.......................|.......................|.......................|.......................|
.......................|===....................|.......................|.......................|.......................|.......................|.......................|.......................|.......................|.......................|
.......................|F-2....................|.......................|.......................|.......................|.......................|.......................|.......................|.......................|.......................|
.......................|.......................|.......................|.......................|.......................|.......................|.......................|.......................|.......................|.......................|
.......................|.......................|.......................|.......................|.......................|.......................|.......................|.......................|.......................|.......................|
.......................|.......................|.......................|.......................|.......................|.......................|.......................|.......................|.......................|.......................|
.......................|.......................|.......................|.......................|.......................|.......................|.......................|.......................|.......................|.......................|
.......................|.......................|.......................|.......................|.......................|.......................|.......................|.......................|.......................|.......................|
.......E3000452........|===....................|.......E3000452........|.......................|.......................|.......................|.......................|.......................|.......................|.......................|
.......................|F-2....................|.......................|.......................|.......................|C-4C0..................|.......................|.......................|.......................|.......................|
.......................|.......................|.......................|.......................|.......................|.......................|.......................|.......................|.......................|.......................|
.......................|.......................|.......................|.......................|.......................|.......................|.......................|.......................|.......................|.......................|
.......................|.......................|.......................|.......................|.......................|.......................|.......................|.......................|.......................|.......................|
.......................|.......................|.......................|.......................|.......................|.......................|.......................|.......................|.......................|.......................|
.......................|.......................|.......................|.......................|.......................|.......................|.......................|.......................|.......................|.......................|
.......................|.......................|.......................|.......................|.......................|.......................|.......................|.......................|.......................|.......................|
.......................|.......................|.......................|.......................|.......................|.......................|.......................|.......................|.......................|.......................|
.......................|.......................|.......................|.......................|.......................|.......................|.......................|.......................|.......................|.......................|
.......................|.......................|.......................|.......................|.......................|.......................|.......................|.......................|.......................|.......................|
.......................|.......................|.......................|.......................|.......E3000452........|.......................|.......................|.......................|.......................|.......................|
org.tildearrow.furnace - Pattern Data (219)
0
.......................|.......................|.......................|.......................|.......................|.......................|.......................|.......................|.......................|.......................|
.......................|.......................|.......................|.......................|.......................|.......................|.......................|.......................|.......................|.......................|
.......................|===....................|.......................|.......................|.......................|.......................|.......................|.......................|.......................|.......................|
.......................|F-2....................|.......................|.......................|.......................|C-4C0..................|.......................|.......................|.......................|.......................|
.......................|.......................|.......................|.......................|.......................|.......................|.......................|.......................|.......................|.......................|
.......................|.......................|.......................|.......................|.......................|.......................|.......................|.......................|.......................|.......................|
.......................|.......................|.......................|.......................|.......................|.......................|.......................|.......................|.......................|.......................|
.......................|.......................|.......................|.......................|.......................|.......................|.......................|.......................|.......................|.......................|
.......................|.......................|.......................|.......................|.......................|.......................|.......................|.......................|.......................|.......................|
===....................|===....................|===....................|.......................|.......................|.......................|.......................|.......................|.......................|.......................|
===....................|F-2....................|===....................|.......................|.......................|C-4C1..................|.......................|.......................|.......................|.......................|
.......................|.......................|.......................|.......................|.......................|.......................|.......................|.......................|.......................|.......................|
.......................|.......................|.......................|.......................|.......................|.......................|.......................|.......................|.......................|.......................|
.......................|.......................|.......................|.......................|.......................|.......................|.......................|.......................|.......................|.......................|
.......................|.......................|.......................|.......................|.......................|.......................|.......................|.......................|.......................|.......................|
.......................|.......................|.......................|.......................|.......................|.......................|.......................|.......................|.......................|.......................|
.......................|.......................|.......................|.......................|.......................|.......................|.......................|.......................|.......................|.......................|
.......................|.......................|.......................|.......................|.......................|.......................|.......................|.......................|.......................|.......................|
.......................|.......................|.......................|.......................|.......................|.......................|.......................|.......................|.......................|.......................|
.......................|.......................|.......................|.......................|.......................|.......................|.......................|.......................|.......................|.......................|
.......................|.......................|.......................|.......................|===....................|.......................|.......................|.......................|.......................|.......................|
.......................|.......................|.......................|.......................|===....................|.......................|.......................|.......................|.......................|.......................|
.......................|.......................|.......................|.......................|.......................|.......................|.......................|.......................|.......................|.......................|
.......................|===....................|.......................|.......................|.......................|.......................|.......................|.......................|.......................|.......................|
.......................|F-2....................|.......................|.......................|.......................|C-4C1..................|.......................|.......................|.......................|.......................|
.......................|.......................|.......................|.......................|.......................|.......................|.......................|.......................|.......................|.......................|
.......................|.......................|.......................|.......................|.......................|.......................|.......................|.......................|.......................|.......................|
.......................|.......................|.......................|.......................|.......................|.......................|.......................|.......................|.......................|.......................|
.......................|.......................|.......................|.......................|.......................|.......................|.......................|.......................|.......................|.......................|
.......................|.......................|.......................|.......................|.......................|.......................|.......................|.......................|.......................|.......................|
.......................|===....................|.......................|.......................|.......................|.......................|.......................|.......................|.......................|.......................|
F-4....0400............|F-2....................|C-4....0400............|.......................|.......................|C-4C3..................|.......................|.......................|.......................|.......................|
.......................|.......................|.......................|.......................|.......................|.......................|.......................|.......................|.......................|.......................|
.......................|.......................|.......................|.......................|.......................|.......................|.......................|.......................|.......................|.......................|
.......................|.......................|.......................|.......................|.......................|.......................|.......................|.......................|.......................|.......................|
.......................|.......................|.......................|.......................|.......................|.......................|.......................|.......................|.......................|.......................|
.......................|.......................|.......................|.......................|.......................|.......................|.......................|.......................|.......................|.......................|
===....................|===....................|===....................|.......................|.......................|.......................|.......................|.......................|.......................|.......................|
E-4....................|F-2....................|B-3....................|.......................|.......................|C-4C3..................|.......................|.......................|.......................|.......................|
.......................|.......................|.......................|.......................|.......................|.......................|.......................|.......................|.......................|.......................|
.......................|.......................|.......................|.......................|.......................|.......................|.......................|.......................|.......................|.......................|
.......................|.......................|.......................|.......................|.......................|.......................|.......................|.......................|.......................|.......................|
.......................|.......................|.......................|.......................|F-4....0400............|.......................|.......................|.......................|.......................|.......................|
.......................|.......................|.......................|.......................|.......................|.......................|.......................|.......................|.......................|.......................|
===....................|===....................|===....................|.......................|.......................|.......................|.......................|.......................|.......................|.......................|
F-4....................|F-2....................|C-4....................|.......................|.......................|C-4C3..................|.......................|.......................|.......................|.......................|
.......................|.......................|.......................|.......................|.......................|.......................|.......................|.......................|.......................|.......................|
.......................|.......................|.......................|.......................|.......................|.......................|.......................|.......................|.......................|.......................|
.......................|.......................|.......................|.......................|===....................|.......................|.......................|.......................|.......................|.......................|
.......................|.......................|.......................|.......................|F-4....................|.......................|.......................|.......................|.......................|.......................|
.......................|.......................|.......................|.......................|E-4....0340............|.......................|.......................|.......................|.......................|.......................|
===....................|===....................|===....................|===....................|.......................|.......................|===....................|.......................|.......................|.......................|
G-4....................|C-3....................|E-4....................|C-0....0400............|.......................|C-4C0..................|D-4....0400............|.......................|.......................|.......................|
.......................|.......................|.......................|.......................|.......................|.......................|.......................|.......................|.......................|.......................|
.......................|.......................|.......................|.......................|.......................|.......................|.......................|.......................|.......................|.......................|
.......................|.......................|.......................|.......................|===....................|.......................|.......................|.......................|.......................|.......................|
.......................|.......................|.......................|.......................|E-4....................|.......................|.......................|.......................|.......................|.......................|
.......................|.......................|.......................|.......................|F-4....0340............|.......................|.......................|.......................|.......................|.......................|
.......................|.......................|.......................|.......................|.......................|.......................|.......................|.......................|.......................|.......................|
.......................|.......................|.......................|.......................|.......................|.......................|.......................|.......................|.......................|.......................|
.......................|.......................|.......................|.......................|.......................|.......................|.......................|.......................|.......................|.......................|
.......................|.......................|.......................|.......................|.......................|.......................|.......................|.......................|.......................|.......................|
.......................|.......................|.......................|.......................|===....................|.......................|.......................|===....................|.......................|.......................|
.......................|.......................|.......................|.......................|F-4....................|.......................|.......................|D-4....0400............|.......................|.......................|
.......................|.......................|.......................|.......................|G-4....0340............|.......................|.......................|.......................|.......................|.......................|
.......................|===....................|.......................|.......................|.......................|.......................|.......................|.......................|.......................|.......................|
.......................|C-3....................|.......................|.......................|.......................|.......................|.......................|.......................|.......................|.......................|
.......................|.......................|.......................|.......................|.......................|.......................|.......................|.......................|.......................|.......................|
.......................|.......................|.......................|.......................|.......................|.......................|.......................|.......................|.......................|.......................|
.......................|.......................|.......................|.......................|.......................|.......................|.......................|.......................|.......................|.......................|
.......................|.......................|.......................|.......................|.......................|.......................|.......................|.......................|.......................|.......................|
.......................|.......................|.......................|.......................|.......................|.......................|.......................|.......................|.......................|.......................|
.......E3000452........|===....................|.......E3000452........|.......E3000452........|.......................|.......................|.......0452............|.......................|.......................|.......................|
.......................|C-3....................|.......................|.......................|.......................|C-4C0..................|.......................|.......................|.......................|.......................|
.......................|.......................|.......................|.......................|.......................|.......................|.......................|.......................|.......................|.......................|
.......................|.......................|.......................|.......................|.......................|.......................|.......................|.......................|.......................|.......................|
.......................|.......................|.......................|.......................|.......................|.......................|.......................|.......................|.......................|.......................|
.......................|.......................|.......................|.......................|.......................|.......................|.......................|.......................|.......................|.......................|
.......................|.......................|.......................|.......................|.......................|.......................|.......................|.......................|.......................|.......................|
.......................|.......................|.......................|.......................|.......................|.......................|.......................|.......................|.......................|.......................|
.......................|.......................|.......................|.......................|.......................|.......................|.......................|.......................|.......................|.......................|
.......................|.......................|.......................|.......................|.......................|.......................|.......................|.......................|.......................|.......................|
.......................|.......................|.......................|.......................|.......................|.......................|.......................|.......................|.......................|.......................|
.......................|.......................|.......................|.......................|.......E3000452........|.......................|.......................|.......0452............|.......................|.......................|
.......................|.......................|.......................|.......................|.......................|.......................|.......................|.......................|.......................|.......................|
.......................|.......................|.......................|.......................|.......................|.......................|.......................|.......................|.......................|.......................|
.......................|===....................|.......................|.......................|.......................|.......................|.......................|.......................|.......................|.......................|
.......................|C-3....................|.......................|.......................|.......................|C-4C0..................|.......................|.......................|.......................|.......................|
.......................|.......................|.......................|.......................|.......................|.......................|.......................|.......................|.......................|.......................|
.......................|.......................|.......................|.......................|.......................|.......................|.......................|.......................|.......................|.......................|
.......................|.......................|.......................|.......................|.......................|.......................|.......................|.......................|.......................|.......................|
.......................|.......................|.......................|.......................|.......................|.......................|.......................|.......................|.......................|.......................|
.......................|.......................|.......................|.......................|.......................|.......................|.......................|.......................|.......................|.......................|
===....................|===....................|===....................|.......................|.......................|.......................|.......................|.......................|.......................|.......................|
===....................|C-3....................|===....................|.......................|.......................|C-4C1..................|.......................|.......................|.......................|.......................|
.......................|.......................|.......................|.......................|.......................|.......................|.......................|.......................|.......................|.......................|
.......................|.......................|.......................|.......................|.......................|.......................|.......................|.......................|.......................|.......................|
.......................|.......................|.......................|.......................|.......................|.......................|.......................|.......................|.......................|.......................|
.......................|.......................|.......................|.......................|.......................|.......................|.......................|.......................|.......................|.......................|
.......................|.......................|.......................|.......................|.......................|.......................|.......................|.......................|.......................|.......................|
.......................|.......................|.......................|.......................|.......................|.......................|.......................|.......................|.......................|.......................|
.......................|.......................|.......................|.......................|.......................|.......................|.......................|.......................|.......................|.......................|
.......................|.......................|.......................|.......................|.......................|.......................|.......................|.......................|.......................|.......................|
.......................|.......................|.......................|.......................|.......................|.......................|.......................|.......................|.......................|.......................|
.......................|.......................|.......................|.......................|===....................|.......................|.......................|.......................|.......................|.......................|
.......................|.......................|.......................|.......................|===....................|.......................|.......................|.......................|.......................|.......................|
.......................|.......................|.......................|.......................|.......................|.......................|.......................|.......................|.......................|.......................|
.......................|===....................|.......................|.......................|.......................|.......................|.......................|.......................|.......................|.......................|
.......................|C-3....................|.......................|.......................|.......................|.......................|.......................|.......................|.......................|.......................|
.......................|.......................|.......................|.......................|.......................|.......................|.......................|.......................|.......................|.......................|
.......................|.......................|.......................|.......................|.......................|.......................|.......................|.......................|.......................|.......................|
.......................|.......................|.......................|.......................|.......................|.......................|.......................|.......................|.......................|.......................|
.......................|.......................|.......................|.......................|.......................|.......................|.......................|.......................|.......................|.......................|
.......................|.......................|.......................|.......................|.......................|.......................|.......................|.......................|.......................|.......................|
.......................|===....................|.......................|.......................|.......................|.......................|.......................|.......................|.......................|.......................|
G-4....0400............|C-3....................|E-4....0400............|.......................|.......................|C-4C0..................|.......................|.......................|.......................|.......................|
.......................|.......................|.......................|.......................|.......................|.......................|.......................|.......................|.......................|.......................|
.......................|.......................|.......................|.......................|.......................|.......................|.......................|.......................|.......................|.......................|
.......................|.......................|.......................|.......................|.......................|.......................|.......................|.......................|.......................|.......................|
.......................|.......................|.......................|.......................|.......................|.......................|.......................|.......................|.......................|.......................|
.......................|.......................|.......................|.......................|.......................|.......................|.......................|.......................|.......................|.......................|
===....................|===....................|===....................|.......................|.......................|.......................|.......................|.......................|.......................|.......................|
F-4....................|C-3....................|C-4....................|.......................|.......................|.......................|.......................|.......................|.......................|.......................|
.......................|.......................|.......................|.......................|.......................|.......................|.......................|.......................|.......................|.......................|
.......................|.......................|.......................|.......................|.......................|.......................|.......................|.......................|.......................|.......................|
.......................|.......................|.......................|.......................|.......................|.......................|.......................|.......................|.......................|.......................|
.......................|.......................|.......................|.......................|G-4....0400............|.......................|.......................|.......................|.......................|.......................|
.......................|.......................|.......................|.......................|.......................|.......................|.......................|.......................|.......................|.......................|
===....................|===....................|===....................|.......................|.......................|.......................|.......................|.......................|.......................|.......................|
G-4....................|C-3....................|E-4....................|.......................|.......................|C-4C0..................|.......................|.......................|.......................|.......................|
.......................|.......................|.......................|.......................|.......................|.......................|.......................|.......................|.......................|.......................|
.......................|.......................|.......................|.......................|.......................|.......................|.......................|.......................|.......................|.......................|
.......................|.......................|.......................|.......................|===....................|.......................|.......................|.......................|.......................|.......................|
.......................|.......................|.......................|.......................|G-4....................|.......................|.......................|.......................|.......................|.......................|
.......................|.......................|.......................|.......................|F-4....0340............|.......................|.......................|.......................|.......................|.......................|
===....................|===....................|===....................|.......................|.......................|.......................|===....................|.......................|.......................|.......................|
A-4....................|G-2....................|E-4....................|.......................|.......................|C-4C0..................|D-5..0A0400............|.......................|.......................|.......................|
.......................|.......................|.......................|.......................|.......................|.......................|.......................|.......................|.......................|.......................|
.......................|.......................|.......................|.......................|.......................|.......................|.......................|.......................|.......................|.......................|
.......................|.......................|.......................|.......................|===....................|.......................|.......................|.......................|.......................|.......................|
.......................|.......................|.......................|.......................|F-4....................|.......................|.......................|.......................|.......................|.......................|
.......................|.......................|.......................|.......................|G-4....0340............|.......................|.......................|.......................|.......................|.......................|
.......................|.......................|.......................|.......................|.......................|.......................|.......................|.......................|.......................|.......................|
.......................|.......................|.......................|.......................|.......................|.......................|.......................|.......................|.......................|.......................|
.......................|.......................|.......................|.......................|.......................|.......................|.......................|.......................|.......................|.......................|
.......................|.......................|.......................|.......................|.......................|.......................|.......................|.......................|.......................|.......................|
.......................|.......................|.......................|.......................|===....................|.......................|.......................|===....................|.......................|.......................|
.......................|.......................|.......................|.......................|G-4....................|.......................|.......................|D-5....0400............|.......................|.......................|
.......................|.......................|.......................|.......................|A-4....0340............|.......................|.......................|.......................|.......................|.......................|
.......................|===....................|.......................|.......................|.......................|.......................|.......................|.......................|.......................|.......................|
.......................|G-2....................|.......................|.......................|.......................|.......................|.......................|.......................|.......................|.......................|
.......................|.......................|.......................|.......................|.......................|.......................|.......................|.......................|.......................|.......................|
.......................|.......................|.......................|.......................|.......................|.......................|.......................|.......................|.......................|.......................|
.......................|.......................|.......................|.......................|.......................|.......................|.......................|.......................|.......................|.......................|
.......................|.......................|.......................|.......................|.......................|.......................|.......................|.......................|.......................|.......................|
.......................|.......................|.......................|.......................|.......................|.......................|.......................|.......................|.......................|.......................|
===....E3000452........|===....................|===....E3000452........|.......................|.......................|.......................|.......0452............|.......................|.......................|.......................|
G-4....0400............|G-2....................|D-4....0400............|.......................|.......................|C-4C0..................|.......................|.......................|.......................|.......................|
.......................|.......................|.......................|.......................|.......................|.......................|.......................|.......................|.......................|.......................|
.......................|.......................|.......................|.......................|.......................|.......................|.......................|.......................|.......................|.......................|
.......................|.......................|.......................|.......................|.......................|.......................|.......................|.......................|.......................|.......................|
.......................|.......................|.......................|.......................|.......................|.......................|.......................|.......................|.......................|.......................|
.......................|.......................|.......................|.......................|.......................|.......................|.......................|.......................|.......................|.......................|
.......................|.......................|.......................|.......................|.......................|.......................|.......................|.......................|.......................|.......................|
.......................|.......................|.......................|.......................|.......................|.......................|.......................|.......................|.......................|.......................|
.......................|.......................|.......................|.......................|.......................|.......................|.......................|.......................|.......................|.......................|
.......................|.......................|.......................|.......................|.......................|.......................|.......................|.......................|.......................|.......................|
.......................|.......................|.......................|.......................|===....E3000452........|.......................|.......................|.......0452............|.......................|.......................|
.......................|.......................|.......................|.......................|A-4....0400............|.......................|.......................|.......................|.......................|.......................|
.......................|.......................|.......................|.......................|G-4....0340............|.......................|.......................|.......................|.......................|.......................|
.......................|===....................|.......................|.......................|.......................|.......................|.......................|.......................|.......................|.......................|
.......................|G-2....................|.......................|.......................|.......................|C-4C0..................|.......................|.......................|.......................|.......................|
.......................|.......................|.......................|.......................|.......................|.......................|.......................|.......................|.......................|.......................|
.......................|.......................|.......................|.......................|.......................|.......................|.......................|.......................|.......................|.......................|
.......................|.......................|.......................|.......................|.......................|.......................|.......................|.......................|.......................|.......................|
.......................|.......................|.......................|.......................|.......................|.......................|.......................|.......................|.......................|.......................|
.......................|.......................|.......................|.......................|.......................|.......................|.......................|.......................|.......................|.......................|
===....E3000452........|===....................|===....E3000452........|.......................|.......................|.......................|.......................|.......................|.......................|.......................|
F-4....0400............|G-2....................|C-4....0400............|.......................|.......................|C-4C1..................|.......................|.......................|.......................|.......................|
.......................|.......................|.......................|.......................|.......................|.......................|.......................|.......................|.......................|.......................|
.......................|.......................|.......................|.......................|.......................|.......................|.......................|.......................|.......................|.......................|
.......................|.......................|.......................|.......................|.......................|.......................|.......................|.......................|.......................|.......................|
.......................|.......................|.......................|.......................|.......................|.......................|.......................|.......................|.......................|.......................|
.......................|.......................|.......................|.......................|.......................|.......................|.......................|.......................|.......................|.......................|
.......................|.......................|.......................|.......................|.......................|.......................|.......................|.......................|.......................|.......................|
.......................|.......................|.......................|.......................|.......................|C-4C1..................|.......................|.......................|.......................|.......................|
.......................|.......................|.......................|.......................|.......................|.......................|.......................|.......................|.......................|.......................|
.......................|.......................|.......................|.......................|.......................|.......................|.......................|.......................|.......................|.......................|
.......................|.......................|.......................|.......................|===....E3000452........|.......................|.......................|.......................|.......................|.......................|
.......................|.......................|.......................|.......................|G-4....0400............|.......................|.......................|.......................|.......................|.......................|
.......................|.......................|.......................|.......................|F-4....0340............|.......................|.......................|.......................|.......................|.......................|
.......................|===....................|.......................|.......................|.......................|.......................|.......................|.......................|.......................|.......................|
.......................|G-2....................|.......................|.......................|.......................|C-4C1..................|.......................|.......................|.......................|.......................|
.......................|.......................|.......................|.......................|.......................|.......................|.......................|.......................|.......................|.......................|
.......................|.......................|.......................|.......................|.......................|.......................|.......................|.......................|.......................|.......................|
.......................|.......................|.......................|.......................|.......................|.......................|.......................|.......................|.......................|.......................|
.......................|.......................|.......................|.......................|.......................|.......................|.......................|.......................|.......................|.......................|
.......................|.......................|.......................|.......................|.......................|.......................|.......................|.......................|.......................|.......................|
===....E3000452........|===....................|===....E3000452........|.......................|.......................|.......................|.......................|.......................|.......................|.......................|
E-4....0400............|G-2....................|B-3....0400............|.......................|.......................|C-4C1..................|.......................|.......................|.......................|.......................|
.......................|.......................|.......................|.......................|.......................|.......................|.......................|.......................|.......................|.......................|
.......................|.......................|.......................|.......................|.......................|.......................|.......................|.......................|.......................|.......................|
.......................|.......................|.......................|.......................|.......................|.......................|.......................|.......................|.......................|.......................|
.......................|.......................|.......................|.......................|.......................|.......................|.......................|.......................|.......................|.......................|
.......................|.......................|.......................|.......................|.......................|.......................|.......................|.......................|.......................|.......................|
.......................|===....................|.......................|.......................|.......................|.......................|.......................|.......................|.......................|.......................|
.......................|G-2....................|.......................|.......................|.......................|C-4C1..................|.......................|.......................|.......................|.......................|
.......................|.......................|.......................|.......................|.......................|.......................|.......................|.......................|.......................|.......................|
.......................|.......................|.......................|.......................|.......................|.......................|.......................|.......................|.......................|.......................|
.......................|.......................|.......................|.......................|===....E3000452........|.......................|.......................|.......................|.......................|.......................|
.......................|.......................|.......................|.......................|F-4....0400............|.......................|.......................|.......................|.......................|.......................|
.......................|.......................|.......................|.......................|E-4....0340............|.......................|.......................|.......................|.......................|.......................|
.......................|===....................|.......................|.......................|.......................|.......................|.......................|.......................|.......................|.......................|
.......................|G-2....................|.......................|.......................|.......................|C-4C1..................|.......................|.......................|.......................|.......................|
.......................|.......................|.......................|.......................|.......................|.......................|.......................|.......................|.......................|.......................|
.......................|.......................|.......................|.......................|.......................|.......................|.......................|.......................|.......................|.......................|
.......................|.......................|.......................|.......................|.......................|.......................|.......................|.......................|.......................|.......................|
.......................|.......................|.......................|.......................|.......................|.......................|.......................|.......................|.......................|.......................|
.......................|.......................|.......................|.......................|.......................|.......................|.......................|.......................|.......................|.......................|
===....E3000452........|===....................|===....E3000452........|===....................|.......................|.......................|===....................|.......................|.......................|.......................|
D-3....0400............|D-3....................|A-2....0400............|C-0....0400............|.......................|C-4C0..................|D-4..0C0400............|.......................|.......................|.......................|
.......................|.......................|.......................|.......................|.......................|.......................|.......................|.......................|.......................|.......................|
.......................|.......................|.......................|.......................|.......................|.......................|.......................|.......................|.......................|.......................|
.......................|.......................|.......................|.......................|.......................|.......................|.......................|.......................|.......................|.......................|
.......................|.......................|.......................|.......................|.......................|.......................|.......................|.......................|.......................|.......................|
.......................|.......................|.......................|.......................|.......................|.......................|.......................|.......................|.......................|.......................|
.......................|.......................|.......................|.......................|.......................|.......................|.......................|.......................|.......................|.......................|
.......................|.......................|.......................|.......................|.......................|.......................|.......................|.......................|.......................|.......................|
.......................|.......................|.......................|.......................|.......................|.......................|.......................|.......................|.......................|.......................|
.......................|.......................|.......................|.......................|.......................|.......................|.......................|.......................|.......................|.......................|
.......................|.......................|.......................|.......................|===....E3000452........|.......................|.......................|===....................|.......................|.......................|
.......................|.......................|.......................|.......................|E-4....0400............|.......................|.......................|D-4..0B0400............|.......................|.......................|
.......................|.......................|.......................|.......................|D-3....0340............|.......................|.......................|.......................|.......................|.......................|
.......................|===....................|.......................|===....................|.......................|.......................|===....................|.......................|.......................|.......................|
.......................|D-3....................|.......................|C-0....................|.......................|C-4C0..................|D-4....................|.......................|.......................|.......................|
.......................|.......................|.......................|.......................|.......................|.......................|.......................|.......................|.......................|.......................|
.......................|.......................|.......................|.......................|.......................|.......................|.......................|.......................|.......................|.......................|
.......................|.......................|.......................|.......................|.......................|.......................|.......................|.......................|.......................|.......................|
.......................|.......................|.......................|.......................|.......................|.......................|.......................|.......................|.......................|.......................|
.......................|.......................|.......................|.......................|.......................|.......................|.......................|.......................|.......................|.......................|
.......E3000452........|===....................|.......E3000452........|===....................|.......................|.......................|===....................|.......................|.......................|.......................|
.......................|D-3....................|.......................|F#5....................|.......................|C-4C2..................|A-3....................|.......................|.......................|.......................|
.......................|.......................|.......................|.......................|.......................|.......................|.......................|.......................|.......................|.......................|
.......................|.......................|.......................|.......................|.......................|.......................|.......................|.......................|.......................|.......................|
.......................|.......................|.......................|.......................|.......................|.......................|.......................|===....................|.......................|.......................|
.......................|.......................|.......................|.......................|.......................|.......................|.......................|D-4....................|.......................|.......................|
.......................|.......................|.......................|.......................|.......................|.......................|.......................|.......................|.......................|.......................|
.......................|.......................|.......................|===....................|.......................|.......................|===....................|.......................|.......................|.......................|
.......................|.......................|.......................|E-5....................|.......................|C-4C3..................|G-3....................|.......................|.......................|.......................|
.......................|.......................|.......................|.......................|.......................|.......................|.......................|.......................|.......................|.......................|
.......................|.......................|.......................|.......................|.......................|.......................|.......................|.......................|.......................|.......................|
.......................|.......................|.......................|.......................|.......E3000452........|.......................|.......................|===....................|.......................|.......................|
.......................|.......................|.......................|.......................|.......................|.......................|.......................|A-3....................|.......................|.......................|
.......................|.......................|.......................|.......................|.......................|.......................|.......................|.......................|.......................|.......................|
.......................|===....................|.......................|===....................|.......................|.......................|===....................|.......................|.......................|.......................|
.......................|D-3....................|.......................|D-5....................|.......................|C-4C3..................|F#3....................|.......................|.......................|.......................|
org.tildearrow.furnace - Pattern Data (219)
0
.......................|.......................|.......................|.......................|.......................|.......................|.......................|.......................|.......................|.......................|
.......................|.......................|.......................|.......................|.......................|.......................|.......................|.......................|.......................|.......................|
.......................|.......................|.......................|.......................|.......................|.......................|.......................|===....................|.......................|.......................|
.......................|.......................|.......................|.......................|.......................|.......................|.......................|G-3....................|.......................|.......................|
.......................|.......................|.......................|.......................|.......................|.......................|.......................|.......................|.......................|.......................|
.......................|===....................|.......................|===....................|.......................|.......................|===....................|.......................|.......................|.......................|
.......................|D-3....................|.......................|C-0....................|.......................|C-4C1..................|D-4....................|.......................|.......................|.......................|
.......................|.......................|.......................|.......................|.......................|.......................|.......................|.......................|.......................|.......................|
.......................|.......................|.......................|.......................|.......................|.......................|.......................|.......................|.......................|.......................|
.......................|.......................|.......................|.......................|.......................|.......................|.......................|===....................|.......................|.......................|
.......................|.......................|.......................|.......................|.......................|.......................|.......................|F#3....................|.......................|.......................|
.......................|.......................|.......................|.......................|.......................|.......................|.......................|.......................|.......................|.......................|
.......................|.......................|.......................|.......................|.......................|.......................|.......................|.......................|.......................|.......................|
.......................|.......................|.......................|.......................|.......................|.......................|.......................|.......................|.......................|.......................|
.......................|.......................|.......................|.......................|.......................|.......................|.......................|.......................|.......................|.......................|
.......................|.......................|.......................|.......................|.......................|.......................|.......................|.......................|.......................|.......................|
.......................|.......................|.......................|.......................|.......................|.......................|.......................|===....................|.......................|.......................|
.......................|.......................|.......................|.......................|.......................|.......................|.......................|D-4....................|.......................|.......................|
.......................|.......................|.......................|.......................|.......................|.......................|.......................|.......................|.......................|.......................|
.......................|===....................|.......................|===....................|.......................|.......................|===....................|.......................|.......................|.......................|
.......................|D-3....................|.......................|C-0....................|.......................|C-4C1..................|D-4....................|.......................|.......................|.......................|
.......................|.......................|.......................|.......................|.......................|.......................|.......................|.......................|.......................|.......................|
.......................|.......................|.......................|.......................|.......................|.......................|.......................|.......................|.......................|.......................|
.......................|.......................|.......................|.......................|.......................|.......................|.......................|.......................|.......................|.......................|
.......................|.......................|.......................|.......................|.......................|.......................|.......................|.......................|.......................|.......................|
.......................|.......................|.......................|.......................|.......................|.......................|.......................|.......................|.......................|.......................|
===....................|===....................|===....................|===....................|.......................|.......................|===....................|.......................|.......................|.......................|
E-3....0400............|D-3....................|B-2....0400............|F#5....................|.......................|C-4C3..................|A-3....................|.......................|.......................|.......................|
.......................|.......................|.......................|.......................|.......................|.......................|.......................|.......................|.......................|.......................|
.......................|.......................|.......................|.......................|.......................|.......................|.......................|.......................|.......................|.......................|
.......................|.......................|.......................|.......................|.......................|.......................|.......................|===....................|.......................|.......................|
.......................|.......................|.......................|.......................|.......................|.......................|.......................|D-4....................|.......................|.......................|
.......................|.......................|.......................|.......................|.......................|.......................|.......................|.......................|.......................|.......................|
===....................|===....................|===....................|===....................|.......................|.......................|===....................|.......................|.......................|.......................|
D-3....................|D-3....................|A-2....................|E-5....................|.......................|C-4C3..................|G-3....................|.......................|.......................|.......................|
.......................|.......................|.......................|.......................|.......................|.......................|.......................|.......................|.......................|.......................|
.......................|.......................|.......................|.......................|.......................|.......................|.......................|.......................|.......................|.......................|
.......................|.......................|.......................|.......................|===....................|.......................|.......................|===....................|.......................|.......................|
.......................|.......................|.......................|.......................|D-3....0400............|.......................|.......................|A-3....................|.......................|.......................|
.......................|.......................|.......................|.......................|E-3....0340............|.......................|.......................|.......................|.......................|.......................|
===....................|===....................|===....................|===....................|.......................|.......................|===....................|.......................|.......................|.......................|
E-3....................|D-3....................|B-2....................|D-5....................|.......................|C-4C3..................|F#3....................|.......................|.......................|.......................|
.......................|.......................|.......................|.......................|.......................|.......................|.......................|.......................|.......................|.......................|
.......................|.......................|.......................|.......................|.......................|.......................|.......................|.......................|.......................|.......................|
.......................|.......................|.......................|.......................|===....................|.......................|.......................|===....................|.......................|.......................|
.......................|.......................|.......................|.......................|E-3....................|.......................|.......................|G-3....................|.......................|.......................|
.......................|.......................|.......................|.......................|D-3....0340............|.......................|.......................|.......................|.......................|.......................|
===....................|===....................|===....................|===....................|.......................|.......................|===....................|.......................|.......................|.......................|
F-3....................|F-2....................|C-3....................|C-0....................|.......................|C-4C0..................|F-4....................|.......................|.......................|.......................|
.......................|.......................|.......................|.......................|.......................|.......................|.......................|.......................|.......................|.......................|
.......................|.......................|.......................|.......................|.......................|.......................|.......................|.......................|.......................|.......................|
.......................|.......................|.......................|.......................|===....................|.......................|.......................|===....................|.......................|.......................|
.......................|.......................|.......................|.......................|D-3....................|.......................|.......................|F#3....................|.......................|.......................|
.......................|.......................|.......................|.......................|E-3....0340............|.......................|.......................|.......................|.......................|.......................|
.......................|.......................|.......................|.......................|.......................|.......................|.......................|.......................|.......................|.......................|
.......................|.......................|.......................|.......................|.......................|.......................|.......................|.......................|.......................|.......................|
.......................|.......................|.......................|.......................|.......................|.......................|.......................|.......................|.......................|.......................|
.......................|.......................|.......................|.......................|.......................|.......................|.......................|.......................|.......................|.......................|
.......................|.......................|.......................|.......................|===....................|.......................|.......................|===....................|.......................|.......................|
.......................|.......................|.......................|.......................|E-3....................|.......................|.......................|F-4....................|.......................|.......................|
.......................|.......................|.......................|.......................|F-3....0340............|.......................|.......................|.......................|.......................|.......................|
.......................|===....................|.......................|===....................|.......................|.......................|===....................|.......................|.......................|.......................|
.......................|F-2....................|.......................|C-0....................|.......................|C-4C0..................|F-4....................|.......................|.......................|.......................|
.......................|.......................|.......................|.......................|.......................|.......................|.......................|.......................|.......................|.......................|
.......................|.......................|.......................|.......................|.......................|.......................|.......................|.......................|.......................|.......................|
.......................|.......................|.......................|.......................|.......................|.......................|.......................|.......................|.......................|.......................|
.......................|.......................|.......................|.......................|.......................|.......................|.......................|.......................|.......................|.......................|
.......................|.......................|.......................|.......................|.......................|.......................|.......................|.......................|.......................|.......................|
.......E3000452........|===....................|.......E3000452........|===....................|.......................|.......................|===....................|.......................|.......................|.......................|
.......................|F-2....................|.......................|C-0....................|.......................|C-4C3..................|C-4....................|.......................|.......................|.......................|
.......................|.......................|.......................|.......................|.......................|.......................|.......................|.......................|.......................|.......................|
.......................|.......................|.......................|.......................|.......................|.......................|.......................|.......................|.......................|.......................|
.......................|.......................|.......................|.......................|.......................|.......................|.......................|===....................|.......................|.......................|
.......................|.......................|.......................|.......................|.......................|.......................|.......................|F-4....................|.......................|.......................|
.......................|.......................|.......................|.......................|.......................|.......................|.......................|.......................|.......................|.......................|
.......................|.......................|.......................|===....................|.......................|.......................|===....................|.......................|.......................|.......................|
.......................|.......................|.......................|G-5....................|.......................|C-4C4..80FF............|A#3....................|.......................|.......................|.......................|
.......................|.......................|.......................|.......................|.......................|.......................|.......................|.......................|.......................|.......................|
.......................|.......................|.......................|.......................|.......................|.......................|.......................|.......................|.......................|.......................|
.......................|.......................|.......................|.......................|.......E3000452........|.......................|.......................|===....................|.......................|.......................|
.......................|.......................|.......................|.......................|.......................|.......................|.......................|C-4....................|.......................|.......................|
.......................|.......................|.......................|.......................|.......................|.......................|.......................|.......................|.......................|.......................|
.......................|===....................|.......................|===....................|.......................|.......................|===....................|.......................|.......................|.......................|
.......................|F-2....................|.......................|F-5....................|.......................|C-4C4..................|A-3....................|.......................|.......................|.......................|
.......................|.......................|.......................|.......................|.......................|.......................|.......................|.......................|.......................|.......................|
.......................|.......................|.......................|.......................|.......................|.......................|.......................|.......................|.......................|.......................|
.......................|.......................|.......................|.......................|.......................|.......................|.......................|===....................|.......................|.......................|
.......................|.......................|.......................|.......................|.......................|.......................|.......................|A#3....................|.......................|.......................|
.......................|.......................|.......................|.......................|.......................|.......................|.......................|.......................|.......................|.......................|
.......................|===....................|.......................|===....................|.......................|.......................|===....................|.......................|.......................|.......................|
.......................|F-2....................|.......................|C-0....................|.......................|C-4C1..8080............|F-4....................|.......................|.......................|.......................|
.......................|.......................|.......................|.......................|.......................|.......................|.......................|.......................|.......................|.......................|
.......................|.......................|.......................|.......................|.......................|.......................|.......................|.......................|.......................|.......................|
.......................|.......................|.......................|.......................|.......................|.......................|.......................|===....................|.......................|.......................|
.......................|.......................|.......................|.......................|.......................|.......................|.......................|A-3....................|.......................|.......................|
.......................|.......................|.......................|.......................|.......................|.......................|.......................|.......................|.......................|.......................|
.......................|.......................|.......................|.......................|.......................|.......................|.......................|.......................|.......................|.......................|
.......................|.......................|.......................|.......................|.......................|.......................|.......................|.......................|.......................|.......................|
.......................|.......................|.......................|.......................|.......................|.......................|.......................|.......................|.......................|.......................|
.......................|.......................|.......................|.......................|.......................|.......................|.......................|.......................|.......................|.......................|
.......................|.......................|.......................|.......................|.......................|.......................|.......................|===....................|.......................|.......................|
.......................|.......................|.......................|.......................|.......................|.......................|.......................|F-4....................|.......................|.......................|
.......................|.......................|.......................|.......................|.......................|.......................|.......................|.......................|.......................|.......................|
.......................|===....................|.......................|===....................|.......................|.......................|===....................|.......................|.......................|.......................|
.......................|F-2....................|.......................|C-0....................|.......................|C-4C1..................|F-4....................|.......................|.......................|.......................|
.......................|.......................|.......................|.......................|.......................|.......................|.......................|.......................|.......................|.......................|
.......................|.......................|.......................|.......................|.......................|.......................|.......................|.......................|.......................|.......................|
.......................|.......................|.......................|.......................|.......................|.......................|.......................|.......................|.......................|.......................|
.......................|.......................|.......................|.......................|.......................|.......................|.......................|.......................|.......................|.......................|
.......................|.......................|.......................|.......................|.......................|.......................|.......................|.......................|.......................|.......................|
===....................|===....................|===....................|===....................|.......................|.......................|===....................|.......................|.......................|.......................|
F-3....0400............|F-2....................|C-3....0400............|C-0....................|.......................|C-4C4..80FF............|C-4....................|.......................|.......................|.......................|
.......................|.......................|.......................|.......................|.......................|.......................|.......................|.......................|.......................|.......................|
.......................|.......................|.......................|.......................|.......................|.......................|.......................|.......................|.......................|.......................|
.......................|.......................|.......................|.......................|.......................|.......................|.......................|===....................|.......................|.......................|
.......................|.......................|.......................|.......................|.......................|.......................|.......................|F-4....................|.......................|.......................|
.......................|.......................|.......................|.......................|.......................|.......................|.......................|.......................|.......................|.......................|
===....................|===....................|===....................|===....................|.......................|.......................|===....................|.......................|.......................|.......................|
E-3....................|F-2....................|B-2....................|G-5....................|.......................|C-4C4..................|A#3....................|.......................|.......................|.......................|
.......................|.......................|.......................|.......................|.......................|.......................|.......................|.......................|.......................|.......................|
.......................|.......................|.......................|.......................|.......................|.......................|.......................|.......................|.......................|.......................|
.......................|.......................|.......................|.......................|===....................|.......................|.......................|===....................|.......................|.......................|
.......................|.......................|.......................|.......................|F-3....0400............|.......................|.......................|C-4....................|.......................|.......................|
.......................|.......................|.......................|.......................|.......................|.......................|.......................|.......................|.......................|.......................|
===....................|===....................|===....................|===....................|.......................|.......................|===....................|.......................|.......................|.......................|
F-3....................|F-2....................|C-3....................|F-5....................|.......................|C-4C4..................|A-3....................|.......................|.......................|.......................|
.......................|.......................|.......................|.......................|.......................|.......................|.......................|.......................|.......................|.......................|
.......................|.......................|.......................|.......................|.......................|.......................|.......................|.......................|.......................|.......................|
.......................|.......................|.......................|.......................|===....................|.......................|.......................|===....................|.......................|.......................|
.......................|.......................|.......................|.......................|F-3....................|.......................|.......................|A#3....................|.......................|.......................|
.......................|.......................|.......................|.......................|E-3....0340............|.......................|.......................|.......................|.......................|.......................|
===....................|===....................|===....................|===....................|.......................|.......................|===....................|.......................|.......................|.......................|
G-3....................|C-3....................|E-3....................|C-0....................|.......................|C-4C0..8080............|G-4....................|.......................|.......................|.......................|
.......................|.......................|.......................|.......................|.......................|.......................|.......................|.......................|.......................|.......................|
.......................|.......................|.......................|.......................|.......................|.......................|.......................|.......................|.......................|.......................|
.......................|.......................|.......................|.......................|===....................|.......................|.......................|===....................|.......................|.......................|
.......................|.......................|.......................|.......................|E-3....................|.......................|.......................|A-3....................|.......................|.......................|
.......................|.......................|.......................|.......................|F-3....0340............|.......................|.......................|.......................|.......................|.......................|
.......................|.......................|.......................|.......................|.......................|.......................|.......................|.......................|.......................|.......................|
.......................|.......................|.......................|.......................|.......................|.......................|.......................|.......................|.......................|.......................|
.......................|.......................|.......................|.......................|.......................|.......................|.......................|.......................|.......................|.......................|
.......................|.......................|.......................|.......................|.......................|.......................|.......................|.......................|.......................|.......................|
.......................|.......................|.......................|.......................|===....................|.......................|.......................|===....................|.......................|.......................|
.......................|.......................|.......................|.......................|F-3....................|.......................|.......................|G-4....................|.......................|.......................|
.......................|.......................|.......................|.......................|G-3....0340............|.......................|.......................|.......................|.......................|.......................|
.......................|===....................|.......................|===....................|.......................|.......................|===....................|.......................|.......................|.......................|
.......................|C-3....................|.......................|C-0....................|.......................|C-4C0..................|G-4....................|.......................|.......................|.......................|
.......................|.......................|.......................|.......................|.......................|.......................|.......................|.......................|.......................|.......................|
.......................|.......................|.......................|.......................|.......................|.......................|.......................|.......................|.......................|.......................|
.......................|.......................|.......................|.......................|.......................|.......................|.......................|.......................|.......................|.......................|
.......................|.......................|.......................|.......................|.......................|.......................|.......................|.......................|.......................|.......................|
.......................|.......................|.......................|.......................|.......................|.......................|.......................|.......................|.......................|.......................|
.......E3000452........|===....................|.......E3000452........|===....................|.......................|.......................|===....................|.......................|.......................|.......................|
.......................|C-3....................|.......................|C-0....................|.......................|C-4C2..8000............|F-4....................|.......................|.......................|.......................|
.......................|.......................|.......................|.......................|.......................|.......................|.......................|.......................|.......................|.......................|
.......................|.......................|.......................|.......................|.......................|.......................|.......................|.......................|.......................|.......................|
.......................|.......................|.......................|.......................|.......................|.......................|.......................|===....................|.......................|.......................|
.......................|.......................|.......................|.......................|.......................|.......................|.......................|G-4....................|.......................|.......................|
.......................|.......................|.......................|.......................|.......................|.......................|.......................|.......................|.......................|.......................|
.......................|.......................|.......................|===....................|.......................|.......................|===....................|.......................|.......................|.......................|
.......................|.......................|.......................|C-0....................|.......................|C-4C3..8080............|E-4....................|.......................|.......................|.......................|
.......................|.......................|.......................|.......................|.......................|.......................|.......................|.......................|.......................|.......................|
.......................|.......................|.......................|.......................|.......................|.......................|.......................|.......................|.......................|.......................|
.......................|.......................|.......................|.......................|.......E3000452........|.......................|.......................|===....................|.......................|.......................|
.......................|.......................|.......................|.......................|.......................|.......................|.......................|F-4....................|.......................|.......................|
.......................|.......................|.......................|.......................|.......................|.......................|.......................|.......................|.......................|.......................|
.......................|===....................|.......................|===....................|.......................|.......................|===....................|.......................|.......................|.......................|
.......................|C-3....................|.......................|C-0....................|.......................|C-4C3..................|C-4....................|.......................|.......................|.......................|
.......................|.......................|.......................|.......................|.......................|.......................|.......................|.......................|.......................|.......................|
.......................|.......................|.......................|.......................|.......................|.......................|.......................|.......................|.......................|.......................|
.......................|.......................|.......................|.......................|.......................|.......................|.......................|===....................|.......................|.......................|
.......................|.......................|.......................|.......................|.......................|.......................|.......................|E-4....................|.......................|.......................|
.......................|.......................|.......................|.......................|.......................|.......................|.......................|.......................|.......................|.......................|
.......................|===....................|.......................|===....................|.......................|.......................|===....................|.......................|.......................|.......................|
.......................|C-3....................|.......................|C-0....................|.......................|C-4C1..................|G-4....................|.......................|.......................|.......................|
.......................|.......................|.......................|.......................|.......................|.......................|.......................|.......................|.......................|.......................|
.......................|.......................|.......................|.......................|.......................|.......................|.......................|.......................|.......................|.......................|
.......................|.......................|.......................|.......................|.......................|.......................|.......................|===....................|.......................|.......................|
.......................|.......................|.......................|.......................|.......................|.......................|.......................|C-4....................|.......................|.......................|
.......................|.......................|.......................|.......................|.......................|.......................|.......................|.......................|.......................|.......................|
.......................|.......................|.......................|.......................|.......................|.......................|.......................|.......................|.......................|.......................|
.......................|.......................|.......................|.......................|.......................|.......................|.......................|.......................|.......................|.......................|
.......................|.......................|.......................|.......................|.......................|.......................|.......................|.......................|.......................|.......................|
.......................|.......................|.......................|.......................|.......................|.......................|.......................|.......................|.......................|.......................|
.......................|.......................|.......................|.......................|.......................|.......................|.......................|===....................|.......................|.......................|
.......................|.......................|.......................|.......................|.......................|.......................|.......................|G-4....................|.......................|.......................|
.......................|.......................|.......................|.......................|.......................|.......................|.......................|.......................|.......................|.......................|
.......................|===....................|.......................|===....................|.......................|.......................|===....................|.......................|.......................|.......................|
.......................|C-3....................|.......................|C-0....................|.......................|C-4C1..................|G-4....................|.......................|.......................|.......................|
.......................|.......................|.......................|.......................|.......................|.......................|.......................|.......................|.......................|.......................|
.......................|.......................|.......................|.......................|.......................|.......................|.......................|.......................|.......................|.......................|
.......................|.......................|.......................|.......................|.......................|.......................|.......................|.......................|.......................|.......................|
.......................|.......................|.......................|.......................|.......................|.......................|.......................|.......................|.......................|.......................|
.......................|.......................|.......................|.......................|.......................|.......................|.......................|.......................|.......................|.......................|
===....................|===....................|===....................|===....................|.......................|.......................|===....................|.......................|.......................|.......................|
G-3....0400............|C-3....................|E-3....0400............|C-0....................|.......................|C-4C3..................|F-4....................|.......................|.......................|.......................|
.......................|.......................|.......................|.......................|.......................|.......................|.......................|.......................|.......................|.......................|
.......................|.......................|.......................|.......................|.......................|.......................|.......................|.......................|.......................|.......................|
.......................|.......................|.......................|.......................|.......................|.......................|.......................|===....................|.......................|.......................|
.......................|.......................|.......................|.......................|.......................|.......................|.......................|G-4....................|.......................|.......................|
.......................|.......................|.......................|.......................|.......................|.......................|.......................|.......................|.......................|.......................|
===....................|===....................|===....................|===....................|.......................|.......................|===....................|.......................|.......................|.......................|
F-3....................|C-3....................|C-3....................|C-0....................|.......................|C-4C3..................|E-4....................|.......................|.......................|.......................|
.......................|.......................|.......................|.......................|.......................|.......................|.......................|.......................|.......................|.......................|
.......................|.......................|.......................|.......................|.......................|.......................|.......................|.......................|.......................|.......................|
.......................|.......................|.......................|.......................|===....................|.......................|.......................|===....................|.......................|.......................|
.......................|.......................|.......................|.......................|G-3....0400............|.......................|.......................|F-4....................|.......................|.......................|
.......................|.......................|.......................|.......................|.......................|.......................|.......................|.......................|.......................|.......................|
===....................|===....................|===....................|===....................|.......................|.......................|===....................|.......................|.......................|.......................|
G-3....................|C-3....................|E-3....................|C-0....................|.......................|C-4C3..................|C-4....................|.......................|.......................|.......................|
.......................|.......................|.......................|.......................|.......................|.......................|.......................|.......................|.......................|.......................|
.......................|.......................|.......................|.......................|.......................|.......................|.......................|.......................|.......................|.......................|
.......................|.......................|.......................|.......................|===....................|.......................|.......................|===....................|.......................|.......................|
.......................|.......................|.......................|.......................|G-3....................|.......................|.......................|E-4....................|.......................|.......................|
.......................|.......................|.......................|.......................|F-3....0340............|.......................|.......................|.......................|.......................|.......................|
===....................|===....................|===....................|===....................|.......................|.......................|===....................|.......................|.......................|.......................|
A-3....................|G-2....................|E-3....................|F-5....................|.......................|C-4C0..................|A-3....................|.......................|.......................|.......................|
.......................|.......................|.......................|.......................|.......................|.......................|.......................|.......................|.......................|.......................|
.......................|.......................|.......................|.......................|.......................|.......................|.......................|.......................|.......................|.......................|
.......................|.......................|.......................|.......................|===....................|.......................|.......................|===....................|.......................|.......................|
.......................|.......................|.......................|.......................|F-3....................|.......................|.......................|C-4....................|.......................|.......................|
.......................|.......................|.......................|.......................|G-3....0340............|.......................|.......................|.......................|.......................|.......................|
.......................|.......................|.......................|===....................|.......................|.......................|===....................|.......................|.......................|.......................|
.......................|.......................|.......................|C-0....................|.......................|.......................|G-4....................|.......................|.......................|.......................|
.......................|.......................|.......................|.......................|.......................|.......................|.......................|.......................|.......................|.......................|
.......................|.......................|.......................|.......................|.......................|.......................|.......................|.......................|.......................|.......................|
.......................|.......................|.......................|.......................|===....................|.......................|.......................|===....................|.......................|.......................|
.......................|.......................|.......................|.......................|G-3....................|.......................|.......................|A-3....................|.......................|.......................|
.......................|.......................|.......................|.......................|A-3....0340............|.......................|.......................|.......................|.......................|.......................|
.......................|===....................|.......................|===....................|.......................|.......................|===....................|.......................|.......................|.......................|
.......................|G-2....................|.......................|C-0....................|.......................|C-4C1..................|F-4....................|.......................|.......................|.......................|
.......................|.......................|.......................|.......................|.......................|.......................|.......................|.......................|.......................|.......................|
.......................|.......................|.......................|.......................|.......................|.......................|.......................|.......................|.......................|.......................|
.......................|.......................|.......................|.......................|.......................|.......................|.......................|===....................|.......................|.......................|
.......................|.......................|.......................|.......................|.......................|.......................|.......................|G-4....................|.......................|.......................|
.......................|.......................|.......................|.......................|.......................|.......................|.......................|.......................|.......................|.......................|
===....E3000452........|===....................|===....E3000452........|===....................|.......................|.......................|===....................|.......................|.......................|.......................|
G-3....0400............|G-2....................|D-3....0400............|C-0....................|.......................|C-4C1..................|E-4....................|.......................|.......................|.......................|
.......................|.......................|.......................|.......................|.......................|.......................|.......................|.......................|.......................|.......................|
.......................|.......................|.......................|.......................|.......................|.......................|.......................|.......................|.......................|.......................|
.......................|.......................|.......................|.......................|.......................|.......................|.......................|===....................|.......................|.......................|
.......................|.......................|.......................|.......................|.......................|.......................|.......................|F-4....................|.......................|.......................|
.......................|.......................|.......................|.......................|.......................|.......................|.......................|.......................|.......................|.......................|
.......................|.......................|.......................|===....................|.......................|.......................|===....................|.......................|.......................|.......................|
.......................|.......................|.......................|C-0....................|.......................|C-4C1..................|D-4....................|.......................|.......................|.......................|
.......................|.......................|.......................|.......................|.......................|.......................|.......................|.......................|.......................|.......................|
.......................|.......................|.......................|.......................|.......................|.......................|.......................|.......................|.......................|.......................|
.......................|.......................|.......................|.......................|===....E3000452........|.......................|.......................|===....................|.......................|.......................|
.......................|.......................|.......................|.......................|A-3....0400............|.......................|.......................|E-4....................|.......................|.......................|
.......................|.......................|.......................|.......................|G-3....0340............|.......................|.......................|.......................|.......................|.......................|
.......................|===....................|.......................|===....................|.......................|.......................|===....................|.......................|.......................|.......................|
.......................|G-2....................|.......................|C-0....................|.......................|C-4C1..................|C-4....................|.......................|.......................|.......................|
.......................|.......................|.......................|.......................|.......................|.......................|.......................|.......................|.......................|.......................|
.......................|.......................|.......................|.......................|.......................|.......................|.......................|.......................|.......................|.......................|
.......................|.......................|.......................|.......................|.......................|.......................|.......................|===....................|.......................|.......................|
.......................|.......................|.......................|.......................|.......................|.......................|.......................|D-4....................|.......................|.......................|
org.tildearrow.furnace - Pattern Data (219)
0
.......................|.......................|.......................|.......................|.......................|.......................|.......................|.......................|.......................|.......................|
===....E3000452........|===....................|===....E3000452........|===....................|.......................|.......................|===....................|.......................|.......................|.......................|
F-3....0400............|G-2....................|C-3....0400............|G-5....................|.......................|C-4C1..................|B-3....................|.......................|.......................|.......................|
.......................|.......................|.......................|.......................|.......................|.......................|.......................|.......................|.......................|.......................|
.......................|.......................|.......................|.......................|.......................|.......................|.......................|.......................|.......................|.......................|
.......................|.......................|.......................|.......................|.......................|.......................|.......................|===....................|.......................|.......................|
.......................|.......................|.......................|.......................|.......................|.......................|.......................|C-4....................|.......................|.......................|
.......................|.......................|.......................|.......................|.......................|.......................|.......................|.......................|.......................|.......................|
.......................|.......................|.......................|===....................|.......................|.......................|===....................|.......................|.......................|.......................|
.......................|.......................|.......................|F-5....................|.......................|C-4C1..................|A-3....................|.......................|.......................|.......................|
.......................|.......................|.......................|.......................|.......................|.......................|.......................|.......................|.......................|.......................|
.......................|.......................|.......................|.......................|.......................|.......................|.......................|.......................|.......................|.......................|
.......................|.......................|.......................|.......................|===....E3000452........|.......................|.......................|===....................|.......................|.......................|
.......................|.......................|.......................|.......................|G-3....0400............|.......................|.......................|B-3....................|.......................|.......................|
.......................|.......................|.......................|.......................|F-3....0340............|.......................|.......................|.......................|.......................|.......................|
.......................|===....................|.......................|===....................|.......................|.......................|===....................|.......................|.......................|.......................|
.......................|G-2....................|.......................|E-5....................|.......................|C-4C1..................|G-3....................|.......................|.......................|.......................|
.......................|.......................|.......................|.......................|.......................|.......................|.......................|.......................|.......................|.......................|
.......................|.......................|.......................|.......................|.......................|.......................|.......................|.......................|.......................|.......................|
.......................|.......................|.......................|.......................|.......................|.......................|.......................|===....................|.......................|.......................|
.......................|.......................|.......................|.......................|.......................|.......................|.......................|A-3....................|.......................|.......................|
.......................|.......................|.......................|.......................|.......................|.......................|.......................|.......................|.......................|.......................|
===....E3000452........|===....................|===....E3000452........|===....................|.......................|.......................|===....................|.......................|.......................|.......................|
E-3....0400............|G-2....................|B-2....0400............|F-5....................|.......................|C-4C1..................|A-3....................|.......................|.......................|.......................|
.......................|.......................|.......................|.......................|.......................|.......................|.......................|.......................|.......................|.......................|
.......................|.......................|.......................|.......................|.......................|.......................|.......................|.......................|.......................|.......................|
.......................|.......................|.......................|.......................|.......................|.......................|.......................|===....................|.......................|.......................|
.......................|.......................|.......................|.......................|.......................|.......................|.......................|G-3....................|.......................|.......................|
.......................|.......................|.......................|.......................|.......................|.......................|.......................|.......................|.......................|.......................|
.......................|===....................|.......................|===....................|.......................|.......................|===....................|.......................|.......................|.......................|
.......................|G-2....................|.......................|G-5....................|.......................|C-4C1..................|B-3....................|.......................|.......................|.......................|
.......................|.......................|.......................|.......................|.......................|.......................|.......................|.......................|.......................|.......................|
.......................|.......................|.......................|.......................|.......................|.......................|.......................|.......................|.......................|.......................|
.......................|.......................|.......................|.......................|===....E3000452........|.......................|.......................|===....................|.......................|.......................|
.......................|.......................|.......................|.......................|F-3....0400............|.......................|.......................|A-3....................|.......................|.......................|
.......................|.......................|.......................|.......................|E-3....0340............|.......................|.......................|.......................|.......................|.......................|
.......................|===....................|.......................|===....................|.......................|.......................|===....................|.......................|.......................|.......................|
.......................|G-2....................|.......................|C-0....................|.......................|C-4C1..................|C-4....................|.......................|.......................|.......................|
.......................|.......................|.......................|.......................|.......................|.......................|.......................|.......................|.......................|.......................|
.......................|.......................|.......................|.......................|.......................|.......................|.......................|.......................|.......................|.......................|
.......................|.......................|.......................|.......................|.......................|.......................|.......................|===....................|.......................|.......................|
.......................|.......................|.......................|.......................|.......................|.......................|.......................|B-3....................|.......................|.......................|
.......................|.......................|.......................|.......................|.......................|.......................|.......................|.......................|.......................|.......................|
===....E3000452........|===....................|===....E3000452........|===....................|.......................|.......................|===....................|.......................|.......................|.......................|
D-4....0400............|D-3....................|A-3....0400............|C-0....................|.......................|C-4C0..................|F#4....................|.......................|.......................|.......................|
.......................|.......................|.......................|.......................|.......................|.......................|.......................|.......................|.......................|.......................|
.......................|.......................|.......................|.......................|.......................|.......................|.......................|.......................|.......................|.......................|
.......................|.......................|.......................|.......................|.......................|.......................|.......................|===....................|.......................|.......................|
.......................|.......................|.......................|.......................|.......................|.......................|.......................|C-4....................|.......................|.......................|
.......................|.......................|.......................|.......................|.......................|.......................|.......................|.......................|.......................|.......................|
.......................|.......................|.......................|.......................|.......................|.......................|.......................|.......................|.......................|.......................|
.......................|.......................|.......................|.......................|.......................|.......................|.......................|.......................|.......................|.......................|
.......................|.......................|.......................|.......................|.......................|.......................|.......................|.......................|.......................|.......................|
.......................|.......................|.......................|.......................|.......................|.......................|.......................|.......................|.......................|.......................|
.......................|.......................|.......................|.......................|===....E3000452........|.......................|.......................|===....................|.......................|.......................|
.......................|.......................|.......................|.......................|E-3....0400............|.......................|.......................|F#4....................|.......................|.......................|
.......................|.......................|.......................|.......................|D-4....0340............|.......................|.......................|.......................|.......................|.......................|
.......................|===....................|.......................|.......................|.......................|.......................|.......................|.......................|.......................|.......................|
.......................|D-3....................|.......................|.......................|.......................|C-4C0..................|.......................|.......................|.......................|.......................|
.......................|.......................|.......................|.......................|.......................|.......................|.......................|.......................|.......................|.......................|
.......................|.......................|.......................|.......................|.......................|.......................|.......................|.......................|.......................|.......................|
.......................|.......................|.......................|.......................|.......................|.......................|.......................|.......................|.......................|.......................|
.......................|.......................|.......................|.......................|.......................|.......................|.......................|.......................|.......................|.......................|
.......................|.......................|.......................|.......................|.......................|.......................|.......................|.......................|.......................|.......................|
.......E3000452........|===....................|.......E3000452........|===....E3000452........|.......................|.......................|===....0452............|.......................|.......................|.......................|
.......................|D-3....................|.......................|F#5....0400............|.......................|C-4C1..................|A-3....0400............|.......................|.......................|.......................|
.......................|.......................|.......................|.......................|.......................|.......................|.......................|.......................|.......................|.......................|
.......................|.......................|.......................|.......................|.......................|.......................|.......................|.......................|.......................|.......................|
.......................|.......................|.......................|.......................|.......................|.......................|.......................|.......................|.......................|.......................|
.......................|.......................|.......................|.......................|.......................|.......................|.......................|.......................|.......................|.......................|
.......................|.......................|.......................|.......................|.......................|.......................|.......................|.......................|.......................|.......................|
.......................|.......................|.......................|.......................|.......................|.......................|.......................|.......................|.......................|.......................|
.......................|.......................|.......................|.......................|.......................|.......................|.......................|.......................|.......................|.......................|
.......................|.......................|.......................|.......................|.......................|.......................|.......................|.......................|.......................|.......................|
.......................|.......................|.......................|.......................|.......................|.......................|.......................|.......................|.......................|.......................|
.......................|.......................|.......................|.......................|.......E3000452........|.......................|.......................|===....0452............|.......................|.......................|
.......................|.......................|.......................|.......................|.......................|.......................|.......................|A-3....0400............|.......................|.......................|
.......................|.......................|.......................|.......................|.......................|.......................|.......................|.......................|.......................|.......................|
.......................|===....................|.......................|===....................|.......................|.......................|===....................|.......................|.......................|.......................|
.......................|D-3....................|.......................|F#5....................|.......................|C-4C0..................|A-3....................|.......................|.......................|.......................|
.......................|.......................|.......................|.......................|.......................|.......................|.......................|.......................|.......................|.......................|
.......................|.......................|.......................|.......................|.......................|.......................|.......................|.......................|.......................|.......................|
.......................|.......................|.......................|.......................|.......................|.......................|.......................|.......................|.......................|.......................|
.......................|.......................|.......................|.......................|.......................|.......................|.......................|.......................|.......................|.......................|
.......................|.......................|.......................|.......................|.......................|.......................|.......................|.......................|.......................|.......................|
===....................|===....................|===....................|===....................|.......................|.......................|===....................|.......................|.......................|.......................|
===....................|D-3....................|===....................|C-0....................|.......................|C-4C0..................|F#4....................|.......................|.......................|.......................|
.......................|.......................|.......................|.......................|.......................|.......................|.......................|.......................|.......................|.......................|
.......................|.......................|.......................|.......................|.......................|.......................|.......................|.......................|.......................|.......................|
.......................|.......................|.......................|.......................|.......................|.......................|.......................|===....................|.......................|.......................|
.......................|.......................|.......................|.......................|.......................|.......................|.......................|A-3....................|.......................|.......................|
.......................|.......................|.......................|.......................|.......................|.......................|.......................|.......................|.......................|.......................|
.......................|.......................|.......................|.......................|.......................|.......................|.......................|.......................|.......................|.......................|
.......................|.......................|.......................|.......................|.......................|.......................|.......................|.......................|.......................|.......................|
.......................|.......................|.......................|.......................|.......................|.......................|.......................|.......................|.......................|.......................|
.......................|.......................|.......................|.......................|.......................|.......................|.......................|.......................|.......................|.......................|
.......................|.......................|.......................|.......................|===....................|.......................|.......................|===....................|.......................|.......................|
.......................|.......................|.......................|.......................|===....................|.......................|.......................|F#4....................|.......................|.......................|
.......................|.......................|.......................|.......................|.......................|.......................|.......................|.......................|.......................|.......................|
.......................|===....................|.......................|.......................|.......................|.......................|.......................|.......................|.......................|.......................|
.......................|D-3....................|.......................|.......................|.......................|C-4C0..................|.......................|.......................|.......................|.......................|
.......................|.......................|.......................|.......................|.......................|.......................|.......................|.......................|.......................|.......................|
.......................|.......................|.......................|.......................|.......................|.......................|.......................|.......................|.......................|.......................|
.......................|.......................|.......................|.......................|.......................|.......................|.......................|.......................|.......................|.......................|
.......................|.......................|.......................|.......................|.......................|.......................|.......................|.......................|.......................|.......................|
.......................|.......................|.......................|.......................|.......................|.......................|.......................|.......................|.......................|.......................|
.......................|===....................|.......................|.......E3000452........|.......................|.......................|.......0452............|.......................|.......................|.......................|
E-4....0400............|D-3....................|B-3....0400............|.......................|.......................|C-4C0..................|.......................|.......................|.......................|.......................|
.......................|.......................|.......................|.......................|.......................|.......................|.......................|.......................|.......................|.......................|
.......................|.......................|.......................|.......................|.......................|.......................|.......................|.......................|.......................|.......................|
.......................|.......................|.......................|.......................|.......................|.......................|.......................|.......................|.......................|.......................|
.......................|.......................|.......................|.......................|.......................|.......................|.......................|.......................|.......................|.......................|
.......................|.......................|.......................|.......................|.......................|.......................|.......................|.......................|.......................|.......................|
===....................|===....................|===....................|.......................|.......................|.......................|.......................|.......................|.......................|.......................|
D-4....................|D-3....................|A-3....................|.......................|.......................|C-4C1..................|.......................|.......................|.......................|.......................|
.......................|.......................|.......................|.......................|.......................|.......................|.......................|.......................|.......................|.......................|
.......................|.......................|.......................|.......................|.......................|.......................|.......................|.......................|.......................|.......................|
.......................|.......................|.......................|.......................|.......................|.......................|.......................|.......0452............|.......................|.......................|
.......................|.......................|.......................|.......................|D-4....0400............|.......................|.......................|.......................|.......................|.......................|
.......................|.......................|.......................|.......................|E-4....0340............|.......................|.......................|.......................|.......................|.......................|
===....................|===....................|===....................|.......................|.......................|.......................|.......................|.......................|.......................|.......................|
E-4....................|D-3....................|B-3....................|.......................|.......................|C-4C1..................|.......................|.......................|.......................|.......................|
.......................|.......................|.......................|.......................|.......................|.......................|.......................|.......................|.......................|.......................|
.......................|.......................|.......................|.......................|.......................|.......................|.......................|.......................|.......................|.......................|
.......................|.......................|.......................|.......................|===....................|.......................|.......................|.......................|.......................|.......................|
.......................|.......................|.......................|.......................|E-4....................|.......................|.......................|.......................|.......................|.......................|
.......................|.......................|.......................|.......................|D-4....0340............|.......................|.......................|.......................|.......................|.......................|
===....................|===....................|===....................|===....................|.......................|.......................|===....................|.......................|.......................|.......................|
F-4....................|F-2....................|C-4....................|C-0....0400............|.......................|C-4C0..................|F-4....0400............|.......................|.......................|.......................|
.......................|.......................|.......................|.......................|.......................|.......................|.......................|.......................|.......................|.......................|
.......................|.......................|.......................|.......................|.......................|.......................|.......................|.......................|.......................|.......................|
.......................|.......................|.......................|.......................|===....................|.......................|.......................|.......................|.......................|.......................|
.......................|.......................|.......................|.......................|D-4....................|.......................|.......................|.......................|.......................|.......................|
.......................|.......................|.......................|.......................|E-4....0340............|.......................|.......................|.......................|.......................|.......................|
.......................|.......................|.......................|.......................|.......................|.......................|.......................|.......................|.......................|.......................|
.......................|.......................|.......................|.......................|.......................|.......................|.......................|.......................|.......................|.......................|
.......................|.......................|.......................|.......................|.......................|.......................|.......................|.......................|.......................|.......................|
.......................|.......................|.......................|.......................|.......................|.......................|.......................|.......................|.......................|.......................|
.......................|.......................|.......................|.......................|===....................|.......................|.......................|===....................|.......................|.......................|
.......................|.......................|.......................|.......................|E-4....................|.......................|.......................|F-4....0400............|.......................|.......................|
.......................|.......................|.......................|.......................|F-4....0340............|.......................|.......................|.......................|.......................|.......................|
.......................|===....................|.......................|.......................|.......................|.......................|.......................|.......................|.......................|.......................|
.......................|F-2....................|.......................|.......................|.......................|C-4C0..................|.......................|.......................|.......................|.......................|
.......................|.......................|.......................|.......................|.......................|.......................|.......................|.......................|.......................|.......................|
.......................|.......................|.......................|.......................|.......................|.......................|.......................|.......................|.......................|.......................|
.......................|.......................|.......................|.......................|.......................|.......................|.......................|.......................|.......................|.......................|
.......................|.......................|.......................|.......................|.......................|.......................|.......................|.......................|.......................|.......................|
.......................|.......................|.......................|.......................|.......................|.......................|.......................|.......................|.......................|.......................|
.......E3000452........|===....................|.......E3000452........|===....E3000452........|.......................|.......................|===....0452............|.......................|.......................|.......................|
.......................|F-2....................|.......................|F-5....0400............|.......................|C-4C1..................|A-3....0400............|.......................|.......................|.......................|
.......................|.......................|.......................|.......................|.......................|.......................|.......................|.......................|.......................|.......................|
.......................|.......................|.......................|.......................|.......................|.......................|.......................|.......................|.......................|.......................|
.......................|.......................|.......................|.......................|.......................|.......................|.......................|.......................|.......................|.......................|
.......................|.......................|.......................|.......................|.......................|.......................|.......................|.......................|.......................|.......................|
.......................|.......................|.......................|.......................|.......................|.......................|.......................|.......................|.......................|.......................|
.......................|.......................|.......................|.......................|.......................|.......................|.......................|.......................|.......................|.......................|
.......................|.......................|.......................|.......................|.......................|.......................|.......................|.......................|.......................|.......................|
.......................|.......................|.......................|.......................|.......................|.......................|.......................|.......................|.......................|.......................|
.......................|.......................|.......................|.......................|.......................|.......................|.......................|.......................|.......................|.......................|
.......................|.......................|.......................|.......................|.......E3000452........|.......................|.......................|===....0452............|.......................|.......................|
.......................|.......................|.......................|.......................|.......................|.......................|.......................|A-3....0400............|.......................|.......................|
.......................|.......................|.......................|.......................|.......................|.......................|.......................|.......................|.......................|.......................|
.......................|===....................|.......................|===....................|.......................|.......................|===....................|.......................|.......................|.......................|
.......................|F-2....................|.......................|F-5....................|.......................|C-4C0..................|A-3....................|.......................|.......................|.......................|
.......................|.......................|.......................|.......................|.......................|.......................|.......................|.......................|.......................|.......................|
.......................|.......................|.......................|.......................|.......................|.......................|.......................|.......................|.......................|.......................|
.......................|.......................|.......................|.......................|.......................|.......................|.......................|.......................|.......................|.......................|
.......................|.......................|.......................|.......................|.......................|.......................|.......................|.......................|.......................|.......................|
.......................|.......................|.......................|.......................|.......................|.......................|.......................|.......................|.......................|.......................|
===....................|===....................|===....................|===....................|.......................|.......................|===....................|.......................|.......................|.......................|
===....................|F-2....................|===....................|C-0....................|.......................|C-4C0..................|F-4....................|.......................|.......................|.......................|
.......................|.......................|.......................|.......................|.......................|.......................|.......................|.......................|.......................|.......................|
.......................|.......................|.......................|.......................|.......................|.......................|.......................|.......................|.......................|.......................|
.......................|.......................|.......................|.......................|.......................|.......................|.......................|===....................|.......................|.......................|
.......................|.......................|.......................|.......................|.......................|.......................|.......................|A-3....................|.......................|.......................|
.......................|.......................|.......................|.......................|.......................|.......................|.......................|.......................|.......................|.......................|
.......................|.......................|.......................|.......................|.......................|.......................|.......................|.......................|.......................|.......................|
.......................|.......................|.......................|.......................|.......................|.......................|.......................|.......................|.......................|.......................|
.......................|.......................|.......................|.......................|.......................|.......................|.......................|.......................|.......................|.......................|
.......................|.......................|.......................|.......................|.......................|.......................|.......................|.......................|.......................|.......................|
.......................|.......................|.......................|.......................|===....................|.......................|.......................|===....................|.......................|.......................|
.......................|.......................|.......................|.......................|===....................|.......................|.......................|F-4....................|.......................|.......................|
.......................|.......................|.......................|.......................|.......................|.......................|.......................|.......................|.......................|.......................|
.......................|===....................|.......................|.......................|.......................|.......................|.......................|.......................|.......................|.......................|
.......................|F-2....................|.......................|.......................|.......................|C-4C0..................|.......................|.......................|.......................|.......................|
.......................|.......................|.......................|.......................|.......................|.......................|.......................|.......................|.......................|.......................|
.......................|.......................|.......................|.......................|.......................|.......................|.......................|.......................|.......................|.......................|
.......................|.......................|.......................|.......................|.......................|.......................|.......................|.......................|.......................|.......................|
.......................|.......................|.......................|.......................|.......................|.......................|.......................|.......................|.......................|.......................|
.......................|.......................|.......................|.......................|.......................|.......................|.......................|.......................|.......................|.......................|
.......................|===....................|.......................|.......E3000452........|.......................|.......................|.......0452............|.......................|.......................|.......................|
F-4....0400............|F-2....................|C-4....0400............|.......................|.......................|C-4C1..................|.......................|.......................|.......................|.......................|
.......................|.......................|.......................|.......................|.......................|.......................|.......................|.......................|.......................|.......................|
.......................|.......................|.......................|.......................|.......................|.......................|.......................|.......................|.......................|.......................|
.......................|.......................|.......................|.......................|.......................|.......................|.......................|.......................|.......................|.......................|
.......................|.......................|.......................|.......................|.......................|.......................|.......................|.......................|.......................|.......................|
.......................|.......................|.......................|.......................|.......................|.......................|.......................|.......................|.......................|.......................|
===....................|===....................|===....................|.......................|.......................|.......................|.......................|.......................|.......................|.......................|
E-4....................|F-2....................|B-3....................|.......................|.......................|C-4C0..................|.......................|.......................|.......................|.......................|
.......................|.......................|.......................|.......................|.......................|.......................|.......................|.......................|.......................|.......................|
.......................|.......................|.......................|.......................|.......................|.......................|.......................|.......................|.......................|.......................|
.......................|.......................|.......................|.......................|.......................|.......................|.......................|.......0452............|.......................|.......................|
.......................|.......................|.......................|.......................|F-4....0400............|.......................|.......................|.......................|.......................|.......................|
.......................|.......................|.......................|.......................|.......................|.......................|.......................|.......................|.......................|.......................|
===....................|===....................|===....................|.......................|.......................|.......................|.......................|.......................|.......................|.......................|
F-4....................|F-2....................|C-4....................|.......................|.......................|C-4C0..................|.......................|.......................|.......................|.......................|
.......................|.......................|.......................|.......................|.......................|.......................|.......................|.......................|.......................|.......................|
.......................|.......................|.......................|.......................|.......................|.......................|.......................|.......................|.......................|.......................|
.......................|.......................|.......................|.......................|===....................|.......................|.......................|.......................|.......................|.......................|
.......................|.......................|.......................|.......................|F-4....................|.......................|.......................|.......................|.......................|.......................|
.......................|.......................|.......................|.......................|E-4....0340............|.......................|.......................|.......................|.......................|.......................|
===....................|===....................|===....................|===....................|.......................|.......................|===....................|.......................|.......................|.......................|
G-4....................|C-3....................|E-4....................|C-0....0400............|.......................|C-4C0..................|E-4....0400............|.......................|.......................|.......................|
.......................|.......................|.......................|.......................|.......................|.......................|.......................|.......................|.......................|.......................|
.......................|.......................|.......................|.......................|.......................|.......................|.......................|.......................|.......................|.......................|
.......................|.......................|.......................|.......................|===....................|.......................|.......................|.......................|.......................|.......................|
.......................|.......................|.......................|.......................|E-4....................|.......................|.......................|.......................|.......................|.......................|
.......................|.......................|.......................|.......................|F-4....0340............|.......................|.......................|.......................|.......................|.......................|
.......................|.......................|.......................|.......................|.......................|.......................|.......................|.......................|.......................|.......................|
.......................|.......................|.......................|.......................|.......................|.......................|.......................|.......................|.......................|.......................|
.......................|.......................|.......................|.......................|.......................|.......................|.......................|.......................|.......................|.......................|
.......................|.......................|.......................|.......................|.......................|.......................|.......................|.......................|.......................|.......................|
.......................|.......................|.......................|.......................|===....................|.......................|.......................|===....................|.......................|.......................|
.......................|.......................|.......................|.......................|F-4....................|.......................|.......................|E-4....0400............|.......................|.......................|
.......................|.......................|.......................|.......................|G-4....0340............|.......................|.......................|.......................|.......................|.......................|
.......................|===....................|.......................|.......................|.......................|.......................|.......................|.......................|.......................|.......................|
.......................|C-3....................|.......................|.......................|.......................|C-4C0..................|.......................|.......................|.......................|.......................|
.......................|.......................|.......................|.......................|.......................|.......................|.......................|.......................|.......................|.......................|
.......................|.......................|.......................|.......................|.......................|.......................|.......................|.......................|.......................|.......................|
.......................|.......................|.......................|.......................|.......................|.......................|.......................|.......................|.......................|.......................|
.......................|.......................|.......................|.......................|.......................|.......................|.......................|.......................|.......................|.......................|
.......................|.......................|.......................|.......................|.......................|.......................|.......................|.......................|.......................|.......................|
.......E3000452........|===....................|.......E3000452........|===....E3000452........|.......................|.......................|===....0452............|.......................|.......................|.......................|
.......................|C-3....................|.......................|E-5....0400............|.......................|C-4C1..................|G-3....0400............|.......................|.......................|.......................|
.......................|.......................|.......................|.......................|.......................|.......................|.......................|.......................|.......................|.......................|
.......................|.......................|.......................|.......................|.......................|.......................|.......................|.......................|.......................|.......................|
.......................|.......................|.......................|.......................|.......................|.......................|.......................|.......................|.......................|.......................|
.......................|.......................|.......................|.......................|.......................|.......................|.......................|.......................|.......................|.......................|
.......................|.......................|.......................|.......................|.......................|.......................|.......................|.......................|.......................|.......................|
.......................|.......................|.......................|.......................|.......................|.......................|.......................|.......................|.......................|.......................|
.......................|.......................|.......................|.......................|.......................|.......................|.......................|.......................|.......................|.......................|
.......................|.......................|.......................|.......................|.......................|.......................|.......................|.......................|.......................|.......................|
.......................|.......................|.......................|.......................|.......................|.......................|.......................|.......................|.......................|.......................|
.......................|.......................|.......................|.......................|.......E3000452........|.......................|.......................|===....0452............|.......................|.......................|
.......................|.......................|.......................|.......................|.......................|.......................|.......................|G-3....0400............|.......................|.......................|
.......................|.......................|.......................|.......................|.......................|.......................|.......................|.......................|.......................|.......................|
.......................|===....................|.......................|===....................|.......................|.......................|===....................|.......................|.......................|.......................|
.......................|C-3....................|.......................|E-5....................|.......................|C-4C0..................|G-3....................|.......................|.......................|.......................|
.......................|.......................|.......................|.......................|.......................|.......................|.......................|.......................|.......................|.......................|
.......................|.......................|.......................|.......................|.......................|.......................|.......................|.......................|.......................|.......................|
.......................|.......................|.......................|.......................|.......................|.......................|.......................|.......................|.......................|.......................|
.......................|.......................|.......................|.......................|.......................|.......................|.......................|.......................|.......................|.......................|
.......................|.......................|.......................|.......................|.......................|.......................|.......................|.......................|.......................|.......................|
===....................|===....................|===....................|===....................|.......................|.......................|===....................|.......................|.......................|.......................|
===....................|C-3....................|===....................|C-0....................|.......................|C-4C0..................|E-4....................|.......................|.......................|.......................|
.......................|.......................|.......................|.......................|.......................|.......................|.......................|.......................|.......................|.......................|
org.tildearrow.furnace - Pattern Data (219)
0
.......................|.......................|.......................|.......................|.......................|.......................|.......................|.......................|.......................|.......................|
.......................|.......................|.......................|.......................|.......................|.......................|.......................|===....................|.......................|.......................|
.......................|.......................|.......................|.......................|.......................|.......................|.......................|G-3....................|.......................|.......................|
.......................|.......................|.......................|.......................|.......................|.......................|.......................|.......................|.......................|.......................|
.......................|.......................|.......................|.......................|.......................|.......................|.......................|.......................|.......................|.......................|
.......................|.......................|.......................|.......................|.......................|.......................|.......................|.......................|.......................|.......................|
.......................|.......................|.......................|.......................|.......................|.......................|.......................|.......................|.......................|.......................|
.......................|.......................|.......................|.......................|.......................|.......................|.......................|.......................|.......................|.......................|
.......................|.......................|.......................|.......................|===....................|.......................|.......................|===....................|.......................|.......................|
.......................|.......................|.......................|.......................|===....................|.......................|.......................|E-4....................|.......................|.......................|
.......................|.......................|.......................|.......................|.......................|.......................|.......................|.......................|.......................|.......................|
.......................|===....................|.......................|.......................|.......................|.......................|.......................|.......................|.......................|.......................|
.......................|C-3....................|.......................|.......................|.......................|C-4C0..................|.......................|.......................|.......................|.......................|
.......................|.......................|.......................|.......................|.......................|.......................|.......................|.......................|.......................|.......................|
.......................|.......................|.......................|.......................|.......................|.......................|.......................|.......................|.......................|.......................|
.......................|.......................|.......................|.......................|.......................|.......................|.......................|.......................|.......................|.......................|
.......................|.......................|.......................|.......................|.......................|.......................|.......................|.......................|.......................|.......................|
.......................|.......................|.......................|.......................|.......................|.......................|.......................|.......................|.......................|.......................|
.......................|===....................|.......................|.......E3000452........|.......................|.......................|.......0452............|.......................|.......................|.......................|
G-4....0400............|C-3....................|E-4....0400............|.......................|.......................|C-4C1..................|.......................|.......................|.......................|.......................|
.......................|.......................|.......................|.......................|.......................|.......................|.......................|.......................|.......................|.......................|
.......................|.......................|.......................|.......................|.......................|.......................|.......................|.......................|.......................|.......................|
.......................|.......................|.......................|.......................|.......................|.......................|.......................|.......................|.......................|.......................|
.......................|.......................|.......................|.......................|.......................|.......................|.......................|.......................|.......................|.......................|
.......................|.......................|.......................|.......................|.......................|.......................|.......................|.......................|.......................|.......................|
===....................|===....................|===....................|.......................|.......................|.......................|.......................|.......................|.......................|.......................|
F-4....................|C-3....................|C-4....................|.......................|.......................|C-4C0..................|.......................|.......................|.......................|.......................|
.......................|.......................|.......................|.......................|.......................|.......................|.......................|.......................|.......................|.......................|
.......................|.......................|.......................|.......................|.......................|.......................|.......................|.......................|.......................|.......................|
.......................|.......................|.......................|.......................|.......................|.......................|.......................|.......0452............|.......................|.......................|
.......................|.......................|.......................|.......................|G-4....0400............|.......................|.......................|.......................|.......................|.......................|
.......................|.......................|.......................|.......................|.......................|.......................|.......................|.......................|.......................|.......................|
===....................|===....................|===....................|.......................|.......................|.......................|.......................|.......................|.......................|.......................|
G-4....................|C-3....................|E-4....................|.......................|.......................|C-4C0..................|.......................|.......................|.......................|.......................|
.......................|.......................|.......................|.......................|.......................|.......................|.......................|.......................|.......................|.......................|
.......................|.......................|.......................|.......................|.......................|.......................|.......................|.......................|.......................|.......................|
.......................|.......................|.......................|.......................|===....................|.......................|.......................|.......................|.......................|.......................|
.......................|.......................|.......................|.......................|G-4....................|.......................|.......................|.......................|.......................|.......................|
.......................|.......................|.......................|.......................|F-4....0340............|.......................|.......................|.......................|.......................|.......................|
===....................|===....................|===....................|===....................|.......................|.......................|===....................|.......................|.......................|.......................|
A-4....................|G-2....................|E-4....................|C-0....0400............|.......................|C-4C2..8000............|E-4....0400............|.......................|.......................|.......................|
.......................|.......................|.......................|.......................|.......................|.......................|.......................|.......................|.......................|.......................|
.......................|.......................|.......................|.......................|.......................|.......................|.......................|.......................|.......................|.......................|
.......................|.......................|.......................|.......................|===....................|.......................|.......................|.......................|.......................|.......................|
.......................|.......................|.......................|.......................|F-4....................|.......................|.......................|.......................|.......................|.......................|
.......................|.......................|.......................|.......................|G-4....0340............|.......................|.......................|.......................|.......................|.......................|
.......................|.......................|.......................|===....................|.......................|.......................|===....................|.......................|.......................|.......................|
.......................|.......................|.......................|D-5....................|.......................|C-4C2..................|G-3....................|.......................|.......................|.......................|
.......................|.......................|.......................|.......................|.......................|.......................|.......................|.......................|.......................|.......................|
.......................|.......................|.......................|.......................|.......................|.......................|.......................|.......................|.......................|.......................|
.......................|.......................|.......................|.......................|===....................|.......................|.......................|===....................|.......................|.......................|
.......................|.......................|.......................|.......................|G-4....................|.......................|.......................|E-4....0400............|.......................|.......................|
.......................|.......................|.......................|.......................|A-4....0340............|.......................|.......................|.......................|.......................|.......................|
.......................|===....................|.......................|===....................|.......................|.......................|===....................|.......................|.......................|.......................|
.......................|G-2....................|.......................|D-5....................|.......................|C-4C2..................|G-3....................|.......................|.......................|.......................|
.......................|.......................|.......................|.......................|.......................|.......................|.......................|.......................|.......................|.......................|
.......................|.......................|.......................|.......................|.......................|.......................|.......................|.......................|.......................|.......................|
.......................|.......................|.......................|.......................|.......................|.......................|.......................|===....................|.......................|.......................|
.......................|.......................|.......................|.......................|.......................|.......................|.......................|G-3....................|.......................|.......................|
.......................|.......................|.......................|.......................|.......................|.......................|.......................|.......................|.......................|.......................|
===....E3000452........|===....................|===....E3000452........|===....................|.......................|.......................|===....................|.......................|.......................|.......................|
G-4....0400............|G-2....................|D-4....0400............|C-0....................|.......................|C-4C3..8080............|D-4....................|.......................|.......................|.......................|
.......................|.......................|.......................|.......................|.......................|.......................|.......................|.......................|.......................|.......................|
.......................|.......................|.......................|.......................|.......................|.......................|.......................|.......................|.......................|.......................|
.......................|.......................|.......................|.......................|.......................|.......................|.......................|===....................|.......................|.......................|
.......................|.......................|.......................|.......................|.......................|.......................|.......................|G-3....................|.......................|.......................|
.......................|.......................|.......................|.......................|.......................|.......................|.......................|.......................|.......................|.......................|
.......................|.......................|.......................|===....................|.......................|.......................|===....................|.......................|.......................|.......................|
.......................|.......................|.......................|D-5....................|.......................|C-4C3..................|G-3....................|.......................|.......................|.......................|
.......................|.......................|.......................|.......................|.......................|.......................|.......................|.......................|.......................|.......................|
.......................|.......................|.......................|.......................|.......................|.......................|.......................|.......................|.......................|.......................|
.......................|.......................|.......................|.......................|===....E3000452........|.......................|.......................|===....................|.......................|.......................|
.......................|.......................|.......................|.......................|A-4....0400............|.......................|.......................|D-4....................|.......................|.......................|
.......................|.......................|.......................|.......................|G-4....0340............|.......................|.......................|.......................|.......................|.......................|
.......................|===....................|.......................|===....................|.......................|.......................|===....................|.......................|.......................|.......................|
.......................|G-2....................|.......................|D-5....................|.......................|C-4C3..................|G-3....................|.......................|.......................|.......................|
.......................|.......................|.......................|.......................|.......................|.......................|.......................|.......................|.......................|.......................|
.......................|.......................|.......................|.......................|.......................|.......................|.......................|.......................|.......................|.......................|
.......................|.......................|.......................|.......................|.......................|.......................|.......................|===....................|.......................|.......................|
.......................|.......................|.......................|.......................|.......................|.......................|.......................|G-3....................|.......................|.......................|
.......................|.......................|.......................|.......................|.......................|.......................|.......................|.......................|.......................|.......................|
===....E3000452........|===....................|===....E3000452........|===....................|.......................|.......................|===....................|.......................|.......................|.......................|
F-4....0400............|G-2....................|C-4....0400............|C-0....................|.......................|C-4C4..80FF............|C-4....................|.......................|.......................|.......................|
.......................|.......................|.......................|.......................|.......................|.......................|.......................|.......................|.......................|.......................|
.......................|.......................|.......................|.......................|.......................|.......................|.......................|.......................|.......................|.......................|
.......................|.......................|.......................|.......................|.......................|.......................|.......................|===....................|.......................|.......................|
.......................|.......................|.......................|.......................|.......................|.......................|.......................|G-3....................|.......................|.......................|
.......................|.......................|.......................|.......................|.......................|.......................|.......................|.......................|.......................|.......................|
.......................|.......................|.......................|===....................|.......................|.......................|===....................|.......................|.......................|.......................|
.......................|.......................|.......................|D-5....................|.......................|C-4C4..................|G-3....................|.......................|.......................|.......................|
.......................|.......................|.......................|.......................|.......................|.......................|.......................|.......................|.......................|.......................|
.......................|.......................|.......................|.......................|.......................|.......................|.......................|.......................|.......................|.......................|
.......................|.......................|.......................|.......................|===....E3000452........|.......................|.......................|===....................|.......................|.......................|
.......................|.......................|.......................|.......................|G-4....0400............|.......................|.......................|C-4....................|.......................|.......................|
.......................|.......................|.......................|.......................|F-4....0340............|.......................|.......................|.......................|.......................|.......................|
.......................|===....................|.......................|===....................|.......................|.......................|===....................|.......................|.......................|.......................|
.......................|G-2....................|.......................|D-5....................|.......................|C-4C4..................|G-3....................|.......................|.......................|.......................|
.......................|.......................|.......................|.......................|.......................|.......................|.......................|.......................|.......................|.......................|
.......................|.......................|.......................|.......................|.......................|.......................|.......................|.......................|.......................|.......................|
.......................|.......................|.......................|.......................|.......................|.......................|.......................|===....................|.......................|.......................|
.......................|.......................|.......................|.......................|.......................|.......................|.......................|G-3....................|.......................|.......................|
.......................|.......................|.......................|.......................|.......................|.......................|.......................|.......................|.......................|.......................|
===....E3000452........|===....................|===....E3000452........|===....................|.......................|.......................|===....................|.......................|.......................|.......................|
E-4....0400............|G-2....................|B-3....0400............|C-0....................|.......................|C-4C1..8080............|B-3....................|.......................|.......................|.......................|
.......................|.......................|.......................|.......................|.......................|.......................|.......................|.......................|.......................|.......................|
.......................|.......................|.......................|.......................|.......................|.......................|.......................|.......................|.......................|.......................|
.......................|.......................|.......................|.......................|.......................|.......................|.......................|===....................|.......................|.......................|
.......................|.......................|.......................|.......................|.......................|.......................|.......................|G-3....................|.......................|.......................|
.......................|.......................|.......................|.......................|.......................|.......................|.......................|.......................|.......................|.......................|
.......................|===....................|.......................|===....................|.......................|.......................|===....................|.......................|.......................|.......................|
.......................|G-2....................|.......................|D-5....................|.......................|C-4C1..................|G-3....................|.......................|.......................|.......................|
.......................|.......................|.......................|.......................|.......................|.......................|.......................|.......................|.......................|.......................|
.......................|.......................|.......................|.......................|.......................|.......................|.......................|.......................|.......................|.......................|
.......................|.......................|.......................|.......................|===....E3000452........|.......................|.......................|===....................|.......................|.......................|
.......................|.......................|.......................|.......................|F-4....0400............|.......................|.......................|B-3....................|.......................|.......................|
.......................|.......................|.......................|.......................|E-4....0340............|.......................|.......................|.......................|.......................|.......................|
.......................|===....................|.......................|===....................|.......................|.......................|===....................|.......................|.......................|.......................|
.......................|G-2....................|.......................|D-5....................|.......................|C-4C1..................|G-3....................|.......................|.......................|.......................|
.......................|.......................|.......................|.......................|.......................|.......................|.......................|.......................|.......................|.......................|
.......................|.......................|.......................|.......................|.......................|.......................|.......................|.......................|.......................|.......................|
.......................|.......................|.......................|.......................|.......................|.......................|.......................|===....................|.......................|.......................|
.......................|.......................|.......................|.......................|.......................|.......................|.......................|G-3....................|.......................|.......................|
.......................|.......................|.......................|.......................|.......................|.......................|.......................|.......................|.......................|.......................|
===....E3000452........|===....................|===....E3000452........|===....................|.......................|.......................|===....................|.......................|.......................|.......................|
D-3....0400............|D-3....................|A-3167480000400........|A-2396B................|.......................|C-4C0..................|===..00................|.......................|.......................|.......................|
.......................|.......................|A-2....EAFF0303........|.......................|.......................|.......................|.......................|.......................|.......................|.......................|
.......................|.......................|.......................|.......................|.......................|.......................|.......................|.......................|.......................|.......................|
.......................|.......................|.......................|.......................|.......................|.......................|.......................|===....................|.......................|.......................|
.......................|.......................|.......................|.......................|.......................|.......................|.......................|G-3....................|.......................|.......................|
.......................|.......................|.......................|.......................|.......................|.......................|.......................|.......................|.......................|.......................|
.......................|.......................|.......................|.......................|.......................|.......................|.......................|.......................|.......................|.......................|
.......................|.......................|.......................|.......................|.......................|.......................|.......................|.......................|.......................|.......................|
.......................|.......................|.......................|.......................|.......................|.......................|.......................|.......................|.......................|.......................|
.......................|.......................|.......................|.......................|.......................|.......................|.......................|.......................|.......................|.......................|
.......................|.......................|.......................|.......................|===....E3000452........|.......................|.......................|===....................|.......................|.......................|
.......................|.......................|.......................|.......................|A-3166F80000400........|.......................|.......................|===..00................|.......................|.......................|
.......................|.......................|.......................|.......................|A-2....EAFF0303........|.......................|.......................|.......................|.......................|.......................|
.......................|===....................|.......................|.......................|.......................|.......................|.......................|.......................|.......................|.......................|
.......................|D-3....................|.......................|.......................|.......................|.......................|.......................|.......................|.......................|.......................|
.......................|.......................|.......................|.......................|.......................|.......................|.......................|.......................|.......................|.......................|
.......................|.......................|.......................|.......................|.......................|.......................|.......................|.......................|.......................|.......................|
.......................|.......................|.......................|.......................|.......................|.......................|.......................|.......................|.......................|.......................|
.......................|.......................|.......................|.......................|.......................|.......................|.......................|.......................|.......................|.......................|
.......................|.......................|.......................|.......................|.......................|.......................|.......................|.......................|.......................|.......................|
.......E3000452........|===....................|.......E3000452........|.......E3000452........|.......................|.......................|.......................|.......................|.......................|.......................|
.......................|D-3....................|.......................|.......................|.......................|C-4C1..................|.......................|.......................|.......................|.......................|
.......................|.......................|.......................|.......................|.......................|.......................|.......................|.......................|.......................|.......................|
.......................|.......................|.......................|.......................|.......................|.......................|.......................|.......................|.......................|.......................|
.......................|.......................|.......................|.......................|.......................|.......................|.......................|.......................|.......................|.......................|
.......................|.......................|.......................|.......................|.......................|.......................|.......................|.......................|.......................|.......................|
.......................|.......................|.......................|.......................|.......................|.......................|.......................|.......................|.......................|.......................|
.......................|.......................|.......................|.......................|.......................|.......................|.......................|.......................|.......................|.......................|
.......................|.......................|.......................|.......................|.......................|.......................|.......................|.......................|.......................|.......................|
.......................|.......................|.......................|.......................|.......................|.......................|.......................|.......................|.......................|.......................|
.......................|.......................|.......................|.......................|.......................|.......................|.......................|.......................|.......................|.......................|
.......................|.......................|.......................|.......................|.......E3000452........|.......................|.......................|.......................|.......................|.......................|
.......................|.......................|.......................|.......................|.......................|.......................|.......................|.......................|.......................|.......................|
.......................|.......................|.......................|.......................|.......................|.......................|.......................|.......................|.......................|.......................|
.......................|===....................|.......................|.......................|.......................|.......................|.......................|.......................|.......................|.......................|
.......................|D-3....................|.......................|.......................|.......................|.......................|.......................|.......................|.......................|.......................|
.......................|.......................|.......................|.......................|.......................|.......................|.......................|.......................|.......................|.......................|
.......................|.......................|.......................|.......................|.......................|.......................|.......................|.......................|.......................|.......................|
.......................|.......................|.......................|.......................|.......................|.......................|.......................|.......................|.......................|.......................|
.......................|.......................|.......................|.......................|.......................|.......................|.......................|.......................|.......................|.......................|
.......................|.......................|.......................|.......................|.......................|.......................|.......................|.......................|.......................|.......................|
.......................|===....................|.......................|.......................|.......................|.......................|.......................|.......................|.......................|.......................|
.......................|D-3....................|.......................|.......................|.......................|C-4C0..................|.......................|.......................|.......................|.......................|
.......................|.......................|.......................|.......................|.......................|.......................|.......................|.......................|.......................|.......................|
.......................|.......................|.......................|.......................|.......................|.......................|.......................|.......................|.......................|.......................|
.......................|.......................|.......................|.......................|.......................|.......................|.......................|.......................|.......................|.......................|
.......................|.......................|.......................|.......................|.......................|.......................|.......................|.......................|.......................|.......................|
.......................|.......................|.......................|.......................|.......................|.......................|.......................|.......................|.......................|.......................|
.......................|.......................|.......................|.......................|.......................|.......................|.......................|.......................|.......................|.......................|
.......................|.......................|.......................|.......................|.......................|.......................|.......................|.......................|.......................|.......................|
.......................|.......................|.......................|.......................|.......................|.......................|.......................|.......................|.......................|.......................|
.......................|.......................|.......................|.......................|.......................|.......................|.......................|.......................|.......................|.......................|
.......................|.......................|.......................|.......................|.......................|.......................|.......................|.......................|.......................|.......................|
.......................|.......................|.......................|.......................|.......................|.......................|.......................|.......................|.......................|.......................|
.......................|.......................|.......................|.......................|.......................|.......................|.......................|.......................|.......................|.......................|
.......................|===....................|.......................|.......................|.......................|.......................|.......................|.......................|.......................|.......................|
.......................|D-3....................|.......................|.......................|.......................|C-4C0..................|.......................|.......................|.......................|.......................|
.......................|.......................|.......................|.......................|.......................|.......................|.......................|.......................|.......................|.......................|
.......................|.......................|.......................|.......................|.......................|.......................|.......................|.......................|.......................|.......................|
.......................|.......................|.......................|.......................|.......................|.......................|.......................|.......................|.......................|.......................|
.......................|.......................|.......................|.......................|.......................|.......................|.......................|.......................|.......................|.......................|
.......................|.......................|.......................|.......................|.......................|.......................|.......................|.......................|.......................|.......................|
===....................|===....................|.......................|===....................|.......................|.......................|.......................|.......................|.......................|.......................|
E-3....0400............|D-3....................|.......................|B-2....0400............|.......................|C-4C1..................|.......................|.......................|.......................|.......................|
.......................|.......................|.......................|.......................|.......................|.......................|.......................|.......................|.......................|.......................|
.......................|.......................|.......................|.......................|.......................|.......................|.......................|.......................|.......................|.......................|
.......................|.......................|.......................|.......................|.......................|.......................|.......................|.......................|.......................|.......................|
.......................|.......................|.......................|.......................|.......................|.......................|.......................|.......................|.......................|.......................|
.......................|.......................|.......................|.......................|.......................|.......................|.......................|.......................|.......................|.......................|
===....................|===....................|.......................|===....................|.......................|.......................|.......................|.......................|.......................|.......................|
D-3....................|D-3....................|.......................|A-2....................|.......................|.......................|.......................|.......................|.......................|.......................|
.......................|.......................|.......................|.......................|.......................|.......................|.......................|.......................|.......................|.......................|
.......................|.......................|.......................|.......................|.......................|.......................|.......................|.......................|.......................|.......................|
.......................|.......................|.......................|.......................|.......................|.......................|.......................|.......................|.......................|.......................|
.......................|.......................|.......................|.......................|.......................|.......................|.......................|.......................|.......................|.......................|
.......................|.......................|.......................|.......................|.......................|.......................|.......................|.......................|.......................|.......................|
===....................|===....................|.......................|===....................|.......................|.......................|.......................|.......................|.......................|.......................|
E-3....................|D-3....................|.......................|B-2....................|.......................|.......................|.......................|.......................|.......................|.......................|
.......................|.......................|.......................|.......................|.......................|.......................|.......................|.......................|.......................|.......................|
.......................|.......................|.......................|.......................|.......................|.......................|.......................|.......................|.......................|.......................|
.......................|.......................|.......................|.......................|.......................|.......................|.......................|.......................|.......................|.......................|
.......................|.......................|.......................|.......................|.......................|.......................|.......................|.......................|.......................|.......................|
.......................|.......................|.......................|.......................|.......................|.......................|.......................|.......................|.......................|.......................|
===....................|===....................|===....................|===....................|.......................|.......................|.......................|.......................|.......................|.......................|
F-3....................|F-2....................|A-2....80FFEA000400....|C-3....................|.......................|C-4C0..................|.......................|.......................|.......................|.......................|
.......................|.......................|C-1....EAFF0303........|.......................|.......................|.......................|.......................|.......................|.......................|.......................|
.......................|.......................|.......................|.......................|.......................|.......................|.......................|.......................|.......................|.......................|
.......................|.......................|.......................|.......................|.......................|.......................|.......................|.......................|.......................|.......................|
.......................|.......................|.......................|.......................|.......................|.......................|.......................|.......................|.......................|.......................|
.......................|.......................|.......................|.......................|.......................|.......................|.......................|.......................|.......................|.......................|
.......................|.......................|.......................|.......................|.......................|.......................|.......................|.......................|.......................|.......................|
.......................|.......................|.......................|.......................|.......................|.......................|.......................|.......................|.......................|.......................|
.......................|.......................|.......................|.......................|.......................|.......................|.......................|.......................|.......................|.......................|
.......................|.......................|.......................|.......................|.......................|.......................|.......................|.......................|.......................|.......................|
.......................|.......................|.......................|.......................|===....................|.......................|.......................|.......................|.......................|.......................|
.......................|.......................|.......................|.......................|A-2....80FFEA000400....|.......................|.......................|.......................|.......................|.......................|
.......................|.......................|.......................|.......................|C-1....EAFF0303........|.......................|.......................|.......................|.......................|.......................|
.......................|===....................|.......................|.......................|.......................|.......................|.......................|.......................|.......................|.......................|
.......................|F-2....................|.......................|.......................|.......................|.......................|.......................|.......................|.......................|.......................|
.......................|.......................|.......................|.......................|.......................|.......................|.......................|.......................|.......................|.......................|
.......................|.......................|.......................|.......................|.......................|.......................|.......................|.......................|.......................|.......................|
.......................|.......................|.......................|.......................|.......................|.......................|.......................|.......................|.......................|.......................|
.......................|.......................|.......................|.......................|.......................|.......................|.......................|.......................|.......................|.......................|
.......................|.......................|.......................|.......................|.......................|.......................|.......................|.......................|.......................|.......................|
.......E3000452........|===....................|.......E3000452........|.......E3000452........|.......................|.......................|.......................|.......................|.......................|.......................|
.......................|F-2....................|.......................|.......................|.......................|C-4C1..................|.......................|.......................|.......................|.......................|
.......................|.......................|.......................|.......................|.......................|.......................|.......................|.......................|.......................|.......................|
.......................|.......................|.......................|.......................|.......................|.......................|.......................|.......................|.......................|.......................|
.......................|.......................|.......................|.......................|.......................|.......................|.......................|.......................|.......................|.......................|
.......................|.......................|.......................|.......................|.......................|.......................|.......................|.......................|.......................|.......................|
.......................|.......................|.......................|.......................|.......................|.......................|.......................|.......................|.......................|.......................|
.......................|.......................|.......................|.......................|.......................|.......................|.......................|.......................|.......................|.......................|
.......................|.......................|.......................|.......................|.......................|.......................|.......................|.......................|.......................|.......................|
.......................|.......................|.......................|.......................|.......................|.......................|.......................|.......................|.......................|.......................|
.......................|.......................|.......................|.......................|.......................|.......................|.......................|.......................|.......................|.......................|
.......................|.......................|.......................|.......................|.......E3000452........|.......................|.......................|.......................|.......................|.......................|
.......................|.......................|.......................|.......................|.......................|.......................|.......................|.......................|.......................|.......................|
.......................|.......................|.......................|.......................|.......................|.......................|.......................|.......................|.......................|.......................|
.......................|===....................|.......................|.......................|.......................|.......................|.......................|.......................|.......................|.......................|
.......................|F-2....................|.......................|.......................|.......................|C-4C0..................|.......................|.......................|.......................|.......................|
.......................|.......................|.......................|.......................|.......................|.......................|.......................|.......................|.......................|.......................|
.......................|.......................|.......................|.......................|.......................|.......................|.......................|.......................|.......................|.......................|
.......................|.......................|.......................|.......................|.......................|.......................|.......................|.......................|.......................|.......................|
.......................|.......................|.......................|.......................|.......................|.......................|.......................|.......................|.......................|.......................|
.......................|.......................|.......................|.......................|.......................|.......................|.......................|.......................|.......................|.......................|
.......................|===....................|.......................|.......................|.......................|.......................|.......................|.......................|.......................|.......................|
.......................|F-2....................|.......................|.......................|.......................|.......................|.......................|.......................|.......................|.......................|
.......................|.......................|.......................|.......................|.......................|.......................|.......................|.......................|.......................|.......................|
.......................|.......................|.......................|.......................|.......................|.......................|.......................|.......................|.......................|.......................|
.......................|.......................|.......................|.......................|.......................|.......................|.......................|.......................|.......................|.......................|
.......................|.......................|.......................|.......................|.......................|.......................|.......................|.......................|.......................|.......................|
.......................|.......................|.......................|.......................|.......................|.......................|.......................|.......................|.......................|.......................|
org.tildearrow.furnace - Pattern Data (219)
0
.......................|.......................|.......................|.......................|.......................|.......................|.......................|.......................|.......................|.......................|
.......................|.......................|.......................|.......................|.......................|.......................|.......................|.......................|.......................|.......................|
.......................|.......................|.......................|.......................|.......................|.......................|.......................|.......................|.......................|.......................|
.......................|.......................|.......................|.......................|.......................|.......................|.......................|.......................|.......................|.......................|
.......................|.......................|.......................|.......................|.......................|.......................|.......................|.......................|.......................|.......................|
.......................|.......................|.......................|.......................|.......................|.......................|.......................|.......................|.......................|.......................|
.......................|.......................|.......................|.......................|.......................|.......................|.......................|.......................|.......................|.......................|
.......................|===....................|.......................|.......................|.......................|.......................|.......................|.......................|.......................|.......................|
.......................|F-2....................|.......................|.......................|.......................|C-4C0..................|.......................|.......................|.......................|.......................|
.......................|.......................|.......................|.......................|.......................|.......................|.......................|.......................|.......................|.......................|
.......................|.......................|.......................|.......................|.......................|.......................|.......................|.......................|.......................|.......................|
.......................|.......................|.......................|.......................|.......................|.......................|.......................|.......................|.......................|.......................|
.......................|.......................|.......................|.......................|.......................|.......................|.......................|.......................|.......................|.......................|
.......................|.......................|.......................|.......................|.......................|.......................|.......................|.......................|.......................|.......................|
===....................|===....................|.......................|===....................|.......................|.......................|.......................|.......................|.......................|.......................|
F-3....0400............|F-2....................|.......................|C-3....0400............|.......................|C-4C1..................|.......................|.......................|.......................|.......................|
.......................|.......................|.......................|.......................|.......................|.......................|.......................|.......................|.......................|.......................|
.......................|.......................|.......................|.......................|.......................|.......................|.......................|.......................|.......................|.......................|
.......................|.......................|.......................|.......................|.......................|.......................|.......................|.......................|.......................|.......................|
.......................|.......................|.......................|.......................|.......................|.......................|.......................|.......................|.......................|.......................|
.......................|.......................|.......................|.......................|.......................|.......................|.......................|.......................|.......................|.......................|
===....................|===....................|.......................|===....................|.......................|.......................|.......................|.......................|.......................|.......................|
E-3....................|F-2....................|.......................|B-2....................|.......................|.......................|.......................|.......................|.......................|.......................|
.......................|.......................|.......................|.......................|.......................|.......................|.......................|.......................|.......................|.......................|
.......................|.......................|.......................|.......................|.......................|.......................|.......................|.......................|.......................|.......................|
.......................|.......................|.......................|.......................|.......................|.......................|.......................|.......................|.......................|.......................|
.......................|.......................|.......................|.......................|.......................|.......................|.......................|.......................|.......................|.......................|
.......................|.......................|.......................|.......................|.......................|.......................|.......................|.......................|.......................|.......................|
===....................|===....................|.......................|===....................|.......................|.......................|.......................|.......................|.......................|.......................|
F-3....................|F-2....................|.......................|C-3....................|.......................|.......................|.......................|.......................|.......................|.......................|
.......................|.......................|.......................|.......................|.......................|.......................|.......................|.......................|.......................|.......................|
.......................|.......................|.......................|.......................|.......................|.......................|.......................|.......................|.......................|.......................|
.......................|.......................|.......................|.......................|.......................|.......................|.......................|.......................|.......................|.......................|
.......................|.......................|.......................|.......................|.......................|.......................|.......................|.......................|.......................|.......................|
.......................|.......................|.......................|.......................|.......................|.......................|.......................|.......................|.......................|.......................|
===....................|===....................|===....................|===....................|.......................|.......................|.......................|.......................|.......................|.......................|
G-3....................|C-3....................|C-1....8000EA000400....|E-3....................|.......................|C-4C0..................|===....................|.......................|.......................|.......................|
.......................|.......................|D-4....0340............|.......................|.......................|.......................|.......................|.......................|.......................|.......................|
.......................|.......................|.......................|.......................|.......................|.......................|.......................|.......................|.......................|.......................|
.......................|.......................|===....................|.......................|.......................|.......................|.......................|.......................|.......................|.......................|
.......................|.......................|D-4....................|.......................|.......................|.......................|.......................|.......................|.......................|.......................|
.......................|.......................|.......................|.......................|.......................|.......................|.......................|.......................|.......................|.......................|
.......................|.......................|===....................|.......................|.......................|.......................|.......................|.......................|.......................|.......................|
.......................|.......................|D-4....................|.......................|.......................|.......................|.......................|.......................|.......................|.......................|
.......................|.......................|.......................|.......................|.......................|.......................|.......................|.......................|.......................|.......................|
.......................|.......................|.......................|.......................|.......................|.......................|.......................|.......................|.......................|.......................|
.......................|.......................|===....................|.......................|===....................|.......................|.......................|.......................|.......................|.......................|
.......................|.......................|D-4....................|.......................|C-1....8000EA000400....|.......................|.......................|===....................|.......................|.......................|
.......................|.......................|.......................|.......................|D-4....0340............|.......................|.......................|.......................|.......................|.......................|
.......................|===....................|===....................|.......................|.......................|.......................|.......................|.......................|.......................|.......................|
.......................|C-3....................|D-4....................|.......................|===....................|.......................|.......................|.......................|.......................|.......................|
.......................|.......................|.......................|.......................|D-4....................|.......................|.......................|.......................|.......................|.......................|
.......................|.......................|.......................|.......................|.......................|.......................|.......................|.......................|.......................|.......................|
.......................|.......................|===....................|.......................|===....................|.......................|.......................|.......................|.......................|.......................|
.......................|.......................|D-4....................|.......................|D-4....................|.......................|.......................|.......................|.......................|.......................|
.......................|.......................|.......................|.......................|.......................|.......................|.......................|.......................|.......................|.......................|
.......E3000452........|===....................|===....................|.......E3000452........|.......................|.......................|.......................|.......................|.......................|.......................|
.......................|C-3....................|D-4....................|.......................|===....................|C-4C1..................|.......................|.......................|.......................|.......................|
.......................|.......................|.......................|.......................|D-4....................|.......................|.......................|.......................|.......................|.......................|
.......................|.......................|.......................|.......................|.......................|.......................|.......................|.......................|.......................|.......................|
.......................|.......................|===....................|.......................|===....................|.......................|.......................|.......................|.......................|.......................|
.......................|.......................|D-4....................|.......................|D-4....................|.......................|.......................|.......................|.......................|.......................|
.......................|.......................|.......................|.......................|.......................|.......................|.......................|.......................|.......................|.......................|
.......................|.......................|===....................|.......................|.......................|.......................|.......................|.......................|.......................|.......................|
.......................|.......................|D-4....................|.......................|===....................|.......................|.......................|.......................|.......................|.......................|
.......................|.......................|.......................|.......................|D-4....................|.......................|.......................|.......................|.......................|.......................|
.......................|.......................|.......................|.......................|.......................|.......................|.......................|.......................|.......................|.......................|
.......................|.......................|===....................|.......................|===....................|.......................|.......................|.......................|.......................|.......................|
.......................|.......................|D-4....................|.......................|D-4....................|.......................|.......................|.......................|.......................|.......................|
.......................|.......................|.......................|.......................|.......................|.......................|.......................|.......................|.......................|.......................|
.......................|===....................|===....................|.......................|.......................|.......................|.......................|.......................|.......................|.......................|
.......................|C-3....................|D-4....................|.......................|===....................|.......................|.......................|.......................|.......................|.......................|
.......................|.......................|.......................|.......................|D-4....................|.......................|.......................|.......................|.......................|.......................|
.......................|.......................|.......................|.......................|.......................|.......................|.......................|.......................|.......................|.......................|
.......................|.......................|===....................|.......................|===....................|.......................|.......................|.......................|.......................|.......................|
.......................|.......................|D-4....................|.......................|D-4....................|.......................|.......................|.......................|.......................|.......................|
.......................|.......................|.......................|.......................|.......................|.......................|.......................|.......................|.......................|.......................|
.......................|===....................|===....................|.......................|.......................|.......................|.......................|.......................|.......................|.......................|
.......................|C-3....................|D-4....................|.......................|===....................|C-4C0..................|.......................|.......................|.......................|.......................|
.......................|.......................|.......................|.......................|D-4....................|.......................|.......................|.......................|.......................|.......................|
.......................|.......................|.......................|.......................|.......................|.......................|.......................|.......................|.......................|.......................|
.......................|.......................|===....................|.......................|===....................|.......................|.......................|.......................|.......................|.......................|
.......................|.......................|D-4....................|.......................|D-4....................|.......................|.......................|.......................|.......................|.......................|
.......................|.......................|.......................|.......................|.......................|.......................|.......................|.......................|.......................|.......................|
.......................|.......................|===....................|.......................|.......................|.......................|.......................|.......................|.......................|.......................|
.......................|.......................|D-4....................|.......................|===....................|.......................|.......................|.......................|.......................|.......................|
.......................|.......................|.......................|.......................|D-4....................|.......................|.......................|.......................|.......................|.......................|
.......................|.......................|.......................|.......................|.......................|.......................|.......................|.......................|.......................|.......................|
.......................|.......................|===....................|.......................|===....................|.......................|.......................|.......................|.......................|.......................|
.......................|.......................|D-4....................|.......................|D-4....................|.......................|.......................|.......................|.......................|.......................|
.......................|.......................|.......................|.......................|.......................|.......................|.......................|.......................|.......................|.......................|
.......................|===....................|===....................|.......................|.......................|.......................|.......................|.......................|.......................|.......................|
.......................|C-3....................|D-4....................|.......................|===....................|C-4C0..................|.......................|.......................|.......................|.......................|
.......................|.......................|.......................|.......................|D-4....................|.......................|.......................|.......................|.......................|.......................|
.......................|.......................|.......................|.......................|.......................|.......................|.......................|.......................|.......................|.......................|
.......................|.......................|===....................|.......................|===....................|.......................|.......................|.......................|.......................|.......................|
.......................|.......................|D-4....................|.......................|D-4....................|.......................|.......................|.......................|.......................|.......................|
.......................|.......................|.......................|.......................|.......................|.......................|.......................|.......................|.......................|.......................|
===....................|===....................|===....................|===....................|.......................|.......................|.......................|.......................|.......................|.......................|
G-3....0400............|C-3....................|D-4....................|E-3....0400............|===....................|C-4C1..................|.......................|.......................|.......................|.......................|
.......................|.......................|.......................|.......................|D-4....................|.......................|.......................|.......................|.......................|.......................|
.......................|.......................|.......................|.......................|.......................|.......................|.......................|.......................|.......................|.......................|
.......................|.......................|===....................|.......................|===....................|.......................|.......................|.......................|.......................|.......................|
.......................|.......................|D-4....................|.......................|D-4....................|.......................|.......................|.......................|.......................|.......................|
.......................|.......................|.......................|.......................|.......................|.......................|.......................|.......................|.......................|.......................|
===....................|===....................|===....................|===....................|.......................|.......................|.......................|.......................|.......................|.......................|
F-3....................|C-3....................|D-4....................|C-3....................|===....................|.......................|.......................|.......................|.......................|.......................|
.......................|.......................|.......................|.......................|D-4....................|.......................|.......................|.......................|.......................|.......................|
.......................|.......................|.......................|.......................|.......................|.......................|.......................|.......................|.......................|.......................|
.......................|.......................|===....................|.......................|===....................|.......................|.......................|.......................|.......................|.......................|
.......................|.......................|D-4....................|.......................|D-4....................|.......................|.......................|.......................|.......................|.......................|
.......................|.......................|.......................|.......................|.......................|.......................|.......................|.......................|.......................|.......................|
===....................|===....................|===....................|===....................|.......................|.......................|.......................|.......................|.......................|.......................|
G-3....................|C-3....................|D-4....................|E-3....................|===....................|.......................|.......................|.......................|.......................|.......................|
.......................|.......................|.......................|.......................|D-4....................|.......................|.......................|.......................|.......................|.......................|
.......................|.......................|.......................|.......................|.......................|.......................|.......................|.......................|.......................|.......................|
.......................|.......................|===....................|.......................|===....................|.......................|.......................|.......................|.......................|.......................|
.......................|.......................|D-4....................|.......................|D-4....................|.......................|.......................|.......................|.......................|.......................|
.......................|.......................|.......................|.......................|.......................|.......................|.......................|.......................|.......................|.......................|
===....................|===....................|===....................|===....................|.......................|.......................|.......................|.......................|.......................|.......................|
A-3....................|G-2....................|D-5....80FF............|E-3....................|===....................|C-4C1..................|.......................|.......................|.......................|.......................|
.......................|.......................|.......................|.......................|D-4....................|.......................|.......................|.......................|.......................|.......................|
.......................|.......................|.......................|.......................|.......................|.......................|.......................|.......................|.......................|.......................|
.......................|.......................|===....................|.......................|===....................|.......................|.......................|.......................|.......................|.......................|
.......................|.......................|D-5....................|.......................|D-4....................|.......................|.......................|.......................|.......................|.......................|
.......................|.......................|.......................|.......................|.......................|.......................|.......................|.......................|.......................|.......................|
.......................|.......................|===....................|.......................|.......................|.......................|.......................|.......................|.......................|.......................|
.......................|.......................|D-5....................|.......................|===....................|C-4C0..................|.......................|.......................|.......................|.......................|
.......................|.......................|.......................|.......................|D-4....................|.......................|.......................|.......................|.......................|.......................|
.......................|.......................|.......................|.......................|.......................|.......................|.......................|.......................|.......................|.......................|
.......................|.......................|===....................|.......................|===....................|.......................|.......................|.......................|.......................|.......................|
.......................|.......................|D-5....................|.......................|D-5....80FF............|.......................|.......................|.......................|.......................|.......................|
.......................|.......................|.......................|.......................|.......................|.......................|.......................|.......................|.......................|.......................|
.......................|===....................|===....................|.......................|.......................|.......................|.......................|.......................|.......................|.......................|
.......................|G-2....................|D-5....................|.......................|===....................|C-4C0..................|.......................|.......................|.......................|.......................|
.......................|.......................|.......................|.......................|D-5....................|.......................|.......................|.......................|.......................|.......................|
.......................|.......................|.......................|.......................|.......................|.......................|.......................|.......................|.......................|.......................|
.......................|.......................|===....................|.......................|===....................|.......................|.......................|.......................|.......................|.......................|
.......................|.......................|D-5....................|.......................|D-5....................|.......................|.......................|.......................|.......................|.......................|
.......................|.......................|.......................|.......................|.......................|.......................|.......................|.......................|.......................|.......................|
===....E3000452........|===....................|===....................|===....E3000452........|.......................|.......................|.......................|.......................|.......................|.......................|
G-3....0400............|G-2....................|D-5....................|D-3....0400............|===....................|C-4C1..................|.......................|.......................|.......................|.......................|
.......................|.......................|.......................|.......................|D-5....................|.......................|.......................|.......................|.......................|.......................|
.......................|.......................|.......................|.......................|.......................|.......................|.......................|.......................|.......................|.......................|
.......................|.......................|===....................|.......................|===....................|.......................|.......................|.......................|.......................|.......................|
.......................|.......................|D-5....................|.......................|D-5....................|.......................|.......................|.......................|.......................|.......................|
.......................|.......................|.......................|.......................|.......................|.......................|.......................|.......................|.......................|.......................|
.......................|.......................|===....................|.......................|.......................|.......................|.......................|.......................|.......................|.......................|
.......................|.......................|D-5....................|.......................|===....................|C-4C0..................|.......................|.......................|.......................|.......................|
.......................|.......................|.......................|.......................|D-5....................|.......................|.......................|.......................|.......................|.......................|
.......................|.......................|.......................|.......................|.......................|.......................|.......................|.......................|.......................|.......................|
.......................|.......................|===....................|.......................|===....................|.......................|.......................|.......................|.......................|.......................|
.......................|.......................|D-5....................|.......................|D-5....................|.......................|.......................|.......................|.......................|.......................|
.......................|.......................|.......................|.......................|.......................|.......................|.......................|.......................|.......................|.......................|
.......................|===....................|===....................|.......................|.......................|.......................|.......................|.......................|.......................|.......................|
.......................|G-2....................|D-5....................|.......................|===....................|C-4C0..................|.......................|.......................|.......................|.......................|
.......................|.......................|.......................|.......................|D-5....................|.......................|.......................|.......................|.......................|.......................|
.......................|.......................|.......................|.......................|.......................|.......................|.......................|.......................|.......................|.......................|
.......................|.......................|===....................|.......................|===....................|.......................|.......................|.......................|.......................|.......................|
.......................|.......................|D-5....................|.......................|D-5....................|.......................|.......................|.......................|.......................|.......................|
.......................|.......................|.......................|.......................|.......................|.......................|.......................|.......................|.......................|.......................|
===....E3000452........|===....................|===....................|===....E3000452........|.......................|.......................|.......................|.......................|.......................|.......................|
F-3....0400............|G-2....................|D-5....................|C-3....0400............|===....................|C-4C1..................|.......................|.......................|.......................|.......................|
.......................|.......................|.......................|.......................|D-5....................|.......................|.......................|.......................|.......................|.......................|
.......................|.......................|.......................|.......................|.......................|.......................|.......................|.......................|.......................|.......................|
.......................|.......................|===....................|.......................|===....................|.......................|.......................|.......................|.......................|.......................|
.......................|.......................|D-5....................|.......................|D-5....................|.......................|.......................|.......................|.......................|.......................|
.......................|.......................|.......................|.......................|.......................|.......................|.......................|.......................|.......................|.......................|
.......................|.......................|===....................|.......................|.......................|.......................|.......................|.......................|.......................|.......................|
.......................|.......................|D-5....................|.......................|===....................|C-4C1..................|.......................|.......................|.......................|.......................|
.......................|.......................|.......................|.......................|D-5....................|.......................|.......................|.......................|.......................|.......................|
.......................|.......................|.......................|.......................|.......................|.......................|.......................|.......................|.......................|.......................|
.......................|.......................|===....................|.......................|===....................|.......................|.......................|.......................|.......................|.......................|
.......................|.......................|D-5....................|.......................|D-5....................|.......................|.......................|.......................|.......................|.......................|
.......................|.......................|.......................|.......................|.......................|.......................|.......................|.......................|.......................|.......................|
.......................|===....................|===....................|.......................|.......................|.......................|.......................|.......................|.......................|.......................|
.......................|G-2....................|D-5....................|.......................|===....................|C-4C1..................|.......................|.......................|.......................|.......................|
.......................|.......................|.......................|.......................|D-5....................|.......................|.......................|.......................|.......................|.......................|
.......................|.......................|.......................|.......................|.......................|.......................|.......................|.......................|.......................|.......................|
.......................|.......................|===....................|.......................|===....................|.......................|.......................|.......................|.......................|.......................|
.......................|.......................|D-5....................|.......................|D-5....................|.......................|.......................|.......................|.......................|.......................|
.......................|.......................|.......................|.......................|.......................|.......................|.......................|.......................|.......................|.......................|
===....E3000452........|===....................|===....................|===....E3000452........|.......................|.......................|.......................|.......................|.......................|.......................|
E-3....0400............|G-2....................|D-5....................|B-2....0400............|===....................|C-4C1..................|.......................|.......................|.......................|.......................|
.......................|.......................|.......................|.......................|D-5....................|.......................|.......................|.......................|.......................|.......................|
.......................|.......................|.......................|.......................|.......................|.......................|.......................|.......................|.......................|.......................|
.......................|.......................|===....................|.......................|===....................|.......................|.......................|.......................|.......................|.......................|
.......................|.......................|D-5....................|.......................|D-5....................|.......................|.......................|.......................|.......................|.......................|
.......................|.......................|.......................|.......................|.......................|.......................|.......................|.......................|.......................|.......................|
.......................|===....................|===....................|.......................|.......................|.......................|.......................|.......................|.......................|.......................|
.......................|G-2....................|D-5....................|.......................|===....................|C-4C1..................|.......................|.......................|.......................|.......................|
.......................|.......................|.......................|.......................|D-5....................|.......................|.......................|.......................|.......................|.......................|
.......................|.......................|.......................|.......................|.......................|.......................|.......................|.......................|.......................|.......................|
.......................|.......................|===....................|.......................|===....................|.......................|.......................|.......................|.......................|.......................|
.......................|.......................|D-5....................|.......................|D-5....................|.......................|.......................|.......................|.......................|.......................|
.......................|.......................|.......................|.......................|.......................|.......................|.......................|.......................|.......................|.......................|
.......................|===....................|===....................|.......................|.......................|.......................|.......................|.......................|.......................|.......................|
.......................|G-2....................|D-5....................|.......................|===....................|C-4C1..................|.......................|.......................|.......................|.......................|
.......................|.......................|.......................|.......................|D-5....................|.......................|.......................|.......................|.......................|.......................|
.......................|.......................|.......................|.......................|.......................|.......................|.......................|.......................|.......................|.......................|
.......................|.......................|===....................|.......................|===....................|.......................|.......................|.......................|.......................|.......................|
.......................|.......................|D-5....................|.......................|D-5....................|.......................|.......................|.......................|.......................|.......................|
.......................|.......................|.......................|.......................|.......................|.......................|.......................|.......................|.......................|.......................|
===....E3000452........|===....................|===....................|===....E3000452........|.......................|.......................|.......................|.......................|.......................|.......................|
D-5....0400EA00........|D-3....0400EA00........|A-40F5F0400EA00........|D-4....0400EA00........|===....................|C-4C0..0400EA00........|F#2....0400EA00........|.......................|.......................|.......................|
C-0....0340............|.......................|C-0....0340............|.......................|D-5....................|.......................|.......................|.......................|.......................|.......................|
.......................|.......................|.......................|.......................|.......................|.......................|.......................|.......................|.......................|.......................|
.......................|.......................|.......................|.......................|===....................|.......................|.......................|.......................|.......................|.......................|
.......................|.......................|.......................|.......................|D-5....................|.......................|.......................|.......................|.......................|.......................|
.......................|.......................|.......................|.......................|.......................|.......................|.......................|.......................|.......................|.......................|
.......................|.......................|.......................|.......................|.......................|.......................|.......................|.......................|.......................|.......................|
.......................|.......................|.......................|.......................|===....................|.......................|.......................|.......................|.......................|.......................|
.......................|.......................|.......................|.......................|D-5....................|.......................|.......................|.......................|.......................|.......................|
.......................|.......................|.......................|.......................|.......................|.......................|.......................|.......................|.......................|.......................|
.......................|.......................|.......................|.......................|===....0B000D5F........|.......................|.......................|.......................|.......................|.......................|
.......................|.......................|.......................|.......................|.......................|.......................|.......................|.......................|.......................|.......................|
.......................|.......................|.......................|.......................|.......................|.......................|.......................|.......................|.......................|.......................|
.......................|.......................|.......................|.......................|.......................|.......................|.......................|.......................|.......................|.......................|
.......................|.......................|.......................|.......................|.......................|.......................|.......................|.......................|.......................|.......................|
.......................|.......................|.......................|.......................|.......................|.......................|.......................|.......................|.......................|.......................|
.......................|.......................|.......................|.......................|.......................|.......................|.......................|.......................|.......................|.......................|
.......................|.......................|.......................|.......................|.......................|.......................|.......................|.......................|.......................|.......................|
.......................|.......................|.......................|.......................|.......................|.......................|.......................|.......................|.......................|.......................|
.......................|.......................|.......................|.......................|.......................|.......................|.......................|.......................|.......................|.......................|
.......................|.......................|.......................|.......................|.......................|.......................|.......................|.......................|.......................|.......................|
.......................|.......................|.......................|.......................|.......................|.......................|.......................|.......................|.......................|.......................|
.......................|.......................|.......................|.......................|.......................|.......................|.......................|.......................|.......................|.......................|
.......................|.......................|.......................|.......................|.......................|.......................|.......................|.......................|.......................|.......................|
.......................|.......................|.......................|.......................|.......................|.......................|.......................|.......................|.......................|.......................|
.......................|.......................|.......................|.......................|.......................|.......................|.......................|.......................|.......................|.......................|
.......................|.......................|.......................|.......................|.......................|.......................|.......................|.......................|.......................|.......................|
.......................|.......................|.......................|.......................|.......................|.......................|.......................|.......................|.......................|.......................|
.......................|.......................|.......................|.......................|.......................|.......................|.......................|.......................|.......................|.......................|
.......................|.......................|.......................|.......................|.......................|.......................|.......................|.......................|.......................|.......................|
.......................|.......................|.......................|.......................|.......................|.......................|.......................|.......................|.......................|.......................|
.......................|.......................|.......................|.......................|.......................|.......................|.......................|.......................|.......................|.......................|
.......................|.......................|.......................|.......................|.......................|.......................|.......................|.......................|.......................|.......................|
.......................|.......................|.......................|.......................|.......................|.......................|.......................|.......................|.......................|.......................|
.......................|.......................|.......................|.......................|.......................|.......................|.......................|.......................|.......................|.......................|
.......................|.......................|.......................|.......................|.......................|.......................|.......................|.......................|.......................|.......................|
.......................|.......................|.......................|.......................|.......................|.......................|.......................|.......................|.......................|.......................|
.......................|.......................|.......................|.......................|.......................|.......................|.......................|.......................|.......................|.......................|
.......................|.......................|.......................|.......................|.......................|.......................|.......................|.......................|.......................|.......................|
.......................|.......................|.......................|.......................|.......................|.......................|.......................|.......................|.......................|.......................|
.......................|.......................|.......................|.......................|.......................|.......................|.......................|.......................|.......................|.......................|
.......................|.......................|.......................|.......................|.......................|.......................|.......................|.......................|.......................|.......................|
.......................|.......................|.......................|.......................|.......................|.......................|.......................|.......................|.......................|.......................|
.......................|.......................|.......................|.......................|.......................|.......................|.......................|.......................|.......................|.......................|
.......................|.......................|.......................|.......................|.......................|.......................|.......................|.......................|.......................|.......................|
.......................|.......................|.......................|.......................|.......................|.......................|.......................|.......................|.......................|.......................|
.......................|.......................|.......................|.......................|.......................|.......................|.......................|.......................|.......................|.......................|
.......................|.......................|.......................|.......................|.......................|.......................|.......................|.......................|.......................|.......................|
.......................|.......................|.......................|.......................|.......................|.......................|.......................|.......................|.......................|.......................|
.......................|.......................|.......................|.......................|.......................|.......................|.......................|.......................|.......................|.......................|
.......................|.......................|.......................|.......................|.......................|.......................|.......................|.......................|.......................|.......................|
.......................|.......................|.......................|.......................|.......................|.......................|.......................|.......................|.......................|.......................|
