org.tildearrow.furnace - Pattern Data (219)
0
A-1327480FF............|===..0F................|G-1077B................|A-13763................|OFF....................|OFF....................|A-0A00F................|C-0A00F................|OFF....................|OFF....................|
.......................|.......................|.......................|.......................|.......................|.......................|.......0452............|.......0452............|.......................|.......................|
.......................|===32778000............|.......................|.......................|.......................|.......................|.......................|.......................|.......................|.......................|
.......................|A-1....................|.......................|.......................|.......................|.......................|.......................|.......................|.......................|.......................|
.......................|.......................|.......................|.......................|.......................|.......................|.......................|.......................|.......................|.......................|
.......................|.......................|.......................|.......................|.......................|.......................|.......................|.......................|.......................|.......................|
.......................|.......................|G#1....................|.......................|.......................|.......................|.......................|.......................|.......................|.......................|
.......................|.......................|.......................|.......................|.......................|.......................|.......................|.......................|.......................|.......................|
.......................|.......................|.......................|.......................|.......................|.......................|.......................|.......................|.......................|.......................|
.......................|.......................|.......................|.......................|.......................|.......................|.......................|.......................|.......................|.......................|
.......................|.......................|.......................|.......................|.......................|.......................|.......................|.......................|.......................|.......................|
.......................|.......................|.......................|.......................|.......................|.......................|.......................|.......................|.......................|.......................|
.......................|.......................|A-1....................|.......................|.......................|.......................|.......................|C-0....0400............|.......................|.......................|
.......................|.......................|.......................|.......................|.......................|.......................|.......................|.......0452............|.......................|.......................|
.......................|.......................|.......................|.......................|.......................|.......................|.......................|.......................|.......................|.......................|
.......................|.......................|.......................|.......................|.......................|.......................|.......................|.......................|.......................|.......................|
.......................|.......................|.......................|.......................|.......................|.......................|.......................|.......................|.......................|.......................|
.......................|.......................|.......................|.......................|.......................|.......................|.......................|.......................|.......................|.......................|
.......................|.......................|A#1....................|.......................|.......................|.......................|===....................|.......................|.......................|.......................|
.......................|.......................|.......................|.......................|.......................|.......................|.......................|.......................|.......................|.......................|
.......E3000452........|.......................|.......................|.......E3000452........|.......................|.......................|.......................|.......................|.......................|.......................|
.......................|.......................|.......................|.......................|.......................|.......................|E-2....0400............|.......................|.......................|.......................|
.......................|.......................|.......................|.......................|.......................|.......................|.......0452............|.......................|.......................|.......................|
.......................|.......E3000452........|.......................|.......................|.......................|.......................|.......................|.......................|.......................|.......................|
.......................|.......................|B-1....................|.......................|.......................|.......................|.......................|===....................|.......................|.......................|
.......................|.......................|.......................|.......................|.......................|.......................|.......................|.......................|.......................|.......................|
.......................|.......................|.......................|.......................|.......................|.......................|.......................|.......................|.......................|.......................|
.......................|.......................|.......................|.......................|.......................|.......................|.......................|E-0....0400............|.......................|.......................|
.......................|.......................|.......................|.......................|.......................|.......................|.......................|.......0452............|.......................|.......................|
.......................|.......................|.......................|.......................|.......................|.......................|.......................|.......................|.......................|.......................|
.......................|.......................|C-2....................|.......................|.......................|.......................|.......................|.......................|.......................|.......................|
.......................|.......................|.......................|.......................|.......................|.......................|.......................|.......................|.......................|.......................|
.......................|.......................|.......................|.......................|.......................|.......................|.......................|.......................|.......................|.......................|
.......................|.......................|.......................|.......................|.......................|.......................|E-2....0400............|.......................|.......................|.......................|
.......................|.......................|.......................|.......................|.......................|.......................|.......0452............|.......................|.......................|.......................|
.......................|.......................|.......................|.......................|.......................|.......................|.......................|.......................|.......................|.......................|
.......................|.......................|C#2....................|.......................|.......................|.......................|.......................|.......................|.......................|.......................|
.......................|.......................|.......................|.......................|.......................|.......................|.......................|.......................|.......................|.......................|
.......................|.......................|.......................|.......................|.......................|.......................|.......................|.......................|.......................|.......................|
.......................|.......................|.......................|.......................|.......................|.......................|.......................|E-0....0400............|.......................|.......................|
.......................|.......................|.......................|.......................|.......................|.......................|.......................|.......0452............|.......................|.......................|
.......................|.......................|.......................|.......................|.......................|.......................|.......................|.......................|.......................|.......................|
.......................|.......................|D-2....................|.......................|.......................|.......................|.......................|.......................|.......................|.......................|
.......................|.......................|.......................|.......................|.......................|.......................|.......................|.......................|.......................|.......................|
.......................|.......................|.......................|.......................|.......................|.......................|.......................|.......................|.......................|.......................|
.......................|.......................|.......................|.......................|.......................|.......................|A-1....0400............|.......................|.......................|.......................|
.......................|.......................|.......................|.......................|.......................|.......................|.......0452............|.......................|.......................|.......................|
.......................|.......................|.......................|.......................|.......................|.......................|.......................|.......................|.......................|.......................|
.......................|.......................|D#2....................|.......................|.......................|.......................|.......................|.......................|.......................|.......................|
.......................|.......................|.......................|.......................|.......................|.......................|.......................|.......................|.......................|.......................|
.......................|.......................|.......................|.......................|.......................|.......................|.......................|.......................|.......................|.......................|
.......................|.......................|.......................|.......................|.......................|.......................|.......................|C-0....0400............|.......................|.......................|
.......................|.......................|.......................|.......................|.......................|.......................|.......................|.......0452............|.......................|.......................|
.......................|.......................|.......................|.......................|.......................|.......................|.......................|.......................|.......................|.......................|
.......................|.......................|E-2....................|.......................|.......................|.......................|.......................|.......................|.......................|.......................|
.......................|.......................|.......................|.......................|.......................|.......................|.......................|.......................|.......................|.......................|
.......................|.......................|.......................|.......................|.......................|.......................|.......................|.......................|.......................|.......................|
.......................|.......................|.......................|.......................|.......................|.......................|.......................|.......................|.......................|.......................|
.......................|.......................|.......................|.......................|.......................|.......................|.......................|.......................|.......................|.......................|
.......................|.......................|.......................|.......................|.......................|.......................|.......................|.......................|.......................|.......................|
.......................|.......................|F-2....................|.......................|.......................|.......................|.......................|.......................|.......................|.......................|
.......................|.......................|.......................|.......................|.......................|.......................|.......................|.......................|.......................|.......................|
.......................|.......................|.......................|.......................|.......................|.......................|.......................|.......................|.......................|.......................|
.......................|.......................|.......................|.......................|.......................|.......................|===....................|C-0....0400............|.......................|.......................|
.......................|.......................|.......................|.......................|.......................|.......................|.......................|.......0452............|.......................|.......................|
.......................|.......................|.......................|.......................|.......................|.......................|.......................|.......................|.......................|.......................|
.......................|.......................|G-2....................|.......................|.......................|.......................|E-2....0400............|.......................|.......................|.......................|
.......................|.......................|.......................|.......................|.......................|.......................|.......0452............|.......................|.......................|.......................|
.......................|.......................|.......................|.......................|.......................|.......................|.......................|.......................|.......................|.......................|
.......................|.......................|.......................|.......................|.......................|.......................|.......................|.......................|.......................|.......................|
.......................|.......................|.......................|.......................|.......................|.......................|.......................|.......................|.......................|.......................|
.......................|.......................|.......................|.......................|.......................|.......................|.......................|.......................|.......................|.......................|
.......................|.......................|G#2....................|.......................|.......................|.......................|.......................|.......................|.......................|.......................|
.......................|.......................|.......................|.......................|.......................|.......................|.......................|.......................|.......................|.......................|
.......................|.......................|.......................|.......................|.......................|.......................|.......................|.......................|.......................|.......................|
.......................|.......................|.......................|.......................|.......................|.......................|.......................|===....................|.......................|.......................|
.......................|.......................|.......................|.......................|.......................|.......................|.......................|.......................|.......................|.......................|
.......................|.......................|.......................|.......................|.......................|.......................|.......................|.......................|.......................|.......................|
.......................|.......................|A-2....................|.......................|.......................|.......................|E-2....0400............|E-0....0400............|.......................|.......................|
.......................|.......................|.......................|.......................|.......................|.......................|.......0452............|.......0452............|.......................|.......................|
.......................|.......................|.......................|.......................|.......................|.......................|.......................|.......................|.......................|.......................|
.......................|.......................|.......................|.......................|.......................|.......................|.......................|.......................|.......................|.......................|
.......................|.......................|.......................|.......................|.......................|.......................|.......................|.......................|.......................|.......................|
.......................|.......................|.......................|.......................|.......................|.......................|.......................|.......................|.......................|.......................|
.......................|.......................|A#2....................|.......................|.......................|.......................|.......................|.......................|.......................|.......................|
.......................|.......................|.......................|.......................|.......................|.......................|.......................|.......................|.......................|.......................|
.......................|.......................|.......................|.......................|.......................|.......................|.......................|.......................|.......................|.......................|
.......................|.......................|.......................|.......................|.......................|.......................|.......................|.......................|.......................|.......................|
.......................|.......................|.......................|.......................|.......................|.......................|.......................|.......................|.......................|.......................|
.......................|.......................|.......................|.......................|.......................|.......................|.......................|.......................|.......................|.......................|
.......................|.......................|C-2....................|.......................|.......................|.......................|E-1....0400............|E-0....0400............|.......................|.......................|
.......................|.......................|.......................|.......................|.......................|.......................|.......0452............|.......0452............|.......................|.......................|
.......................|.......................|.......................|.......................|.......................|.......................|.......................|.......................|.......................|.......................|
.......................|.......................|.......................|.......................|.......................|.......................|.......................|.......................|.......................|.......................|
.......................|.......................|.......................|.......................|.......................|.......................|.......................|.......................|.......................|.......................|
.......................|.......................|.......................|.......................|.......................|.......................|.......................|.......................|.......................|.......................|
.......................|.......................|C#2....................|A-1....0400............|.......................|.......................|.......................|.......................|.......................|.......................|
.......................|.......................|.......................|.......................|.......................|.......................|.......................|.......................|.......................|.......................|
.......................|.......................|.......................|.......................|.......................|.......................|.......................|.......................|.......................|.......................|
.......................|.......................|.......................|.......................|.......................|.......................|.......................|.......................|.......................|.......................|
.......................|.......................|.......................|.......................|.......................|.......................|.......................|.......................|.......................|.......................|
.......................|.......................|.......................|.......................|.......................|.......................|.......................|.......................|.......................|.......................|
.......................|.......................|D-2....................|.......................|.......................|.......................|.......................|C-0....0400............|.......................|.......................|
.......................|.......................|.......................|.......................|.......................|.......................|.......................|.......0452............|.......................|.......................|
.......................|.......................|.......................|.......................|.......................|.......................|.......................|.......................|.......................|.......................|
.......................|.......................|.......................|.......................|.......................|.......................|.......................|.......................|.......................|.......................|
.......................|.......................|.......................|.......................|.......................|.......................|.......................|.......................|.......................|.......................|
.......................|.......................|.......................|.......................|.......................|.......................|.......................|.......................|.......................|.......................|
.......................|.......................|D#2....................|.......................|.......................|.......................|.......................|.......................|.......................|.......................|
.......................|.......................|.......................|.......................|.......................|.......................|.......................|.......................|.......................|.......................|
.......................|.......................|.......................|.......................|.......................|.......................|.......................|.......................|.......................|.......................|
.......................|.......................|.......................|.......................|.......................|.......................|.......................|.......................|.......................|.......................|
.......................|.......................|.......................|.......................|.......................|.......................|.......................|.......................|.......................|.......................|
.......................|.......................|.......................|.......................|.......................|.......................|.......................|.......................|.......................|.......................|
.......................|.......................|E-2....................|.......................|.......................|.......................|.......................|C-0....0400............|.......................|.......................|
.......................|.......................|.......................|.......................|.......................|.......................|.......................|.......0452............|.......................|.......................|
.......................|.......................|.......................|.......E3000452........|.......................|.......................|.......................|.......................|.......................|.......................|
.......................|.......................|.......................|.......................|.......................|.......................|.......................|.......................|.......................|.......................|
.......................|.......................|.......................|.......................|.......................|.......................|.......................|.......................|.......................|.......................|
.......................|.......................|.......................|.......................|.......................|.......................|.......................|.......................|.......................|.......................|
.......................|.......................|F-2....................|.......................|.......................|.......................|.......................|.......................|.......................|.......................|
.......................|.......................|.......................|.......................|.......................|.......................|.......................|.......................|.......................|.......................|
.......................|.......................|.......................|.......................|.......................|.......................|.......................|.......................|.......................|.......................|
.......................|.......................|.......................|.......................|.......................|.......................|.......................|.......................|.......................|.......................|
.......................|.......................|.......................|.......................|.......................|.......................|.......................|.......................|.......................|.......................|
.......................|.......................|.......................|.......................|.......................|.......................|.......................|.......................|.......................|.......................|
.......................|.......................|G-2....................|.......................|.......................|.......................|E-1..0C0400............|===....................|.......................|.......................|
.......................|.......................|.......................|.......................|.......................|.......................|.......0452............|.......................|.......................|.......................|
.......................|.......................|.......................|.......................|.......................|.......................|G-1....0400............|.......................|.......................|.......................|
.......................|.......................|.......................|.......................|.......................|.......................|.......0452............|E-0....0400............|.......................|.......................|
.......................|.......................|.......................|.......................|.......................|.......................|E-1....0400............|.......0452............|.......................|.......................|
.......................|.......................|.......................|.......................|.......................|.......................|.......0452............|.......................|.......................|.......................|
.......................|.......................|G#2....................|.......................|.......................|.......................|G-1....0400............|.......................|.......................|.......................|
.......................|.......................|.......................|.......................|.......................|.......................|.......0452............|.......................|.......................|.......................|
.......................|.......................|.......................|.......................|.......................|.......................|E-1....0400............|.......................|.......................|.......................|
.......................|.......................|.......................|.......................|.......................|.......................|.......0452............|.......................|.......................|.......................|
.......................|.......................|.......................|.......................|.......................|.......................|G-1....0400............|.......................|.......................|.......................|
.......................|.......................|.......................|.......................|.......................|.......................|.......0452............|.......................|.......................|.......................|
.......................|.......................|A-2....................|.......................|.......................|.......................|E-1....0400............|.......................|.......................|.......................|
.......................|.......................|.......................|.......................|.......................|.......................|.......0452............|.......................|.......................|.......................|
.......................|.......................|.......................|.......................|.......................|.......................|G-1....0400............|.......................|.......................|.......................|
.......................|.......................|.......................|.......................|.......................|.......................|.......0452............|E-0....0400............|.......................|.......................|
.......................|.......................|.......................|.......................|.......................|.......................|E-1....0400............|.......0452............|.......................|.......................|
.......................|.......................|.......................|.......................|.......................|.......................|.......0452............|.......................|.......................|.......................|
.......................|.......................|A#2....................|.......................|.......................|.......................|G-1....0400............|.......................|.......................|.......................|
.......................|.......................|.......................|.......................|.......................|.......................|.......0452............|.......................|.......................|.......................|
.......................|.......................|.......................|.......................|.......................|.......................|E-1....0400............|.......................|.......................|.......................|
.......................|.......................|.......................|.......................|.......................|.......................|.......0452............|.......................|.......................|.......................|
.......................|.......................|.......................|.......................|.......................|.......................|G-1....0400............|.......................|.......................|.......................|
.......................|.......................|.......................|.......................|.......................|.......................|.......0452............|.......................|.......................|.......................|
.......................|.......................|B-2....................|.......................|.......................|.......................|E-1....0400............|.......................|.......................|.......................|
.......................|.......................|.......................|.......................|.......................|.......................|.......0452............|.......................|.......................|.......................|
.......................|.......................|.......................|.......................|.......................|.......................|G-1....0400............|.......................|.......................|.......................|
.......................|.......................|.......................|.......................|.......................|.......................|.......0452............|C-0....0400............|.......................|.......................|
.......................|.......................|.......................|.......................|.......................|.......................|E-1....0400............|.......0452............|.......................|.......................|
.......................|.......................|.......................|.......................|.......................|.......................|.......0452............|.......................|.......................|.......................|
.......................|.......................|C-3....................|.......................|.......................|.......................|G-1....0400............|.......................|.......................|.......................|
.......................|.......................|.......................|.......................|.......................|.......................|.......0452............|.......................|.......................|.......................|
.......................|.......................|.......................|.......................|.......................|.......................|E-1....0400............|.......................|.......................|.......................|
.......................|.......................|.......................|.......................|.......................|.......................|.......0452............|.......................|.......................|.......................|
.......................|.......................|.......................|.......................|.......................|.......................|G-1....0400............|.......................|.......................|.......................|
.......................|.......................|.......................|.......................|.......................|.......................|.......0452............|.......................|.......................|.......................|
.......................|.......................|C#3....................|.......................|.......................|.......................|E-1....0400............|.......................|.......................|.......................|
.......................|.......................|.......................|.......................|.......................|.......................|.......0452............|.......................|.......................|.......................|
.......................|.......................|.......................|.......................|.......................|.......................|G-1....0400............|.......................|.......................|.......................|
.......................|.......................|.......................|.......................|.......................|.......................|.......0452............|.......................|.......................|.......................|
.......................|.......................|.......................|.......................|.......................|.......................|E-1....0400............|.......................|.......................|.......................|
.......................|.......................|.......................|.......................|.......................|.......................|.......0452............|.......................|.......................|.......................|
.......................|.......................|D-3....................|.......................|.......................|.......................|G-1....0400............|.......................|.......................|.......................|
.......................|.......................|.......................|.......................|.......................|.......................|.......0452............|.......................|.......................|.......................|
.......................|.......................|.......................|.......................|.......................|.......................|E-1....0400............|.......................|.......................|.......................|
.......................|.......................|.......................|.......................|.......................|.......................|.......0452............|.......................|.......................|.......................|
.......................|.......................|.......................|.......................|.......................|.......................|G-1....0400............|.......................|.......................|.......................|
.......................|.......................|.......................|.......................|.......................|.......................|.......0452............|.......................|.......................|.......................|
.......................|.......................|D#3....................|.......................|.......................|.......................|E-1....0400............|.......................|.......................|.......................|
.......................|.......................|.......................|.......................|.......................|.......................|.......0452............|.......................|.......................|.......................|
.......................|.......................|.......................|.......................|.......................|.......................|G-1....0400............|.......................|.......................|.......................|
.......................|.......................|.......................|.......................|.......................|.......................|.......0452............|C-0....0400............|.......................|.......................|
.......................|.......................|.......................|.......................|.......................|.......................|E-1....0400............|.......0452............|.......................|.......................|
.......................|.......................|.......................|.......................|.......................|.......................|.......0452............|C-0....0400............|.......................|.......................|
.......................|.......................|E-3....................|.......................|.......................|.......................|G-1....0400............|.......0452............|.......................|.......................|
.......................|.......................|.......................|.......................|.......................|.......................|.......0452............|C-0....0400............|.......................|.......................|
.......................|.......................|.......................|.......................|.......................|.......................|E-1....0400............|.......0452............|.......................|.......................|
.......................|.......................|.......................|.......................|.......................|.......................|.......0452............|C-0....0400............|.......................|.......................|
.......................|.......................|.......................|.......................|.......................|.......................|G-1....0400............|.......0452............|.......................|.......................|
.......................|.......................|.......................|.......................|.......................|.......................|.......0452............|C-0....0400............|.......................|.......................|
.......................|.......................|A-2....................|.......................|.......................|.......................|E-1....0400............|.......0452............|.......................|.......................|
.......................|.......................|.......................|.......................|.......................|.......................|.......0452............|C-0....0400............|.......................|.......................|
.......................|.......................|.......................|.......................|.......................|.......................|G-1....0400............|.......0452............|.......................|.......................|
.......................|.......................|A#2....................|.......................|.......................|.......................|.......0452............|C-0....0400............|.......................|.......................|
.......................|.......................|.......................|.......................|.......................|.......................|E-1....0400............|.......0452............|.......................|.......................|
.......................|.......................|.......................|.......................|.......................|.......................|.......0452............|C-0....0400............|.......................|.......................|
G-1337B0400............|.......................|B-2....................|A-1....0400............|.......................|.......................|G-1....0400............|.......0452............|.......................|.......................|
.......................|.......................|.......................|.......................|.......................|.......................|.......0452............|C-0....0400............|.......................|.......................|
.......................|.......................|.......................|.......................|.......................|.......................|E-1....0400............|.......0452............|.......................|.......................|
G#1....................|G-133550400............|C-3....................|.......................|.......................|.......................|.......0452............|C-0....0400............|.......................|.......................|
.......................|.......................|.......................|.......................|.......................|.......................|G-1....0400............|.......0452............|.......................|.......................|
.......................|.......................|.......................|.......................|.......................|.......................|.......0452............|C-0....0400............|.......................|.......................|
A-1....................|G#1....................|C#3....................|.......................|.......................|.......................|E-1....0400............|.......0452............|.......................|.......................|
.......................|.......................|.......................|.......................|.......................|.......................|.......0452............|C-0....0400............|.......................|.......................|
.......................|.......................|.......................|.......................|.......................|.......................|G-1....0400............|.......0452............|.......................|.......................|
A#1..6F................|A-1..5F................|D-3....................|.......................|.......................|.......................|.......0452............|C-0....0400............|.......................|.......................|
.......................|.......................|.......................|.......................|.......................|.......................|E-1....0400............|.......0452............|.......................|.......................|
.......................|.......................|.......................|.......................|.......................|.......................|.......0452............|C-0....0400............|.......................|.......................|
B-1....................|A#1....................|D#3....................|.......................|.......................|.......................|G-1....0400............|.......0452............|.......................|.......................|
.......................|.......................|.......................|.......................|.......................|.......................|.......0452............|C-0....0400............|.......................|.......................|
.......................|.......................|.......................|.......................|.......................|.......................|E-1....0400............|.......0452............|.......................|.......................|
C-2..67................|B-1..67................|E-3....................|.......................|.......................|.......................|.......0452............|C-0....0400............|.......................|.......................|
.......................|.......................|.......................|.......................|.......................|.......................|G-1....0400............|.......0452............|.......................|.......................|
.......................|.......................|.......................|.......................|.......................|.......................|.......0452............|C-0....0400............|.......................|.......................|
C#2....................|C-2....................|F-3....................|.......................|.......................|.......................|E-1....0400............|.......0452............|.......................|.......................|
.......................|.......................|.......................|.......................|.......................|.......................|.......0452............|C-0....0400............|.......................|.......................|
.......................|.......................|.......................|.......E3000452........|.......................|.......................|G-1....0400............|.......0452............|.......................|.......................|
D-2..5F................|C#2..6F................|F#3....................|.......................|.......................|.......................|.......0452............|C-0....0400............|.......................|.......................|
.......................|.......................|.......................|.......................|.......................|.......................|E-1....0400............|.......0452............|.......................|.......................|
.......................|.......................|.......................|.......................|.......................|.......................|.......0452............|C-0....0400............|.......................|.......................|
D#2....................|D-2....................|F-3....................|.......................|.......................|.......................|G-1....0400............|.......0452............|.......................|.......................|
.......................|.......................|.......................|.......................|.......................|.......................|.......0452............|C-0....0400............|.......................|.......................|
.......................|.......................|.......................|.......................|.......................|.......................|E-1....0400............|.......0452............|.......................|.......................|
E-2..55................|D#2..7B................|E-3....................|.......................|.......................|.......................|.......0452............|C-0....0400............|.......................|.......................|
.......................|.......................|.......................|.......................|.......................|.......................|G-1....0400............|.......0452............|.......................|.......................|
.......................|.......................|.......................|.......................|.......................|.......................|.......0452............|C-0....0400............|.......................|.......................|
F-2....................|E-2....................|D#3....................|.......................|.......................|.......................|E-1....0400............|.......0452............|.......................|.......................|
.......................|.......................|.......................|.......................|.......................|.......................|.......0452............|C-0....0400............|.......................|.......................|
.......................|.......................|.......................|.......................|.......................|.......................|G-1....0400............|.......0452............|.......................|.......................|
G-1..7B................|F-2....................|D-3....................|.......................|.......................|.......................|.......0452............|C-0....0400............|.......................|.......................|
.......................|.......................|.......................|.......................|.......................|.......................|E-1....0400............|.......0452............|.......................|.......................|
.......................|.......................|.......................|.......................|.......................|.......................|.......0452............|C-0....0400............|.......................|.......................|
G#1....................|G-1..55................|C#3....................|.......................|.......................|.......................|G-1....0400............|.......0452............|.......................|.......................|
.......................|.......................|.......................|.......................|.......................|.......................|.......0452............|C-0....0400............|.......................|.......................|
.......................|.......................|.......................|.......................|.......................|.......................|E-1....0400............|.......0452............|.......................|.......................|
A-1....................|G#1....................|C-3....................|.......................|.......................|.......................|.......0452............|C-0....0400............|.......................|.......................|
.......................|.......................|.......................|.......................|.......................|.......................|G-1....0400............|.......0452............|.......................|.......................|
.......................|.......................|.......................|.......................|.......................|.......................|.......0452............|C-0....0400............|.......................|.......................|
A#1..6F................|A-1..5F................|B-2....................|.......................|.......................|.......................|E-1....0400............|.......0452............|.......................|.......................|
.......................|.......................|.......................|.......................|.......................|.......................|.......0452............|C-0....0400............|.......................|.......................|
.......................|.......................|.......................|.......................|.......................|.......................|G-1....0400............|.......0452............|.......................|.......................|
B-1....................|A#1....................|A#2....................|.......................|.......................|.......................|.......0452............|C-0....0400............|.......................|.......................|
.......................|.......................|.......................|.......................|.......................|.......................|E-1....0400............|.......0452............|.......................|.......................|
.......................|.......................|.......................|.......................|.......................|.......................|.......0452............|C-0....0400............|.......................|.......................|
C-2..67................|B-1..67................|A-2....................|.......................|.......................|.......................|G-1....0400............|.......0452............|.......................|.......................|
.......................|.......................|.......................|.......................|.......................|.......................|.......0452............|C-0....0400............|.......................|.......................|
.......................|.......................|.......................|.......................|.......................|.......................|E-1....0400............|.......0452............|.......................|.......................|
C#2....................|C-2....................|G#2....................|.......................|.......................|.......................|.......0452............|C-0....0400............|.......................|.......................|
.......................|.......................|.......................|.......................|.......................|.......................|G-1....0400............|.......0452............|.......................|.......................|
.......................|.......................|.......................|.......................|.......................|.......................|.......0452............|C-0....0400............|.......................|.......................|
D-2..5F................|C#2..6F................|G-2....................|.......................|.......................|.......................|E-1....0400............|.......0452............|.......................|.......................|
.......................|.......................|.......................|.......................|.......................|.......................|.......0452............|C-0....0400............|.......................|.......................|
.......................|.......................|.......................|.......................|.......................|.......................|G-1....0400............|.......0452............|.......................|.......................|
D#2....................|D-2....................|F#2....................|.......................|.......................|.......................|.......0452............|C-0....0400............|.......................|.......................|
.......................|.......................|.......................|.......................|.......................|.......................|E-1....0400............|.......0452............|.......................|.......................|
.......................|.......................|.......................|.......................|.......................|.......................|.......0452............|C-0....0400............|.......................|.......................|
E-2..55................|D#2..7B................|E-2....................|.......................|.......................|.......................|G-1....0400............|.......0452............|.......................|.......................|
.......................|.......................|.......................|.......................|.......................|.......................|.......0452............|C-0....0400............|.......................|.......................|
.......................|.......................|.......................|.......................|.......................|.......................|E-1....0400............|.......0452............|.......................|.......................|
F-2....................|E-2....................|D#2....................|.......................|.......................|.......................|.......0452............|C-0....0400............|.......................|.......................|
org.tildearrow.furnace - Pattern Data (219)
0
.......................|.......................|.......................|.......................|.......................|.......................|G-1....0400............|.......0452............|.......................|.......................|
.......................|.......................|.......................|.......................|.......................|.......................|.......0452............|C-0....0400............|.......................|.......................|
G-1..7B................|F-2....................|C#2....................|.......................|.......................|.......................|E-1....0400............|.......0452............|.......................|.......................|
.......................|.......................|.......................|.......................|.......................|.......................|.......0452............|C-0....0400............|.......................|.......................|
.......................|.......................|.......................|.......................|.......................|.......................|G-1....0400............|.......0452............|.......................|.......................|
G#1....................|G-1..55................|E-1....................|.......................|.......................|.......................|.......0452............|C-0....0400............|.......................|.......................|
.......................|.......................|.......................|.......................|.......................|.......................|E-1....0400............|.......0452............|.......................|.......................|
.......................|.......................|.......................|.......................|.......................|.......................|.......0452............|C-0....0400............|.......................|.......................|
A-1....................|G#1....................|.......................|.......................|.......................|.......................|G-1....0400............|.......0452............|.......................|.......................|
.......................|.......................|.......................|.......................|.......................|.......................|.......0452............|C-0....0400............|.......................|.......................|
.......................|.......................|.......................|.......................|.......................|.......................|E-1....0400............|.......0452............|.......................|.......................|
A#1..6F................|A-1..5F................|.......................|.......................|.......................|.......................|.......0452............|C-0....0400............|.......................|.......................|
.......................|.......................|.......................|.......................|.......................|.......................|G-1....0400............|.......0452............|.......................|.......................|
.......................|.......................|.......................|.......................|.......................|.......................|.......0452............|C-0....0400............|.......................|.......................|
B-1....................|A#1....................|.......................|.......................|.......................|.......................|E-1....0400............|.......0452............|.......................|.......................|
.......................|.......................|.......................|.......................|.......................|.......................|.......0452............|C-0....0400............|.......................|.......................|
.......................|.......................|.......................|.......................|.......................|.......................|G-1....0400............|.......0452............|.......................|.......................|
C-2..67................|B-1..67................|E-1....................|.......................|.......................|.......................|.......0452............|C-0....0400............|.......................|.......................|
.......................|.......................|.......................|.......................|.......................|.......................|E-1....0400............|.......0452............|.......................|.......................|
.......................|.......................|.......................|.......................|.......................|.......................|.......0452............|C-0....0400............|.......................|.......................|
C#2....................|C-2....................|.......................|.......................|.......................|.......................|G-1....0400............|.......0452............|.......................|.......................|
.......................|.......................|.......................|.......................|.......................|.......................|.......0452............|C-0....0400............|.......................|.......................|
.......................|.......................|.......................|.......................|.......................|.......................|E-1....0400............|.......0452............|.......................|.......................|
D-2..5F................|C#2..6F................|.......................|.......................|.......................|.......................|.......0452............|C-0....0400............|.......................|.......................|
.......................|.......................|.......................|.......................|.......................|.......................|G-1....0400............|.......0452............|.......................|.......................|
.......................|.......................|.......................|.......................|.......................|.......................|.......0452............|C-0....0400............|.......................|.......................|
D#2....................|D-2....................|.......................|.......................|.......................|.......................|E-1....0400............|.......0452............|.......................|.......................|
.......................|.......................|.......................|.......................|.......................|.......................|.......0452............|C-0....0400............|.......................|.......................|
.......................|.......................|.......................|.......................|.......................|.......................|G-1....0400............|.......0452............|.......................|.......................|
E-2..55................|D#2..7B................|===....................|.......................|.......................|.......................|.......0452............|C-0....0400............|.......................|.......................|
.......................|.......................|.......................|.......................|.......................|.......................|E-1....0400............|.......0452............|.......................|.......................|
.......................|.......................|.......................|.......................|.......................|.......................|.......0452............|C-0....0400............|.......................|.......................|
F-2....................|E-2....................|.......................|A-1....0400............|.......................|.......................|G-1....0400............|.......0452............|.......................|.......................|
.......................|.......................|.......................|.......................|.......................|.......................|.......0452............|C-0....0400............|.......................|.......................|
.......................|.......................|.......................|.......................|.......................|.......................|E-1....0400............|.......0452............|.......................|.......................|
G-1..7B................|F-2....................|.......................|.......................|.......................|.......................|.......0452............|C-0....0400............|.......................|.......................|
.......................|.......................|.......................|.......................|.......................|.......................|G-1....0400............|.......0452............|.......................|.......................|
.......................|.......................|.......................|.......................|.......................|.......................|.......0452............|C-0....0400............|.......................|.......................|
G#1....................|G-1..55................|.......................|.......................|.......................|.......................|E-1....0400............|.......0452............|.......................|.......................|
.......................|.......................|.......................|.......................|.......................|.......................|.......0452............|C-0....0400............|.......................|.......................|
.......................|.......................|.......................|.......................|.......................|.......................|G-1....0400............|.......0452............|.......................|.......................|
A-1....................|G#1....................|E-1....................|.......................|.......................|.......................|.......0452............|C-0....0400............|.......................|.......................|
.......................|.......................|.......................|.......................|.......................|.......................|E-1....0400............|.......0452............|.......................|.......................|
.......................|.......................|.......................|.......................|.......................|.......................|.......0452............|C-0....0400............|.......................|.......................|
A#1..6F................|A-1..5F................|.......................|.......................|.......................|.......................|G-1....0400............|.......0452............|.......................|.......................|
.......................|.......................|.......................|.......................|.......................|.......................|.......0452............|C-0....0400............|.......................|.......................|
.......................|.......................|.......................|.......................|.......................|.......................|E-1....0400............|.......0452............|.......................|.......................|
B-1....................|A#1....................|.......................|.......................|.......................|.......................|.......0452............|C-0....0400............|.......................|.......................|
.......................|.......................|.......................|.......................|.......................|.......................|G-1....0400............|.......0452............|.......................|.......................|
.......................|.......................|.......................|.......................|.......................|.......................|.......0452............|C-0....0400............|.......................|.......................|
C-2..67................|B-1..67................|.......................|.......................|.......................|.......................|E-1....0400............|.......0452............|.......................|.......................|
.......................|.......................|.......................|.......................|.......................|.......................|.......0452............|C-0....0400............|.......................|.......................|
.......................|.......................|.......................|.......E3000452........|.......................|.......................|G-1....0400............|.......0452............|.......................|.......................|
C#2....................|C-2....................|E-1....................|.......................|.......................|.......................|.......0452............|C-0....0400............|.......................|.......................|
.......................|.......................|.......................|.......................|.......................|.......................|E-1....0400............|.......0452............|.......................|.......................|
.......................|.......................|.......................|.......................|.......................|.......................|.......0452............|C-0....0400............|.......................|.......................|
D-2..5F................|C#2..6F................|.......................|.......................|.......................|.......................|G-1....0400............|.......0452............|.......................|.......................|
.......................|.......................|.......................|.......................|.......................|.......................|.......0452............|C-0....0400............|.......................|.......................|
.......................|.......................|.......................|.......................|.......................|.......................|E-1....0400............|.......0452............|.......................|.......................|
D#2....................|D-2....................|.......................|.......................|.......................|.......................|.......0452............|C-0....0400............|.......................|.......................|
.......................|.......................|.......................|.......................|.......................|.......................|G-1....0400............|.......0452............|.......................|.......................|
.......................|.......................|.......................|.......................|.......................|.......................|.......0452............|C-0....0400............|.......................|.......................|
E-2..55................|D#2..7B................|.......................|.......................|.......................|.......................|E-1....0400............|.......0452............|.......................|.......................|
.......................|.......................|.......................|.......................|.......................|.......................|.......0452............|C-0....0400............|.......................|.......................|
.......................|.......................|.......................|.......................|.......................|.......................|G-1....0400............|.......0452............|.......................|.......................|
F-2....................|E-2....................|===....................|.......................|.......................|.......................|.......0452............|C-0....0400............|.......................|.......................|
.......................|.......................|.......................|.......................|.......................|.......................|E-1....0400............|.......0452............|.......................|.......................|
.......................|.......................|.......................|.......................|.......................|.......................|.......0452............|C-0....0400............|.......................|.......................|
G-1..7B................|F-2....................|.......................|.......................|.......................|.......................|G-1....0400............|.......0452............|.......................|.......................|
.......................|.......................|.......................|.......................|.......................|.......................|.......0452............|C-0....0400............|.......................|.......................|
.......................|.......................|.......................|.......................|.......................|.......................|E-1....0400............|.......0452............|.......................|.......................|
G#1....................|G-1..55................|.......................|.......................|.......................|.......................|.......0452............|C-0....0400............|.......................|.......................|
.......................|.......................|.......................|.......................|.......................|.......................|G-1....0400............|.......0452............|.......................|.......................|
.......................|.......................|.......................|.......................|.......................|.......................|.......0452............|C-0....0400............|.......................|.......................|
A-1....................|G#1....................|.......................|.......................|.......................|.......................|E-1....0400............|.......0452............|.......................|.......................|
.......................|.......................|.......................|.......................|.......................|.......................|.......0452............|C-0....0400............|.......................|.......................|
.......................|.......................|.......................|.......................|.......................|.......................|G-1....0400............|.......0452............|.......................|.......................|
A#1..6F................|A-1..5F................|E-1....................|.......................|.......................|.......................|.......0452............|C-0....0400............|.......................|.......................|
.......................|.......................|.......................|.......................|.......................|.......................|E-1....0400............|.......0452............|.......................|.......................|
.......................|.......................|.......................|.......................|.......................|.......................|.......0452............|C-0....0400............|.......................|.......................|
B-1....................|A#1....................|.......................|.......................|.......................|.......................|G-1....0400............|.......0452............|.......................|.......................|
.......................|.......................|.......................|.......................|.......................|.......................|.......0452............|C-0....0400............|.......................|.......................|
.......................|.......................|.......................|.......................|.......................|.......................|E-1....0400............|.......0452............|.......................|.......................|
C-2..67................|B-1..67................|.......................|.......................|.......................|.......................|.......0452............|C-0....0400............|.......................|.......................|
.......................|.......................|.......................|.......................|.......................|.......................|G-1....0400............|.......0452............|.......................|.......................|
.......................|.......................|.......................|.......................|.......................|.......................|.......0452............|C-0....0400............|.......................|.......................|
C#2....................|C-2....................|.......................|.......................|.......................|.......................|E-1....0400............|.......0452............|.......................|.......................|
.......................|.......................|.......................|.......................|.......................|.......................|.......0452............|C-0....0400............|.......................|.......................|
.......................|.......................|.......................|.......................|.......................|.......................|G-1....0400............|.......0452............|.......................|.......................|
D-2..5F................|C#2..6F................|E-1....................|.......................|.......................|.......................|.......0452............|C-0....0400............|.......................|.......................|
.......................|.......................|.......................|.......................|.......................|.......................|E-1....0400............|.......0452............|.......................|.......................|
.......................|.......................|.......................|.......................|.......................|.......................|.......0452............|C-0....0400............|.......................|.......................|
D#2....................|D-2....................|.......................|.......................|.......................|.......................|G-1....0400............|.......0452............|.......................|.......................|
.......................|.......................|.......................|.......................|.......................|.......................|.......0452............|C-0....0400............|.......................|.......................|
.......................|.......................|.......................|.......................|.......................|.......................|E-1....0400............|.......0452............|.......................|.......................|
E-2..55................|D#2..7B................|.......................|.......................|.......................|.......................|.......0452............|C-0....0400............|.......................|.......................|
.......................|.......................|.......................|.......................|.......................|.......................|G-1....0400............|.......0452............|.......................|.......................|
.......................|.......................|.......................|.......................|.......................|.......................|.......0452............|C-0....0400............|.......................|.......................|
F-2....................|E-2....................|.......................|.......................|.......................|.......................|E-1....0400............|.......0452............|.......................|.......................|
.......................|.......................|.......................|.......................|.......................|.......................|.......0452............|C-0....0400............|.......................|.......................|
.......................|.......................|.......................|.......................|.......................|.......................|G-1....0400............|.......0452............|.......................|.......................|
G-1..7B................|F-2....................|===....................|.......................|.......................|.......................|.......0452............|C-0....0400............|.......................|.......................|
.......................|.......................|.......................|.......................|.......................|.......................|E-1....0400............|.......0452............|.......................|.......................|
.......................|.......................|.......................|.......................|.......................|.......................|.......0452............|C-0....0400............|.......................|.......................|
G#1....................|G-1..55................|.......................|.......................|.......................|.......................|G-1....0400............|.......0452............|.......................|.......................|
.......................|.......................|.......................|.......................|.......................|.......................|.......0452............|C-0....0400............|.......................|.......................|
.......................|.......................|.......................|.......................|.......................|.......................|E-1....0400............|.......0452............|.......................|.......................|
A-1....................|G#1....................|.......................|.......................|.......................|.......................|.......0452............|C-0....0400............|.......................|.......................|
.......................|.......................|.......................|.......................|.......................|.......................|G-1....0400............|.......0452............|.......................|.......................|
.......................|.......................|.......................|.......................|.......................|.......................|.......0452............|C-0....0400............|.......................|.......................|
A#1..6F................|A-1..5F................|.......................|.......................|.......................|.......................|E-1....0400............|.......0452............|.......................|.......................|
.......................|.......................|.......................|.......................|.......................|.......................|.......0452............|C-0....0400............|.......................|.......................|
.......................|.......................|.......................|.......................|.......................|.......................|G-1....0400............|.......0452............|.......................|.......................|
B-1....................|A#1....................|E-1....................|.......................|.......................|.......................|.......0452............|C-0....0400............|.......................|.......................|
.......................|.......................|.......................|.......................|.......................|.......................|E-1....0400............|.......0452............|.......................|.......................|
.......................|.......................|.......................|.......................|.......................|.......................|.......0452............|C-0....0400............|.......................|.......................|
C-2..67................|B-1..67................|.......................|.......................|.......................|.......................|G-1....0400............|.......0452............|.......................|.......................|
.......................|.......................|.......................|.......................|.......................|.......................|.......0452............|C-0....0400............|.......................|.......................|
.......................|.......................|.......................|.......................|.......................|.......................|E-1....0400............|.......0452............|.......................|.......................|
C#2....................|C-2....................|.......................|.......................|.......................|.......................|.......0452............|C-0....0400............|.......................|.......................|
.......................|.......................|.......................|.......................|.......................|.......................|G-1....0400............|.......0452............|.......................|.......................|
.......................|.......................|.......................|.......................|.......................|.......................|.......0452............|C-0....0400............|.......................|.......................|
D-2..5F................|C#2..6F................|.......................|.......................|.......................|.......................|E-1....0400............|.......0452............|.......................|.......................|
.......................|.......................|.......................|.......................|.......................|.......................|.......0452............|C-0....0400............|.......................|.......................|
.......................|.......................|.......................|.......................|.......................|.......................|G-1....0400............|.......0452............|.......................|.......................|
D#2....................|D-2....................|E-1....................|.......................|.......................|.......................|.......0452............|C-0....0400............|.......................|.......................|
.......................|.......................|.......................|.......................|.......................|.......................|E-1....0400............|.......0452............|.......................|.......................|
.......................|.......................|.......................|.......................|.......................|.......................|.......0452............|C-0....0400............|.......................|.......................|
E-2..55................|D#2..7B................|.......................|A-1....0400............|.......................|.......................|G-1....0400............|.......0452............|.......................|.......................|
.......................|.......................|.......................|.......................|.......................|.......................|.......0452............|C-0....0400............|.......................|.......................|
.......................|.......................|.......................|.......................|.......................|.......................|E-1....0400............|.......0452............|.......................|.......................|
F-2....................|E-2....................|.......................|.......................|.......................|.......................|.......0452............|C-0....0400............|.......................|.......................|
.......................|.......................|.......................|.......................|.......................|.......................|G-1....0400............|.......0452............|.......................|.......................|
.......................|.......................|.......................|.......................|.......................|.......................|.......0452............|C-0....0400............|.......................|.......................|
G-1..7B................|F-2....................|.......................|.......................|.......................|.......................|E-1....0400............|.......0452............|.......................|.......................|
.......................|.......................|.......................|.......................|.......................|.......................|.......0452............|C-0....0400............|.......................|.......................|
.......................|.......................|.......................|.......................|.......................|.......................|G-1....0400............|.......0452............|.......................|.......................|
G#1....................|G-1..55................|===....................|.......................|.......................|.......................|.......0452............|C-0....0400............|.......................|.......................|
.......................|.......................|.......................|.......................|.......................|.......................|E-1....0400............|.......0452............|.......................|.......................|
.......................|.......................|.......................|.......................|.......................|.......................|.......0452............|C-0....0400............|.......................|.......................|
A-1....................|G#1....................|.......................|.......................|.......................|.......................|G-1....0400............|.......0452............|.......................|.......................|
.......................|.......................|.......................|.......................|.......................|.......................|.......0452............|C-0....0400............|.......................|.......................|
.......................|.......................|.......................|.......................|.......................|.......................|E-1....0400............|.......0452............|.......................|.......................|
A#1..6F................|A-1..5F................|.......................|.......................|.......................|.......................|.......0452............|C-0....0400............|.......................|.......................|
.......................|.......................|.......................|.......................|.......................|.......................|G-1....0400............|.......0452............|.......................|.......................|
.......................|.......................|.......................|.......................|.......................|.......................|.......0452............|C-0....0400............|.......................|.......................|
B-1....................|A#1....................|.......................|.......................|.......................|.......................|E-1....0400............|.......0452............|.......................|.......................|
.......................|.......................|.......................|.......................|.......................|.......................|.......0452............|C-0....0400............|.......................|.......................|
.......................|.......................|.......................|.......E3000452........|.......................|.......................|G-1....0400............|.......0452............|.......................|.......................|
C-2..67................|B-1..67................|E-1....................|.......................|.......................|.......................|.......0452............|C-0....0400............|.......................|.......................|
.......................|.......................|.......................|.......................|.......................|.......................|E-1....0400............|.......0452............|.......................|.......................|
.......................|.......................|.......................|.......................|.......................|.......................|.......0452............|C-0....0400............|.......................|.......................|
C#2....................|C-2....................|.......................|.......................|.......................|.......................|G-1....0400............|.......0452............|.......................|.......................|
.......................|.......................|.......................|.......................|.......................|.......................|.......0452............|C-0....0400............|.......................|.......................|
.......................|.......................|.......................|.......................|.......................|.......................|E-1....0400............|.......0452............|.......................|.......................|
D-2..5F................|C#2..6F................|.......................|.......................|.......................|.......................|.......0452............|C-0....0400............|.......................|.......................|
.......................|.......................|.......................|.......................|.......................|.......................|G-1....0400............|.......0452............|.......................|.......................|
.......................|.......................|.......................|.......................|.......................|.......................|.......0452............|C-0....0400............|.......................|.......................|
D#2....................|D-2....................|.......................|.......................|.......................|.......................|E-1....0400............|.......0452............|.......................|.......................|
.......................|.......................|.......................|.......................|.......................|.......................|.......0452............|C-0....0400............|.......................|.......................|
.......................|.......................|.......................|.......................|.......................|.......................|G-1....0400............|.......0452............|.......................|.......................|
E-2..55................|D#2..7B................|E-1....................|.......................|.......................|.......................|.......0452............|C-0....0400............|.......................|.......................|
.......................|.......................|.......................|.......................|.......................|.......................|E-1....0400............|.......0452............|.......................|.......................|
.......................|.......................|.......................|.......................|.......................|.......................|.......0452............|C-0....0400............|.......................|.......................|
F-2....................|E-2....................|.......................|.......................|.......................|.......................|G-1....0400............|.......0452............|.......................|.......................|
.......................|.......................|.......................|.......................|.......................|.......................|.......0452............|C-0....0400............|.......................|.......................|
.......................|.......................|.......................|.......................|.......................|.......................|E-1....0400............|.......0452............|.......................|.......................|
G-1..7B................|F-2....................|.......................|.......................|.......................|.......................|.......0452............|C-0....0400............|.......................|.......................|
.......................|.......................|.......................|.......................|.......................|.......................|G-1....0400............|.......0452............|.......................|.......................|
.......................|.......................|.......................|.......................|.......................|.......................|.......0452............|C-0....0400............|.......................|.......................|
G#1....................|G-1..55................|.......................|.......................|.......................|.......................|E-1....0400............|.......0452............|.......................|.......................|
.......................|.......................|.......................|.......................|.......................|.......................|.......0452............|C-0....0400............|.......................|.......................|
.......................|.......................|.......................|.......................|.......................|.......................|G-1....0400............|.......0452............|.......................|.......................|
A-1....................|G#1....................|===....................|.......................|.......................|.......................|.......0452............|C-0....0400............|.......................|.......................|
.......................|.......................|.......................|.......................|.......................|.......................|E-1....0400............|.......0452............|.......................|.......................|
.......................|.......................|.......................|.......................|.......................|.......................|.......0452............|C-0....0400............|.......................|.......................|
A#1..6F................|A-1..5F................|.......................|.......................|.......................|.......................|G-1....0400............|.......0452............|.......................|.......................|
.......................|.......................|.......................|.......................|.......................|.......................|.......0452............|C-0....0400............|.......................|.......................|
.......................|.......................|.......................|.......................|.......................|.......................|E-1....0400............|.......0452............|.......................|.......................|
B-1....................|A#1....................|.......................|.......................|.......................|.......................|.......0452............|C-0....0400............|.......................|.......................|
.......................|.......................|.......................|.......................|.......................|.......................|G-1....0400............|.......0452............|.......................|.......................|
.......................|.......................|.......................|.......................|.......................|.......................|.......0452............|C-0....0400............|.......................|.......................|
C-2..67................|B-1..67................|.......................|.......................|.......................|.......................|E-1....0400............|.......0452............|.......................|.......................|
.......................|.......................|.......................|.......................|.......................|.......................|.......0452............|C-0....0400............|.......................|.......................|
.......................|.......................|.......................|.......................|.......................|.......................|G-1....0400............|.......0452............|.......................|.......................|
C#2....................|C-2....................|E-1....................|.......................|.......................|.......................|.......0452............|C-0....0400............|.......................|.......................|
.......................|.......................|.......................|.......................|.......................|.......................|E-1....0400............|.......0452............|.......................|.......................|
.......................|.......................|.......................|.......................|.......................|.......................|.......0452............|C-0....0400............|.......................|.......................|
D-2..5F................|C#2..6F................|.......................|.......................|.......................|.......................|G-1....0400............|.......0452............|.......................|.......................|
.......................|.......................|.......................|.......................|.......................|.......................|.......0452............|C-0....0400............|.......................|.......................|
.......................|.......................|.......................|.......................|.......................|.......................|E-1....0400............|.......0452............|.......................|.......................|
D#2....................|D-2....................|.......................|.......................|.......................|.......................|.......0452............|C-0....0400............|.......................|.......................|
.......................|.......................|.......................|.......................|.......................|.......................|G-1....0400............|.......0452............|.......................|.......................|
.......................|.......................|.......................|.......................|.......................|.......................|.......0452............|C-0....0400............|.......................|.......................|
E-2..55................|D#2..7B................|.......................|.......................|.......................|.......................|E-1....0400............|.......0452............|.......................|.......................|
.......................|.......................|.......................|.......................|.......................|.......................|.......0452............|C-0....0400............|.......................|.......................|
.......................|.......................|.......................|.......................|.......................|.......................|G-1....0400............|.......0452............|.......................|.......................|
F-2....................|E-2....................|E-1....................|.......................|.......................|.......................|.......0452............|C-0....0400............|.......................|.......................|
.......................|.......................|.......................|.......................|.......................|.......................|E-1....0400............|.......0452............|.......................|.......................|
.......................|.......................|.......................|.......................|.......................|.......................|.......0452............|C-0....0400............|.......................|.......................|
F-13274................|F-2....................|.......................|A-1....0400............|.......................|.......................|G-1....0400............|.......0452............|.......................|.......................|
.......................|.......................|.......................|.......................|.......................|.......................|.......0452............|C-0....0400............|.......................|.......................|
.......................|.......................|.......................|.......................|.......................|.......................|E-1....0400............|.......0452............|.......................|.......................|
.......................|F-13274................|.......................|.......................|.......................|.......................|.......0452............|C-0....0400............|.......................|.......................|
.......................|.......................|.......................|.......................|.......................|.......................|G-1....0400............|.......0452............|.......................|.......................|
.......................|.......................|.......................|.......................|.......................|.......................|.......0452............|C-0....0400............|.......................|.......................|
.......................|.......................|.......................|A-1....................|.......................|.......................|E-1....0400............|.......0452............|.......................|.......................|
.......................|.......................|.......................|.......................|.......................|.......................|.......0452............|C-0....0400............|.......................|.......................|
.......................|.......................|.......................|.......................|.......................|.......................|G-1....0400............|.......0452............|.......................|.......................|
.......................|.......................|===....................|.......................|.......................|.......................|.......0452............|C-0....0400............|.......................|.......................|
.......................|.......................|.......................|.......................|.......................|.......................|E-1....0400............|.......0452............|.......................|.......................|
.......................|.......................|.......................|.......................|.......................|.......................|.......0452............|C-0....0400............|.......................|.......................|
.......................|.......................|.......................|A-1....................|.......................|.......................|G-1....0400............|.......0452............|.......................|.......................|
.......................|.......................|.......................|.......................|.......................|.......................|.......0452............|C-0....0400............|.......................|.......................|
.......................|.......................|.......................|.......................|.......................|.......................|E-1....0400............|.......0452............|.......................|.......................|
.......................|.......................|.......................|.......................|.......................|.......................|.......0452............|C-0....0400............|.......................|.......................|
.......................|.......................|.......................|.......................|.......................|.......................|G-1....0400............|.......0452............|.......................|.......................|
.......................|.......................|.......................|.......................|.......................|.......................|.......0452............|C-0....0400............|.......................|.......................|
.......................|.......................|.......................|A-1....................|.......................|.......................|E-1....0400............|.......0452............|.......................|.......................|
.......................|.......................|.......................|.......................|.......................|.......................|.......0452............|C-0....0400............|.......................|.......................|
.......E3000452........|.......................|.......................|.......................|.......................|.......................|G-1....0400............|.......0452............|.......................|.......................|
.......................|.......................|E-1....................|.......................|.......................|.......................|.......0452............|C-0....0400............|.......................|.......................|
.......................|.......................|.......................|.......................|.......................|.......................|E-1....0400............|.......0452............|.......................|.......................|
.......................|.......E3000452........|.......................|.......................|.......................|.......................|.......0452............|C-0....0400............|.......................|.......................|
.......................|.......................|.......................|A-1....................|.......................|.......................|G-1....0400............|.......0452............|.......................|.......................|
.......................|.......................|.......................|.......................|.......................|.......................|.......0452............|C-0....0400............|.......................|.......................|
.......................|.......................|.......................|.......................|.......................|.......................|E-1....0400............|.......0452............|.......................|.......................|
.......................|.......................|.......................|.......................|.......................|.......................|.......0452............|C-0....0400............|.......................|.......................|
.......................|.......................|.......................|.......................|.......................|.......................|G-1....0400............|.......0452............|.......................|.......................|
.......................|.......................|.......................|.......................|.......................|.......................|.......0452............|C-0....0400............|.......................|.......................|
.......................|.......................|.......................|A-1....................|.......................|.......................|E-1....0400............|.......0452............|.......................|.......................|
.......................|.......................|.......................|.......................|.......................|.......................|.......0452............|C-0....0400............|.......................|.......................|
.......................|.......................|.......................|.......................|.......................|.......................|G-1....0400............|.......0452............|.......................|.......................|
.......................|.......................|E-1....................|.......................|.......................|.......................|.......0452............|C-0....0400............|.......................|.......................|
.......................|.......................|.......................|.......................|.......................|.......................|E-1....0400............|.......0452............|.......................|.......................|
.......................|.......................|.......................|.......................|.......................|.......................|.......0452............|C-0....0400............|.......................|.......................|
.......................|.......................|.......................|A-1....................|.......................|.......................|G-1....0400............|.......0452............|.......................|.......................|
.......................|.......................|.......................|.......................|.......................|.......................|.......0452............|C-0....0400............|.......................|.......................|
.......................|.......................|.......................|.......................|.......................|.......................|E-1....0400............|.......0452............|.......................|.......................|
.......................|.......................|.......................|.......................|.......................|.......................|.......0452............|C-0....0400............|.......................|.......................|
.......................|.......................|.......................|.......................|.......................|.......................|G-1....0400............|.......0452............|.......................|.......................|
.......................|.......................|.......................|.......................|.......................|.......................|.......0452............|C-0....0400............|.......................|.......................|
.......................|.......................|.......................|A-1....................|.......................|.......................|E-1....0400............|.......0452............|.......................|.......................|
.......................|.......................|.......................|.......................|.......................|.......................|.......0452............|C-0....0400............|.......................|.......................|
.......................|.......................|.......................|.......................|.......................|.......................|G-1....0400............|.......0452............|.......................|.......................|
.......................|.......................|===....................|.......................|.......................|.......................|.......0452............|C-0....0400............|.......................|.......................|
.......................|.......................|.......................|.......................|.......................|.......................|E-1....0400............|.......0452............|.......................|.......................|
.......................|.......................|.......................|.......................|.......................|.......................|.......0452............|C-0....0400............|.......................|.......................|
.......................|.......................|.......................|A-1....................|.......................|.......................|G-1....0400............|.......0452............|.......................|.......................|
.......................|.......................|.......................|.......................|.......................|.......................|.......0452............|C-0....0400............|.......................|.......................|
.......................|.......................|.......................|.......................|.......................|.......................|E-1....0400............|.......0452............|.......................|.......................|
.......................|.......................|.......................|.......................|.......................|.......................|.......0452............|C-0....0400............|.......................|.......................|
.......................|.......................|.......................|.......................|.......................|.......................|G-1....0400............|.......0452............|.......................|.......................|
.......................|.......................|.......................|.......................|.......................|.......................|.......0452............|C-0....0400............|.......................|.......................|
.......................|.......................|.......................|A-1....................|.......................|.......................|OFF....................|.......0452............|.......................|.......................|
.......................|.......................|.......................|.......................|.......................|.......................|.......................|C-0....0400............|.......................|.......................|
org.tildearrow.furnace - Pattern Data (219)
0
.......................|.......................|.......................|.......................|.......................|.......................|.......................|.......0452............|.......................|.......................|
.......................|.......................|E-1....................|.......................|.......................|.......................|.......................|C-0....0400............|.......................|.......................|
.......................|.......................|.......................|.......................|.......................|.......................|.......................|.......0452............|.......................|.......................|
.......................|.......................|.......................|.......................|.......................|.......................|.......................|C-0....0400............|.......................|.......................|
.......................|.......................|.......................|A-1....................|.......................|.......................|.......................|.......0452............|.......................|.......................|
.......................|.......................|.......................|.......................|.......................|.......................|.......................|C-0....0400............|.......................|.......................|
.......................|.......................|.......................|.......................|.......................|.......................|.......................|.......0452............|.......................|.......................|
.......................|.......................|.......................|.......................|.......................|.......................|.......................|C-0....0400............|.......................|.......................|
.......................|.......................|.......................|.......................|.......................|.......................|.......................|.......0452............|.......................|.......................|
.......................|.......................|.......................|.......................|.......................|.......................|.......................|C-0....0400............|.......................|.......................|
.......................|.......................|.......................|A-1....................|.......................|.......................|.......................|.......0452............|.......................|.......................|
.......................|.......................|.......................|.......................|.......................|.......................|.......................|C-0....0400............|.......................|.......................|
.......................|.......................|.......................|.......................|.......................|.......................|.......................|.......0452............|.......................|.......................|
.......................|.......................|E-1....................|.......................|.......................|.......................|.......................|C-0....0400............|.......................|.......................|
.......................|.......................|.......................|.......................|.......................|.......................|.......................|.......0452............|.......................|.......................|
.......................|.......................|.......................|.......................|.......................|.......................|.......................|C-0....0400............|.......................|.......................|
.......................|.......................|.......................|A-1....................|.......................|.......................|.......................|.......0452............|.......................|.......................|
.......................|.......................|.......................|.......................|.......................|.......................|.......................|C-0....0400............|.......................|.......................|
.......................|.......................|.......................|.......................|.......................|.......................|.......................|.......0452............|.......................|.......................|
.......................|.......................|.......................|.......................|.......................|.......................|.......................|C-0....0400............|.......................|.......................|
.......................|.......................|.......................|.......................|.......................|.......................|.......................|.......0452............|.......................|.......................|
.......................|.......................|.......................|.......................|.......................|.......................|.......................|C-0....0400............|.......................|.......................|
.......................|.......................|.......................|A-1....................|.......................|.......................|.......................|.......0452............|.......................|.......................|
.......................|.......................|.......................|.......................|.......................|.......................|.......................|C-0....0400............|.......................|.......................|
.......................|.......................|.......................|.......................|.......................|.......................|.......................|.......0452............|.......................|.......................|
.......................|.......................|===....................|.......................|.......................|.......................|.......................|C-0....0400............|.......................|.......................|
.......................|.......................|.......................|.......................|.......................|.......................|.......................|.......0452............|.......................|.......................|
.......................|.......................|.......................|.......................|.......................|.......................|.......................|C-0....0400............|.......................|.......................|
.......................|.......................|.......................|A-1....................|.......................|.......................|.......................|.......0452............|.......................|.......................|
.......................|.......................|.......................|.......................|.......................|.......................|.......................|C-0....0400............|.......................|.......................|
.......................|.......................|.......................|.......................|.......................|.......................|.......................|.......0452............|.......................|.......................|
.......................|.......................|.......................|.......................|.......................|.......................|.......................|C-0....0400............|.......................|.......................|
.......................|.......................|.......................|.......................|.......................|.......................|.......................|.......0452............|.......................|.......................|
.......................|.......................|.......................|.......................|.......................|.......................|.......................|C-0....0400............|.......................|.......................|
.......................|.......................|.......................|A-1....................|.......................|.......................|.......................|.......0452............|.......................|.......................|
.......................|.......................|.......................|.......................|.......................|.......................|.......................|C-0....0400............|.......................|.......................|
.......................|.......................|.......................|.......................|.......................|.......................|.......................|.......0452............|.......................|.......................|
.......................|.......................|E-1....................|.......................|.......................|.......................|.......................|C-0....0400............|.......................|.......................|
.......................|.......................|.......................|.......................|.......................|.......................|.......................|.......0452............|.......................|.......................|
.......................|.......................|.......................|.......................|.......................|.......................|.......................|C-0....0400............|.......................|.......................|
.......................|.......................|.......................|OFF....................|.......................|.......................|.......................|.......0452............|.......................|.......................|
.......................|.......................|.......................|.......................|.......................|.......................|.......................|C-0....0400............|.......................|.......................|
.......................|.......................|.......................|.......................|.......................|.......................|.......................|.......0452............|.......................|.......................|
.......................|.......................|.......................|.......................|.......................|.......................|.......................|C-0....0400............|.......................|.......................|
.......................|.......................|.......................|.......................|.......................|.......................|.......................|.......0452............|.......................|.......................|
.......................|.......................|.......................|.......................|.......................|.......................|.......................|C-0....0400............|.......................|.......................|
.......................|.......................|.......................|.......................|.......................|.......................|.......................|.......0452............|.......................|.......................|
.......................|.......................|.......................|.......................|.......................|.......................|.......................|C-0....0400............|.......................|.......................|
.......................|.......................|.......................|.......................|.......................|.......................|.......................|.......0452............|.......................|.......................|
.......................|.......................|E-1....................|.......................|.......................|.......................|.......................|OFF....................|.......................|.......................|
.......................|.......................|.......................|.......................|.......................|.......................|.......................|.......................|.......................|.......................|
.......................|.......................|.......................|.......................|.......................|.......................|.......................|.......................|.......................|.......................|
.......................|.......................|.......................|.......................|.......................|.......................|.......................|.......................|.......................|.......................|
.......................|.......................|.......................|.......................|.......................|.......................|.......................|.......................|.......................|.......................|
.......................|.......................|.......................|.......................|.......................|.......................|.......................|.......................|.......................|.......................|
.......................|.......................|.......................|.......................|.......................|.......................|.......................|.......................|.......................|.......................|
.......................|.......................|.......................|.......................|.......................|.......................|.......................|.......................|.......................|.......................|
.......................|.......................|.......................|.......................|.......................|.......................|.......................|.......................|.......................|.......................|
.......................|.......................|.......................|.......................|.......................|.......................|.......................|.......................|.......................|.......................|
.......................|.......................|.......................|.......................|.......................|.......................|.......................|.......................|.......................|.......................|
.......................|.......................|.......................|.......................|.......................|.......................|.......................|.......................|.......................|.......................|
.......................|.......................|===....................|.......................|.......................|.......................|.......................|.......................|.......................|.......................|
.......................|.......................|.......................|.......................|.......................|.......................|.......................|.......................|.......................|.......................|
.......................|.......................|.......................|.......................|.......................|.......................|.......................|.......................|.......................|.......................|
.......................|.......................|.......................|.......................|.......................|.......................|.......................|.......................|.......................|.......................|
.......................|.......................|.......................|.......................|.......................|.......................|.......................|.......................|.......................|.......................|
.......................|.......................|.......................|.......................|.......................|.......................|.......................|.......................|.......................|.......................|
.......................|.......................|.......................|.......................|.......................|.......................|.......................|.......................|.......................|.......................|
.......................|.......................|.......................|.......................|.......................|.......................|.......................|.......................|.......................|.......................|
.......................|.......................|.......................|.......................|.......................|.......................|.......................|.......................|.......................|.......................|
.......................|.......................|.......................|.......................|.......................|.......................|.......................|.......................|.......................|.......................|
.......................|.......................|.......................|.......................|.......................|.......................|.......................|.......................|.......................|.......................|
.......................|.......................|.......................|.......................|.......................|.......................|.......................|.......................|.......................|.......................|
.......................|.......................|OFF....................|.......................|.......................|.......................|.......................|.......................|.......................|.......................|
.......................|.......................|.......................|.......................|.......................|.......................|.......................|.......................|.......................|.......................|
.......................|.......................|.......................|.......................|.......................|.......................|.......................|.......................|.......................|.......................|
.......................|.......................|.......................|.......................|.......................|.......................|.......................|.......................|.......................|.......................|
.......................|.......................|.......................|.......................|.......................|.......................|.......................|.......................|.......................|.......................|
.......................|.......................|.......................|.......................|.......................|.......................|.......................|.......................|.......................|.......................|
.......................|.......................|.......................|.......................|.......................|.......................|.......................|.......................|.......................|.......................|
.......................|.......................|.......................|.......................|.......................|.......................|.......................|.......................|.......................|.......................|
.......................|.......................|.......................|.......................|.......................|.......................|.......................|.......................|.......................|.......................|
.......................|.......................|.......................|.......................|.......................|.......................|.......................|.......................|.......................|.......................|
.......................|.......................|.......................|.......................|.......................|.......................|.......................|.......................|.......................|.......................|
.......................|.......................|.......................|.......................|.......................|.......................|.......................|.......................|.......................|.......................|
.......................|.......................|.......................|.......................|.......................|.......................|.......................|.......................|.......................|.......................|
.......................|.......................|.......................|.......................|.......................|.......................|.......................|.......................|.......................|.......................|
.......................|F-1....0400............|.......................|.......................|.......................|.......................|.......................|.......................|.......................|.......................|
F-1....0400............|.......................|.......................|.......................|.......................|.......................|.......................|.......................|.......................|.......................|
.......................|.......................|.......................|.......................|.......................|.......................|.......................|.......................|.......................|.......................|
.......................|.......................|.......................|.......................|.......................|.......................|.......................|.......................|.......................|.......................|
.......................|.......................|.......................|.......................|.......................|.......................|.......................|.......................|.......................|.......................|
.......................|.......................|.......................|.......................|.......................|.......................|.......................|.......................|.......................|.......................|
.......................|F-1....................|.......................|.......................|.......................|.......................|.......................|.......................|.......................|.......................|
F-1....................|.......................|.......................|.......................|.......................|.......................|.......................|.......................|.......................|.......................|
.......................|.......................|.......................|.......................|.......................|.......................|.......................|.......................|.......................|.......................|
.......................|.......................|.......................|.......................|.......................|.......................|.......................|.......................|.......................|.......................|
.......................|.......................|.......................|.......................|.......................|.......................|.......................|.......................|.......................|.......................|
.......................|.......................|.......................|.......................|.......................|.......................|.......................|.......................|.......................|.......................|
.......................|F-1....................|.......................|.......................|.......................|.......................|.......................|.......................|.......................|.......................|
F-1....................|.......................|.......................|.......................|.......................|.......................|.......................|.......................|.......................|.......................|
.......................|.......................|.......................|.......................|.......................|.......................|.......................|.......................|.......................|.......................|
.......................|.......................|.......................|.......................|.......................|.......................|.......................|.......................|.......................|.......................|
.......................|.......................|.......................|.......................|.......................|.......................|.......................|.......................|.......................|.......................|
.......................|.......................|.......................|.......................|.......................|.......................|.......................|.......................|.......................|.......................|
.......................|F-1....................|.......................|.......................|.......................|.......................|.......................|.......................|.......................|.......................|
F-1....................|.......................|.......................|.......................|.......................|.......................|.......................|.......................|.......................|.......................|
.......................|.......................|.......................|.......................|.......................|.......................|.......................|.......................|.......................|.......................|
.......................|.......................|.......................|.......................|.......................|.......................|.......................|.......................|.......................|.......................|
.......................|.......................|.......................|.......................|.......................|.......................|.......................|.......................|.......................|.......................|
.......................|.......................|.......................|.......................|.......................|.......................|.......................|.......................|.......................|.......................|
.......................|F-1....................|.......................|.......................|.......................|.......................|.......................|.......................|.......................|.......................|
F-1....................|.......................|.......................|.......................|.......................|.......................|.......................|.......................|.......................|.......................|
.......................|.......................|.......................|.......................|.......................|.......................|.......................|.......................|.......................|.......................|
.......................|.......................|.......................|.......................|.......................|.......................|.......................|.......................|.......................|.......................|
.......................|.......................|.......................|.......................|.......................|.......................|.......................|.......................|.......................|.......................|
.......................|.......................|.......................|.......................|.......................|.......................|.......................|.......................|.......................|.......................|
.......................|F-1....................|.......................|.......................|.......................|.......................|.......................|.......................|.......................|.......................|
F-1....................|.......................|.......................|.......................|.......................|.......................|.......................|.......................|.......................|.......................|
.......................|.......................|.......................|.......................|.......................|.......................|.......................|.......................|.......................|.......................|
.......................|.......................|.......................|.......................|.......................|.......................|.......................|.......................|.......................|.......................|
.......................|.......................|.......................|.......................|.......................|.......................|.......................|.......................|.......................|.......................|
.......................|.......................|.......................|.......................|.......................|.......................|.......................|.......................|.......................|.......................|
.......................|F-1....................|.......................|.......................|.......................|.......................|.......................|.......................|.......................|.......................|
F-1....................|.......................|.......................|.......................|.......................|.......................|.......................|.......................|.......................|.......................|
.......................|.......................|.......................|.......................|.......................|.......................|.......................|.......................|.......................|.......................|
.......................|.......................|.......................|.......................|.......................|.......................|.......................|.......................|.......................|.......................|
.......................|.......................|.......................|.......................|.......................|.......................|.......................|.......................|.......................|.......................|
.......................|.......................|.......................|.......................|.......................|.......................|.......................|.......................|.......................|.......................|
.......................|F-1....................|.......................|.......................|.......................|.......................|.......................|.......................|.......................|.......................|
F-1....................|.......................|.......................|.......................|.......................|.......................|.......................|.......................|.......................|.......................|
.......................|.......................|.......................|.......................|.......................|.......................|.......................|.......................|.......................|.......................|
.......................|.......................|.......................|.......................|.......................|.......................|.......................|.......................|.......................|.......................|
.......................|.......................|.......................|.......................|.......................|.......................|.......................|.......................|.......................|.......................|
.......................|.......................|.......................|.......................|.......................|.......................|.......................|.......................|.......................|.......................|
.......................|OFF....................|.......................|.......................|.......................|.......................|.......................|.......................|.......................|.......................|
OFF....................|.......................|.......................|.......................|.......................|.......................|.......................|.......................|.......................|.......................|
.......................|.......................|.......................|.......................|.......................|.......................|.......................|.......................|.......................|.......................|
.......................|.......................|.......................|.......................|.......................|.......................|.......................|.......................|.......................|.......................|
.......................|.......................|.......................|.......................|.......................|.......................|.......................|.......................|.......................|.......................|
.......................|.......................|.......................|.......................|.......................|.......................|.......................|.......................|.......................|.......................|
.......................|.......................|.......................|.......................|.......................|.......................|.......................|.......................|.......................|.......................|
.......................|.......................|.......................|.......................|.......................|.......................|.......................|.......................|.......................|.......................|
.......................|.......................|.......................|.......................|.......................|.......................|.......................|.......................|.......................|.......................|
.......................|.......................|.......................|.......................|.......................|.......................|.......................|.......................|.......................|.......................|
.......................|.......................|.......................|.......................|.......................|.......................|.......................|.......................|.......................|.......................|
.......................|.......................|.......................|.......................|.......................|.......................|.......................|.......................|.......................|.......................|
.......................|.......................|.......................|.......................|.......................|.......................|.......................|.......................|.......................|.......................|
.......................|.......................|.......................|.......................|.......................|.......................|.......................|.......................|.......................|.......................|
.......................|.......................|.......................|.......................|.......................|.......................|.......................|.......................|.......................|.......................|
.......................|.......................|.......................|.......................|.......................|.......................|.......................|.......................|.......................|.......................|
.......................|.......................|.......................|.......................|.......................|.......................|.......................|.......................|.......................|.......................|
.......................|.......................|.......................|.......................|.......................|.......................|.......................|.......................|.......................|.......................|
.......................|.......................|.......................|.......................|.......................|.......................|.......................|.......................|.......................|.......................|
.......................|.......................|.......................|.......................|.......................|.......................|.......................|.......................|.......................|.......................|
.......................|.......................|.......................|.......................|.......................|.......................|.......................|.......................|.......................|.......................|
.......................|.......................|.......................|.......................|.......................|.......................|.......................|.......................|.......................|.......................|
.......................|.......................|.......................|.......................|.......................|.......................|.......................|.......................|.......................|.......................|
.......................|.......................|.......................|.......................|.......................|.......................|.......................|.......................|.......................|.......................|
.......................|.......................|.......................|.......................|.......................|.......................|.......................|.......................|.......................|.......................|
.......................|.......................|.......................|.......................|.......................|.......................|.......................|.......................|.......................|.......................|
.......................|.......................|.......................|.......................|.......................|.......................|.......................|.......................|.......................|.......................|
.......................|.......................|.......................|.......................|.......................|.......................|.......................|.......................|.......................|.......................|
.......................|.......................|.......................|.......................|.......................|.......................|.......................|.......................|.......................|.......................|
.......................|.......................|.......................|.......................|.......................|.......................|.......................|.......................|.......................|.......................|
.......................|.......................|.......................|.......................|.......................|.......................|.......................|.......................|.......................|.......................|
.......................|.......................|.......................|.......................|.......................|.......................|.......................|.......................|.......................|.......................|
.......................|.......................|.......................|.......................|.......................|.......................|.......................|.......................|.......................|.......................|
.......................|.......................|.......................|.......................|.......................|.......................|.......................|.......................|.......................|.......................|
.......................|.......................|.......................|.......................|.......................|.......................|.......................|.......................|.......................|.......................|
.......................|.......................|.......................|.......................|.......................|.......................|.......................|.......................|.......................|.......................|
.......................|.......................|.......................|.......................|.......................|.......................|.......................|.......................|.......................|.......................|
.......................|.......................|.......................|.......................|.......................|.......................|.......................|.......................|.......................|.......................|
.......................|.......................|.......................|.......................|.......................|.......................|.......................|.......................|.......................|.......................|
.......................|.......................|.......................|.......................|.......................|.......................|.......................|.......................|.......................|.......................|
.......................|.......................|.......................|.......................|.......................|.......................|.......................|.......................|.......................|.......................|
.......................|.......................|.......................|.......................|.......................|.......................|.......................|.......................|.......................|.......................|
.......................|.......................|.......................|.......................|.......................|.......................|.......................|.......................|.......................|.......................|
.......................|.......................|.......................|.......................|.......................|.......................|.......................|.......................|.......................|.......................|
.......................|.......................|.......................|.......................|.......................|.......................|.......................|.......................|.......................|.......................|
.......................|.......................|.......................|.......................|.......................|.......................|.......................|.......................|.......................|.......................|
.......................|.......................|.......................|.......................|.......................|.......................|.......................|.......................|.......................|.......................|
.......................|.......................|.......................|.......................|.......................|.......................|.......................|.......................|.......................|.......................|
.......................|.......................|.......................|.......................|.......................|.......................|.......................|.......................|.......................|.......................|
.......................|.......................|.......................|.......................|.......................|.......................|.......................|.......................|.......................|.......................|
.......................|.......................|.......................|.......................|.......................|.......................|.......................|.......................|.......................|.......................|
.......................|.......................|.......................|.......................|.......................|.......................|.......................|.......................|.......................|.......................|
.......................|.......................|.......................|.......................|.......................|.......................|.......................|.......................|.......................|.......................|
.......................|.......................|.......................|.......................|.......................|.......................|.......................|.......................|.......................|.......................|
.......................|.......................|.......................|.......................|.......................|.......................|.......................|.......................|.......................|.......................|
.......................|.......................|.......................|.......................|.......................|.......................|.......................|.......................|.......................|.......................|
.......................|.......................|.......................|.......................|.......................|.......................|.......................|.......................|.......................|.......................|
.......................|.......................|.......................|.......................|.......................|.......................|.......................|.......................|.......................|.......................|
.......................|.......................|.......................|.......................|.......................|.......................|.......................|.......................|.......................|.......................|
.......................|.......................|.......................|.......................|.......................|.......................|.......................|.......................|.......................|.......................|
.......................|.......................|.......................|.......................|.......................|.......................|.......................|.......................|.......................|.......................|
.......................|.......................|.......................|.......................|.......................|.......................|.......................|.......................|.......................|.......................|
.......................|.......................|.......................|.......................|.......................|.......................|.......................|.......................|.......................|.......................|
.......................|.......................|.......................|.......................|.......................|.......................|.......................|.......................|.......................|.......................|
.......................|.......................|.......................|.......................|.......................|.......................|.......................|.......................|.......................|.......................|
.......................|.......................|.......................|.......................|.......................|.......................|.......................|.......................|.......................|.......................|
.......................|.......................|.......................|.......................|.......................|.......................|.......................|.......................|.......................|.......................|
.......................|.......................|.......................|.......................|.......................|.......................|.......................|.......................|.......................|.......................|
.......................|.......................|.......................|.......................|.......................|.......................|.......................|.......................|.......................|.......................|
.......................|.......................|.......................|.......................|.......................|.......................|.......................|.......................|.......................|.......................|
.......................|.......................|.......................|.......................|.......................|.......................|.......................|.......................|.......................|.......................|
.......................|.......................|.......................|.......................|.......................|.......................|.......................|.......................|.......................|.......................|
.......................|.......................|.......................|.......................|.......................|.......................|.......................|.......................|.......................|.......................|
.......................|.......................|.......................|.......................|.......................|.......................|.......................|.......................|.......................|.......................|
.......................|.......................|.......................|.......................|.......................|.......................|.......................|.......................|.......................|.......................|
.......................|.......................|.......................|.......................|.......................|.......................|.......................|.......................|.......................|.......................|
.......................|.......................|.......................|.......................|.......................|.......................|.......................|.......................|.......................|.......................|
.......................|.......................|.......................|.......................|.......................|.......................|.......................|.......................|.......................|.......................|
.......................|.......................|.......................|.......................|.......................|.......................|.......................|.......................|.......................|.......................|
.......................|.......................|.......................|.......................|.......................|.......................|.......................|.......................|.......................|.......................|
.......................|.......................|.......................|.......................|.......................|.......................|.......................|.......................|.......................|.......................|
.......................|.......................|.......................|.......................|.......................|.......................|.......................|.......................|.......................|.......................|
.......................|.......................|.......................|.......................|.......................|.......................|.......................|.......................|.......................|.......................|
.......................|.......................|.......................|.......................|.......................|.......................|.......................|.......................|.......................|.......................|
.......................|.......................|.......................|.......................|.......................|.......................|.......................|.......................|.......................|.......................|
.......................|.......................|.......................|.......................|.......................|.......................|.......................|.......................|.......................|.......................|
.......................|.......................|.......................|.......................|.......................|.......................|.......................|.......................|.......................|.......................|
.......................|.......................|.......................|.......................|.......................|.......................|.......................|.......................|.......................|.......................|
.......................|.......................|.......................|.......................|.......................|.......................|.......................|.......................|.......................|.......................|
.......................|.......................|.......................|.......................|.......................|.......................|.......................|.......................|.......................|.......................|
.......................|.......................|.......................|.......................|.......................|.......................|.......................|.......................|.......................|.......................|
.......................|.......................|.......................|.......................|.......................|.......................|.......................|.......................|.......................|.......................|
.......................|.......................|.......................|.......................|.......................|.......................|.......................|.......................|.......................|.......................|
.......................|.......................|.......................|.......................|.......................|.......................|.......................|.......................|.......................|.......................|
.......................|.......................|.......................|.......................|.......................|.......................|.......................|.......................|.......................|.......................|
.......................|.......................|.......................|.......................|.......................|.......................|.......................|.......................|.......................|.......................|
.......................|.......................|.......................|.......................|.......................|.......................|.......................|.......................|.......................|.......................|
.......................|.......................|.......................|.......................|.......................|.......................|.......................|.......................|.......................|.......................|
.......................|.......................|.......................|.......................|.......................|.......................|.......................|.......................|.......................|.......................|
.......................|.......................|.......................|.......................|.......................|.......................|.......................|.......................|.......................|.......................|
.......................|.......................|.......................|.......................|.......................|.......................|.......................|.......................|.......................|.......................|
.......................|.......................|.......................|.......................|.......................|.......................|.......................|.......................|.......................|.......................|
.......................|.......................|.......................|.......................|.......................|.......................|.......................|.......................|.......................|.......................|
.......................|.......................|.......................|.......................|.......................|.......................|.......................|.......................|.......................|.......................|
.......................|.......................|.......................|.......................|.......................|.......................|.......................|.......................|.......................|.......................|
.......................|.......................|.......................|.......................|.......................|.......................|.......................|.......................|.......................|.......................|
.......................|.......................|.......................|.......................|.......................|.......................|.......................|.......................|.......................|.......................|
.......................|.......................|.......................|.......................|.......................|.......................|.......................|.......................|.......................|.......................|
.......................|.......................|.......................|.......................|.......................|.......................|.......................|.......................|.......................|.......................|
.......................|.......................|.......................|.......................|.......................|.......................|.......................|.......................|.......................|.......................|
.......................|.......................|.......................|.......................|.......................|.......................|.......................|.......................|.......................|.......................|
.......................|.......................|.......................|.......................|.......................|.......................|.......................|.......................|.......................|.......................|
.......................|.......................|.......................|.......................|.......................|.......................|.......................|.......................|.......................|.......................|
.......................|.......................|.......................|.......................|.......................|.......................|.......................|.......................|.......................|.......................|
.......................|.......................|.......................|.......................|.......................|.......................|.......................|.......................|.......................|.......................|
.......................|.......................|.......................|.......................|.......................|.......................|.......................|.......................|.......................|.......................|
.......................|.......................|.......................|.......................|.......................|.......................|.......................|.......................|.......................|.......................|
.......................|.......................|.......................|.......................|.......................|.......................|.......................|.......................|.......................|.......................|
.......................|.......................|.......................|.......................|.......................|.......................|.......................|.......................|.......................|.......................|
.......................|.......................|.......................|.......................|.......................|.......................|.......................|.......................|.......................|.......................|
.......FF00............|.......................|.......................|.......................|.......................|.......................|.......................|.......................|.......................|.......................|
