org.tildearrow.furnace - Pattern Data (219)
0
.......................|D-4116F8080EA00........|.......................|.......................|.......................|.......................|C-0....................|C-0....................|C-0....................|.......................|
.......................|.......................|.......................|.......................|.......................|.......................|.......................|.......................|.......................|.......................|
.......................|.......................|.......................|.......................|.......................|.......................|.......................|.......................|.......................|.......................|
.......................|.......................|.......................|.......................|.......................|.......................|.......................|.......................|.......................|.......................|
.......................|.......................|.......................|.......................|.......................|.......................|.......................|.......................|.......................|.......................|
.......................|C-0....................|.......................|.......................|.......................|.......................|.......................|.......................|.......................|.......................|
.......................|E-4....................|.......................|D-41163040053058000EA00|.......................|.......................|.......................|.......................|.......................|.......................|
.......................|.......................|.......................|.......................|.......................|.......................|.......................|.......................|.......................|.......................|
.......................|.......................|.......................|.......................|.......................|.......................|.......................|.......................|.......................|.......................|
.......................|.......................|.......................|.......................|.......................|.......................|.......................|.......................|.......................|.......................|
.......................|.......................|.......................|.......................|.......................|.......................|.......................|.......................|.......................|.......................|
.......................|C-0....................|.......................|C-0....................|.......................|.......................|.......................|.......................|.......................|.......................|
.......................|F-4....0400EA00........|D-3156704008080EA00....|E-4....................|D-41163530580FFEA00....|.......................|C-0....................|C-0....................|.......................|.......................|
.......................|.......................|.......................|.......................|.......................|.......................|.......................|.......................|.......................|.......................|
.......................|.......................|.......................|.......................|.......................|.......................|.......................|.......................|.......................|.......................|
.......................|.......................|.......................|.......................|.......................|.......................|.......................|.......................|.......................|.......................|
.......................|.......................|.......................|.......................|.......................|.......................|.......................|.......................|.......................|.......................|
.......................|.......................|.......................|C-0....................|C-0....................|.......................|.......................|.......................|.......................|.......................|
.......................|.......................|.......................|F-4....................|E-4....................|.......................|.......................|.......................|.......................|.......................|
.......................|.......................|.......................|.......................|.......................|.......................|.......................|.......................|.......................|.......................|
.......................|.......................|.......................|.......................|.......................|.......................|.......................|.......................|.......................|.......................|
.......................|.......................|.......................|.......................|.......................|.......................|.......................|.......................|.......................|.......................|
.......................|.......................|.......................|.......................|.......................|.......................|.......................|.......................|.......................|.......................|
.......................|.......................|.......................|.......................|C-0....................|.......................|.......................|.......................|.......................|.......................|
.......................|.......................|.......................|.......................|F-4....0400EA00........|.......................|.......................|.......................|.......................|.......................|
.......................|.......................|.......................|.......................|.......................|.......................|.......................|.......................|.......................|.......................|
.......................|.......................|.......................|.......................|.......................|.......................|.......................|.......................|.......................|.......................|
.......................|.......................|.......................|.......................|.......................|.......................|.......................|.......................|.......................|.......................|
.......................|.......................|.......................|.......................|.......................|.......................|.......................|.......................|.......................|.......................|
.......................|.......................|.......................|.......................|.......................|.......................|.......................|.......................|.......................|.......................|
.......................|.......................|.......................|.......................|.......................|.......................|.......................|.......................|.......................|.......................|
.......................|.......................|.......................|.......................|.......................|.......................|.......................|.......................|.......................|.......................|
.......................|.......................|.......................|.......................|.......................|.......................|.......................|.......................|.......................|.......................|
.......................|.......................|.......................|.......................|.......................|.......................|.......................|.......................|.......................|.......................|
.......................|.......................|.......................|.......................|.......................|.......................|.......................|.......................|.......................|.......................|
.......................|C-0....................|.......................|.......................|.......................|.......................|.......................|.......................|.......................|.......................|
.......................|G-4....................|.......0452............|.......................|.......................|.......................|.......................|.......................|.......................|.......................|
.......................|.......................|.......................|.......................|.......................|.......................|.......................|.......................|.......................|.......................|
.......................|.......................|.......................|.......................|.......................|.......................|.......................|.......................|.......................|.......................|
.......................|.......................|.......................|.......................|.......................|.......................|.......................|.......................|.......................|.......................|
.......................|.......................|.......................|.......................|.......................|.......................|.......................|.......................|.......................|.......................|
.......................|.......................|.......................|C-0....................|.......................|.......................|.......................|.......................|.......................|.......................|
.......................|.......................|.......................|G-4....................|.......................|.......................|.......................|.......................|.......................|.......................|
.......................|.......................|.......................|.......................|.......................|.......................|.......................|.......................|.......................|.......................|
.......................|.......................|.......................|.......................|.......................|.......................|.......................|.......................|.......................|.......................|
.......................|.......................|.......................|.......................|.......................|.......................|.......................|.......................|.......................|.......................|
.......................|.......................|.......................|.......................|.......................|.......................|.......................|.......................|.......................|.......................|
.......................|.......................|.......................|.......................|C-0....................|.......................|.......................|.......................|.......................|.......................|
.......................|.......................|.......................|.......................|G-4....................|.......................|.......................|.......................|C-0....C034............|.......................|
.......................|.......................|.......................|.......................|.......................|.......................|.......................|.......................|.......................|.......................|
.......................|.......................|.......................|.......................|.......................|.......................|.......................|.......................|.......................|.......................|
.......................|.......................|.......................|.......................|.......................|.......................|.......................|.......................|.......................|.......................|
.......................|.......................|.......................|.......................|.......................|.......................|.......................|.......................|.......................|.......................|
.......................|.......................|.......................|.......................|.......................|.......................|.......................|.......................|.......................|.......................|
.......................|.......................|.......................|.......................|.......................|.......................|.......................|.......................|C-0....................|.......................|
.......................|.......................|.......................|.......................|.......................|.......................|.......................|.......................|.......................|.......................|
.......................|.......................|.......................|.......................|.......................|.......................|.......................|.......................|.......................|.......................|
.......................|.......................|.......................|.......................|.......................|.......................|.......................|.......................|C-0....................|.......................|
.......................|.......................|.......................|.......................|.......................|.......................|.......................|.......................|.......................|.......................|
.......................|C-0....................|.......................|.......................|.......................|.......................|.......................|.......................|.......................|.......................|
.......................|A-4....................|.......................|.......................|.......................|.......................|.......................|.......................|.......................|.......................|
.......................|.......................|.......................|.......................|.......................|.......................|.......................|.......................|.......................|.......................|
.......................|.......................|.......................|.......................|.......................|.......................|.......................|.......................|.......................|.......................|
.......................|.......................|.......................|.......................|.......................|.......................|.......................|.......................|.......................|.......................|
.......................|.......................|.......................|.......................|.......................|.......................|.......................|.......................|.......................|.......................|
.......................|.......................|.......................|C-0....................|.......................|.......................|.......................|.......................|.......................|.......................|
.......................|.......................|.......................|A-4....................|.......................|.......................|.......................|.......................|.......................|.......................|
.......................|.......................|.......................|.......................|.......................|.......................|.......................|.......................|.......................|.......................|
.......................|.......................|.......................|.......................|.......................|.......................|.......................|.......................|.......................|.......................|
.......................|.......................|.......................|.......................|.......................|.......................|.......................|.......................|.......................|.......................|
.......................|.......................|.......................|.......................|.......................|.......................|.......................|.......................|.......................|.......................|
.......................|.......................|.......................|.......................|C-0....................|.......................|.......................|.......................|.......................|.......................|
.......................|.......................|.......................|.......................|A-4....................|.......................|.......................|.......................|.......................|.......................|
.......................|.......................|.......................|.......................|.......................|.......................|.......................|.......................|.......................|.......................|
.......................|.......................|.......................|.......................|.......................|.......................|.......................|.......................|.......................|.......................|
.......................|.......................|.......................|.......................|.......................|.......................|.......................|.......................|.......................|.......................|
.......................|.......................|.......................|.......................|.......................|.......................|.......................|.......................|.......................|.......................|
.......................|.......................|.......................|.......................|.......................|.......................|.......................|.......................|.......................|.......................|
.......................|.......................|.......................|.......................|.......................|.......................|.......................|.......................|.......................|.......................|
.......................|.......................|.......................|.......................|.......................|.......................|.......................|.......................|.......................|.......................|
.......................|.......................|.......................|.......................|.......................|.......................|.......................|.......................|.......................|.......................|
.......................|.......................|.......................|.......................|.......................|.......................|.......................|.......................|.......................|.......................|
.......................|.......................|.......................|.......................|.......................|.......................|.......................|.......................|.......................|.......................|
.......................|C-0....................|.......................|.......................|.......................|.......................|.......................|.......................|.......................|.......................|
.......................|C-5....................|.......................|.......................|.......................|.......................|.......................|.......................|.......................|.......................|
.......................|.......................|.......................|.......................|.......................|.......................|.......................|.......................|.......................|.......................|
.......................|.......................|.......................|.......................|.......................|.......................|.......................|.......................|.......................|.......................|
.......................|.......................|.......................|.......................|.......................|.......................|.......................|.......................|.......................|.......................|
.......................|.......................|.......................|.......................|.......................|.......................|.......................|.......................|.......................|.......................|
.......................|.......................|.......................|C-0....................|.......................|.......................|.......................|.......................|.......................|.......................|
.......................|.......................|.......................|C-5....................|.......................|.......................|.......................|.......................|.......................|.......................|
.......................|.......................|.......................|.......................|.......................|.......................|.......................|.......................|.......................|.......................|
.......................|.......................|.......................|.......................|.......................|.......................|.......................|.......................|.......................|.......................|
.......................|.......................|.......................|.......................|.......................|.......................|.......................|.......................|.......................|.......................|
.......................|.......................|.......................|.......................|.......................|.......................|.......................|.......................|.......................|.......................|
.......................|C-0....................|.......................|.......................|C-0....................|.......................|.......................|.......................|.......................|.......................|
.......................|B-4....................|.......................|.......................|C-5....................|.......................|.......................|.......................|.......................|.......................|
.......................|.......................|.......................|.......................|.......................|.......................|.......................|.......................|.......................|.......................|
.......................|.......................|.......................|.......................|.......................|.......................|.......................|.......................|.......................|.......................|
.......................|.......................|.......................|.......................|.......................|.......................|.......................|.......................|.......................|.......................|
.......................|.......................|.......................|.......................|.......................|.......................|.......................|.......................|.......................|.......................|
.......................|.......................|.......................|C-0....................|.......................|.......................|.......................|.......................|.......................|.......................|
.......................|.......................|.......................|B-4....................|.......................|.......................|.......................|.......................|.......................|.......................|
.......................|.......................|.......................|.......................|.......................|.......................|.......................|.......................|.......................|.......................|
.......................|.......................|.......................|.......................|.......................|.......................|.......................|.......................|.......................|.......................|
.......................|.......................|.......................|.......................|.......................|.......................|.......................|.......................|.......................|.......................|
.......................|.......................|.......................|.......................|.......................|.......................|.......................|.......................|.......................|.......................|
.......................|.......................|C-0....................|.......................|C-0....................|.......................|.......................|.......................|.......................|.......................|
.......................|.......................|E-3....0400............|.......................|B-4....................|.......................|C-0....................|C-0....................|.......................|.......................|
.......................|.......................|.......................|.......................|.......................|.......................|.......................|.......................|.......................|.......................|
.......................|.......................|.......................|.......................|.......................|.......................|.......................|.......................|.......................|.......................|
.......................|.......................|.......................|.......................|.......................|.......................|.......................|.......................|.......................|.......................|
.......................|.......................|.......................|.......................|.......................|.......................|.......................|.......................|.......................|.......................|
.......................|.......................|.......................|.......................|.......................|.......................|.......................|.......................|.......................|.......................|
.......................|.......................|.......................|.......................|.......................|.......................|.......................|.......................|.......................|.......................|
.......................|.......................|.......................|.......................|.......................|.......................|.......................|.......................|.......................|.......................|
.......................|.......................|.......................|.......................|.......................|.......................|.......................|.......................|.......................|.......................|
.......................|.......................|.......................|.......................|.......................|.......................|.......................|.......................|.......................|.......................|
.......................|.......................|.......................|.......................|.......................|.......................|.......................|.......................|.......................|.......................|
.......................|.......................|.......................|.......................|.......................|.......................|.......................|.......................|.......................|.......................|
.......................|.......0452............|.......................|.......................|.......................|.......................|.......................|.......................|.......................|.......................|
.......................|.......................|.......................|.......................|.......................|.......................|.......................|.......................|.......................|.......................|
.......................|.......................|.......................|.......................|.......................|.......................|.......................|.......................|.......................|.......................|
.......................|.......................|.......................|.......................|.......................|.......................|.......................|.......................|.......................|.......................|
.......................|.......................|.......................|.......................|.......................|.......................|.......................|.......................|.......................|.......................|
.......................|.......................|.......................|.......................|.......................|.......................|.......................|.......................|.......................|.......................|
.......................|.......................|.......................|.......0452............|.......................|.......................|.......................|.......................|.......................|.......................|
.......................|.......................|.......................|.......................|.......................|.......................|.......................|.......................|.......................|.......................|
.......................|.......................|.......................|.......................|.......................|.......................|.......................|.......................|.......................|.......................|
.......................|.......................|.......................|.......................|.......................|.......................|.......................|.......................|.......................|.......................|
.......................|.......................|.......................|.......................|.......................|.......................|.......................|.......................|.......................|.......................|
.......................|.......................|.......................|.......................|.......................|.......................|.......................|.......................|.......................|.......................|
.......................|.......................|.......0452............|.......................|.......0452............|.......................|.......................|.......................|.......................|.......................|
.......................|.......................|.......................|.......................|.......................|.......................|.......................|.......................|.......................|.......................|
.......................|.......................|.......................|.......................|.......................|.......................|.......................|.......................|.......................|.......................|
.......................|.......................|.......................|.......................|.......................|.......................|.......................|.......................|.......................|.......................|
.......................|.......................|.......................|.......................|.......................|.......................|.......................|.......................|.......................|.......................|
.......................|.......................|.......................|.......................|.......................|.......................|.......................|.......................|.......................|.......................|
.......................|.......................|.......................|.......................|.......................|.......................|.......................|.......................|.......................|.......................|
.......................|.......................|.......................|.......................|.......................|.......................|.......................|.......................|.......................|.......................|
.......................|.......................|.......................|.......................|.......................|.......................|.......................|.......................|.......................|.......................|
.......................|.......................|.......................|.......................|.......................|.......................|.......................|.......................|.......................|.......................|
.......................|.......................|.......................|.......................|.......................|.......................|.......................|.......................|.......................|.......................|
.......................|C-0....................|.......................|.......................|.......................|.......................|.......................|.......................|.......................|.......................|
.......................|G-4....0400............|.......................|.......................|.......................|.......................|.......................|.......................|.......................|.......................|
.......................|.......................|.......................|.......................|.......................|.......................|.......................|.......................|.......................|.......................|
.......................|.......................|.......................|.......................|.......................|.......................|.......................|.......................|.......................|.......................|
.......................|.......................|.......................|.......................|.......................|.......................|.......................|.......................|.......................|.......................|
.......................|.......................|.......................|.......................|.......................|.......................|.......................|.......................|.......................|.......................|
.......................|.......................|.......................|C-0....................|.......................|.......................|.......................|.......................|.......................|.......................|
.......................|.......................|.......................|G-4....0400............|.......................|.......................|.......................|.......................|.......................|.......................|
.......................|.......................|.......................|.......................|.......................|.......................|.......................|.......................|.......................|.......................|
.......................|.......................|.......................|.......................|.......................|.......................|.......................|.......................|.......................|.......................|
.......................|.......................|.......................|.......................|.......................|.......................|.......................|.......................|C-0....................|.......................|
.......................|.......................|.......................|.......................|.......................|.......................|.......................|.......................|.......................|.......................|
.......................|C-0....................|.......................|.......................|C-0....................|.......................|.......................|.......................|.......................|.......................|
.......................|F-4....................|.......................|.......................|G-4....0400............|.......................|.......................|.......................|.......................|.......................|
.......................|.......................|.......................|.......................|.......................|.......................|.......................|.......................|.......................|.......................|
.......................|.......................|.......................|.......................|.......................|.......................|.......................|.......................|.......................|.......................|
.......................|.......................|.......................|.......................|.......................|.......................|.......................|.......................|.......................|.......................|
.......................|.......................|.......................|.......................|.......................|.......................|.......................|.......................|.......................|.......................|
.......................|.......................|.......................|C-0....................|.......................|.......................|.......................|.......................|.......................|.......................|
.......................|.......................|.......................|F-4....................|.......................|.......................|.......................|.......................|.......................|.......................|
.......................|.......................|.......................|.......................|.......................|.......................|.......................|.......................|.......................|.......................|
.......................|.......................|.......................|.......................|.......................|.......................|.......................|.......................|.......................|.......................|
.......................|.......................|.......................|.......................|.......................|.......................|.......................|.......................|.......................|.......................|
.......................|.......................|.......................|.......................|.......................|.......................|.......................|.......................|.......................|.......................|
.......................|C-0....................|.......................|.......................|C-0....................|.......................|.......................|.......................|.......................|.......................|
.......................|E-4....................|.......................|.......................|F-4....................|.......................|.......................|.......................|.......................|.......................|
.......................|.......................|.......................|.......................|.......................|.......................|.......................|.......................|.......................|.......................|
.......................|.......................|.......................|.......................|.......................|.......................|.......................|.......................|.......................|.......................|
.......................|.......................|.......................|.......................|.......................|.......................|.......................|.......................|.......................|.......................|
.......................|.......................|.......................|.......................|.......................|.......................|.......................|.......................|.......................|.......................|
.......................|.......................|.......................|C-0....................|.......................|.......................|.......................|.......................|.......................|.......................|
.......................|.......................|.......................|E-4....................|.......................|.......................|.......................|.......................|.......................|.......................|
.......................|.......................|.......................|.......................|.......................|.......................|.......................|.......................|.......................|.......................|
.......................|.......................|.......................|.......................|.......................|.......................|.......................|.......................|.......................|.......................|
.......................|.......................|.......................|.......................|.......................|.......................|.......................|.......................|.......................|.......................|
.......................|.......................|.......................|.......................|.......................|.......................|.......................|.......................|.......................|.......................|
.......................|.......................|.......................|.......................|C-0....................|.......................|.......................|.......................|.......................|.......................|
.......................|.......................|.......................|.......................|E-4....................|.......................|.......................|.......................|.......................|.......................|
.......................|.......................|.......................|.......................|.......................|.......................|.......................|.......................|.......................|.......................|
.......................|.......................|.......................|.......................|.......................|.......................|.......................|.......................|.......................|.......................|
.......................|.......................|.......................|.......................|.......................|.......................|.......................|.......................|.......................|.......................|
.......................|.......................|.......................|.......................|.......................|.......................|.......................|.......................|.......................|.......................|
.......................|.......................|.......................|.......................|.......................|.......................|.......................|.......................|.......................|.......................|
.......................|.......................|.......................|.......................|.......................|.......................|.......................|.......................|.......................|.......................|
.......................|.......................|.......................|.......................|.......................|.......................|.......................|.......................|.......................|.......................|
.......................|.......................|.......................|.......................|.......................|.......................|.......................|.......................|.......................|.......................|
.......................|.......................|.......................|.......................|.......................|.......................|.......................|.......................|.......................|.......................|
.......................|.......................|.......................|.......................|.......................|.......................|.......................|.......................|.......................|.......................|
.......................|C-0....................|C-0....................|.......................|.......................|.......................|.......................|.......................|.......................|.......................|
.......................|A-4....................|F-3....0400............|.......................|.......................|.......................|F-2A9090400EA00........|D-2A9090400EA00........|.......................|.......................|
.......................|.......................|.......................|.......................|.......................|.......................|.......................|.......................|.......................|.......................|
.......................|.......................|.......................|.......................|.......................|.......................|.......................|.......................|.......................|.......................|
.......................|.......................|.......................|.......................|.......................|.......................|.......................|.......................|.......................|.......................|
.......................|.......................|.......................|.......................|.......................|.......................|.......................|.......................|.......................|.......................|
.......................|.......................|.......................|C-0....................|.......................|.......................|.......................|.......................|.......................|.......................|
.......................|.......................|.......................|A-4....................|.......................|.......................|.......................|.......................|.......................|.......................|
.......................|.......................|.......................|.......................|.......................|.......................|.......................|.......................|.......................|.......................|
.......................|.......................|.......................|.......................|.......................|.......................|.......................|.......................|.......................|.......................|
.......................|.......................|.......................|.......................|.......................|.......................|.......................|.......................|.......................|.......................|
.......................|.......................|.......................|.......................|.......................|.......................|.......................|.......................|.......................|.......................|
.......................|.......................|.......................|.......................|C-0....................|.......................|.......................|.......................|.......................|.......................|
.......................|.......................|.......................|.......................|A-4....................|.......................|.......................|.......................|.......................|.......................|
.......................|.......................|.......................|.......................|.......................|.......................|.......................|.......................|.......................|.......................|
.......................|.......................|.......................|.......................|.......................|.......................|.......................|.......................|.......................|.......................|
.......................|.......................|.......................|.......................|.......................|.......................|.......................|.......................|.......................|.......................|
.......................|.......................|.......................|.......................|.......................|.......................|.......................|.......................|.......................|.......................|
.......................|.......................|.......................|.......................|.......................|.......................|.......................|.......................|.......................|.......................|
D-32A6F04008080EA00....|.......................|.......................|.......................|.......................|C-4CC..8080EA00........|.......................|.......................|.......................|.......................|
.......................|.......................|.......................|.......................|.......................|.......................|.......................|.......................|.......................|.......................|
.......................|.......................|.......................|.......................|.......................|.......................|.......................|.......................|.......................|.......................|
.......................|.......................|.......................|.......................|.......................|.......................|.......................|.......................|.......................|.......................|
.......................|.......................|.......................|.......................|.......................|.......................|.......................|.......................|.......................|.......................|
C-0....................|.......................|.......................|.......................|.......................|.......................|.......................|.......................|.......................|.......................|
D-3....................|.......0452............|.......0452............|.......................|.......................|C-4CC..................|.......0452............|.......0452............|.......................|.......................|
.......................|.......................|.......................|.......................|.......................|.......................|.......................|.......................|.......................|.......................|
.......................|.......................|.......................|.......................|.......................|.......................|.......................|.......................|.......................|.......................|
.......................|.......................|.......................|.......................|.......................|.......................|.......................|.......................|.......................|.......................|
.......................|.......................|.......................|.......................|.......................|.......................|.......................|.......................|.......................|.......................|
C-0....................|.......................|.......................|.......................|.......................|.......................|.......................|.......................|.......................|.......................|
D-3....................|.......................|.......................|.......0452............|.......................|C-4CC..................|.......................|.......................|.......................|.......................|
.......................|.......................|.......................|.......................|.......................|.......................|.......................|.......................|.......................|.......................|
.......................|.......................|.......................|.......................|.......................|.......................|.......................|.......................|.......................|.......................|
.......................|.......................|.......................|.......................|.......................|.......................|.......................|.......................|.......................|.......................|
.......................|.......................|.......................|.......................|.......................|.......................|.......................|.......................|.......................|.......................|
C-0....................|.......................|.......................|.......................|.......................|.......................|.......................|.......................|.......................|.......................|
D-3....................|.......................|.......................|.......................|.......0452............|C-4CC..................|.......................|.......................|.......................|.......................|
.......................|.......................|.......................|.......................|.......................|.......................|.......................|.......................|.......................|.......................|
.......................|.......................|.......................|.......................|.......................|.......................|.......................|.......................|.......................|.......................|
.......................|.......................|.......................|.......................|.......................|.......................|.......................|.......................|.......................|.......................|
.......................|.......................|.......................|.......................|.......................|.......................|.......................|.......................|.......................|.......................|
.......................|.......................|.......................|.......................|.......................|.......................|.......................|.......................|.......................|.......................|
.......................|.......................|.......................|.......................|.......................|.......................|.......................|.......................|.......................|.......................|
.......................|.......................|.......................|.......................|.......................|.......................|.......................|.......................|.......................|.......................|
.......................|.......................|.......................|.......................|.......................|.......................|.......................|.......................|.......................|.......................|
.......................|.......................|.......................|.......................|.......................|.......................|.......................|.......................|.......................|.......................|
.......................|.......................|.......................|.......................|.......................|.......................|.......................|.......................|.......................|.......................|
.......................|.......................|.......................|.......................|.......................|.......................|.......................|.......................|.......................|.......................|
.......................|.......................|.......................|.......................|.......................|.......................|.......................|.......................|.......................|.......................|
.......................|.......................|.......................|.......................|.......................|.......................|.......................|.......................|.......................|.......................|
.......................|.......................|.......................|.......................|.......................|.......................|.......................|.......................|.......................|.......................|
.......................|.......................|.......................|.......................|.......................|.......................|.......................|.......................|.......................|.......................|
.......................|.......................|.......................|.......................|.......................|.......................|.......................|.......................|.......................|.......................|
.......................|.......................|.......................|.......................|.......................|.......................|.......................|.......................|.......................|.......................|
.......................|.......................|.......................|.......................|.......................|.......................|.......................|.......................|.......................|.......................|
.......................|.......................|.......................|.......................|.......................|.......................|.......................|.......................|.......................|.......................|
.......................|.......................|.......................|.......................|.......................|.......................|.......................|.......................|.......................|.......................|
.......................|.......................|.......................|.......................|.......................|.......................|.......................|.......................|C-0....................|.......................|
.......................|.......................|.......................|.......................|.......................|.......................|.......................|.......................|.......................|.......................|
C-0....................|.......................|.......................|.......................|.......................|.......................|.......................|.......................|.......................|.......................|
.......................|.......................|.......................|.......................|.......................|.......................|.......................|.......................|.......................|.......................|
.......................|.......................|.......................|.......................|.......................|.......................|.......................|.......................|.......................|.......................|
.......................|.......................|.......................|.......................|.......................|.......................|.......................|.......................|.......................|.......................|
.......................|.......................|.......................|.......................|.......................|.......................|.......................|.......................|.......................|.......................|
org.tildearrow.furnace - Pattern Data (219)
0
.......................|.......................|.......................|.......................|.......................|.......................|.......................|.......................|.......................|.......................|
.......................|.......................|.......................|.......................|.......................|.......................|.......................|.......................|.......................|.......................|
.......................|.......................|.......................|.......................|.......................|.......................|.......................|.......................|.......................|.......................|
.......................|.......................|.......................|.......................|.......................|.......................|.......................|.......................|.......................|.......................|
.......................|.......................|.......................|.......................|.......................|.......................|.......................|.......................|.......................|.......................|
.......................|.......................|.......................|.......................|.......................|.......................|.......................|.......................|.......................|.......................|
.......................|.......................|.......................|.......................|.......................|.......................|.......................|.......................|.......................|.......................|
.......................|.......................|.......................|.......................|.......................|.......................|.......................|.......................|.......................|.......................|
.......................|.......................|.......................|.......................|.......................|.......................|.......................|.......................|.......................|.......................|
.......................|.......................|.......................|.......................|.......................|.......................|.......................|.......................|.......................|.......................|
.......................|.......................|.......................|.......................|.......................|.......................|.......................|.......................|.......................|.......................|
.......................|.......................|.......................|.......................|.......................|.......................|.......................|.......................|.......................|.......................|
.......................|.......................|.......................|.......................|.......................|.......................|.......................|.......................|.......................|.......................|
.......................|.......................|.......................|.......................|.......................|.......................|.......................|.......................|.......................|.......................|
.......................|.......................|.......................|.......................|.......................|.......................|.......................|.......................|.......................|.......................|
.......................|.......................|.......................|.......................|.......................|.......................|.......................|.......................|.......................|.......................|
.......................|.......................|.......................|.......................|.......................|.......................|.......................|.......................|.......................|.......................|
.......................|.......................|.......................|.......................|.......................|.......................|.......................|.......................|.......................|.......................|
.......................|.......................|.......................|.......................|.......................|.......................|.......................|.......................|.......................|.......................|
.......................|.......................|.......................|.......................|.......................|.......................|.......................|.......................|.......................|.......................|
.......................|.......................|.......................|.......................|.......................|.......................|.......................|.......................|.......................|.......................|
.......................|.......................|.......................|.......................|.......................|.......................|.......................|.......................|.......................|.......................|
.......................|.......................|.......................|.......................|.......................|.......................|.......................|.......................|.......................|.......................|
.......................|.......................|.......................|.......................|.......................|.......................|.......................|.......................|.......................|.......................|
.......................|.......................|.......................|.......................|.......................|.......................|.......................|.......................|.......................|.......................|
.......................|.......................|.......................|.......................|.......................|.......................|.......................|.......................|.......................|.......................|
.......................|.......................|.......................|.......................|.......................|.......................|.......................|.......................|.......................|.......................|
.......................|.......................|.......................|.......................|.......................|.......................|.......................|.......................|.......................|.......................|
.......................|.......................|.......................|.......................|.......................|.......................|.......................|.......................|.......................|.......................|
.......................|.......................|.......................|.......................|.......................|.......................|.......................|.......................|.......................|.......................|
.......................|.......................|.......................|.......................|.......................|.......................|.......................|.......................|.......................|.......................|
.......................|.......................|.......................|.......................|.......................|.......................|.......................|.......................|.......................|.......................|
.......................|.......................|.......................|.......................|.......................|.......................|.......................|.......................|.......................|.......................|
.......................|.......................|.......................|.......................|.......................|.......................|.......................|.......................|.......................|.......................|
.......................|.......................|.......................|.......................|.......................|.......................|.......................|.......................|.......................|.......................|
.......................|.......................|.......................|.......................|.......................|.......................|.......................|.......................|.......................|.......................|
.......................|.......................|.......................|.......................|.......................|.......................|.......................|.......................|.......................|.......................|
.......................|.......................|.......................|.......................|.......................|.......................|.......................|.......................|.......................|.......................|
.......................|.......................|.......................|.......................|.......................|.......................|.......................|.......................|.......................|.......................|
.......................|.......................|.......................|.......................|.......................|.......................|.......................|.......................|.......................|.......................|
.......................|.......................|.......................|.......................|.......................|.......................|.......................|.......................|.......................|.......................|
.......................|.......................|.......................|.......................|.......................|.......................|.......................|.......................|.......................|.......................|
.......................|.......................|.......................|.......................|.......................|.......................|.......................|.......................|.......................|.......................|
.......................|.......................|C-0....................|.......................|.......................|.......................|C-0....................|C-0....................|.......................|.......................|
.......................|.......................|G-3....0400............|.......................|.......................|.......................|G-2....0400............|D#2....0400............|.......................|.......................|
.......................|.......................|.......................|.......................|.......................|.......................|.......................|.......................|.......................|.......................|
.......................|.......................|.......................|.......................|.......................|.......................|.......................|.......................|.......................|.......................|
.......................|.......................|.......................|.......................|.......................|.......................|.......................|.......................|.......................|.......................|
.......................|.......................|.......................|.......................|.......................|.......................|.......................|.......................|.......................|.......................|
.......................|.......................|.......................|.......................|.......................|.......................|.......................|.......................|.......................|.......................|
D-3....................|.......................|.......................|.......................|.......................|C-4CC..................|.......................|.......................|.......................|.......................|
.......................|.......................|.......................|.......................|.......................|.......................|.......................|.......................|.......................|.......................|
.......................|.......................|.......................|.......................|.......................|.......................|.......................|.......................|.......................|.......................|
.......................|.......................|.......................|.......................|.......................|.......................|.......................|.......................|.......................|.......................|
.......................|.......................|.......................|.......................|.......................|.......................|.......................|.......................|.......................|.......................|
C-0....................|.......................|.......................|.......................|.......................|.......................|.......................|.......................|.......................|.......................|
D-3....................|.......................|.......................|.......................|.......................|C-4CC..................|.......................|.......................|.......................|.......................|
.......................|.......................|.......................|.......................|.......................|.......................|.......................|.......................|.......................|.......................|
.......................|.......................|.......................|.......................|.......................|.......................|.......................|.......................|.......................|.......................|
.......................|.......................|.......................|.......................|.......................|.......................|.......................|.......................|.......................|.......................|
.......................|.......................|.......................|.......................|.......................|.......................|.......................|.......................|.......................|.......................|
C-0....................|.......................|.......................|.......................|.......................|.......................|.......................|.......................|.......................|.......................|
D-3....................|.......................|.......................|.......................|.......................|C-4CC..................|.......................|.......................|.......................|.......................|
.......................|.......................|.......................|.......................|.......................|.......................|.......................|.......................|.......................|.......................|
.......................|.......................|.......................|.......................|.......................|.......................|.......................|.......................|.......................|.......................|
.......................|.......................|.......................|.......................|.......................|.......................|.......................|.......................|.......................|.......................|
.......................|.......................|.......................|.......................|.......................|.......................|.......................|.......................|.......................|.......................|
C-0....................|.......................|.......................|.......................|.......................|.......................|.......................|.......................|.......................|.......................|
D-3....................|.......................|.......0452............|.......................|.......................|C-4CC..................|.......0452............|.......0452............|.......................|.......................|
.......................|.......................|.......................|.......................|.......................|.......................|.......................|.......................|.......................|.......................|
.......................|.......................|.......................|.......................|.......................|.......................|.......................|.......................|.......................|.......................|
.......................|.......................|.......................|.......................|.......................|.......................|.......................|.......................|.......................|.......................|
.......................|.......................|.......................|.......................|.......................|.......................|.......................|.......................|.......................|.......................|
.......................|.......................|.......................|.......................|.......................|.......................|.......................|.......................|.......................|.......................|
.......................|.......................|.......................|.......................|.......................|.......................|.......................|.......................|.......................|.......................|
.......................|.......................|.......................|.......................|.......................|.......................|.......................|.......................|.......................|.......................|
.......................|.......................|.......................|.......................|.......................|.......................|.......................|.......................|.......................|.......................|
.......................|.......................|.......................|.......................|.......................|.......................|.......................|.......................|.......................|.......................|
.......................|.......................|.......................|.......................|.......................|.......................|.......................|.......................|.......................|.......................|
.......................|.......................|.......................|.......................|.......................|.......................|.......................|.......................|.......................|.......................|
.......................|.......................|.......................|.......................|.......................|.......................|.......................|.......................|.......................|.......................|
.......................|.......................|.......................|.......................|.......................|.......................|.......................|.......................|.......................|.......................|
.......................|.......................|.......................|.......................|.......................|.......................|.......................|.......................|.......................|.......................|
.......................|.......................|.......................|.......................|.......................|.......................|.......................|.......................|.......................|.......................|
.......................|.......................|.......................|.......................|.......................|.......................|.......................|.......................|.......................|.......................|
.......................|.......................|.......................|.......................|.......................|.......................|.......................|.......................|.......................|.......................|
.......................|.......................|.......................|.......................|.......................|.......................|.......................|.......................|.......................|.......................|
.......................|.......................|.......................|.......................|.......................|.......................|.......................|.......................|.......................|.......................|
.......................|.......................|.......................|.......................|.......................|.......................|.......................|.......................|.......................|.......................|
.......................|.......................|.......................|.......................|.......................|.......................|.......................|.......................|C-0....................|.......................|
.......................|.......................|.......................|.......................|.......................|.......................|.......................|.......................|.......................|.......................|
C-0....................|.......................|.......................|.......................|.......................|.......................|.......................|.......................|.......................|.......................|
.......................|.......................|.......................|.......................|.......................|.......................|.......................|.......................|.......................|.......................|
.......................|.......................|.......................|.......................|.......................|.......................|.......................|.......................|.......................|.......................|
.......................|.......................|.......................|.......................|.......................|.......................|.......................|.......................|.......................|.......................|
.......................|.......................|.......................|.......................|.......................|.......................|.......................|.......................|.......................|.......................|
.......................|.......................|.......................|.......................|.......................|.......................|.......................|.......................|.......................|.......................|
.......................|.......................|.......................|.......................|.......................|.......................|.......................|.......................|.......................|.......................|
.......................|.......................|.......................|.......................|.......................|.......................|.......................|.......................|.......................|.......................|
.......................|.......................|.......................|.......................|.......................|.......................|.......................|.......................|.......................|.......................|
.......................|.......................|.......................|.......................|.......................|.......................|.......................|.......................|.......................|.......................|
.......................|.......................|.......................|.......................|.......................|.......................|.......................|.......................|.......................|.......................|
.......................|.......................|.......................|.......................|.......................|.......................|.......................|.......................|.......................|.......................|
.......................|.......................|.......................|.......................|.......................|.......................|.......................|.......................|.......................|.......................|
.......................|.......................|.......................|.......................|.......................|.......................|.......................|.......................|.......................|.......................|
.......................|.......................|.......................|.......................|.......................|.......................|.......................|.......................|.......................|.......................|
.......................|.......................|.......................|.......................|.......................|.......................|.......................|.......................|.......................|.......................|
.......................|.......................|.......................|.......................|.......................|.......................|.......................|.......................|.......................|.......................|
.......................|.......................|.......................|.......................|.......................|.......................|.......................|.......................|.......................|.......................|
.......................|.......................|.......................|.......................|.......................|.......................|.......................|.......................|.......................|.......................|
.......................|.......................|.......................|.......................|.......................|.......................|.......................|.......................|.......................|.......................|
.......................|.......................|.......................|.......................|.......................|.......................|.......................|.......................|.......................|.......................|
.......................|.......................|.......................|.......................|.......................|.......................|.......................|.......................|.......................|.......................|
.......................|.......................|.......................|.......................|.......................|.......................|.......................|.......................|.......................|.......................|
.......................|.......................|.......................|.......................|.......................|.......................|.......................|.......................|.......................|.......................|
.......................|C-0....................|.......................|.......................|.......................|.......................|.......................|.......................|.......................|.......................|
.......................|.......................|.......................|.......................|.......................|.......................|.......................|.......................|.......................|.......................|
.......................|.......................|.......................|.......................|.......................|.......................|.......................|.......................|.......................|.......................|
.......................|.......................|.......................|.......................|.......................|.......................|.......................|.......................|.......................|.......................|
.......................|.......................|.......................|.......................|.......................|.......................|.......................|.......................|.......................|.......................|
.......................|.......................|.......................|.......................|.......................|.......................|.......................|.......................|.......................|.......................|
.......................|.......................|.......................|C-0....................|.......................|.......................|.......................|.......................|.......................|.......................|
.......................|.......................|.......................|.......................|.......................|.......................|.......................|.......................|.......................|.......................|
.......................|.......................|.......................|.......................|.......................|.......................|.......................|.......................|.......................|.......................|
.......................|.......................|.......................|.......................|.......................|.......................|.......................|.......................|.......................|.......................|
.......................|.......................|.......................|.......................|.......................|.......................|.......................|.......................|.......................|.......................|
.......................|.......................|.......................|.......................|.......................|.......................|.......................|.......................|.......................|.......................|
.......................|.......................|.......................|.......................|C-0....................|.......................|.......................|.......................|.......................|.......................|
.......................|D-4....0400............|.......................|.......................|.......................|.......................|.......................|.......................|.......................|.......................|
.......................|.......................|.......................|.......................|.......................|.......................|.......................|.......................|.......................|.......................|
.......................|.......................|.......................|.......................|.......................|.......................|.......................|.......................|.......................|.......................|
.......................|.......................|.......................|.......................|.......................|.......................|.......................|.......................|.......................|.......................|
.......................|.......................|.......................|.......................|.......................|.......................|.......................|.......................|.......................|.......................|
.......................|C-0....................|.......................|.......................|.......................|.......................|.......................|.......................|.......................|.......................|
.......................|E-4....................|.......................|D-4....0400............|.......................|.......................|.......................|.......................|.......................|.......................|
.......................|.......................|.......................|.......................|.......................|.......................|.......................|.......................|.......................|.......................|
.......................|.......................|.......................|.......................|.......................|.......................|.......................|.......................|.......................|.......................|
.......................|.......................|.......................|.......................|.......................|.......................|.......................|.......................|C-0....C034............|.......................|
.......................|.......................|.......................|.......................|.......................|.......................|.......................|.......................|.......................|.......................|
.......................|C-0....................|C-0....................|C-0....................|.......................|.......................|C-0....................|C-0....................|.......................|.......................|
.......................|F-4....................|A-3....0400............|E-4....................|D-4....0400............|.......................|F-2....0400............|D-2....0400............|.......................|.......................|
.......................|.......................|.......................|.......................|.......................|.......................|.......................|.......................|.......................|.......................|
.......................|.......................|.......................|.......................|.......................|.......................|.......................|.......................|.......................|.......................|
.......................|.......................|.......................|.......................|.......................|.......................|.......................|.......................|C-0....................|.......................|
.......................|.......................|.......................|.......................|.......................|.......................|.......................|.......................|.......................|.......................|
.......................|.......................|.......................|C-0....................|C-0....................|.......................|.......................|.......................|.......................|.......................|
.......................|.......................|.......................|F-4....................|E-4....................|.......................|.......................|.......................|C-0....................|.......................|
.......................|.......................|.......................|.......................|.......................|.......................|.......................|.......................|.......................|.......................|
.......................|.......................|.......................|.......................|.......................|.......................|.......................|.......................|.......................|.......................|
.......................|.......................|.......................|.......................|.......................|.......................|.......................|.......................|.......................|.......................|
.......................|.......................|.......................|.......................|.......................|.......................|.......................|.......................|.......................|.......................|
.......................|.......................|.......................|.......................|C-0....................|.......................|.......................|.......................|.......................|.......................|
.......................|.......................|.......................|.......................|F-4....................|.......................|.......................|.......................|.......................|.......................|
.......................|.......................|.......................|.......................|.......................|.......................|.......................|.......................|.......................|.......................|
.......................|.......................|.......................|.......................|.......................|.......................|.......................|.......................|.......................|.......................|
.......................|.......................|.......................|.......................|.......................|.......................|.......................|.......................|.......................|.......................|
.......................|.......................|.......................|.......................|.......................|.......................|.......................|.......................|.......................|.......................|
.......................|.......................|.......................|.......................|.......................|.......................|.......................|.......................|.......................|.......................|
.......................|.......................|.......................|.......................|.......................|.......................|.......................|.......................|.......................|.......................|
.......................|.......................|.......................|.......................|.......................|.......................|.......................|.......................|.......................|.......................|
.......................|.......................|.......................|.......................|.......................|.......................|.......................|.......................|.......................|.......................|
.......................|.......................|.......................|.......................|.......................|.......................|.......................|.......................|.......................|.......................|
.......................|.......................|.......................|.......................|.......................|.......................|.......................|.......................|.......................|.......................|
.......................|C-0....................|.......................|.......................|.......................|.......................|.......................|.......................|.......................|.......................|
.......................|G-4....................|.......0452............|.......................|.......................|.......................|.......0452............|.......0452............|.......................|.......................|
.......................|.......................|.......................|.......................|.......................|.......................|.......................|.......................|.......................|.......................|
.......................|.......................|.......................|.......................|.......................|.......................|.......................|.......................|.......................|.......................|
.......................|.......................|.......................|.......................|.......................|.......................|.......................|.......................|.......................|.......................|
.......................|.......................|.......................|.......................|.......................|.......................|.......................|.......................|.......................|.......................|
.......................|.......................|.......................|C-0....................|.......................|.......................|.......................|.......................|.......................|.......................|
.......................|.......................|.......................|G-4....................|.......................|.......................|.......................|.......................|.......................|.......................|
.......................|.......................|.......................|.......................|.......................|.......................|.......................|.......................|.......................|.......................|
.......................|.......................|.......................|.......................|.......................|.......................|.......................|.......................|.......................|.......................|
.......................|.......................|.......................|.......................|.......................|.......................|.......................|.......................|.......................|.......................|
.......................|.......................|.......................|.......................|.......................|.......................|.......................|.......................|.......................|.......................|
.......................|.......................|.......................|.......................|C-0....................|.......................|.......................|.......................|.......................|.......................|
.......................|.......................|.......................|.......................|G-4....................|.......................|.......................|.......................|.......................|.......................|
.......................|.......................|.......................|.......................|.......................|.......................|.......................|.......................|.......................|.......................|
.......................|.......................|.......................|.......................|.......................|.......................|.......................|.......................|.......................|.......................|
.......................|.......................|.......................|.......................|.......................|.......................|.......................|.......................|.......................|.......................|
.......................|.......................|.......................|.......................|.......................|.......................|.......................|.......................|.......................|.......................|
.......................|.......................|.......................|.......................|.......................|.......................|.......................|.......................|.......................|.......................|
.......................|.......................|.......................|.......................|.......................|.......................|.......................|.......................|.......................|.......................|
.......................|.......................|.......................|.......................|.......................|.......................|.......................|.......................|.......................|.......................|
.......................|.......................|.......................|.......................|.......................|.......................|.......................|.......................|.......................|.......................|
.......................|.......................|.......................|.......................|.......................|.......................|.......................|.......................|.......................|.......................|
.......................|.......................|.......................|.......................|.......................|.......................|.......................|.......................|.......................|.......................|
.......................|C-0....................|.......................|.......................|.......................|.......................|.......................|.......................|.......................|.......................|
.......................|A-4....................|.......................|.......................|.......................|.......................|.......................|.......................|.......................|.......................|
.......................|.......................|.......................|.......................|.......................|.......................|.......................|.......................|.......................|.......................|
.......................|.......................|.......................|.......................|.......................|.......................|.......................|.......................|.......................|.......................|
.......................|.......................|.......................|.......................|.......................|.......................|.......................|.......................|.......................|.......................|
.......................|.......................|.......................|.......................|.......................|.......................|.......................|.......................|.......................|.......................|
.......................|.......................|.......................|C-0....................|.......................|.......................|.......................|.......................|.......................|.......................|
.......................|.......................|.......................|A-4....................|.......................|.......................|.......................|.......................|.......................|.......................|
.......................|.......................|.......................|.......................|.......................|.......................|.......................|.......................|.......................|.......................|
.......................|.......................|.......................|.......................|.......................|.......................|.......................|.......................|.......................|.......................|
.......................|.......................|.......................|.......................|.......................|.......................|.......................|.......................|.......................|.......................|
.......................|.......................|.......................|.......................|.......................|.......................|.......................|.......................|.......................|.......................|
.......................|C-0....................|.......................|.......................|C-0....................|.......................|.......................|.......................|.......................|.......................|
.......................|F-4....................|.......................|.......................|A-4....................|.......................|.......................|.......................|.......................|.......................|
.......................|.......................|.......................|.......................|.......................|.......................|.......................|.......................|.......................|.......................|
.......................|.......................|.......................|.......................|.......................|.......................|.......................|.......................|.......................|.......................|
.......................|.......................|.......................|.......................|.......................|.......................|.......................|.......................|.......................|.......................|
.......................|.......................|.......................|.......................|.......................|.......................|.......................|.......................|.......................|.......................|
.......................|.......................|.......................|C-0....................|.......................|.......................|.......................|.......................|.......................|.......................|
.......................|.......................|.......................|F-4....................|.......................|.......................|.......................|.......................|.......................|.......................|
.......................|.......................|.......................|.......................|.......................|.......................|.......................|.......................|.......................|.......................|
.......................|.......................|.......................|.......................|.......................|.......................|.......................|.......................|.......................|.......................|
.......................|.......................|.......................|.......................|.......................|.......................|.......................|.......................|.......................|.......................|
.......................|.......................|.......................|.......................|.......................|.......................|.......................|.......................|.......................|.......................|
.......................|C-0....................|.......................|.......................|C-0....................|.......................|.......................|.......................|.......................|.......................|
.......................|A-4....................|.......................|.......................|F-4....................|.......................|.......................|.......................|.......................|.......................|
.......................|.......................|.......................|.......................|.......................|.......................|.......................|.......................|.......................|.......................|
.......................|.......................|.......................|.......................|.......................|.......................|.......................|.......................|.......................|.......................|
.......................|.......................|.......................|.......................|.......................|.......................|.......................|.......................|.......................|.......................|
.......................|.......................|.......................|.......................|.......................|.......................|.......................|.......................|.......................|.......................|
.......................|.......................|.......................|C-0....................|.......................|.......................|.......................|.......................|.......................|.......................|
.......................|.......................|.......................|A-4....................|.......................|.......................|.......................|.......................|.......................|.......................|
.......................|.......................|.......................|.......................|.......................|.......................|.......................|.......................|.......................|.......................|
.......................|.......................|.......................|.......................|.......................|.......................|.......................|.......................|.......................|.......................|
.......................|.......................|.......................|.......................|.......................|.......................|.......................|.......................|.......................|.......................|
.......................|.......................|.......................|.......................|.......................|.......................|.......................|.......................|.......................|.......................|
.......................|C-0....................|.......................|.......................|C-0....................|.......................|.......................|.......................|.......................|.......................|
.......................|E-5....................|.......................|.......................|A-4....................|.......................|.......................|.......................|.......................|.......................|
.......................|.......................|.......................|.......................|.......................|.......................|.......................|.......................|.......................|.......................|
.......................|.......................|.......................|.......................|.......................|.......................|.......................|.......................|.......................|.......................|
.......................|.......................|.......................|.......................|.......................|.......................|.......................|.......................|.......................|.......................|
.......................|.......................|.......................|.......................|.......................|.......................|.......................|.......................|.......................|.......................|
.......................|.......................|.......................|C-0....................|.......................|.......................|.......................|.......................|.......................|.......................|
.......................|.......................|.......................|E-5....................|.......................|.......................|.......................|.......................|.......................|.......................|
.......................|.......................|.......................|.......................|.......................|.......................|.......................|.......................|.......................|.......................|
.......................|.......................|.......................|.......................|.......................|.......................|.......................|.......................|.......................|.......................|
.......................|.......................|.......................|.......................|.......................|.......................|.......................|.......................|.......................|.......................|
.......................|.......................|.......................|.......................|.......................|.......................|.......................|.......................|.......................|.......................|
.......................|.......................|C-0....................|.......................|C-0....................|.......................|C-0....................|C-0....................|.......................|.......................|
.......................|.......................|C-4....0400............|.......................|E-5....................|.......................|E-2....0400............|C-2....0400............|.......................|.......................|
.......................|.......................|.......................|.......................|.......................|.......................|.......................|.......................|.......................|.......................|
.......................|.......................|.......................|.......................|.......................|.......................|.......................|.......................|.......................|.......................|
.......................|.......................|.......................|.......................|.......................|.......................|.......................|.......................|.......................|.......................|
.......................|.......................|.......................|.......................|.......................|.......................|.......................|.......................|.......................|.......................|
.......................|.......................|.......................|.......................|.......................|.......................|.......................|.......................|.......................|.......................|
.......................|.......................|.......................|.......................|.......................|.......................|.......................|.......................|C-0....................|.......................|
.......................|.......................|.......................|.......................|.......................|.......................|.......................|.......................|.......................|.......................|
.......................|.......................|.......................|.......................|.......................|.......................|.......................|.......................|.......................|.......................|
.......................|.......................|.......................|.......................|.......................|.......................|.......................|.......................|.......................|.......................|
.......................|.......................|.......................|.......................|.......................|.......................|.......................|.......................|.......................|.......................|
.......................|C-0....................|.......................|.......................|.......................|.......................|.......................|.......................|.......................|.......................|
.......................|F-5....................|.......................|.......................|.......................|.......................|.......................|.......................|.......................|.......................|
.......................|.......................|.......................|.......................|.......................|.......................|.......................|.......................|.......................|.......................|
.......................|.......................|.......................|.......................|.......................|.......................|.......................|.......................|.......................|.......................|
.......................|.......................|.......................|.......................|.......................|.......................|.......................|.......................|.......................|.......................|
.......................|.......................|.......................|.......................|.......................|.......................|.......................|.......................|.......................|.......................|
.......................|.......................|.......................|C-0....................|.......................|.......................|.......................|.......................|.......................|.......................|
.......................|.......................|.......................|F-5....................|.......................|.......................|.......................|.......................|.......................|.......................|
.......................|.......................|.......................|.......................|.......................|.......................|.......................|.......................|.......................|.......................|
org.tildearrow.furnace - Pattern Data (219)
0
.......................|.......................|.......................|.......................|.......................|.......................|.......................|.......................|.......................|.......................|
.......................|.......................|.......................|.......................|.......................|.......................|.......................|.......................|.......................|.......................|
.......................|.......................|.......................|.......................|.......................|.......................|.......................|.......................|.......................|.......................|
.......................|C-0....................|.......................|.......................|C-0....................|.......................|.......................|.......................|.......................|.......................|
.......................|E-5....................|.......0452............|.......................|F-5....................|.......................|.......0452............|.......0452............|.......................|.......................|
.......................|.......................|.......................|.......................|.......................|.......................|.......................|.......................|.......................|.......................|
.......................|.......................|.......................|.......................|.......................|.......................|.......................|.......................|.......................|.......................|
.......................|.......................|.......................|.......................|.......................|.......................|.......................|.......................|.......................|.......................|
.......................|.......................|.......................|.......................|.......................|.......................|.......................|.......................|.......................|.......................|
.......................|.......................|.......................|C-0....................|.......................|.......................|.......................|.......................|.......................|.......................|
.......................|.......................|.......................|E-5....................|.......................|.......................|.......................|.......................|.......................|.......................|
.......................|.......................|.......................|.......................|.......................|.......................|.......................|.......................|.......................|.......................|
.......................|.......................|.......................|.......................|.......................|.......................|.......................|.......................|.......................|.......................|
.......................|.......................|.......................|.......................|.......................|.......................|.......................|.......................|.......................|.......................|
.......................|.......................|.......................|.......................|.......................|.......................|.......................|.......................|.......................|.......................|
.......................|C-0....................|.......................|.......................|C-0....................|.......................|.......................|.......................|.......................|.......................|
.......................|D-5....................|.......................|.......................|E-5....................|.......................|.......................|.......................|.......................|.......................|
.......................|.......................|.......................|.......................|.......................|.......................|.......................|.......................|.......................|.......................|
.......................|.......................|.......................|.......................|.......................|.......................|.......................|.......................|.......................|.......................|
.......................|.......................|.......................|.......................|.......................|.......................|.......................|.......................|.......................|.......................|
.......................|.......................|.......................|.......................|.......................|.......................|.......................|.......................|.......................|.......................|
.......................|.......................|.......................|C-0....................|.......................|.......................|.......................|.......................|.......................|.......................|
.......................|.......................|.......................|D-5....................|.......................|.......................|.......................|.......................|.......................|.......................|
.......................|.......................|.......................|.......................|.......................|.......................|.......................|.......................|.......................|.......................|
.......................|.......................|.......................|.......................|.......................|.......................|.......................|.......................|.......................|.......................|
.......................|.......................|.......................|.......................|.......................|.......................|.......................|.......................|.......................|.......................|
.......................|.......................|.......................|.......................|.......................|.......................|.......................|.......................|.......................|.......................|
.......................|C-0....................|.......................|.......................|C-0....................|.......................|.......................|.......................|.......................|.......................|
.......................|C-5....................|.......................|.......................|D-5....................|.......................|.......................|.......................|.......................|.......................|
.......................|.......................|.......................|.......................|.......................|.......................|.......................|.......................|.......................|.......................|
.......................|.......................|.......................|.......................|.......................|.......................|.......................|.......................|.......................|.......................|
.......................|.......................|.......................|.......................|.......................|.......................|.......................|.......................|.......................|.......................|
.......................|.......................|.......................|.......................|.......................|.......................|.......................|.......................|.......................|.......................|
.......................|.......................|.......................|C-0....................|.......................|.......................|.......................|.......................|.......................|.......................|
.......................|.......................|.......................|C-5....................|.......................|.......................|.......................|.......................|.......................|.......................|
.......................|.......................|.......................|.......................|.......................|.......................|.......................|.......................|.......................|.......................|
.......................|.......................|.......................|.......................|.......................|.......................|.......................|.......................|.......................|.......................|
.......................|.......................|.......................|.......................|.......................|.......................|.......................|.......................|.......................|.......................|
.......................|.......................|.......................|.......................|.......................|.......................|.......................|.......................|.......................|.......................|
.......................|C-0....................|.......................|.......................|C-0....................|.......................|.......................|.......................|.......................|.......................|
.......................|A-4....................|.......................|.......................|C-5....................|.......................|.......................|.......................|.......................|.......................|
.......................|.......................|.......................|.......................|.......................|.......................|.......................|.......................|.......................|.......................|
.......................|.......................|.......................|.......................|.......................|.......................|.......................|.......................|.......................|.......................|
.......................|.......................|.......................|.......................|.......................|.......................|.......................|.......................|.......................|.......................|
.......................|.......................|.......................|.......................|.......................|.......................|.......................|.......................|.......................|.......................|
.......................|.......................|.......................|C-0....................|.......................|.......................|.......................|.......................|.......................|.......................|
.......................|.......................|.......................|A-4....................|.......................|.......................|.......................|.......................|.......................|.......................|
.......................|.......................|.......................|.......................|.......................|.......................|.......................|.......................|.......................|.......................|
.......................|.......................|.......................|.......................|.......................|.......................|.......................|.......................|.......................|.......................|
.......................|.......................|.......................|.......................|.......................|.......................|.......................|.......................|.......................|.......................|
.......................|.......................|.......................|.......................|.......................|.......................|.......................|.......................|.......................|.......................|
.......................|.......................|.......................|.......................|C-0....................|.......................|.......................|.......................|.......................|.......................|
.......................|.......................|.......................|.......................|A-4....................|.......................|.......................|.......................|.......................|.......................|
.......................|.......................|.......................|.......................|.......................|.......................|.......................|.......................|.......................|.......................|
.......................|.......................|.......................|.......................|.......................|.......................|.......................|.......................|.......................|.......................|
.......................|.......................|.......................|.......................|.......................|.......................|.......................|.......................|.......................|.......................|
.......................|.......................|.......................|.......................|.......................|.......................|.......................|.......................|.......................|.......................|
.......................|.......................|.......................|.......................|.......................|.......................|.......................|.......................|.......................|.......................|
.......................|.......................|.......................|.......................|.......................|.......................|.......................|.......................|.......................|.......................|
.......................|.......................|.......................|.......................|.......................|.......................|.......................|.......................|.......................|.......................|
.......................|.......................|.......................|.......................|.......................|.......................|.......................|.......................|.......................|.......................|
.......................|.......................|.......................|.......................|.......................|.......................|.......................|.......................|.......................|.......................|
.......................|.......................|.......................|.......................|.......................|.......................|.......................|.......................|.......................|.......................|
.......................|C-0....................|C-0....................|.......................|.......................|.......................|C-0....................|C-0....................|.......................|.......................|
.......................|D-5....................|D-4....0400............|.......................|.......................|.......................|F-2....0400............|D-2....0400............|.......................|.......................|
.......................|.......................|.......................|.......................|.......................|.......................|.......................|.......................|.......................|.......................|
.......................|.......................|.......................|.......................|.......................|.......................|.......................|.......................|.......................|.......................|
.......................|.......................|.......................|.......................|.......................|.......................|.......................|.......................|.......................|.......................|
.......................|.......................|.......................|.......................|.......................|.......................|.......................|.......................|.......................|.......................|
.......................|.......................|.......................|C-0....................|.......................|.......................|.......................|.......................|.......................|.......................|
.......................|.......................|.......................|D-5....................|.......................|.......................|.......................|.......................|.......................|.......................|
.......................|.......................|.......................|.......................|.......................|.......................|.......................|.......................|.......................|.......................|
.......................|.......................|.......................|.......................|.......................|.......................|.......................|.......................|.......................|.......................|
.......................|.......................|.......................|.......................|.......................|.......................|.......................|.......................|.......................|.......................|
.......................|.......................|.......................|.......................|.......................|.......................|.......................|.......................|.......................|.......................|
.......................|.......................|.......................|.......................|C-0....................|.......................|.......................|.......................|.......................|.......................|
.......................|.......................|.......................|.......................|D-5....................|.......................|.......................|.......................|.......................|.......................|
.......................|.......................|.......................|.......................|.......................|.......................|.......................|.......................|.......................|.......................|
.......................|.......................|.......................|.......................|.......................|.......................|.......................|.......................|.......................|.......................|
.......................|.......................|.......................|.......................|.......................|.......................|.......................|.......................|.......................|.......................|
.......................|.......................|.......................|.......................|.......................|.......................|.......................|.......................|.......................|.......................|
.......................|.......................|.......................|.......................|.......................|.......................|.......................|.......................|.......................|.......................|
D-3....................|.......................|.......................|.......................|.......................|C-4CC..................|.......................|.......................|C-0....................|.......................|
.......................|.......................|.......................|.......................|.......................|.......................|.......................|.......................|.......................|.......................|
.......................|.......................|.......................|.......................|.......................|.......................|.......................|.......................|.......................|.......................|
.......................|.......................|.......................|.......................|.......................|.......................|.......................|.......................|.......................|.......................|
.......................|.......................|.......................|.......................|.......................|.......................|.......................|.......................|.......................|.......................|
C-0....................|.......................|.......................|.......................|.......................|.......................|.......................|.......................|.......................|.......................|
D-3....................|.......0452............|.......0452............|.......................|.......................|C-4CC..................|.......0452............|.......0452............|.......................|.......................|
.......................|.......................|.......................|.......................|.......................|.......................|.......................|.......................|.......................|.......................|
.......................|.......................|.......................|.......................|.......................|.......................|.......................|.......................|.......................|.......................|
.......................|.......................|.......................|.......................|.......................|.......................|.......................|.......................|.......................|.......................|
.......................|.......................|.......................|.......................|.......................|.......................|.......................|.......................|.......................|.......................|
C-0....................|.......................|.......................|.......................|.......................|.......................|.......................|.......................|.......................|.......................|
D-3....................|.......................|.......................|.......0452............|.......................|C-4CC..................|.......................|.......................|.......................|.......................|
.......................|.......................|.......................|.......................|.......................|.......................|.......................|.......................|.......................|.......................|
.......................|.......................|.......................|.......................|.......................|.......................|.......................|.......................|.......................|.......................|
.......................|.......................|.......................|.......................|.......................|.......................|.......................|.......................|.......................|.......................|
.......................|.......................|.......................|.......................|.......................|.......................|.......................|.......................|.......................|.......................|
C-0....................|.......................|.......................|.......................|.......................|.......................|.......................|.......................|.......................|.......................|
D-3....................|.......................|.......................|.......................|.......0452............|C-4CC..................|.......................|.......................|.......................|.......................|
.......................|.......................|.......................|.......................|.......................|.......................|.......................|.......................|.......................|.......................|
.......................|.......................|.......................|.......................|.......................|.......................|.......................|.......................|.......................|.......................|
.......................|.......................|.......................|.......................|.......................|.......................|.......................|.......................|.......................|.......................|
.......................|.......................|.......................|.......................|.......................|.......................|.......................|.......................|.......................|.......................|
.......................|.......................|.......................|.......................|.......................|.......................|.......................|.......................|.......................|.......................|
.......................|.......................|.......................|.......................|.......................|.......................|.......................|.......................|.......................|.......................|
.......................|.......................|.......................|.......................|.......................|.......................|.......................|.......................|.......................|.......................|
.......................|.......................|.......................|.......................|.......................|.......................|.......................|.......................|.......................|.......................|
.......................|.......................|.......................|.......................|.......................|.......................|.......................|.......................|.......................|.......................|
.......................|.......................|.......................|.......................|.......................|.......................|.......................|.......................|.......................|.......................|
.......................|.......................|.......................|.......................|.......................|.......................|.......................|.......................|.......................|.......................|
.......................|.......................|.......................|.......................|.......................|.......................|.......................|.......................|.......................|.......................|
.......................|.......................|.......................|.......................|.......................|.......................|.......................|.......................|.......................|.......................|
.......................|.......................|.......................|.......................|.......................|.......................|.......................|.......................|.......................|.......................|
.......................|.......................|.......................|.......................|.......................|.......................|.......................|.......................|.......................|.......................|
.......................|.......................|.......................|.......................|.......................|.......................|.......................|.......................|.......................|.......................|
.......................|.......................|.......................|.......................|.......................|.......................|.......................|.......................|.......................|.......................|
.......................|.......................|.......................|.......................|.......................|.......................|.......................|.......................|.......................|.......................|
.......................|.......................|.......................|.......................|.......................|.......................|.......................|.......................|.......................|.......................|
.......................|.......................|.......................|.......................|.......................|.......................|.......................|.......................|.......................|.......................|
.......................|.......................|.......................|.......................|.......................|.......................|.......................|.......................|.......................|.......................|
.......................|.......................|.......................|.......................|.......................|.......................|.......................|.......................|.......................|.......................|
C-0....................|.......................|.......................|.......................|.......................|.......................|.......................|.......................|.......................|.......................|
.......................|.......................|.......................|.......................|.......................|.......................|.......................|.......................|.......................|.......................|
.......................|.......................|.......................|.......................|.......................|.......................|.......................|.......................|.......................|.......................|
.......................|.......................|.......................|.......................|.......................|.......................|.......................|.......................|.......................|.......................|
.......................|.......................|.......................|.......................|.......................|.......................|.......................|.......................|.......................|.......................|
.......................|.......................|.......................|.......................|.......................|.......................|.......................|.......................|.......................|.......................|
.......................|.......................|.......................|.......................|.......................|.......................|.......................|.......................|.......................|.......................|
.......................|.......................|.......................|.......................|.......................|.......................|.......................|.......................|.......................|.......................|
.......................|.......................|.......................|.......................|.......................|.......................|.......................|.......................|.......................|.......................|
.......................|.......................|.......................|.......................|.......................|.......................|.......................|.......................|.......................|.......................|
.......................|.......................|.......................|.......................|.......................|.......................|.......................|.......................|.......................|.......................|
.......................|.......................|.......................|.......................|.......................|.......................|.......................|.......................|.......................|.......................|
.......................|.......................|.......................|.......................|.......................|.......................|.......................|.......................|.......................|.......................|
.......................|.......................|.......................|.......................|.......................|.......................|.......................|.......................|.......................|.......................|
.......................|.......................|.......................|.......................|.......................|.......................|.......................|.......................|.......................|.......................|
.......................|.......................|.......................|.......................|.......................|.......................|.......................|.......................|.......................|.......................|
.......................|.......................|.......................|.......................|.......................|.......................|.......................|.......................|.......................|.......................|
.......................|.......................|.......................|.......................|.......................|.......................|.......................|.......................|.......................|.......................|
.......................|.......................|.......................|.......................|.......................|.......................|.......................|.......................|.......................|.......................|
.......................|.......................|.......................|.......................|.......................|.......................|.......................|.......................|.......................|.......................|
.......................|.......................|.......................|.......................|.......................|.......................|.......................|.......................|.......................|.......................|
.......................|.......................|.......................|.......................|.......................|.......................|.......................|.......................|.......................|.......................|
.......................|.......................|.......................|.......................|.......................|.......................|.......................|.......................|.......................|.......................|
.......................|.......................|.......................|.......................|.......................|.......................|.......................|.......................|.......................|.......................|
.......................|.......................|C-0....................|.......................|.......................|.......................|.......................|.......................|.......................|.......................|
.......................|.......................|D-3116B0400............|.......................|.......................|.......................|.......................|.......................|.......................|.......................|
.......................|.......................|.......................|.......................|.......................|.......................|.......................|.......................|.......................|.......................|
.......................|.......................|.......................|.......................|.......................|.......................|.......................|.......................|.......................|.......................|
.......................|.......................|.......................|.......................|.......................|.......................|.......................|.......................|.......................|.......................|
.......................|.......................|.......................|.......................|.......................|.......................|.......................|.......................|.......................|.......................|
.......................|.......................|.......................|.......................|.......................|.......................|.......................|.......................|.......................|.......................|
.......................|.......................|.......................|.......................|.......................|.......................|.......................|.......................|.......................|.......................|
.......................|.......................|.......................|.......................|.......................|.......................|.......................|.......................|.......................|.......................|
.......................|.......................|.......................|.......................|.......................|.......................|.......................|.......................|.......................|.......................|
.......................|.......................|.......................|.......................|.......................|.......................|.......................|.......................|.......................|.......................|
.......................|.......................|.......................|.......................|.......................|.......................|.......................|.......................|.......................|.......................|
.......................|.......................|.......................|.......................|.......................|.......................|.......................|.......................|.......................|.......................|
.......................|.......................|.......................|.......................|.......................|.......................|.......................|.......................|.......................|.......................|
.......................|.......................|.......................|.......................|.......................|.......................|.......................|.......................|.......................|.......................|
.......................|.......................|.......................|.......................|.......................|.......................|.......................|.......................|.......................|.......................|
.......................|.......................|.......................|.......................|.......................|.......................|.......................|.......................|.......................|.......................|
.......................|.......................|.......................|.......................|.......................|.......................|.......................|.......................|.......................|.......................|
.......................|.......................|.......................|.......................|.......................|.......................|.......................|.......................|.......................|.......................|
.......................|.......................|.......................|.......................|.......................|.......................|.......................|.......................|.......................|.......................|
.......................|.......................|.......................|.......................|.......................|.......................|.......................|.......................|.......................|.......................|
.......................|.......................|.......................|.......................|.......................|.......................|.......................|.......................|.......................|.......................|
.......................|.......................|.......................|.......................|.......................|.......................|.......................|.......................|.......................|.......................|
.......................|.......................|.......................|.......................|.......................|.......................|.......................|.......................|.......................|.......................|
.......................|.......................|C-0....................|.......................|.......................|.......................|C-0....................|C-0....................|.......................|.......................|
.......................|.......................|D#3....................|.......................|.......................|.......................|G-2....0400............|D#2....0400............|.......................|.......................|
.......................|.......................|.......................|.......................|.......................|.......................|.......................|.......................|.......................|.......................|
.......................|.......................|.......................|.......................|.......................|.......................|.......................|.......................|.......................|.......................|
.......................|.......................|.......................|.......................|.......................|.......................|.......................|.......................|.......................|.......................|
.......................|.......................|.......................|.......................|.......................|.......................|.......................|.......................|.......................|.......................|
.......................|.......................|.......................|.......................|.......................|.......................|.......................|.......................|.......................|.......................|
D-3....................|.......................|.......................|.......................|.......................|C-4CC..................|.......................|.......................|C-0....................|.......................|
.......................|.......................|.......................|.......................|.......................|.......................|.......................|.......................|.......................|.......................|
.......................|.......................|.......................|.......................|.......................|.......................|.......................|.......................|.......................|.......................|
.......................|.......................|.......................|.......................|.......................|.......................|.......................|.......................|.......................|.......................|
.......................|.......................|.......................|.......................|.......................|.......................|.......................|.......................|.......................|.......................|
C-0....................|.......................|.......................|.......................|.......................|.......................|.......................|.......................|.......................|.......................|
D-3....................|.......................|.......................|.......................|.......................|C-4CC..................|.......................|.......................|.......................|.......................|
.......................|.......................|.......................|.......................|.......................|.......................|.......................|.......................|.......................|.......................|
.......................|.......................|.......................|.......................|.......................|.......................|.......................|.......................|.......................|.......................|
.......................|.......................|.......................|.......................|.......................|.......................|.......................|.......................|.......................|.......................|
.......................|.......................|.......................|.......................|.......................|.......................|.......................|.......................|.......................|.......................|
C-0....................|.......................|.......................|.......................|.......................|.......................|.......................|.......................|.......................|.......................|
D-3....................|.......................|.......................|.......................|.......................|C-4CC..................|.......................|.......................|.......................|.......................|
.......................|.......................|.......................|.......................|.......................|.......................|.......................|.......................|.......................|.......................|
.......................|.......................|.......................|.......................|.......................|.......................|.......................|.......................|.......................|.......................|
.......................|.......................|.......................|.......................|.......................|.......................|.......................|.......................|.......................|.......................|
.......................|.......................|.......................|.......................|.......................|.......................|.......................|.......................|.......................|.......................|
C-0....................|.......................|.......................|.......................|.......................|.......................|.......................|.......................|.......................|.......................|
D-3....................|.......................|.......0452............|.......................|.......................|C-4CC..................|.......0452............|.......0452............|.......................|.......................|
.......................|.......................|.......................|.......................|.......................|.......................|.......................|.......................|.......................|.......................|
.......................|.......................|.......................|.......................|.......................|.......................|.......................|.......................|.......................|.......................|
.......................|.......................|.......................|.......................|.......................|.......................|.......................|.......................|.......................|.......................|
.......................|.......................|.......................|.......................|.......................|.......................|.......................|.......................|.......................|.......................|
.......................|.......................|.......................|.......................|.......................|.......................|.......................|.......................|.......................|.......................|
.......................|.......................|.......................|.......................|.......................|.......................|.......................|.......................|.......................|.......................|
.......................|.......................|.......................|.......................|.......................|.......................|.......................|.......................|.......................|.......................|
.......................|.......................|.......................|.......................|.......................|.......................|.......................|.......................|.......................|.......................|
.......................|.......................|.......................|.......................|.......................|.......................|.......................|.......................|.......................|.......................|
.......................|.......................|.......................|.......................|.......................|.......................|.......................|.......................|.......................|.......................|
.......................|.......................|.......................|.......................|.......................|.......................|.......................|.......................|.......................|.......................|
.......................|.......................|.......................|.......................|.......................|.......................|.......................|.......................|.......................|.......................|
.......................|.......................|.......................|.......................|.......................|.......................|.......................|.......................|.......................|.......................|
.......................|.......................|.......................|.......................|.......................|.......................|.......................|.......................|.......................|.......................|
.......................|.......................|.......................|.......................|.......................|.......................|.......................|.......................|.......................|.......................|
.......................|.......................|.......................|.......................|.......................|.......................|.......................|.......................|.......................|.......................|
.......................|.......................|.......................|.......................|.......................|.......................|.......................|.......................|.......................|.......................|
.......................|.......................|.......................|.......................|.......................|.......................|.......................|.......................|.......................|.......................|
.......................|.......................|.......................|.......................|.......................|.......................|.......................|.......................|.......................|.......................|
.......................|.......................|.......................|.......................|.......................|.......................|.......................|.......................|.......................|.......................|
.......................|.......................|.......................|.......................|.......................|.......................|.......................|.......................|.......................|.......................|
.......................|.......................|.......................|.......................|.......................|.......................|.......................|.......................|.......................|.......................|
C-0....................|.......................|.......................|.......................|.......................|.......................|.......................|.......................|.......................|.......................|
.......................|.......................|.......................|.......................|.......................|.......................|.......................|.......................|.......................|.......................|
.......................|.......................|.......................|.......................|.......................|.......................|.......................|.......................|.......................|.......................|
.......................|.......................|.......................|.......................|.......................|.......................|.......................|.......................|.......................|.......................|
.......................|.......................|.......................|.......................|.......................|.......................|.......................|.......................|.......................|.......................|
.......................|.......................|.......................|.......................|.......................|.......................|.......................|.......................|.......................|.......................|
.......................|.......................|.......................|.......................|.......................|.......................|.......................|.......................|.......................|.......................|
.......................|.......................|.......................|.......................|.......................|.......................|.......................|.......................|C-0....C034............|.......................|
.......................|.......................|.......................|.......................|.......................|.......................|.......................|.......................|.......................|.......................|
.......................|.......................|.......................|.......................|.......................|.......................|.......................|.......................|.......................|.......................|
.......................|.......................|.......................|.......................|.......................|.......................|.......................|.......................|.......................|.......................|
.......................|.......................|.......................|.......................|.......................|.......................|.......................|.......................|.......................|.......................|
.......................|.......................|.......................|.......................|.......................|.......................|.......................|.......................|.......................|.......................|
.......................|.......................|.......................|.......................|.......................|.......................|.......................|.......................|C-0....................|.......................|
.......................|.......................|.......................|.......................|.......................|.......................|.......................|.......................|.......................|.......................|
.......................|.......................|.......................|.......................|.......................|.......................|.......................|.......................|.......................|.......................|
.......................|.......................|.......................|.......................|.......................|.......................|.......................|.......................|C-0....................|.......................|
.......................|.......................|.......................|.......................|.......................|.......................|.......................|.......................|.......................|.......................|
.......................|.......................|.......................|.......................|.......................|.......................|.......................|.......................|.......................|.......................|
.......................|.......................|.......................|.......................|.......................|.......................|.......................|.......................|.......................|.......................|
.......................|.......................|.......................|.......................|.......................|.......................|.......................|.......................|.......................|.......................|
.......................|.......................|.......................|.......................|.......................|.......................|.......................|.......................|.......................|.......................|
.......................|.......................|.......................|.......................|.......................|.......................|.......................|.......................|.......................|.......................|
.......................|.......................|.......................|.......................|.......................|.......................|.......................|.......................|.......................|.......................|
.......................|C-0....................|.......................|.......................|.......................|.......................|.......................|.......................|.......................|.......................|
.......................|.......................|.......................|.......................|.......................|.......................|.......................|.......................|.......................|.......................|
.......................|.......................|.......................|.......................|.......................|.......................|.......................|.......................|.......................|.......................|
.......................|.......................|.......................|.......................|.......................|.......................|.......................|.......................|.......................|.......................|
.......................|.......................|.......................|.......................|.......................|.......................|.......................|.......................|.......................|.......................|
.......................|.......................|.......................|.......................|.......................|.......................|.......................|.......................|.......................|.......................|
.......................|.......................|.......................|C-0....................|.......................|.......................|.......................|.......................|.......................|.......................|
.......................|.......................|.......................|.......................|.......................|.......................|.......................|.......................|.......................|.......................|
.......................|.......................|.......................|.......................|.......................|.......................|.......................|.......................|.......................|.......................|
.......................|.......................|.......................|.......................|.......................|.......................|.......................|.......................|.......................|.......................|
.......................|.......................|.......................|.......................|.......................|.......................|.......................|.......................|.......................|.......................|
.......................|.......................|.......................|.......................|.......................|.......................|.......................|.......................|.......................|.......................|
.......................|.......................|.......................|.......................|C-0....................|.......................|.......................|.......................|.......................|.......................|
org.tildearrow.furnace - Pattern Data (219)
0
.......................|D-427..0400............|.......................|.......................|.......................|.......................|.......................|.......................|.......................|.......................|
.......................|.......................|.......................|.......................|.......................|.......................|.......................|.......................|.......................|.......................|
.......................|.......................|.......................|.......................|.......................|.......................|.......................|.......................|.......................|.......................|
.......................|.......................|.......................|.......................|.......................|.......................|.......................|.......................|.......................|.......................|
.......................|.......................|.......................|.......................|.......................|.......................|.......................|.......................|.......................|.......................|
.......................|C-0....................|.......................|.......................|.......................|.......................|.......................|.......................|.......................|.......................|
.......................|E-4....................|.......................|D-4276704005305........|.......................|.......................|.......................|.......................|.......................|.......................|
.......................|.......................|.......................|.......................|.......................|.......................|.......................|.......................|.......................|.......................|
.......................|.......................|.......................|.......................|.......................|.......................|.......................|.......................|.......................|.......................|
.......................|.......................|.......................|.......................|.......................|.......................|.......................|.......................|.......................|.......................|
.......................|.......................|.......................|.......................|.......................|.......................|.......................|.......................|.......................|.......................|
.......................|C-0....................|C-0....................|C-0....................|.......................|.......................|C-0....................|C-0....................|.......................|.......................|
.......................|F-4....................|D-4....0400............|E-4....................|D-427..04005305........|.......................|F-2....0400............|D-2....0400............|.......................|.......................|
.......................|.......................|.......................|.......................|.......................|.......................|.......................|.......................|.......................|.......................|
.......................|.......................|.......................|.......................|.......................|.......................|.......................|.......................|.......................|.......................|
.......................|.......................|.......................|.......................|.......................|.......................|.......................|.......................|.......................|.......................|
.......................|.......................|.......................|.......................|.......................|.......................|.......................|.......................|.......................|.......................|
.......................|.......................|.......................|C-0....................|C-0....................|.......................|.......................|.......................|.......................|.......................|
.......................|.......................|.......................|F-4....................|E-4....................|.......................|.......................|.......................|.......................|.......................|
.......................|.......................|.......................|.......................|.......................|.......................|.......................|.......................|.......................|.......................|
.......................|.......................|.......................|.......................|.......................|.......................|.......................|.......................|.......................|.......................|
.......................|.......................|.......................|.......................|.......................|.......................|.......................|.......................|.......................|.......................|
.......................|.......................|.......................|.......................|.......................|.......................|.......................|.......................|.......................|.......................|
.......................|.......................|.......................|.......................|C-0....................|.......................|.......................|.......................|.......................|.......................|
.......................|.......................|.......................|.......................|F-4....................|.......................|.......................|.......................|.......................|.......................|
.......................|.......................|.......................|.......................|.......................|.......................|.......................|.......................|.......................|.......................|
.......................|.......................|.......................|.......................|.......................|.......................|.......................|.......................|.......................|.......................|
.......................|.......................|.......................|.......................|.......................|.......................|.......................|.......................|.......................|.......................|
.......................|.......................|.......................|.......................|.......................|.......................|.......................|.......................|.......................|.......................|
.......................|.......................|.......................|.......................|.......................|.......................|.......................|.......................|.......................|.......................|
.......................|.......................|.......................|.......................|.......................|.......................|.......................|.......................|.......................|.......................|
.......................|.......................|.......................|.......................|.......................|.......................|.......................|.......................|.......................|.......................|
.......................|.......................|.......................|.......................|.......................|.......................|.......................|.......................|.......................|.......................|
.......................|.......................|.......................|.......................|.......................|.......................|.......................|.......................|.......................|.......................|
.......................|.......................|.......................|.......................|.......................|.......................|.......................|.......................|.......................|.......................|
.......................|C-0....................|.......................|.......................|.......................|.......................|.......................|.......................|.......................|.......................|
.......................|G-4....................|.......0452............|.......................|.......................|.......................|.......0452............|.......0452............|.......................|.......................|
.......................|.......................|.......................|.......................|.......................|.......................|.......................|.......................|.......................|.......................|
.......................|.......................|.......................|.......................|.......................|.......................|.......................|.......................|.......................|.......................|
.......................|.......................|.......................|.......................|.......................|.......................|.......................|.......................|.......................|.......................|
.......................|.......................|.......................|.......................|.......................|.......................|.......................|.......................|.......................|.......................|
.......................|.......................|.......................|C-0....................|.......................|.......................|.......................|.......................|.......................|.......................|
.......................|.......................|.......................|G-4....................|.......................|.......................|.......................|.......................|.......................|.......................|
.......................|.......................|.......................|.......................|.......................|.......................|.......................|.......................|.......................|.......................|
.......................|.......................|.......................|.......................|.......................|.......................|.......................|.......................|.......................|.......................|
.......................|.......................|.......................|.......................|.......................|.......................|.......................|.......................|.......................|.......................|
.......................|.......................|.......................|.......................|.......................|.......................|.......................|.......................|.......................|.......................|
.......................|.......................|.......................|.......................|C-0....................|.......................|.......................|.......................|.......................|.......................|
.......................|.......................|.......................|.......................|G-4....................|.......................|.......................|.......................|.......................|.......................|
.......................|.......................|.......................|.......................|.......................|.......................|.......................|.......................|.......................|.......................|
.......................|.......................|.......................|.......................|.......................|.......................|.......................|.......................|.......................|.......................|
.......................|.......................|.......................|.......................|.......................|.......................|.......................|.......................|.......................|.......................|
.......................|.......................|.......................|.......................|.......................|.......................|.......................|.......................|.......................|.......................|
.......................|.......................|.......................|.......................|.......................|.......................|.......................|.......................|.......................|.......................|
.......................|.......................|.......................|.......................|.......................|.......................|.......................|.......................|.......................|.......................|
.......................|.......................|.......................|.......................|.......................|.......................|.......................|.......................|.......................|.......................|
.......................|.......................|.......................|.......................|.......................|.......................|.......................|.......................|.......................|.......................|
.......................|.......................|.......................|.......................|.......................|.......................|.......................|.......................|.......................|.......................|
.......................|.......................|.......................|.......................|.......................|.......................|.......................|.......................|.......................|.......................|
.......................|C-0....................|C-0....................|.......................|.......................|.......................|.......................|.......................|.......................|.......................|
.......................|A-4....................|C-4....0400............|.......................|.......................|.......................|.......................|.......................|.......................|.......................|
.......................|.......................|.......................|.......................|.......................|.......................|.......................|.......................|.......................|.......................|
.......................|.......................|.......................|.......................|.......................|.......................|.......................|.......................|.......................|.......................|
.......................|.......................|.......................|.......................|.......................|.......................|.......................|.......................|.......................|.......................|
.......................|.......................|.......................|.......................|.......................|.......................|.......................|.......................|.......................|.......................|
.......................|.......................|.......................|C-0....................|.......................|.......................|.......................|.......................|.......................|.......................|
.......................|.......................|.......................|A-4....................|.......................|.......................|.......................|.......................|.......................|.......................|
.......................|.......................|.......................|.......................|.......................|.......................|.......................|.......................|.......................|.......................|
.......................|.......................|.......................|.......................|.......................|.......................|.......................|.......................|.......................|.......................|
.......................|.......................|.......................|.......................|.......................|.......................|.......................|.......................|.......................|.......................|
.......................|.......................|.......................|.......................|.......................|.......................|.......................|.......................|.......................|.......................|
.......................|.......................|.......................|.......................|C-0....................|.......................|.......................|.......................|.......................|.......................|
.......................|.......................|.......................|.......................|A-4....................|.......................|.......................|.......................|.......................|.......................|
.......................|.......................|.......................|.......................|.......................|.......................|.......................|.......................|.......................|.......................|
.......................|.......................|.......................|.......................|.......................|.......................|.......................|.......................|.......................|.......................|
.......................|.......................|.......................|.......................|.......................|.......................|.......................|.......................|C-0....................|.......................|
.......................|.......................|.......................|.......................|.......................|.......................|.......................|.......................|.......................|.......................|
.......................|.......................|.......................|.......................|.......................|.......................|.......................|.......................|.......................|.......................|
.......................|.......................|.......................|.......................|.......................|.......................|.......................|.......................|.......................|.......................|
.......................|.......................|.......................|.......................|.......................|.......................|.......................|.......................|.......................|.......................|
.......................|.......................|.......................|.......................|.......................|.......................|.......................|.......................|.......................|.......................|
.......................|.......................|.......................|.......................|.......................|.......................|.......................|.......................|.......................|.......................|
.......................|.......................|.......................|.......................|.......................|.......................|.......................|.......................|.......................|.......................|
.......................|C-0....................|.......................|.......................|.......................|.......................|.......................|.......................|.......................|.......................|
.......................|C-5....................|.......0452............|.......................|.......................|.......................|.......................|.......................|.......................|.......................|
.......................|.......................|.......................|.......................|.......................|.......................|.......................|.......................|.......................|.......................|
.......................|.......................|.......................|.......................|.......................|.......................|.......................|.......................|.......................|.......................|
.......................|.......................|.......................|.......................|.......................|.......................|.......................|.......................|.......................|.......................|
.......................|.......................|.......................|.......................|.......................|.......................|.......................|.......................|.......................|.......................|
.......................|.......................|.......................|C-0....................|.......................|.......................|.......................|.......................|.......................|.......................|
.......................|.......................|.......................|C-5....................|.......................|.......................|.......................|.......................|.......................|.......................|
.......................|.......................|.......................|.......................|.......................|.......................|.......................|.......................|.......................|.......................|
.......................|.......................|.......................|.......................|.......................|.......................|.......................|.......................|.......................|.......................|
.......................|.......................|.......................|.......................|.......................|.......................|.......................|.......................|.......................|.......................|
.......................|.......................|.......................|.......................|.......................|.......................|.......................|.......................|.......................|.......................|
.......................|C-0....................|.......................|.......................|C-0....................|.......................|.......................|.......................|.......................|.......................|
.......................|B-4....................|.......................|.......................|C-5....................|.......................|.......................|.......................|.......................|.......................|
.......................|.......................|.......................|.......................|.......................|.......................|.......................|.......................|.......................|.......................|
.......................|.......................|.......................|.......................|.......................|.......................|.......................|.......................|.......................|.......................|
.......................|.......................|.......................|.......................|.......................|.......................|.......................|.......................|.......................|.......................|
.......................|.......................|.......................|.......................|.......................|.......................|.......................|.......................|.......................|.......................|
.......................|.......................|.......................|C-0....................|.......................|.......................|.......................|.......................|.......................|.......................|
.......................|.......................|.......................|B-4....................|.......................|.......................|.......................|.......................|.......................|.......................|
.......................|.......................|.......................|.......................|.......................|.......................|.......................|.......................|.......................|.......................|
.......................|.......................|.......................|.......................|.......................|.......................|.......................|.......................|.......................|.......................|
.......................|.......................|.......................|.......................|.......................|.......................|.......................|.......................|.......................|.......................|
.......................|.......................|.......................|.......................|.......................|.......................|.......................|.......................|.......................|.......................|
.......................|.......................|C-0....................|.......................|C-0....................|.......................|C-0....................|C-0....................|.......................|.......................|
.......................|.......................|B-3....0400............|.......................|B-4....................|.......................|G-2....0400............|D-2....0400............|.......................|.......................|
.......................|.......................|.......................|.......................|.......................|.......................|.......................|.......................|.......................|.......................|
.......................|.......................|.......................|.......................|.......................|.......................|.......................|.......................|.......................|.......................|
.......................|.......................|.......................|.......................|.......................|.......................|.......................|.......................|.......................|.......................|
.......................|.......................|.......................|.......................|.......................|.......................|.......................|.......................|.......................|.......................|
.......................|.......................|.......................|.......................|.......................|.......................|.......................|.......................|.......................|.......................|
.......................|.......................|.......................|.......................|.......................|.......................|.......................|.......................|.......................|.......................|
.......................|.......................|.......................|.......................|.......................|.......................|.......................|.......................|.......................|.......................|
.......................|.......................|.......................|.......................|.......................|.......................|.......................|.......................|.......................|.......................|
.......................|.......................|.......................|.......................|.......................|.......................|.......................|.......................|.......................|.......................|
.......................|.......................|.......................|.......................|.......................|.......................|.......................|.......................|.......................|.......................|
.......................|.......................|.......................|.......................|.......................|.......................|.......................|.......................|.......................|.......................|
.......................|.......0452............|.......................|.......................|.......................|.......................|.......................|.......................|.......................|.......................|
.......................|.......................|.......................|.......................|.......................|.......................|.......................|.......................|.......................|.......................|
.......................|.......................|.......................|.......................|.......................|.......................|.......................|.......................|.......................|.......................|
.......................|.......................|.......................|.......................|.......................|.......................|.......................|.......................|.......................|.......................|
.......................|.......................|.......................|.......................|.......................|.......................|.......................|.......................|.......................|.......................|
.......................|.......................|.......................|.......................|.......................|.......................|.......................|.......................|.......................|.......................|
.......................|.......................|.......................|.......0452............|.......................|.......................|.......................|.......................|.......................|.......................|
.......................|.......................|.......................|.......................|.......................|.......................|.......................|.......................|.......................|.......................|
.......................|.......................|.......................|.......................|.......................|.......................|.......................|.......................|.......................|.......................|
.......................|.......................|.......................|.......................|.......................|.......................|.......................|.......................|.......................|.......................|
.......................|.......................|.......................|.......................|.......................|.......................|.......................|.......................|.......................|.......................|
.......................|.......................|.......................|.......................|.......................|.......................|.......................|.......................|.......................|.......................|
.......................|.......................|.......0452............|.......................|.......0452............|.......................|.......0452............|.......0452............|.......................|.......................|
.......................|.......................|.......................|.......................|.......................|.......................|.......................|.......................|.......................|.......................|
.......................|.......................|.......................|.......................|.......................|.......................|.......................|.......................|.......................|.......................|
.......................|.......................|.......................|.......................|.......................|.......................|.......................|.......................|.......................|.......................|
.......................|.......................|.......................|.......................|.......................|.......................|.......................|.......................|.......................|.......................|
.......................|.......................|.......................|.......................|.......................|.......................|.......................|.......................|.......................|.......................|
.......................|.......................|.......................|.......................|.......................|.......................|.......................|.......................|.......................|.......................|
.......................|.......................|.......................|.......................|.......................|.......................|.......................|.......................|.......................|.......................|
.......................|.......................|.......................|.......................|.......................|.......................|.......................|.......................|.......................|.......................|
.......................|.......................|.......................|.......................|.......................|.......................|.......................|.......................|.......................|.......................|
.......................|.......................|.......................|.......................|.......................|.......................|.......................|.......................|.......................|.......................|
.......................|C-0....................|.......................|.......................|.......................|.......................|.......................|.......................|.......................|.......................|
.......................|G-4....0400............|.......................|.......................|.......................|.......................|.......................|.......................|.......................|.......................|
.......................|.......................|.......................|.......................|.......................|.......................|.......................|.......................|.......................|.......................|
.......................|.......................|.......................|.......................|.......................|.......................|.......................|.......................|.......................|.......................|
.......................|.......................|.......................|.......................|.......................|.......................|.......................|.......................|.......................|.......................|
.......................|.......................|.......................|.......................|.......................|.......................|.......................|.......................|.......................|.......................|
.......................|.......................|.......................|C-0....................|.......................|.......................|.......................|.......................|.......................|.......................|
.......................|.......................|.......................|G-4....0400............|.......................|.......................|.......................|.......................|.......................|.......................|
.......................|.......................|.......................|.......................|.......................|.......................|.......................|.......................|.......................|.......................|
.......................|.......................|.......................|.......................|.......................|.......................|.......................|.......................|.......................|.......................|
.......................|.......................|.......................|.......................|.......................|.......................|.......................|.......................|.......................|.......................|
.......................|.......................|.......................|.......................|.......................|.......................|.......................|.......................|.......................|.......................|
.......................|C-0....................|C-0....................|.......................|C-0....................|.......................|.......................|.......................|.......................|.......................|
.......................|F-4....................|A#3....0400............|.......................|G-4....0400............|.......................|.......................|.......................|.......................|.......................|
.......................|.......................|.......................|.......................|.......................|.......................|.......................|.......................|.......................|.......................|
.......................|.......................|.......................|.......................|.......................|.......................|.......................|.......................|.......................|.......................|
.......................|.......................|.......................|.......................|.......................|.......................|.......................|.......................|.......................|.......................|
.......................|.......................|.......................|.......................|.......................|.......................|.......................|.......................|.......................|.......................|
.......................|.......................|.......................|C-0....................|.......................|.......................|.......................|.......................|.......................|.......................|
.......................|.......................|.......................|F-4....................|.......................|.......................|.......................|.......................|.......................|.......................|
.......................|.......................|.......................|.......................|.......................|.......................|.......................|.......................|.......................|.......................|
.......................|.......................|.......................|.......................|.......................|.......................|.......................|.......................|.......................|.......................|
.......................|.......................|.......................|.......................|.......................|.......................|.......................|.......................|.......................|.......................|
.......................|.......................|.......................|.......................|.......................|.......................|.......................|.......................|.......................|.......................|
.......................|C-0....................|.......................|.......................|C-0....................|.......................|.......................|.......................|.......................|.......................|
.......................|E-4....................|.......................|.......................|F-4....................|.......................|.......................|.......................|.......................|.......................|
.......................|.......................|.......................|.......................|.......................|.......................|.......................|.......................|.......................|.......................|
.......................|.......................|.......................|.......................|.......................|.......................|.......................|.......................|.......................|.......................|
.......................|.......................|.......................|.......................|.......................|.......................|.......................|.......................|C-0....................|.......................|
.......................|.......................|.......................|.......................|.......................|.......................|.......................|.......................|.......................|.......................|
.......................|.......................|.......................|C-0....................|.......................|.......................|.......................|.......................|.......................|.......................|
.......................|.......................|.......................|E-4....................|.......................|.......................|.......................|.......................|.......................|.......................|
.......................|.......................|.......................|.......................|.......................|.......................|.......................|.......................|.......................|.......................|
.......................|.......................|.......................|.......................|.......................|.......................|.......................|.......................|.......................|.......................|
.......................|.......................|.......................|.......................|.......................|.......................|.......................|.......................|.......................|.......................|
.......................|.......................|.......................|.......................|.......................|.......................|.......................|.......................|.......................|.......................|
.......................|.......................|.......................|.......................|C-0....................|.......................|.......................|.......................|.......................|.......................|
.......................|.......................|.......0452............|.......................|E-4....................|.......................|.......................|.......................|.......................|.......................|
.......................|.......................|.......................|.......................|.......................|.......................|.......................|.......................|.......................|.......................|
.......................|.......................|.......................|.......................|.......................|.......................|.......................|.......................|.......................|.......................|
.......................|.......................|.......................|.......................|.......................|.......................|.......................|.......................|.......................|.......................|
.......................|.......................|.......................|.......................|.......................|.......................|.......................|.......................|.......................|.......................|
.......................|.......................|.......................|.......................|.......................|.......................|.......................|.......................|.......................|.......................|
.......................|.......................|.......................|.......................|.......................|.......................|.......................|.......................|.......................|.......................|
.......................|.......................|.......................|.......................|.......................|.......................|.......................|.......................|.......................|.......................|
.......................|.......................|.......................|.......................|.......................|.......................|.......................|.......................|.......................|.......................|
.......................|.......................|.......................|.......................|.......................|.......................|.......................|.......................|.......................|.......................|
.......................|.......................|.......................|.......................|.......................|.......................|.......................|.......................|.......................|.......................|
.......................|C-0....................|.......................|.......................|.......................|.......................|.......................|.......................|.......................|.......................|
.......................|A-4....................|.......................|.......................|.......................|.......................|.......................|.......................|.......................|.......................|
.......................|.......................|.......................|.......................|.......................|.......................|.......................|.......................|.......................|.......................|
.......................|.......................|.......................|.......................|.......................|.......................|.......................|.......................|.......................|.......................|
.......................|.......................|.......................|.......................|.......................|.......................|.......................|.......................|.......................|.......................|
.......................|.......................|.......................|.......................|.......................|.......................|.......................|.......................|.......................|.......................|
.......................|.......................|.......................|C-0....................|.......................|.......................|.......................|.......................|.......................|.......................|
.......................|.......................|.......................|A-4....................|.......................|.......................|.......................|.......................|.......................|.......................|
.......................|.......................|.......................|.......................|.......................|.......................|.......................|.......................|.......................|.......................|
.......................|.......................|.......................|.......................|.......................|.......................|.......................|.......................|.......................|.......................|
.......................|.......................|.......................|.......................|.......................|.......................|.......................|.......................|.......................|.......................|
.......................|.......................|.......................|.......................|.......................|.......................|.......................|.......................|.......................|.......................|
.......................|.......................|C-0....................|.......................|C-0....................|.......................|C-0....................|C-0....................|.......................|.......................|
.......................|.......................|A-3....0400............|.......................|A-4....................|.......................|F-2....0400............|D-2....0400............|.......................|.......................|
.......................|.......................|.......................|.......................|.......................|.......................|.......................|.......................|.......................|.......................|
.......................|.......................|.......................|.......................|.......................|.......................|.......................|.......................|.......................|.......................|
.......................|.......................|.......................|.......................|.......................|.......................|.......................|.......................|.......................|.......................|
.......................|.......................|.......................|.......................|.......................|.......................|.......................|.......................|.......................|.......................|
.......................|.......................|.......................|.......................|.......................|.......................|.......................|.......................|.......................|.......................|
D-3....................|.......................|.......................|.......................|.......................|C-4CC..................|.......................|.......................|.......................|.......................|
.......................|.......................|.......................|.......................|.......................|.......................|.......................|.......................|.......................|.......................|
.......................|.......................|.......................|.......................|.......................|.......................|.......................|.......................|.......................|.......................|
.......................|.......................|.......................|.......................|.......................|.......................|.......................|.......................|.......................|.......................|
.......................|.......................|.......................|.......................|.......................|.......................|.......................|.......................|.......................|.......................|
C-0....................|.......................|.......................|.......................|.......................|.......................|.......................|.......................|.......................|.......................|
D-3....................|.......0452............|.......................|.......................|.......................|C-4CC..................|.......................|.......................|.......................|.......................|
.......................|.......................|.......................|.......................|.......................|.......................|.......................|.......................|.......................|.......................|
.......................|.......................|.......................|.......................|.......................|.......................|.......................|.......................|.......................|.......................|
.......................|.......................|.......................|.......................|.......................|.......................|.......................|.......................|.......................|.......................|
.......................|.......................|.......................|.......................|.......................|.......................|.......................|.......................|.......................|.......................|
C-0....................|.......................|.......................|.......................|.......................|.......................|.......................|.......................|.......................|.......................|
D-3....................|.......................|.......................|.......0452............|.......................|C-4CC..................|.......................|.......................|.......................|.......................|
.......................|.......................|.......................|.......................|.......................|.......................|.......................|.......................|.......................|.......................|
.......................|.......................|.......................|.......................|.......................|.......................|.......................|.......................|.......................|.......................|
.......................|.......................|.......................|.......................|.......................|.......................|.......................|.......................|.......................|.......................|
.......................|.......................|.......................|.......................|.......................|.......................|.......................|.......................|.......................|.......................|
C-0....................|.......................|C-0....................|.......................|.......................|.......................|.......................|.......................|.......................|.......................|
D-3....................|.......................|.......................|.......................|.......0452............|C-4CC..................|.......0452............|.......0452............|.......................|.......................|
.......................|.......................|.......................|.......................|.......................|.......................|.......................|.......................|.......................|.......................|
.......................|.......................|.......................|.......................|.......................|.......................|.......................|.......................|.......................|.......................|
.......................|.......................|.......................|.......................|.......................|.......................|.......................|.......................|.......................|.......................|
.......................|.......................|.......................|.......................|.......................|.......................|.......................|.......................|.......................|.......................|
.......................|.......................|.......................|.......................|.......................|.......................|.......................|.......................|.......................|.......................|
.......................|.......................|.......................|.......................|.......................|.......................|.......................|.......................|.......................|.......................|
.......................|.......................|.......................|.......................|.......................|.......................|.......................|.......................|.......................|.......................|
.......................|.......................|.......................|.......................|.......................|.......................|.......................|.......................|.......................|.......................|
.......................|.......................|.......................|.......................|.......................|.......................|.......................|.......................|.......................|.......................|
.......................|.......................|.......................|.......................|.......................|.......................|.......................|.......................|.......................|.......................|
.......................|.......................|.......................|.......................|.......................|.......................|.......................|.......................|.......................|.......................|
.......................|.......................|.......................|.......................|.......................|.......................|.......................|.......................|.......................|.......................|
.......................|.......................|.......................|.......................|.......................|.......................|.......................|.......................|.......................|.......................|
.......................|.......................|.......................|.......................|.......................|.......................|.......................|.......................|.......................|.......................|
.......................|.......................|.......................|.......................|.......................|.......................|.......................|.......................|.......................|.......................|
.......................|.......................|.......................|.......................|.......................|.......................|.......................|.......................|.......................|.......................|
.......................|.......................|.......................|.......................|.......................|.......................|.......................|.......................|.......................|.......................|
.......................|.......................|.......................|.......................|.......................|.......................|.......................|.......................|.......................|.......................|
.......................|.......................|.......................|.......................|.......................|.......................|.......................|.......................|.......................|.......................|
.......................|.......................|.......................|.......................|.......................|.......................|.......................|.......................|.......................|.......................|
.......................|.......................|.......................|.......................|.......................|.......................|.......................|.......................|.......................|.......................|
.......................|.......................|.......................|.......................|.......................|.......................|.......................|.......................|.......................|.......................|
C-0....................|.......................|.......................|.......................|.......................|.......................|.......................|.......................|.......................|.......................|
.......................|.......................|D-41074................|.......................|.......................|.......................|.......................|.......................|.......................|.......................|
.......................|.......................|.......................|.......................|.......................|.......................|.......................|.......................|.......................|.......................|
.......................|.......................|.......................|.......................|.......................|.......................|.......................|.......................|.......................|.......................|
.......................|.......................|.......................|.......................|.......................|.......................|.......................|.......................|.......................|.......................|
org.tildearrow.furnace - Pattern Data (219)
0
.......................|.......................|.......................|.......................|.......................|.......................|.......................|.......................|.......................|.......................|
.......................|.......................|.......................|.......................|.......................|.......................|.......................|.......................|.......................|.......................|
.......................|.......................|.......................|.......................|.......................|.......................|.......................|.......................|.......................|.......................|
.......................|.......................|.......................|.......................|.......................|.......................|.......................|.......................|.......................|.......................|
.......................|.......................|.......................|.......................|.......................|.......................|.......................|.......................|.......................|.......................|
.......................|.......................|.......................|.......................|.......................|.......................|.......................|.......................|.......................|.......................|
.......................|.......................|.......................|.......................|.......................|.......................|.......................|.......................|.......................|.......................|
.......................|.......................|.......................|.......................|.......................|.......................|.......................|.......................|.......................|.......................|
.......................|.......................|.......................|.......................|.......................|.......................|.......................|.......................|.......................|.......................|
.......................|.......................|.......................|.......................|.......................|.......................|.......................|.......................|.......................|.......................|
.......................|.......................|.......................|.......................|.......................|.......................|.......................|.......................|.......................|.......................|
.......................|.......................|.......................|.......................|.......................|.......................|.......................|.......................|C-0....................|.......................|
.......................|.......................|.......................|.......................|.......................|.......................|.......................|.......................|.......................|.......................|
.......................|.......................|.......................|.......................|.......................|.......................|.......................|.......................|.......................|.......................|
.......................|.......................|.......................|.......................|.......................|.......................|.......................|.......................|.......................|.......................|
.......................|.......................|.......................|.......................|.......................|.......................|.......................|.......................|.......................|.......................|
.......................|.......................|.......................|.......................|.......................|.......................|.......................|.......................|.......................|.......................|
.......................|.......................|.......................|.......................|.......................|.......................|.......................|.......................|.......................|.......................|
.......................|.......................|.......................|.......................|.......................|.......................|.......................|.......................|.......................|.......................|
.......................|.......................|.......................|.......................|.......................|.......................|.......................|.......................|.......................|.......................|
.......................|.......................|.......0452............|.......................|.......................|.......................|.......................|.......................|.......................|.......................|
.......................|.......................|.......................|.......................|.......................|.......................|.......................|.......................|.......................|.......................|
.......................|.......................|.......................|.......................|.......................|.......................|.......................|.......................|.......................|.......................|
.......................|.......................|.......................|.......................|.......................|.......................|.......................|.......................|.......................|.......................|
.......................|.......................|.......................|.......................|.......................|.......................|.......................|.......................|.......................|.......................|
.......................|.......................|.......................|.......................|.......................|.......................|.......................|.......................|.......................|.......................|
.......................|.......................|.......................|.......................|.......................|.......................|.......................|.......................|.......................|.......................|
.......................|.......................|.......................|.......................|.......................|.......................|.......................|.......................|.......................|.......................|
.......................|.......................|.......................|.......................|.......................|.......................|.......................|.......................|.......................|.......................|
.......................|.......................|.......................|.......................|.......................|.......................|.......................|.......................|.......................|.......................|
.......................|.......................|.......................|.......................|.......................|.......................|.......................|.......................|.......................|.......................|
.......................|.......................|.......................|.......................|.......................|.......................|.......................|.......................|.......................|.......................|
.......................|.......................|.......................|.......................|.......................|.......................|.......................|.......................|.......................|.......................|
.......................|.......................|.......................|.......................|.......................|.......................|.......................|.......................|.......................|.......................|
.......................|.......................|.......................|.......................|.......................|.......................|.......................|.......................|.......................|.......................|
.......................|.......................|.......................|.......................|.......................|.......................|.......................|.......................|.......................|.......................|
.......................|.......................|.......................|.......................|.......................|.......................|.......................|.......................|.......................|.......................|
.......................|.......................|.......................|.......................|.......................|.......................|.......................|.......................|.......................|.......................|
.......................|.......................|.......................|.......................|.......................|.......................|.......................|.......................|.......................|.......................|
.......................|.......................|.......................|.......................|.......................|.......................|.......................|.......................|.......................|.......................|
.......................|.......................|.......................|.......................|.......................|.......................|.......................|.......................|.......................|.......................|
.......................|.......................|.......................|.......................|.......................|.......................|.......................|.......................|.......................|.......................|
.......................|.......................|.......................|.......................|.......................|.......................|.......................|.......................|.......................|.......................|
.......................|.......................|C-0....................|.......................|.......................|.......................|C-0....................|C-0....................|.......................|.......................|
.......................|.......................|D#3116B0400............|.......................|.......................|.......................|G-2....0400............|D#2....0400............|.......................|.......................|
.......................|.......................|.......................|.......................|.......................|.......................|.......................|.......................|.......................|.......................|
.......................|.......................|.......................|.......................|.......................|.......................|.......................|.......................|.......................|.......................|
.......................|.......................|.......................|.......................|.......................|.......................|.......................|.......................|.......................|.......................|
.......................|.......................|.......................|.......................|.......................|.......................|.......................|.......................|.......................|.......................|
.......................|.......................|.......................|.......................|.......................|.......................|.......................|.......................|.......................|.......................|
D-3....................|.......................|.......................|.......................|.......................|C-4CC..................|.......................|.......................|.......................|.......................|
.......................|.......................|.......................|.......................|.......................|.......................|.......................|.......................|.......................|.......................|
.......................|.......................|.......................|.......................|.......................|.......................|.......................|.......................|.......................|.......................|
.......................|.......................|.......................|.......................|.......................|.......................|.......................|.......................|.......................|.......................|
.......................|.......................|.......................|.......................|.......................|.......................|.......................|.......................|.......................|.......................|
C-0....................|.......................|.......................|.......................|.......................|.......................|.......................|.......................|.......................|.......................|
D-3....................|.......................|.......................|.......................|.......................|C-4CC..................|.......................|.......................|.......................|.......................|
.......................|.......................|.......................|.......................|.......................|.......................|.......................|.......................|.......................|.......................|
.......................|.......................|.......................|.......................|.......................|.......................|.......................|.......................|.......................|.......................|
.......................|.......................|.......................|.......................|.......................|.......................|.......................|.......................|C-0....C034............|.......................|
.......................|.......................|.......................|.......................|.......................|.......................|.......................|.......................|.......................|.......................|
C-0....................|.......................|.......................|.......................|.......................|.......................|.......................|.......................|.......................|.......................|
D-3....................|.......................|.......................|.......................|.......................|C-4CC..................|.......................|.......................|.......................|.......................|
.......................|.......................|.......................|.......................|.......................|.......................|.......................|.......................|.......................|.......................|
.......................|.......................|.......................|.......................|.......................|.......................|.......................|.......................|.......................|.......................|
.......................|.......................|.......................|.......................|.......................|.......................|.......................|.......................|C-0....................|.......................|
.......................|.......................|.......................|.......................|.......................|.......................|.......................|.......................|.......................|.......................|
C-0....................|.......................|.......................|.......................|.......................|.......................|.......................|.......................|.......................|.......................|
D-3....................|.......................|.......0452............|.......................|.......................|C-4CC..................|.......0452............|.......0452............|C-0....................|.......................|
.......................|.......................|.......................|.......................|.......................|.......................|.......................|.......................|.......................|.......................|
.......................|.......................|.......................|.......................|.......................|.......................|.......................|.......................|.......................|.......................|
.......................|.......................|.......................|.......................|.......................|.......................|.......................|.......................|.......................|.......................|
.......................|.......................|.......................|.......................|.......................|.......................|.......................|.......................|.......................|.......................|
.......................|.......................|.......................|.......................|.......................|.......................|.......................|.......................|.......................|.......................|
.......................|.......................|.......................|.......................|.......................|.......................|.......................|.......................|.......................|.......................|
.......................|.......................|.......................|.......................|.......................|.......................|.......................|.......................|.......................|.......................|
.......................|.......................|.......................|.......................|.......................|.......................|.......................|.......................|.......................|.......................|
.......................|.......................|.......................|.......................|.......................|.......................|.......................|.......................|.......................|.......................|
.......................|.......................|.......................|.......................|.......................|.......................|.......................|.......................|.......................|.......................|
.......................|.......................|.......................|.......................|.......................|.......................|.......................|.......................|.......................|.......................|
.......................|.......................|.......................|.......................|.......................|.......................|.......................|.......................|.......................|.......................|
.......................|.......................|.......................|.......................|.......................|.......................|.......................|.......................|.......................|.......................|
.......................|.......................|.......................|.......................|.......................|.......................|.......................|.......................|.......................|.......................|
.......................|.......................|.......................|.......................|.......................|.......................|.......................|.......................|.......................|.......................|
.......................|.......................|.......................|.......................|.......................|.......................|.......................|.......................|.......................|.......................|
.......................|.......................|.......................|.......................|.......................|.......................|.......................|.......................|.......................|.......................|
.......................|.......................|.......................|.......................|.......................|.......................|.......................|.......................|.......................|.......................|
.......................|.......................|.......................|.......................|.......................|.......................|.......................|.......................|.......................|.......................|
.......................|.......................|.......................|.......................|.......................|.......................|.......................|.......................|.......................|.......................|
.......................|.......................|.......................|.......................|.......................|.......................|.......................|.......................|.......................|.......................|
.......................|.......................|.......................|.......................|.......................|.......................|.......................|.......................|.......................|.......................|
C-0....................|.......................|C-0....................|.......................|.......................|.......................|.......................|.......................|.......................|.......................|
.......................|.......................|D-410740400............|.......................|.......................|.......................|.......................|.......................|.......................|.......................|
.......................|.......................|.......................|.......................|.......................|.......................|.......................|.......................|.......................|.......................|
.......................|.......................|.......................|.......................|.......................|.......................|.......................|.......................|.......................|.......................|
.......................|.......................|.......................|.......................|.......................|.......................|.......................|.......................|.......................|.......................|
.......................|.......................|.......................|.......................|.......................|.......................|.......................|.......................|.......................|.......................|
.......................|.......................|.......................|.......................|.......................|.......................|.......................|.......................|.......................|.......................|
.......................|.......................|.......................|.......................|.......................|.......................|.......................|.......................|.......................|.......................|
.......................|.......................|.......................|.......................|.......................|.......................|.......................|.......................|.......................|.......................|
.......................|.......................|.......................|.......................|.......................|.......................|.......................|.......................|.......................|.......................|
.......................|.......................|.......................|.......................|.......................|.......................|.......................|.......................|.......................|.......................|
.......................|.......................|.......................|.......................|.......................|.......................|.......................|.......................|.......................|.......................|
.......................|.......................|.......................|.......................|.......................|.......................|.......................|.......................|.......................|.......................|
.......................|.......................|.......................|.......................|.......................|.......................|.......................|.......................|.......................|.......................|
.......................|.......................|.......................|.......................|.......................|.......................|.......................|.......................|.......................|.......................|
.......................|.......................|.......................|.......................|.......................|.......................|.......................|.......................|.......................|.......................|
.......................|.......................|.......................|.......................|.......................|.......................|.......................|.......................|.......................|.......................|
.......................|.......................|.......................|.......................|.......................|.......................|.......................|.......................|.......................|.......................|
.......................|.......................|.......................|.......................|.......................|.......................|.......................|.......................|.......................|.......................|
.......................|.......................|.......................|.......................|.......................|.......................|.......................|.......................|.......................|.......................|
.......................|.......................|.......................|.......................|.......................|.......................|.......................|.......................|.......................|.......................|
.......................|.......................|.......................|.......................|.......................|.......................|.......................|.......................|.......................|.......................|
.......................|.......................|.......................|.......................|.......................|.......................|.......................|.......................|.......................|.......................|
.......................|.......................|.......................|.......................|.......................|.......................|.......................|.......................|.......................|.......................|
.......................|C-0....................|.......................|.......................|.......................|.......................|.......................|.......................|.......................|.......................|
.......................|.......................|.......0452............|.......................|.......................|.......................|.......................|.......................|.......................|.......................|
.......................|.......................|.......................|.......................|.......................|.......................|.......................|.......................|.......................|.......................|
.......................|.......................|.......................|.......................|.......................|.......................|.......................|.......................|.......................|.......................|
.......................|.......................|.......................|.......................|.......................|.......................|.......................|.......................|.......................|.......................|
.......................|.......................|.......................|.......................|.......................|.......................|.......................|.......................|.......................|.......................|
.......................|.......................|.......................|C-0....................|.......................|.......................|.......................|.......................|.......................|.......................|
.......................|.......................|.......................|.......................|.......................|.......................|.......................|.......................|.......................|.......................|
.......................|.......................|.......................|.......................|.......................|.......................|.......................|.......................|.......................|.......................|
.......................|.......................|.......................|.......................|.......................|.......................|.......................|.......................|.......................|.......................|
.......................|.......................|.......................|.......................|.......................|.......................|.......................|.......................|.......................|.......................|
.......................|.......................|.......................|.......................|.......................|.......................|.......................|.......................|.......................|.......................|
.......................|.......................|.......................|.......................|C-0....................|.......................|.......................|.......................|.......................|.......................|
.......................|D-4....0400............|.......................|.......................|.......................|.......................|.......................|.......................|.......................|.......................|
.......................|.......................|.......................|.......................|.......................|.......................|.......................|.......................|.......................|.......................|
.......................|.......................|.......................|.......................|.......................|.......................|.......................|.......................|.......................|.......................|
.......................|.......................|.......................|.......................|.......................|.......................|.......................|.......................|.......................|.......................|
.......................|.......................|.......................|.......................|.......................|.......................|.......................|.......................|.......................|.......................|
.......................|C-0....................|.......................|.......................|.......................|.......................|.......................|.......................|.......................|.......................|
.......................|E-4....................|.......................|D-4....0400............|.......................|.......................|.......................|.......................|.......................|.......................|
.......................|.......................|.......................|.......................|.......................|.......................|.......................|.......................|.......................|.......................|
.......................|.......................|.......................|.......................|.......................|.......................|.......................|.......................|.......................|.......................|
.......................|.......................|.......................|.......................|.......................|.......................|.......................|.......................|.......................|.......................|
.......................|.......................|.......................|.......................|.......................|.......................|.......................|.......................|.......................|.......................|
.......................|C-0....................|C-0....................|C-0....................|.......................|.......................|C-0....................|C-0....................|.......................|.......................|
D-3....................|F-4....................|A-3....0400............|E-4....................|D-4....0400............|.......................|F-2....0400............|D-2....0400............|.......................|.......................|
.......................|.......................|.......................|.......................|.......................|.......................|.......................|.......................|.......................|.......................|
.......................|.......................|.......................|.......................|.......................|.......................|.......................|.......................|.......................|.......................|
.......................|.......................|.......................|.......................|.......................|.......................|.......................|.......................|.......................|.......................|
.......................|.......................|.......................|.......................|.......................|.......................|.......................|.......................|.......................|.......................|
.......................|.......................|.......................|C-0....................|C-0....................|.......................|.......................|.......................|.......................|.......................|
.......................|.......................|.......................|F-4....................|E-4....................|.......................|.......................|.......................|.......................|.......................|
.......................|.......................|.......................|.......................|.......................|.......................|.......................|.......................|.......................|.......................|
.......................|.......................|.......................|.......................|.......................|.......................|.......................|.......................|.......................|.......................|
.......................|.......................|.......................|.......................|.......................|.......................|.......................|.......................|.......................|.......................|
.......................|.......................|.......................|.......................|.......................|.......................|.......................|.......................|.......................|.......................|
.......................|.......................|.......................|.......................|C-0....................|.......................|.......................|.......................|.......................|.......................|
.......................|.......................|.......................|.......................|F-4....................|.......................|.......................|.......................|.......................|.......................|
.......................|.......................|.......................|.......................|.......................|.......................|.......................|.......................|.......................|.......................|
.......................|.......................|.......................|.......................|.......................|.......................|.......................|.......................|.......................|.......................|
.......................|.......................|.......................|.......................|.......................|.......................|.......................|.......................|.......................|.......................|
.......................|.......................|.......................|.......................|.......................|.......................|.......................|.......................|.......................|.......................|
.......................|.......................|.......................|.......................|.......................|.......................|.......................|.......................|.......................|.......................|
.......................|.......................|.......................|.......................|.......................|.......................|.......................|.......................|.......................|.......................|
.......................|.......................|.......................|.......................|.......................|.......................|.......................|.......................|.......................|.......................|
.......................|.......................|.......................|.......................|.......................|.......................|.......................|.......................|.......................|.......................|
.......................|.......................|.......................|.......................|.......................|.......................|.......................|.......................|.......................|.......................|
.......................|.......................|.......................|.......................|.......................|.......................|.......................|.......................|.......................|.......................|
.......................|C-0....................|.......................|.......................|.......................|.......................|.......................|.......................|.......................|.......................|
.......0452............|G-4....................|.......0452............|.......................|.......................|.......................|.......0452............|.......0452............|C-0....................|.......................|
.......................|.......................|.......................|.......................|.......................|.......................|.......................|.......................|.......................|.......................|
.......................|.......................|.......................|.......................|.......................|.......................|.......................|.......................|.......................|.......................|
.......................|.......................|.......................|.......................|.......................|.......................|.......................|.......................|.......................|.......................|
.......................|.......................|.......................|.......................|.......................|.......................|.......................|.......................|.......................|.......................|
.......................|.......................|.......................|C-0....................|.......................|.......................|.......................|.......................|.......................|.......................|
.......................|.......................|.......................|G-4....................|.......................|.......................|.......................|.......................|.......................|.......................|
.......................|.......................|.......................|.......................|.......................|.......................|.......................|.......................|.......................|.......................|
.......................|.......................|.......................|.......................|.......................|.......................|.......................|.......................|.......................|.......................|
.......................|.......................|.......................|.......................|.......................|.......................|.......................|.......................|.......................|.......................|
.......................|.......................|.......................|.......................|.......................|.......................|.......................|.......................|.......................|.......................|
.......................|.......................|.......................|.......................|C-0....................|.......................|.......................|.......................|.......................|.......................|
.......................|.......................|.......................|.......................|G-4....................|.......................|.......................|.......................|.......................|.......................|
.......................|.......................|.......................|.......................|.......................|.......................|.......................|.......................|.......................|.......................|
.......................|.......................|.......................|.......................|.......................|.......................|.......................|.......................|.......................|.......................|
.......................|.......................|.......................|.......................|.......................|.......................|.......................|.......................|.......................|.......................|
.......................|.......................|.......................|.......................|.......................|.......................|.......................|.......................|.......................|.......................|
.......................|.......................|.......................|.......................|.......................|.......................|.......................|.......................|.......................|.......................|
.......................|.......................|.......................|.......................|.......................|.......................|.......................|.......................|.......................|.......................|
.......................|.......................|.......................|.......................|.......................|.......................|.......................|.......................|.......................|.......................|
.......................|.......................|.......................|.......................|.......................|.......................|.......................|.......................|.......................|.......................|
.......................|.......................|.......................|.......................|.......................|.......................|.......................|.......................|.......................|.......................|
.......................|.......................|.......................|.......................|.......................|.......................|.......................|.......................|.......................|.......................|
C-0....................|C-0....................|C-0....................|.......................|.......................|.......................|.......................|.......................|.......................|.......................|
C-3....0400............|A-4....................|A-3....0400............|.......................|.......................|.......................|.......................|.......................|.......................|.......................|
.......................|.......................|.......................|.......................|.......................|.......................|.......................|.......................|.......................|.......................|
.......................|.......................|.......................|.......................|.......................|.......................|.......................|.......................|.......................|.......................|
.......................|.......................|.......................|.......................|.......................|.......................|.......................|.......................|.......................|.......................|
.......................|.......................|.......................|.......................|.......................|.......................|.......................|.......................|.......................|.......................|
.......................|.......................|.......................|C-0....................|.......................|.......................|.......................|.......................|.......................|.......................|
.......................|.......................|.......................|A-4....................|.......................|.......................|.......................|.......................|.......................|.......................|
.......................|.......................|.......................|.......................|.......................|.......................|.......................|.......................|.......................|.......................|
.......................|.......................|.......................|.......................|.......................|.......................|.......................|.......................|.......................|.......................|
.......................|.......................|.......................|.......................|.......................|.......................|.......................|.......................|.......................|.......................|
.......................|.......................|.......................|.......................|.......................|.......................|.......................|.......................|.......................|.......................|
.......................|C-0....................|.......................|.......................|C-0....................|.......................|.......................|.......................|.......................|.......................|
.......................|F-4....................|.......................|.......................|A-4....................|.......................|.......................|.......................|.......................|.......................|
.......................|.......................|.......................|.......................|.......................|.......................|.......................|.......................|.......................|.......................|
.......................|.......................|.......................|.......................|.......................|.......................|.......................|.......................|.......................|.......................|
.......................|.......................|.......................|.......................|.......................|.......................|.......................|.......................|.......................|.......................|
.......................|.......................|.......................|.......................|.......................|.......................|.......................|.......................|.......................|.......................|
.......................|.......................|.......................|C-0....................|.......................|.......................|.......................|.......................|.......................|.......................|
.......................|.......................|.......................|F-4....................|.......................|.......................|.......................|.......................|.......................|.......................|
.......................|.......................|.......................|.......................|.......................|.......................|.......................|.......................|.......................|.......................|
.......................|.......................|.......................|.......................|.......................|.......................|.......................|.......................|.......................|.......................|
.......................|.......................|.......................|.......................|.......................|.......................|.......................|.......................|.......................|.......................|
.......................|.......................|.......................|.......................|.......................|.......................|.......................|.......................|.......................|.......................|
.......................|C-0....................|.......................|.......................|C-0....................|.......................|.......................|.......................|.......................|.......................|
.......0452............|A-4....................|.......0452............|.......................|F-4....................|.......................|.......................|.......................|.......................|.......................|
.......................|.......................|.......................|.......................|.......................|.......................|.......................|.......................|.......................|.......................|
.......................|.......................|.......................|.......................|.......................|.......................|.......................|.......................|.......................|.......................|
.......................|.......................|.......................|.......................|.......................|.......................|.......................|.......................|.......................|.......................|
.......................|.......................|.......................|.......................|.......................|.......................|.......................|.......................|.......................|.......................|
.......................|.......................|.......................|C-0....................|.......................|.......................|.......................|.......................|.......................|.......................|
.......................|.......................|.......................|A-4....................|.......................|.......................|.......................|.......................|.......................|.......................|
.......................|.......................|.......................|.......................|.......................|.......................|.......................|.......................|.......................|.......................|
.......................|.......................|.......................|.......................|.......................|.......................|.......................|.......................|.......................|.......................|
.......................|.......................|.......................|.......................|.......................|.......................|.......................|.......................|.......................|.......................|
.......................|.......................|.......................|.......................|.......................|.......................|.......................|.......................|.......................|.......................|
.......................|C-0....................|.......................|.......................|C-0....................|.......................|.......................|.......................|.......................|.......................|
.......................|E-5....................|.......................|.......................|A-4....................|.......................|.......................|.......................|.......................|.......................|
.......................|.......................|.......................|.......................|.......................|.......................|.......................|.......................|.......................|.......................|
.......................|.......................|.......................|.......................|.......................|.......................|.......................|.......................|.......................|.......................|
.......................|.......................|.......................|.......................|.......................|.......................|.......................|.......................|.......................|.......................|
.......................|.......................|.......................|.......................|.......................|.......................|.......................|.......................|.......................|.......................|
.......................|.......................|.......................|C-0....................|.......................|.......................|.......................|.......................|.......................|.......................|
.......................|.......................|.......................|E-5....................|.......................|.......................|.......................|.......................|.......................|.......................|
.......................|.......................|.......................|.......................|.......................|.......................|.......................|.......................|.......................|.......................|
.......................|.......................|.......................|.......................|.......................|.......................|.......................|.......................|.......................|.......................|
.......................|.......................|.......................|.......................|.......................|.......................|.......................|.......................|.......................|.......................|
.......................|.......................|.......................|.......................|.......................|.......................|.......................|.......................|.......................|.......................|
C-0....................|.......................|C-0....................|.......................|C-0....................|.......................|C-0....................|C-0....................|.......................|.......................|
A#2....0400............|.......................|A-3....0400............|.......................|E-5....................|.......................|F-2....0400............|D-2....0400............|.......................|.......................|
.......................|.......................|.......................|.......................|.......................|.......................|.......................|.......................|.......................|.......................|
.......................|.......................|.......................|.......................|.......................|.......................|.......................|.......................|.......................|.......................|
.......................|.......................|.......................|.......................|.......................|.......................|.......................|.......................|.......................|.......................|
.......................|.......................|.......................|.......................|.......................|.......................|.......................|.......................|.......................|.......................|
.......................|.......................|.......................|.......................|.......................|.......................|.......................|.......................|.......................|.......................|
.......................|.......................|.......................|.......................|.......................|.......................|.......................|.......................|.......................|.......................|
.......................|.......................|.......................|.......................|.......................|.......................|.......................|.......................|.......................|.......................|
.......................|.......................|.......................|.......................|.......................|.......................|.......................|.......................|.......................|.......................|
.......................|.......................|.......................|.......................|.......................|.......................|.......................|.......................|.......................|.......................|
.......................|.......................|.......................|.......................|.......................|.......................|.......................|.......................|.......................|.......................|
.......................|C-0....................|.......................|.......................|.......................|.......................|.......................|.......................|.......................|.......................|
.......................|F-5....................|.......................|.......................|.......................|.......................|.......................|.......................|.......................|.......................|
.......................|.......................|.......................|.......................|.......................|.......................|.......................|.......................|.......................|.......................|
.......................|.......................|.......................|.......................|.......................|.......................|.......................|.......................|.......................|.......................|
.......................|.......................|.......................|.......................|.......................|.......................|.......................|.......................|.......................|.......................|
.......................|.......................|.......................|.......................|.......................|.......................|.......................|.......................|.......................|.......................|
.......................|.......................|.......................|C-0....................|.......................|.......................|.......................|.......................|.......................|.......................|
.......................|.......................|.......................|F-5....................|.......................|.......................|.......................|.......................|.......................|.......................|
.......................|.......................|.......................|.......................|.......................|.......................|.......................|.......................|.......................|.......................|
org.tildearrow.furnace - Pattern Data (219)
0
.......................|.......................|.......................|.......................|.......................|.......................|.......................|.......................|.......................|.......................|
.......................|.......................|.......................|.......................|.......................|.......................|.......................|.......................|.......................|.......................|
.......................|.......................|.......................|.......................|.......................|.......................|.......................|.......................|.......................|.......................|
.......................|C-0....................|.......................|.......................|C-0....................|.......................|.......................|.......................|.......................|.......................|
.......0452............|E-5....................|.......0452............|.......................|F-5....................|.......................|.......0452............|.......0452............|C-0....................|.......................|
.......................|.......................|.......................|.......................|.......................|.......................|.......................|.......................|.......................|.......................|
.......................|.......................|.......................|.......................|.......................|.......................|.......................|.......................|.......................|.......................|
.......................|.......................|.......................|.......................|.......................|.......................|.......................|.......................|.......................|.......................|
.......................|.......................|.......................|.......................|.......................|.......................|.......................|.......................|.......................|.......................|
.......................|.......................|.......................|C-0....................|.......................|.......................|.......................|.......................|.......................|.......................|
.......................|.......................|.......................|E-5....................|.......................|.......................|.......................|.......................|.......................|.......................|
.......................|.......................|.......................|.......................|.......................|.......................|.......................|.......................|.......................|.......................|
.......................|.......................|.......................|.......................|.......................|.......................|.......................|.......................|.......................|.......................|
.......................|.......................|.......................|.......................|.......................|.......................|.......................|.......................|.......................|.......................|
.......................|.......................|.......................|.......................|.......................|.......................|.......................|.......................|.......................|.......................|
.......................|C-0....................|.......................|.......................|C-0....................|.......................|.......................|.......................|.......................|.......................|
.......................|D-5....................|.......................|.......................|E-5....................|.......................|.......................|.......................|.......................|.......................|
.......................|.......................|.......................|.......................|.......................|.......................|.......................|.......................|.......................|.......................|
.......................|.......................|.......................|.......................|.......................|.......................|.......................|.......................|.......................|.......................|
.......................|.......................|.......................|.......................|.......................|.......................|.......................|.......................|.......................|.......................|
.......................|.......................|.......................|.......................|.......................|.......................|.......................|.......................|.......................|.......................|
.......................|.......................|.......................|C-0....................|.......................|.......................|.......................|.......................|.......................|.......................|
.......................|.......................|.......................|D-5....................|.......................|.......................|.......................|.......................|.......................|.......................|
.......................|.......................|.......................|.......................|.......................|.......................|.......................|.......................|.......................|.......................|
.......................|.......................|.......................|.......................|.......................|.......................|.......................|.......................|.......................|.......................|
.......................|.......................|.......................|.......................|.......................|.......................|.......................|.......................|.......................|.......................|
.......................|.......................|.......................|.......................|.......................|.......................|.......................|.......................|.......................|.......................|
C-0....................|C-0....................|C-0....................|.......................|C-0....................|.......................|C-0....................|C-0....................|.......................|.......................|
A-2....0400............|C-5....................|G-3....0400............|.......................|D-5....................|.......................|E-2....0400............|C-2....0400............|.......................|.......................|
.......................|.......................|.......................|.......................|.......................|.......................|.......................|.......................|.......................|.......................|
.......................|.......................|.......................|.......................|.......................|.......................|.......................|.......................|.......................|.......................|
.......................|.......................|.......................|.......................|.......................|.......................|.......................|.......................|.......................|.......................|
.......................|.......................|.......................|.......................|.......................|.......................|.......................|.......................|.......................|.......................|
.......................|.......................|.......................|C-0....................|.......................|.......................|.......................|.......................|.......................|.......................|
.......................|.......................|.......................|C-5....................|.......................|.......................|.......................|.......................|.......................|.......................|
.......................|.......................|.......................|.......................|.......................|.......................|.......................|.......................|.......................|.......................|
.......................|.......................|.......................|.......................|.......................|.......................|.......................|.......................|.......................|.......................|
.......................|.......................|.......................|.......................|.......................|.......................|.......................|.......................|.......................|.......................|
.......................|.......................|.......................|.......................|.......................|.......................|.......................|.......................|.......................|.......................|
.......................|C-0....................|.......................|.......................|C-0....................|.......................|.......................|.......................|.......................|.......................|
.......................|A-4....................|.......................|.......................|C-5....................|.......................|.......................|.......................|.......................|.......................|
.......................|.......................|.......................|.......................|.......................|.......................|.......................|.......................|.......................|.......................|
.......................|.......................|.......................|.......................|.......................|.......................|.......................|.......................|.......................|.......................|
.......................|.......................|.......................|.......................|.......................|.......................|.......................|.......................|.......................|.......................|
.......................|.......................|.......................|.......................|.......................|.......................|.......................|.......................|.......................|.......................|
.......................|.......................|.......................|C-0....................|.......................|.......................|.......................|.......................|.......................|.......................|
.......................|.......................|.......................|A-4....................|.......................|.......................|.......................|.......................|.......................|.......................|
.......................|.......................|.......................|.......................|.......................|.......................|.......................|.......................|.......................|.......................|
.......................|.......................|.......................|.......................|.......................|.......................|.......................|.......................|.......................|.......................|
.......................|.......................|.......................|.......................|.......................|.......................|.......................|.......................|.......................|.......................|
.......................|.......................|.......................|.......................|.......................|.......................|.......................|.......................|.......................|.......................|
.......................|.......................|.......................|.......................|C-0....................|.......................|C-0....................|C-0....................|.......................|.......................|
.......0452............|.......................|.......0452............|.......................|A-4....................|.......................|G-2....................|E-2....................|.......................|.......................|
.......................|.......................|.......................|.......................|.......................|.......................|.......................|.......................|.......................|.......................|
.......................|.......................|.......................|.......................|.......................|.......................|.......................|.......................|.......................|.......................|
.......................|.......................|.......................|.......................|.......................|.......................|.......................|.......................|.......................|.......................|
.......................|.......................|.......................|.......................|.......................|.......................|.......................|.......................|.......................|.......................|
.......................|.......................|.......................|.......................|.......................|.......................|.......................|.......................|.......................|.......................|
.......................|.......................|.......................|.......................|.......................|.......................|.......................|.......................|.......................|.......................|
.......................|.......................|.......................|.......................|.......................|.......................|.......................|.......................|.......................|.......................|
.......................|.......................|.......................|.......................|.......................|.......................|.......................|.......................|.......................|.......................|
.......................|.......................|.......................|.......................|.......................|.......................|.......................|.......................|.......................|.......................|
.......................|.......................|.......................|.......................|.......................|.......................|.......................|.......................|.......................|.......................|
.......................|C-0....................|.......................|.......................|.......................|.......................|.......................|.......................|.......................|.......................|
.......................|D-5....................|.......................|.......................|.......................|.......................|.......................|.......................|.......................|.......................|
.......................|.......................|.......................|.......................|.......................|.......................|.......................|.......................|.......................|.......................|
.......................|.......................|.......................|.......................|.......................|.......................|.......................|.......................|.......................|.......................|
.......................|.......................|.......................|.......................|.......................|.......................|.......................|.......................|.......................|.......................|
.......................|.......................|.......................|.......................|.......................|.......................|.......................|.......................|.......................|.......................|
.......................|.......................|.......................|C-0....................|.......................|.......................|.......................|.......................|.......................|.......................|
.......................|.......................|.......................|D-5....................|.......................|.......................|.......................|.......................|.......................|.......................|
.......................|.......................|.......................|.......................|.......................|.......................|.......................|.......................|.......................|.......................|
.......................|.......................|.......................|.......................|.......................|.......................|.......................|.......................|.......................|.......................|
.......................|.......................|.......................|.......................|.......................|.......................|.......................|.......................|.......................|.......................|
.......................|.......................|.......................|.......................|.......................|.......................|.......................|.......................|.......................|.......................|
C-0....................|.......................|C-0....................|.......................|C-0....................|.......................|C-0....................|C-0....................|.......................|.......................|
A#2....0400............|.......................|A-4136F0400............|.......................|D-5....................|.......................|F-2....................|D-2....................|.......................|.......................|
.......................|.......................|.......................|.......................|.......................|.......................|.......................|.......................|.......................|.......................|
.......................|.......................|.......................|.......................|.......................|.......................|.......................|.......................|.......................|.......................|
.......................|.......................|.......................|.......................|.......................|.......................|.......................|.......................|.......................|.......................|
.......................|.......................|.......................|.......................|.......................|.......................|.......................|.......................|.......................|.......................|
.......................|.......................|C-0....................|C-0....................|.......................|.......................|.......................|.......................|.......................|.......................|
.......................|.......................|A#4....................|.......................|.......................|.......................|.......................|.......................|.......................|.......................|
.......................|.......................|.......................|.......................|.......................|.......................|.......................|.......................|.......................|.......................|
.......................|.......................|.......................|.......................|.......................|.......................|.......................|.......................|.......................|.......................|
.......................|.......................|.......................|.......................|.......................|.......................|.......................|.......................|.......................|.......................|
.......................|.......................|.......................|.......................|.......................|.......................|.......................|.......................|.......................|.......................|
.......................|.......................|C-0....................|.......................|.......................|.......................|.......................|.......................|.......................|.......................|
.......................|.......0452............|A-4....................|A-413635305............|.......................|.......................|.......................|.......................|.......................|.......................|
.......................|.......................|.......................|.......................|.......................|.......................|.......................|.......................|.......................|.......................|
.......................|.......................|.......................|.......................|.......................|.......................|.......................|.......................|.......................|.......................|
.......................|.......................|.......................|.......................|.......................|.......................|.......................|.......................|.......................|.......................|
.......................|.......................|.......................|.......................|.......................|.......................|.......................|.......................|.......................|.......................|
.......................|.......................|C-0....................|C-0....................|.......................|.......................|.......................|.......................|.......................|.......................|
.......................|.......................|G#4....................|A#4....................|.......................|.......................|.......................|.......................|.......................|.......................|
.......................|.......................|.......................|.......................|.......................|.......................|.......................|.......................|.......................|.......................|
.......................|.......................|.......................|.......................|.......................|.......................|.......................|.......................|.......................|.......................|
.......................|.......................|.......................|.......................|.......................|.......................|.......................|.......................|.......................|.......................|
.......................|.......................|.......................|.......................|.......................|.......................|.......................|.......................|.......................|.......................|
.......................|.......................|C-0....................|C-0....................|.......................|.......................|.......................|.......................|.......................|.......................|
.......0452............|.......................|A-4....................|A-4....................|.......0452............|.......................|.......0452............|.......0452............|C-0....................|.......................|
.......................|.......................|.......................|.......................|.......................|.......................|.......................|.......................|.......................|.......................|
.......................|.......................|.......................|.......................|.......................|.......................|.......................|.......................|.......................|.......................|
.......................|.......................|.......................|.......................|.......................|.......................|.......................|.......................|.......................|.......................|
.......................|.......................|.......................|.......................|.......................|.......................|.......................|.......................|.......................|.......................|
.......................|.......................|.......................|C-0....................|.......................|.......................|.......................|.......................|.......................|.......................|
.......................|.......................|.......................|G#4....................|.......................|.......................|.......................|.......................|.......................|.......................|
.......................|.......................|.......................|.......................|.......................|.......................|.......................|.......................|.......................|.......................|
.......................|.......................|.......................|.......................|.......................|.......................|.......................|.......................|.......................|.......................|
.......................|.......................|.......................|.......................|.......................|.......................|.......................|.......................|.......................|.......................|
.......................|.......................|.......................|.......................|.......................|.......................|.......................|.......................|.......................|.......................|
.......................|.......................|C-0....................|C-0....................|.......................|.......................|.......................|.......................|.......................|.......................|
.......................|.......................|C-0....................|A-4....................|.......................|.......................|.......................|.......................|.......................|.......................|
.......................|.......................|.......................|.......................|.......................|.......................|.......................|.......................|.......................|.......................|
.......................|.......................|.......................|.......................|.......................|.......................|.......................|.......................|.......................|.......................|
.......................|.......................|.......................|.......................|.......................|.......................|.......................|.......................|.......................|.......................|
.......................|.......................|.......................|.......................|.......................|.......................|.......................|.......................|.......................|.......................|
.......................|.......................|.......................|.......................|.......................|.......................|.......................|.......................|.......................|.......................|
.......................|.......................|.......................|.......................|.......................|.......................|.......................|.......................|.......................|.......................|
.......................|.......................|.......................|.......................|.......................|.......................|.......................|.......................|.......................|.......................|
.......................|.......................|.......................|.......................|.......................|.......................|.......................|.......................|.......................|.......................|
.......................|.......................|.......................|.......................|.......................|.......................|.......................|.......................|.......................|.......................|
.......................|.......................|.......................|.......................|.......................|.......................|.......................|.......................|.......................|.......................|
.......................|.......................|.......................|C-0....................|.......................|.......................|.......................|.......................|.......................|.......................|
.......................|.......................|.......................|C-0....................|.......................|.......................|.......................|.......................|.......................|.......................|
.......................|.......................|.......................|.......................|.......................|.......................|.......................|.......................|.......................|.......................|
.......................|.......................|.......................|.......................|.......................|.......................|.......................|.......................|.......................|.......................|
.......................|.......................|.......................|.......................|.......................|.......................|.......................|.......................|.......................|.......................|
.......................|.......................|.......................|.......................|.......................|.......................|.......................|.......................|.......................|.......................|
.......................|.......................|.......................|.......................|.......................|.......................|.......................|.......................|.......................|.......................|
.......................|.......................|.......................|.......................|.......................|.......................|.......................|.......................|.......................|.......................|
.......................|.......................|.......................|.......................|.......................|.......................|.......................|.......................|.......................|.......................|
.......................|.......................|.......................|.......................|.......................|.......................|.......................|.......................|.......................|.......................|
.......................|.......................|.......................|.......................|.......................|.......................|.......................|.......................|.......................|.......................|
.......................|.......................|.......................|.......................|.......................|.......................|.......................|.......................|.......................|.......................|
.......................|.......................|C-0....................|.......................|.......................|.......................|.......................|.......................|.......................|.......................|
.......................|.......................|G-5....................|.......................|.......................|.......................|.......................|.......................|.......................|.......................|
.......................|.......................|.......................|.......................|.......................|.......................|.......................|.......................|.......................|.......................|
.......................|.......................|.......................|.......................|.......................|.......................|.......................|.......................|.......................|.......................|
.......................|.......................|.......................|.......................|.......................|.......................|.......................|.......................|.......................|.......................|
.......................|.......................|.......................|.......................|.......................|.......................|.......................|.......................|.......................|.......................|
.......................|.......................|.......................|.......................|.......................|.......................|.......................|.......................|.......................|.......................|
.......................|.......................|.......................|.......................|.......................|.......................|.......................|.......................|.......................|.......................|
.......................|.......................|.......................|.......................|.......................|.......................|.......................|.......................|.......................|.......................|
.......................|.......................|.......................|.......................|.......................|.......................|.......................|.......................|.......................|.......................|
.......................|.......................|.......................|.......................|.......................|.......................|.......................|.......................|.......................|.......................|
.......................|.......................|.......................|.......................|.......................|.......................|.......................|.......................|.......................|.......................|
.......................|.......................|.......................|C-0....................|.......................|.......................|.......................|.......................|.......................|.......................|
.......................|.......................|.......................|G-5....................|.......................|.......................|.......................|.......................|C-0....C034............|.......................|
.......................|.......................|.......................|.......................|.......................|.......................|.......................|.......................|.......................|.......................|
.......................|.......................|.......................|.......................|.......................|.......................|.......................|.......................|.......................|.......................|
.......................|.......................|.......................|.......................|.......................|.......................|.......................|.......................|.......................|.......................|
.......................|.......................|.......................|.......................|.......................|.......................|.......................|.......................|.......................|.......................|
.......................|.......................|.......................|.......................|.......................|.......................|.......................|.......................|.......................|.......................|
.......................|.......................|.......................|.......................|.......................|.......................|.......................|.......................|C-0....................|.......................|
.......................|.......................|.......................|.......................|.......................|.......................|.......................|.......................|.......................|.......................|
.......................|.......................|.......................|.......................|.......................|.......................|.......................|.......................|.......................|.......................|
.......................|.......................|.......................|.......................|.......................|.......................|.......................|.......................|C-0....................|.......................|
.......................|.......................|.......................|.......................|.......................|.......................|.......................|.......................|.......................|.......................|
.......................|.......................|C-0....................|.......................|.......................|.......................|.......................|.......................|.......................|.......................|
.......................|.......................|D-5....................|.......................|.......................|.......................|.......................|.......................|.......................|.......................|
.......................|.......................|.......................|.......................|.......................|.......................|.......................|.......................|.......................|.......................|
.......................|.......................|.......................|.......................|.......................|.......................|.......................|.......................|.......................|.......................|
.......................|.......................|.......................|.......................|.......................|.......................|.......................|.......................|.......................|.......................|
.......................|.......................|.......................|.......................|.......................|.......................|.......................|.......................|.......................|.......................|
.......................|.......................|C-0....................|.......................|.......................|.......................|.......................|.......................|.......................|.......................|
.......................|.......................|E-5....................|.......................|.......................|.......................|.......................|.......................|.......................|.......................|
.......................|.......................|.......................|.......................|.......................|.......................|.......................|.......................|.......................|.......................|
.......................|.......................|.......................|.......................|.......................|.......................|.......................|.......................|.......................|.......................|
.......................|.......................|.......................|.......................|.......................|.......................|.......................|.......................|.......................|.......................|
.......................|.......................|.......................|.......................|.......................|.......................|.......................|.......................|.......................|.......................|
C-0....................|.......................|C-0....................|C-0....................|.......................|.......................|.......................|.......................|.......................|.......................|
A#2....0400............|.......................|F-5....................|D-5....................|.......................|.......................|.......................|.......................|.......................|.......................|
.......................|.......................|.......................|.......................|.......................|.......................|.......................|.......................|.......................|.......................|
.......................|.......................|.......................|.......................|.......................|.......................|.......................|.......................|.......................|.......................|
.......................|.......................|.......................|.......................|.......................|.......................|.......................|.......................|.......................|.......................|
.......................|.......................|.......................|.......................|.......................|.......................|.......................|.......................|.......................|.......................|
.......................|.......................|.......................|C-0....................|.......................|.......................|.......................|.......................|.......................|.......................|
.......................|.......................|.......................|E-5....................|.......................|.......................|.......................|.......................|.......................|.......................|
.......................|.......................|.......................|.......................|.......................|.......................|.......................|.......................|.......................|.......................|
.......................|.......................|.......................|.......................|.......................|.......................|.......................|.......................|.......................|.......................|
.......................|.......................|.......................|.......................|.......................|.......................|.......................|.......................|.......................|.......................|
.......................|.......................|.......................|.......................|.......................|.......................|.......................|.......................|.......................|.......................|
.......................|.......................|.......................|C-0....................|.......................|.......................|.......................|.......................|.......................|.......................|
.......................|.......................|.......................|F-5....................|.......................|.......................|.......................|.......................|.......................|.......................|
.......................|.......................|.......................|.......................|.......................|.......................|.......................|.......................|.......................|.......................|
.......................|.......................|.......................|.......................|.......................|.......................|.......................|.......................|.......................|.......................|
.......................|.......................|.......................|.......................|.......................|.......................|.......................|.......................|.......................|.......................|
.......................|.......................|.......................|.......................|.......................|.......................|.......................|.......................|.......................|.......................|
.......................|.......................|.......................|.......................|.......................|.......................|.......................|.......................|.......................|.......................|
.......................|.......................|.......................|.......................|.......................|.......................|.......................|.......................|.......................|.......................|
.......................|.......................|.......................|.......................|.......................|.......................|.......................|.......................|.......................|.......................|
.......................|.......................|.......................|.......................|.......................|.......................|.......................|.......................|.......................|.......................|
.......................|.......................|.......................|.......................|.......................|.......................|.......................|.......................|.......................|.......................|
.......................|.......................|.......................|.......................|.......................|.......................|.......................|.......................|.......................|.......................|
.......................|.......................|C-0....................|.......................|.......................|.......................|.......................|.......................|.......................|.......................|
.......0452............|.......................|G-5....................|.......................|.......................|.......................|.......................|.......................|.......................|.......................|
.......................|.......................|.......................|.......................|.......................|.......................|.......................|.......................|.......................|.......................|
.......................|.......................|.......................|.......................|.......................|.......................|.......................|.......................|.......................|.......................|
.......................|.......................|.......................|.......................|.......................|.......................|.......................|.......................|.......................|.......................|
.......................|.......................|.......................|.......................|.......................|.......................|.......................|.......................|.......................|.......................|
.......................|.......................|.......................|.......................|.......................|.......................|.......................|.......................|.......................|.......................|
.......................|.......................|.......................|.......................|.......................|.......................|.......................|.......................|.......................|.......................|
.......................|.......................|.......................|.......................|.......................|.......................|.......................|.......................|.......................|.......................|
.......................|.......................|.......................|.......................|.......................|.......................|.......................|.......................|.......................|.......................|
.......................|.......................|.......................|.......................|.......................|.......................|.......................|.......................|.......................|.......................|
.......................|.......................|.......................|.......................|.......................|.......................|.......................|.......................|.......................|.......................|
.......................|.......................|.......................|C-0....................|.......................|.......................|.......................|.......................|.......................|.......................|
.......................|.......................|.......................|G-5....................|.......................|.......................|.......................|.......................|.......................|.......................|
.......................|.......................|.......................|.......................|.......................|.......................|.......................|.......................|.......................|.......................|
.......................|.......................|.......................|.......................|.......................|.......................|.......................|.......................|.......................|.......................|
.......................|.......................|.......................|.......................|.......................|.......................|.......................|.......................|.......................|.......................|
.......................|.......................|.......................|.......................|.......................|.......................|.......................|.......................|.......................|.......................|
C-0....................|.......................|.......................|.......................|.......................|.......................|.......................|.......................|.......................|.......................|
C-3....0400............|.......................|.......................|.......................|.......................|.......................|.......................|.......................|.......................|.......................|
D-3....................|.......................|.......................|.......................|.......................|.......................|.......................|.......................|.......................|.......................|
D#3....................|.......................|.......................|.......................|.......................|.......................|.......................|.......................|.......................|.......................|
F-3....................|.......................|.......................|.......................|.......................|.......................|.......................|.......................|.......................|.......................|
G-3....................|.......................|.......................|.......................|.......................|.......................|.......................|.......................|.......................|.......................|
A-3....................|.......................|C-0....................|.......................|.......................|.......................|.......................|.......................|.......................|.......................|
A#3....................|.......................|F-5....................|.......................|.......................|.......................|.......................|.......................|.......................|.......................|
.......................|.......................|.......................|.......................|.......................|.......................|.......................|.......................|.......................|.......................|
.......................|.......................|.......................|.......................|.......................|.......................|.......................|.......................|.......................|.......................|
.......................|.......................|.......................|.......................|.......................|.......................|.......................|.......................|.......................|.......................|
.......................|.......................|.......................|.......................|.......................|.......................|.......................|.......................|.......................|.......................|
.......................|.......................|.......................|.......................|.......................|.......................|.......................|.......................|.......................|.......................|
.......................|.......................|.......................|.......................|.......................|.......................|.......................|.......................|.......................|.......................|
.......................|.......................|.......................|.......................|.......................|.......................|.......................|.......................|.......................|.......................|
.......................|.......................|.......................|.......................|.......................|.......................|.......................|.......................|.......................|.......................|
.......................|.......................|.......................|.......................|.......................|.......................|.......................|.......................|.......................|.......................|
.......................|.......................|.......................|.......................|.......................|.......................|.......................|.......................|.......................|.......................|
.......................|.......................|C-0....................|C-0....................|.......................|.......................|.......................|.......................|.......................|.......................|
.......................|.......................|E-5....................|F-5....................|.......................|.......................|.......................|.......................|.......................|.......................|
.......................|.......................|.......................|.......................|.......................|.......................|.......................|.......................|.......................|.......................|
.......................|.......................|.......................|.......................|.......................|.......................|.......................|.......................|.......................|.......................|
.......................|.......................|.......................|.......................|.......................|.......................|.......................|.......................|.......................|.......................|
.......................|.......................|.......................|.......................|.......................|.......................|.......................|.......................|.......................|.......................|
.......................|.......................|.......................|.......................|.......................|.......................|.......................|.......................|.......................|.......................|
.......................|.......................|.......................|.......................|.......................|.......................|.......................|.......................|.......................|.......................|
.......................|.......................|.......................|.......................|.......................|.......................|.......................|.......................|.......................|.......................|
.......................|.......................|.......................|.......................|.......................|.......................|.......................|.......................|.......................|.......................|
.......................|.......................|.......................|.......................|.......................|.......................|.......................|.......................|.......................|.......................|
.......................|.......................|.......................|.......................|.......................|.......................|.......................|.......................|.......................|.......................|
.......................|C-0....................|C-0....................|C-0....................|.......................|.......................|.......................|.......................|.......................|.......................|
.......0452............|.......................|D-5....................|E-5....................|.......................|.......................|.......................|.......................|.......................|.......................|
.......................|.......................|.......................|.......................|.......................|.......................|.......................|.......................|.......................|.......................|
.......................|.......................|.......................|.......................|.......................|.......................|.......................|.......................|.......................|.......................|
.......................|.......................|.......................|.......................|.......................|.......................|.......................|.......................|.......................|.......................|
.......................|.......................|.......................|.......................|.......................|.......................|.......................|.......................|.......................|.......................|
.......................|.......................|.......................|.......................|.......................|.......................|.......................|.......................|.......................|.......................|
.......................|.......................|.......................|.......................|.......................|.......................|.......................|.......................|.......................|.......................|
.......................|.......................|.......................|.......................|.......................|.......................|.......................|.......................|.......................|.......................|
.......................|.......................|.......................|.......................|.......................|.......................|.......................|.......................|.......................|.......................|
.......................|.......................|.......................|.......................|.......................|.......................|.......................|.......................|C-0....................|.......................|
.......................|.......................|.......................|.......................|.......................|.......................|.......................|.......................|.......................|.......................|
.......................|.......................|C-0....................|C-0....................|C-0....................|.......................|.......................|.......................|.......................|.......................|
org.tildearrow.furnace - Pattern Data (219)
0
.......................|.......................|C-5....................|D-5....................|.......................|.......................|.......................|.......................|.......................|.......................|
.......................|.......................|.......................|.......................|.......................|.......................|.......................|.......................|.......................|.......................|
.......................|.......................|.......................|.......................|.......................|.......................|.......................|.......................|.......................|.......................|
.......................|.......................|.......................|.......................|.......................|.......................|.......................|.......................|.......................|.......................|
.......................|.......................|.......................|.......................|.......................|.......................|.......................|.......................|.......................|.......................|
.......................|.......................|.......................|.......................|.......................|.......................|.......................|.......................|.......................|.......................|
.......................|.......................|.......................|.......................|.......................|.......................|.......................|.......................|.......................|.......................|
.......................|.......................|.......................|.......................|.......................|.......................|.......................|.......................|.......................|.......................|
.......................|.......................|.......................|.......................|.......................|.......................|.......................|.......................|.......................|.......................|
.......................|.......................|.......................|.......................|.......................|.......................|.......................|.......................|.......................|.......................|
.......................|.......................|.......................|.......................|.......................|.......................|.......................|.......................|.......................|.......................|
C-0....................|.......................|C-0....................|C-0....................|.......................|.......................|C-0....................|C-0....................|.......................|.......................|
A-2....0400............|E-313..0400............|A-4....................|C-5....................|.......................|.......................|E-2....0400............|C-2....0400............|.......................|.......................|
.......................|.......................|.......................|.......................|.......................|.......................|.......................|.......................|.......................|.......................|
.......................|.......................|.......................|.......................|.......................|.......................|.......................|.......................|.......................|.......................|
.......................|.......................|.......................|.......................|.......................|.......................|.......................|.......................|.......................|.......................|
.......................|.......................|.......................|.......................|.......................|.......................|.......................|.......................|.......................|.......................|
.......................|C-0....................|.......................|.......................|.......................|.......................|.......................|.......................|.......................|.......................|
.......................|F-3....................|.......................|.......................|.......................|.......................|.......................|.......................|.......................|.......................|
.......................|.......................|.......................|.......................|.......................|.......................|.......................|.......................|.......................|.......................|
.......................|.......................|.......................|.......................|.......................|.......................|.......................|.......................|.......................|.......................|
.......................|.......................|.......................|.......................|.......................|.......................|.......................|.......................|.......................|.......................|
.......................|.......................|.......................|.......................|.......................|.......................|.......................|.......................|.......................|.......................|
.......................|C-0....................|.......................|C-0....................|.......................|.......................|.......................|.......................|.......................|.......................|
.......................|E-3....................|.......................|A-4....................|E-313..04005305........|.......................|.......................|.......................|.......................|.......................|
.......................|.......................|.......................|.......................|.......................|.......................|.......................|.......................|.......................|.......................|
.......................|.......................|.......................|.......................|.......................|.......................|.......................|.......................|.......................|.......................|
.......................|.......................|.......................|.......................|.......................|.......................|.......................|.......................|.......................|.......................|
.......................|.......................|.......................|.......................|.......................|.......................|.......................|.......................|.......................|.......................|
.......................|C-0....................|.......................|.......................|C-0....................|.......................|.......................|.......................|.......................|.......................|
.......................|D#3....................|.......................|.......................|F-3....................|.......................|.......................|.......................|.......................|.......................|
.......................|.......................|.......................|.......................|.......................|.......................|.......................|.......................|.......................|.......................|
.......................|.......................|.......................|.......................|.......................|.......................|.......................|.......................|.......................|.......................|
.......................|.......................|.......................|.......................|.......................|.......................|.......................|.......................|.......................|.......................|
.......................|.......................|.......................|.......................|.......................|.......................|.......................|.......................|.......................|.......................|
.......................|C-0....................|.......................|.......................|C-0....................|.......................|.......................|.......................|.......................|.......................|
.......0452............|E-3....................|.......0452............|.......................|E-3....................|.......................|.......0452............|.......0452............|.......................|.......................|
.......................|.......................|.......................|.......................|.......................|.......................|.......................|.......................|.......................|.......................|
.......................|.......................|.......................|.......................|.......................|.......................|.......................|.......................|.......................|.......................|
.......................|.......................|.......................|.......................|.......................|.......................|.......................|.......................|.......................|.......................|
.......................|.......................|.......................|.......................|.......................|.......................|.......................|.......................|.......................|.......................|
.......................|.......................|.......................|.......................|C-0....................|.......................|.......................|.......................|.......................|.......................|
.......................|.......................|.......................|.......................|D#3....................|.......................|.......................|.......................|.......................|.......................|
.......................|.......................|.......................|.......................|.......................|.......................|.......................|.......................|.......................|.......................|
.......................|.......................|.......................|.......................|.......................|.......................|.......................|.......................|.......................|.......................|
.......................|.......................|.......................|.......................|.......................|.......................|.......................|.......................|.......................|.......................|
.......................|.......................|.......................|.......................|.......................|.......................|.......................|.......................|.......................|.......................|
.......................|C-0....................|.......................|.......................|C-0....................|.......................|.......................|.......................|.......................|.......................|
.......................|E-4....................|.......................|.......0452............|E-3....................|.......................|.......................|.......................|.......................|.......................|
.......................|.......................|.......................|.......................|.......................|.......................|.......................|.......................|.......................|.......................|
.......................|.......................|.......................|.......................|.......................|.......................|.......................|.......................|.......................|.......................|
.......................|.......................|.......................|.......................|.......................|.......................|.......................|.......................|.......................|.......................|
.......................|.......................|.......................|.......................|.......................|.......................|.......................|.......................|.......................|.......................|
.......................|.......................|.......................|.......................|.......................|.......................|.......................|.......................|.......................|.......................|
.......................|.......................|.......................|.......................|.......................|.......................|.......................|.......................|.......................|.......................|
.......................|.......................|.......................|.......................|.......................|.......................|.......................|.......................|.......................|.......................|
.......................|.......................|.......................|.......................|.......................|.......................|.......................|.......................|.......................|.......................|
.......................|.......................|.......................|.......................|.......................|.......................|.......................|.......................|.......................|.......................|
.......................|.......................|.......................|.......................|.......................|.......................|.......................|.......................|.......................|.......................|
.......................|.......................|.......................|.......................|C-0....................|.......................|.......................|.......................|.......................|.......................|
.......................|.......................|.......................|.......................|E-4....................|.......................|.......................|.......................|.......................|.......................|
.......................|.......................|.......................|.......................|.......................|.......................|.......................|.......................|.......................|.......................|
.......................|.......................|.......................|.......................|.......................|.......................|.......................|.......................|.......................|.......................|
.......................|.......................|.......................|.......................|.......................|.......................|.......................|.......................|.......................|.......................|
.......................|.......................|.......................|.......................|.......................|.......................|.......................|.......................|.......................|.......................|
.......................|.......................|.......................|.......................|.......................|.......................|.......................|.......................|.......................|.......................|
.......................|.......................|.......................|.......................|.......................|.......................|.......................|.......................|.......................|.......................|
.......................|.......................|.......................|.......................|.......................|.......................|.......................|.......................|.......................|.......................|
.......................|.......................|.......................|.......................|.......................|.......................|.......................|.......................|.......................|.......................|
.......................|.......................|.......................|.......................|.......................|.......................|.......................|.......................|.......................|.......................|
.......................|.......................|.......................|.......................|.......................|.......................|.......................|.......................|.......................|.......................|
.......................|C-0....................|.......................|.......................|.......................|.......................|.......................|.......................|.......................|.......................|
.......................|D-4....................|.......................|.......................|.......................|.......................|.......................|.......................|.......................|.......................|
.......................|.......................|.......................|.......................|.......................|.......................|.......................|.......................|.......................|.......................|
.......................|.......................|.......................|.......................|.......................|.......................|.......................|.......................|.......................|.......................|
.......................|.......................|.......................|.......................|.......................|.......................|.......................|.......................|.......................|.......................|
.......................|.......................|.......................|.......................|.......................|.......................|.......................|.......................|.......................|.......................|
.......................|.......................|.......................|.......................|.......................|.......................|.......................|.......................|.......................|.......................|
.......................|.......................|.......................|.......................|.......................|.......................|.......................|.......................|.......................|.......................|
.......................|.......................|.......................|.......................|.......................|.......................|.......................|.......................|.......................|.......................|
.......................|.......................|.......................|.......................|.......................|.......................|.......................|.......................|.......................|.......................|
.......................|.......................|.......................|.......................|.......................|.......................|.......................|.......................|.......................|.......................|
.......................|.......................|.......................|.......................|.......................|.......................|.......................|.......................|.......................|.......................|
.......................|.......................|.......................|.......................|C-0....................|.......................|.......................|.......................|.......................|.......................|
.......................|.......................|.......................|.......................|D-4....................|.......................|.......................|.......................|.......................|.......................|
.......................|.......................|.......................|.......................|.......................|.......................|.......................|.......................|.......................|.......................|
.......................|.......................|.......................|.......................|.......................|.......................|.......................|.......................|.......................|.......................|
.......................|.......................|.......................|.......................|.......................|.......................|.......................|.......................|.......................|.......................|
.......................|.......................|.......................|.......................|.......................|.......................|.......................|.......................|.......................|.......................|
.......................|.......................|.......................|.......................|.......................|.......................|.......................|.......................|.......................|.......................|
.......................|.......................|.......................|.......................|.......................|.......................|.......................|.......................|.......................|.......................|
.......................|.......................|.......................|.......................|.......................|.......................|.......................|.......................|.......................|.......................|
.......................|.......................|.......................|.......................|.......................|.......................|.......................|.......................|.......................|.......................|
.......................|.......................|.......................|.......................|.......................|.......................|.......................|.......................|C-0....................|.......................|
.......................|.......................|.......................|.......................|.......................|.......................|.......................|.......................|.......................|.......................|
C-0....................|C-0....................|.......................|.......................|.......................|.......................|.......................|.......................|.......................|.......................|
D-3....0400............|A-3....................|.......................|.......................|.......................|.......................|.......................|.......................|.......................|.......................|
.......................|.......................|.......................|.......................|.......................|.......................|.......................|.......................|.......................|.......................|
.......................|.......................|.......................|.......................|.......................|.......................|.......................|.......................|.......................|.......................|
.......................|.......................|.......................|.......................|.......................|.......................|.......................|.......................|.......................|.......................|
.......................|.......................|.......................|.......................|.......................|.......................|.......................|.......................|.......................|.......................|
C-0....................|C-0....................|.......................|.......................|.......................|.......................|.......................|.......................|.......................|.......................|
E-3....................|B-3....................|.......................|.......................|.......................|.......................|.......................|.......................|.......................|.......................|
.......................|.......................|.......................|.......................|.......................|.......................|.......................|.......................|.......................|.......................|
.......................|.......................|.......................|.......................|.......................|.......................|.......................|.......................|.......................|.......................|
.......................|.......................|.......................|.......................|.......................|.......................|.......................|.......................|.......................|.......................|
.......................|.......................|.......................|.......................|.......................|.......................|.......................|.......................|.......................|.......................|
C-0....................|C-0....................|.......................|.......................|C-0....................|.......................|.......................|.......................|.......................|.......................|
A-3....................|C-4....................|.......................|.......................|A-3....................|.......................|.......................|.......................|.......................|.......................|
.......................|.......................|.......................|.......................|.......................|.......................|.......................|.......................|.......................|.......................|
.......................|.......................|.......................|.......................|.......................|.......................|.......................|.......................|.......................|.......................|
.......................|.......................|.......................|.......................|.......................|.......................|.......................|.......................|.......................|.......................|
.......................|.......................|.......................|.......................|.......................|.......................|.......................|.......................|.......................|.......................|
.......................|.......................|.......................|.......................|C-0....................|.......................|.......................|.......................|.......................|.......................|
.......................|.......................|.......................|.......................|B-3....................|.......................|.......................|.......................|.......................|.......................|
.......................|.......................|.......................|.......................|.......................|.......................|.......................|.......................|.......................|.......................|
.......................|.......................|.......................|.......................|.......................|.......................|.......................|.......................|.......................|.......................|
.......................|.......................|.......................|.......................|.......................|.......................|.......................|.......................|.......................|.......................|
.......................|.......................|.......................|.......................|.......................|.......................|.......................|.......................|.......................|.......................|
.......................|.......................|.......................|.......................|C-0....................|.......................|.......................|.......................|.......................|.......................|
.......................|.......................|.......................|.......................|C-4....................|.......................|.......................|.......................|.......................|.......................|
.......................|.......................|.......................|.......................|.......................|.......................|.......................|.......................|.......................|.......................|
.......................|.......................|.......................|.......................|.......................|.......................|.......................|.......................|.......................|.......................|
.......................|.......................|.......................|.......................|.......................|.......................|.......................|.......................|.......................|.......................|
.......................|.......................|.......................|.......................|.......................|.......................|.......................|.......................|.......................|.......................|
.......................|.......................|.......................|.......................|.......................|.......................|.......................|.......................|.......................|.......................|
.......................|.......................|.......................|.......................|.......................|.......................|.......................|.......................|.......................|.......................|
.......................|.......................|.......................|.......................|.......................|.......................|.......................|.......................|.......................|.......................|
.......................|.......................|.......................|.......................|.......................|.......................|.......................|.......................|.......................|.......................|
.......................|.......................|.......................|.......................|.......................|.......................|.......................|.......................|.......................|.......................|
.......................|.......................|.......................|.......................|.......................|.......................|.......................|.......................|.......................|.......................|
C-0....................|C-0....................|.......................|.......................|.......................|.......................|.......................|.......................|.......................|.......................|
E-3....................|D-4....................|.......................|.......................|.......................|.......................|.......................|.......................|.......................|.......................|
.......................|.......................|.......................|.......................|.......................|.......................|.......................|.......................|.......................|.......................|
.......................|.......................|.......................|.......................|.......................|.......................|.......................|.......................|.......................|.......................|
.......................|.......................|.......................|.......................|.......................|.......................|.......................|.......................|.......................|.......................|
.......................|.......................|.......................|.......................|.......................|.......................|.......................|.......................|.......................|.......................|
.......................|.......................|.......................|.......................|.......................|.......................|.......................|.......................|.......................|.......................|
.......................|.......................|.......................|.......................|.......................|.......................|.......................|.......................|.......................|.......................|
.......................|.......................|.......................|.......................|.......................|.......................|.......................|.......................|.......................|.......................|
.......................|.......................|.......................|.......................|.......................|.......................|.......................|.......................|.......................|.......................|
.......................|.......................|.......................|.......................|.......................|.......................|.......................|.......................|.......................|.......................|
.......................|.......................|.......................|.......................|.......................|.......................|.......................|.......................|.......................|.......................|
.......................|.......................|.......................|.......................|C-0....................|.......................|.......................|.......................|.......................|.......................|
.......................|.......................|.......................|.......................|D-4....................|.......................|.......................|.......................|.......................|.......................|
.......................|.......................|.......................|.......................|.......................|.......................|.......................|.......................|.......................|.......................|
.......................|.......................|.......................|.......................|.......................|.......................|.......................|.......................|.......................|.......................|
.......................|.......................|.......................|.......................|.......................|.......................|.......................|.......................|.......................|.......................|
.......................|.......................|.......................|.......................|.......................|.......................|.......................|.......................|.......................|.......................|
.......................|.......................|.......................|.......................|.......................|.......................|.......................|.......................|.......................|.......................|
.......................|.......................|.......................|.......................|.......................|.......................|.......................|.......................|.......................|.......................|
.......................|.......................|.......................|.......................|.......................|.......................|.......................|.......................|.......................|.......................|
.......................|.......................|.......................|.......................|.......................|.......................|.......................|.......................|.......................|.......................|
.......................|.......................|.......................|.......................|.......................|.......................|.......................|.......................|.......................|.......................|
.......................|.......................|.......................|.......................|.......................|.......................|.......................|.......................|.......................|.......................|
C-0....................|C-0....................|.......................|.......................|.......................|.......................|.......................|.......................|.......................|.......................|
C-3....................|C-4....................|.......................|.......................|.......................|.......................|.......................|.......................|.......................|.......................|
.......................|.......................|.......................|.......................|.......................|.......................|.......................|.......................|.......................|.......................|
.......................|.......................|.......................|.......................|.......................|.......................|.......................|.......................|.......................|.......................|
.......................|.......................|.......................|.......................|.......................|.......................|.......................|.......................|.......................|.......................|
.......................|.......................|.......................|.......................|.......................|.......................|.......................|.......................|.......................|.......................|
.......................|.......................|.......................|.......................|.......................|.......................|.......................|.......................|.......................|.......................|
.......................|.......................|.......................|.......................|.......................|.......................|.......................|.......................|.......................|.......................|
.......................|.......................|.......................|.......................|.......................|.......................|.......................|.......................|.......................|.......................|
.......................|.......................|.......................|.......................|.......................|.......................|.......................|.......................|.......................|.......................|
.......................|.......................|.......................|.......................|.......................|.......................|.......................|.......................|.......................|.......................|
.......................|.......................|.......................|.......................|.......................|.......................|.......................|.......................|.......................|.......................|
.......................|C-0....................|.......................|.......................|C-0....................|.......................|.......................|.......................|.......................|.......................|
.......................|B-3....................|.......................|.......................|C-4....................|.......................|.......................|.......................|.......................|.......................|
.......................|.......................|.......................|.......................|.......................|.......................|.......................|.......................|.......................|.......................|
.......................|.......................|.......................|.......................|.......................|.......................|.......................|.......................|.......................|.......................|
.......................|.......................|.......................|.......................|.......................|.......................|.......................|.......................|.......................|.......................|
.......................|.......................|.......................|.......................|.......................|.......................|.......................|.......................|.......................|.......................|
.......................|.......................|.......................|.......................|.......................|.......................|.......................|.......................|.......................|.......................|
.......................|.......................|.......................|.......................|.......................|.......................|.......................|.......................|.......................|.......................|
.......................|.......................|.......................|.......................|.......................|.......................|.......................|.......................|.......................|.......................|
.......................|.......................|.......................|.......................|.......................|.......................|.......................|.......................|.......................|.......................|
.......................|.......................|.......................|.......................|.......................|.......................|.......................|.......................|.......................|.......................|
.......................|.......................|.......................|.......................|.......................|.......................|.......................|.......................|.......................|.......................|
C-0....................|C-0....................|.......................|.......................|C-0....................|.......................|.......................|.......................|.......................|.......................|
A-2....................|A-3....................|.......................|.......................|B-3....................|.......................|.......................|.......................|.......................|.......................|
.......................|.......................|.......................|.......................|.......................|.......................|.......................|.......................|.......................|.......................|
.......................|.......................|.......................|.......................|.......................|.......................|.......................|.......................|.......................|.......................|
.......................|.......................|.......................|.......................|.......................|.......................|.......................|.......................|.......................|.......................|
.......................|.......................|.......................|.......................|.......................|.......................|.......................|.......................|.......................|.......................|
.......................|.......................|.......................|.......................|.......................|.......................|.......................|.......................|.......................|.......................|
.......................|.......................|.......................|.......................|.......................|.......................|.......................|.......................|.......................|.......................|
.......................|.......................|.......................|.......................|.......................|.......................|.......................|.......................|.......................|.......................|
.......................|.......................|.......................|.......................|.......................|.......................|.......................|.......................|.......................|.......................|
.......................|.......................|.......................|.......................|.......................|.......................|.......................|.......................|C-0....................|.......................|
.......................|.......................|.......................|.......................|.......................|.......................|.......................|.......................|.......................|.......................|
.......................|C-0....................|.......................|.......................|C-0....................|.......................|.......................|.......................|.......................|.......................|
.......................|G-3....................|.......................|.......................|A-3....................|.......................|.......................|.......................|.......................|.......................|
.......................|.......................|.......................|.......................|.......................|.......................|.......................|.......................|.......................|.......................|
.......................|.......................|.......................|.......................|.......................|.......................|.......................|.......................|.......................|.......................|
.......................|.......................|.......................|.......................|.......................|.......................|.......................|.......................|.......................|.......................|
.......................|.......................|.......................|.......................|.......................|.......................|.......................|.......................|.......................|.......................|
.......................|.......................|.......................|.......................|.......................|.......................|.......................|.......................|.......................|.......................|
.......................|.......................|.......................|.......................|.......................|.......................|.......................|.......................|.......................|.......................|
.......................|.......................|.......................|.......................|.......................|.......................|.......................|.......................|.......................|.......................|
.......................|.......................|.......................|.......................|.......................|.......................|.......................|.......................|.......................|.......................|
.......................|.......................|.......................|.......................|.......................|.......................|.......................|.......................|.......................|.......................|
.......................|.......................|.......................|.......................|.......................|.......................|.......................|.......................|.......................|.......................|
C-0....................|C-0....................|C-0....................|.......................|C-0....................|.......................|C-0....................|C-0....................|.......................|.......................|
G-2....................|F-3....................|D-4....0400............|.......................|G-3....................|C-4C7..................|D-2A00A0400............|A#1A00A0400............|.......................|.......................|
.......................|.......................|.......................|.......................|.......................|.......................|.......................|.......................|.......................|.......................|
.......................|.......................|.......................|.......................|.......................|.......................|.......................|.......................|.......................|.......................|
.......................|.......................|.......................|.......................|.......................|.......................|.......................|.......................|.......................|.......................|
.......................|.......................|.......................|.......................|.......................|.......................|.......................|.......................|.......................|.......................|
.......................|.......................|C-0....................|.......................|.......................|.......................|.......................|.......................|.......................|.......................|
.......................|.......................|E-4....................|.......................|.......................|.......................|.......................|.......................|.......................|.......................|
.......................|.......................|.......................|.......................|.......................|.......................|.......................|.......................|.......................|.......................|
.......................|.......................|.......................|.......................|.......................|.......................|.......................|.......................|.......................|.......................|
.......................|.......................|.......................|.......................|.......................|.......................|.......................|.......................|.......................|.......................|
.......................|.......................|.......................|.......................|.......................|.......................|.......................|.......................|.......................|.......................|
C-0....................|C-0....................|C-0....................|C-0....................|C-0....................|.......................|C-0....................|C-0....................|.......................|.......................|
.......................|.......................|F-4....................|D-4....0400............|F-3....................|.......................|C-0....................|C-0....................|.......................|.......................|
.......................|.......................|.......................|.......................|.......................|.......................|.......................|.......................|.......................|.......................|
.......................|.......................|.......................|.......................|.......................|.......................|.......................|.......................|.......................|.......................|
.......................|.......................|.......................|.......................|.......................|.......................|.......................|.......................|.......................|.......................|
.......................|.......................|.......................|.......................|.......................|.......................|.......................|.......................|.......................|.......................|
.......................|.......................|C-0....................|C-0....................|.......................|.......................|.......................|.......................|.......................|.......................|
.......................|.......................|A-4....................|E-4....................|.......................|.......................|.......................|.......................|.......................|.......................|
.......................|.......................|.......................|.......................|.......................|.......................|.......................|.......................|.......................|.......................|
.......................|.......................|.......................|.......................|.......................|.......................|.......................|.......................|.......................|.......................|
.......................|.......................|.......................|.......................|.......................|.......................|.......................|.......................|.......................|.......................|
.......................|.......................|.......................|.......................|.......................|.......................|.......................|.......................|.......................|.......................|
.......................|.......................|C-0....................|C-0....................|C-0....................|.......................|.......................|.......................|.......................|.......................|
.......................|.......................|F-5....................|F-4....................|.......................|.......................|.......................|.......................|.......................|.......................|
.......................|.......................|.......................|.......................|.......................|.......................|.......................|.......................|.......................|.......................|
.......................|.......................|.......................|.......................|.......................|.......................|.......................|.......................|.......................|.......................|
.......................|.......................|.......................|.......................|.......................|.......................|.......................|.......................|.......................|.......................|
.......................|.......................|.......................|.......................|.......................|.......................|.......................|.......................|.......................|.......................|
.......................|.......................|.......................|C-0....................|.......................|.......................|.......................|.......................|.......................|.......................|
.......................|.......................|.......................|A-4....................|.......................|.......................|.......................|.......................|.......................|.......................|
.......................|.......................|.......................|.......................|.......................|.......................|.......................|.......................|.......................|.......................|
.......................|.......................|.......................|.......................|.......................|.......................|.......................|.......................|.......................|.......................|
.......................|.......................|.......................|.......................|.......................|.......................|.......................|.......................|C-0....C034............|.......................|
.......................|.......................|.......................|.......................|.......................|.......................|.......................|.......................|.......................|.......................|
.......................|.......................|C-0....................|C-0....................|.......................|.......................|.......................|.......................|.......................|.......................|
G-3....................|G-3....................|E-5....................|F-5....................|.......................|C-4C7..................|D-2....................|A#1....................|.......................|.......................|
.......................|.......................|.......................|.......................|.......................|.......................|.......................|.......................|.......................|.......................|
.......................|.......................|.......................|.......................|.......................|.......................|.......................|.......................|.......................|.......................|
.......................|.......................|.......................|.......................|.......................|.......................|.......................|.......................|C-0....................|.......................|
.......................|.......................|.......................|.......................|.......................|.......................|.......................|.......................|.......................|.......................|
.......................|.......................|.......................|.......................|.......................|.......................|.......................|.......................|.......................|.......................|
.......................|.......................|.......................|.......................|.......................|.......................|.......................|.......................|C-0....................|.......................|
.......................|.......................|.......................|.......................|.......................|.......................|.......................|.......................|.......................|.......................|
.......................|.......................|.......................|.......................|.......................|.......................|.......................|.......................|.......................|.......................|
.......................|.......................|.......................|.......................|.......................|.......................|.......................|.......................|.......................|.......................|
.......................|.......................|.......................|.......................|.......................|.......................|.......................|.......................|.......................|.......................|
C-0....................|C-0....................|.......................|C-0....................|.......................|.......................|C-0....................|C-0....................|.......................|.......................|
.......................|.......................|.......................|E-5....................|G-3....................|.......................|C-0....................|C-0....................|.......................|.......................|
.......................|.......................|.......................|.......................|.......................|.......................|.......................|.......................|.......................|.......................|
.......................|.......................|.......................|.......................|.......................|.......................|.......................|.......................|.......................|.......................|
.......................|.......................|.......................|.......................|.......................|.......................|.......................|.......................|.......................|.......................|
org.tildearrow.furnace - Pattern Data (219)
0
.......................|.......................|.......................|.......................|.......................|.......................|.......................|.......................|.......................|.......................|
.......................|.......................|.......................|.......................|.......................|.......................|.......................|.......................|.......................|.......................|
.......................|.......................|.......................|.......................|.......................|.......................|.......................|.......................|.......................|.......................|
.......................|.......................|.......................|.......................|.......................|.......................|.......................|.......................|.......................|.......................|
.......................|.......................|.......................|.......................|.......................|.......................|.......................|.......................|.......................|.......................|
.......................|.......................|.......................|.......................|.......................|.......................|.......................|.......................|.......................|.......................|
.......................|.......................|.......................|.......................|.......................|.......................|.......................|.......................|.......................|.......................|
.......................|.......................|.......................|.......................|C-0....................|.......................|.......................|.......................|.......................|.......................|
.......................|.......................|.......0452............|.......................|.......................|.......................|.......................|.......................|.......................|.......................|
.......................|.......................|.......................|.......................|.......................|.......................|.......................|.......................|.......................|.......................|
.......................|.......................|.......................|.......................|.......................|.......................|.......................|.......................|.......................|.......................|
.......................|.......................|.......................|.......................|.......................|.......................|.......................|.......................|.......................|.......................|
.......................|.......................|.......................|.......................|.......................|.......................|.......................|.......................|.......................|.......................|
.......................|.......................|.......................|.......................|.......................|.......................|.......................|.......................|.......................|.......................|
.......................|.......................|.......................|.......................|.......................|.......................|.......................|.......................|.......................|.......................|
.......................|.......................|.......................|.......................|.......................|.......................|.......................|.......................|.......................|.......................|
.......................|.......................|.......................|.......................|.......................|.......................|.......................|.......................|.......................|.......................|
.......................|.......................|.......................|.......................|.......................|.......................|.......................|.......................|.......................|.......................|
.......................|.......................|.......................|.......................|.......................|.......................|.......................|.......................|.......................|.......................|
.......................|.......................|C-0....................|.......................|.......................|.......................|.......................|.......................|.......................|.......................|
.......................|.......................|D-5....0400............|.......0452............|.......................|.......................|.......................|.......................|.......................|.......................|
.......................|.......................|.......................|.......................|.......................|.......................|.......................|.......................|.......................|.......................|
.......................|.......................|.......................|.......................|.......................|.......................|.......................|.......................|.......................|.......................|
.......................|.......................|.......................|.......................|.......................|.......................|.......................|.......................|.......................|.......................|
.......................|.......................|.......................|.......................|.......................|.......................|.......................|.......................|.......................|.......................|
.......................|.......................|.......................|.......................|.......................|.......................|.......................|.......................|.......................|.......................|
.......................|.......................|.......................|.......................|.......................|.......................|.......................|.......................|.......................|.......................|
.......................|.......................|.......................|.......................|.......................|.......................|.......................|.......................|.......................|.......................|
.......................|.......................|.......................|.......................|.......................|.......................|.......................|.......................|.......................|.......................|
.......................|.......................|.......................|.......................|.......................|.......................|.......................|.......................|.......................|.......................|
.......................|.......................|.......................|.......................|.......................|.......................|.......................|.......................|.......................|.......................|
.......................|.......................|.......................|C-0....................|.......................|.......................|.......................|.......................|.......................|.......................|
.......................|.......................|.......................|D-5....0400............|.......................|.......................|.......................|.......................|.......................|.......................|
.......................|.......................|.......................|.......................|.......................|.......................|.......................|.......................|.......................|.......................|
.......................|.......................|.......................|.......................|.......................|.......................|.......................|.......................|.......................|.......................|
.......................|.......................|.......................|.......................|.......................|.......................|.......................|.......................|.......................|.......................|
.......................|.......................|.......................|.......................|.......................|.......................|.......................|.......................|.......................|.......................|
.......................|.......................|.......................|.......................|.......................|.......................|.......................|.......................|.......................|.......................|
G-2....................|.......................|.......................|.......................|.......................|.......................|.......................|.......................|.......................|.......................|
.......................|.......................|.......................|.......................|.......................|.......................|.......................|.......................|.......................|.......................|
C-0....................|.......................|.......................|.......................|.......................|.......................|.......................|.......................|.......................|.......................|
G#2....................|.......................|.......................|.......................|.......................|.......................|.......................|.......................|.......................|.......................|
.......................|.......................|.......................|.......................|.......................|.......................|.......................|.......................|.......................|.......................|
C-0....................|.......................|C-0....................|.......................|.......................|.......................|.......................|.......................|.......................|.......................|
A-2....................|A-3....................|C-5....................|.......................|.......................|C-4C6..................|E-2....................|C-2....................|.......................|.......................|
.......................|.......................|.......................|.......................|.......................|.......................|.......................|.......................|.......................|.......................|
.......................|.......................|.......................|.......................|.......................|.......................|.......................|.......................|.......................|.......................|
.......................|.......................|.......................|.......................|.......................|.......................|.......................|.......................|.......................|.......................|
.......................|.......................|.......................|.......................|.......................|.......................|.......................|.......................|.......................|.......................|
.......................|.......................|C-0....................|.......................|.......................|.......................|.......................|.......................|.......................|.......................|
.......................|.......................|B-4....................|.......................|.......................|.......................|.......................|.......................|.......................|.......................|
.......................|.......................|.......................|.......................|.......................|.......................|.......................|.......................|.......................|.......................|
.......................|.......................|.......................|.......................|.......................|.......................|.......................|.......................|.......................|.......................|
.......................|.......................|.......................|.......................|.......................|.......................|.......................|.......................|.......................|.......................|
.......................|.......................|.......................|.......................|.......................|.......................|.......................|.......................|.......................|.......................|
C-0....................|C-0....................|C-0....................|C-0....................|.......................|.......................|C-0....................|C-0....................|.......................|.......................|
.......................|.......................|C-5....................|C-5....................|A-3....................|.......................|C-0....................|C-0....................|.......................|.......................|
.......................|.......................|.......................|.......................|.......................|.......................|.......................|.......................|.......................|.......................|
.......................|.......................|.......................|.......................|.......................|.......................|.......................|.......................|.......................|.......................|
.......................|.......................|.......................|.......................|.......................|.......................|.......................|.......................|.......................|.......................|
.......................|.......................|.......................|.......................|.......................|.......................|.......................|.......................|.......................|.......................|
.......................|.......................|C-0....................|C-0....................|.......................|.......................|.......................|.......................|.......................|.......................|
.......................|.......................|A-4....................|B-4....................|.......................|.......................|.......................|.......................|.......................|.......................|
.......................|.......................|.......................|.......................|.......................|.......................|.......................|.......................|.......................|.......................|
.......................|.......................|.......................|.......................|.......................|.......................|.......................|.......................|.......................|.......................|
.......................|.......................|.......................|.......................|.......................|.......................|.......................|.......................|.......................|.......................|
.......................|.......................|.......................|.......................|.......................|.......................|.......................|.......................|.......................|.......................|
.......................|.......................|C-0....................|C-0....................|C-0....................|.......................|.......................|.......................|.......................|.......................|
.......................|.......................|C-0....................|C-5....................|.......................|.......................|.......................|.......................|.......................|.......................|
.......................|.......................|.......................|.......................|.......................|.......................|.......................|.......................|.......................|.......................|
.......................|.......................|.......................|.......................|.......................|.......................|.......................|.......................|.......................|.......................|
.......................|.......................|.......................|.......................|.......................|.......................|.......................|.......................|.......................|.......................|
.......................|.......................|.......................|.......................|.......................|.......................|.......................|.......................|.......................|.......................|
.......................|.......................|.......................|C-0....................|.......................|.......................|.......................|.......................|.......................|.......................|
.......................|.......................|.......................|A-4....................|.......................|.......................|.......................|.......................|.......................|.......................|
.......................|.......................|.......................|.......................|.......................|.......................|.......................|.......................|.......................|.......................|
.......................|.......................|.......................|.......................|.......................|.......................|.......................|.......................|.......................|.......................|
.......................|.......................|.......................|.......................|.......................|.......................|.......................|.......................|.......................|.......................|
.......................|.......................|.......................|.......................|.......................|.......................|.......................|.......................|.......................|.......................|
.......................|.......................|C-0....................|C-0....................|.......................|.......................|.......................|.......................|.......................|.......................|
A-3....................|C-4....................|G-5....................|C-0....................|.......................|C-4C6..................|E-2....................|C-2....................|.......................|.......................|
.......................|.......................|.......................|.......................|.......................|.......................|.......................|.......................|.......................|.......................|
.......................|.......................|.......................|.......................|.......................|.......................|.......................|.......................|.......................|.......................|
.......................|.......................|.......................|.......................|.......................|.......................|.......................|.......................|.......................|.......................|
.......................|.......................|.......................|.......................|.......................|.......................|.......................|.......................|.......................|.......................|
.......................|.......................|.......................|.......................|.......................|.......................|.......................|.......................|.......................|.......................|
.......................|.......................|.......................|.......................|.......................|.......................|.......................|.......................|C-0....................|.......................|
.......................|.......................|.......................|.......................|.......................|.......................|.......................|.......................|.......................|.......................|
.......................|.......................|.......................|.......................|.......................|.......................|.......................|.......................|.......................|.......................|
.......................|.......................|.......................|.......................|.......................|.......................|.......................|.......................|.......................|.......................|
.......................|.......................|.......................|.......................|.......................|.......................|.......................|.......................|.......................|.......................|
C-0....................|C-0....................|.......................|C-0....................|.......................|.......................|C-0....................|C-0....................|.......................|.......................|
.......................|.......................|.......................|G-5....................|C-4....................|.......................|C-0....................|C-0....................|.......................|.......................|
.......................|.......................|.......................|.......................|.......................|.......................|.......................|.......................|.......................|.......................|
.......................|.......................|.......................|.......................|.......................|.......................|.......................|.......................|.......................|.......................|
.......................|.......................|.......................|.......................|.......................|.......................|.......................|.......................|.......................|.......................|
.......................|.......................|.......................|.......................|.......................|.......................|.......................|.......................|.......................|.......................|
.......................|.......................|.......................|.......................|.......................|.......................|.......................|.......................|.......................|.......................|
.......................|.......................|.......................|.......................|.......................|.......................|.......................|.......................|.......................|.......................|
.......................|.......................|.......................|.......................|.......................|.......................|.......................|.......................|.......................|.......................|
.......................|.......................|.......................|.......................|.......................|.......................|.......................|.......................|.......................|.......................|
.......................|.......................|.......................|.......................|.......................|.......................|.......................|.......................|.......................|.......................|
.......................|.......................|.......................|.......................|.......................|.......................|.......................|.......................|.......................|.......................|
.......................|.......................|.......................|.......................|C-0....................|.......................|.......................|.......................|.......................|.......................|
.......................|.......................|.......0452............|.......................|.......................|.......................|.......................|.......................|.......................|.......................|
.......................|.......................|.......................|.......................|.......................|.......................|.......................|.......................|.......................|.......................|
.......................|.......................|.......................|.......................|.......................|.......................|.......................|.......................|.......................|.......................|
.......................|.......................|.......................|.......................|.......................|.......................|.......................|.......................|.......................|.......................|
.......................|.......................|.......................|.......................|.......................|.......................|.......................|.......................|.......................|.......................|
.......................|.......................|C-0....................|.......................|.......................|.......................|.......................|.......................|.......................|.......................|
.......................|.......................|F-5....0400............|.......................|.......................|.......................|.......................|.......................|.......................|.......................|
.......................|.......................|.......................|.......................|.......................|.......................|.......................|.......................|.......................|.......................|
.......................|.......................|.......................|.......................|.......................|.......................|.......................|.......................|.......................|.......................|
.......................|.......................|.......................|.......................|.......................|.......................|.......................|.......................|.......................|.......................|
.......................|.......................|.......................|.......................|.......................|.......................|.......................|.......................|.......................|.......................|
.......................|.......................|.......................|.......................|.......................|.......................|.......................|.......................|.......................|.......................|
.......................|.......................|.......................|.......0452............|.......................|.......................|.......................|.......................|.......................|.......................|
.......................|.......................|.......................|.......................|.......................|.......................|.......................|.......................|.......................|.......................|
.......................|.......................|.......................|.......................|.......................|.......................|.......................|.......................|.......................|.......................|
.......................|.......................|.......................|.......................|.......................|.......................|.......................|.......................|.......................|.......................|
.......................|.......................|.......................|.......................|.......................|.......................|.......................|.......................|.......................|.......................|
.......................|.......................|.......................|C-0....................|.......................|.......................|.......................|.......................|.......................|.......................|
.......................|.......................|.......................|F-5....0400............|.......................|.......................|.......................|.......................|.......................|.......................|
.......................|.......................|.......................|.......................|.......................|.......................|.......................|.......................|.......................|.......................|
.......................|.......................|.......................|.......................|.......................|.......................|.......................|.......................|.......................|.......................|
.......................|.......................|.......................|.......................|.......................|.......................|.......................|.......................|.......................|.......................|
.......................|.......................|.......................|.......................|.......................|.......................|.......................|.......................|.......................|.......................|
.......................|.......................|C-0....................|.......................|.......................|.......................|.......................|.......................|.......................|.......................|
.......................|.......................|E-5....................|.......................|.......................|.......................|.......................|.......................|.......................|.......................|
.......................|.......................|.......................|.......................|.......................|.......................|.......................|.......................|.......................|.......................|
.......................|.......................|.......................|.......................|.......................|.......................|.......................|.......................|.......................|.......................|
.......................|.......................|.......................|.......................|.......................|.......................|.......................|.......................|.......................|.......................|
.......................|.......................|.......................|.......................|.......................|.......................|.......................|.......................|.......................|.......................|
.......................|.......................|.......................|.......................|.......................|.......................|.......................|.......................|.......................|.......................|
.......................|.......................|.......................|.......................|.......................|.......................|.......................|.......................|.......................|.......................|
.......................|.......................|.......................|.......................|.......................|.......................|.......................|.......................|.......................|.......................|
.......................|.......................|.......................|.......................|.......................|.......................|.......................|.......................|.......................|.......................|
.......................|.......................|.......................|.......................|.......................|.......................|.......................|.......................|.......................|.......................|
.......................|.......................|.......................|.......................|.......................|.......................|.......................|.......................|.......................|.......................|
.......................|.......................|C-0....................|C-0....................|.......................|.......................|.......................|.......................|.......................|.......................|
A#2....................|A#3....................|D-5....................|E-5....................|.......................|C-4CE..................|F-2....................|D-2....................|.......................|.......................|
.......................|.......................|.......................|.......................|.......................|.......................|.......................|.......................|.......................|.......................|
.......................|.......................|.......................|.......................|.......................|.......................|.......................|.......................|.......................|.......................|
.......................|.......................|.......................|.......................|.......................|.......................|.......................|.......................|.......................|.......................|
.......................|.......................|.......................|.......................|.......................|.......................|.......................|.......................|.......................|.......................|
.......................|.......................|C-0....................|.......................|.......................|.......................|.......................|.......................|.......................|.......................|
.......................|.......................|C#5....................|.......................|.......................|.......................|.......................|.......................|.......................|.......................|
.......................|.......................|.......................|.......................|.......................|.......................|.......................|.......................|.......................|.......................|
.......................|.......................|.......................|.......................|.......................|.......................|.......................|.......................|.......................|.......................|
.......................|.......................|.......................|.......................|.......................|.......................|.......................|.......................|.......................|.......................|
.......................|.......................|.......................|.......................|.......................|.......................|.......................|.......................|.......................|.......................|
C-0....................|C-0....................|C-0....................|C-0....................|.......................|.......................|C-0....................|C-0....................|.......................|.......................|
.......................|.......................|D-5....................|D-5....................|A#3....................|.......................|C-0....................|C-0....................|.......................|.......................|
.......................|.......................|.......................|.......................|.......................|.......................|.......................|.......................|.......................|.......................|
.......................|.......................|.......................|.......................|.......................|.......................|.......................|.......................|.......................|.......................|
.......................|.......................|.......................|.......................|.......................|.......................|.......................|.......................|.......................|.......................|
.......................|.......................|.......................|.......................|.......................|.......................|.......................|.......................|.......................|.......................|
.......................|.......................|C-0....................|C-0....................|.......................|.......................|.......................|.......................|.......................|.......................|
.......................|.......................|A-4....................|C#5....................|.......................|.......................|.......................|.......................|.......................|.......................|
.......................|.......................|.......................|.......................|.......................|.......................|.......................|.......................|.......................|.......................|
.......................|.......................|.......................|.......................|.......................|.......................|.......................|.......................|.......................|.......................|
.......................|.......................|.......................|.......................|.......................|.......................|.......................|.......................|.......................|.......................|
.......................|.......................|.......................|.......................|.......................|.......................|.......................|.......................|.......................|.......................|
.......................|.......................|C-0....................|C-0....................|C-0....................|.......................|.......................|.......................|.......................|.......................|
.......................|.......................|A#4....................|D-5....................|.......................|.......................|.......................|.......................|.......................|.......................|
.......................|.......................|.......................|.......................|.......................|.......................|.......................|.......................|.......................|.......................|
.......................|.......................|.......................|.......................|.......................|.......................|.......................|.......................|.......................|.......................|
.......................|.......................|.......................|.......................|.......................|.......................|.......................|.......................|.......................|.......................|
.......................|.......................|.......................|.......................|.......................|.......................|.......................|.......................|.......................|.......................|
.......................|.......................|C-0....................|C-0....................|.......................|.......................|.......................|.......................|.......................|.......................|
.......................|.......................|A-4....................|A-4....................|.......................|.......................|.......................|.......................|.......................|.......................|
.......................|.......................|.......................|.......................|.......................|.......................|.......................|.......................|.......................|.......................|
.......................|.......................|.......................|.......................|.......................|.......................|.......................|.......................|.......................|.......................|
.......................|.......................|.......................|.......................|.......................|.......................|.......................|.......................|.......................|.......................|
.......................|.......................|.......................|.......................|.......................|.......................|.......................|.......................|.......................|.......................|
.......................|.......................|C-0....................|C-0....................|.......................|.......................|.......................|.......................|.......................|.......................|
A#3....................|D-4....................|D-5....................|A#4....................|.......................|C-4CE..................|F-2....................|D-2....................|.......................|.......................|
.......................|.......................|.......................|.......................|.......................|.......................|.......................|.......................|.......................|.......................|
.......................|.......................|.......................|.......................|.......................|.......................|.......................|.......................|.......................|.......................|
.......................|.......................|.......................|.......................|.......................|.......................|.......................|.......................|.......................|.......................|
.......................|.......................|.......................|.......................|.......................|.......................|.......................|.......................|.......................|.......................|
.......................|.......................|C-0....................|C-0....................|.......................|.......................|.......................|.......................|.......................|.......................|
.......................|.......................|E-5....................|A-4....................|.......................|.......................|.......................|.......................|C-0....................|.......................|
.......................|.......................|.......................|.......................|.......................|.......................|.......................|.......................|.......................|.......................|
.......................|.......................|.......................|.......................|.......................|.......................|.......................|.......................|.......................|.......................|
.......................|.......................|.......................|.......................|.......................|.......................|.......................|.......................|.......................|.......................|
.......................|.......................|.......................|.......................|.......................|.......................|.......................|.......................|.......................|.......................|
C-0....................|C-0....................|C-0....................|C-0....................|.......................|.......................|C-0....................|C-0....................|.......................|.......................|
.......................|.......................|F-5....................|D-5....................|D-4....................|.......................|C-0....................|C-0....................|.......................|.......................|
.......................|.......................|.......................|.......................|.......................|.......................|.......................|.......................|.......................|.......................|
.......................|.......................|.......................|.......................|.......................|.......................|.......................|.......................|.......................|.......................|
.......................|.......................|.......................|.......................|.......................|.......................|.......................|.......................|.......................|.......................|
.......................|.......................|.......................|.......................|.......................|.......................|.......................|.......................|.......................|.......................|
.......................|.......................|C-0....................|C-0....................|.......................|.......................|.......................|.......................|.......................|.......................|
.......................|.......................|G-5....................|E-5....................|.......................|.......................|.......................|.......................|.......................|.......................|
.......................|.......................|.......................|.......................|.......................|.......................|.......................|.......................|.......................|.......................|
.......................|.......................|.......................|.......................|.......................|.......................|.......................|.......................|.......................|.......................|
.......................|.......................|.......................|.......................|.......................|.......................|.......................|.......................|.......................|.......................|
.......................|.......................|.......................|.......................|.......................|.......................|.......................|.......................|.......................|.......................|
.......................|.......................|C-0....................|C-0....................|C-0....................|.......................|.......................|.......................|.......................|.......................|
.......................|.......................|C-0....................|F-5....................|.......................|.......................|.......................|.......................|.......................|.......................|
.......................|.......................|.......................|.......................|.......................|.......................|.......................|.......................|.......................|.......................|
.......................|.......................|.......................|.......................|.......................|.......................|.......................|.......................|.......................|.......................|
.......................|.......................|.......................|.......................|.......................|.......................|.......................|.......................|.......................|.......................|
.......................|.......................|.......................|.......................|.......................|.......................|.......................|.......................|.......................|.......................|
.......................|.......................|C-0....................|C-0....................|.......................|.......................|.......................|.......................|.......................|.......................|
.......................|.......................|C-0....................|G-5....................|.......................|.......................|.......................|.......................|.......................|.......................|
.......................|.......................|.......................|.......................|.......................|.......................|.......................|.......................|.......................|.......................|
.......................|.......................|.......................|.......................|.......................|.......................|.......................|.......................|.......................|.......................|
.......................|.......................|.......................|.......................|.......................|.......................|.......................|.......................|.......................|.......................|
.......................|.......................|.......................|.......................|.......................|.......................|.......................|.......................|.......................|.......................|
.......................|.......................|C-0....................|C-0....................|.......................|.......................|.......................|.......................|.......................|.......................|
.......................|.......................|C-0....................|C-0....................|.......................|.......................|.......................|.......................|.......................|.......................|
.......................|.......................|.......................|.......................|.......................|.......................|.......................|.......................|.......................|.......................|
.......................|.......................|.......................|.......................|.......................|.......................|.......................|.......................|.......................|.......................|
.......................|.......................|.......................|.......................|.......................|.......................|.......................|.......................|.......................|.......................|
.......................|.......................|.......................|.......................|.......................|.......................|.......................|.......................|.......................|.......................|
.......................|.......................|C-0....................|C-0....................|.......................|.......................|.......................|.......................|.......................|.......................|
.......................|.......................|C-0....................|C-0....................|.......................|.......................|.......................|.......................|.......................|.......................|
.......................|.......................|.......................|.......................|.......................|.......................|.......................|.......................|.......................|.......................|
.......................|.......................|.......................|.......................|.......................|.......................|.......................|.......................|.......................|.......................|
.......................|.......................|.......................|.......................|.......................|.......................|.......................|.......................|.......................|.......................|
.......................|.......................|.......................|.......................|.......................|.......................|.......................|.......................|.......................|.......................|
.......................|.......................|C-0....................|C-0....................|.......................|.......................|.......................|.......................|.......................|.......................|
.......................|.......................|C-0....................|C-0....................|.......................|.......................|.......................|.......................|.......................|.......................|
.......................|.......................|.......................|.......................|.......................|.......................|.......................|.......................|.......................|.......................|
.......................|.......................|.......................|.......................|.......................|.......................|.......................|.......................|.......................|.......................|
.......................|.......................|.......................|.......................|.......................|.......................|.......................|.......................|.......................|.......................|
.......................|.......................|.......................|.......................|.......................|.......................|.......................|.......................|.......................|.......................|
.......................|.......................|C-0....................|C-0....................|.......................|.......................|.......................|.......................|.......................|.......................|
.......................|.......................|C-0....................|C-0....................|.......................|.......................|.......................|.......................|.......................|.......................|
.......................|.......................|.......................|.......................|.......................|.......................|.......................|.......................|.......................|.......................|
.......................|.......................|.......................|.......................|.......................|.......................|.......................|.......................|.......................|.......................|
.......................|.......................|.......................|.......................|.......................|.......................|.......................|.......................|.......................|.......................|
.......................|.......................|.......................|.......................|.......................|.......................|.......................|.......................|.......................|.......................|
.......................|.......................|C-0....................|C-0....................|.......................|.......................|.......................|.......................|.......................|.......................|
A-2....................|C-4....................|C-0....................|C-0....................|.......................|C-4C6..................|G-2....................|E-2....................|.......................|.......................|
.......................|.......................|.......................|.......................|.......................|.......................|.......................|.......................|.......................|.......................|
.......................|.......................|.......................|.......................|.......................|.......................|.......................|.......................|.......................|.......................|
.......................|.......................|.......................|.......................|.......................|.......................|.......................|.......................|.......................|.......................|
.......................|.......................|.......................|.......................|.......................|.......................|.......................|.......................|.......................|.......................|
.......................|.......................|C-0....................|C-0....................|.......................|.......................|.......................|.......................|.......................|.......................|
.......................|.......................|C-0....................|C-0....................|.......................|.......................|.......................|.......................|.......................|.......................|
.......................|.......................|.......................|.......................|.......................|.......................|.......................|.......................|.......................|.......................|
.......................|.......................|.......................|.......................|.......................|.......................|.......................|.......................|.......................|.......................|
.......................|.......................|.......................|.......................|.......................|.......................|.......................|.......................|.......................|.......................|
.......................|.......................|.......................|.......................|.......................|.......................|.......................|.......................|.......................|.......................|
C-0....................|C-0....................|C-0....................|C-0....................|.......................|.......................|C-0....................|C-0....................|.......................|.......................|
.......................|.......................|C-0....................|C-0....................|C-4....................|.......................|C-0....................|C-0....................|.......................|.......................|
.......................|.......................|.......................|.......................|.......................|.......................|.......................|.......................|.......................|.......................|
.......................|.......................|.......................|.......................|.......................|.......................|.......................|.......................|.......................|.......................|
.......................|.......................|.......................|.......................|.......................|.......................|.......................|.......................|.......................|.......................|
.......................|.......................|.......................|.......................|.......................|.......................|.......................|.......................|.......................|.......................|
.......................|.......................|C-0....................|C-0....................|.......................|.......................|.......................|.......................|.......................|.......................|
.......................|.......................|G-5....................|C-0....................|.......................|.......................|.......................|.......................|.......................|.......................|
.......................|.......................|.......................|.......................|.......................|.......................|.......................|.......................|.......................|.......................|
org.tildearrow.furnace - Pattern Data (219)
0
.......................|.......................|.......................|.......................|.......................|.......................|.......................|.......................|.......................|.......................|
.......................|.......................|.......................|.......................|.......................|.......................|.......................|.......................|.......................|.......................|
.......................|.......................|.......................|.......................|.......................|.......................|.......................|.......................|.......................|.......................|
.......................|.......................|C-0....................|C-0....................|C-0....................|.......................|.......................|.......................|.......................|.......................|
.......................|.......................|F-5....................|C-0....................|.......................|.......................|.......................|.......................|.......................|.......................|
.......................|.......................|.......................|.......................|.......................|.......................|.......................|.......................|.......................|.......................|
.......................|.......................|.......................|.......................|.......................|.......................|.......................|.......................|.......................|.......................|
.......................|.......................|.......................|.......................|.......................|.......................|.......................|.......................|.......................|.......................|
.......................|.......................|.......................|.......................|.......................|.......................|.......................|.......................|.......................|.......................|
.......................|.......................|C-0....................|C-0....................|.......................|.......................|.......................|.......................|.......................|.......................|
.......................|.......................|E-5....................|G-5....................|.......................|.......................|.......................|.......................|.......................|.......................|
.......................|.......................|.......................|.......................|.......................|.......................|.......................|.......................|.......................|.......................|
.......................|.......................|.......................|.......................|.......................|.......................|.......................|.......................|.......................|.......................|
.......................|.......................|.......................|.......................|.......................|.......................|.......................|.......................|.......................|.......................|
.......................|.......................|.......................|.......................|.......................|.......................|.......................|.......................|.......................|.......................|
.......................|.......................|C-0....................|C-0....................|.......................|.......................|.......................|.......................|.......................|.......................|
A-3....................|C#4....................|D-5....................|F-5....................|.......................|C-4C6..................|G-2....................|E-2....................|.......................|.......................|
.......................|.......................|.......................|.......................|.......................|.......................|.......................|.......................|.......................|.......................|
.......................|.......................|.......................|.......................|.......................|.......................|.......................|.......................|.......................|.......................|
.......................|.......................|.......................|.......................|.......................|.......................|.......................|.......................|.......................|.......................|
.......................|.......................|.......................|.......................|.......................|.......................|.......................|.......................|.......................|.......................|
.......................|.......................|C-0....................|C-0....................|.......................|.......................|.......................|.......................|.......................|.......................|
.......................|.......................|C#5....................|E-5....................|.......................|.......................|.......................|.......................|C-0....................|.......................|
.......................|.......................|.......................|.......................|.......................|.......................|.......................|.......................|.......................|.......................|
.......................|.......................|.......................|.......................|.......................|.......................|.......................|.......................|.......................|.......................|
.......................|.......................|.......................|.......................|.......................|.......................|.......................|.......................|.......................|.......................|
.......................|.......................|.......................|.......................|.......................|.......................|.......................|.......................|.......................|.......................|
C-0....................|C-0....................|C-0....................|C-0....................|.......................|.......................|C-0....................|C-0....................|.......................|.......................|
.......................|.......................|D-5....................|D-5....................|C#4....................|.......................|C-0....................|C-0....................|.......................|.......................|
.......................|.......................|.......................|.......................|.......................|.......................|.......................|.......................|.......................|.......................|
.......................|.......................|.......................|.......................|.......................|.......................|.......................|.......................|.......................|.......................|
.......................|.......................|.......................|.......................|.......................|.......................|.......................|.......................|.......................|.......................|
.......................|.......................|.......................|.......................|.......................|.......................|.......................|.......................|.......................|.......................|
.......................|.......................|C-0....................|C-0....................|.......................|.......................|.......................|.......................|.......................|.......................|
.......................|.......................|A-4....................|C#5....................|.......................|.......................|.......................|.......................|.......................|.......................|
.......................|.......................|.......................|.......................|.......................|.......................|.......................|.......................|.......................|.......................|
.......................|.......................|.......................|.......................|.......................|.......................|.......................|.......................|.......................|.......................|
.......................|.......................|.......................|.......................|.......................|.......................|.......................|.......................|.......................|.......................|
.......................|.......................|.......................|.......................|.......................|.......................|.......................|.......................|.......................|.......................|
.......................|.......................|C-0....................|C-0....................|C-0....................|.......................|.......................|.......................|.......................|.......................|
.......................|.......................|A#4....................|D-5....................|.......................|.......................|.......................|.......................|.......................|.......................|
.......................|.......................|.......................|.......................|.......................|.......................|.......................|.......................|.......................|.......................|
.......................|.......................|.......................|.......................|.......................|.......................|.......................|.......................|.......................|.......................|
.......................|.......................|.......................|.......................|.......................|.......................|.......................|.......................|.......................|.......................|
.......................|.......................|.......................|.......................|.......................|.......................|.......................|.......................|.......................|.......................|
.......................|.......................|C-0....................|C-0....................|.......................|.......................|.......................|.......................|.......................|.......................|
.......................|.......................|G-4....................|A-4....................|.......................|.......................|.......................|.......................|.......................|.......................|
.......................|.......................|.......................|.......................|.......................|.......................|.......................|.......................|.......................|.......................|
.......................|.......................|.......................|.......................|.......................|.......................|.......................|.......................|.......................|.......................|
.......................|.......................|.......................|.......................|.......................|.......................|.......................|.......................|.......................|.......................|
.......................|.......................|.......................|.......................|.......................|.......................|.......................|.......................|.......................|.......................|
.......................|.......................|C-0....................|C-0....................|.......................|.......................|.......................|.......................|.......................|.......................|
.......................|.......................|A-4....................|A#4....................|.......................|.......................|.......................|.......................|.......................|.......................|
.......................|.......................|.......................|.......................|.......................|.......................|.......................|.......................|.......................|.......................|
.......................|.......................|.......................|.......................|.......................|.......................|.......................|.......................|.......................|.......................|
.......................|.......................|.......................|.......................|.......................|.......................|.......................|.......................|.......................|.......................|
.......................|.......................|.......................|.......................|.......................|.......................|.......................|.......................|.......................|.......................|
.......................|.......................|C-0....................|C-0....................|.......................|.......................|.......................|.......................|.......................|.......................|
.......................|.......................|F-4....................|G-4....................|.......................|.......................|.......................|.......................|.......................|.......................|
.......................|.......................|.......................|.......................|.......................|.......................|.......................|.......................|.......................|.......................|
.......................|.......................|.......................|.......................|.......................|.......................|.......................|.......................|.......................|.......................|
.......................|.......................|.......................|.......................|.......................|.......................|.......................|.......................|.......................|.......................|
.......................|.......................|.......................|.......................|.......................|.......................|.......................|.......................|.......................|.......................|
.......................|.......................|C-0....................|C-0....................|.......................|.......................|.......................|.......................|.......................|.......................|
.......................|.......................|G-4....................|A-4....................|.......................|.......................|.......................|.......................|.......................|.......................|
.......................|.......................|.......................|.......................|.......................|.......................|.......................|.......................|.......................|.......................|
.......................|.......................|.......................|.......................|.......................|.......................|.......................|.......................|.......................|.......................|
.......................|.......................|.......................|.......................|.......................|.......................|.......................|.......................|.......................|.......................|
.......................|.......................|.......................|.......................|.......................|.......................|.......................|.......................|.......................|.......................|
.......................|.......................|C-0....................|C-0....................|.......................|.......................|.......................|.......................|.......................|.......................|
.......................|.......................|E-4....................|F-4....................|.......................|.......................|.......................|.......................|C-0....C034............|.......................|
.......................|.......................|.......................|.......................|.......................|.......................|.......................|.......................|.......................|.......................|
.......................|.......................|.......................|.......................|.......................|.......................|.......................|.......................|.......................|.......................|
.......................|.......................|.......................|.......................|.......................|.......................|.......................|.......................|.......................|.......................|
.......................|.......................|.......................|.......................|.......................|.......................|.......................|.......................|.......................|.......................|
.......................|.......................|C-0....................|C-0....................|.......................|.......................|.......................|.......................|.......................|.......................|
A-2....................|A-2....................|A-3....................|G-4....................|.......................|.......................|A-0....................|C-0....................|C-0....................|.......................|
.......................|.......................|.......................|.......................|.......................|.......................|.......................|.......................|.......................|.......................|
.......................|.......................|.......................|.......................|.......................|.......................|.......................|.......................|.......................|.......................|
.......................|.......................|.......................|.......................|.......................|.......................|.......................|.......................|C-0....................|.......................|
.......................|.......................|.......................|.......................|.......................|.......................|.......................|.......................|.......................|.......................|
.......................|.......................|.......................|C-0....................|.......................|.......................|.......................|.......................|.......................|.......................|
.......................|.......................|.......................|E-4....................|.......................|.......................|.......................|.......................|.......................|.......................|
.......................|.......................|.......................|.......................|.......................|.......................|.......................|.......................|.......................|.......................|
.......................|.......................|.......................|.......................|.......................|.......................|.......................|.......................|.......................|.......................|
.......................|.......................|.......................|.......................|.......................|.......................|.......................|.......................|.......................|.......................|
.......................|.......................|.......................|.......................|.......................|.......................|.......................|.......................|.......................|.......................|
.......................|.......................|.......................|C-0....................|.......................|.......................|.......................|.......................|.......................|.......................|
.......................|.......................|.......................|A-3....................|A-2....................|.......................|.......................|A-0..085304............|.......................|.......................|
.......................|.......................|.......................|.......................|.......................|.......................|.......................|.......................|.......................|.......................|
.......................|.......................|.......................|.......................|.......................|.......................|.......................|.......................|.......................|.......................|
.......................|.......................|.......................|.......................|.......................|.......................|.......................|.......................|.......................|.......................|
.......................|.......................|.......................|.......................|.......................|.......................|.......................|.......................|.......................|.......................|
.......................|.......................|.......................|.......................|.......................|.......................|.......................|.......................|.......................|.......................|
.......................|.......................|.......................|.......................|.......................|.......................|.......................|.......................|.......................|.......................|
.......................|.......................|.......................|.......................|.......................|.......................|.......................|.......................|.......................|.......................|
.......................|.......................|.......................|.......................|.......................|.......................|.......................|.......................|.......................|.......................|
.......................|.......................|.......................|.......................|.......................|.......................|.......................|.......................|.......................|.......................|
.......................|.......................|.......................|.......................|.......................|.......................|.......................|.......................|.......................|.......................|
.......................|.......................|.......................|.......................|.......................|.......................|.......................|.......................|.......................|.......................|
.......0452............|.......0452............|.......0452............|.......................|.......................|.......................|.......0452............|.......................|.......................|.......................|
.......................|.......................|.......................|.......................|.......................|.......................|.......................|.......................|.......................|.......................|
.......................|.......................|.......................|.......................|.......................|.......................|.......................|.......................|.......................|.......................|
.......................|.......................|.......................|.......................|.......................|.......................|.......................|.......................|.......................|.......................|
.......................|.......................|.......................|.......................|.......................|.......................|.......................|.......................|.......................|.......................|
.......................|.......................|.......................|.......................|.......................|.......................|.......................|.......................|.......................|.......................|
.......................|.......................|.......................|.......................|.......................|.......................|.......................|.......................|.......................|.......................|
.......................|.......................|.......................|.......................|.......................|.......................|.......................|.......................|.......................|.......................|
.......................|.......................|.......................|.......................|.......................|.......................|.......................|.......................|.......................|.......................|
.......................|.......................|.......................|.......................|.......................|.......................|.......................|.......................|.......................|.......................|
.......................|.......................|.......................|.......................|.......................|.......................|.......................|.......................|.......................|.......................|
.......................|.......................|.......................|.......................|.......................|.......................|.......................|.......................|.......................|.......................|
.......................|.......................|.......................|.......0452............|.......0452............|.......................|.......................|.......0452............|.......................|.......................|
.......................|.......................|.......................|.......................|.......................|.......................|.......................|.......................|.......................|.......................|
.......................|.......................|.......................|.......................|.......................|.......................|.......................|.......................|.......................|.......................|
.......................|.......................|.......................|.......................|.......................|.......................|.......................|.......................|.......................|.......................|
.......................|.......................|.......................|.......................|.......................|.......................|.......................|.......................|.......................|.......................|
.......................|.......................|.......................|.......................|.......................|.......................|.......................|.......................|.......................|.......................|
.......................|.......................|.......................|.......................|.......................|.......................|.......................|.......................|.......................|.......................|
.......................|.......................|.......................|.......................|.......................|.......................|.......................|.......................|.......................|.......................|
.......................|.......................|.......................|.......................|.......................|.......................|.......................|.......................|.......................|.......................|
.......................|.......................|.......................|.......................|.......................|.......................|.......................|.......................|.......................|.......................|
.......................|.......................|.......................|.......................|.......................|.......................|.......................|.......................|.......................|.......................|
.......................|.......................|.......................|.......................|.......................|.......................|.......................|.......................|.......................|.......................|
.......................|.......................|.......................|.......................|.......................|.......................|.......................|.......................|.......................|.......................|
.......................|.......................|.......................|.......................|.......................|.......................|.......................|.......................|.......................|.......................|
.......................|.......................|.......................|.......................|.......................|.......................|.......................|.......................|.......................|.......................|
.......................|.......................|.......................|.......................|.......................|.......................|.......................|.......................|.......................|.......................|
.......................|.......................|.......................|.......................|.......................|.......................|.......................|.......................|.......................|.......................|
.......................|.......................|.......................|.......................|.......................|.......................|.......................|.......................|.......................|.......................|
.......................|.......................|.......................|.......................|.......................|.......................|.......................|.......................|.......................|.......................|
.......................|.......................|.......................|.......................|.......................|.......................|.......................|.......................|.......................|.......................|
.......................|.......................|.......................|.......................|.......................|.......................|.......................|.......................|.......................|.......................|
.......................|.......................|.......................|.......................|.......................|.......................|.......................|.......................|.......................|.......................|
.......................|.......................|.......................|.......................|.......................|.......................|.......................|.......................|.......................|.......................|
.......................|.......................|.......................|.......................|.......................|.......................|.......................|.......................|.......................|.......................|
.......................|.......................|.......................|.......................|.......................|.......................|.......................|.......................|.......................|.......................|
.......................|.......................|.......................|.......................|.......................|.......................|.......................|.......................|.......................|.......................|
.......................|.......................|.......................|.......................|.......................|.......................|.......................|.......................|.......................|.......................|
.......................|.......................|.......................|.......................|.......................|.......................|.......................|.......................|.......................|.......................|
.......................|.......................|.......................|.......................|.......................|.......................|.......................|.......................|.......................|.......................|
.......................|.......................|.......................|.......................|.......................|.......................|.......................|.......................|.......................|.......................|
.......................|.......................|.......................|.......................|.......................|.......................|.......................|.......................|.......................|.......................|
.......................|.......................|.......................|.......................|.......................|.......................|.......................|.......................|.......................|.......................|
.......................|.......................|.......................|.......................|.......................|.......................|.......................|.......................|.......................|.......................|
.......................|.......................|.......................|.......................|.......................|.......................|.......................|.......................|.......................|.......................|
.......................|.......................|.......................|.......................|.......................|.......................|.......................|.......................|.......................|.......................|
.......................|C-0....................|.......................|.......................|.......................|.......................|.......................|.......................|.......................|.......................|
.......................|.......................|.......................|.......................|.......................|.......................|.......................|.......................|.......................|.......................|
.......................|.......................|.......................|.......................|.......................|.......................|.......................|.......................|.......................|.......................|
.......................|.......................|.......................|.......................|.......................|.......................|.......................|.......................|.......................|.......................|
.......................|.......................|.......................|.......................|.......................|.......................|.......................|.......................|.......................|.......................|
.......................|.......................|.......................|.......................|.......................|.......................|.......................|.......................|.......................|.......................|
.......................|.......................|.......................|.......................|.......................|.......................|.......................|.......................|.......................|.......................|
.......................|.......................|.......................|.......................|.......................|.......................|.......................|.......................|.......................|.......................|
.......................|.......................|.......................|.......................|.......................|.......................|.......................|.......................|.......................|.......................|
.......................|.......................|.......................|.......................|.......................|.......................|.......................|.......................|.......................|.......................|
.......................|.......................|.......................|.......................|.......................|.......................|.......................|.......................|.......................|.......................|
.......................|.......................|.......................|.......................|.......................|.......................|.......................|.......................|.......................|.......................|
.......................|.......................|.......................|.......................|C-0....................|.......................|.......................|.......................|.......................|.......................|
.......................|D-411..0400............|.......................|.......................|.......................|.......................|.......................|.......................|.......................|.......................|
.......................|.......................|.......................|.......................|.......................|.......................|.......................|.......................|.......................|.......................|
.......................|.......................|.......................|.......................|.......................|.......................|.......................|.......................|.......................|.......................|
.......................|.......................|.......................|.......................|.......................|.......................|.......................|.......................|.......................|.......................|
.......................|.......................|.......................|.......................|.......................|.......................|.......................|.......................|.......................|.......................|
.......................|C-0....................|.......................|.......................|.......................|.......................|.......................|.......................|.......................|.......................|
.......................|E-4....................|.......................|.......................|.......................|.......................|.......................|.......................|.......................|.......................|
.......................|.......................|.......................|.......................|.......................|.......................|.......................|.......................|.......................|.......................|
.......................|.......................|.......................|.......................|.......................|.......................|.......................|.......................|.......................|.......................|
.......................|.......................|.......................|.......................|.......................|.......................|.......................|.......................|.......................|.......................|
.......................|.......................|.......................|.......................|.......................|.......................|.......................|.......................|.......................|.......................|
C-0....................|C-0....................|C-0....................|C-0....................|.......................|.......................|C-0....................|C-0....................|.......................|.......................|
.......................|F-4....0400EA00........|D-3156704008080EA00....|.......................|D-411..04005305........|.......................|C-0....................|C-0....................|.......................|.......................|
.......................|.......................|.......................|.......................|.......................|.......................|.......................|.......................|.......................|.......................|
.......................|.......................|.......................|.......................|.......................|.......................|.......................|.......................|.......................|.......................|
.......................|.......................|.......................|.......................|.......................|.......................|.......................|.......................|C-0....................|.......................|
.......................|.......................|.......................|.......................|.......................|.......................|.......................|.......................|.......................|.......................|
.......................|.......................|.......................|.......................|C-0....................|.......................|.......................|.......................|.......................|.......................|
.......................|.......................|.......................|D-41163040053058000EA00|E-4....................|.......................|.......................|.......................|.......................|.......................|
.......................|.......................|.......................|.......................|.......................|.......................|.......................|.......................|.......................|.......................|
.......................|.......................|.......................|.......................|.......................|.......................|.......................|.......................|.......................|.......................|
.......................|.......................|.......................|.......................|.......................|.......................|.......................|.......................|.......................|.......................|
.......................|.......................|.......................|.......................|.......................|.......................|.......................|.......................|.......................|.......................|
.......................|.......................|.......................|C-0....................|C-0....................|.......................|.......................|.......................|.......0B000D00........|.......................|
.......................|.......................|.......................|.......................|.......................|.......................|.......................|.......................|.......................|.......................|
.......................|.......................|.......................|.......................|.......................|.......................|.......................|.......................|.......................|.......................|
.......................|.......................|.......................|.......................|.......................|.......................|.......................|.......................|.......................|.......................|
.......................|.......................|.......................|.......................|.......................|.......................|.......................|.......................|.......................|.......................|
.......................|.......................|.......................|.......................|.......................|.......................|.......................|.......................|.......................|.......................|
.......................|.......................|.......................|.......................|.......................|.......................|.......................|.......................|.......................|.......................|
.......................|.......................|.......................|.......................|.......................|.......................|.......................|.......................|.......................|.......................|
.......................|.......................|.......................|.......................|.......................|.......................|.......................|.......................|.......................|.......................|
.......................|.......................|.......................|.......................|.......................|.......................|.......................|.......................|.......................|.......................|
.......................|.......................|.......................|.......................|.......................|.......................|.......................|.......................|.......................|.......................|
.......................|.......................|.......................|.......................|.......................|.......................|.......................|.......................|.......................|.......................|
.......................|.......................|.......................|.......................|.......................|.......................|.......................|.......................|.......................|.......................|
.......................|.......................|.......................|.......................|.......................|.......................|.......................|.......................|.......................|.......................|
.......................|.......................|.......................|.......................|.......................|.......................|.......................|.......................|.......................|.......................|
.......................|.......................|.......................|.......................|.......................|.......................|.......................|.......................|.......................|.......................|
.......................|.......................|.......................|.......................|.......................|.......................|.......................|.......................|.......................|.......................|
.......................|.......................|.......................|.......................|.......................|.......................|.......................|.......................|.......................|.......................|
.......................|.......................|.......................|.......................|.......................|.......................|.......................|.......................|.......................|.......................|
.......................|.......................|.......................|.......................|.......................|.......................|.......................|.......................|.......................|.......................|
.......................|.......................|.......................|.......................|.......................|.......................|.......................|.......................|.......................|.......................|
.......................|.......................|.......................|.......................|.......................|.......................|.......................|.......................|.......................|.......................|
.......................|.......................|.......................|.......................|.......................|.......................|.......................|.......................|.......................|.......................|
.......................|.......................|.......................|.......................|.......................|.......................|.......................|.......................|.......................|.......................|
.......................|.......................|.......................|.......................|.......................|.......................|.......................|.......................|.......................|.......................|
.......................|.......................|.......................|.......................|.......................|.......................|.......................|.......................|.......................|.......................|
.......................|.......................|.......................|.......................|.......................|.......................|.......................|.......................|.......................|.......................|
.......................|.......................|.......................|.......................|.......................|.......................|.......................|.......................|.......................|.......................|
.......................|.......................|.......................|.......................|.......................|.......................|.......................|.......................|.......................|.......................|
.......................|.......................|.......................|.......................|.......................|.......................|.......................|.......................|.......................|.......................|
.......................|.......................|.......................|.......................|.......................|.......................|.......................|.......................|.......................|.......................|
.......................|.......................|.......................|.......................|.......................|.......................|.......................|.......................|.......................|.......................|
.......................|.......................|.......................|.......................|.......................|.......................|.......................|.......................|.......................|.......................|
.......................|.......................|.......................|.......................|.......................|.......................|.......................|.......................|.......................|.......................|
.......................|.......................|.......................|.......................|.......................|.......................|.......................|.......................|.......................|.......................|
.......................|.......................|.......................|.......................|.......................|.......................|.......................|.......................|.......................|.......................|
.......................|.......................|.......................|.......................|.......................|.......................|.......................|.......................|.......................|.......................|
.......................|.......................|.......................|.......................|.......................|.......................|.......................|.......................|.......................|.......................|
.......................|.......................|.......................|.......................|.......................|.......................|.......................|.......................|.......................|.......................|
.......................|.......................|.......................|.......................|.......................|.......................|.......................|.......................|.......................|.......................|
.......................|.......................|.......................|.......................|.......................|.......................|.......................|.......................|.......................|.......................|
.......................|.......................|.......................|.......................|.......................|.......................|.......................|.......................|.......................|.......................|
.......................|.......................|.......................|.......................|.......................|.......................|.......................|.......................|.......................|.......................|
.......................|.......................|.......................|.......................|.......................|.......................|.......................|.......................|.......................|.......................|
.......................|.......................|.......................|.......................|.......................|.......................|.......................|.......................|.......................|.......................|
.......................|.......................|.......................|.......................|.......................|.......................|.......................|.......................|.......................|.......................|
.......................|.......................|.......................|.......................|.......................|.......................|.......................|.......................|.......................|.......................|
.......................|.......................|.......................|.......................|.......................|.......................|.......................|.......................|.......................|.......................|
.......................|.......................|.......................|.......................|.......................|.......................|.......................|.......................|.......................|.......................|
.......................|.......................|.......................|.......................|.......................|.......................|.......................|.......................|.......................|.......................|
.......................|.......................|.......................|.......................|.......................|.......................|.......................|.......................|.......................|.......................|
.......................|.......................|.......................|.......................|.......................|.......................|.......................|.......................|.......................|.......................|
.......................|.......................|.......................|.......................|.......................|.......................|.......................|.......................|.......................|.......................|
.......................|.......................|.......................|.......................|.......................|.......................|.......................|.......................|.......................|.......................|
.......................|.......................|.......................|.......................|.......................|.......................|.......................|.......................|.......................|.......................|
.......................|.......................|.......................|.......................|.......................|.......................|.......................|.......................|.......................|.......................|
.......................|.......................|.......................|.......................|.......................|.......................|.......................|.......................|.......................|.......................|
.......................|.......................|.......................|.......................|.......................|.......................|.......................|.......................|.......................|.......................|
.......................|.......................|.......................|.......................|.......................|.......................|.......................|.......................|.......................|.......................|
.......................|.......................|.......................|.......................|.......................|.......................|.......................|.......................|.......................|.......................|
.......................|.......................|.......................|.......................|.......................|.......................|.......................|.......................|.......................|.......................|
.......................|.......................|.......................|.......................|.......................|.......................|.......................|.......................|.......................|.......................|
.......................|.......................|.......................|.......................|.......................|.......................|.......................|.......................|.......................|.......................|
.......................|.......................|.......................|.......................|.......................|.......................|.......................|.......................|.......................|.......................|
.......................|.......................|.......................|.......................|.......................|.......................|.......................|.......................|.......................|.......................|
.......................|.......................|.......................|.......................|.......................|.......................|.......................|.......................|.......................|.......................|
.......................|.......................|.......................|.......................|.......................|.......................|.......................|.......................|.......................|.......................|
.......................|.......................|.......................|.......................|.......................|.......................|.......................|.......................|.......................|.......................|
.......................|.......................|.......................|.......................|.......................|.......................|.......................|.......................|.......................|.......................|
.......................|.......................|.......................|.......................|.......................|.......................|.......................|.......................|.......................|.......................|
.......................|.......................|.......................|.......................|.......................|.......................|.......................|.......................|.......................|.......................|
.......................|.......................|.......................|.......................|.......................|.......................|.......................|.......................|.......................|.......................|
.......................|.......................|.......................|.......................|.......................|.......................|.......................|.......................|.......................|.......................|
