org.tildearrow.furnace - Pattern Data (219)
0
G#32174................|.......................|.......................|.......................|.......................|C-4C6..................|C-0....................|C-0....................|.......................|.......................|
.......................|.......................|.......................|.......................|.......................|.......................|.......................|.......................|.......................|.......................|
.......................|.......................|.......................|.......................|.......................|.......................|.......................|.......................|.......................|.......................|
.......................|.......................|.......................|.......................|.......................|.......................|.......................|.......................|.......................|.......................|
.......................|.......................|.......................|.......................|.......................|.......................|.......................|.......................|.......................|.......................|
C-0....................|.......................|.......................|.......................|.......................|.......................|.......................|.......................|.......................|.......................|
A#3....................|.......................|.......................|.......................|.......................|.......................|.......................|.......................|.......................|.......................|
.......................|.......................|.......................|.......................|.......................|.......................|.......................|.......................|.......................|.......................|
.......................|.......................|.......................|.......................|.......................|.......................|.......................|.......................|.......................|.......................|
.......................|.......................|.......................|.......................|.......................|.......................|.......................|.......................|.......................|.......................|
.......................|.......................|.......................|.......................|.......................|.......................|.......................|.......................|.......................|.......................|
C-0....................|.......................|.......................|.......................|.......................|.......................|.......................|.......................|.......................|.......................|
A#2....................|.......................|.......................|.......................|.......................|C-4C1..................|.......................|.......................|.......................|.......................|
.......................|.......................|.......................|.......................|.......................|.......................|.......................|.......................|.......................|.......................|
.......................|.......................|.......................|.......................|.......................|.......................|.......................|.......................|.......................|.......................|
.......................|.......................|.......................|.......................|.......................|.......................|.......................|.......................|.......................|.......................|
.......................|.......................|.......................|.......................|.......................|.......................|.......................|.......................|.......................|.......................|
.......................|.......................|.......................|.......................|.......................|.......................|.......................|.......................|.......................|.......................|
.......................|.......................|.......................|.......................|.......................|C-4C1..................|.......................|.......................|.......................|.......................|
.......................|.......................|.......................|.......................|.......................|.......................|.......................|.......................|.......................|.......................|
.......................|.......................|.......................|.......................|.......................|.......................|.......................|.......................|.......................|.......................|
.......................|.......................|.......................|.......................|.......................|.......................|.......................|.......................|.......................|.......................|
.......................|.......................|.......................|.......................|.......................|.......................|.......................|.......................|.......................|.......................|
C-0....................|.......................|.......................|.......................|.......................|.......................|.......................|.......................|.......................|.......................|
A#2....................|.......................|.......................|.......................|.......................|C-4C6..................|.......................|.......................|.......................|.......................|
.......................|.......................|.......................|.......................|.......................|.......................|.......................|.......................|.......................|.......................|
.......................|.......................|.......................|.......................|.......................|.......................|.......................|.......................|.......................|.......................|
.......................|.......................|.......................|.......................|.......................|.......................|.......................|.......................|.......................|.......................|
.......................|.......................|.......................|.......................|.......................|.......................|.......................|.......................|.......................|.......................|
.......................|.......................|.......................|.......................|.......................|.......................|.......................|.......................|.......................|.......................|
.......................|.......................|.......................|.......................|.......................|.......................|.......................|.......................|.......................|.......................|
.......................|.......................|.......................|.......................|.......................|.......................|.......................|.......................|.......................|.......................|
.......................|.......................|.......................|.......................|.......................|.......................|.......................|.......................|.......................|.......................|
.......................|.......................|.......................|.......................|.......................|.......................|.......................|.......................|.......................|.......................|
.......................|.......................|.......................|.......................|.......................|.......................|.......................|.......................|.......................|.......................|
C-0....................|.......................|.......................|.......................|.......................|.......................|.......................|.......................|.......................|.......................|
A#2....................|.......................|.......................|.......................|.......................|C-4C1..................|.......................|.......................|.......................|.......................|
.......................|.......................|.......................|.......................|.......................|.......................|.......................|.......................|.......................|.......................|
.......................|.......................|.......................|.......................|.......................|.......................|.......................|.......................|.......................|.......................|
.......................|.......................|.......................|.......................|.......................|.......................|.......................|.......................|.......................|.......................|
.......................|.......................|.......................|.......................|.......................|.......................|.......................|.......................|.......................|.......................|
.......................|.......................|.......................|.......................|.......................|.......................|.......................|.......................|.......................|.......................|
.......................|.......................|.......................|.......................|.......................|C-4C1..................|.......................|.......................|.......................|.......................|
.......................|.......................|.......................|.......................|.......................|.......................|.......................|.......................|.......................|.......................|
.......................|.......................|.......................|.......................|.......................|.......................|.......................|.......................|.......................|.......................|
.......................|.......................|.......................|.......................|.......................|.......................|.......................|.......................|.......................|.......................|
.......................|.......................|.......................|.......................|.......................|.......................|.......................|.......................|.......................|.......................|
C-0....................|.......................|.......................|.......................|.......................|.......................|.......................|.......................|.......................|.......................|
A#2....................|.......................|.......................|.......................|.......................|C-4C6..................|.......................|.......................|.......................|.......................|
.......................|.......................|.......................|.......................|.......................|.......................|.......................|.......................|.......................|.......................|
.......................|.......................|.......................|.......................|.......................|.......................|.......................|.......................|.......................|.......................|
.......................|.......................|.......................|.......................|.......................|.......................|.......................|.......................|.......................|.......................|
.......................|.......................|.......................|.......................|.......................|.......................|.......................|.......................|.......................|.......................|
.......................|.......................|.......................|.......................|.......................|.......................|.......................|.......................|.......................|.......................|
.......................|.......................|.......................|.......................|.......................|.......................|.......................|.......................|.......................|.......................|
.......................|.......................|.......................|.......................|.......................|.......................|.......................|.......................|.......................|.......................|
.......................|.......................|.......................|.......................|.......................|.......................|.......................|.......................|.......................|.......................|
.......................|.......................|.......................|.......................|.......................|.......................|.......................|.......................|.......................|.......................|
.......................|.......................|.......................|.......................|.......................|.......................|.......................|.......................|.......................|.......................|
C-0....................|.......................|.......................|.......................|.......................|.......................|.......................|.......................|.......................|.......................|
A#2....................|.......................|.......................|.......................|.......................|C-4C1..................|.......................|.......................|.......................|.......................|
.......................|.......................|.......................|.......................|.......................|.......................|.......................|.......................|.......................|.......................|
.......................|.......................|.......................|.......................|.......................|.......................|.......................|.......................|.......................|.......................|
.......................|.......................|.......................|.......................|.......................|.......................|.......................|.......................|.......................|.......................|
.......................|.......................|.......................|.......................|.......................|.......................|.......................|.......................|.......................|.......................|
.......................|.......................|.......................|.......................|.......................|.......................|.......................|.......................|.......................|.......................|
.......................|.......................|.......................|.......................|.......................|C-4C1..................|.......................|.......................|.......................|.......................|
.......................|.......................|.......................|.......................|.......................|.......................|.......................|.......................|.......................|.......................|
.......................|.......................|.......................|.......................|.......................|.......................|.......................|.......................|.......................|.......................|
.......................|.......................|.......................|.......................|.......................|.......................|.......................|.......................|.......................|.......................|
.......................|.......................|.......................|.......................|.......................|.......................|.......................|.......................|.......................|.......................|
C-0....................|.......................|.......................|.......................|.......................|.......................|.......................|.......................|.......................|.......................|
A#2....................|.......................|.......................|.......................|.......................|C-4C6..................|.......................|.......................|.......................|.......................|
.......................|.......................|.......................|.......................|.......................|.......................|.......................|.......................|.......................|.......................|
.......................|.......................|.......................|.......................|.......................|.......................|.......................|.......................|.......................|.......................|
.......................|.......................|.......................|.......................|.......................|.......................|.......................|.......................|.......................|.......................|
.......................|.......................|.......................|.......................|.......................|.......................|.......................|.......................|.......................|.......................|
.......................|.......................|.......................|.......................|.......................|.......................|.......................|.......................|.......................|.......................|
.......................|.......................|.......................|.......................|.......................|.......................|.......................|.......................|.......................|.......................|
.......................|.......................|.......................|.......................|.......................|.......................|.......................|.......................|.......................|.......................|
.......................|.......................|.......................|.......................|.......................|.......................|.......................|.......................|.......................|.......................|
.......................|.......................|.......................|.......................|.......................|.......................|.......................|.......................|.......................|.......................|
.......................|.......................|.......................|.......................|.......................|.......................|.......................|.......................|.......................|.......................|
C-0....................|.......................|.......................|.......................|.......................|.......................|.......................|.......................|.......................|.......................|
A#2....................|A#3205F................|C#3205F................|.......................|.......................|C-4C1..................|.......................|.......................|.......................|.......................|
.......................|.......................|.......................|.......................|.......................|.......................|.......................|.......................|.......................|.......................|
.......................|.......................|.......................|.......................|.......................|.......................|.......................|.......................|.......................|.......................|
.......................|.......................|.......................|.......................|.......................|.......................|.......................|.......................|.......................|.......................|
.......................|.......................|.......................|.......................|.......................|.......................|.......................|.......................|.......................|.......................|
.......................|C-0....................|C-0....................|.......................|.......................|.......................|.......................|.......................|.......................|.......................|
.......................|.......................|.......................|.......................|.......................|C-4C1..................|.......................|.......................|.......................|.......................|
.......................|.......................|.......................|.......................|.......................|.......................|.......................|.......................|.......................|.......................|
.......................|.......................|.......................|.......................|.......................|.......................|.......................|.......................|.......................|.......................|
.......................|.......................|.......................|.......................|.......................|.......................|.......................|.......................|.......................|.......................|
.......................|.......................|.......................|.......................|.......................|.......................|.......................|.......................|.......................|.......................|
C-0....................|.......................|.......................|.......................|.......................|.......................|.......................|.......................|.......................|.......................|
A#2....0400EA00........|F-4....0400EA00........|A#3....0400EA00........|.......0400EA00........|.......0400EA00........|C-4C6..0400EA00........|A#1A00A0400EA00........|F-1A00A0400EA00........|.......................|.......................|
.......................|.......................|.......................|.......................|.......................|.......................|.......................|.......................|.......................|.......................|
.......................|.......................|.......................|.......................|.......................|.......................|.......................|.......................|.......................|.......................|
.......................|.......................|.......................|.......................|.......................|.......................|.......................|.......................|.......................|.......................|
.......................|.......................|.......................|.......................|.......................|.......................|.......................|.......................|.......................|.......................|
.......................|.......................|.......................|.......................|.......................|.......................|C-0....................|C-0....................|.......................|.......................|
.......................|.......................|.......................|.......................|.......................|.......................|C-0....................|C-0....................|.......................|.......................|
.......................|.......................|.......................|.......................|.......................|.......................|.......................|.......................|.......................|.......................|
.......................|.......................|.......................|.......................|.......................|.......................|.......................|.......................|.......................|.......................|
.......................|.......................|.......................|.......................|.......................|.......................|.......................|.......................|.......................|.......................|
.......................|.......................|.......................|.......................|.......................|.......................|.......................|.......................|.......................|.......................|
C-0....................|.......................|.......................|.......................|.......................|.......................|.......................|.......................|.......................|.......................|
A#2....................|.......................|.......................|.......................|.......................|C-4C1..................|A#1....................|F-1....................|.......................|.......................|
.......................|.......................|.......................|.......................|.......................|.......................|.......................|.......................|.......................|.......................|
.......................|.......................|.......................|.......................|.......................|.......................|.......................|.......................|.......................|.......................|
.......................|.......................|.......................|.......................|.......................|.......................|.......................|.......................|.......................|.......................|
.......................|.......................|.......................|.......................|.......................|.......................|.......................|.......................|.......................|.......................|
.......................|.......................|.......................|.......................|.......................|.......................|C-0....................|C-0....................|.......................|.......................|
.......................|.......................|.......................|.......................|.......................|C-4C1..................|C-0....................|C-0....................|.......................|.......................|
.......................|.......................|.......................|.......................|.......................|.......................|.......................|.......................|.......................|.......................|
.......................|.......0452............|.......0452............|.......................|.......................|.......................|.......................|.......................|.......................|.......................|
.......................|.......................|.......................|.......................|.......................|.......................|.......................|.......................|.......................|.......................|
.......................|.......................|.......................|.......................|.......................|.......................|.......................|.......................|.......................|.......................|
C-0....................|C-0....................|C-0....................|.......................|.......................|.......................|.......................|.......................|.......................|.......................|
A#2....................|C#4....0400............|F-3....0400............|.......................|.......................|C-4C6..................|A#1....................|F-1....................|.......................|.......................|
.......................|.......................|.......................|.......................|.......................|.......................|.......................|.......................|.......................|.......................|
.......................|.......................|.......................|.......................|.......................|.......................|.......................|.......................|.......................|.......................|
.......................|.......................|.......................|.......................|.......................|.......................|.......................|.......................|.......................|.......................|
.......................|.......................|.......................|.......................|.......................|.......................|.......................|.......................|.......................|.......................|
.......................|.......................|.......................|.......................|.......................|.......................|C-0....................|C-0....................|.......................|.......................|
.......................|.......................|.......................|.......................|.......................|.......................|C-0....................|C-0....................|.......................|.......................|
.......................|.......................|.......................|.......................|.......................|.......................|.......................|.......................|.......................|.......................|
.......................|.......................|.......................|.......................|.......................|.......................|.......................|.......................|.......................|.......................|
.......................|.......................|.......................|.......................|.......................|.......................|.......................|.......................|.......................|.......................|
.......................|.......................|.......................|.......................|.......................|.......................|.......................|.......................|.......................|.......................|
C-0....................|.......................|.......................|.......................|.......................|.......................|.......................|.......................|.......................|.......................|
A#2....................|.......................|.......................|.......................|.......................|C-4C1..................|A#1....................|F-1....................|.......................|.......................|
.......................|.......................|.......................|.......................|.......................|.......................|.......................|.......................|.......................|.......................|
.......................|.......................|.......................|.......................|.......................|.......................|.......................|.......................|.......................|.......................|
.......................|.......................|.......................|.......................|.......................|.......................|.......................|.......................|.......................|.......................|
.......................|.......................|.......................|.......................|.......................|.......................|.......................|.......................|.......................|.......................|
.......................|.......................|.......................|.......................|.......................|.......................|C-0....................|C-0....................|.......................|.......................|
.......................|.......................|.......................|.......................|.......................|C-4C1..................|C-0....................|C-0....................|.......................|.......................|
.......................|.......................|.......................|.......................|.......................|.......................|.......................|.......................|.......................|.......................|
.......................|.......0452............|.......0452............|.......................|.......................|.......................|.......................|.......................|.......................|.......................|
.......................|.......................|.......................|.......................|.......................|.......................|.......................|.......................|.......................|.......................|
.......................|.......................|.......................|.......................|.......................|.......................|.......................|.......................|.......................|.......................|
C-0....................|C-0....................|C-0....................|.......................|.......................|.......................|.......................|.......................|.......................|.......................|
A#2....................|G#4....0400............|C#4....0400............|.......................|.......................|C-4C6..................|A#1....................|F-1....................|.......................|.......................|
.......................|.......................|.......................|.......................|.......................|.......................|.......................|.......................|.......................|.......................|
.......................|.......................|.......................|.......................|.......................|.......................|.......................|.......................|.......................|.......................|
.......................|.......................|.......................|.......................|.......................|.......................|.......................|.......................|.......................|.......................|
.......................|.......................|.......................|.......................|.......................|.......................|.......................|.......................|.......................|.......................|
.......................|.......................|.......................|.......................|.......................|.......................|C-0....................|C-0....................|.......................|.......................|
.......................|.......................|.......................|.......................|.......................|.......................|C-0....................|C-0....................|.......................|.......................|
.......................|.......................|.......................|.......................|.......................|.......................|.......................|.......................|.......................|.......................|
.......................|.......................|.......................|.......................|.......................|.......................|.......................|.......................|.......................|.......................|
.......................|.......................|.......................|.......................|.......................|.......................|.......................|.......................|.......................|.......................|
.......................|.......................|.......................|.......................|.......................|.......................|.......................|.......................|.......................|.......................|
C-0....................|.......................|.......................|.......................|.......................|.......................|.......................|.......................|.......................|.......................|
A#2....................|.......................|.......................|.......................|.......................|C-4C1..................|A#1....................|F-1....................|.......................|.......................|
.......................|.......................|.......................|.......................|.......................|.......................|.......................|.......................|.......................|.......................|
.......................|.......................|.......................|.......................|.......................|.......................|.......................|.......................|.......................|.......................|
.......................|.......................|.......................|.......................|.......................|.......................|.......................|.......................|.......................|.......................|
.......................|.......................|.......................|.......................|.......................|.......................|.......................|.......................|.......................|.......................|
.......................|.......................|.......................|.......................|.......................|.......................|C-0....................|C-0....................|.......................|.......................|
.......................|.......................|.......................|.......................|.......................|C-4C1..................|C-0....................|C-0....................|.......................|.......................|
.......................|.......................|.......................|.......................|.......................|.......................|.......................|.......................|.......................|.......................|
.......................|.......0452............|.......0452............|.......................|.......................|.......................|.......................|.......................|.......................|.......................|
.......................|.......................|.......................|.......................|.......................|.......................|.......................|.......................|.......................|.......................|
.......................|.......................|.......................|.......................|.......................|.......................|.......................|.......................|.......................|.......................|
C-0....................|C-0....................|C-0....................|.......................|.......................|.......................|.......................|.......................|.......................|.......................|
A#2....................|F-4....0400............|A#3....0400............|.......................|.......................|C-4C6..................|A#1....................|F-1....................|.......................|.......................|
.......................|.......................|.......................|.......................|.......................|.......................|.......................|.......................|.......................|.......................|
.......................|.......................|.......................|.......................|.......................|.......................|.......................|.......................|.......................|.......................|
.......................|.......................|.......................|.......................|.......................|.......................|.......................|.......................|.......................|.......................|
.......................|.......................|.......................|.......................|.......................|.......................|.......................|.......................|.......................|.......................|
.......................|C-0....................|C-0....................|.......................|.......................|.......................|C-0....................|C-0....................|.......................|.......................|
.......................|.......................|.......................|.......................|.......................|.......................|C-0....................|C-0....................|.......................|.......................|
.......................|.......................|.......................|.......................|.......................|.......................|.......................|.......................|.......................|.......................|
.......................|.......................|.......................|.......................|.......................|.......................|.......................|.......................|.......................|.......................|
.......................|.......................|.......................|.......................|.......................|.......................|.......................|.......................|.......................|.......................|
.......................|.......................|.......................|.......................|.......................|.......................|.......................|.......................|.......................|.......................|
C-0....................|.......................|.......................|.......................|.......................|.......................|.......................|.......................|.......................|.......................|
A#2....................|C-5....................|G#4....................|.......................|.......................|C-4C1..................|A#1....................|F-1....................|.......................|.......................|
.......................|.......................|.......................|.......................|.......................|.......................|.......................|.......................|.......................|.......................|
.......................|.......................|.......................|.......................|.......................|.......................|.......................|.......................|.......................|.......................|
.......................|.......................|.......................|.......................|.......................|.......................|.......................|.......................|.......................|.......................|
.......................|.......................|.......................|.......................|.......................|.......................|.......................|.......................|.......................|.......................|
.......................|.......................|.......................|.......................|.......................|.......................|C-0....................|C-0....................|.......................|.......................|
.......................|.......................|.......................|.......................|.......................|C-4C1..................|C-0....................|C-0....................|.......................|.......................|
.......................|.......................|.......................|.......................|.......................|.......................|.......................|.......................|.......................|.......................|
.......................|.......................|.......................|.......................|.......................|.......................|.......................|.......................|.......................|.......................|
.......................|.......................|.......................|.......................|.......................|.......................|.......................|.......................|.......................|.......................|
.......................|.......................|.......................|.......................|.......................|.......................|.......................|.......................|.......................|.......................|
C-0....................|.......................|.......................|.......................|.......................|.......................|.......................|.......................|.......................|.......................|
G#3....................|.......................|.......................|.......................|.......................|C-4C6..................|A#1....................|F-1....................|.......................|.......................|
.......................|.......................|.......................|.......................|.......................|.......................|.......................|.......................|.......................|.......................|
.......................|.......................|.......................|.......................|.......................|.......................|.......................|.......................|.......................|.......................|
.......................|.......................|.......................|.......................|.......................|.......................|.......................|.......................|.......................|.......................|
.......................|.......................|.......................|.......................|.......................|.......................|.......................|.......................|.......................|.......................|
C-0....................|.......................|C-0....................|.......................|.......................|.......................|C-0....................|C-0....................|.......................|.......................|
A#3....................|.......................|.......................|.......................|.......................|.......................|C-0....................|C-0....................|.......................|.......................|
.......................|.......................|.......................|.......................|.......................|.......................|.......................|.......................|.......................|.......................|
.......................|.......0452............|.......................|.......................|.......................|.......................|.......................|.......................|.......................|.......................|
.......................|.......................|.......................|.......................|.......................|.......................|.......................|.......................|.......................|.......................|
.......................|.......................|.......................|.......................|.......................|.......................|.......................|.......................|.......................|.......................|
C-0....................|C-0....................|.......................|.......................|.......................|.......................|.......................|.......................|.......................|.......................|
A#2....................|G#4....0400............|C#4....................|.......................|.......................|C-4C1..................|A#1....................|F-1....................|.......................|.......................|
.......................|.......................|.......................|.......................|.......................|.......................|.......................|.......................|.......................|.......................|
.......................|.......................|.......................|.......................|.......................|.......................|.......................|.......................|.......................|.......................|
.......................|.......................|.......................|.......................|.......................|.......................|.......................|.......................|.......................|.......................|
.......................|.......................|.......................|.......................|.......................|.......................|.......................|.......................|.......................|.......................|
.......................|C-0....................|C-0....................|.......................|.......................|.......................|C-0....................|C-0....................|.......................|.......................|
.......................|.......................|.......................|.......................|.......................|C-4C1..................|C-0....................|C-0....................|.......................|.......................|
.......................|.......................|.......................|.......................|.......................|.......................|.......................|.......................|.......................|.......................|
.......................|.......................|.......................|.......................|.......................|.......................|.......................|.......................|.......................|.......................|
.......................|.......................|.......................|.......................|.......................|.......................|.......................|.......................|.......................|.......................|
.......................|.......................|.......................|.......................|.......................|.......................|.......................|.......................|.......................|.......................|
C-0....................|.......................|.......................|.......................|.......................|.......................|.......................|.......................|.......................|.......................|
A#2....................|F-5....................|G#4....................|.......................|.......................|C-4C6..................|A#1....................|F-1....................|.......................|.......................|
.......................|.......................|.......................|.......................|.......................|.......................|.......................|.......................|.......................|.......................|
.......................|.......................|.......................|.......................|.......................|.......................|.......................|.......................|.......................|.......................|
.......................|.......................|.......................|.......................|.......................|.......................|.......................|.......................|.......................|.......................|
.......................|.......................|.......................|.......................|.......................|.......................|.......................|.......................|.......................|.......................|
.......................|.......................|.......................|.......................|.......................|.......................|C-0....................|C-0....................|.......................|.......................|
.......................|.......................|.......................|.......................|.......................|.......................|C-0....................|C-0....................|.......................|.......................|
.......................|.......................|.......................|.......................|.......................|.......................|.......................|.......................|.......................|.......................|
.......................|.......................|.......................|.......................|.......................|.......................|.......................|.......................|.......................|.......................|
.......................|.......................|.......................|.......................|.......................|.......................|.......................|.......................|.......................|.......................|
.......................|.......................|.......................|.......................|.......................|.......................|.......................|.......................|.......................|.......................|
C-0....................|.......................|.......................|.......................|.......................|.......................|.......................|.......................|.......................|.......................|
F-3....................|.......................|.......................|.......................|.......................|C-4C6..................|.......................|.......................|.......................|.......................|
.......................|.......................|.......................|.......................|.......................|.......................|.......................|.......................|.......................|.......................|
.......................|.......................|.......................|.......................|.......................|.......................|.......................|.......................|.......................|.......................|
.......................|.......................|.......................|.......................|.......................|.......................|.......................|.......................|.......................|.......................|
.......................|.......................|.......................|.......................|.......................|.......................|.......................|.......................|.......................|.......................|
.......................|.......................|.......................|.......................|.......................|.......................|.......................|.......................|.......................|.......................|
.......................|.......................|.......................|.......................|.......................|C-4C1..................|.......................|.......................|.......................|.......................|
.......................|.......................|.......................|.......................|.......................|.......................|.......................|.......................|.......................|.......................|
.......................|.......0452............|.......0452............|.......................|.......................|.......................|.......................|.......................|.......................|.......................|
.......................|.......................|.......................|.......................|.......................|.......................|.......................|.......................|.......................|.......................|
.......................|.......................|.......................|.......................|.......................|.......................|.......................|.......................|.......................|.......................|
C-0....................|C-0....................|C-0....................|.......................|.......................|.......................|.......................|.......................|.......................|.......................|
F-2....................|F-22E740400............|F-32E740400............|.......................|.......................|C-4C9..................|.......................|.......................|.......................|.......................|
.......................|.......................|.......................|.......................|.......................|.......................|.......................|.......................|.......................|.......................|
.......................|.......................|.......................|.......................|.......................|.......................|.......................|.......................|.......................|.......................|
.......................|.......................|.......................|.......................|.......................|.......................|.......................|.......................|.......................|.......................|
.......................|.......................|.......................|.......................|.......................|.......................|.......................|.......................|.......................|.......................|
C-0....................|C-0....................|C-0....................|.......................|.......................|.......................|.......................|.......................|.......................|.......................|
F-2....................|F-2....................|F-3....................|.......................|.......................|C-4C9..................|.......................|.......................|.......................|.......................|
.......................|.......................|.......................|.......................|.......................|.......................|.......................|.......................|.......................|.......................|
.......................|.......................|.......................|.......................|.......................|.......................|.......................|.......................|.......................|.......................|
.......................|.......................|.......................|.......................|.......................|.......................|.......................|.......................|.......................|.......................|
.......................|.......................|.......................|.......................|.......................|.......................|.......................|.......................|.......................|.......................|
C-0....................|C-0....................|C-0....................|.......................|.......................|.......................|.......................|.......................|.......................|.......................|
F-2....................|F-2....................|F-3....................|.......................|.......................|C-4C9..................|.......................|.......................|.......................|.......................|
.......................|.......................|.......................|.......................|.......................|.......................|.......................|.......................|.......................|.......................|
.......................|.......................|.......................|.......................|.......................|.......................|.......................|.......................|.......................|.......................|
.......................|.......................|.......................|.......................|.......................|.......................|.......................|.......................|.......................|.......................|
org.tildearrow.furnace - Pattern Data (219)
0
.......................|.......................|.......................|.......................|.......................|.......................|.......................|.......................|.......................|.......................|
.......................|.......................|.......................|.......................|.......................|.......................|.......................|.......................|.......................|.......................|
.......................|.......................|.......................|.......................|.......................|.......................|.......................|.......................|.......................|.......................|
.......................|.......................|.......................|.......................|.......................|.......................|.......................|.......................|.......................|.......................|
.......................|.......................|.......................|.......................|.......................|.......................|.......................|.......................|.......................|.......................|
.......................|.......................|.......................|.......................|.......................|.......................|.......................|.......................|.......................|.......................|
.......................|.......................|.......................|.......................|.......................|.......................|.......................|.......................|.......................|.......................|
C-0....................|C-0....................|C-0....................|.......................|.......................|.......................|.......................|.......................|.......................|.......................|
.......................|.......................|.......................|.......................|.......................|C-4C0..................|.......................|.......................|.......................|.......................|
.......................|.......................|.......................|.......................|.......................|.......................|.......................|.......................|.......................|.......................|
.......................|.......................|.......................|.......................|.......................|.......................|.......................|.......................|.......................|.......................|
.......................|.......................|.......................|.......................|.......................|.......................|.......................|.......................|.......................|.......................|
.......................|.......................|.......................|.......................|.......................|.......................|.......................|.......................|.......................|.......................|
.......................|.......................|.......................|.......................|.......................|.......................|.......................|.......................|.......................|.......................|
.......................|.......................|.......................|.......................|.......................|C-4C4..................|.......................|.......................|.......................|.......................|
.......................|.......................|.......................|.......................|.......................|.......................|.......................|.......................|.......................|.......................|
.......................|.......................|.......................|.......................|.......................|.......................|.......................|.......................|.......................|.......................|
.......................|.......................|.......................|.......................|.......................|.......................|.......................|.......................|.......................|.......................|
.......................|.......................|.......................|.......................|.......................|.......................|.......................|.......................|.......................|.......................|
.......................|.......................|.......................|.......................|.......................|.......................|.......................|.......................|.......................|.......................|
A#2....................|C#4205F................|F-3205F................|.......................|.......................|C-4C0..................|A#1..09................|F-1..09................|.......................|.......................|
.......................|.......................|.......................|.......................|.......................|.......................|.......................|.......................|.......................|.......................|
.......................|.......................|.......................|.......................|.......................|.......................|.......................|.......................|.......................|.......................|
.......................|.......................|.......................|.......................|.......................|.......................|.......................|.......................|.......................|.......................|
.......................|.......................|.......................|.......................|.......................|.......................|.......................|.......................|.......................|.......................|
.......................|C-0....................|C-0....................|.......................|.......................|.......................|C-0....................|C-0....................|.......................|.......................|
.......................|.......................|.......................|.......................|.......................|C-4C7..................|C-0....................|C-0....................|.......................|.......................|
.......................|.......................|.......................|.......................|.......................|.......................|.......................|.......................|.......................|.......................|
.......................|.......................|.......................|.......................|.......................|.......................|.......................|.......................|.......................|.......................|
.......................|.......................|.......................|.......................|.......................|.......................|.......................|.......................|.......................|.......................|
.......................|.......................|.......................|.......................|.......................|.......................|.......................|.......................|.......................|.......................|
C-0....................|.......................|.......................|.......................|.......................|.......................|.......................|.......................|.......................|.......................|
B-3....................|G#4....................|C#4....................|.......................|.......................|C-4C6..................|C#2....................|G#1....................|.......................|.......................|
.......................|.......................|.......................|.......................|.......................|.......................|.......................|.......................|.......................|.......................|
.......................|.......................|.......................|.......................|.......................|.......................|.......................|.......................|.......................|.......................|
.......................|.......................|.......................|.......................|.......................|.......................|.......................|.......................|.......................|.......................|
.......................|.......................|.......................|.......................|.......................|.......................|.......................|.......................|.......................|.......................|
C-0....................|.......................|.......................|.......................|.......................|.......................|C-0....................|C-0....................|.......................|.......................|
C#4....................|.......................|.......................|.......................|.......................|.......................|C-0....................|C-0....................|.......................|.......................|
.......................|.......................|.......................|.......................|.......................|.......................|.......................|.......................|.......................|.......................|
.......................|.......................|.......................|.......................|.......................|.......................|.......................|.......................|.......................|.......................|
.......................|.......................|.......................|.......................|.......................|.......................|.......................|.......................|.......................|.......................|
.......................|.......................|.......................|.......................|.......................|.......................|.......................|.......................|.......................|.......................|
C-0....................|.......................|.......................|.......................|.......................|.......................|.......................|.......................|.......................|.......................|
C#3....................|.......................|.......................|.......................|.......................|C-4C1..................|C#2....................|G#1....................|.......................|.......................|
.......................|.......................|.......................|.......................|.......................|.......................|.......................|.......................|.......................|.......................|
.......................|.......................|.......................|.......................|.......................|.......................|.......................|.......................|.......................|.......................|
.......................|.......................|.......................|.......................|.......................|.......................|.......................|.......................|.......................|.......................|
.......................|.......................|.......................|.......................|.......................|.......................|.......................|.......................|.......................|.......................|
.......................|.......................|.......................|.......................|.......................|.......................|C-0....................|C-0....................|.......................|.......................|
.......................|.......................|.......................|.......................|.......................|C-4C1..................|C-0....................|C-0....................|.......................|.......................|
.......................|.......................|.......................|.......................|.......................|.......................|.......................|.......................|.......................|.......................|
.......................|.......0452............|.......0452............|.......................|.......................|.......................|.......................|.......................|.......................|.......................|
.......................|.......................|.......................|.......................|.......................|.......................|.......................|.......................|.......................|.......................|
.......................|.......................|.......................|.......................|.......................|.......................|.......................|.......................|.......................|.......................|
C-0....................|C-0....................|C-0....................|.......................|.......................|.......................|.......................|.......................|.......................|.......................|
C#3....................|E-4....0400............|G#3....0400............|.......................|.......................|C-4C6..................|C#2....................|G#1....................|.......................|.......................|
.......................|.......................|.......................|.......................|.......................|.......................|.......................|.......................|.......................|.......................|
.......................|.......................|.......................|.......................|.......................|.......................|.......................|.......................|.......................|.......................|
.......................|.......................|.......................|.......................|.......................|.......................|.......................|.......................|.......................|.......................|
.......................|.......................|.......................|.......................|.......................|.......................|.......................|.......................|.......................|.......................|
.......................|.......................|.......................|.......................|.......................|.......................|C-0....................|C-0....................|.......................|.......................|
.......................|.......................|.......................|.......................|.......................|.......................|C-0....................|C-0....................|.......................|.......................|
.......................|.......................|.......................|.......................|.......................|.......................|.......................|.......................|.......................|.......................|
.......................|.......................|.......................|.......................|.......................|.......................|.......................|.......................|.......................|.......................|
.......................|.......................|.......................|.......................|.......................|.......................|.......................|.......................|.......................|.......................|
.......................|.......................|.......................|.......................|.......................|.......................|.......................|.......................|.......................|.......................|
C-0....................|.......................|.......................|.......................|.......................|.......................|.......................|.......................|.......................|.......................|
C#3....................|.......................|.......................|.......................|.......................|C-4C1..................|C#2....................|G#1....................|.......................|.......................|
.......................|.......................|.......................|.......................|.......................|.......................|.......................|.......................|.......................|.......................|
.......................|.......................|.......................|.......................|.......................|.......................|.......................|.......................|.......................|.......................|
.......................|.......................|.......................|.......................|.......................|.......................|.......................|.......................|.......................|.......................|
.......................|.......................|.......................|.......................|.......................|.......................|.......................|.......................|.......................|.......................|
.......................|.......................|.......................|.......................|.......................|.......................|C-0....................|C-0....................|.......................|.......................|
.......................|.......................|.......................|.......................|.......................|C-4C1..................|C-0....................|C-0....................|.......................|.......................|
.......................|.......................|.......................|.......................|.......................|.......................|.......................|.......................|.......................|.......................|
.......................|.......0452............|.......0452............|.......................|.......................|.......................|.......................|.......................|.......................|.......................|
.......................|.......................|.......................|.......................|.......................|.......................|.......................|.......................|.......................|.......................|
.......................|.......................|.......................|.......................|.......................|.......................|.......................|.......................|.......................|.......................|
C-0....................|C-0....................|C-0....................|.......................|.......................|.......................|.......................|.......................|.......................|.......................|
C#3....................|B-4....0400............|E-4....0400............|.......................|.......................|C-4C6..................|C#2....................|G#1....................|.......................|.......................|
.......................|.......................|.......................|.......................|.......................|.......................|.......................|.......................|.......................|.......................|
.......................|.......................|.......................|.......................|.......................|.......................|.......................|.......................|.......................|.......................|
.......................|.......................|.......................|.......................|.......................|.......................|.......................|.......................|.......................|.......................|
.......................|.......................|.......................|.......................|.......................|.......................|.......................|.......................|.......................|.......................|
.......................|.......................|.......................|.......................|.......................|.......................|C-0....................|C-0....................|.......................|.......................|
.......................|.......................|.......................|.......................|.......................|.......................|C-0....................|C-0....................|.......................|.......................|
.......................|.......................|.......................|.......................|.......................|.......................|.......................|.......................|.......................|.......................|
.......................|.......................|.......................|.......................|.......................|.......................|.......................|.......................|.......................|.......................|
.......................|.......................|.......................|.......................|.......................|.......................|.......................|.......................|.......................|.......................|
.......................|.......................|.......................|.......................|.......................|.......................|.......................|.......................|.......................|.......................|
C-0....................|.......................|.......................|.......................|.......................|.......................|.......................|.......................|.......................|.......................|
C#3....................|.......................|.......................|.......................|.......................|C-4C1..................|C#2....................|G#1....................|.......................|.......................|
.......................|.......................|.......................|.......................|.......................|.......................|.......................|.......................|.......................|.......................|
.......................|.......................|.......................|.......................|.......................|.......................|.......................|.......................|.......................|.......................|
.......................|.......................|.......................|.......................|.......................|.......................|.......................|.......................|.......................|.......................|
.......................|.......................|.......................|.......................|.......................|.......................|.......................|.......................|.......................|.......................|
.......................|.......................|.......................|.......................|.......................|.......................|C-0....................|C-0....................|.......................|.......................|
.......................|.......................|.......................|.......................|.......................|C-4C1..................|C-0....................|C-0....................|.......................|.......................|
.......................|.......................|.......................|.......................|.......................|.......................|.......................|.......................|.......................|.......................|
.......................|.......0452............|.......0452............|.......................|.......................|.......................|.......................|.......................|.......................|.......................|
.......................|.......................|.......................|.......................|.......................|.......................|.......................|.......................|.......................|.......................|
.......................|.......................|.......................|.......................|.......................|.......................|.......................|.......................|.......................|.......................|
C-0....................|C-0....................|C-0....................|.......................|.......................|.......................|.......................|.......................|.......................|.......................|
C#3....................|G#4....0400............|C#4....0400............|.......................|.......................|C-4C6..................|C#2....................|G#1....................|.......................|.......................|
.......................|.......................|.......................|.......................|.......................|.......................|.......................|.......................|.......................|.......................|
.......................|.......................|.......................|.......................|.......................|.......................|.......................|.......................|.......................|.......................|
.......................|.......................|.......................|.......................|.......................|.......................|.......................|.......................|.......................|.......................|
.......................|.......................|.......................|.......................|.......................|.......................|.......................|.......................|.......................|.......................|
.......................|C-0....................|C-0....................|.......................|.......................|.......................|C-0....................|C-0....................|.......................|.......................|
.......................|.......................|.......................|.......................|.......................|.......................|C-0....................|C-0....................|.......................|.......................|
.......................|.......................|.......................|.......................|.......................|.......................|.......................|.......................|.......................|.......................|
.......................|.......................|.......................|.......................|.......................|.......................|.......................|.......................|.......................|.......................|
.......................|.......................|.......................|.......................|.......................|.......................|.......................|.......................|.......................|.......................|
.......................|.......................|.......................|.......................|.......................|.......................|.......................|.......................|.......................|.......................|
C-0....................|.......................|.......................|.......................|.......................|.......................|.......................|.......................|.......................|.......................|
C#3....................|D#5....................|G#4....................|.......................|.......................|C-4C1..................|C#2....................|G#1....................|.......................|.......................|
.......................|.......................|.......................|.......................|.......................|.......................|.......................|.......................|.......................|.......................|
.......................|.......................|.......................|.......................|.......................|.......................|.......................|.......................|.......................|.......................|
.......................|.......................|.......................|.......................|.......................|.......................|.......................|.......................|.......................|.......................|
.......................|.......................|.......................|.......................|.......................|.......................|.......................|.......................|.......................|.......................|
.......................|.......................|.......................|.......................|.......................|.......................|C-0....................|C-0....................|.......................|.......................|
.......................|.......................|.......................|.......................|.......................|C-4C1..................|C-0....................|C-0....................|.......................|.......................|
.......................|.......................|.......................|.......................|.......................|.......................|.......................|.......................|.......................|.......................|
.......................|.......................|.......................|.......................|.......................|.......................|.......................|.......................|.......................|.......................|
.......................|.......................|.......................|.......................|.......................|.......................|.......................|.......................|.......................|.......................|
.......................|.......................|.......................|.......................|.......................|.......................|.......................|.......................|.......................|.......................|
C-0....................|.......................|.......................|.......................|.......................|.......................|.......................|.......................|.......................|.......................|
C#3....................|.......................|.......................|.......................|.......................|C-4C6..................|C#2....................|G#1....................|.......................|.......................|
.......................|.......................|.......................|.......................|.......................|.......................|.......................|.......................|.......................|.......................|
.......................|.......................|.......................|.......................|.......................|.......................|.......................|.......................|.......................|.......................|
.......................|.......................|.......................|.......................|.......................|.......................|.......................|.......................|.......................|.......................|
.......................|.......................|.......................|.......................|.......................|.......................|.......................|.......................|.......................|.......................|
.......................|C-0....................|C-0....................|.......................|.......................|.......................|C-0....................|C-0....................|.......................|.......................|
.......................|.......................|.......................|.......................|.......................|.......................|C-0....................|C-0....................|.......................|.......................|
.......................|.......................|.......................|.......................|.......................|.......................|.......................|.......................|.......................|.......................|
.......................|.......................|.......................|.......................|.......................|.......................|.......................|.......................|.......................|.......................|
.......................|.......................|.......................|.......................|.......................|.......................|.......................|.......................|.......................|.......................|
.......................|.......................|.......................|.......................|.......................|.......................|.......................|.......................|.......................|.......................|
C-0....................|.......................|.......................|.......................|.......................|.......................|.......................|.......................|.......................|.......................|
C#3....................|B-4....................|E-4....................|.......................|.......................|C-4C1..................|C#2....................|G#1....................|.......................|.......................|
.......................|.......................|.......................|.......................|.......................|.......................|.......................|.......................|.......................|.......................|
.......................|.......................|.......................|.......................|.......................|.......................|.......................|.......................|.......................|.......................|
.......................|.......................|.......................|.......................|.......................|.......................|.......................|.......................|.......................|.......................|
.......................|.......................|.......................|.......................|.......................|.......................|.......................|.......................|.......................|.......................|
.......................|C-0....................|C-0....................|.......................|.......................|.......................|C-0....................|C-0....................|.......................|.......................|
.......................|.......................|.......................|.......................|.......................|C-4C1..................|C-0....................|C-0....................|.......................|.......................|
.......................|.......................|.......................|.......................|.......................|.......................|.......................|.......................|.......................|.......................|
.......................|.......................|.......................|.......................|.......................|.......................|.......................|.......................|.......................|.......................|
.......................|.......................|.......................|.......................|.......................|.......................|.......................|.......................|.......................|.......................|
.......................|.......................|.......................|.......................|.......................|.......................|.......................|.......................|.......................|.......................|
C-0....................|.......................|.......................|.......................|.......................|.......................|.......................|.......................|.......................|.......................|
C#3....................|C-0....................|C#5....................|.......................|.......................|C-4C6..................|C#2....................|G#1....................|.......................|.......................|
.......................|.......................|.......................|.......................|.......................|.......................|.......................|.......................|.......................|.......................|
.......................|.......................|.......................|.......................|.......................|.......................|.......................|.......................|.......................|.......................|
.......................|.......................|.......................|.......................|.......................|.......................|.......................|.......................|.......................|.......................|
.......................|.......................|.......................|.......................|.......................|.......................|.......................|.......................|.......................|.......................|
.......................|.......................|.......................|.......................|.......................|.......................|C-0....................|C-0....................|.......................|.......................|
.......................|.......................|.......................|.......................|.......................|.......................|C-0....................|C-0....................|.......................|.......................|
.......................|.......................|.......................|.......................|.......................|.......................|.......................|.......................|.......................|.......................|
.......................|.......................|.......................|.......................|.......................|.......................|.......................|.......................|.......................|.......................|
.......................|.......................|.......................|.......................|.......................|.......................|.......................|.......................|.......................|.......................|
.......................|.......................|.......................|.......................|.......................|.......................|.......................|.......................|.......................|.......................|
C-0....................|.......................|.......................|.......................|.......................|.......................|.......................|.......................|.......................|.......................|
G#3....................|.......................|.......................|.......................|.......................|C-4C6..................|.......................|.......................|.......................|.......................|
.......................|.......................|.......................|.......................|.......................|.......................|.......................|.......................|.......................|.......................|
.......................|.......................|.......................|.......................|.......................|.......................|.......................|.......................|.......................|.......................|
.......................|.......................|.......................|.......................|.......................|.......................|.......................|.......................|.......................|.......................|
.......................|.......................|.......................|.......................|.......................|.......................|.......................|.......................|.......................|.......................|
.......................|.......................|.......................|.......................|.......................|.......................|.......................|.......................|.......................|.......................|
.......................|.......................|.......................|.......................|.......................|C-4C1..................|.......................|.......................|.......................|.......................|
.......................|.......................|.......................|.......................|.......................|.......................|.......................|.......................|.......................|.......................|
.......................|.......0452............|.......0452............|.......................|.......................|.......................|.......................|.......................|.......................|.......................|
.......................|.......................|.......................|.......................|.......................|.......................|.......................|.......................|.......................|.......................|
.......................|.......................|.......................|.......................|.......................|.......................|.......................|.......................|.......................|.......................|
C-0....................|C-0....................|C-0....................|.......................|.......................|.......................|.......................|.......................|.......................|.......................|
G#2....................|C#32E740400............|C#32E740400............|.......................|.......................|C-4C9..................|.......................|.......................|.......................|.......................|
.......................|.......................|.......................|.......................|.......................|.......................|.......................|.......................|.......................|.......................|
.......................|.......................|.......................|.......................|.......................|.......................|.......................|.......................|.......................|.......................|
.......................|.......................|.......................|.......................|.......................|.......................|.......................|.......................|.......................|.......................|
.......................|.......................|.......................|.......................|.......................|.......................|.......................|.......................|.......................|.......................|
C-0....................|C-0....................|C-0....................|.......................|.......................|.......................|.......................|.......................|.......................|.......................|
G#2....................|C#3....................|C#3....................|.......................|.......................|C-4C9..................|.......................|.......................|.......................|.......................|
.......................|.......................|.......................|.......................|.......................|.......................|.......................|.......................|.......................|.......................|
.......................|.......................|.......................|.......................|.......................|.......................|.......................|.......................|.......................|.......................|
.......................|.......................|.......................|.......................|.......................|.......................|.......................|.......................|.......................|.......................|
.......................|.......................|.......................|.......................|.......................|.......................|.......................|.......................|.......................|.......................|
C-0....................|C-0....................|C-0....................|.......................|.......................|.......................|.......................|.......................|.......................|.......................|
G#2....................|C#3....................|C#3....................|.......................|.......................|C-4C9..................|.......................|.......................|.......................|.......................|
.......................|.......................|.......................|.......................|.......................|.......................|.......................|.......................|.......................|.......................|
.......................|.......................|.......................|.......................|.......................|.......................|.......................|.......................|.......................|.......................|
.......................|.......................|.......................|.......................|.......................|.......................|.......................|.......................|.......................|.......................|
.......................|.......................|.......................|.......................|.......................|.......................|.......................|.......................|.......................|.......................|
.......................|.......................|.......................|.......................|.......................|.......................|.......................|.......................|.......................|.......................|
.......................|.......................|.......................|.......................|.......................|.......................|.......................|.......................|.......................|.......................|
.......................|.......................|.......................|.......................|.......................|.......................|.......................|.......................|.......................|.......................|
.......................|.......................|.......................|.......................|.......................|.......................|.......................|.......................|.......................|.......................|
.......................|.......................|.......................|.......................|.......................|.......................|.......................|.......................|.......................|.......................|
.......................|.......................|.......................|.......................|.......................|.......................|.......................|.......................|.......................|.......................|
C-0....................|C-0....................|C-0....................|.......................|.......................|.......................|.......................|.......................|.......................|.......................|
C#3....................|G#422..................|.......................|.......................|.......................|C-4C0..................|.......................|.......................|.......................|.......................|
.......................|.......................|.......................|.......................|.......................|.......................|.......................|.......................|.......................|.......................|
C-0....................|.......................|.......................|.......................|.......................|.......................|.......................|.......................|.......................|.......................|
.......................|.......................|.......................|.......................|.......................|.......................|.......................|.......................|.......................|.......................|
.......................|.......................|.......................|.......................|.......................|.......................|.......................|.......................|.......................|.......................|
.......................|.......................|.......................|.......................|.......................|.......................|.......................|.......................|.......................|.......................|
.......................|.......................|.......................|.......................|.......................|C-4C4..................|.......................|.......................|.......................|.......................|
.......................|C-0....................|.......................|.......................|.......................|.......................|.......................|.......................|.......................|.......................|
.......................|.......................|G#4226B................|.......................|.......................|.......................|.......................|.......................|.......................|.......................|
.......................|.......................|.......................|.......................|.......................|.......................|.......................|.......................|.......................|.......................|
.......................|.......................|.......................|.......................|.......................|.......................|.......................|.......................|.......................|.......................|
.......................|.......................|.......................|.......................|.......................|.......................|.......................|.......................|.......................|.......................|
C#3....................|.......................|.......................|.......................|.......................|C-4C0..................|.......................|.......................|.......................|.......................|
.......................|.......................|.......................|.......................|.......................|.......................|.......................|.......................|.......................|.......................|
.......................|.......................|.......................|.......................|.......................|.......................|.......................|.......................|.......................|.......................|
.......................|.......................|C-0....................|.......................|.......................|.......................|.......................|.......................|.......................|.......................|
.......................|B-4....................|.......................|.......................|.......................|.......................|.......................|.......................|.......................|.......................|
.......................|.......................|.......................|.......................|.......................|.......................|.......................|.......................|.......................|.......................|
.......................|.......................|.......................|.......................|.......................|C-4C7..................|.......................|.......................|.......................|.......................|
.......................|.......................|.......................|.......................|.......................|.......................|.......................|.......................|.......................|.......................|
.......................|.......................|.......................|.......................|.......................|.......................|.......................|.......................|.......................|.......................|
.......................|.......................|.......................|.......................|.......................|.......................|.......................|.......................|.......................|.......................|
.......................|.......................|.......................|.......................|.......................|.......................|.......................|.......................|.......................|.......................|
C-0....................|C-0....................|.......................|.......................|.......................|.......................|.......................|.......................|.......................|.......................|
F#3....................|A-4....................|B-4....................|.......................|.......................|C-4C6..................|C-0....................|C-0....................|.......................|.......................|
.......................|.......................|.......................|.......................|.......................|.......................|.......................|.......................|.......................|.......................|
.......................|.......................|.......................|.......................|.......................|.......................|.......................|.......................|.......................|.......................|
.......................|.......................|.......................|.......................|.......................|.......................|.......................|.......................|.......................|.......................|
.......................|.......................|.......................|.......................|.......................|.......................|.......................|.......................|.......................|.......................|
.......................|.......................|.......................|.......................|.......................|.......................|.......................|.......................|.......................|.......................|
.......................|.......................|.......................|.......................|.......................|.......................|.......................|.......................|.......................|.......................|
.......................|.......................|C-0....................|.......................|.......................|.......................|.......................|.......................|.......................|.......................|
.......................|.......................|A-4....................|.......................|.......................|.......................|.......................|.......................|.......................|.......................|
.......................|.......................|.......................|.......................|.......................|.......................|.......................|.......................|.......................|.......................|
.......................|.......................|.......................|.......................|.......................|.......................|.......................|.......................|.......................|.......................|
C-0....................|.......................|.......................|.......................|.......................|.......................|.......................|.......................|.......................|.......................|
F#3....................|.......................|.......................|C#52B63................|.......................|C-4C1..................|F#2..0B................|A-2..0B................|.......................|.......................|
.......................|.......................|.......................|.......................|.......................|.......................|.......................|.......................|.......................|.......................|
.......................|.......................|.......................|.......................|.......................|.......................|.......................|.......................|.......................|.......................|
.......................|.......................|.......................|.......................|.......................|.......................|C-0....................|C-0....................|.......................|.......................|
.......................|.......................|.......................|.......................|.......................|.......................|C-0....................|C-0....................|.......................|.......................|
.......................|.......................|.......................|C-0....................|.......................|.......................|.......................|.......................|.......................|.......................|
.......................|.......................|.......................|C#5....................|.......................|C-4C1..................|F#2....................|A-2....................|.......................|.......................|
.......................|.......................|.......................|.......................|.......................|.......................|.......................|.......................|.......................|.......................|
.......................|.......0452............|.......................|.......................|C#52B59................|.......................|.......................|.......................|.......................|.......................|
.......................|.......................|.......................|.......................|.......................|.......................|C-0....................|C-0....................|.......................|.......................|
.......................|.......................|.......................|.......................|.......................|.......................|C-0....................|C-0....................|.......................|.......................|
C-0....................|C-0....................|.......................|C-0....................|.......................|.......................|.......................|.......................|.......................|.......................|
F#3....................|F#4....0400............|.......................|C#5..67................|.......................|C-4C6..................|F#2....................|A-2....................|.......................|.......................|
.......................|.......................|.......................|.......................|C-0....................|.......................|.......................|.......................|.......................|.......................|
.......................|.......................|.......................|.......................|C#5....................|.......................|.......................|.......................|.......................|.......................|
.......................|.......................|.......................|.......................|.......................|.......................|.......................|.......................|.......................|.......................|
.......................|.......................|.......0452............|.......................|.......................|.......................|.......................|.......................|.......................|.......................|
.......................|.......................|.......................|.......................|.......................|.......................|.......................|.......................|.......................|.......................|
.......................|.......................|.......................|.......................|.......................|.......................|.......................|.......................|.......................|.......................|
.......................|C-0....................|C-0....................|.......................|C-0....................|.......................|.......................|.......................|.......................|.......................|
org.tildearrow.furnace - Pattern Data (219)
0
.......................|.......................|F#4....0400............|.......................|C#5....................|.......................|.......................|.......................|.......................|.......................|
.......................|.......................|.......................|.......................|.......................|.......................|.......................|.......................|.......................|.......................|
.......................|.......................|.......................|.......................|.......................|.......................|.......................|.......................|.......................|.......................|
C-0....................|.......................|.......................|.......................|.......................|.......................|.......................|.......................|.......................|.......................|
F#3....................|.......................|.......................|.......................|.......................|C-4C1..................|.......................|.......................|.......................|.......................|
.......................|.......................|.......................|.......................|.......................|.......................|.......................|.......................|.......................|.......................|
.......................|.......................|.......................|.......................|.......................|.......................|.......................|.......................|.......................|.......................|
.......................|.......................|C-0....................|.......................|.......................|.......................|.......................|.......................|.......................|.......................|
.......................|A-4....................|.......................|.......................|.......................|.......................|.......................|.......................|.......................|.......................|
.......................|.......................|.......................|.......................|.......................|.......................|.......................|.......................|.......................|.......................|
.......................|.......................|.......................|.......................|.......................|C-4C1..................|.......................|.......................|.......................|.......................|
.......................|.......................|.......................|.......................|.......................|.......................|.......................|.......................|.......................|.......................|
.......................|.......................|.......................|.......0452............|.......................|.......................|.......0452............|.......0452............|.......................|.......................|
.......................|.......................|.......................|.......................|.......................|.......................|.......................|.......................|.......................|.......................|
.......................|.......................|.......................|.......................|.......................|.......................|.......................|.......................|.......................|.......................|
C-0....................|C-0....................|.......................|C-0....................|C-0....................|.......................|C-0....................|C-0....................|.......................|.......................|
E-3....................|G#4....................|A-4....................|.......................|.......................|C-4C6..................|C-0....................|C-0....................|.......................|.......................|
.......................|.......................|.......................|.......................|.......................|.......................|.......................|.......................|.......................|.......................|
.......................|.......................|.......................|.......................|.......................|.......................|.......................|.......................|.......................|.......................|
.......................|.......................|.......................|.......................|.......................|.......................|.......................|.......................|.......................|.......................|
.......................|.......................|.......................|.......................|.......................|.......................|.......................|.......................|.......................|.......................|
.......................|.......................|.......................|.......................|.......................|.......................|.......................|.......................|.......................|.......................|
.......................|.......................|.......................|.......................|.......................|.......................|.......................|.......................|.......................|.......................|
.......................|.......................|C-0....................|.......................|.......................|.......................|.......................|.......................|.......................|.......................|
.......................|.......................|G#4....................|.......................|.......................|.......................|.......................|.......................|.......................|.......................|
.......................|.......................|.......................|.......................|.......................|.......................|.......................|.......................|.......................|.......................|
.......................|.......................|.......................|.......................|.......................|.......................|.......................|.......................|.......................|.......................|
C-0....................|.......................|.......................|.......................|.......................|.......................|.......................|.......................|.......................|.......................|
E-3....................|.......................|.......................|B-4..630400............|.......................|C-4C1..................|E-2....0400............|G#2....0400............|.......................|.......................|
.......................|.......................|.......................|.......................|.......................|.......................|.......................|.......................|.......................|.......................|
.......................|.......................|.......................|.......................|.......................|.......................|.......................|.......................|.......................|.......................|
.......................|.......................|.......................|.......................|.......................|.......................|C-0....................|C-0....................|.......................|.......................|
.......................|.......................|.......................|.......................|.......................|.......................|C-0....................|C-0....................|.......................|.......................|
.......................|.......................|.......................|C-0....................|.......................|.......................|.......................|.......................|.......................|.......................|
.......................|.......................|.......................|B-4....................|.......................|C-4C1..................|E-2....................|G#2....................|.......................|.......................|
.......................|.......................|.......................|.......................|.......................|.......................|.......................|.......................|.......................|.......................|
.......................|.......0452............|.......................|.......................|B-4....................|.......................|.......................|.......................|.......................|.......................|
.......................|.......................|.......................|.......................|.......................|.......................|C-0....................|C-0....................|.......................|.......................|
.......................|.......................|.......................|.......................|.......................|.......................|C-0....................|C-0....................|.......................|.......................|
C-0....................|C-0....................|.......................|C-0....................|.......................|.......................|.......................|.......................|.......................|.......................|
E-3....................|E-4....0400............|.......................|B-4..67................|.......................|C-4C6..................|E-2....................|G#2....................|.......................|.......................|
.......................|.......................|.......................|.......................|C-0....................|.......................|.......................|.......................|.......................|.......................|
.......................|.......................|.......................|.......................|B-4....................|.......................|.......................|.......................|.......................|.......................|
.......................|.......................|.......................|.......................|.......................|.......................|.......................|.......................|.......................|.......................|
.......................|.......................|.......0452............|.......................|.......................|.......................|.......................|.......................|.......................|.......................|
.......................|.......................|.......................|.......................|.......................|.......................|.......................|.......................|.......................|.......................|
.......................|.......................|.......................|.......................|.......................|.......................|.......................|.......................|.......................|.......................|
.......................|C-0....................|C-0....................|.......................|C-0....................|.......................|.......................|.......................|.......................|.......................|
.......................|.......................|E-4....0400............|.......................|B-4....................|.......................|.......................|.......................|.......................|.......................|
.......................|.......................|.......................|.......................|.......................|.......................|.......................|.......................|.......................|.......................|
.......................|.......................|.......................|.......................|.......................|.......................|.......................|.......................|.......................|.......................|
C-0....................|.......................|.......................|.......................|.......................|.......................|.......................|.......................|.......................|.......................|
E-3....................|.......................|.......................|.......................|.......................|C-4C1..................|.......................|.......................|.......................|.......................|
.......................|.......................|.......................|.......................|.......................|.......................|.......................|.......................|.......................|.......................|
.......................|.......................|.......................|.......................|.......................|.......................|.......................|.......................|.......................|.......................|
.......................|.......................|C-0....................|.......................|.......................|.......................|.......................|.......................|.......................|.......................|
.......................|G#4....................|.......................|.......................|.......................|.......................|.......................|.......................|.......................|.......................|
.......................|.......................|.......................|.......................|.......................|.......................|.......................|.......................|.......................|.......................|
.......................|.......................|.......................|.......................|.......................|C-4C1..................|.......................|.......................|.......................|.......................|
.......................|.......................|.......................|.......................|.......................|.......................|.......................|.......................|.......................|.......................|
.......................|.......................|.......................|.......0452............|.......................|.......................|.......0452............|.......0452............|.......................|.......................|
.......................|.......................|.......................|.......................|.......................|.......................|.......................|.......................|.......................|.......................|
.......................|.......................|.......................|.......................|.......................|.......................|.......................|.......................|.......................|.......................|
C-0....................|C-0....................|.......................|C-0....................|C-0....................|.......................|C-0....................|C-0....................|.......................|.......................|
D-3....................|F#4....................|G#4....................|.......................|.......................|C-4C6..................|C-0....................|C-0....................|.......................|.......................|
.......................|.......................|.......................|.......................|.......................|.......................|.......................|.......................|.......................|.......................|
.......................|.......................|.......................|.......................|.......................|.......................|.......................|.......................|.......................|.......................|
.......................|.......................|.......................|.......................|.......................|.......................|.......................|.......................|.......................|.......................|
.......................|.......................|.......................|.......................|.......................|.......................|.......................|.......................|.......................|.......................|
.......................|.......................|.......................|.......................|.......................|.......................|.......................|.......................|.......................|.......................|
.......................|.......................|.......................|.......................|.......................|.......................|.......................|.......................|.......................|.......................|
.......................|.......................|C-0....................|.......................|.......................|.......................|.......................|.......................|.......................|.......................|
.......................|.......................|F#4....................|.......................|.......................|.......................|.......................|.......................|.......................|.......................|
.......................|.......................|.......................|.......................|.......................|.......................|.......................|.......................|.......................|.......................|
.......................|.......................|.......................|.......................|.......................|.......................|.......................|.......................|.......................|.......................|
C-0....................|.......................|.......................|.......................|.......................|.......................|.......................|.......................|.......................|.......................|
D-3....................|.......................|.......................|A-4..630400............|.......................|C-4C1..................|D-2....0400............|F#2....0400............|.......................|.......................|
.......................|.......................|.......................|.......................|.......................|.......................|.......................|.......................|.......................|.......................|
.......................|.......................|.......................|.......................|.......................|.......................|.......................|.......................|.......................|.......................|
.......................|.......................|.......................|.......................|.......................|.......................|C-0....................|C-0....................|.......................|.......................|
.......................|.......................|.......................|.......................|.......................|.......................|C-0....................|C-0....................|.......................|.......................|
.......................|.......................|.......................|C-0....................|.......................|.......................|.......................|.......................|.......................|.......................|
.......................|.......................|.......................|A-4....................|.......................|C-4C1..................|D-2....................|F#2....................|.......................|.......................|
.......................|.......................|.......................|.......................|.......................|.......................|.......................|.......................|.......................|.......................|
.......................|.......0452............|.......................|.......................|A-4....................|.......................|.......................|.......................|.......................|.......................|
.......................|.......................|.......................|.......................|.......................|.......................|C-0....................|C-0....................|.......................|.......................|
.......................|.......................|.......................|.......................|.......................|.......................|C-0....................|C-0....................|.......................|.......................|
C-0....................|C-0....................|.......................|C-0....................|.......................|.......................|.......................|.......................|.......................|.......................|
D-3....................|D-4....0400............|.......................|A-4..67................|.......................|C-4C6..................|D-2....................|F#2....................|.......................|.......................|
.......................|.......................|.......................|.......................|C-0....................|.......................|.......................|.......................|.......................|.......................|
.......................|.......................|.......................|.......................|A-4....................|.......................|.......................|.......................|.......................|.......................|
.......................|.......................|.......................|.......................|.......................|.......................|.......................|.......................|.......................|.......................|
.......................|.......................|.......0452............|.......................|.......................|.......................|.......................|.......................|.......................|.......................|
.......................|.......................|.......................|.......................|.......................|.......................|.......................|.......................|.......................|.......................|
.......................|.......................|.......................|.......................|.......................|.......................|.......................|.......................|.......................|.......................|
.......................|C-0....................|C-0....................|.......................|C-0....................|.......................|.......................|.......................|.......................|.......................|
.......................|.......................|D-4....0400............|.......................|A-4....................|.......................|.......................|.......................|.......................|.......................|
.......................|.......................|.......................|.......................|.......................|.......................|.......................|.......................|.......................|.......................|
.......................|.......................|.......................|.......................|.......................|.......................|.......................|.......................|.......................|.......................|
C-0....................|.......................|.......................|.......................|.......................|.......................|.......................|.......................|.......................|.......................|
D-3....................|.......................|.......................|.......................|.......................|C-4C1..................|.......................|.......................|.......................|.......................|
.......................|.......................|.......................|.......................|.......................|.......................|.......................|.......................|.......................|.......................|
.......................|.......................|.......................|.......................|.......................|.......................|.......................|.......................|.......................|.......................|
.......................|.......................|C-0....................|.......................|.......................|.......................|.......................|.......................|.......................|.......................|
.......................|F#4....................|.......................|.......................|.......................|.......................|.......................|.......................|.......................|.......................|
.......................|.......................|.......................|.......................|.......................|.......................|.......................|.......................|.......................|.......................|
.......................|.......................|.......................|.......................|.......................|C-4C1..................|.......................|.......................|.......................|.......................|
.......................|.......................|.......................|.......................|.......................|.......................|C-0....................|C-0....................|.......................|.......................|
.......................|.......................|.......................|.......0452............|.......................|.......................|C-0....................|C-0....................|.......................|.......................|
.......................|.......................|.......................|.......................|.......................|.......................|.......................|.......................|.......................|.......................|
.......................|.......................|.......................|.......................|.......................|.......................|.......................|.......................|.......................|.......................|
C-0....................|C-0....................|.......................|C-0....................|.......................|.......................|.......................|.......................|.......................|.......................|
C#3....................|E-4....................|F#4....................|G#4..630400............|.......................|C-4C6..................|C#2....................|E-2....................|.......................|.......................|
.......................|.......................|.......................|.......................|.......................|.......................|.......................|.......................|.......................|.......................|
.......................|.......................|.......................|.......................|.......................|.......................|.......................|.......................|.......................|.......................|
.......................|.......................|.......................|.......................|.......................|.......................|.......................|.......................|.......................|.......................|
.......................|.......................|.......................|.......................|.......0452............|.......................|.......................|.......................|.......................|.......................|
.......................|.......................|.......................|.......................|.......................|.......................|.......................|.......................|.......................|.......................|
.......................|.......................|.......................|.......................|.......................|.......................|C-0....................|C-0....................|.......................|.......................|
C-0....................|C-0....................|C-0....................|C-0....................|C-0....................|.......................|C-0....................|C-0....................|.......................|.......................|
C#3....................|D#4....................|E-4....................|G#4....................|G#4....0400............|C-4C6..................|C#2....................|E-2....................|.......................|.......................|
.......................|.......................|.......................|.......................|.......................|.......................|.......................|.......................|.......................|.......................|
.......................|.......................|.......................|.......................|.......................|.......................|.......................|.......................|.......................|.......................|
.......................|.......................|.......................|.......................|.......................|.......................|.......................|.......................|.......................|.......................|
.......................|.......................|.......................|.......................|.......................|.......................|.......................|.......................|.......................|.......................|
.......................|.......................|.......................|.......................|.......................|.......................|.......................|.......................|.......................|.......................|
.......................|.......................|.......................|.......................|.......................|.......................|C-0....................|C-0....................|.......................|.......................|
C-0....................|C-0....................|C-0....................|C-0....................|C-0....................|.......................|C-0....................|C-0....................|.......................|.......................|
C#3....................|C#4....................|D#4....................|G#4....................|G#4....................|C-4C6..................|C#2....................|E-2....................|.......................|.......................|
.......................|.......................|.......................|.......................|.......................|.......................|.......................|.......................|.......................|.......................|
.......................|.......................|.......................|.......................|.......................|.......................|.......................|.......................|.......................|.......................|
.......................|.......................|.......................|.......................|.......................|.......................|.......................|.......................|.......................|.......................|
.......................|.......................|.......................|.......................|.......................|.......................|.......................|.......................|.......................|.......................|
.......................|.......................|.......................|.......................|.......................|.......................|.......................|.......................|.......................|.......................|
.......................|.......................|.......................|.......................|.......................|.......................|C-0....................|C-0....................|.......................|.......................|
C-0....................|C-0....................|C-0....................|C-0....................|C-0....................|.......................|C-0....................|C-0....................|.......................|.......................|
C#3....................|G#4....................|C#4....................|G#4....................|G#4....................|C-4C6..................|C#2....................|E-2....................|.......................|.......................|
.......................|.......................|.......................|.......................|.......................|.......................|.......................|.......................|.......................|.......................|
.......................|.......................|.......................|.......................|.......................|.......................|.......................|.......................|.......................|.......................|
.......................|.......................|.......................|.......................|.......................|.......................|.......................|.......................|.......................|.......................|
.......................|.......................|.......................|.......................|.......................|.......................|.......................|.......................|.......................|.......................|
.......................|.......................|.......................|.......................|.......................|.......................|.......................|.......................|.......................|.......................|
.......................|.......................|.......................|.......................|.......................|.......................|.......................|.......................|.......................|.......................|
.......................|C-0....................|C-0....................|.......................|C-0....................|.......................|.......................|.......................|.......................|.......................|
.......................|.......................|G#4....................|.......................|G#4....................|.......................|.......................|.......................|.......................|.......................|
.......................|.......................|.......................|.......................|.......................|.......................|.......................|.......................|.......................|.......................|
.......................|.......................|.......................|.......................|.......................|.......................|.......................|.......................|.......................|.......................|
C-0....................|.......................|.......................|.......................|.......................|.......................|.......................|.......................|.......................|.......................|
C#3....................|.......................|.......................|.......................|.......................|C-4C1..................|.......................|.......................|.......................|.......................|
.......................|.......................|.......................|.......................|.......................|.......................|.......................|.......................|.......................|.......................|
.......................|.......................|.......................|.......................|.......................|.......................|.......................|.......................|.......................|.......................|
.......................|.......................|C-0....................|.......................|.......................|.......................|.......................|.......................|.......................|.......................|
.......................|B-4....................|.......................|.......................|.......................|.......................|.......................|.......................|.......................|.......................|
.......................|.......................|.......................|.......................|.......................|.......................|.......................|.......................|.......................|.......................|
.......................|.......................|.......................|.......................|.......................|C-4C1..................|.......................|.......................|.......................|.......................|
.......................|.......................|.......................|.......................|.......................|.......................|.......................|.......................|.......................|.......................|
.......................|.......................|.......................|.......0452............|.......................|.......................|.......0452............|.......0452............|.......................|.......................|
.......................|.......................|.......................|.......................|.......................|.......................|.......................|.......................|.......................|.......................|
.......................|.......................|.......................|.......................|.......................|.......................|.......................|.......................|.......................|.......................|
C-0....................|C-0....................|.......................|C-0....................|C-0....................|.......................|C-0....................|C-0....................|.......................|.......................|
F#3....................|A-4....................|B-4....................|.......................|.......................|C-4C6..................|C-0....................|C-0....................|.......................|.......................|
.......................|.......................|.......................|.......................|.......................|.......................|.......................|.......................|.......................|.......................|
.......................|.......................|.......................|.......................|.......................|.......................|.......................|.......................|.......................|.......................|
.......................|.......................|.......................|.......................|.......................|.......................|.......................|.......................|.......................|.......................|
.......................|.......................|.......................|.......................|.......................|.......................|.......................|.......................|.......................|.......................|
.......................|.......................|.......................|.......................|.......................|.......................|.......................|.......................|.......................|.......................|
.......................|.......................|.......................|.......................|.......................|.......................|.......................|.......................|.......................|.......................|
.......................|.......................|C-0....................|.......................|.......................|.......................|.......................|.......................|.......................|.......................|
.......................|.......................|A-4....................|.......................|.......................|.......................|.......................|.......................|.......................|.......................|
.......................|.......................|.......................|.......................|.......................|.......................|.......................|.......................|.......................|.......................|
.......................|.......................|.......................|.......................|.......................|.......................|.......................|.......................|.......................|.......................|
C-0....................|.......................|.......................|.......................|.......................|.......................|.......................|.......................|.......................|.......................|
F#3....................|.......................|.......................|C#5....0400............|.......................|C-4C1..................|F#2....0400............|A-2....0400............|.......................|.......................|
.......................|.......................|.......................|.......................|.......................|.......................|.......................|.......................|.......................|.......................|
.......................|.......................|.......................|.......................|.......................|.......................|.......................|.......................|.......................|.......................|
.......................|.......................|.......................|.......................|.......................|.......................|C-0....................|C-0....................|.......................|.......................|
.......................|.......................|.......................|.......................|.......................|.......................|C-0....................|C-0....................|.......................|.......................|
.......................|.......................|.......................|C-0....................|.......................|.......................|.......................|.......................|.......................|.......................|
.......................|.......................|.......................|C#5....................|.......................|C-4C1..................|F#2....................|A-2....................|.......................|.......................|
.......................|.......................|.......................|.......................|.......................|.......................|.......................|.......................|.......................|.......................|
.......................|.......0452............|.......................|.......................|C#5....................|.......................|.......................|.......................|.......................|.......................|
.......................|.......................|.......................|.......................|.......................|.......................|C-0....................|C-0....................|.......................|.......................|
.......................|.......................|.......................|.......................|.......................|.......................|C-0....................|C-0....................|.......................|.......................|
C-0....................|C-0....................|.......................|C-0....................|.......................|.......................|.......................|.......................|.......................|.......................|
F#3....................|F#4....0400............|.......................|C#5..67................|.......................|C-4C6..................|F#2....................|A-2....................|.......................|.......................|
.......................|.......................|.......................|.......................|C-0....................|.......................|.......................|.......................|.......................|.......................|
.......................|.......................|.......................|.......................|C#5....................|.......................|.......................|.......................|.......................|.......................|
.......................|.......................|.......................|.......................|.......................|.......................|.......................|.......................|.......................|.......................|
.......................|.......................|.......0452............|.......................|.......................|.......................|.......................|.......................|.......................|.......................|
.......................|.......................|.......................|.......................|.......................|.......................|.......................|.......................|.......................|.......................|
.......................|.......................|.......................|.......................|.......................|.......................|.......................|.......................|.......................|.......................|
.......................|C-0....................|C-0....................|.......................|C-0....................|.......................|.......................|.......................|.......................|.......................|
.......................|.......................|F#4....0400............|.......................|C#5....................|.......................|.......................|.......................|.......................|.......................|
.......................|.......................|.......................|.......................|.......................|.......................|.......................|.......................|.......................|.......................|
.......................|.......................|.......................|.......................|.......................|.......................|.......................|.......................|.......................|.......................|
C-0....................|.......................|.......................|.......................|.......................|.......................|.......................|.......................|.......................|.......................|
F#3....................|.......................|.......................|.......................|.......................|C-4C1..................|.......................|.......................|.......................|.......................|
.......................|.......................|.......................|.......................|.......................|.......................|.......................|.......................|.......................|.......................|
.......................|.......................|.......................|.......................|.......................|.......................|.......................|.......................|.......................|.......................|
.......................|.......................|C-0....................|.......................|.......................|.......................|.......................|.......................|.......................|.......................|
.......................|A-4....................|.......................|.......................|.......................|.......................|.......................|.......................|.......................|.......................|
.......................|.......................|.......................|.......................|.......................|.......................|.......................|.......................|.......................|.......................|
.......................|.......................|.......................|.......................|.......................|C-4C1..................|.......................|.......................|.......................|.......................|
.......................|.......................|.......................|.......................|.......................|.......................|.......................|.......................|.......................|.......................|
.......................|.......................|.......................|.......0452............|.......................|.......................|.......0452............|.......0452............|.......................|.......................|
.......................|.......................|.......................|.......................|.......................|.......................|.......................|.......................|.......................|.......................|
.......................|.......................|.......................|.......................|.......................|.......................|.......................|.......................|.......................|.......................|
C-0....................|C-0....................|.......................|C-0....................|C-0....................|.......................|C-0....................|C-0....................|.......................|.......................|
E-3....................|G#4....................|A-4....................|.......................|.......................|C-4C6..................|C-0....................|C-0....................|.......................|.......................|
.......................|.......................|.......................|.......................|.......................|.......................|.......................|.......................|.......................|.......................|
.......................|.......................|.......................|.......................|.......................|.......................|.......................|.......................|.......................|.......................|
.......................|.......................|.......................|.......................|.......................|.......................|.......................|.......................|.......................|.......................|
.......................|.......................|.......................|.......................|.......................|.......................|.......................|.......................|.......................|.......................|
.......................|.......................|.......................|.......................|.......................|.......................|.......................|.......................|.......................|.......................|
.......................|.......................|.......................|.......................|.......................|.......................|.......................|.......................|.......................|.......................|
.......................|.......................|C-0....................|.......................|.......................|.......................|.......................|.......................|.......................|.......................|
.......................|.......................|G#4....................|.......................|.......................|.......................|.......................|.......................|.......................|.......................|
.......................|.......................|.......................|.......................|.......................|.......................|.......................|.......................|.......................|.......................|
.......................|.......................|.......................|.......................|.......................|.......................|.......................|.......................|.......................|.......................|
C-0....................|.......................|.......................|.......................|.......................|.......................|.......................|.......................|.......................|.......................|
E-3....................|.......................|.......................|B-4..630400............|.......................|C-4C1..................|E-2....0400............|G#2....0400............|.......................|.......................|
.......................|.......................|.......................|.......................|.......................|.......................|.......................|.......................|.......................|.......................|
.......................|.......................|.......................|.......................|.......................|.......................|.......................|.......................|.......................|.......................|
.......................|.......................|.......................|.......................|.......................|.......................|C-0....................|C-0....................|.......................|.......................|
.......................|.......................|.......................|.......................|.......................|.......................|C-0....................|C-0....................|.......................|.......................|
.......................|.......................|.......................|C-0....................|.......................|.......................|.......................|.......................|.......................|.......................|
.......................|.......................|.......................|B-4....................|.......................|C-4C1..................|E-2....................|G#2....................|.......................|.......................|
.......................|.......................|.......................|.......................|.......................|.......................|.......................|.......................|.......................|.......................|
.......................|.......0452............|.......................|.......................|B-4....................|.......................|.......................|.......................|.......................|.......................|
.......................|.......................|.......................|.......................|.......................|.......................|C-0....................|C-0....................|.......................|.......................|
.......................|.......................|.......................|.......................|.......................|.......................|C-0....................|C-0....................|.......................|.......................|
C-0....................|C-0....................|.......................|C-0....................|.......................|.......................|.......................|.......................|.......................|.......................|
E-3....................|E-4....0400............|.......................|B-4..67................|.......................|C-4C6..................|E-2....................|G#2....................|.......................|.......................|
.......................|.......................|.......................|.......................|C-0....................|.......................|.......................|.......................|.......................|.......................|
.......................|.......................|.......................|.......................|B-4....................|.......................|.......................|.......................|.......................|.......................|
.......................|.......................|.......................|.......................|.......................|.......................|.......................|.......................|.......................|.......................|
.......................|.......................|.......0452............|.......................|.......................|.......................|.......................|.......................|.......................|.......................|
.......................|.......................|.......................|.......................|.......................|.......................|.......................|.......................|.......................|.......................|
.......................|.......................|.......................|.......................|.......................|.......................|.......................|.......................|.......................|.......................|
.......................|C-0....................|C-0....................|.......................|C-0....................|.......................|.......................|.......................|.......................|.......................|
.......................|.......................|E-4....0400............|.......................|B-4....................|.......................|.......................|.......................|.......................|.......................|
.......................|.......................|.......................|.......................|.......................|.......................|.......................|.......................|.......................|.......................|
.......................|.......................|.......................|.......................|.......................|.......................|.......................|.......................|.......................|.......................|
C-0....................|.......................|.......................|.......................|.......................|.......................|.......................|.......................|.......................|.......................|
E-3....................|.......................|.......................|.......................|.......................|C-4C1..................|.......................|.......................|.......................|.......................|
.......................|.......................|.......................|.......................|.......................|.......................|.......................|.......................|.......................|.......................|
.......................|.......................|.......................|.......................|.......................|.......................|.......................|.......................|.......................|.......................|
.......................|.......................|C-0....................|.......................|.......................|.......................|.......................|.......................|.......................|.......................|
.......................|G#4....................|.......................|.......................|.......................|.......................|.......................|.......................|.......................|.......................|
.......................|.......................|.......................|.......................|.......................|.......................|.......................|.......................|.......................|.......................|
.......................|.......................|.......................|.......................|.......................|C-4C1..................|.......................|.......................|.......................|.......................|
.......................|.......................|.......................|.......................|.......................|.......................|.......................|.......................|.......................|.......................|
.......................|.......................|.......................|.......0452............|.......................|.......................|.......0452............|.......0452............|.......................|.......................|
.......................|.......................|.......................|.......................|.......................|.......................|.......................|.......................|.......................|.......................|
.......................|.......................|.......................|.......................|.......................|.......................|.......................|.......................|.......................|.......................|
C-0....................|C-0....................|.......................|C-0....................|C-0....................|.......................|C-0....................|C-0....................|.......................|.......................|
org.tildearrow.furnace - Pattern Data (219)
0
D-3....................|F#4....................|.......................|A-4....0400............|.......................|C-4C6..................|F#1....0400............|F#2....0400............|.......................|.......................|
.......................|.......................|.......................|.......................|.......................|.......................|.......................|.......................|.......................|.......................|
.......................|.......................|.......................|.......................|.......................|.......................|.......................|.......................|.......................|.......................|
.......................|.......................|.......................|.......................|.......................|.......................|.......................|.......................|.......................|.......................|
.......................|.......................|.......................|.......................|.......................|.......................|.......................|.......................|.......................|.......................|
.......................|.......................|.......................|.......................|.......................|.......................|.......................|.......................|.......................|.......................|
.......................|.......................|.......................|.......................|.......................|.......................|.......................|.......................|.......................|.......................|
.......................|.......................|.......................|.......................|.......................|.......................|C-0....................|C-0....................|.......................|.......................|
.......................|.......................|F#4....................|.......................|A-4....................|.......................|C-0....................|C-0....................|.......................|.......................|
.......................|.......................|.......................|.......................|.......................|.......................|.......................|.......................|.......................|.......................|
.......................|.......................|.......................|.......................|.......................|.......................|.......................|.......................|.......................|.......................|
.......................|C-0....................|.......................|.......................|.......................|.......................|.......................|.......................|.......................|.......................|
.......................|D-4....................|.......................|.......................|.......................|C-4C1..................|F#1..0C................|.......................|.......................|.......................|
.......................|.......................|.......................|.......................|.......................|.......................|.......................|.......................|.......................|.......................|
.......................|.......................|.......................|.......................|.......................|.......................|.......................|.......................|.......................|.......................|
.......................|.......................|.......................|.......................|.......................|.......................|.......................|.......................|.......................|.......................|
.......................|.......................|.......................|.......................|.......................|.......................|.......................|.......................|.......................|.......................|
.......................|C-0....................|.......................|.......................|.......................|.......................|C-0....................|.......................|.......................|.......................|
.......................|F#4....................|.......................|.......................|.......................|C-4C1..................|A-1....................|.......................|.......................|.......................|
.......................|.......................|C-0....................|.......................|.......................|.......................|.......................|.......................|.......................|.......................|
.......0452............|.......................|D-4....................|.......0452............|.......................|.......................|.......................|F#2..0A................|.......................|.......................|
.......................|.......................|.......................|.......................|.......................|.......................|.......................|.......................|.......................|.......................|
.......................|.......................|.......................|.......................|.......................|.......................|.......................|.......................|.......................|.......................|
.......................|C-0....................|.......................|.......................|.......................|.......................|C-0....................|.......................|.......................|.......................|
.......................|A-4....................|.......................|.......................|.......................|C-4C6..................|D-2....................|.......................|.......................|.......................|
.......................|.......................|C-0....................|.......................|.......................|.......................|.......................|C-0....................|.......................|.......................|
.......................|.......................|F#4....................|.......................|.......................|.......................|.......................|A-2....................|.......................|.......................|
.......................|.......................|.......................|.......................|.......................|.......................|.......................|.......................|.......................|.......................|
.......................|.......................|.......................|.......................|.......0452............|.......................|.......................|.......................|.......................|.......................|
.......................|C-0....................|.......................|.......................|.......................|.......................|C-0....................|.......................|.......................|.......................|
.......................|D-5....................|.......................|.......................|.......................|C-4C1..................|F#2....................|.......................|.......................|.......................|
.......................|.......................|C-0....................|.......................|.......................|.......................|.......................|C-0....................|.......................|.......................|
.......................|.......................|A-4....................|.......................|.......................|.......................|.......................|D-3....................|.......................|.......................|
.......................|.......................|.......................|.......................|.......................|.......................|.......................|.......................|.......................|.......................|
.......................|.......................|.......................|.......................|.......................|.......................|.......................|.......................|.......................|.......................|
.......................|C-0....................|.......................|.......................|.......................|.......................|C-0....................|.......................|.......................|.......................|
.......................|F#5....................|.......................|.......................|.......................|C-4C1..................|A-2....................|.......................|.......................|.......................|
.......................|.......................|C-0....................|.......................|.......................|.......................|.......................|C-0....................|.......................|.......................|
.......................|.......................|D-5....................|.......................|.......................|.......................|.......................|F#3....................|.......................|.......................|
.......................|.......................|.......................|.......................|.......................|.......................|.......................|.......................|.......................|.......................|
.......................|.......................|.......................|.......................|.......................|.......................|.......................|.......................|.......................|.......................|
.......................|C-0....................|.......................|.......................|.......................|.......................|C-0....................|.......................|.......................|.......................|
.......................|C-0....................|.......................|.......................|.......................|C-4C1..................|D-3....................|.......................|.......................|.......................|
.......................|.......................|C-0....................|.......................|.......................|.......................|.......................|C-0....................|.......................|.......................|
.......................|.......................|F#5....................|.......................|.......................|.......................|.......................|A-3....................|.......................|.......................|
.......................|.......................|.......................|.......................|.......................|.......................|.......................|.......................|.......................|.......................|
.......................|.......................|.......................|.......................|.......................|.......................|.......................|.......................|.......................|.......................|
C-0....................|C-0....................|.......................|C-0....................|.......................|.......................|C-0....................|.......................|.......................|.......................|
A#2....0400............|C-0....................|.......................|F-4....0400............|.......................|C-4C6..................|A#3....................|.......................|.......................|.......................|
.......................|.......................|C-0....................|.......................|.......................|.......................|.......................|C-0....................|.......................|.......................|
.......................|.......................|C-0....................|.......................|.......................|.......................|.......................|D-4....................|.......................|.......................|
.......................|.......................|.......................|.......................|.......................|.......................|.......................|.......................|.......................|.......................|
.......................|.......................|.......................|.......................|.......................|.......................|.......................|.......................|.......................|.......................|
.......................|.......................|.......................|.......................|.......................|.......................|.......................|.......................|.......................|.......................|
.......................|.......................|.......................|.......................|.......................|.......................|.......................|.......................|.......................|.......................|
.......................|.......................|C-0....................|.......................|C-0....................|.......................|.......................|C-0....................|.......................|.......................|
.......................|.......................|C-0....................|.......................|F-4....0400............|.......................|.......................|A#3....................|.......................|.......................|
.......................|.......................|.......................|.......................|.......................|.......................|.......................|.......................|.......................|.......................|
.......................|.......................|.......................|.......................|.......................|.......................|.......................|.......................|.......................|.......................|
.......................|C-0....................|.......................|C-0....................|C-0....................|.......................|C-0....................|.......................|.......................|.......................|
.......................|A#22E..................|.......................|.......................|.......................|C-4C7..................|C-0....................|.......................|.......................|.......................|
.......................|.......................|.......................|.......................|.......................|.......................|.......................|.......................|.......................|.......................|
.......................|.......................|.......................|.......................|.......................|.......................|.......................|.......................|.......................|.......................|
.......................|.......................|.......................|.......................|.......................|.......................|.......................|.......................|.......................|.......................|
.......................|.......................|.......................|.......................|.......................|.......................|.......................|.......................|.......................|.......................|
.......................|C-0....................|.......................|.......................|.......................|.......................|.......................|.......................|.......................|.......................|
.......................|A#2....................|.......................|.......................|.......................|C-4C7..................|.......................|.......................|.......................|.......................|
.......................|.......................|C-0....................|.......................|.......................|.......................|.......................|C-0....................|.......................|.......................|
.......0452............|.......................|A#32E74................|.......................|.......................|.......................|.......................|C-0....................|.......................|.......................|
.......................|.......................|.......................|.......................|.......................|.......................|.......................|.......................|.......................|.......................|
.......................|.......................|.......................|.......................|.......................|.......................|.......................|.......................|.......................|.......................|
C-0....................|C-0....................|.......................|.......................|.......................|.......................|.......................|.......................|.......................|.......................|
A#3....0400............|A#2....................|.......................|.......................|.......................|C-4C6..................|.......................|.......................|.......................|.......................|
.......................|.......................|C-0....................|.......................|.......................|.......................|.......................|.......................|.......................|.......................|
.......................|.......................|A#3....................|.......................|.......................|.......................|.......................|.......................|.......................|.......................|
.......................|.......................|.......................|.......................|.......................|.......................|.......................|.......................|.......................|.......................|
.......................|.......................|.......................|.......................|.......................|.......................|.......................|.......................|.......................|.......................|
.......................|.......................|.......................|.......................|.......................|.......................|.......................|.......................|.......................|.......................|
.......................|.......................|.......................|.......................|.......................|.......................|.......................|.......................|.......................|.......................|
.......................|.......................|C-0....................|.......................|.......................|.......................|.......................|.......................|.......................|.......................|
.......................|.......................|A#3....................|.......................|.......................|.......................|.......................|.......................|.......................|.......................|
.......................|.......................|.......................|.......................|.......................|.......................|.......................|.......................|.......................|.......................|
.......................|.......................|.......................|.......................|.......................|.......................|.......................|.......................|.......................|.......................|
C-0....................|C-0....................|C-0....................|.......................|.......................|.......................|.......................|.......................|.......................|.......................|
A#2....................|A#32063................|C#32063................|.......................|.......................|C-4C1..................|.......................|.......................|.......................|.......................|
.......................|.......................|.......................|.......................|.......................|.......................|.......................|.......................|.......................|.......................|
.......................|.......................|.......................|.......................|.......................|.......................|.......................|.......................|.......................|.......................|
.......................|.......................|.......................|.......................|.......................|.......................|.......................|.......................|.......................|.......................|
.......................|.......................|.......................|.......................|.......................|.......................|.......................|.......................|.......................|.......................|
.......................|C-0....................|C-0....................|.......................|.......................|.......................|.......................|.......................|.......................|.......................|
.......................|.......................|.......................|.......................|.......................|C-4C1..................|.......................|.......................|.......................|.......................|
.......................|.......................|.......................|.......................|.......................|.......................|.......................|.......................|.......................|.......................|
.......................|.......................|.......................|.......................|.......................|.......................|.......................|.......................|.......................|.......................|
.......................|.......................|.......................|.......................|.......................|.......................|.......................|.......................|.......................|.......................|
.......................|.......................|.......................|.......................|.......................|.......................|.......................|.......................|.......................|.......................|
C-0....................|.......................|.......................|.......................|.......................|.......................|.......................|.......................|.......................|.......................|
A#2....................|F-4....................|A#3....................|.......................|.......................|C-4C6..................|A#1..0A................|F-1....................|.......................|.......................|
.......................|.......................|.......................|.......................|.......................|.......................|.......................|.......................|.......................|.......................|
.......................|.......................|.......................|.......................|.......................|.......................|.......................|.......................|.......................|.......................|
.......................|.......................|.......................|.......................|.......................|.......................|.......................|.......................|.......................|.......................|
.......................|.......................|.......................|.......................|.......................|.......................|.......................|.......................|.......................|.......................|
.......................|.......................|.......................|.......................|.......................|.......................|C-0....................|C-0....................|.......................|.......................|
.......................|.......................|.......................|.......................|.......................|.......................|C-0....................|C-0....................|.......................|.......................|
.......................|.......................|.......................|.......................|.......................|.......................|.......................|.......................|.......................|.......................|
.......................|.......................|.......................|.......................|.......................|.......................|.......................|.......................|.......................|.......................|
.......................|.......................|.......................|.......................|.......................|.......................|.......................|.......................|.......................|.......................|
.......................|.......................|.......................|.......................|.......................|.......................|.......................|.......................|.......................|.......................|
C-0....................|.......................|.......................|.......................|.......................|.......................|.......................|.......................|.......................|.......................|
A#2....................|.......................|.......................|.......................|.......................|C-4C1..................|A#1....................|F-1....................|.......................|.......................|
.......................|.......................|.......................|.......................|.......................|.......................|.......................|.......................|.......................|.......................|
.......................|.......................|.......................|.......................|.......................|.......................|.......................|.......................|.......................|.......................|
.......................|.......................|.......................|.......................|.......................|.......................|.......................|.......................|.......................|.......................|
.......................|.......................|.......................|.......................|.......................|.......................|.......................|.......................|.......................|.......................|
.......................|.......................|.......................|.......................|.......................|.......................|C-0....................|C-0....................|.......................|.......................|
.......................|.......................|.......................|.......................|.......................|C-4C1..................|C-0....................|C-0....................|.......................|.......................|
.......................|.......................|.......................|.......................|.......................|.......................|.......................|.......................|.......................|.......................|
.......................|.......0452............|.......0452............|.......................|.......................|.......................|.......................|.......................|.......................|.......................|
.......................|.......................|.......................|.......................|.......................|.......................|.......................|.......................|.......................|.......................|
.......................|.......................|.......................|.......................|.......................|.......................|.......................|.......................|.......................|.......................|
C-0....................|C-0....................|C-0....................|.......................|.......................|.......................|.......................|.......................|.......................|.......................|
A#2....................|C#4....0400............|F-3....0400............|.......................|.......................|C-4C6..................|A#1....................|F-1....................|.......................|.......................|
.......................|.......................|.......................|.......................|.......................|.......................|.......................|.......................|.......................|.......................|
.......................|.......................|.......................|.......................|.......................|.......................|.......................|.......................|.......................|.......................|
.......................|.......................|.......................|.......................|.......................|.......................|.......................|.......................|.......................|.......................|
.......................|.......................|.......................|.......................|.......................|.......................|.......................|.......................|.......................|.......................|
.......................|.......................|.......................|.......................|.......................|.......................|C-0....................|C-0....................|.......................|.......................|
.......................|.......................|.......................|.......................|.......................|.......................|C-0....................|C-0....................|.......................|.......................|
.......................|.......................|.......................|.......................|.......................|.......................|.......................|.......................|.......................|.......................|
.......................|.......................|.......................|.......................|.......................|.......................|.......................|.......................|.......................|.......................|
.......................|.......................|.......................|.......................|.......................|.......................|.......................|.......................|.......................|.......................|
.......................|.......................|.......................|.......................|.......................|.......................|.......................|.......................|.......................|.......................|
C-0....................|.......................|.......................|.......................|.......................|.......................|.......................|.......................|.......................|.......................|
A#2....................|.......................|.......................|.......................|.......................|C-4C1..................|A#1....................|F-1....................|.......................|.......................|
.......................|.......................|.......................|.......................|.......................|.......................|.......................|.......................|.......................|.......................|
.......................|.......................|.......................|.......................|.......................|.......................|.......................|.......................|.......................|.......................|
.......................|.......................|.......................|.......................|.......................|.......................|.......................|.......................|.......................|.......................|
.......................|.......................|.......................|.......................|.......................|.......................|.......................|.......................|.......................|.......................|
.......................|.......................|.......................|.......................|.......................|.......................|C-0....................|C-0....................|.......................|.......................|
.......................|.......................|.......................|.......................|.......................|C-4C1..................|C-0....................|C-0....................|.......................|.......................|
.......................|.......................|.......................|.......................|.......................|.......................|.......................|.......................|.......................|.......................|
.......................|.......0452............|.......0452............|.......................|.......................|.......................|.......................|.......................|.......................|.......................|
.......................|.......................|.......................|.......................|.......................|.......................|.......................|.......................|.......................|.......................|
.......................|.......................|.......................|.......................|.......................|.......................|.......................|.......................|.......................|.......................|
C-0....................|C-0....................|C-0....................|.......................|.......................|.......................|.......................|.......................|.......................|.......................|
A#2....................|G#4....0400............|C#4....0400............|.......................|.......................|C-4C6..................|A#1....................|F-1....................|.......................|.......................|
.......................|.......................|.......................|.......................|.......................|.......................|.......................|.......................|.......................|.......................|
.......................|.......................|.......................|.......................|.......................|.......................|.......................|.......................|.......................|.......................|
.......................|.......................|.......................|.......................|.......................|.......................|.......................|.......................|.......................|.......................|
.......................|.......................|.......................|.......................|.......................|.......................|.......................|.......................|.......................|.......................|
.......................|.......................|.......................|.......................|.......................|.......................|C-0....................|C-0....................|.......................|.......................|
.......................|.......................|.......................|.......................|.......................|.......................|C-0....................|C-0....................|.......................|.......................|
.......................|.......................|.......................|.......................|.......................|.......................|.......................|.......................|.......................|.......................|
.......................|.......................|.......................|.......................|.......................|.......................|.......................|.......................|.......................|.......................|
.......................|.......................|.......................|.......................|.......................|.......................|.......................|.......................|.......................|.......................|
.......................|.......................|.......................|.......................|.......................|.......................|.......................|.......................|.......................|.......................|
C-0....................|.......................|.......................|.......................|.......................|.......................|.......................|.......................|.......................|.......................|
A#2....................|.......................|.......................|.......................|.......................|C-4C1..................|A#1....................|F-1....................|.......................|.......................|
.......................|.......................|.......................|.......................|.......................|.......................|.......................|.......................|.......................|.......................|
.......................|.......................|.......................|.......................|.......................|.......................|.......................|.......................|.......................|.......................|
.......................|.......................|.......................|.......................|.......................|.......................|.......................|.......................|.......................|.......................|
.......................|.......................|.......................|.......................|.......................|.......................|.......................|.......................|.......................|.......................|
.......................|.......................|.......................|.......................|.......................|.......................|C-0....................|C-0....................|.......................|.......................|
.......................|.......................|.......................|.......................|.......................|C-4C1..................|C-0....................|C-0....................|.......................|.......................|
.......................|.......................|.......................|.......................|.......................|.......................|.......................|.......................|.......................|.......................|
.......................|.......0452............|.......0452............|.......................|.......................|.......................|.......................|.......................|.......................|.......................|
.......................|.......................|.......................|.......................|.......................|.......................|.......................|.......................|.......................|.......................|
.......................|.......................|.......................|.......................|.......................|.......................|.......................|.......................|.......................|.......................|
C-0....................|C-0....................|C-0....................|.......................|.......................|.......................|.......................|.......................|.......................|.......................|
A#2....................|F-4....0400............|A#3....0400............|.......................|.......................|C-4C6..................|A#1....................|F-1....................|.......................|.......................|
.......................|.......................|.......................|.......................|.......................|.......................|.......................|.......................|.......................|.......................|
.......................|.......................|.......................|.......................|.......................|.......................|.......................|.......................|.......................|.......................|
.......................|.......................|.......................|.......................|.......................|.......................|.......................|.......................|.......................|.......................|
.......................|.......................|.......................|.......................|.......................|.......................|.......................|.......................|.......................|.......................|
.......................|C-0....................|C-0....................|.......................|.......................|.......................|C-0....................|C-0....................|.......................|.......................|
.......................|.......................|.......................|.......................|.......................|.......................|C-0....................|C-0....................|.......................|.......................|
.......................|.......................|.......................|.......................|.......................|.......................|.......................|.......................|.......................|.......................|
.......................|.......................|.......................|.......................|.......................|.......................|.......................|.......................|.......................|.......................|
.......................|.......................|.......................|.......................|.......................|.......................|.......................|.......................|.......................|.......................|
.......................|.......................|.......................|.......................|.......................|.......................|.......................|.......................|.......................|.......................|
C-0....................|.......................|.......................|.......................|.......................|.......................|.......................|.......................|.......................|.......................|
A#2....................|C-5....................|G#4....................|.......................|.......................|C-4C1..................|A#1....................|F-1....................|.......................|.......................|
.......................|.......................|.......................|.......................|.......................|.......................|.......................|.......................|.......................|.......................|
.......................|.......................|.......................|.......................|.......................|.......................|.......................|.......................|.......................|.......................|
.......................|.......................|.......................|.......................|.......................|.......................|.......................|.......................|.......................|.......................|
.......................|.......................|.......................|.......................|.......................|.......................|.......................|.......................|.......................|.......................|
.......................|.......................|.......................|.......................|.......................|.......................|C-0....................|C-0....................|.......................|.......................|
.......................|.......................|.......................|.......................|.......................|C-4C1..................|C-0....................|C-0....................|.......................|.......................|
.......................|.......................|.......................|.......................|.......................|.......................|.......................|.......................|.......................|.......................|
.......................|.......................|.......................|.......................|.......................|.......................|.......................|.......................|.......................|.......................|
.......................|.......................|.......................|.......................|.......................|.......................|.......................|.......................|.......................|.......................|
.......................|.......................|.......................|.......................|.......................|.......................|.......................|.......................|.......................|.......................|
C-0....................|.......................|.......................|.......................|.......................|.......................|.......................|.......................|.......................|.......................|
G#3....................|.......................|.......................|.......................|.......................|C-4C6..................|A#1....................|F-1....................|.......................|.......................|
.......................|.......................|.......................|.......................|.......................|.......................|.......................|.......................|.......................|.......................|
.......................|.......................|.......................|.......................|.......................|.......................|.......................|.......................|.......................|.......................|
.......................|.......................|.......................|.......................|.......................|.......................|.......................|.......................|.......................|.......................|
.......................|.......................|.......................|.......................|.......................|.......................|.......................|.......................|.......................|.......................|
C-0....................|.......................|C-0....................|.......................|.......................|.......................|C-0....................|C-0....................|.......................|.......................|
A#3....................|.......................|.......................|.......................|.......................|.......................|C-0....................|C-0....................|.......................|.......................|
.......................|.......................|.......................|.......................|.......................|.......................|.......................|.......................|.......................|.......................|
.......................|.......0452............|.......................|.......................|.......................|.......................|.......................|.......................|.......................|.......................|
.......................|.......................|.......................|.......................|.......................|.......................|.......................|.......................|.......................|.......................|
.......................|.......................|.......................|.......................|.......................|.......................|.......................|.......................|.......................|.......................|
C-0....................|C-0....................|.......................|.......................|.......................|.......................|.......................|.......................|.......................|.......................|
A#2....................|G#4....0400............|C#4....................|.......................|.......................|C-4C1..................|A#1....................|F-1....................|.......................|.......................|
.......................|.......................|.......................|.......................|.......................|.......................|.......................|.......................|.......................|.......................|
.......................|.......................|.......................|.......................|.......................|.......................|.......................|.......................|.......................|.......................|
.......................|.......................|.......................|.......................|.......................|.......................|.......................|.......................|.......................|.......................|
.......................|.......................|.......................|.......................|.......................|.......................|.......................|.......................|.......................|.......................|
.......................|C-0....................|C-0....................|.......................|.......................|.......................|C-0....................|C-0....................|.......................|.......................|
.......................|.......................|.......................|.......................|.......................|C-4C1..................|C-0....................|C-0....................|.......................|.......................|
.......................|.......................|.......................|.......................|.......................|.......................|.......................|.......................|.......................|.......................|
.......................|.......................|.......................|.......................|.......................|.......................|.......................|.......................|.......................|.......................|
.......................|.......................|.......................|.......................|.......................|.......................|.......................|.......................|.......................|.......................|
.......................|.......................|.......................|.......................|.......................|.......................|.......................|.......................|.......................|.......................|
C-0....................|.......................|.......................|.......................|.......................|.......................|.......................|.......................|.......................|.......................|
A#2....................|F-5....................|G#4....................|.......................|.......................|C-4C6..................|A#1....................|F-1....................|.......................|.......................|
.......................|.......................|.......................|.......................|.......................|.......................|.......................|.......................|.......................|.......................|
.......................|.......................|.......................|.......................|.......................|.......................|.......................|.......................|.......................|.......................|
.......................|.......................|.......................|.......................|.......................|.......................|.......................|.......................|.......................|.......................|
.......................|.......................|.......................|.......................|.......................|.......................|.......................|.......................|.......................|.......................|
.......................|.......................|.......................|.......................|.......................|.......................|C-0....................|C-0....................|.......................|.......................|
.......................|.......................|.......................|.......................|.......................|.......................|C-0....................|C-0....................|.......................|.......................|
.......................|.......................|.......................|.......................|.......................|.......................|.......................|.......................|.......................|.......................|
.......................|.......................|.......................|.......................|.......................|.......................|.......................|.......................|.......................|.......................|
.......................|.......................|.......................|.......................|.......................|.......................|.......................|.......................|.......................|.......................|
.......................|.......................|.......................|.......................|.......................|.......................|.......................|.......................|.......................|.......................|
C-0....................|.......................|.......................|.......................|.......................|.......................|.......................|.......................|.......................|.......................|
F-3....................|.......................|.......................|.......................|.......................|C-4C1..................|.......................|.......................|.......................|.......................|
.......................|.......................|.......................|.......................|.......................|.......................|.......................|.......................|.......................|.......................|
.......................|.......................|.......................|.......................|.......................|.......................|.......................|.......................|.......................|.......................|
.......................|.......................|.......................|.......................|.......................|.......................|.......................|.......................|.......................|.......................|
.......................|.......................|.......................|.......................|.......................|.......................|.......................|.......................|.......................|.......................|
.......................|.......................|.......................|.......................|.......................|.......................|.......................|.......................|.......................|.......................|
.......................|.......................|.......................|.......................|.......................|C-4C1..................|.......................|.......................|.......................|.......................|
.......................|.......................|.......................|.......................|.......................|.......................|.......................|.......................|.......................|.......................|
.......................|.......0452............|.......0452............|.......................|.......................|.......................|.......................|.......................|.......................|.......................|
.......................|.......................|.......................|.......................|.......................|.......................|.......................|.......................|.......................|.......................|
.......................|.......................|.......................|.......................|.......................|.......................|.......................|.......................|.......................|.......................|
C-0....................|C-0....................|C-0....................|.......................|.......................|.......................|.......................|.......................|.......................|.......................|
F-2....................|F-22E740400............|F-32E740400............|.......................|.......................|C-4C9..................|.......................|.......................|.......................|.......................|
.......................|.......................|.......................|.......................|.......................|.......................|.......................|.......................|.......................|.......................|
.......................|.......................|.......................|.......................|.......................|.......................|.......................|.......................|.......................|.......................|
.......................|.......................|.......................|.......................|.......................|.......................|.......................|.......................|.......................|.......................|
.......................|.......................|.......................|.......................|.......................|.......................|.......................|.......................|.......................|.......................|
C-0....................|C-0....................|C-0....................|.......................|.......................|.......................|.......................|.......................|.......................|.......................|
F-2....................|F-2....................|F-3....................|.......................|.......................|C-4C9..................|.......................|.......................|.......................|.......................|
.......................|.......................|.......................|.......................|.......................|.......................|.......................|.......................|.......................|.......................|
.......................|.......................|.......................|.......................|.......................|.......................|.......................|.......................|.......................|.......................|
.......................|.......................|.......................|.......................|.......................|.......................|.......................|.......................|.......................|.......................|
.......................|.......................|.......................|.......................|.......................|.......................|.......................|.......................|.......................|.......................|
C-0....................|C-0....................|C-0....................|.......................|.......................|.......................|.......................|.......................|.......................|.......................|
F-2....................|F-2....................|F-3....................|.......................|.......................|C-4C9..................|.......................|.......................|.......................|.......................|
.......................|.......................|.......................|.......................|.......................|.......................|.......................|.......................|.......................|.......................|
.......................|.......................|.......................|.......................|.......................|.......................|.......................|.......................|.......................|.......................|
.......................|.......................|.......................|.......................|.......................|.......................|.......................|.......................|.......................|.......................|
org.tildearrow.furnace - Pattern Data (219)
0
.......................|.......................|.......................|.......................|.......................|.......................|.......................|.......................|.......................|.......................|
.......................|.......................|.......................|.......................|.......................|.......................|.......................|.......................|.......................|.......................|
.......................|.......................|.......................|.......................|.......................|.......................|.......................|.......................|.......................|.......................|
.......................|.......................|.......................|.......................|.......................|.......................|.......................|.......................|.......................|.......................|
.......................|.......................|.......................|.......................|.......................|.......................|.......................|.......................|.......................|.......................|
.......................|.......................|.......................|.......................|.......................|.......................|.......................|.......................|.......................|.......................|
.......................|.......................|.......................|.......................|.......................|.......................|.......................|.......................|.......................|.......................|
C-0....................|C-0....................|C-0....................|.......................|.......................|.......................|.......................|.......................|.......................|.......................|
.......................|.......................|.......................|.......................|.......................|C-4C0..................|.......................|.......................|.......................|.......................|
.......................|.......................|.......................|.......................|.......................|.......................|.......................|.......................|.......................|.......................|
.......................|.......................|.......................|.......................|.......................|.......................|.......................|.......................|.......................|.......................|
.......................|.......................|.......................|.......................|.......................|.......................|.......................|.......................|.......................|.......................|
.......................|.......................|.......................|.......................|.......................|.......................|.......................|.......................|.......................|.......................|
.......................|.......................|.......................|.......................|.......................|.......................|.......................|.......................|.......................|.......................|
.......................|.......................|.......................|.......................|.......................|C-4C4..................|.......................|.......................|.......................|.......................|
.......................|.......................|.......................|.......................|.......................|.......................|.......................|.......................|.......................|.......................|
.......................|.......................|.......................|.......................|.......................|.......................|.......................|.......................|.......................|.......................|
.......................|.......................|.......................|.......................|.......................|.......................|.......................|.......................|.......................|.......................|
.......................|.......................|.......................|.......................|.......................|.......................|.......................|.......................|.......................|.......................|
.......................|.......................|.......................|.......................|.......................|.......................|.......................|.......................|.......................|.......................|
A#2....................|C#4205F................|F-3205F................|.......................|.......................|C-4C0..................|A#1..09................|F-1..09................|.......................|.......................|
.......................|.......................|.......................|.......................|.......................|.......................|.......................|.......................|.......................|.......................|
.......................|.......................|.......................|.......................|.......................|.......................|.......................|.......................|.......................|.......................|
.......................|.......................|.......................|.......................|.......................|.......................|.......................|.......................|.......................|.......................|
.......................|.......................|.......................|.......................|.......................|.......................|.......................|.......................|.......................|.......................|
.......................|C-0....................|C-0....................|.......................|.......................|.......................|C-0....................|C-0....................|.......................|.......................|
.......................|.......................|.......................|.......................|.......................|C-4C7..................|C-0....................|C-0....................|.......................|.......................|
.......................|.......................|.......................|.......................|.......................|.......................|.......................|.......................|.......................|.......................|
.......................|.......................|.......................|.......................|.......................|.......................|.......................|.......................|.......................|.......................|
.......................|.......................|.......................|.......................|.......................|.......................|.......................|.......................|.......................|.......................|
.......................|.......................|.......................|.......................|.......................|.......................|.......................|.......................|.......................|.......................|
C-0....................|.......................|.......................|.......................|.......................|.......................|.......................|.......................|.......................|.......................|
B-3....................|G#4....................|C#4....................|.......................|.......................|C-4C6..................|C#2....................|G#1....................|.......................|.......................|
.......................|.......................|.......................|.......................|.......................|.......................|.......................|.......................|.......................|.......................|
.......................|.......................|.......................|.......................|.......................|.......................|.......................|.......................|.......................|.......................|
.......................|.......................|.......................|.......................|.......................|.......................|.......................|.......................|.......................|.......................|
.......................|.......................|.......................|.......................|.......................|.......................|.......................|.......................|.......................|.......................|
C-0....................|.......................|.......................|.......................|.......................|.......................|C-0....................|C-0....................|.......................|.......................|
C#4....................|.......................|.......................|.......................|.......................|.......................|C-0....................|C-0....................|.......................|.......................|
.......................|.......................|.......................|.......................|.......................|.......................|.......................|.......................|.......................|.......................|
.......................|.......................|.......................|.......................|.......................|.......................|.......................|.......................|.......................|.......................|
.......................|.......................|.......................|.......................|.......................|.......................|.......................|.......................|.......................|.......................|
.......................|.......................|.......................|.......................|.......................|.......................|.......................|.......................|.......................|.......................|
C-0....................|.......................|.......................|.......................|.......................|.......................|.......................|.......................|.......................|.......................|
C#3....................|.......................|.......................|.......................|.......................|C-4C1..................|C#2....................|G#1....................|.......................|.......................|
.......................|.......................|.......................|.......................|.......................|.......................|.......................|.......................|.......................|.......................|
.......................|.......................|.......................|.......................|.......................|.......................|.......................|.......................|.......................|.......................|
.......................|.......................|.......................|.......................|.......................|.......................|.......................|.......................|.......................|.......................|
.......................|.......................|.......................|.......................|.......................|.......................|.......................|.......................|.......................|.......................|
.......................|.......................|.......................|.......................|.......................|.......................|C-0....................|C-0....................|.......................|.......................|
.......................|.......................|.......................|.......................|.......................|C-4C1..................|C-0....................|C-0....................|.......................|.......................|
.......................|.......................|.......................|.......................|.......................|.......................|.......................|.......................|.......................|.......................|
.......................|.......0452............|.......0452............|.......................|.......................|.......................|.......................|.......................|.......................|.......................|
.......................|.......................|.......................|.......................|.......................|.......................|.......................|.......................|.......................|.......................|
.......................|.......................|.......................|.......................|.......................|.......................|.......................|.......................|.......................|.......................|
C-0....................|C-0....................|C-0....................|.......................|.......................|.......................|.......................|.......................|.......................|.......................|
C#3....................|E-4....0400............|G#3....0400............|.......................|.......................|C-4C6..................|C#2....................|G#1....................|.......................|.......................|
.......................|.......................|.......................|.......................|.......................|.......................|.......................|.......................|.......................|.......................|
.......................|.......................|.......................|.......................|.......................|.......................|.......................|.......................|.......................|.......................|
.......................|.......................|.......................|.......................|.......................|.......................|.......................|.......................|.......................|.......................|
.......................|.......................|.......................|.......................|.......................|.......................|.......................|.......................|.......................|.......................|
.......................|.......................|.......................|.......................|.......................|.......................|C-0....................|C-0....................|.......................|.......................|
.......................|.......................|.......................|.......................|.......................|.......................|C-0....................|C-0....................|.......................|.......................|
.......................|.......................|.......................|.......................|.......................|.......................|.......................|.......................|.......................|.......................|
.......................|.......................|.......................|.......................|.......................|.......................|.......................|.......................|.......................|.......................|
.......................|.......................|.......................|.......................|.......................|.......................|.......................|.......................|.......................|.......................|
.......................|.......................|.......................|.......................|.......................|.......................|.......................|.......................|.......................|.......................|
C-0....................|.......................|.......................|.......................|.......................|.......................|.......................|.......................|.......................|.......................|
C#3....................|.......................|.......................|.......................|.......................|C-4C1..................|C#2....................|G#1....................|.......................|.......................|
.......................|.......................|.......................|.......................|.......................|.......................|.......................|.......................|.......................|.......................|
.......................|.......................|.......................|.......................|.......................|.......................|.......................|.......................|.......................|.......................|
.......................|.......................|.......................|.......................|.......................|.......................|.......................|.......................|.......................|.......................|
.......................|.......................|.......................|.......................|.......................|.......................|.......................|.......................|.......................|.......................|
.......................|.......................|.......................|.......................|.......................|.......................|C-0....................|C-0....................|.......................|.......................|
.......................|.......................|.......................|.......................|.......................|C-4C1..................|C-0....................|C-0....................|.......................|.......................|
.......................|.......................|.......................|.......................|.......................|.......................|.......................|.......................|.......................|.......................|
.......................|.......0452............|.......0452............|.......................|.......................|.......................|.......................|.......................|.......................|.......................|
.......................|.......................|.......................|.......................|.......................|.......................|.......................|.......................|.......................|.......................|
.......................|.......................|.......................|.......................|.......................|.......................|.......................|.......................|.......................|.......................|
C-0....................|C-0....................|C-0....................|.......................|.......................|.......................|.......................|.......................|.......................|.......................|
C#3....................|B-4....0400............|E-4....0400............|.......................|.......................|C-4C6..................|C#2....................|G#1....................|.......................|.......................|
.......................|.......................|.......................|.......................|.......................|.......................|.......................|.......................|.......................|.......................|
.......................|.......................|.......................|.......................|.......................|.......................|.......................|.......................|.......................|.......................|
.......................|.......................|.......................|.......................|.......................|.......................|.......................|.......................|.......................|.......................|
.......................|.......................|.......................|.......................|.......................|.......................|.......................|.......................|.......................|.......................|
.......................|.......................|.......................|.......................|.......................|.......................|C-0....................|C-0....................|.......................|.......................|
.......................|.......................|.......................|.......................|.......................|.......................|C-0....................|C-0....................|.......................|.......................|
.......................|.......................|.......................|.......................|.......................|.......................|.......................|.......................|.......................|.......................|
.......................|.......................|.......................|.......................|.......................|.......................|.......................|.......................|.......................|.......................|
.......................|.......................|.......................|.......................|.......................|.......................|.......................|.......................|.......................|.......................|
.......................|.......................|.......................|.......................|.......................|.......................|.......................|.......................|.......................|.......................|
C-0....................|.......................|.......................|.......................|.......................|.......................|.......................|.......................|.......................|.......................|
C#3....................|.......................|.......................|.......................|.......................|C-4C1..................|C#2....................|G#1....................|.......................|.......................|
.......................|.......................|.......................|.......................|.......................|.......................|.......................|.......................|.......................|.......................|
.......................|.......................|.......................|.......................|.......................|.......................|.......................|.......................|.......................|.......................|
.......................|.......................|.......................|.......................|.......................|.......................|.......................|.......................|.......................|.......................|
.......................|.......................|.......................|.......................|.......................|.......................|.......................|.......................|.......................|.......................|
.......................|.......................|.......................|.......................|.......................|.......................|C-0....................|C-0....................|.......................|.......................|
.......................|.......................|.......................|.......................|.......................|C-4C1..................|C-0....................|C-0....................|.......................|.......................|
.......................|.......................|.......................|.......................|.......................|.......................|.......................|.......................|.......................|.......................|
.......................|.......0452............|.......0452............|.......................|.......................|.......................|.......................|.......................|.......................|.......................|
.......................|.......................|.......................|.......................|.......................|.......................|.......................|.......................|.......................|.......................|
.......................|.......................|.......................|.......................|.......................|.......................|.......................|.......................|.......................|.......................|
C-0....................|C-0....................|C-0....................|.......................|.......................|.......................|.......................|.......................|.......................|.......................|
C#3....................|G#4....0400............|C#4....0400............|.......................|.......................|C-4C6..................|C#2....................|G#1....................|.......................|.......................|
.......................|.......................|.......................|.......................|.......................|.......................|.......................|.......................|.......................|.......................|
.......................|.......................|.......................|.......................|.......................|.......................|.......................|.......................|.......................|.......................|
.......................|.......................|.......................|.......................|.......................|.......................|.......................|.......................|.......................|.......................|
.......................|.......................|.......................|.......................|.......................|.......................|.......................|.......................|.......................|.......................|
.......................|C-0....................|C-0....................|.......................|.......................|.......................|C-0....................|C-0....................|.......................|.......................|
.......................|.......................|.......................|.......................|.......................|.......................|C-0....................|C-0....................|.......................|.......................|
.......................|.......................|.......................|.......................|.......................|.......................|.......................|.......................|.......................|.......................|
.......................|.......................|.......................|.......................|.......................|.......................|.......................|.......................|.......................|.......................|
.......................|.......................|.......................|.......................|.......................|.......................|.......................|.......................|.......................|.......................|
.......................|.......................|.......................|.......................|.......................|.......................|.......................|.......................|.......................|.......................|
C-0....................|.......................|.......................|.......................|.......................|.......................|.......................|.......................|.......................|.......................|
C#3....................|D#5....................|G#4....................|.......................|.......................|C-4C1..................|C#2....................|G#1....................|.......................|.......................|
.......................|.......................|.......................|.......................|.......................|.......................|.......................|.......................|.......................|.......................|
.......................|.......................|.......................|.......................|.......................|.......................|.......................|.......................|.......................|.......................|
.......................|.......................|.......................|.......................|.......................|.......................|.......................|.......................|.......................|.......................|
.......................|.......................|.......................|.......................|.......................|.......................|.......................|.......................|.......................|.......................|
.......................|.......................|.......................|.......................|.......................|.......................|C-0....................|C-0....................|.......................|.......................|
.......................|.......................|.......................|.......................|.......................|C-4C1..................|C-0....................|C-0....................|.......................|.......................|
.......................|.......................|.......................|.......................|.......................|.......................|.......................|.......................|.......................|.......................|
.......................|.......................|.......................|.......................|.......................|.......................|.......................|.......................|.......................|.......................|
.......................|.......................|.......................|.......................|.......................|.......................|.......................|.......................|.......................|.......................|
.......................|.......................|.......................|.......................|.......................|.......................|.......................|.......................|.......................|.......................|
C-0....................|.......................|.......................|.......................|.......................|.......................|.......................|.......................|.......................|.......................|
C#3....................|.......................|.......................|.......................|.......................|C-4C6..................|C#2....................|G#1....................|.......................|.......................|
.......................|.......................|.......................|.......................|.......................|.......................|.......................|.......................|.......................|.......................|
.......................|.......................|.......................|.......................|.......................|.......................|.......................|.......................|.......................|.......................|
.......................|.......................|.......................|.......................|.......................|.......................|.......................|.......................|.......................|.......................|
.......................|.......................|.......................|.......................|.......................|.......................|.......................|.......................|.......................|.......................|
.......................|C-0....................|C-0....................|.......................|.......................|.......................|C-0....................|C-0....................|.......................|.......................|
.......................|.......................|.......................|.......................|.......................|.......................|C-0....................|C-0....................|.......................|.......................|
.......................|.......................|.......................|.......................|.......................|.......................|.......................|.......................|.......................|.......................|
.......................|.......................|.......................|.......................|.......................|.......................|.......................|.......................|.......................|.......................|
.......................|.......................|.......................|.......................|.......................|.......................|.......................|.......................|.......................|.......................|
.......................|.......................|.......................|.......................|.......................|.......................|.......................|.......................|.......................|.......................|
C-0....................|.......................|.......................|.......................|.......................|.......................|.......................|.......................|.......................|.......................|
C#3....................|B-4....................|E-4....................|.......................|.......................|C-4C1..................|C#2....................|G#1....................|.......................|.......................|
.......................|.......................|.......................|.......................|.......................|.......................|.......................|.......................|.......................|.......................|
.......................|.......................|.......................|.......................|.......................|.......................|.......................|.......................|.......................|.......................|
.......................|.......................|.......................|.......................|.......................|.......................|.......................|.......................|.......................|.......................|
.......................|.......................|.......................|.......................|.......................|.......................|.......................|.......................|.......................|.......................|
.......................|C-0....................|C-0....................|.......................|.......................|.......................|C-0....................|C-0....................|.......................|.......................|
.......................|.......................|.......................|.......................|.......................|C-4C1..................|C-0....................|C-0....................|.......................|.......................|
.......................|.......................|.......................|.......................|.......................|.......................|.......................|.......................|.......................|.......................|
.......................|.......................|.......................|.......................|.......................|.......................|.......................|.......................|.......................|.......................|
.......................|.......................|.......................|.......................|.......................|.......................|.......................|.......................|.......................|.......................|
.......................|.......................|.......................|.......................|.......................|.......................|.......................|.......................|.......................|.......................|
C-0....................|.......................|.......................|.......................|.......................|.......................|.......................|.......................|.......................|.......................|
C#3....................|C-0....................|C#5....................|.......................|.......................|C-4C6..................|C#2....................|G#1....................|.......................|.......................|
.......................|.......................|.......................|.......................|.......................|.......................|.......................|.......................|.......................|.......................|
.......................|.......................|.......................|.......................|.......................|.......................|.......................|.......................|.......................|.......................|
.......................|.......................|.......................|.......................|.......................|.......................|.......................|.......................|.......................|.......................|
.......................|.......................|.......................|.......................|.......................|.......................|.......................|.......................|.......................|.......................|
.......................|.......................|.......................|.......................|.......................|.......................|C-0....................|C-0....................|.......................|.......................|
.......................|.......................|.......................|.......................|.......................|.......................|C-0....................|C-0....................|.......................|.......................|
.......................|.......................|.......................|.......................|.......................|.......................|.......................|.......................|.......................|.......................|
.......................|.......................|.......................|.......................|.......................|.......................|.......................|.......................|.......................|.......................|
.......................|.......................|.......................|.......................|.......................|.......................|.......................|.......................|.......................|.......................|
.......................|.......................|.......................|.......................|.......................|.......................|.......................|.......................|.......................|.......................|
C-0....................|.......................|.......................|.......................|.......................|.......................|.......................|.......................|.......................|.......................|
G#3....................|.......................|.......................|.......................|.......................|C-4C1..................|.......................|.......................|.......................|.......................|
.......................|.......................|.......................|.......................|.......................|.......................|.......................|.......................|.......................|.......................|
.......................|.......................|.......................|.......................|.......................|.......................|.......................|.......................|.......................|.......................|
.......................|.......................|.......................|.......................|.......................|.......................|.......................|.......................|.......................|.......................|
.......................|.......................|.......................|.......................|.......................|.......................|.......................|.......................|.......................|.......................|
.......................|.......................|.......................|.......................|.......................|.......................|.......................|.......................|.......................|.......................|
.......................|.......................|.......................|.......................|.......................|C-4C1..................|.......................|.......................|.......................|.......................|
.......................|.......................|.......................|.......................|.......................|.......................|.......................|.......................|.......................|.......................|
.......................|.......0452............|.......0452............|.......................|.......................|.......................|.......................|.......................|.......................|.......................|
.......................|.......................|.......................|.......................|.......................|.......................|.......................|.......................|.......................|.......................|
.......................|.......................|.......................|.......................|.......................|.......................|.......................|.......................|.......................|.......................|
C-0....................|C-0....................|C-0....................|.......................|.......................|.......................|.......................|.......................|.......................|.......................|
G#2....................|C#32E740400............|C#32E740400............|.......................|.......................|C-4C9..................|.......................|.......................|.......................|.......................|
.......................|.......................|.......................|.......................|.......................|.......................|.......................|.......................|.......................|.......................|
.......................|.......................|.......................|.......................|.......................|.......................|.......................|.......................|.......................|.......................|
.......................|.......................|.......................|.......................|.......................|.......................|.......................|.......................|.......................|.......................|
.......................|.......................|.......................|.......................|.......................|.......................|.......................|.......................|.......................|.......................|
C-0....................|C-0....................|C-0....................|.......................|.......................|.......................|.......................|.......................|.......................|.......................|
G#2....................|C#3....................|C#3....................|.......................|.......................|C-4C9..................|.......................|.......................|.......................|.......................|
.......................|.......................|.......................|.......................|.......................|.......................|.......................|.......................|.......................|.......................|
.......................|.......................|.......................|.......................|.......................|.......................|.......................|.......................|.......................|.......................|
.......................|.......................|.......................|.......................|.......................|.......................|.......................|.......................|.......................|.......................|
.......................|.......................|.......................|.......................|.......................|.......................|.......................|.......................|.......................|.......................|
C-0....................|C-0....................|C-0....................|.......................|.......................|.......................|.......................|.......................|.......................|.......................|
G#2....................|C#3....................|C#3....................|.......................|.......................|C-4C9..................|.......................|.......................|.......................|.......................|
.......................|.......................|.......................|.......................|.......................|.......................|.......................|.......................|.......................|.......................|
.......................|.......................|.......................|.......................|.......................|.......................|.......................|.......................|.......................|.......................|
.......................|.......................|.......................|.......................|.......................|.......................|.......................|.......................|.......................|.......................|
.......................|.......................|.......................|.......................|.......................|.......................|.......................|.......................|.......................|.......................|
.......................|.......................|.......................|.......................|.......................|.......................|.......................|.......................|.......................|.......................|
.......................|.......................|.......................|.......................|.......................|.......................|.......................|.......................|.......................|.......................|
.......................|.......................|.......................|.......................|.......................|.......................|.......................|.......................|.......................|.......................|
.......................|.......................|.......................|.......................|.......................|.......................|.......................|.......................|.......................|.......................|
.......................|.......................|.......................|.......................|.......................|.......................|.......................|.......................|.......................|.......................|
.......................|.......................|.......................|.......................|.......................|.......................|.......................|.......................|.......................|.......................|
C-0....................|C-0....................|C-0....................|.......................|.......................|.......................|.......................|.......................|.......................|.......................|
C#3....................|G#422..................|.......................|.......................|.......................|C-4C0..................|.......................|.......................|.......................|.......................|
.......................|.......................|.......................|.......................|.......................|.......................|.......................|.......................|.......................|.......................|
C-0....................|.......................|.......................|.......................|.......................|.......................|.......................|.......................|.......................|.......................|
.......................|.......................|.......................|.......................|.......................|.......................|.......................|.......................|.......................|.......................|
.......................|.......................|.......................|.......................|.......................|.......................|.......................|.......................|.......................|.......................|
.......................|.......................|.......................|.......................|.......................|.......................|.......................|.......................|.......................|.......................|
.......................|.......................|.......................|.......................|.......................|C-4C4..................|.......................|.......................|.......................|.......................|
.......................|C-0....................|.......................|.......................|.......................|.......................|.......................|.......................|.......................|.......................|
.......................|.......................|G#4226B................|.......................|.......................|.......................|.......................|.......................|.......................|.......................|
.......................|.......................|.......................|.......................|.......................|.......................|.......................|.......................|.......................|.......................|
.......................|.......................|.......................|.......................|.......................|.......................|.......................|.......................|.......................|.......................|
.......................|.......................|.......................|.......................|.......................|.......................|.......................|.......................|.......................|.......................|
C#3....................|.......................|.......................|.......................|.......................|C-4C0..................|.......................|.......................|.......................|.......................|
.......................|.......................|.......................|.......................|.......................|.......................|.......................|.......................|.......................|.......................|
.......................|.......................|.......................|.......................|.......................|.......................|.......................|.......................|.......................|.......................|
.......................|.......................|C-0....................|.......................|.......................|.......................|.......................|.......................|.......................|.......................|
.......................|B-4....................|.......................|.......................|.......................|.......................|.......................|.......................|.......................|.......................|
.......................|.......................|.......................|.......................|.......................|.......................|.......................|.......................|.......................|.......................|
.......................|.......................|.......................|.......................|.......................|C-4C7..................|.......................|.......................|.......................|.......................|
.......................|.......................|.......................|.......................|.......................|.......................|.......................|.......................|.......................|.......................|
.......................|.......................|.......................|.......................|.......................|.......................|.......................|.......................|.......................|.......................|
.......................|.......................|.......................|.......................|.......................|.......................|.......................|.......................|.......................|.......................|
.......................|.......................|.......................|.......................|.......................|.......................|.......................|.......................|.......................|.......................|
C-0....................|C-0....................|.......................|.......................|.......................|.......................|.......................|.......................|.......................|.......................|
F#3....................|A-4....................|B-4....................|.......................|.......................|C-4C6..................|C-0....................|C-0....................|.......................|.......................|
.......................|.......................|.......................|.......................|.......................|.......................|.......................|.......................|.......................|.......................|
.......................|.......................|.......................|.......................|.......................|.......................|.......................|.......................|.......................|.......................|
.......................|.......................|.......................|.......................|.......................|.......................|.......................|.......................|.......................|.......................|
.......................|.......................|.......................|.......................|.......................|.......................|.......................|.......................|.......................|.......................|
.......................|.......................|.......................|.......................|.......................|.......................|.......................|.......................|.......................|.......................|
.......................|.......................|.......................|.......................|.......................|.......................|.......................|.......................|.......................|.......................|
.......................|.......................|C-0....................|.......................|.......................|.......................|.......................|.......................|.......................|.......................|
.......................|.......................|A-4....................|.......................|.......................|.......................|.......................|.......................|.......................|.......................|
.......................|.......................|.......................|.......................|.......................|.......................|.......................|.......................|.......................|.......................|
.......................|.......................|.......................|.......................|.......................|.......................|.......................|.......................|.......................|.......................|
C-0....................|.......................|.......................|.......................|.......................|.......................|.......................|.......................|.......................|.......................|
F#3....................|.......................|.......................|C#5..63................|.......................|C-4C1..................|F#2..0B................|A-2..0B................|.......................|.......................|
.......................|.......................|.......................|.......................|.......................|.......................|.......................|.......................|.......................|.......................|
.......................|.......................|.......................|.......................|.......................|.......................|.......................|.......................|.......................|.......................|
.......................|.......................|.......................|.......................|.......................|.......................|C-0....................|C-0....................|.......................|.......................|
.......................|.......................|.......................|.......................|.......................|.......................|C-0....................|C-0....................|.......................|.......................|
.......................|.......................|.......................|C-0....................|.......................|.......................|.......................|.......................|.......................|.......................|
.......................|.......................|.......................|C#5....................|.......................|C-4C1..................|F#2....................|A-2....................|.......................|.......................|
.......................|.......................|.......................|.......................|.......................|.......................|.......................|.......................|.......................|.......................|
.......................|.......0452............|.......................|.......................|C#5....................|.......................|.......................|.......................|.......................|.......................|
.......................|.......................|.......................|.......................|.......................|.......................|C-0....................|C-0....................|.......................|.......................|
.......................|.......................|.......................|.......................|.......................|.......................|C-0....................|C-0....................|.......................|.......................|
C-0....................|C-0....................|.......................|C-0....................|.......................|.......................|.......................|.......................|.......................|.......................|
F#3....................|F#4....0400............|.......................|C#5..67................|.......................|C-4C6..................|F#2....................|A-2....................|.......................|.......................|
.......................|.......................|.......................|.......................|C-0....................|.......................|.......................|.......................|.......................|.......................|
.......................|.......................|.......................|.......................|C#5....................|.......................|.......................|.......................|.......................|.......................|
.......................|.......................|.......................|.......................|.......................|.......................|.......................|.......................|.......................|.......................|
.......................|.......................|.......0452............|.......................|.......................|.......................|.......................|.......................|.......................|.......................|
.......................|.......................|.......................|.......................|.......................|.......................|.......................|.......................|.......................|.......................|
.......................|.......................|.......................|.......................|.......................|.......................|.......................|.......................|.......................|.......................|
.......................|C-0....................|C-0....................|.......................|C-0....................|.......................|.......................|.......................|.......................|.......................|
org.tildearrow.furnace - Pattern Data (219)
0
.......................|.......................|F#4....0400............|.......................|C#5....................|.......................|.......................|.......................|.......................|.......................|
.......................|.......................|.......................|.......................|.......................|.......................|.......................|.......................|.......................|.......................|
.......................|.......................|.......................|.......................|.......................|.......................|.......................|.......................|.......................|.......................|
C-0....................|.......................|.......................|.......................|.......................|.......................|.......................|.......................|.......................|.......................|
F#3....................|.......................|.......................|.......................|.......................|C-4C1..................|.......................|.......................|.......................|.......................|
.......................|.......................|.......................|.......................|.......................|.......................|.......................|.......................|.......................|.......................|
.......................|.......................|.......................|.......................|.......................|.......................|.......................|.......................|.......................|.......................|
.......................|.......................|C-0....................|.......................|.......................|.......................|.......................|.......................|.......................|.......................|
.......................|A-4....................|.......................|.......................|.......................|.......................|.......................|.......................|.......................|.......................|
.......................|.......................|.......................|.......................|.......................|.......................|.......................|.......................|.......................|.......................|
.......................|.......................|.......................|.......................|.......................|C-4C1..................|.......................|.......................|.......................|.......................|
.......................|.......................|.......................|.......................|.......................|.......................|.......................|.......................|.......................|.......................|
.......................|.......................|.......................|.......0452............|.......................|.......................|.......0452............|.......0452............|.......................|.......................|
.......................|.......................|.......................|.......................|.......................|.......................|.......................|.......................|.......................|.......................|
.......................|.......................|.......................|.......................|.......................|.......................|.......................|.......................|.......................|.......................|
C-0....................|C-0....................|.......................|C-0....................|C-0....................|.......................|C-0....................|C-0....................|.......................|.......................|
E-3....................|G#4....................|A-4....................|.......................|.......................|C-4C6..................|C-0....................|C-0....................|.......................|.......................|
.......................|.......................|.......................|.......................|.......................|.......................|.......................|.......................|.......................|.......................|
.......................|.......................|.......................|.......................|.......................|.......................|.......................|.......................|.......................|.......................|
.......................|.......................|.......................|.......................|.......................|.......................|.......................|.......................|.......................|.......................|
.......................|.......................|.......................|.......................|.......................|.......................|.......................|.......................|.......................|.......................|
.......................|.......................|.......................|.......................|.......................|.......................|.......................|.......................|.......................|.......................|
.......................|.......................|.......................|.......................|.......................|.......................|.......................|.......................|.......................|.......................|
.......................|.......................|C-0....................|.......................|.......................|.......................|.......................|.......................|.......................|.......................|
.......................|.......................|G#4....................|.......................|.......................|.......................|.......................|.......................|.......................|.......................|
.......................|.......................|.......................|.......................|.......................|.......................|.......................|.......................|.......................|.......................|
.......................|.......................|.......................|.......................|.......................|.......................|.......................|.......................|.......................|.......................|
C-0....................|.......................|.......................|.......................|.......................|.......................|.......................|.......................|.......................|.......................|
E-3....................|.......................|.......................|B-4..630400............|.......................|C-4C1..................|E-2....0400............|G#2....0400............|.......................|.......................|
.......................|.......................|.......................|.......................|.......................|.......................|.......................|.......................|.......................|.......................|
.......................|.......................|.......................|.......................|.......................|.......................|.......................|.......................|.......................|.......................|
.......................|.......................|.......................|.......................|.......................|.......................|C-0....................|C-0....................|.......................|.......................|
.......................|.......................|.......................|.......................|.......................|.......................|C-0....................|C-0....................|.......................|.......................|
.......................|.......................|.......................|C-0....................|.......................|.......................|.......................|.......................|.......................|.......................|
.......................|.......................|.......................|B-4....................|.......................|C-4C1..................|E-2....................|G#2....................|.......................|.......................|
.......................|.......................|.......................|.......................|.......................|.......................|.......................|.......................|.......................|.......................|
.......................|.......0452............|.......................|.......................|B-4....................|.......................|.......................|.......................|.......................|.......................|
.......................|.......................|.......................|.......................|.......................|.......................|C-0....................|C-0....................|.......................|.......................|
.......................|.......................|.......................|.......................|.......................|.......................|C-0....................|C-0....................|.......................|.......................|
C-0....................|C-0....................|.......................|C-0....................|.......................|.......................|.......................|.......................|.......................|.......................|
E-3....................|E-4....0400............|.......................|B-4..67................|.......................|C-4C6..................|E-2....................|G#2....................|.......................|.......................|
.......................|.......................|.......................|.......................|C-0....................|.......................|.......................|.......................|.......................|.......................|
.......................|.......................|.......................|.......................|B-4....................|.......................|.......................|.......................|.......................|.......................|
.......................|.......................|.......................|.......................|.......................|.......................|.......................|.......................|.......................|.......................|
.......................|.......................|.......0452............|.......................|.......................|.......................|.......................|.......................|.......................|.......................|
.......................|.......................|.......................|.......................|.......................|.......................|.......................|.......................|.......................|.......................|
.......................|.......................|.......................|.......................|.......................|.......................|.......................|.......................|.......................|.......................|
.......................|C-0....................|C-0....................|.......................|C-0....................|.......................|.......................|.......................|.......................|.......................|
.......................|.......................|E-4....0400............|.......................|B-4....................|.......................|.......................|.......................|.......................|.......................|
.......................|.......................|.......................|.......................|.......................|.......................|.......................|.......................|.......................|.......................|
.......................|.......................|.......................|.......................|.......................|.......................|.......................|.......................|.......................|.......................|
C-0....................|.......................|.......................|.......................|.......................|.......................|.......................|.......................|.......................|.......................|
E-3....................|.......................|.......................|.......................|.......................|C-4C1..................|.......................|.......................|.......................|.......................|
.......................|.......................|.......................|.......................|.......................|.......................|.......................|.......................|.......................|.......................|
.......................|.......................|.......................|.......................|.......................|.......................|.......................|.......................|.......................|.......................|
.......................|.......................|C-0....................|.......................|.......................|.......................|.......................|.......................|.......................|.......................|
.......................|G#4....................|.......................|.......................|.......................|.......................|.......................|.......................|.......................|.......................|
.......................|.......................|.......................|.......................|.......................|.......................|.......................|.......................|.......................|.......................|
.......................|.......................|.......................|.......................|.......................|C-4C1..................|.......................|.......................|.......................|.......................|
.......................|.......................|.......................|.......................|.......................|.......................|.......................|.......................|.......................|.......................|
.......................|.......................|.......................|.......0452............|.......................|.......................|.......0452............|.......0452............|.......................|.......................|
.......................|.......................|.......................|.......................|.......................|.......................|.......................|.......................|.......................|.......................|
.......................|.......................|.......................|.......................|.......................|.......................|.......................|.......................|.......................|.......................|
C-0....................|C-0....................|.......................|C-0....................|C-0....................|.......................|C-0....................|C-0....................|.......................|.......................|
D-3....................|F#4....................|G#4....................|.......................|.......................|C-4C6..................|C-0....................|C-0....................|.......................|.......................|
.......................|.......................|.......................|.......................|.......................|.......................|.......................|.......................|.......................|.......................|
.......................|.......................|.......................|.......................|.......................|.......................|.......................|.......................|.......................|.......................|
.......................|.......................|.......................|.......................|.......................|.......................|.......................|.......................|.......................|.......................|
.......................|.......................|.......................|.......................|.......................|.......................|.......................|.......................|.......................|.......................|
.......................|.......................|.......................|.......................|.......................|.......................|.......................|.......................|.......................|.......................|
.......................|.......................|.......................|.......................|.......................|.......................|.......................|.......................|.......................|.......................|
.......................|.......................|C-0....................|.......................|.......................|.......................|.......................|.......................|.......................|.......................|
.......................|.......................|F#4....................|.......................|.......................|.......................|.......................|.......................|.......................|.......................|
.......................|.......................|.......................|.......................|.......................|.......................|.......................|.......................|.......................|.......................|
.......................|.......................|.......................|.......................|.......................|.......................|.......................|.......................|.......................|.......................|
C-0....................|.......................|.......................|.......................|.......................|.......................|.......................|.......................|.......................|.......................|
D-3....................|.......................|.......................|A-4..630400............|.......................|C-4C1..................|D-2....0400............|F#2....0400............|.......................|.......................|
.......................|.......................|.......................|.......................|.......................|.......................|.......................|.......................|.......................|.......................|
.......................|.......................|.......................|.......................|.......................|.......................|.......................|.......................|.......................|.......................|
.......................|.......................|.......................|.......................|.......................|.......................|C-0....................|C-0....................|.......................|.......................|
.......................|.......................|.......................|.......................|.......................|.......................|C-0....................|C-0....................|.......................|.......................|
.......................|.......................|.......................|C-0....................|.......................|.......................|.......................|.......................|.......................|.......................|
.......................|.......................|.......................|A-4....................|.......................|C-4C1..................|D-2....................|F#2....................|.......................|.......................|
.......................|.......................|.......................|.......................|.......................|.......................|.......................|.......................|.......................|.......................|
.......................|.......0452............|.......................|.......................|A-4....................|.......................|.......................|.......................|.......................|.......................|
.......................|.......................|.......................|.......................|.......................|.......................|C-0....................|C-0....................|.......................|.......................|
.......................|.......................|.......................|.......................|.......................|.......................|C-0....................|C-0....................|.......................|.......................|
C-0....................|C-0....................|.......................|C-0....................|.......................|.......................|.......................|.......................|.......................|.......................|
D-3....................|D-4....0400............|.......................|A-4..67................|.......................|C-4C6..................|D-2....................|F#2....................|.......................|.......................|
.......................|.......................|.......................|.......................|C-0....................|.......................|.......................|.......................|.......................|.......................|
.......................|.......................|.......................|.......................|A-4....................|.......................|.......................|.......................|.......................|.......................|
.......................|.......................|.......................|.......................|.......................|.......................|.......................|.......................|.......................|.......................|
.......................|.......................|.......0452............|.......................|.......................|.......................|.......................|.......................|.......................|.......................|
.......................|.......................|.......................|.......................|.......................|.......................|.......................|.......................|.......................|.......................|
.......................|.......................|.......................|.......................|.......................|.......................|.......................|.......................|.......................|.......................|
.......................|C-0....................|C-0....................|.......................|C-0....................|.......................|.......................|.......................|.......................|.......................|
.......................|.......................|D-4....0400............|.......................|A-4....................|.......................|.......................|.......................|.......................|.......................|
.......................|.......................|.......................|.......................|.......................|.......................|.......................|.......................|.......................|.......................|
.......................|.......................|.......................|.......................|.......................|.......................|.......................|.......................|.......................|.......................|
C-0....................|.......................|.......................|.......................|.......................|.......................|.......................|.......................|.......................|.......................|
D-3....................|.......................|.......................|.......................|.......................|C-4C1..................|.......................|.......................|.......................|.......................|
.......................|.......................|.......................|.......................|.......................|.......................|.......................|.......................|.......................|.......................|
.......................|.......................|.......................|.......................|.......................|.......................|.......................|.......................|.......................|.......................|
.......................|.......................|C-0....................|.......................|.......................|.......................|.......................|.......................|.......................|.......................|
.......................|F#4....................|.......................|.......................|.......................|.......................|.......................|.......................|.......................|.......................|
.......................|.......................|.......................|.......................|.......................|.......................|.......................|.......................|.......................|.......................|
.......................|.......................|.......................|.......................|.......................|C-4C1..................|.......................|.......................|.......................|.......................|
.......................|.......................|.......................|.......................|.......................|.......................|C-0....................|C-0....................|.......................|.......................|
.......................|.......................|.......................|.......0452............|.......................|.......................|C-0....................|C-0....................|.......................|.......................|
.......................|.......................|.......................|.......................|.......................|.......................|.......................|.......................|.......................|.......................|
.......................|.......................|.......................|.......................|.......................|.......................|.......................|.......................|.......................|.......................|
C-0....................|C-0....................|.......................|C-0....................|.......................|.......................|.......................|.......................|.......................|.......................|
C#3....................|E-4....................|F#4....................|G#4..630400............|.......................|C-4C6..................|C#2....................|E-2....................|.......................|.......................|
.......................|.......................|.......................|.......................|.......................|.......................|.......................|.......................|.......................|.......................|
.......................|.......................|.......................|.......................|.......................|.......................|.......................|.......................|.......................|.......................|
.......................|.......................|.......................|.......................|.......................|.......................|.......................|.......................|.......................|.......................|
.......................|.......................|.......................|.......................|.......0452............|.......................|.......................|.......................|.......................|.......................|
.......................|.......................|.......................|.......................|.......................|.......................|.......................|.......................|.......................|.......................|
.......................|.......................|.......................|.......................|.......................|.......................|C-0....................|C-0....................|.......................|.......................|
C-0....................|C-0....................|C-0....................|C-0....................|C-0....................|.......................|C-0....................|C-0....................|.......................|.......................|
C#3....................|D#4....................|E-4....................|G#4....................|G#4....0400............|C-4C6..................|C#2....................|E-2....................|.......................|.......................|
.......................|.......................|.......................|.......................|.......................|.......................|.......................|.......................|.......................|.......................|
.......................|.......................|.......................|.......................|.......................|.......................|.......................|.......................|.......................|.......................|
.......................|.......................|.......................|.......................|.......................|.......................|.......................|.......................|.......................|.......................|
.......................|.......................|.......................|.......................|.......................|.......................|.......................|.......................|.......................|.......................|
.......................|.......................|.......................|.......................|.......................|.......................|.......................|.......................|.......................|.......................|
.......................|.......................|.......................|.......................|.......................|.......................|C-0....................|C-0....................|.......................|.......................|
C-0....................|C-0....................|C-0....................|C-0....................|C-0....................|.......................|C-0....................|C-0....................|.......................|.......................|
C#3....................|C#4....................|D#4....................|G#4....................|G#4....................|C-4C6..................|C#2....................|E-2....................|.......................|.......................|
.......................|.......................|.......................|.......................|.......................|.......................|.......................|.......................|.......................|.......................|
.......................|.......................|.......................|.......................|.......................|.......................|.......................|.......................|.......................|.......................|
.......................|.......................|.......................|.......................|.......................|.......................|.......................|.......................|.......................|.......................|
.......................|.......................|.......................|.......................|.......................|.......................|.......................|.......................|.......................|.......................|
.......................|.......................|.......................|.......................|.......................|.......................|.......................|.......................|.......................|.......................|
.......................|.......................|.......................|.......................|.......................|.......................|C-0....................|C-0....................|.......................|.......................|
C-0....................|C-0....................|C-0....................|C-0....................|C-0....................|.......................|C-0....................|C-0....................|.......................|.......................|
C#3....................|G#4....................|C#4....................|G#4....................|G#4....................|C-4C6..................|C#2....................|E-2....................|.......................|.......................|
.......................|.......................|.......................|.......................|.......................|.......................|.......................|.......................|.......................|.......................|
.......................|.......................|.......................|.......................|.......................|.......................|.......................|.......................|.......................|.......................|
.......................|.......................|.......................|.......................|.......................|.......................|.......................|.......................|.......................|.......................|
.......................|.......................|.......................|.......................|.......................|.......................|.......................|.......................|.......................|.......................|
.......................|.......................|.......................|.......................|.......................|.......................|.......................|.......................|.......................|.......................|
.......................|.......................|.......................|.......................|.......................|.......................|.......................|.......................|.......................|.......................|
.......................|C-0....................|C-0....................|.......................|C-0....................|.......................|.......................|.......................|.......................|.......................|
.......................|.......................|G#4....................|.......................|G#4....................|.......................|.......................|.......................|.......................|.......................|
.......................|.......................|.......................|.......................|.......................|.......................|.......................|.......................|.......................|.......................|
.......................|.......................|.......................|.......................|.......................|.......................|.......................|.......................|.......................|.......................|
C-0....................|.......................|.......................|.......................|.......................|.......................|.......................|.......................|.......................|.......................|
C#3....................|.......................|.......................|.......................|.......................|C-4C1..................|.......................|.......................|.......................|.......................|
.......................|.......................|.......................|.......................|.......................|.......................|.......................|.......................|.......................|.......................|
.......................|.......................|.......................|.......................|.......................|.......................|.......................|.......................|.......................|.......................|
.......................|.......................|C-0....................|.......................|.......................|.......................|.......................|.......................|.......................|.......................|
.......................|B-4....................|.......................|.......................|.......................|.......................|.......................|.......................|.......................|.......................|
.......................|.......................|.......................|.......................|.......................|.......................|.......................|.......................|.......................|.......................|
.......................|.......................|.......................|.......................|.......................|C-4C1..................|.......................|.......................|.......................|.......................|
.......................|.......................|.......................|.......................|.......................|.......................|.......................|.......................|.......................|.......................|
.......................|.......................|.......................|.......0452............|.......................|.......................|.......0452............|.......0452............|.......................|.......................|
.......................|.......................|.......................|.......................|.......................|.......................|.......................|.......................|.......................|.......................|
.......................|.......................|.......................|.......................|.......................|.......................|.......................|.......................|.......................|.......................|
C-0....................|C-0....................|.......................|C-0....................|C-0....................|.......................|C-0....................|C-0....................|.......................|.......................|
F#3....................|A-4....................|B-4....................|.......................|.......................|C-4C6..................|C-0....................|C-0....................|.......................|.......................|
.......................|.......................|.......................|.......................|.......................|.......................|.......................|.......................|.......................|.......................|
.......................|.......................|.......................|.......................|.......................|.......................|.......................|.......................|.......................|.......................|
.......................|.......................|.......................|.......................|.......................|.......................|.......................|.......................|.......................|.......................|
.......................|.......................|.......................|.......................|.......................|.......................|.......................|.......................|.......................|.......................|
.......................|.......................|.......................|.......................|.......................|.......................|.......................|.......................|.......................|.......................|
.......................|.......................|.......................|.......................|.......................|.......................|.......................|.......................|.......................|.......................|
.......................|.......................|C-0....................|.......................|.......................|.......................|.......................|.......................|.......................|.......................|
.......................|.......................|A-4....................|.......................|.......................|.......................|.......................|.......................|.......................|.......................|
.......................|.......................|.......................|.......................|.......................|.......................|.......................|.......................|.......................|.......................|
.......................|.......................|.......................|.......................|.......................|.......................|.......................|.......................|.......................|.......................|
C-0....................|.......................|.......................|.......................|.......................|.......................|.......................|.......................|.......................|.......................|
F#3....................|.......................|.......................|C#5....0400............|.......................|C-4C1..................|F#2....0400............|A-2....0400............|.......................|.......................|
.......................|.......................|.......................|.......................|.......................|.......................|.......................|.......................|.......................|.......................|
.......................|.......................|.......................|.......................|.......................|.......................|.......................|.......................|.......................|.......................|
.......................|.......................|.......................|.......................|.......................|.......................|C-0....................|C-0....................|.......................|.......................|
.......................|.......................|.......................|.......................|.......................|.......................|C-0....................|C-0....................|.......................|.......................|
.......................|.......................|.......................|C-0....................|.......................|.......................|.......................|.......................|.......................|.......................|
.......................|.......................|.......................|C#5....................|.......................|C-4C1..................|F#2....................|A-2....................|.......................|.......................|
.......................|.......................|.......................|.......................|.......................|.......................|.......................|.......................|.......................|.......................|
.......................|.......0452............|.......................|.......................|C#5....................|.......................|.......................|.......................|.......................|.......................|
.......................|.......................|.......................|.......................|.......................|.......................|C-0....................|C-0....................|.......................|.......................|
.......................|.......................|.......................|.......................|.......................|.......................|C-0....................|C-0....................|.......................|.......................|
C-0....................|C-0....................|.......................|C-0....................|.......................|.......................|.......................|.......................|.......................|.......................|
F#3....................|F#4....0400............|.......................|C#5..67................|.......................|C-4C6..................|F#2....................|A-2....................|.......................|.......................|
.......................|.......................|.......................|.......................|C-0....................|.......................|.......................|.......................|.......................|.......................|
.......................|.......................|.......................|.......................|C#5....................|.......................|.......................|.......................|.......................|.......................|
.......................|.......................|.......................|.......................|.......................|.......................|.......................|.......................|.......................|.......................|
.......................|.......................|.......0452............|.......................|.......................|.......................|.......................|.......................|.......................|.......................|
.......................|.......................|.......................|.......................|.......................|.......................|.......................|.......................|.......................|.......................|
.......................|.......................|.......................|.......................|.......................|.......................|.......................|.......................|.......................|.......................|
.......................|C-0....................|C-0....................|.......................|C-0....................|.......................|.......................|.......................|.......................|.......................|
.......................|.......................|F#4....0400............|.......................|C#5....................|.......................|.......................|.......................|.......................|.......................|
.......................|.......................|.......................|.......................|.......................|.......................|.......................|.......................|.......................|.......................|
.......................|.......................|.......................|.......................|.......................|.......................|.......................|.......................|.......................|.......................|
C-0....................|.......................|.......................|.......................|.......................|.......................|.......................|.......................|.......................|.......................|
F#3....................|.......................|.......................|.......................|.......................|C-4C1..................|.......................|.......................|.......................|.......................|
.......................|.......................|.......................|.......................|.......................|.......................|.......................|.......................|.......................|.......................|
.......................|.......................|.......................|.......................|.......................|.......................|.......................|.......................|.......................|.......................|
.......................|.......................|C-0....................|.......................|.......................|.......................|.......................|.......................|.......................|.......................|
.......................|A-4....................|.......................|.......................|.......................|.......................|.......................|.......................|.......................|.......................|
.......................|.......................|.......................|.......................|.......................|.......................|.......................|.......................|.......................|.......................|
.......................|.......................|.......................|.......................|.......................|C-4C1..................|.......................|.......................|.......................|.......................|
.......................|.......................|.......................|.......................|.......................|.......................|.......................|.......................|.......................|.......................|
.......................|.......................|.......................|.......0452............|.......................|.......................|.......0452............|.......0452............|.......................|.......................|
.......................|.......................|.......................|.......................|.......................|.......................|.......................|.......................|.......................|.......................|
.......................|.......................|.......................|.......................|.......................|.......................|.......................|.......................|.......................|.......................|
C-0....................|C-0....................|.......................|C-0....................|C-0....................|.......................|C-0....................|C-0....................|.......................|.......................|
E-3....................|G#4....................|A-4....................|.......................|.......................|C-4C6..................|C-0....................|C-0....................|.......................|.......................|
.......................|.......................|.......................|.......................|.......................|.......................|.......................|.......................|.......................|.......................|
.......................|.......................|.......................|.......................|.......................|.......................|.......................|.......................|.......................|.......................|
.......................|.......................|.......................|.......................|.......................|.......................|.......................|.......................|.......................|.......................|
.......................|.......................|.......................|.......................|.......................|.......................|.......................|.......................|.......................|.......................|
.......................|.......................|.......................|.......................|.......................|.......................|.......................|.......................|.......................|.......................|
.......................|.......................|.......................|.......................|.......................|.......................|.......................|.......................|.......................|.......................|
.......................|.......................|C-0....................|.......................|.......................|.......................|.......................|.......................|.......................|.......................|
.......................|.......................|G#4....................|.......................|.......................|.......................|.......................|.......................|.......................|.......................|
.......................|.......................|.......................|.......................|.......................|.......................|.......................|.......................|.......................|.......................|
.......................|.......................|.......................|.......................|.......................|.......................|.......................|.......................|.......................|.......................|
C-0....................|.......................|.......................|.......................|.......................|.......................|.......................|.......................|.......................|.......................|
E-3....................|.......................|.......................|B-4..630400............|.......................|C-4C1..................|E-2....0400............|G#2....0400............|.......................|.......................|
.......................|.......................|.......................|.......................|.......................|.......................|.......................|.......................|.......................|.......................|
.......................|.......................|.......................|.......................|.......................|.......................|.......................|.......................|.......................|.......................|
.......................|.......................|.......................|.......................|.......................|.......................|C-0....................|C-0....................|.......................|.......................|
.......................|.......................|.......................|.......................|.......................|.......................|C-0....................|C-0....................|.......................|.......................|
.......................|.......................|.......................|C-0....................|.......................|.......................|.......................|.......................|.......................|.......................|
.......................|.......................|.......................|B-4....................|.......................|C-4C1..................|E-2....................|G#2....................|.......................|.......................|
.......................|.......................|.......................|.......................|.......................|.......................|.......................|.......................|.......................|.......................|
.......................|.......0452............|.......................|.......................|B-4....................|.......................|.......................|.......................|.......................|.......................|
.......................|.......................|.......................|.......................|.......................|.......................|C-0....................|C-0....................|.......................|.......................|
.......................|.......................|.......................|.......................|.......................|.......................|C-0....................|C-0....................|.......................|.......................|
C-0....................|C-0....................|.......................|C-0....................|.......................|.......................|.......................|.......................|.......................|.......................|
E-3....................|E-4....0400............|.......................|B-4..67................|.......................|C-4C6..................|E-2....................|G#2....................|.......................|.......................|
.......................|.......................|.......................|.......................|C-0....................|.......................|.......................|.......................|.......................|.......................|
.......................|.......................|.......................|.......................|B-4....................|.......................|.......................|.......................|.......................|.......................|
.......................|.......................|.......................|.......................|.......................|.......................|.......................|.......................|.......................|.......................|
.......................|.......................|.......0452............|.......................|.......................|.......................|.......................|.......................|.......................|.......................|
.......................|.......................|.......................|.......................|.......................|.......................|.......................|.......................|.......................|.......................|
.......................|.......................|.......................|.......................|.......................|.......................|.......................|.......................|.......................|.......................|
.......................|C-0....................|C-0....................|.......................|C-0....................|.......................|.......................|.......................|.......................|.......................|
.......................|.......................|E-4....0400............|.......................|B-4....................|.......................|.......................|.......................|.......................|.......................|
.......................|.......................|.......................|.......................|.......................|.......................|.......................|.......................|.......................|.......................|
.......................|.......................|.......................|.......................|.......................|.......................|.......................|.......................|.......................|.......................|
C-0....................|.......................|.......................|.......................|.......................|.......................|.......................|.......................|.......................|.......................|
E-3....................|.......................|.......................|.......................|.......................|C-4C1..................|.......................|.......................|.......................|.......................|
.......................|.......................|.......................|.......................|.......................|.......................|.......................|.......................|.......................|.......................|
.......................|.......................|.......................|.......................|.......................|.......................|.......................|.......................|.......................|.......................|
.......................|.......................|C-0....................|.......................|.......................|.......................|.......................|.......................|.......................|.......................|
.......................|G#4....................|.......................|.......................|.......................|.......................|.......................|.......................|.......................|.......................|
.......................|.......................|.......................|.......................|.......................|.......................|.......................|.......................|.......................|.......................|
.......................|.......................|.......................|.......................|.......................|C-4C1..................|.......................|.......................|.......................|.......................|
.......................|.......................|.......................|.......................|.......................|.......................|.......................|.......................|.......................|.......................|
.......................|.......................|.......................|.......0452............|.......................|.......................|.......0452............|.......0452............|.......................|.......................|
.......................|.......................|.......................|.......................|.......................|.......................|.......................|.......................|.......................|.......................|
.......................|.......................|.......................|.......................|.......................|.......................|.......................|.......................|.......................|.......................|
C-0....................|C-0....................|.......................|C-0....................|C-0....................|.......................|C-0....................|C-0....................|.......................|.......................|
org.tildearrow.furnace - Pattern Data (219)
0
D-3....................|F#4....................|.......................|A-4....0400............|.......................|C-4C6..................|F#1....0400............|C-0....................|.......................|.......................|
.......................|.......................|.......................|.......................|.......................|.......................|.......................|.......................|.......................|.......................|
.......................|.......................|.......................|.......................|.......................|.......................|.......................|.......................|.......................|.......................|
.......................|.......................|.......................|.......................|.......................|.......................|.......................|.......................|.......................|.......................|
.......................|.......................|.......................|.......................|.......................|.......................|.......................|.......................|.......................|.......................|
.......................|.......................|.......................|.......................|.......................|.......................|.......................|.......................|.......................|.......................|
.......................|.......................|.......................|.......................|.......................|.......................|.......................|.......................|.......................|.......................|
.......................|.......................|.......................|.......................|.......................|.......................|C-0....................|.......................|.......................|.......................|
.......................|.......................|F#4....................|.......................|A-4....................|.......................|C-0....................|F#2..0A0400............|.......................|.......................|
.......................|.......................|.......................|.......................|.......................|.......................|.......................|.......................|.......................|.......................|
.......................|.......................|.......................|.......................|.......................|.......................|.......................|.......................|.......................|.......................|
.......................|C-0....................|.......................|.......................|.......................|.......................|.......................|.......................|.......................|.......................|
.......................|D-4....................|.......................|.......................|.......................|C-4C1..................|F#1..0C................|.......................|.......................|.......................|
.......................|.......................|.......................|.......................|.......................|.......................|.......................|.......................|.......................|.......................|
.......................|.......................|.......................|.......................|.......................|.......................|.......................|.......................|.......................|.......................|
.......................|.......................|.......................|.......................|.......................|.......................|.......................|.......................|.......................|.......................|
.......................|.......................|.......................|.......................|.......................|.......................|.......................|.......................|.......................|.......................|
.......................|C-0....................|.......................|.......................|.......................|.......................|C-0....................|.......................|.......................|.......................|
.......................|F#4....................|.......................|.......................|.......................|C-4C1..................|A-1....................|.......................|.......................|.......................|
.......................|.......................|C-0....................|.......................|.......................|.......................|.......................|C-0....................|.......................|.......................|
.......0452............|.......................|D-4....................|.......0452............|.......................|.......................|.......................|F#2....................|.......................|.......................|
.......................|.......................|.......................|.......................|.......................|.......................|.......................|.......................|.......................|.......................|
.......................|.......................|.......................|.......................|.......................|.......................|.......................|.......................|.......................|.......................|
.......................|C-0....................|.......................|.......................|.......................|.......................|C-0....................|.......................|.......................|.......................|
.......................|A-4....................|.......................|.......................|.......................|C-4C6..................|D-2....................|.......................|.......................|.......................|
.......................|.......................|C-0....................|.......................|.......................|.......................|.......................|C-0....................|.......................|.......................|
.......................|.......................|F#4....................|.......................|.......................|.......................|.......................|A-2....................|.......................|.......................|
.......................|.......................|.......................|.......................|.......................|.......................|.......................|.......................|.......................|.......................|
.......................|.......................|.......................|.......................|.......0452............|.......................|.......................|.......................|.......................|.......................|
.......................|C-0....................|.......................|.......................|.......................|.......................|C-0....................|.......................|.......................|.......................|
.......................|D-5....................|.......................|.......................|.......................|C-4C1..................|F#2....................|.......................|.......................|.......................|
.......................|.......................|C-0....................|.......................|.......................|.......................|.......................|C-0....................|.......................|.......................|
.......................|.......................|A-4....................|.......................|.......................|.......................|.......................|D-3....................|.......................|.......................|
.......................|.......................|.......................|.......................|.......................|.......................|.......................|.......................|.......................|.......................|
.......................|.......................|.......................|.......................|.......................|.......................|.......................|.......................|.......................|.......................|
.......................|C-0....................|.......................|.......................|.......................|.......................|C-0....................|.......................|.......................|.......................|
.......................|F#5....................|.......................|.......................|.......................|C-4C1..................|A-2....................|.......................|.......................|.......................|
.......................|.......................|C-0....................|.......................|.......................|.......................|.......................|C-0....................|.......................|.......................|
.......................|.......................|D-5....................|.......................|.......................|.......................|.......................|F#3....................|.......................|.......................|
.......................|.......................|.......................|.......................|.......................|.......................|.......................|.......................|.......................|.......................|
.......................|.......................|.......................|.......................|.......................|.......................|.......................|.......................|.......................|.......................|
.......................|C-0....................|.......................|.......................|.......................|.......................|C-0....................|.......................|.......................|.......................|
.......................|C-0....................|.......................|.......................|.......................|C-4C1..................|D-3....................|.......................|.......................|.......................|
.......................|.......................|C-0....................|.......................|.......................|.......................|.......................|C-0....................|.......................|.......................|
.......................|.......................|F#5....................|.......................|.......................|.......................|.......................|A-3....................|.......................|.......................|
.......................|.......................|.......................|.......................|.......................|.......................|.......................|.......................|.......................|.......................|
.......................|.......................|.......................|.......................|.......................|.......................|.......................|.......................|.......................|.......................|
C-0....................|C-0....................|.......................|C-0....................|.......................|.......................|C-0....................|.......................|.......................|.......................|
A#2....0400............|C-0....................|.......................|F-4....0400............|.......................|C-4C0..................|A#3....................|.......................|.......................|.......................|
.......................|.......................|C-0....................|.......................|.......................|.......................|.......................|C-0....................|.......................|.......................|
.......................|.......................|C-0....................|.......................|.......................|.......................|.......................|D-4....................|.......................|.......................|
.......................|.......................|.......................|.......................|.......................|.......................|.......................|.......................|.......................|.......................|
.......................|.......................|.......................|.......................|.......................|.......................|.......................|.......................|.......................|.......................|
.......................|.......................|.......................|.......................|.......................|.......................|.......................|.......................|.......................|.......................|
.......................|.......................|.......................|.......................|.......................|.......................|.......................|.......................|.......................|.......................|
.......................|.......................|C-0....................|.......................|C-0....................|.......................|.......................|C-0....................|.......................|.......................|
.......................|.......................|C-0....................|.......................|A#4....0400............|.......................|.......................|A#3....................|.......................|.......................|
.......................|.......................|.......................|.......................|.......................|.......................|.......................|.......................|.......................|.......................|
.......................|.......................|.......................|.......................|.......................|.......................|.......................|.......................|.......................|.......................|
.......................|C-0....................|.......................|C-0....................|C-0....................|.......................|C-0....................|.......................|.......................|.......................|
.......................|.......................|.......................|.......................|C-42C678000............|.......................|C-0....................|.......................|.......................|.......................|
.......................|.......................|.......................|.......................|.......................|.......................|.......................|.......................|.......................|.......................|
.......................|.......................|.......................|.......................|.......................|.......................|.......................|.......................|.......................|.......................|
.......................|.......................|.......................|.......................|.......................|.......................|.......................|.......................|.......................|.......................|
.......................|.......................|.......................|.......................|.......................|.......................|.......................|.......................|.......................|.......................|
.......................|.......................|.......................|.......................|.......................|.......................|.......................|.......................|.......................|.......................|
.......................|.......................|.......................|.......................|.......................|.......................|.......................|.......................|.......................|.......................|
.......................|.......................|C-0....................|.......................|.......................|.......................|.......................|C-0....................|.......................|.......................|
.......0452............|.......................|.......................|.......................|.......................|.......................|.......................|C-0....................|.......................|.......................|
.......................|.......................|.......................|.......................|.......................|.......................|.......................|.......................|.......................|.......................|
.......................|.......................|.......................|.......................|.......................|.......................|.......................|.......................|.......................|.......................|
C-0....................|.......................|.......................|.......................|C-0....................|.......................|.......................|.......................|.......................|.......................|
A#2....0400............|A#4....................|.......................|A#229..................|C-42D..................|C-4C0..................|.......................|A#3....................|.......................|.......................|
.......................|.......................|.......................|.......................|.......................|.......................|.......................|.......................|.......................|.......................|
.......................|.......................|.......................|.......................|.......................|.......................|.......................|.......................|.......................|.......................|
.......................|.......................|.......................|.......................|.......................|.......................|.......................|.......................|.......................|.......................|
.......................|.......................|.......................|.......................|.......................|.......................|.......................|.......................|.......................|.......................|
.......................|.......................|.......................|.......................|.......................|.......................|.......................|.......................|.......................|.......................|
.......................|.......................|.......................|.......................|.......................|.......................|.......................|.......................|.......................|.......................|
.......................|.......................|.......................|.......................|.......................|.......................|.......................|.......................|.......................|.......................|
.......................|.......................|A#4....................|.......................|.......................|.......................|.......................|.......................|.......................|.......................|
.......................|.......................|.......................|.......................|.......................|.......................|.......................|.......................|.......................|.......................|
.......................|.......................|.......................|.......................|.......................|.......................|.......................|.......................|.......................|.......................|
.......................|.......................|.......................|.......................|C-0....................|.......................|.......................|.......................|.......................|.......................|
.......................|.......................|.......................|.......................|C-42C..................|.......................|.......................|.......................|.......................|.......................|
.......................|.......................|.......................|.......................|.......................|.......................|.......................|.......................|.......................|.......................|
.......................|.......................|.......................|.......................|.......................|.......................|.......................|.......................|.......................|.......................|
.......................|.......................|.......................|.......................|.......................|.......................|.......................|.......................|.......................|.......................|
.......................|.......................|.......................|.......................|.......................|.......................|.......................|.......................|.......................|.......................|
.......................|.......................|.......................|.......................|.......................|.......................|.......................|.......................|.......................|.......................|
.......................|.......................|.......................|.......................|.......................|.......................|.......................|.......................|.......................|.......................|
.......................|.......................|.......................|.......................|.......................|.......................|.......................|.......................|.......................|.......................|
.......0452............|.......0452............|.......................|.......0452............|.......................|.......................|.......................|.......0452............|.......................|.......................|
.......................|.......................|.......................|.......................|.......................|.......................|.......................|.......................|.......................|.......................|
.......................|.......................|.......................|.......................|.......................|.......................|.......................|.......................|.......................|.......................|
.......................|.......................|.......................|.......................|C-0....................|.......................|.......................|.......................|.......................|.......................|
.......EAFF............|.......................|.......................|.......................|C-42D..................|C-4C0..................|C-0....................|.......................|.......................|.......................|
.......................|.......................|.......................|.......................|.......................|.......................|.......................|.......................|.......................|.......................|
.......................|.......................|.......................|.......................|.......................|.......................|.......................|.......................|.......................|.......................|
.......................|.......................|.......................|.......................|.......................|.......................|.......................|.......................|.......................|.......................|
.......................|.......................|.......0452............|.......................|.......................|.......................|.......................|.......................|.......................|.......................|
.......................|.......................|.......................|.......................|.......................|.......................|.......................|.......................|.......................|.......................|
.......................|.......................|.......................|.......................|.......................|.......................|.......................|.......................|.......................|.......................|
.......................|.......................|.......................|.......................|.......................|.......................|.......................|.......................|.......................|.......................|
.......................|.......................|.......................|.......................|.......................|.......................|.......................|.......................|.......................|.......................|
.......................|.......................|.......................|.......................|.......................|.......................|.......................|.......................|.......................|.......................|
.......................|.......................|.......................|.......................|.......................|.......................|.......................|.......................|.......................|.......................|
.......................|.......................|.......................|.......................|C-0....................|.......................|.......................|C-0....................|.......................|.......................|
.......................|.......................|.......................|.......................|C-42C..................|.......................|.......................|C-4....0400............|.......................|.......................|
.......................|.......................|.......................|.......................|.......................|.......................|.......................|.......................|.......................|.......................|
.......................|.......................|.......................|.......................|.......................|.......................|.......................|.......................|.......................|.......................|
.......................|.......................|.......................|.......................|.......................|.......................|.......................|.......................|.......................|.......................|
.......................|.......................|.......................|.......................|.......................|.......................|.......................|.......................|.......................|.......................|
.......................|.......................|.......................|.......................|.......................|.......................|.......................|C-0....................|.......................|.......................|
.......................|.......................|.......................|.......................|.......................|.......................|.......................|D#4....................|.......................|.......................|
.......................|.......................|.......................|.......................|.......................|.......................|.......................|.......................|.......................|.......................|
.......................|.......................|.......................|.......................|.......................|.......................|.......................|.......................|.......................|.......................|
.......................|.......................|.......................|.......................|.......................|.......................|.......................|.......................|.......................|.......................|
.......................|.......................|.......................|.......................|.......................|.......................|.......................|.......................|.......................|.......................|
.......................|.......................|.......................|.......................|C-0....................|.......................|.......................|C-0....................|.......................|.......................|
.......................|.......................|.......................|.......................|C-42D..................|C-4C0..................|.......................|C#4....................|.......................|.......................|
.......................|.......................|.......................|.......................|.......................|.......................|.......................|.......................|.......................|.......................|
.......................|.......................|.......................|.......................|.......................|.......................|.......................|.......................|.......................|.......................|
.......................|.......................|.......................|.......................|.......................|.......................|.......................|.......................|.......................|.......................|
.......................|.......................|.......................|.......................|.......................|.......................|.......................|.......................|.......................|.......................|
.......................|.......................|.......................|.......................|.......................|.......................|.......................|C-0....................|.......................|.......................|
.......................|.......................|.......................|.......................|.......................|.......................|.......................|C-4....................|.......................|.......................|
.......................|.......................|.......................|.......................|.......................|.......................|.......................|.......................|.......................|.......................|
.......................|.......................|.......................|.......................|.......................|.......................|.......................|.......................|.......................|.......................|
.......................|.......................|.......................|.......................|.......................|.......................|.......................|.......................|.......................|.......................|
.......................|.......................|.......................|.......................|.......................|.......................|.......................|.......................|.......................|.......................|
.......................|C-0....................|.......................|C-0....................|C-0....................|.......................|.......................|C-0....................|.......................|.......................|
.......................|C-5....0400............|.......................|.......................|C-42C..................|.......................|.......................|A#3....................|.......................|.......................|
.......................|.......................|.......................|.......................|.......................|.......................|.......................|.......................|.......................|.......................|
.......................|.......................|.......................|.......................|.......................|.......................|.......................|.......................|.......................|.......................|
.......................|.......................|.......................|.......................|.......................|.......................|.......................|.......................|.......................|.......................|
.......................|.......................|.......................|.......................|.......................|.......................|.......................|.......................|.......................|.......................|
.......................|C-0....................|.......................|.......................|.......................|.......................|.......................|.......................|.......................|.......................|
.......................|D#5....................|.......................|.......................|.......................|.......................|.......................|.......................|.......................|.......................|
.......................|.......................|C-0....................|.......................|.......................|.......................|.......................|.......................|.......................|.......................|
.......................|.......................|C-5....0400............|.......................|.......................|.......................|.......................|.......................|.......................|.......................|
.......................|.......................|.......................|.......................|.......................|.......................|.......................|.......................|.......................|.......................|
.......................|.......................|.......................|.......................|.......................|.......................|.......................|.......................|.......................|.......................|
.......................|C-0....................|.......................|.......................|C-0....................|.......................|.......................|C-0....................|.......................|.......................|
.......................|C#5....................|.......................|.......................|C-42D..................|C-4C0..................|.......................|A#3....................|.......................|.......................|
.......................|.......................|C-0....................|.......................|.......................|.......................|.......................|.......................|.......................|.......................|
.......................|.......................|D#5....................|.......................|.......................|.......................|.......................|.......................|.......................|.......................|
.......................|.......................|.......................|.......................|.......................|.......................|.......................|.......................|.......................|.......................|
.......................|.......................|.......................|.......................|.......................|.......................|.......................|.......................|.......................|.......................|
.......................|C-0....................|.......................|.......................|.......................|.......................|.......................|.......................|.......................|.......................|
.......................|C-5....................|.......................|.......................|.......................|.......................|.......................|.......................|.......................|.......................|
.......................|.......................|C-0....................|.......................|.......................|.......................|.......................|.......................|.......................|.......................|
.......................|.......................|C#5....................|.......................|.......................|.......................|.......................|.......................|.......................|.......................|
.......................|.......................|.......................|.......................|.......................|.......................|.......................|.......................|.......................|.......................|
.......................|.......................|.......................|.......................|.......................|.......................|.......................|.......................|.......................|.......................|
.......................|C-0....................|.......................|.......................|C-0....................|.......................|.......................|C-0....................|.......................|.......................|
.......................|A#4....................|.......................|.......................|C-42C..................|.......................|.......................|C-0....................|.......................|.......................|
.......................|.......................|C-0....................|.......................|.......................|.......................|.......................|.......................|.......................|.......................|
.......................|.......................|C-5....................|.......................|.......................|.......................|.......................|.......................|.......................|.......................|
.......................|.......................|.......................|.......................|.......................|.......................|.......................|.......................|.......................|.......................|
.......................|.......................|.......................|.......................|.......................|.......................|.......................|.......................|.......................|.......................|
.......................|.......................|.......................|.......................|.......................|.......................|.......................|.......................|.......................|.......................|
.......................|.......................|.......................|.......................|.......................|.......................|.......................|.......................|.......................|.......................|
.......................|.......................|C-0....................|.......................|.......................|.......................|.......................|.......................|.......................|.......................|
.......................|.......................|A#4....................|.......................|.......................|.......................|.......................|.......................|.......................|.......................|
.......................|.......................|.......................|.......................|.......................|.......................|.......................|.......................|.......................|.......................|
.......................|.......................|.......................|.......................|.......................|.......................|.......................|.......................|.......................|.......................|
C-0....................|C-0....................|.......................|.......................|C-0....................|.......................|.......................|.......................|.......................|.......................|
A#2....EA000400........|C-0....................|.......................|A#2....0400............|C-42D..................|C-4C6..................|A#3..0A................|.......................|.......................|.......................|
.......................|.......................|.......................|.......................|.......................|.......................|.......................|.......................|.......................|.......................|
.......................|.......................|.......................|.......................|.......................|.......................|.......................|.......................|.......................|.......................|
.......................|.......................|.......................|.......................|.......................|.......................|.......................|.......................|.......................|.......................|
.......................|.......................|.......................|.......................|.......................|.......................|.......................|.......................|.......................|.......................|
.......................|.......................|.......................|.......................|.......................|.......................|.......................|.......................|.......................|.......................|
.......................|.......................|.......................|.......................|.......................|.......................|.......................|.......................|.......................|.......................|
.......................|.......................|C-0....................|.......................|.......................|.......................|.......................|.......................|.......................|.......................|
.......................|.......................|C-0....................|.......................|.......................|.......................|.......................|.......................|.......................|.......................|
.......................|.......................|.......................|.......................|.......................|.......................|.......................|.......................|.......................|.......................|
.......................|.......................|.......................|.......................|.......................|.......................|.......................|.......................|.......................|.......................|
.......................|C-0....................|.......................|C-0....................|C-0....................|.......................|.......................|.......................|.......................|.......................|
.......................|.......................|.......................|.......................|C-42C..................|.......................|.......................|.......................|.......................|.......................|
.......................|.......................|.......................|.......................|.......................|.......................|.......................|.......................|.......................|.......................|
.......................|.......................|.......................|.......................|.......................|.......................|.......................|.......................|.......................|.......................|
.......................|.......................|.......................|.......................|.......................|.......................|.......................|.......................|.......................|.......................|
.......................|.......................|.......................|.......................|.......................|.......................|.......................|.......................|.......................|.......................|
.......................|.......................|.......................|.......................|.......................|.......................|.......................|.......................|.......................|.......................|
.......................|.......................|.......................|.......................|.......................|.......................|.......................|.......................|.......................|.......................|
.......................|.......................|C-0....................|.......................|.......................|.......................|.......................|.......................|.......................|.......................|
.......0452............|.......................|.......................|.......................|.......................|.......................|.......0452............|.......................|.......................|.......................|
.......................|.......................|.......................|.......................|.......................|.......................|.......................|.......................|.......................|.......................|
.......................|.......................|.......................|.......................|.......................|.......................|.......................|.......................|.......................|.......................|
.......................|.......................|.......................|.......................|C-0....................|.......................|.......................|.......................|.......................|.......................|
.......................|A#4....................|.......................|A#2....................|C-42D..................|C-4C0..................|.......................|C-0....................|.......................|.......................|
.......................|.......................|.......................|.......................|.......................|.......................|.......................|.......................|.......................|.......................|
.......................|.......................|.......................|.......................|.......................|.......................|.......................|.......................|.......................|.......................|
.......................|.......................|.......................|.......................|.......................|.......................|.......................|.......................|.......................|.......................|
.......................|.......................|.......................|.......................|.......................|.......................|.......................|.......................|.......................|.......................|
.......................|.......................|.......................|.......................|.......................|.......................|.......................|.......................|.......................|.......................|
.......................|.......................|.......................|.......................|.......................|.......................|.......................|.......................|.......................|.......................|
.......................|.......................|.......................|.......................|.......................|.......................|.......................|.......................|.......................|.......................|
.......................|.......................|A#4....................|.......................|.......................|.......................|.......................|.......................|.......................|.......................|
.......................|.......................|.......................|.......................|.......................|.......................|.......................|.......................|.......................|.......................|
.......................|.......................|.......................|.......................|.......................|.......................|.......................|.......................|.......................|.......................|
.......................|.......................|.......................|.......................|C-0....................|.......................|C-0....................|.......................|.......................|.......................|
.......................|.......................|.......................|.......................|C-42C..................|.......................|C-4....0400............|.......................|.......................|.......................|
.......................|.......................|.......................|.......................|.......................|.......................|.......................|.......................|.......................|.......................|
.......................|.......................|.......................|.......................|.......................|.......................|.......................|.......................|.......................|.......................|
.......................|.......................|.......................|.......................|.......................|.......................|.......................|.......................|.......................|.......................|
.......................|.......................|.......................|.......................|.......................|.......................|.......................|.......................|.......................|.......................|
.......................|.......................|.......................|.......................|.......................|.......................|C-0....................|.......................|.......................|.......................|
.......................|.......................|.......................|.......................|.......................|.......................|D#4....................|.......................|.......................|.......................|
.......................|.......................|.......................|.......................|.......................|.......................|.......................|.......................|.......................|.......................|
.......................|.......0452............|.......................|.......0452............|.......................|.......................|.......................|.......................|.......................|.......................|
.......................|.......................|.......................|.......................|.......................|.......................|.......................|.......................|.......................|.......................|
.......................|.......................|.......................|.......................|.......................|.......................|.......................|.......................|.......................|.......................|
C-0....................|.......................|.......................|.......................|C-0....................|.......................|C-0....................|.......................|.......................|.......................|
A#2....0400............|.......................|.......................|.......................|C-42D..................|C-4C0..................|C#4....................|.......................|.......................|.......................|
.......................|.......................|.......................|.......................|.......................|.......................|.......................|.......................|.......................|.......................|
.......................|.......................|.......................|.......................|.......................|.......................|.......................|.......................|.......................|.......................|
.......................|.......................|.......................|.......................|.......................|.......................|.......................|.......................|.......................|.......................|
.......................|.......................|.......0452............|.......................|.......................|.......................|.......................|.......................|.......................|.......................|
.......................|.......................|.......................|.......................|.......................|.......................|C-0....................|.......................|.......................|.......................|
.......................|.......................|.......................|.......................|.......................|.......................|C-4....................|.......................|.......................|.......................|
.......................|.......................|.......................|.......................|.......................|.......................|.......................|.......................|.......................|.......................|
.......................|.......................|.......................|.......................|.......................|.......................|.......................|.......................|.......................|.......................|
.......................|.......................|.......................|.......................|.......................|.......................|.......................|.......................|.......................|.......................|
.......................|.......................|.......................|.......................|.......................|.......................|.......................|.......................|.......................|.......................|
.......................|.......................|.......................|.......................|C-0....................|.......................|C-0....................|.......................|.......................|.......................|
.......................|.......................|.......................|.......................|C-42C..................|.......................|A#3....................|.......................|.......................|.......................|
.......................|.......................|.......................|.......................|.......................|.......................|.......................|.......................|.......................|.......................|
.......................|.......................|.......................|.......................|.......................|.......................|.......................|.......................|.......................|.......................|
.......................|.......................|.......................|.......................|.......................|.......................|.......................|.......................|.......................|.......................|
.......................|.......................|.......................|.......................|.......................|.......................|.......................|.......................|.......................|.......................|
.......................|.......................|.......................|.......................|.......................|.......................|.......................|.......................|.......................|.......................|
.......................|.......................|.......................|.......................|.......................|.......................|.......................|.......................|.......................|.......................|
.......................|.......................|.......................|.......................|.......................|.......................|C-0....................|.......................|.......................|.......................|
.......0452............|.......................|.......................|.......................|.......................|.......................|C-0....................|.......................|.......................|.......................|
.......................|.......................|.......................|.......................|.......................|.......................|.......................|.......................|.......................|.......................|
.......................|.......................|.......................|.......................|.......................|.......................|.......................|.......................|.......................|.......................|
.......................|.......................|.......................|.......................|C-0....................|.......................|.......................|.......................|.......................|.......................|
.......................|.......................|.......................|.......................|C-42D..................|C-4C0..................|A#3....................|.......................|.......................|.......................|
.......................|.......................|.......................|.......................|.......................|.......................|.......................|.......................|.......................|.......................|
.......................|.......................|.......................|.......................|.......................|.......................|.......................|.......................|.......................|.......................|
.......................|.......................|.......................|.......................|.......................|.......................|.......................|.......................|.......................|.......................|
.......................|.......................|.......................|.......................|.......................|.......................|.......................|.......................|.......................|.......................|
.......................|.......................|.......................|.......................|.......................|.......................|.......................|.......................|.......................|.......................|
.......................|.......................|.......................|.......................|.......................|.......................|.......................|.......................|.......................|.......................|
.......................|.......................|.......................|.......................|.......................|.......................|C-0....................|.......................|.......................|.......................|
.......................|.......................|.......................|.......................|.......................|.......................|C-0....................|.......................|.......................|.......................|
.......................|.......................|.......................|.......................|.......................|.......................|.......................|.......................|.......................|.......................|
.......................|.......................|.......................|.......................|.......................|.......................|.......................|.......................|.......................|.......................|
.......................|C-0....................|.......................|C-0....................|C-0....................|.......................|.......................|.......................|.......................|.......................|
.......................|C-5....0400............|.......................|.......................|C-42C..................|.......................|.......................|.......................|.......................|.......................|
.......................|.......................|.......................|.......................|.......................|.......................|.......................|.......................|.......................|.......................|
.......................|.......................|.......................|.......................|.......................|.......................|.......................|.......................|.......................|.......................|
.......................|.......................|.......................|.......................|.......................|.......................|.......................|.......................|.......................|.......................|
org.tildearrow.furnace - Pattern Data (219)
0
.......................|.......................|.......................|.......................|.......................|.......................|.......................|.......................|.......................|.......................|
.......................|C-0....................|.......................|.......................|.......................|.......................|.......................|.......................|.......................|.......................|
.......................|D#5....................|.......................|.......................|.......................|.......................|.......................|.......................|.......................|.......................|
.......................|.......................|C-0....................|.......................|.......................|.......................|.......................|.......................|.......................|.......................|
.......................|.......................|C-5....0400............|.......................|.......................|.......................|.......................|.......................|.......................|.......................|
.......................|.......................|.......................|.......................|.......................|.......................|.......................|.......................|.......................|.......................|
.......................|.......................|.......................|.......................|.......................|.......................|.......................|.......................|.......................|.......................|
C-0....................|C-0....................|.......................|.......................|C-0....................|.......................|.......................|.......................|.......................|.......................|
A#2....0400............|C#5....................|.......................|.......................|C-42D..................|C-4C6..................|A#2....................|A#3....................|.......................|.......................|
.......................|.......................|C-0....................|.......................|.......................|.......................|.......................|.......................|.......................|.......................|
.......................|.......................|D#5....................|.......................|.......................|.......................|.......................|.......................|.......................|.......................|
.......................|.......................|.......................|.......................|.......................|.......................|.......................|.......................|.......................|.......................|
.......................|.......................|.......................|.......................|.......................|.......................|.......................|.......................|.......................|.......................|
.......................|C-0....................|.......................|.......................|.......................|.......................|.......................|.......................|.......................|.......................|
.......................|C-5....................|.......................|.......................|.......................|.......................|.......................|.......................|.......................|.......................|
.......................|.......................|C-0....................|.......................|.......................|.......................|.......................|.......................|.......................|.......................|
.......................|.......................|C#5....................|.......................|.......................|.......................|.......................|.......................|.......................|.......................|
.......................|.......................|.......................|.......................|.......................|.......................|.......................|.......................|.......................|.......................|
.......................|.......................|.......................|.......................|.......................|.......................|.......................|.......................|.......................|.......................|
.......................|C-0....................|.......................|.......................|C-0....................|.......................|.......................|.......................|.......................|.......................|
.......................|A#4....................|.......................|.......................|C-42C..................|.......................|.......................|.......................|.......................|.......................|
.......................|.......................|C-0....................|.......................|.......................|.......................|.......................|.......................|.......................|.......................|
.......................|.......................|C-5....................|.......................|.......................|.......................|.......................|.......................|.......................|.......................|
.......................|.......................|.......................|.......................|.......................|.......................|.......................|.......................|.......................|.......................|
.......................|.......................|.......................|.......................|.......................|.......................|.......................|.......................|.......................|.......................|
.......................|.......................|.......................|.......................|.......................|.......................|.......................|.......................|.......................|.......................|
.......................|.......................|.......................|.......................|.......................|.......................|.......................|.......................|.......................|.......................|
.......................|.......................|C-0....................|.......................|.......................|.......................|.......................|.......................|.......................|.......................|
.......0452............|.......................|A#4....................|.......................|.......................|.......................|.......0452............|.......0452............|.......................|.......................|
.......................|.......................|.......................|.......................|.......................|.......................|.......................|.......................|.......................|.......................|
.......................|.......................|.......................|.......................|.......................|.......................|.......................|.......................|.......................|.......................|
C-0....................|C-0....................|.......................|.......................|C-0....................|.......................|C-0....................|C-0....................|.......................|.......................|
C#3....0400............|G#4....................|.......................|.......................|C-42D..................|C-4C0..................|G#2....0400............|C#3....0400............|.......................|.......................|
.......................|.......................|.......................|.......................|.......................|.......................|.......................|.......................|.......................|.......................|
.......................|.......................|.......................|.......................|.......................|.......................|.......................|.......................|.......................|.......................|
.......................|.......................|.......................|.......................|.......................|.......................|.......................|.......................|.......................|.......................|
.......................|.......................|.......................|.......................|.......................|.......................|.......................|.......................|.......................|.......................|
.......................|C-0....................|.......................|.......................|.......................|.......................|.......................|.......................|.......................|.......................|
.......................|C#5....................|.......................|.......................|.......................|.......................|.......................|.......................|.......................|.......................|
.......................|.......................|C-0....................|.......................|.......................|.......................|.......................|.......................|.......................|.......................|
.......................|.......................|G#4....................|.......................|.......................|.......................|.......................|.......................|.......................|.......................|
.......................|.......................|.......................|.......................|.......................|.......................|.......................|.......................|.......................|.......................|
.......................|.......................|.......................|.......................|.......................|.......................|.......................|.......................|.......................|.......................|
C-0....................|C-0....................|.......................|.......................|C-0....................|.......................|.......................|.......................|.......................|.......................|
C#3....................|F-5....................|.......................|.......................|C-42C..................|.......................|.......................|.......................|.......................|.......................|
.......................|.......................|C-0....................|.......................|.......................|.......................|.......................|.......................|.......................|.......................|
.......................|.......................|C#5....................|.......................|.......................|.......................|.......................|.......................|.......................|.......................|
.......................|.......................|.......................|.......................|.......................|.......................|.......................|.......................|.......................|.......................|
.......................|.......................|.......................|.......................|.......................|.......................|.......................|.......................|.......................|.......................|
.......................|C-0....................|.......................|.......................|.......................|.......................|.......................|.......................|.......................|.......................|
.......................|C-0....................|.......................|.......................|.......................|.......................|.......................|.......................|.......................|.......................|
.......................|.......................|C-0....................|.......................|.......................|.......................|.......................|.......................|.......................|.......................|
.......................|.......................|F-5....................|.......................|.......................|.......................|.......0452............|.......0452............|.......................|.......................|
.......................|.......................|.......................|.......................|.......................|.......................|.......................|.......................|.......................|.......................|
.......................|.......................|.......................|.......................|.......................|.......................|.......................|.......................|.......................|.......................|
C-0....................|C-0....................|.......................|.......................|C-0....................|.......................|.......................|.......................|.......................|.......................|
C#3....................|F#5....................|.......................|.......................|C-42D..................|C-4C0..................|.......................|.......................|.......................|.......................|
.......................|.......................|C-0....................|.......................|.......................|.......................|.......................|.......................|.......................|.......................|
.......................|.......................|C-0....................|.......................|.......................|.......................|.......................|.......................|.......................|.......................|
.......................|.......................|.......................|.......................|.......................|.......................|.......................|.......................|.......................|.......................|
.......................|.......................|.......................|.......................|.......................|.......................|.......................|.......................|.......................|.......................|
.......................|.......................|.......................|.......................|.......................|.......................|.......................|.......................|.......................|.......................|
.......................|.......................|.......................|.......................|.......................|.......................|.......................|.......................|.......................|.......................|
.......................|.......................|C-0....................|.......................|.......................|.......................|.......................|.......................|.......................|.......................|
.......................|.......................|C#4....................|.......................|.......................|.......................|.......................|.......................|.......................|.......................|
.......................|.......................|.......................|.......................|.......................|.......................|.......................|.......................|.......................|.......................|
.......................|.......................|.......................|.......................|.......................|.......................|.......................|.......................|.......................|.......................|
C-0....................|.......................|.......................|.......................|C-0....................|.......................|.......................|.......................|.......................|.......................|
C#3....................|.......................|.......................|.......................|C-42C..................|.......................|.......................|.......................|.......................|.......................|
.......................|.......................|C-0....................|.......................|.......................|.......................|.......................|.......................|.......................|.......................|
.......................|.......................|F-4....................|.......................|.......................|.......................|.......................|.......................|.......................|.......................|
.......................|.......................|.......................|.......................|.......................|.......................|.......................|.......................|.......................|.......................|
.......................|.......................|.......................|.......................|.......................|.......................|.......................|.......................|.......................|.......................|
.......................|.......................|.......................|.......................|.......................|.......................|.......................|.......................|.......................|.......................|
.......................|.......................|.......................|.......................|.......................|.......................|.......................|.......................|.......................|.......................|
.......................|.......................|C-0....................|.......................|.......................|.......................|.......................|.......................|.......................|.......................|
.......................|.......0452............|G#4....................|.......................|.......................|.......................|.......................|.......................|.......................|.......................|
.......................|.......................|.......................|.......................|.......................|.......................|.......................|.......................|.......................|.......................|
.......................|.......................|.......................|.......................|.......................|.......................|.......................|.......................|.......................|.......................|
C-0....................|.......................|.......................|.......................|C-0....................|.......................|C-0....................|C-0....................|.......................|.......................|
F#2....................|.......................|.......................|.......................|C-42D..................|C-4C0..................|C#2....0400............|F#2....0400............|.......................|.......................|
.......................|.......................|C-0....................|.......................|.......................|.......................|.......................|.......................|.......................|.......................|
.......................|.......................|C#5....................|.......................|.......................|.......................|.......................|.......................|.......................|.......................|
.......................|.......................|.......................|.......................|.......................|.......................|.......................|.......................|.......................|.......................|
.......................|.......................|.......................|.......................|.......................|.......................|.......................|.......................|.......................|.......................|
.......................|.......................|.......................|.......................|.......................|.......................|C-0....................|C-0....................|.......................|.......................|
.......................|.......................|.......................|.......................|.......................|.......................|F#2....................|A#2....................|.......................|.......................|
.......................|.......................|C-0....................|.......................|.......................|.......................|.......................|.......................|.......................|.......................|
.......................|.......................|D#5....................|.......................|.......................|.......................|.......................|.......................|.......................|.......................|
.......................|.......................|.......................|.......................|.......................|.......................|.......................|.......................|.......................|.......................|
.......................|.......................|.......................|.......................|.......................|.......................|.......................|.......................|.......................|.......................|
C-0....................|.......................|.......................|.......................|C-0....................|.......................|C-0....................|C-0....................|.......................|.......................|
F#2....................|.......................|.......................|.......................|C-42C..................|.......................|A#2....................|C#3....................|.......................|.......................|
.......................|.......................|.......................|.......................|.......................|.......................|.......................|.......................|.......................|.......................|
.......................|.......................|.......................|.......................|.......................|.......................|.......................|.......................|.......................|.......................|
.......................|.......................|.......................|.......................|.......................|.......................|.......................|.......................|.......................|.......................|
.......................|.......................|.......................|.......................|.......................|.......................|.......................|.......................|.......................|.......................|
.......................|.......................|.......................|.......................|.......................|.......................|C-0....................|C-0....................|.......................|.......................|
.......................|.......................|.......................|.......................|.......................|.......................|C#3....................|F#3....................|.......................|.......................|
.......................|.......................|.......................|.......................|.......................|.......................|.......................|.......................|.......................|.......................|
.......................|.......................|.......................|.......................|.......................|.......................|.......................|.......................|.......................|.......................|
.......................|.......................|.......................|.......................|.......................|.......................|.......................|.......................|.......................|.......................|
.......................|.......................|.......................|.......................|.......................|.......................|.......................|.......................|.......................|.......................|
C-0....................|.......................|.......................|.......................|C-0....................|.......................|C-0....................|C-0....................|.......................|.......................|
F#2....................|.......................|.......................|.......................|C-42D..................|C-4C6..................|F#3....................|A#3....................|.......................|.......................|
.......................|.......................|.......................|.......................|.......................|.......................|.......................|.......................|.......................|.......................|
.......................|.......................|.......................|.......................|.......................|.......................|.......................|.......................|.......................|.......................|
.......................|.......................|.......................|.......................|.......................|.......................|.......................|.......................|.......................|.......................|
.......................|.......................|.......0452............|.......................|.......................|.......................|.......................|.......................|.......................|.......................|
.......................|.......................|.......................|.......................|.......................|.......................|.......................|.......................|.......................|.......................|
.......................|.......................|.......................|.......................|.......................|.......................|.......................|.......................|.......................|.......................|
.......................|.......................|.......................|.......................|.......................|.......................|.......................|.......................|.......................|.......................|
.......................|.......................|.......................|.......................|.......................|.......................|.......................|.......................|.......................|.......................|
.......................|.......................|.......................|.......................|.......................|.......................|.......................|.......................|.......................|.......................|
.......................|.......................|.......................|.......................|.......................|.......................|.......................|.......................|.......................|.......................|
C-0....................|C-0....................|.......................|.......................|C-0....................|.......................|C-0....................|C-0....................|.......................|.......................|
F#2....................|F-5....0400............|.......................|.......................|C-42C..................|.......................|F-3....................|G#3....................|.......................|.......................|
.......................|.......................|.......................|.......................|.......................|.......................|.......................|.......................|.......................|.......................|
.......................|.......................|.......................|.......................|.......................|.......................|.......................|.......................|.......................|.......................|
.......................|.......................|.......................|.......................|.......................|.......................|.......................|.......................|.......................|.......................|
.......................|.......................|.......................|.......................|.......................|.......................|.......................|.......................|.......................|.......................|
.......................|C-0....................|.......................|.......................|.......................|.......................|C-0....................|C-0....................|.......................|.......................|
.......................|D#5....................|.......................|.......................|.......................|.......................|D#3....................|F#3....................|.......................|.......................|
.......................|.......................|C-0....................|.......................|.......................|.......................|.......................|.......................|.......................|.......................|
.......................|.......................|F-5....0400............|.......................|.......................|.......................|.......................|.......................|.......................|.......................|
.......................|.......................|.......................|.......................|.......................|.......................|.......................|.......................|.......................|.......................|
.......................|.......................|.......................|.......................|.......................|.......................|.......................|.......................|.......................|.......................|
C-0....................|C-0....................|C-0....................|.......................|C-0....................|.......................|C-0....................|C-0....................|.......................|.......................|
D-3....................|F#4....................|.......................|A-42B..0400............|.......................|C-4C6..................|D-2....................|F#2....................|.......................|.......................|
.......................|.......................|.......................|.......................|.......................|.......................|.......................|.......................|.......................|.......................|
.......................|.......................|.......................|.......................|.......................|.......................|.......................|.......................|.......................|.......................|
.......................|.......................|.......................|.......................|.......................|.......................|.......................|.......................|.......................|.......................|
.......................|.......................|.......................|.......................|.......................|.......................|.......................|.......................|.......................|.......................|
.......................|.......................|.......................|.......................|.......................|.......................|.......................|.......................|.......................|.......................|
.......................|.......................|.......................|.......................|.......................|.......................|.......................|.......................|.......................|.......................|
.......................|.......................|.......................|.......................|.......................|.......................|.......................|.......................|.......................|.......................|
.......................|.......................|F#4....................|.......................|A-42B598080............|.......................|.......................|.......................|.......................|.......................|
.......................|.......................|.......................|.......................|.......................|.......................|.......................|.......................|.......................|.......................|
.......................|.......................|.......................|.......................|.......................|.......................|.......................|.......................|.......................|.......................|
C-0....................|C-0....................|.......................|.......................|.......................|.......................|C-0....................|C-0....................|.......................|.......................|
A-2....................|D-4....................|.......................|.......................|.......................|C-4C1..................|F#1....................|F#2....................|.......................|.......................|
.......................|.......................|.......................|.......................|.......................|.......................|.......................|.......................|.......................|.......................|
.......................|.......................|.......................|.......................|.......................|.......................|.......................|.......................|.......................|.......................|
.......................|.......................|.......................|.......................|.......................|.......................|.......................|.......................|.......................|.......................|
.......................|.......................|.......................|.......................|.......................|.......................|.......................|.......................|.......................|.......................|
C-0....................|C-0....................|.......................|.......................|.......................|.......................|C-0....................|C-0....................|.......................|.......................|
D-3....................|F#4....................|.......................|.......................|.......................|C-4C1..................|A-1....................|A-2....................|.......................|.......................|
.......................|.......................|C-0....................|.......................|.......................|.......................|.......................|.......................|.......................|.......................|
.......................|.......................|D-4....................|.......0452............|.......................|.......................|.......................|.......................|.......................|.......................|
.......................|.......................|.......................|.......................|.......................|.......................|.......................|.......................|.......................|.......................|
.......................|.......................|.......................|.......................|.......................|.......................|.......................|.......................|.......................|.......................|
C-0....................|C-0....................|.......................|.......................|.......................|.......................|C-0....................|C-0....................|.......................|.......................|
F#3....................|A-4....................|.......................|.......................|.......................|C-4C6..................|D-2....................|D-3....................|.......................|.......................|
.......................|.......................|C-0....................|.......................|.......................|.......................|.......................|.......................|.......................|.......................|
.......................|.......................|F#4....................|.......................|.......................|.......................|.......................|.......................|.......................|.......................|
.......................|.......................|.......................|.......................|.......................|.......................|.......................|.......................|.......................|.......................|
.......................|.......................|.......................|.......................|.......0452............|.......................|.......................|.......................|.......................|.......................|
C-0....................|C-0....................|.......................|.......................|.......................|.......................|C-0....................|C-0....................|.......................|.......................|
A-3....................|D-5....................|.......................|.......................|.......................|C-4C1..................|F#2....................|F#3....................|.......................|.......................|
.......................|.......................|C-0....................|.......................|.......................|.......................|.......................|.......................|.......................|.......................|
.......................|.......................|A-4....................|.......................|.......................|.......................|.......................|.......................|.......................|.......................|
.......................|.......................|.......................|.......................|.......................|.......................|.......................|.......................|.......................|.......................|
.......................|.......................|.......................|.......................|.......................|.......................|.......................|.......................|.......................|.......................|
C-0....................|C-0....................|.......................|.......................|.......................|.......................|C-0....................|C-0....................|.......................|.......................|
D-4....................|F#5....................|.......................|.......................|.......................|C-4C1..................|A-2....................|A-3....................|.......................|.......................|
.......................|.......................|C-0....................|.......................|.......................|.......................|.......................|.......................|.......................|.......................|
.......................|.......................|D-5....................|.......................|.......................|.......................|.......................|.......................|.......................|.......................|
.......................|.......................|.......................|.......................|.......................|.......................|.......................|.......................|.......................|.......................|
.......................|.......................|.......................|.......................|.......................|.......................|.......................|.......................|.......................|.......................|
C-0....................|C-0....................|.......................|.......................|.......................|.......................|C-0....................|C-0....................|.......................|.......................|
F#3....................|C-0....................|.......................|.......................|.......................|C-4C1..................|D-3....................|D-4....................|.......................|.......................|
.......................|.......................|C-0....................|.......................|.......................|.......................|.......................|.......................|.......................|.......................|
.......................|.......................|F#5....................|.......................|.......................|.......................|.......................|.......................|.......................|.......................|
.......................|.......................|.......................|.......................|.......................|.......................|.......................|.......................|.......................|.......................|
.......................|.......................|.......................|.......................|.......................|.......................|.......................|.......................|.......................|.......................|
C-0....................|C-0....................|.......................|C-0....................|.......................|.......................|C-0....................|C-0....................|.......................|.......................|
A#2....................|C-0....................|.......................|F-4....0400............|.......................|C-4C0..................|A#3....................|A#3....................|.......................|.......................|
.......................|.......................|C-0....................|.......................|.......................|.......................|.......................|.......................|.......................|.......................|
.......................|.......................|C-0....................|.......................|.......................|.......................|.......................|.......................|.......................|.......................|
.......................|.......................|.......................|.......................|.......................|.......................|.......................|.......................|.......................|.......................|
.......................|.......................|.......................|.......................|.......................|.......................|.......................|.......................|.......................|.......................|
.......................|.......................|.......................|.......................|.......................|.......................|.......................|.......................|.......................|.......................|
.......................|.......................|.......................|.......................|.......................|.......................|.......................|.......................|.......................|.......................|
.......................|.......................|C-0....................|.......................|C-0....................|.......................|.......................|.......................|.......................|.......................|
.......................|.......................|C-0....................|.......................|A#3....0400............|.......................|.......................|.......................|.......................|.......................|
.......................|.......................|.......................|.......................|.......................|.......................|.......................|.......................|.......................|.......................|
.......................|.......................|.......................|.......................|.......................|.......................|.......................|.......................|.......................|.......................|
.......................|C-0....................|.......................|C-0....................|C-0....................|.......................|C-0....................|C-0....................|.......................|.......................|
.......................|.......................|.......................|.......................|C-42C6780FF............|.......................|C-0....................|C-0....................|.......................|.......................|
.......................|.......................|.......................|.......................|.......................|.......................|.......................|.......................|.......................|.......................|
.......................|.......................|.......................|.......................|.......................|.......................|.......................|.......................|.......................|.......................|
.......................|.......................|.......................|.......................|.......................|.......................|.......................|.......................|.......................|.......................|
.......................|.......................|.......................|.......................|.......................|.......................|.......................|.......................|.......................|.......................|
.......................|.......................|.......................|.......................|.......................|.......................|.......................|.......................|.......................|.......................|
.......................|.......................|.......................|.......................|.......................|.......................|.......................|.......................|.......................|.......................|
.......................|.......................|C-0....................|.......................|.......................|.......................|.......................|.......................|.......................|.......................|
.......0452............|.......................|.......................|.......................|.......................|.......................|.......................|.......................|.......................|.......................|
.......................|.......................|.......................|.......................|.......................|.......................|.......................|.......................|.......................|.......................|
.......................|.......................|.......................|.......................|.......................|.......................|.......................|.......................|.......................|.......................|
C-0....................|.......................|.......................|.......................|C-0....................|.......................|.......................|.......................|.......................|.......................|
A#2....0400............|A#4....................|.......................|A#229..................|C-42D..................|C-4C0..................|A#3....................|.......................|.......................|.......................|
.......................|.......................|.......................|.......................|.......................|.......................|.......................|.......................|.......................|.......................|
.......................|.......................|.......................|.......................|.......................|.......................|.......................|.......................|.......................|.......................|
.......................|.......................|.......................|.......................|.......................|.......................|.......................|.......................|.......................|.......................|
.......................|.......................|.......................|.......................|.......................|.......................|.......................|.......................|.......................|.......................|
.......................|.......................|.......................|.......................|.......................|.......................|.......................|.......................|.......................|.......................|
.......................|.......................|.......................|.......................|.......................|.......................|.......................|.......................|.......................|.......................|
.......................|.......................|.......................|.......................|.......................|.......................|.......................|.......................|.......................|.......................|
.......................|.......................|A#4....................|.......................|.......................|.......................|.......................|.......................|.......................|.......................|
.......................|.......................|.......................|.......................|.......................|.......................|.......................|.......................|.......................|.......................|
.......................|.......................|.......................|.......................|.......................|.......................|.......................|.......................|.......................|.......................|
.......................|.......................|.......................|.......................|C-0....................|.......................|.......................|.......................|.......................|.......................|
.......................|.......................|.......................|.......................|C-42C..................|.......................|.......................|.......................|.......................|.......................|
.......................|.......................|.......................|.......................|.......................|.......................|.......................|.......................|.......................|.......................|
.......................|.......................|.......................|.......................|.......................|.......................|.......................|.......................|.......................|.......................|
.......................|.......................|.......................|.......................|.......................|.......................|.......................|.......................|.......................|.......................|
.......................|.......................|.......................|.......................|.......................|.......................|.......................|.......................|.......................|.......................|
.......................|.......................|.......................|.......................|.......................|.......................|.......................|.......................|.......................|.......................|
.......................|.......................|.......................|.......................|.......................|.......................|.......................|.......................|.......................|.......................|
.......................|.......................|.......................|.......................|.......................|.......................|.......................|.......................|.......................|.......................|
.......0452............|.......0452............|.......................|.......0452............|.......................|.......................|.......0452............|.......................|.......................|.......................|
.......................|.......................|.......................|.......................|.......................|.......................|.......................|.......................|.......................|.......................|
.......................|.......................|.......................|.......................|.......................|.......................|.......................|.......................|.......................|.......................|
.......................|.......................|.......................|.......................|C-0....................|.......................|.......................|.......................|.......................|.......................|
.......EAFF............|.......................|.......................|.......................|C-42D..................|C-4C0..................|.......................|C-0....................|.......................|.......................|
.......................|.......................|.......................|.......................|.......................|.......................|.......................|.......................|.......................|.......................|
.......................|.......................|.......................|.......................|.......................|.......................|.......................|.......................|.......................|.......................|
.......................|.......................|.......................|.......................|.......................|.......................|.......................|.......................|.......................|.......................|
.......................|.......................|.......0452............|.......................|.......................|.......................|.......................|.......................|.......................|.......................|
.......................|.......................|.......................|.......................|.......................|.......................|.......................|.......................|.......................|.......................|
.......................|.......................|.......................|.......................|.......................|.......................|.......................|.......................|.......................|.......................|
.......................|.......................|.......................|.......................|.......................|.......................|.......................|.......................|.......................|.......................|
.......................|.......................|.......................|.......................|.......................|.......................|.......................|.......................|.......................|.......................|
.......................|.......................|.......................|.......................|.......................|.......................|.......................|.......................|.......................|.......................|
.......................|.......................|.......................|.......................|.......................|.......................|.......................|.......................|.......................|.......................|
.......................|.......................|.......................|C-0....................|C-0....................|.......................|C-0....................|.......................|.......................|.......................|
.......................|.......................|.......................|F-42B..0400............|C-42C..................|.......................|C-4....0400............|.......................|.......................|.......................|
.......................|.......................|.......................|.......................|.......................|.......................|.......................|.......................|.......................|.......................|
.......................|.......................|.......................|.......................|.......................|.......................|.......................|.......................|.......................|.......................|
.......................|.......................|.......................|.......................|.......................|.......................|.......................|.......................|.......................|.......................|
.......................|.......................|.......................|.......................|.......................|.......................|.......................|.......................|.......................|.......................|
.......................|.......................|.......................|C-0....................|.......................|.......................|C-0....................|.......................|.......................|.......................|
.......................|.......................|.......................|D#4....................|.......................|.......................|D#4....................|.......................|.......................|.......................|
.......................|.......................|.......................|.......................|.......................|.......................|.......................|.......................|.......................|.......................|
.......................|.......................|.......................|.......................|.......................|.......................|.......................|.......................|.......................|.......................|
.......................|.......................|.......................|.......................|.......................|.......................|.......................|.......................|.......................|.......................|
.......................|.......................|.......................|.......................|.......................|.......................|.......................|.......................|.......................|.......................|
.......................|.......................|.......................|C-0....................|C-0....................|.......................|C-0....................|.......................|.......................|.......................|
.......................|.......................|.......................|C#4....................|C-42D..................|C-4C0..................|C#4....................|.......................|.......................|.......................|
.......................|.......................|.......................|.......................|.......................|.......................|.......................|.......................|.......................|.......................|
.......................|.......................|.......................|.......................|.......................|.......................|.......................|.......................|.......................|.......................|
.......................|.......................|.......................|.......................|.......................|.......................|.......................|.......................|.......................|.......................|
.......................|.......................|.......................|.......................|.......................|.......................|.......................|.......................|.......................|.......................|
.......................|.......................|.......................|C-0....................|.......................|.......................|C-0....................|.......................|.......................|.......................|
.......................|.......................|.......................|C-4....................|.......................|.......................|C-4....................|.......................|.......................|.......................|
.......................|.......................|.......................|.......................|.......................|.......................|.......................|.......................|.......................|.......................|
org.tildearrow.furnace - Pattern Data (219)
0
.......................|.......................|.......................|.......................|.......................|.......................|.......................|.......................|.......................|.......................|
.......................|.......................|.......................|.......................|.......................|.......................|.......................|.......................|.......................|.......................|
.......................|.......................|.......................|.......................|.......................|.......................|.......................|.......................|.......................|.......................|
.......................|C-0....................|.......................|C-0....................|C-0....................|.......................|C-0....................|.......................|.......................|.......................|
.......................|C-5....0400............|.......................|A#3....................|C-42C..................|.......................|A#3....................|.......................|.......................|.......................|
.......................|.......................|.......................|.......................|.......................|.......................|.......................|.......................|.......................|.......................|
.......................|.......................|.......................|.......................|.......................|.......................|.......................|.......................|.......................|.......................|
.......................|.......................|.......................|.......................|.......................|.......................|.......................|.......................|.......................|.......................|
.......................|.......................|.......................|.......................|.......................|.......................|.......................|.......................|.......................|.......................|
.......................|C-0....................|.......................|.......................|.......................|.......................|.......................|.......................|.......................|.......................|
.......................|D#5....................|.......................|.......................|.......................|.......................|.......................|.......................|.......................|.......................|
.......................|.......................|C-0....................|.......................|.......................|.......................|C-0....................|.......................|.......................|.......................|
.......................|.......................|C-5....0400............|.......................|.......................|.......................|C-0....................|.......................|.......................|.......................|
.......................|.......................|.......................|.......................|.......................|.......................|.......................|.......................|.......................|.......................|
.......................|.......................|.......................|.......................|.......................|.......................|.......................|.......................|.......................|.......................|
.......................|C-0....................|.......................|.......................|C-0....................|.......................|.......................|.......................|.......................|.......................|
.......................|C#5....................|.......................|.......................|C-42D..................|C-4C0..................|A#3....................|.......................|.......................|.......................|
.......................|.......................|C-0....................|.......................|.......................|.......................|.......................|.......................|.......................|.......................|
.......................|.......................|D#5....................|.......................|.......................|.......................|.......................|.......................|.......................|.......................|
.......................|.......................|.......................|.......................|.......................|.......................|.......................|.......................|.......................|.......................|
.......................|.......................|.......................|.......................|.......................|.......................|.......................|.......................|.......................|.......................|
.......................|C-0....................|.......................|.......................|.......................|.......................|.......................|.......................|.......................|.......................|
.......................|C-5....................|.......................|.......................|.......................|.......................|.......................|.......................|.......................|.......................|
.......................|.......................|C-0....................|.......................|.......................|.......................|C-0....................|.......................|.......................|.......................|
.......................|.......................|C#5....................|.......0452............|.......................|.......................|C-0....................|.......................|.......................|.......................|
.......................|.......................|.......................|.......................|.......................|.......................|.......................|.......................|.......................|.......................|
.......................|.......................|.......................|.......................|.......................|.......................|.......................|.......................|.......................|.......................|
.......................|C-0....................|.......................|C-0....................|C-0....................|.......................|.......................|.......................|.......................|.......................|
.......................|A#4....................|.......................|.......................|C-42C..................|.......................|.......................|.......................|.......................|.......................|
.......................|.......................|C-0....................|.......................|.......................|.......................|.......................|.......................|.......................|.......................|
.......................|.......................|C-5....................|.......................|.......................|.......................|.......................|.......................|.......................|.......................|
.......................|.......................|.......................|.......................|.......................|.......................|.......................|.......................|.......................|.......................|
.......................|.......................|.......................|.......................|.......................|.......................|.......................|.......................|.......................|.......................|
.......................|.......................|.......................|.......................|.......................|.......................|.......................|.......................|.......................|.......................|
.......................|.......................|.......................|.......................|.......................|.......................|.......................|.......................|.......................|.......................|
.......................|.......................|C-0....................|.......................|.......................|.......................|.......................|.......................|.......................|.......................|
.......................|.......................|A#4....................|.......................|.......................|.......................|.......................|.......................|.......................|.......................|
.......................|.......................|.......................|.......................|.......................|.......................|.......................|.......................|.......................|.......................|
.......................|.......................|.......................|.......................|.......................|.......................|.......................|.......................|.......................|.......................|
C-0....................|C-0....................|.......................|.......................|C-0....................|.......................|.......................|.......................|.......................|.......................|
A#2....EA000400........|C-0....................|.......................|A#229..0400............|C-42D..................|C-4C6..................|.......................|A#3....................|.......................|.......................|
.......................|.......................|.......................|.......................|.......................|.......................|.......................|.......................|.......................|.......................|
.......................|.......................|.......................|.......................|.......................|.......................|.......................|.......................|.......................|.......................|
.......................|.......................|.......................|.......................|.......................|.......................|.......................|.......................|.......................|.......................|
.......................|.......................|.......................|.......................|.......................|.......................|.......................|.......................|.......................|.......................|
.......................|.......................|.......................|.......................|.......................|.......................|.......................|.......................|.......................|.......................|
.......................|.......................|.......................|.......................|.......................|.......................|.......................|.......................|.......................|.......................|
.......................|.......................|C-0....................|.......................|.......................|.......................|.......................|.......................|.......................|.......................|
.......................|.......................|C-0....................|.......................|.......................|.......................|.......................|.......................|.......................|.......................|
.......................|.......................|.......................|.......................|.......................|.......................|.......................|.......................|.......................|.......................|
.......................|.......................|.......................|.......................|.......................|.......................|.......................|.......................|.......................|.......................|
.......................|C-0....................|.......................|C-0....................|C-0....................|.......................|.......................|.......................|.......................|.......................|
.......................|.......................|.......................|.......................|C-42C..................|.......................|.......................|.......................|.......................|.......................|
.......................|.......................|.......................|.......................|.......................|.......................|.......................|.......................|.......................|.......................|
.......................|.......................|.......................|.......................|.......................|.......................|.......................|.......................|.......................|.......................|
.......................|.......................|.......................|.......................|.......................|.......................|.......................|.......................|.......................|.......................|
.......................|.......................|.......................|.......................|.......................|.......................|.......................|.......................|.......................|.......................|
.......................|.......................|.......................|.......................|.......................|.......................|.......................|.......................|.......................|.......................|
.......................|.......................|.......................|.......................|.......................|.......................|.......................|.......................|.......................|.......................|
.......................|.......................|C-0....................|.......................|.......................|.......................|.......................|.......................|.......................|.......................|
.......0452............|.......................|.......................|.......................|.......................|.......................|.......................|.......0452............|.......................|.......................|
.......................|.......................|.......................|.......................|.......................|.......................|.......................|.......................|.......................|.......................|
.......................|.......................|.......................|.......................|.......................|.......................|.......................|.......................|.......................|.......................|
.......................|.......................|.......................|.......................|C-0....................|.......................|.......................|C-0....................|.......................|.......................|
.......................|A#4....................|.......................|A#2....................|C-42D..................|C-4C0..................|C-0....................|A#3....0400............|.......................|.......................|
.......................|.......................|.......................|.......................|.......................|.......................|.......................|.......................|.......................|.......................|
.......................|.......................|.......................|.......................|.......................|.......................|.......................|.......................|.......................|.......................|
.......................|.......................|.......................|.......................|.......................|.......................|.......................|.......................|.......................|.......................|
.......................|.......................|.......................|.......................|.......................|.......................|.......................|.......................|.......................|.......................|
.......................|.......................|.......................|.......................|.......................|.......................|.......................|.......................|.......................|.......................|
.......................|.......................|.......................|.......................|.......................|.......................|.......................|.......................|.......................|.......................|
.......................|.......................|.......................|.......................|.......................|.......................|.......................|.......................|.......................|.......................|
.......................|.......................|A#4....................|.......................|.......................|.......................|.......................|.......................|.......................|.......................|
.......................|.......................|.......................|.......................|.......................|.......................|.......................|.......................|.......................|.......................|
.......................|.......................|.......................|.......................|.......................|.......................|.......................|.......................|.......................|.......................|
.......................|.......................|.......................|.......................|C-0....................|.......................|.......................|C-0....................|.......................|.......................|
.......................|.......................|.......................|.......................|C-42C..................|.......................|.......................|C-4....................|.......................|.......................|
.......................|.......................|.......................|.......................|.......................|.......................|.......................|.......................|.......................|.......................|
.......................|.......................|.......................|.......................|.......................|.......................|.......................|.......................|.......................|.......................|
.......................|.......................|.......................|.......................|.......................|.......................|.......................|.......................|.......................|.......................|
.......................|.......................|.......................|.......................|.......................|.......................|.......................|.......................|.......................|.......................|
.......................|.......................|.......................|.......................|.......................|.......................|.......................|C-0....................|.......................|.......................|
.......................|.......................|.......................|.......................|.......................|.......................|.......................|D#4....................|.......................|.......................|
.......................|.......................|.......................|.......................|.......................|.......................|.......................|.......................|.......................|.......................|
.......................|.......0452............|.......................|.......0452............|.......................|.......................|.......................|.......................|.......................|.......................|
.......................|.......................|.......................|.......................|.......................|.......................|.......................|.......................|.......................|.......................|
.......................|.......................|.......................|.......................|.......................|.......................|.......................|.......................|.......................|.......................|
C-0....................|.......................|.......................|.......................|C-0....................|.......................|.......................|C-0....................|.......................|.......................|
A#2....0400............|.......................|.......................|.......................|C-42D..................|C-4C0..................|.......................|C#4....................|.......................|.......................|
.......................|.......................|.......................|.......................|.......................|.......................|.......................|.......................|.......................|.......................|
.......................|.......................|.......................|.......................|.......................|.......................|.......................|.......................|.......................|.......................|
.......................|.......................|.......................|.......................|.......................|.......................|.......................|.......................|.......................|.......................|
.......................|.......................|.......0452............|.......................|.......................|.......................|.......................|.......................|.......................|.......................|
.......................|.......................|.......................|.......................|.......................|.......................|.......................|C-0....................|.......................|.......................|
.......................|.......................|.......................|.......................|.......................|.......................|.......................|C-4....................|.......................|.......................|
.......................|.......................|.......................|.......................|.......................|.......................|.......................|.......................|.......................|.......................|
.......................|.......................|.......................|.......................|.......................|.......................|.......................|.......................|.......................|.......................|
.......................|.......................|.......................|.......................|.......................|.......................|.......................|.......................|.......................|.......................|
.......................|.......................|.......................|.......................|.......................|.......................|.......................|.......................|.......................|.......................|
.......................|.......................|.......................|C-0....................|C-0....................|.......................|.......................|C-0....................|.......................|.......................|
.......................|.......................|.......................|F-42B..0400............|C-42C..................|.......................|.......................|A#3....................|.......................|.......................|
.......................|.......................|.......................|.......................|.......................|.......................|.......................|.......................|.......................|.......................|
.......................|.......................|.......................|.......................|.......................|.......................|.......................|.......................|.......................|.......................|
.......................|.......................|.......................|.......................|.......................|.......................|.......................|.......................|.......................|.......................|
.......................|.......................|.......................|.......................|.......................|.......................|.......................|.......................|.......................|.......................|
.......................|.......................|.......................|C-0....................|.......................|.......................|.......................|.......................|.......................|.......................|
.......................|.......................|.......................|D#4....................|.......................|.......................|.......................|.......................|.......................|.......................|
.......................|.......................|.......................|.......................|.......................|.......................|.......................|.......................|.......................|.......................|
.......0452............|.......................|.......................|.......................|.......................|.......................|.......................|.......................|.......................|.......................|
.......................|.......................|.......................|.......................|.......................|.......................|.......................|.......................|.......................|.......................|
.......................|.......................|.......................|.......................|.......................|.......................|.......................|.......................|.......................|.......................|
.......................|.......................|.......................|C-0....................|C-0....................|.......................|.......................|C-0....................|.......................|.......................|
.......................|.......................|.......................|C#4....................|C-42D..................|C-4C0..................|.......................|A#3....................|.......................|.......................|
.......................|.......................|.......................|.......................|.......................|.......................|.......................|.......................|.......................|.......................|
.......................|.......................|.......................|.......................|.......................|.......................|.......................|.......................|.......................|.......................|
.......................|.......................|.......................|.......................|.......................|.......................|.......................|.......................|.......................|.......................|
.......................|.......................|.......................|.......................|.......................|.......................|.......................|.......................|.......................|.......................|
.......................|.......................|.......................|C-0....................|.......................|.......................|.......................|.......................|.......................|.......................|
.......................|.......................|.......................|C-4....................|.......................|.......................|.......................|.......................|.......................|.......................|
.......................|.......................|.......................|.......................|.......................|.......................|.......................|.......................|.......................|.......................|
.......................|.......................|.......................|.......................|.......................|.......................|.......................|.......................|.......................|.......................|
.......................|.......................|.......................|.......................|.......................|.......................|.......................|.......................|.......................|.......................|
.......................|.......................|.......................|.......................|.......................|.......................|.......................|.......................|.......................|.......................|
.......................|C-0....................|.......................|C-0....................|C-0....................|.......................|.......................|C-0....................|.......................|.......................|
.......................|C-5....0400............|.......................|A#3....................|C-42C..................|.......................|.......................|C-0....................|.......................|.......................|
.......................|.......................|.......................|.......................|.......................|.......................|.......................|.......................|.......................|.......................|
.......................|.......................|.......................|.......................|.......................|.......................|.......................|.......................|.......................|.......................|
.......................|.......................|.......................|.......................|.......................|.......................|.......................|.......................|.......................|.......................|
.......................|.......................|.......................|.......................|.......................|.......................|.......................|.......................|.......................|.......................|
.......................|C-0....................|.......................|.......................|.......................|.......................|.......................|.......................|.......................|.......................|
.......................|D#5....................|.......................|.......................|.......................|.......................|.......................|.......................|.......................|.......................|
.......................|.......................|C-0....................|.......................|.......................|.......................|.......................|.......................|.......................|.......................|
.......................|.......................|C-5....0400............|.......................|.......................|.......................|.......................|.......................|.......................|.......................|
.......................|.......................|.......................|.......................|.......................|.......................|.......................|.......................|.......................|.......................|
.......................|.......................|.......................|.......................|.......................|.......................|.......................|.......................|.......................|.......................|
C-0....................|C-0....................|.......................|.......................|C-0....................|.......................|.......................|.......................|.......................|.......................|
A#2....0400............|C#5....................|.......................|.......................|C-42D..................|C-4C6..................|A#1..0B................|A#3....................|.......................|.......................|
.......................|.......................|C-0....................|.......................|.......................|.......................|.......................|.......................|.......................|.......................|
.......................|.......................|D#5....................|.......................|.......................|.......................|.......................|.......................|.......................|.......................|
.......................|.......................|.......................|.......................|.......................|.......................|.......................|.......................|.......................|.......................|
.......................|.......................|.......................|.......................|.......................|.......................|.......................|.......................|.......................|.......................|
.......................|C-0....................|.......................|.......................|.......................|.......................|.......................|.......................|.......................|.......................|
.......................|C-5....................|.......................|.......................|.......................|.......................|.......................|.......................|.......................|.......................|
.......................|.......................|C-0....................|.......................|.......................|.......................|.......................|.......................|.......................|.......................|
.......................|.......................|C#5....................|.......0452............|.......................|.......................|.......................|.......................|.......................|.......................|
.......................|.......................|.......................|.......................|.......................|.......................|.......................|.......................|.......................|.......................|
.......................|.......................|.......................|.......................|.......................|.......................|.......................|.......................|.......................|.......................|
.......................|C-0....................|.......................|C-0....................|C-0....................|.......................|.......................|.......................|.......................|.......................|
.......................|A#4....................|.......................|.......................|C-42C..................|.......................|.......................|.......................|.......................|.......................|
.......................|.......................|C-0....................|.......................|.......................|.......................|.......................|.......................|.......................|.......................|
.......................|.......................|C-5....................|.......................|.......................|.......................|.......................|.......................|.......................|.......................|
.......................|.......................|.......................|.......................|.......................|.......................|.......................|.......................|.......................|.......................|
.......................|.......................|.......................|.......................|.......................|.......................|.......................|.......................|.......................|.......................|
.......................|.......................|.......................|.......................|.......................|.......................|.......................|.......................|.......................|.......................|
.......................|.......................|.......................|.......................|.......................|.......................|.......................|.......................|.......................|.......................|
.......................|.......................|C-0....................|.......................|.......................|.......................|.......................|.......................|.......................|.......................|
.......0452............|.......................|A#4....................|.......................|.......................|.......................|.......0452............|.......0452............|.......................|.......................|
.......................|.......................|.......................|.......................|.......................|.......................|.......................|.......................|.......................|.......................|
.......................|.......................|.......................|.......................|.......................|.......................|.......................|.......................|.......................|.......................|
C-0....................|C-0....................|.......................|.......................|C-0....................|.......................|C-0....................|C-0....................|.......................|.......................|
C#3....0400............|G#4....................|.......................|.......................|C-42D..................|C-4C0..................|G#2....0400............|C#3....0400............|.......................|.......................|
.......................|.......................|.......................|.......................|.......................|.......................|.......................|.......................|.......................|.......................|
.......................|.......................|.......................|.......................|.......................|.......................|.......................|.......................|.......................|.......................|
.......................|.......................|.......................|.......................|.......................|.......................|.......................|.......................|.......................|.......................|
.......................|.......................|.......................|.......................|.......................|.......................|.......................|.......................|.......................|.......................|
.......................|C-0....................|.......................|.......................|.......................|.......................|.......................|.......................|.......................|.......................|
.......................|C#5....................|.......................|.......................|.......................|.......................|.......................|.......................|.......................|.......................|
.......................|.......................|C-0....................|.......................|.......................|.......................|.......................|.......................|.......................|.......................|
.......................|.......................|G#4....................|.......................|.......................|.......................|.......................|.......................|.......................|.......................|
.......................|.......................|.......................|.......................|.......................|.......................|.......................|.......................|.......................|.......................|
.......................|.......................|.......................|.......................|.......................|.......................|.......................|.......................|.......................|.......................|
C-0....................|C-0....................|.......................|.......................|C-0....................|.......................|.......................|.......................|.......................|.......................|
C#3....................|F-5....................|.......................|.......................|C-42C..................|.......................|.......................|.......................|.......................|.......................|
.......................|.......................|C-0....................|.......................|.......................|.......................|.......................|.......................|.......................|.......................|
.......................|.......................|C#5....................|.......................|.......................|.......................|.......................|.......................|.......................|.......................|
.......................|.......................|.......................|.......................|.......................|.......................|.......................|.......................|.......................|.......................|
.......................|.......................|.......................|.......................|.......................|.......................|.......................|.......................|.......................|.......................|
.......................|C-0....................|.......................|.......................|.......................|.......................|.......................|.......................|.......................|.......................|
.......................|C-0....................|.......................|.......................|.......................|.......................|.......................|.......................|.......................|.......................|
.......................|.......................|C-0....................|.......................|.......................|.......................|.......................|.......................|.......................|.......................|
.......................|.......................|F-5....................|.......................|.......................|.......................|.......0452............|.......0452............|.......................|.......................|
.......................|.......................|.......................|.......................|.......................|.......................|.......................|.......................|.......................|.......................|
.......................|.......................|.......................|.......................|.......................|.......................|.......................|.......................|.......................|.......................|
C-0....................|C-0....................|.......................|.......................|C-0....................|.......................|.......................|.......................|.......................|.......................|
C#3....................|F#5....................|.......................|.......................|C-42D..................|C-4C0..................|.......................|.......................|.......................|.......................|
.......................|.......................|C-0....................|.......................|.......................|.......................|.......................|.......................|.......................|.......................|
.......................|.......................|C-0....................|.......................|.......................|.......................|.......................|.......................|.......................|.......................|
.......................|.......................|.......................|.......................|.......................|.......................|.......................|.......................|.......................|.......................|
.......................|.......................|.......................|.......................|.......................|.......................|.......................|.......................|.......................|.......................|
.......................|.......................|.......................|.......................|.......................|.......................|.......................|.......................|.......................|.......................|
.......................|.......................|.......................|.......................|.......................|.......................|.......................|.......................|.......................|.......................|
.......................|.......................|C-0....................|.......................|.......................|.......................|.......................|.......................|.......................|.......................|
.......................|.......................|C#4....................|.......................|.......................|.......................|.......................|.......................|.......................|.......................|
.......................|.......................|.......................|.......................|.......................|.......................|.......................|.......................|.......................|.......................|
.......................|.......................|.......................|.......................|.......................|.......................|.......................|.......................|.......................|.......................|
C-0....................|.......................|.......................|.......................|C-0....................|.......................|.......................|.......................|.......................|.......................|
C#3....................|.......................|.......................|.......................|C-42C..................|.......................|.......................|.......................|.......................|.......................|
.......................|.......................|C-0....................|.......................|.......................|.......................|.......................|.......................|.......................|.......................|
.......................|.......................|F-4....................|.......................|.......................|.......................|.......................|.......................|.......................|.......................|
.......................|.......................|.......................|.......................|.......................|.......................|.......................|.......................|.......................|.......................|
.......................|.......................|.......................|.......................|.......................|.......................|.......................|.......................|.......................|.......................|
.......................|.......................|.......................|.......................|.......................|.......................|.......................|.......................|.......................|.......................|
.......................|.......................|.......................|.......................|.......................|.......................|.......................|.......................|.......................|.......................|
.......................|.......................|C-0....................|.......................|.......................|.......................|.......................|.......................|.......................|.......................|
.......................|.......0452............|G#4....................|.......................|.......................|.......................|.......................|.......................|.......................|.......................|
.......................|.......................|.......................|.......................|.......................|.......................|.......................|.......................|.......................|.......................|
.......................|.......................|.......................|.......................|.......................|.......................|.......................|.......................|.......................|.......................|
C-0....................|.......................|.......................|.......................|C-0....................|.......................|C-0....................|C-0....................|.......................|.......................|
F#2....................|.......................|.......................|.......................|C-42D..................|C-4C0..................|C#2....0400............|F#2....0400............|.......................|.......................|
.......................|.......................|C-0....................|.......................|.......................|.......................|.......................|.......................|.......................|.......................|
.......................|.......................|C#5....................|.......................|.......................|.......................|.......................|.......................|.......................|.......................|
.......................|.......................|.......................|.......................|.......................|.......................|.......................|.......................|.......................|.......................|
.......................|.......................|.......................|.......................|.......................|.......................|.......................|.......................|.......................|.......................|
.......................|.......................|.......................|.......................|.......................|.......................|C-0....................|C-0....................|.......................|.......................|
.......................|.......................|.......................|.......................|.......................|.......................|F#2....................|A#2....................|.......................|.......................|
.......................|.......................|C-0....................|.......................|.......................|.......................|.......................|.......................|.......................|.......................|
.......................|.......................|D#5....................|.......................|.......................|.......................|.......................|.......................|.......................|.......................|
.......................|.......................|.......................|.......................|.......................|.......................|.......................|.......................|.......................|.......................|
.......................|.......................|.......................|.......................|.......................|.......................|.......................|.......................|.......................|.......................|
C-0....................|.......................|.......................|.......................|C-0....................|.......................|C-0....................|C-0....................|.......................|.......................|
F#2....................|.......................|.......................|.......................|C-42C..................|.......................|A#2....................|C#3....................|.......................|.......................|
.......................|.......................|.......................|.......................|.......................|.......................|.......................|.......................|.......................|.......................|
.......................|.......................|.......................|.......................|.......................|.......................|.......................|.......................|.......................|.......................|
.......................|.......................|.......................|.......................|.......................|.......................|.......................|.......................|.......................|.......................|
.......................|.......................|.......................|.......................|.......................|.......................|.......................|.......................|.......................|.......................|
.......................|.......................|.......................|.......................|.......................|.......................|C-0....................|C-0....................|.......................|.......................|
.......................|.......................|.......................|.......................|.......................|.......................|C#3....................|F#3....................|.......................|.......................|
.......................|.......................|.......................|.......................|.......................|.......................|.......................|.......................|.......................|.......................|
.......................|.......................|.......................|.......................|.......................|.......................|.......................|.......................|.......................|.......................|
.......................|.......................|.......................|.......................|.......................|.......................|.......................|.......................|.......................|.......................|
.......................|.......................|.......................|.......................|.......................|.......................|.......................|.......................|.......................|.......................|
C-0....................|.......................|.......................|.......................|C-0....................|.......................|C-0....................|C-0....................|.......................|.......................|
F#2....................|.......................|.......................|.......................|C-42D..................|C-4C6..................|F#3....................|A#3....................|.......................|.......................|
.......................|.......................|.......................|.......................|.......................|.......................|.......................|.......................|.......................|.......................|
.......................|.......................|.......................|.......................|.......................|.......................|.......................|.......................|.......................|.......................|
.......................|.......................|.......................|.......................|.......................|.......................|.......................|.......................|.......................|.......................|
.......................|.......................|.......0452............|.......................|.......................|.......................|.......................|.......................|.......................|.......................|
.......................|.......................|.......................|.......................|.......................|.......................|.......................|.......................|.......................|.......................|
.......................|.......................|.......................|.......................|.......................|.......................|.......................|.......................|.......................|.......................|
.......................|.......................|.......................|.......................|.......................|.......................|.......................|.......................|.......................|.......................|
.......................|.......................|.......................|.......................|.......................|.......................|.......................|.......................|.......................|.......................|
.......................|.......................|.......................|.......................|.......................|.......................|.......................|.......................|.......................|.......................|
.......................|.......................|.......................|.......................|.......................|.......................|.......................|.......................|.......................|.......................|
C-0....................|C-0....................|.......................|.......................|C-0....................|.......................|C-0....................|C-0....................|.......................|.......................|
F#2....................|F-5....0400............|.......................|A#320630400............|F-3205F8080............|.......................|F-3....................|G#3....................|.......................|.......................|
.......................|.......................|.......................|.......................|.......................|.......................|.......................|.......................|.......................|.......................|
.......................|.......................|.......................|.......................|.......................|.......................|.......................|.......................|.......................|.......................|
.......................|.......................|.......................|.......................|.......................|.......................|.......................|.......................|.......................|.......................|
.......................|.......................|.......................|.......................|.......................|.......................|.......................|.......................|.......................|.......................|
.......................|C-0....................|.......................|C-0....................|C-0....................|.......................|C-0....................|C-0....................|.......................|.......................|
.......................|D#5....................|.......................|.......................|.......................|.......................|D#3....................|F#3....................|.......................|.......................|
.......................|.......................|C-0....................|.......................|.......................|.......................|.......................|.......................|.......................|.......................|
.......................|.......................|F-5....0400............|.......................|.......................|.......................|.......................|.......................|.......................|.......................|
.......................|.......................|.......................|.......................|.......................|.......................|.......................|.......................|.......................|.......................|
.......................|.......................|.......................|.......................|.......................|.......................|.......................|.......................|.......................|.......................|
C-0....................|C-0....................|C-0....................|.......................|.......................|.......................|C-0....................|C-0....................|.......................|.......................|
org.tildearrow.furnace - Pattern Data (219)
0
A#2....................|C-0..6B................|F-5....................|F-4....................|A#3....................|C-4C2..................|F-2....................|C#2....................|.......................|.......................|
.......................|.......................|.......................|.......................|.......................|.......................|.......................|.......................|.......................|.......................|
.......................|.......................|.......................|.......................|.......................|.......................|.......................|.......................|.......................|.......................|
.......................|.......................|.......................|.......................|.......................|.......................|.......................|.......................|.......................|.......................|
.......................|.......................|.......................|.......................|.......................|.......................|.......................|.......................|.......................|.......................|
.......................|.......................|.......................|.......................|.......................|.......................|.......................|.......................|.......................|.......................|
.......................|.......................|.......................|.......................|.......................|.......................|.......................|.......................|.......................|.......................|
.......................|.......................|.......................|.......................|.......................|.......................|.......................|.......................|.......................|.......................|
.......................|.......................|.......................|.......................|.......................|.......................|.......................|.......................|.......................|.......................|
.......................|.......................|.......................|.......................|.......................|.......................|.......................|.......................|.......................|.......................|
.......................|.......................|.......................|.......................|.......................|.......................|.......................|.......................|.......................|.......................|
C-0....................|.......................|.......................|.......................|.......................|.......................|.......................|.......................|.......................|.......................|
A#2....................|.......................|.......................|.......................|.......................|C-4C2..................|.......................|.......................|.......................|.......................|
.......................|.......................|.......................|.......................|.......................|.......................|.......................|.......................|.......................|.......................|
.......................|.......................|.......................|.......................|.......................|.......................|.......................|.......................|.......................|.......................|
.......................|.......................|.......................|.......................|.......................|.......................|.......................|.......................|.......................|.......................|
.......................|.......................|.......................|.......................|.......................|.......................|.......................|.......................|.......................|.......................|
.......................|.......................|.......................|.......................|.......................|.......................|.......................|.......................|.......................|.......................|
.......................|.......................|.......................|.......................|.......................|C-4C2..................|.......................|.......................|.......................|.......................|
.......................|.......................|.......................|.......................|.......................|.......................|C-0....................|C-0....................|.......................|.......................|
.......................|.......0452............|.......0452............|.......0452............|.......0452............|.......................|C-0....................|C-0....................|.......................|.......................|
.......................|.......................|.......................|.......................|.......................|.......................|.......................|.......................|.......................|.......................|
.......................|.......................|.......................|.......................|.......................|.......................|.......................|.......................|.......................|.......................|
C-0....................|.......................|.......................|C-0....................|C-0....................|.......................|.......................|.......................|.......................|.......................|
A#2....................|.......................|.......................|C#4....0400............|F-3....0400............|C-4C3..................|C#2....................|G#1....................|.......................|.......................|
.......................|.......................|.......................|.......................|.......................|.......................|.......................|.......................|.......................|.......................|
.......................|.......................|.......................|.......................|.......................|.......................|.......................|.......................|.......................|.......................|
.......................|.......................|.......................|.......................|.......................|.......................|.......................|.......................|.......................|.......................|
.......................|.......................|.......................|.......................|.......................|.......................|.......................|.......................|.......................|.......................|
.......................|.......................|.......................|.......................|.......................|.......................|.......................|.......................|.......................|.......................|
.......................|.......................|.......................|.......................|.......................|.......................|.......................|.......................|.......................|.......................|
.......................|.......................|.......................|.......................|.......................|.......................|.......................|.......................|.......................|.......................|
.......................|.......................|.......................|.......................|.......................|.......................|.......................|.......................|.......................|.......................|
.......................|.......................|.......................|.......................|.......................|.......................|.......................|.......................|.......................|.......................|
.......................|.......................|.......................|.......................|.......................|.......................|.......................|.......................|.......................|.......................|
C-0....................|.......................|.......................|.......................|.......................|.......................|.......................|.......................|.......................|.......................|
A#2....................|.......................|.......................|.......................|.......................|C-4C3..................|.......................|.......................|.......................|.......................|
.......................|.......................|.......................|.......................|.......................|.......................|.......................|.......................|.......................|.......................|
.......................|.......................|.......................|.......................|.......................|.......................|.......................|.......................|.......................|.......................|
.......................|.......................|.......................|.......................|.......................|.......................|.......................|.......................|.......................|.......................|
.......................|.......................|.......................|.......................|.......................|.......................|.......................|.......................|.......................|.......................|
.......................|.......................|.......................|.......................|.......................|.......................|.......................|.......................|.......................|.......................|
.......................|.......................|.......................|.......................|.......................|C-4C3..................|.......................|.......................|.......................|.......................|
.......................|.......................|.......................|.......................|.......................|.......................|C-0....................|C-0....................|.......................|.......................|
.......................|.......................|.......................|.......0452............|.......0452............|.......................|C-0....................|C-0....................|.......................|.......................|
.......................|.......................|.......................|.......................|.......................|.......................|.......................|.......................|.......................|.......................|
.......................|.......................|.......................|.......................|.......................|.......................|.......................|.......................|.......................|.......................|
C-0....................|C-0....................|C-0....................|C-0....................|C-0....................|.......................|.......................|.......................|.......................|.......................|
A#2....................|C-0....0400............|F-5....0400............|G#4....0400............|C#4....0400............|.......................|G#2....................|F-2....................|.......................|.......................|
.......................|.......................|.......................|.......................|.......................|.......................|.......................|.......................|.......................|.......................|
.......................|.......................|.......................|.......................|.......................|.......................|.......................|.......................|.......................|.......................|
.......................|.......................|.......................|.......................|.......................|.......................|.......................|.......................|.......................|.......................|
.......................|.......................|.......................|.......................|.......................|.......................|.......................|.......................|.......................|.......................|
.......................|.......................|.......................|.......................|.......................|.......................|.......................|.......................|.......................|.......................|
.......................|.......................|.......................|.......................|.......................|C-4C4..................|.......................|.......................|.......................|.......................|
.......................|.......................|.......................|.......................|.......................|.......................|.......................|.......................|.......................|.......................|
.......................|.......................|.......................|.......................|.......................|.......................|.......................|.......................|.......................|.......................|
.......................|.......................|.......................|.......................|.......................|.......................|.......................|.......................|.......................|.......................|
.......................|.......................|.......................|.......................|.......................|.......................|.......................|.......................|.......................|.......................|
C-0....................|.......................|.......................|.......................|.......................|.......................|.......................|.......................|.......................|.......................|
A#2....................|.......................|.......................|.......................|.......................|C-4C4..................|.......................|.......................|.......................|.......................|
.......................|.......................|.......................|.......................|.......................|.......................|.......................|.......................|.......................|.......................|
.......................|.......................|.......................|.......................|.......................|.......................|.......................|.......................|.......................|.......................|
.......................|.......................|.......................|.......................|.......................|.......................|.......................|.......................|.......................|.......................|
.......................|.......................|.......................|.......................|.......................|.......................|.......................|.......................|.......................|.......................|
.......................|.......................|.......................|.......................|.......................|.......................|.......................|.......................|.......................|.......................|
.......................|.......................|.......................|.......................|.......................|C-4C4..................|.......................|.......................|.......................|.......................|
.......................|.......................|.......................|.......................|.......................|.......................|C-0....................|C-0....................|.......................|.......................|
.......................|.......0452............|.......0452............|.......0452............|.......0452............|.......................|C-0....................|C-0....................|.......................|.......................|
.......................|.......................|.......................|.......................|.......................|.......................|.......................|.......................|.......................|.......................|
.......................|.......................|.......................|.......................|.......................|.......................|.......................|.......................|.......................|.......................|
C-0....................|.......................|.......................|C-0....................|C-0....................|.......................|.......................|.......................|.......................|.......................|
A#2....................|.......................|.......................|F-4....0400............|A#3....0400............|C-4C7..................|F-2....................|C#2....................|.......................|.......................|
.......................|.......................|.......................|.......................|.......................|.......................|.......................|.......................|.......................|.......................|
.......................|.......................|.......................|.......................|.......................|.......................|.......................|.......................|.......................|.......................|
.......................|.......................|.......................|.......................|.......................|.......................|.......................|.......................|.......................|.......................|
.......................|.......................|.......................|.......................|.......................|.......................|.......................|.......................|.......................|.......................|
.......................|.......................|.......................|C-0....................|C-0....................|.......................|C-0....................|C-0....................|.......................|.......................|
.......................|.......................|.......................|.......................|.......................|C-4C7..................|C-0....................|C-0....................|.......................|.......................|
.......................|.......................|.......................|.......................|.......................|.......................|.......................|.......................|.......................|.......................|
.......................|.......................|.......................|.......................|.......................|.......................|.......................|.......................|.......................|.......................|
.......................|.......................|.......................|.......................|.......................|.......................|.......................|.......................|.......................|.......................|
.......................|.......................|.......................|.......................|.......................|.......................|.......................|.......................|.......................|.......................|
C-0....................|.......................|.......................|.......................|.......................|.......................|.......................|.......................|.......................|.......................|
A#2....................|.......................|.......................|C-5....................|F-4....................|C-4C7..................|C-3....................|A-2....................|.......................|.......................|
.......................|.......................|.......................|.......................|.......................|.......................|.......................|.......................|.......................|.......................|
.......................|.......................|.......................|.......................|.......................|.......................|.......................|.......................|.......................|.......................|
.......................|.......................|.......................|.......................|.......................|.......................|.......................|.......................|.......................|.......................|
.......................|.......................|.......................|.......................|.......................|.......................|.......................|.......................|.......................|.......................|
.......................|.......................|.......................|.......................|.......................|.......................|.......................|.......................|.......................|.......................|
.......................|.......................|.......................|.......................|.......................|C-4C7..................|.......................|.......................|.......................|.......................|
.......................|.......................|.......................|.......................|.......................|.......................|.......................|.......................|.......................|.......................|
.......................|.......................|.......................|.......................|.......................|.......................|.......................|.......................|.......................|.......................|
.......................|.......................|.......................|.......................|.......................|.......................|.......................|.......................|.......................|.......................|
.......................|.......................|.......................|.......................|.......................|.......................|.......................|.......................|.......................|.......................|
C-0....................|C-0....................|C-0....................|.......................|.......................|.......................|.......................|.......................|.......................|.......................|
F-2....................|C-0....0400............|F-5....0400............|.......................|.......................|C-4C6..................|.......................|.......................|.......................|.......................|
.......................|.......................|.......................|.......................|.......................|.......................|.......................|.......................|.......................|.......................|
.......................|.......................|.......................|.......................|.......................|.......................|.......................|.......................|.......................|.......................|
.......................|.......................|.......................|.......................|.......................|.......................|.......................|.......................|.......................|.......................|
.......................|.......................|.......................|.......................|.......................|.......................|.......................|.......................|.......................|.......................|
.......................|.......................|.......................|C-0....................|C-0....................|.......................|C-0....................|C-0....................|.......................|.......................|
.......................|.......................|.......................|.......................|.......................|.......................|C-0....................|C-0....................|.......................|.......................|
.......................|.......................|.......................|.......................|.......................|.......................|.......................|.......................|.......................|.......................|
.......................|.......................|.......................|.......................|.......................|.......................|.......................|.......................|.......................|.......................|
.......................|.......................|.......................|.......................|.......................|.......................|.......................|.......................|.......................|.......................|
.......................|.......................|.......................|.......................|.......................|.......................|.......................|.......................|.......................|.......................|
C-0....................|.......................|.......................|.......................|.......................|.......................|.......................|.......................|.......................|.......................|
F-2....................|.......................|.......................|A-4....................|C-4....................|C-4C7..................|A-2....................|F-2....................|.......................|.......................|
.......................|.......................|.......................|.......................|.......................|.......................|.......................|.......................|.......................|.......................|
.......................|.......................|.......................|.......................|.......................|.......................|.......................|.......................|.......................|.......................|
.......................|.......................|.......................|.......................|.......................|.......................|.......................|.......................|.......................|.......................|
.......................|.......................|.......................|.......................|.......................|.......................|.......................|.......................|.......................|.......................|
.......................|.......................|.......................|C-0....................|C-0....................|.......................|C-0....................|C-0....................|.......................|.......................|
.......................|.......................|.......................|.......................|.......................|C-4C7..................|C-0....................|C-0....................|.......................|.......................|
.......................|.......................|.......................|.......................|.......................|.......................|.......................|.......................|.......................|.......................|
.......................|.......0452............|.......0452............|.......................|.......................|.......................|.......................|.......................|.......................|.......................|
.......................|.......................|.......................|.......................|.......................|.......................|.......................|.......................|.......................|.......................|
.......................|.......................|.......................|.......................|.......................|.......................|.......................|.......................|.......................|.......................|
C-0....................|.......................|.......................|.......................|.......................|.......................|.......................|.......................|.......................|.......................|
F-2....................|.......................|.......................|F-5....................|A-4....................|C-4C6..................|F-3....................|C-3....................|.......................|.......................|
.......................|.......................|.......................|.......................|.......................|.......................|.......................|.......................|.......................|.......................|
.......................|.......................|.......................|.......................|.......................|.......................|.......................|.......................|.......................|.......................|
.......................|.......................|.......................|.......................|.......................|.......................|.......................|.......................|.......................|.......................|
.......................|.......................|.......................|.......................|.......................|.......................|.......................|.......................|.......................|.......................|
.......................|.......................|.......................|.......................|.......................|.......................|.......................|.......................|.......................|.......................|
.......................|.......................|.......................|.......................|.......................|.......................|.......................|.......................|.......................|.......................|
.......................|.......................|.......................|.......................|.......................|.......................|.......................|.......................|.......................|.......................|
.......................|.......................|.......................|.......................|.......................|.......................|.......................|.......................|.......................|.......................|
.......................|.......................|.......................|.......................|.......................|.......................|.......................|.......................|.......................|.......................|
.......................|.......................|.......................|.......................|.......................|.......................|.......................|.......................|.......................|.......................|
C-0....................|.......................|.......................|.......................|C-0....................|.......................|.......................|.......................|.......................|.......................|
F-2....................|.......................|.......................|.......................|F-32E74................|C-4C6..................|.......................|.......................|.......................|.......................|
.......................|.......................|.......................|.......................|.......................|.......................|.......................|.......................|.......................|.......................|
.......................|.......................|.......................|.......................|.......................|.......................|.......................|.......................|.......................|.......................|
.......................|.......................|.......................|.......................|.......................|.......................|.......................|.......................|.......................|.......................|
.......................|.......................|.......................|.......................|.......................|.......................|.......................|.......................|.......................|.......................|
.......................|.......................|.......................|.......................|.......................|.......................|.......................|.......................|.......................|.......................|
.......................|.......................|.......................|.......................|.......................|C-4C7..................|.......................|.......................|.......................|.......................|
.......................|.......................|.......................|.......................|.......................|.......................|.......................|.......................|.......................|.......................|
.......................|.......................|.......................|.......0452............|.......................|.......................|.......0452............|.......0452............|.......................|.......................|
.......................|.......................|.......................|.......................|.......................|.......................|.......................|.......................|.......................|.......................|
.......................|.......................|.......................|.......................|.......................|.......................|.......................|.......................|.......................|.......................|
C-0....................|.......................|.......................|.......................|C-0....................|.......................|.......................|.......................|.......................|.......................|
F-2....................|.......................|.......................|.......................|F-3....................|C-4C9..................|.......................|.......................|.......................|.......................|
.......................|.......................|.......................|.......................|.......................|.......................|.......................|.......................|.......................|.......................|
.......................|.......................|.......................|.......................|.......................|.......................|.......................|.......................|.......................|.......................|
.......................|.......................|.......................|.......................|.......................|.......................|.......................|.......................|.......................|.......................|
.......................|.......................|.......................|.......................|.......................|.......................|.......................|.......................|.......................|.......................|
.......................|.......................|.......................|.......................|C-0....................|.......................|.......................|.......................|.......................|.......................|
.......................|.......................|.......................|.......................|F-3....................|C-4C9..................|.......................|.......................|.......................|.......................|
.......................|.......................|.......................|.......................|.......................|.......................|.......................|.......................|.......................|.......................|
.......................|.......................|.......................|.......................|.......................|.......................|.......................|.......................|.......................|.......................|
.......................|.......................|.......................|.......................|.......................|.......................|.......................|.......................|.......................|.......................|
.......................|.......................|.......................|.......................|.......................|.......................|.......................|.......................|.......................|.......................|
C-0....................|.......................|.......................|.......................|C-0....................|.......................|.......................|.......................|.......................|.......................|
F-2....................|.......................|.......................|.......................|F-3....................|C-4C9..................|.......................|.......................|.......................|.......................|
.......................|.......................|.......................|.......................|.......................|.......................|.......................|.......................|.......................|.......................|
.......................|.......................|.......................|.......................|.......................|.......................|.......................|.......................|.......................|.......................|
.......................|.......................|.......................|.......................|.......................|.......................|.......................|.......................|.......................|.......................|
.......................|.......................|.......................|.......................|.......................|.......................|.......................|.......................|.......................|.......................|
.......................|.......................|.......................|.......................|.......................|.......................|.......................|.......................|.......................|.......................|
.......................|.......................|.......................|.......................|.......................|.......................|.......................|.......................|.......................|.......................|
.......................|.......................|.......................|.......................|.......................|.......................|.......................|.......................|.......................|.......................|
.......................|.......................|.......................|.......................|.......................|.......................|.......................|.......................|.......................|.......................|
.......................|.......................|.......................|.......................|.......................|.......................|.......................|.......................|.......................|.......................|
.......................|.......................|.......................|.......................|.......................|.......................|.......................|.......................|.......................|.......................|
C-0....................|C-0....................|C-0....................|C-0....................|C-0....................|.......................|C-0....................|C-0....................|.......................|.......................|
F-2....................|.......................|.......................|.......................|.......................|C-4C0..................|C-0....................|C-0....................|.......................|.......................|
.......................|.......................|.......................|.......................|.......................|.......................|.......................|.......................|.......................|.......................|
.......................|.......................|.......................|.......................|.......................|.......................|.......................|.......................|.......................|.......................|
.......................|.......................|.......................|.......................|.......................|.......................|.......................|.......................|.......................|.......................|
.......................|.......................|.......................|.......................|.......................|.......................|.......................|.......................|.......................|.......................|
.......................|.......................|.......................|.......................|.......................|.......................|.......................|.......................|.......................|.......................|
.......................|.......................|.......................|.......................|.......................|C-4C4..................|.......................|.......................|.......................|.......................|
.......................|.......................|.......................|.......................|.......................|.......................|.......................|.......................|.......................|.......................|
.......................|.......................|.......................|.......................|.......................|.......................|.......................|.......................|.......................|.......................|
.......................|.......................|.......................|.......................|.......................|.......................|.......................|.......................|.......................|.......................|
.......................|.......................|.......................|.......................|.......................|.......................|.......................|.......................|.......................|.......................|
C-0....................|.......................|.......................|.......................|.......................|.......................|.......................|.......................|.......................|.......................|
F-2....................|C-4205F0400............|A-3205F0400............|.......................|.......................|C-4C0..................|.......................|.......................|.......................|.......................|
.......................|.......................|.......................|.......................|.......................|.......................|.......................|.......................|.......................|.......................|
.......................|.......................|.......................|.......................|.......................|.......................|.......................|.......................|.......................|.......................|
.......................|.......................|.......................|.......................|.......................|.......................|.......................|.......................|.......................|.......................|
.......................|.......................|.......................|.......................|.......................|.......................|.......................|.......................|.......................|.......................|
.......................|C-0....................|C-0....................|.......................|.......................|.......................|.......................|.......................|.......................|.......................|
.......................|.......................|.......................|.......................|.......................|C-4C7..................|.......................|.......................|.......................|.......................|
.......................|.......................|.......................|.......................|.......................|.......................|.......................|.......................|.......................|.......................|
.......................|.......................|.......................|.......................|.......................|.......................|.......................|.......................|.......................|.......................|
.......................|.......................|.......................|.......................|.......................|.......................|.......................|.......................|.......................|.......................|
.......................|.......................|.......................|.......................|.......................|.......................|.......................|.......................|.......................|.......................|
C-0....................|.......................|.......................|.......................|.......................|.......................|.......................|.......................|.......................|.......................|
F-2....................|A-4....................|F-4....................|.......................|.......................|C-4C6..................|C-0....................|C-0....................|.......................|.......................|
.......................|.......................|.......................|.......................|.......................|.......................|.......................|.......................|.......................|.......................|
.......................|.......................|.......................|.......................|.......................|.......................|.......................|.......................|.......................|.......................|
.......................|.......................|.......................|.......................|.......................|.......................|.......................|.......................|.......................|.......................|
.......................|.......................|.......................|.......................|.......................|.......................|.......................|.......................|.......................|.......................|
.......................|.......................|.......................|.......................|.......................|.......................|.......................|.......................|.......................|.......................|
.......................|.......................|.......................|.......................|.......................|.......................|.......................|.......................|.......................|.......................|
.......................|.......................|.......................|.......................|.......................|.......................|.......................|.......................|.......................|.......................|
.......................|.......................|.......................|.......................|.......................|.......................|.......................|.......................|.......................|.......................|
.......................|.......................|.......................|.......................|.......................|.......................|.......................|.......................|.......................|.......................|
.......................|.......................|.......................|.......................|.......................|.......................|.......................|.......................|.......................|.......................|
C-0....................|.......................|.......................|.......................|.......................|.......................|.......................|.......................|.......................|.......................|
F-2....................|.......................|.......................|.......................|.......................|C-4C7..................|.......................|.......................|.......................|.......................|
.......................|.......................|.......................|.......................|.......................|.......................|.......................|.......................|.......................|.......................|
.......................|.......................|.......................|.......................|.......................|.......................|.......................|.......................|.......................|.......................|
.......................|.......................|.......................|.......................|.......................|.......................|.......................|.......................|.......................|.......................|
.......................|.......................|.......................|.......................|.......................|.......................|.......................|.......................|.......................|.......................|
.......................|.......................|.......................|.......................|.......................|.......................|.......................|.......................|.......................|.......................|
.......................|.......................|.......................|.......................|.......................|C-4C7..................|.......................|.......................|.......................|.......................|
.......................|.......................|.......................|.......................|.......................|.......................|.......................|.......................|.......................|.......................|
.......................|.......0452............|.......0452............|.......................|.......................|.......................|.......................|.......................|.......................|.......................|
.......................|.......................|.......................|.......................|.......................|.......................|.......................|.......................|.......................|.......................|
.......................|.......................|.......................|.......................|.......................|.......................|.......................|.......................|.......................|.......................|
C-0....................|C-0....................|C-0....................|.......................|.......................|.......................|.......................|.......................|.......................|.......................|
F-2....................|F-4....0400............|C-4....0400............|.......................|.......................|C-4C6..................|.......................|.......................|.......................|.......................|
.......................|.......................|.......................|.......................|.......................|.......................|.......................|.......................|.......................|.......................|
.......................|.......................|.......................|.......................|.......................|.......................|.......................|.......................|.......................|.......................|
.......................|.......................|.......................|.......................|.......................|.......................|.......................|.......................|.......................|.......................|
.......................|.......................|.......................|.......................|.......................|.......................|.......................|.......................|.......................|.......................|
.......................|.......................|.......................|.......................|.......................|.......................|.......................|.......................|.......................|.......................|
.......................|.......................|.......................|.......................|.......................|.......................|.......................|.......................|.......................|.......................|
.......................|.......................|.......................|.......................|.......................|.......................|.......................|.......................|.......................|.......................|
.......................|.......................|.......................|.......................|.......................|.......................|.......................|.......................|.......................|.......................|
.......................|.......................|.......................|.......................|.......................|.......................|.......................|.......................|.......................|.......................|
.......................|.......................|.......................|.......................|.......................|.......................|.......................|.......................|.......................|.......................|
C-0....................|.......................|.......................|.......................|.......................|.......................|.......................|.......................|.......................|.......................|
F-2....................|.......................|.......................|.......................|.......................|C-4C7..................|.......................|.......................|.......................|.......................|
.......................|.......................|.......................|.......................|.......................|.......................|.......................|.......................|.......................|.......................|
.......................|.......................|.......................|.......................|.......................|.......................|.......................|.......................|.......................|.......................|
.......................|.......................|.......................|.......................|.......................|.......................|.......................|.......................|.......................|.......................|
.......................|.......................|.......................|.......................|.......................|.......................|.......................|.......................|.......................|.......................|
.......................|.......................|.......................|.......................|.......................|.......................|.......................|.......................|.......................|.......................|
.......................|.......................|.......................|.......................|.......................|C-4C7..................|.......................|.......................|.......................|.......................|
.......................|.......................|.......................|.......................|.......................|.......................|.......................|.......................|.......................|.......................|
.......................|.......0452............|.......0452............|.......................|.......................|.......................|.......................|.......................|.......................|.......................|
.......................|.......................|.......................|.......................|.......................|.......................|.......................|.......................|.......................|.......................|
.......................|.......................|.......................|.......................|.......................|.......................|.......................|.......................|.......................|.......................|
C-0....................|C-0....................|C-0....................|.......................|.......................|.......................|.......................|.......................|.......................|.......................|
F-2....................|C-5....0400............|A-4....0400............|.......................|.......................|C-4C6..................|.......................|.......................|.......................|.......................|
.......................|.......................|.......................|.......................|.......................|.......................|.......................|.......................|.......................|.......................|
.......................|.......................|.......................|.......................|.......................|.......................|.......................|.......................|.......................|.......................|
.......................|.......................|.......................|.......................|.......................|.......................|.......................|.......................|.......................|.......................|
.......................|.......................|.......................|.......................|.......................|.......................|.......................|.......................|.......................|.......................|
.......................|.......................|.......................|.......................|.......................|.......................|.......................|.......................|.......................|.......................|
.......................|.......................|.......................|.......................|.......................|.......................|.......................|.......................|.......................|.......................|
.......................|.......................|.......................|.......................|.......................|.......................|.......................|.......................|.......................|.......................|
.......................|.......................|.......................|.......................|.......................|.......................|.......................|.......................|.......................|.......................|
.......................|.......................|.......................|.......................|.......................|.......................|.......................|.......................|.......................|.......................|
.......................|.......................|.......................|.......................|.......................|.......................|.......................|.......................|.......................|.......................|
C-0....................|.......................|.......................|.......................|.......................|.......................|.......................|.......................|.......................|.......................|
F-2....................|.......................|.......................|.......................|.......................|C-4C7..................|.......................|.......................|.......................|.......................|
.......................|.......................|.......................|.......................|.......................|.......................|.......................|.......................|.......................|.......................|
.......................|.......................|.......................|.......................|.......................|.......................|.......................|.......................|.......................|.......................|
.......................|.......................|.......................|.......................|.......................|.......................|.......................|.......................|.......................|.......................|
org.tildearrow.furnace - Pattern Data (219)
0
.......................|.......................|.......................|.......................|.......................|.......................|.......................|.......................|.......................|.......................|
.......................|.......................|.......................|.......................|.......................|.......................|.......................|.......................|.......................|.......................|
.......................|.......................|.......................|.......................|.......................|C-4C7..................|.......................|.......................|.......................|.......................|
.......................|.......................|.......................|.......................|.......................|.......................|.......................|.......................|.......................|.......................|
.......................|.......0452............|.......0452............|.......................|.......................|.......................|.......................|.......................|.......................|.......................|
.......................|.......................|.......................|.......................|.......................|.......................|.......................|.......................|.......................|.......................|
.......................|.......................|.......................|.......................|.......................|.......................|.......................|.......................|.......................|.......................|
C-0....................|C-0....................|C-0....................|.......................|.......................|.......................|.......................|.......................|.......................|.......................|
F-2....................|A-4....0400............|F-4....0400............|.......................|.......................|C-4C6..................|.......................|.......................|.......................|.......................|
.......................|.......................|.......................|.......................|.......................|.......................|.......................|.......................|.......................|.......................|
.......................|.......................|.......................|.......................|.......................|.......................|.......................|.......................|.......................|.......................|
.......................|.......................|.......................|.......................|.......................|.......................|.......................|.......................|.......................|.......................|
.......................|.......................|.......................|.......................|.......................|.......................|.......................|.......................|.......................|.......................|
.......................|C-0....................|C-0....................|.......................|.......................|.......................|.......................|.......................|.......................|.......................|
.......................|.......................|.......................|.......................|.......................|.......................|.......................|.......................|.......................|.......................|
.......................|.......................|.......................|.......................|.......................|.......................|.......................|.......................|.......................|.......................|
.......................|.......................|.......................|.......................|.......................|.......................|.......................|.......................|.......................|.......................|
.......................|.......................|.......................|.......................|.......................|.......................|.......................|.......................|.......................|.......................|
.......................|.......................|.......................|.......................|.......................|.......................|.......................|.......................|.......................|.......................|
C-0....................|.......................|.......................|.......................|.......................|.......................|.......................|.......................|.......................|.......................|
F-2....................|D#5....................|C-5....................|.......................|.......................|C-4C7..................|.......................|.......................|.......................|.......................|
.......................|.......................|.......................|.......................|.......................|.......................|.......................|.......................|.......................|.......................|
.......................|.......................|.......................|.......................|.......................|.......................|.......................|.......................|.......................|.......................|
.......................|.......................|.......................|.......................|.......................|.......................|.......................|.......................|.......................|.......................|
.......................|.......................|.......................|.......................|.......................|.......................|.......................|.......................|.......................|.......................|
.......................|.......................|.......................|.......................|.......................|.......................|.......................|.......................|.......................|.......................|
.......................|.......................|.......................|.......................|.......................|C-4C7..................|.......................|.......................|.......................|.......................|
.......................|.......................|.......................|.......................|.......................|.......................|.......................|.......................|.......................|.......................|
.......................|.......................|.......................|.......................|.......................|.......................|.......................|.......................|.......................|.......................|
.......................|.......................|.......................|.......................|.......................|.......................|.......................|.......................|.......................|.......................|
.......................|.......................|.......................|.......................|.......................|.......................|.......................|.......................|.......................|.......................|
C-0....................|.......................|.......................|.......................|.......................|.......................|.......................|.......................|.......................|.......................|
F-2....................|.......................|.......................|.......................|.......................|C-4C6..................|C-0....................|C-0....................|.......................|.......................|
.......................|.......................|.......................|.......................|.......................|.......................|.......................|.......................|.......................|.......................|
.......................|.......................|.......................|.......................|.......................|.......................|.......................|.......................|.......................|.......................|
.......................|.......................|.......................|.......................|.......................|.......................|.......................|.......................|.......................|.......................|
.......................|.......................|.......................|.......................|.......................|.......................|.......................|.......................|.......................|.......................|
.......................|C-0....................|C-0....................|.......................|.......................|.......................|.......................|.......................|.......................|.......................|
.......................|.......................|.......................|.......................|.......................|.......................|.......................|.......................|.......................|.......................|
.......................|.......................|.......................|.......................|.......................|.......................|.......................|.......................|.......................|.......................|
.......................|.......................|.......................|.......................|.......................|.......................|.......................|.......................|.......................|.......................|
.......................|.......................|.......................|.......................|.......................|.......................|.......................|.......................|.......................|.......................|
.......................|.......................|.......................|.......................|.......................|.......................|.......................|.......................|.......................|.......................|
C-0....................|.......................|.......................|.......................|.......................|.......................|.......................|.......................|.......................|.......................|
F-2....................|C-5....................|A-4....................|.......................|.......................|C-4C7..................|.......................|.......................|.......................|.......................|
.......................|.......................|.......................|.......................|.......................|.......................|.......................|.......................|.......................|.......................|
.......................|.......................|.......................|.......................|.......................|.......................|.......................|.......................|.......................|.......................|
.......................|.......................|.......................|.......................|.......................|.......................|.......................|.......................|.......................|.......................|
.......................|.......................|.......................|.......................|.......................|.......................|.......................|.......................|.......................|.......................|
.......................|C-0....................|C-0....................|.......................|.......................|.......................|.......................|.......................|.......................|.......................|
.......................|.......................|.......................|.......................|.......................|C-4C7..................|.......................|.......................|.......................|.......................|
.......................|.......................|.......................|.......................|.......................|.......................|.......................|.......................|.......................|.......................|
.......................|.......................|.......................|.......................|.......................|.......................|.......................|.......................|.......................|.......................|
.......................|.......................|.......................|.......................|.......................|.......................|.......................|.......................|.......................|.......................|
.......................|.......................|.......................|.......................|.......................|.......................|.......................|.......................|.......................|.......................|
C-0....................|.......................|.......................|.......................|.......................|.......................|.......................|.......................|.......................|.......................|
F-2....................|C-0..67................|D#5..67................|.......................|.......................|C-4C6..................|.......................|.......................|.......................|.......................|
.......................|.......................|.......................|.......................|.......................|.......................|.......................|.......................|.......................|.......................|
.......................|.......................|.......................|.......................|.......................|.......................|.......................|.......................|.......................|.......................|
.......................|.......................|.......................|.......................|.......................|.......................|.......................|.......................|.......................|.......................|
.......................|.......................|.......................|.......................|.......................|.......................|.......................|.......................|.......................|.......................|
.......................|.......................|.......................|.......................|.......................|.......................|.......................|.......................|.......................|.......................|
.......................|.......................|.......................|.......................|.......................|.......................|.......................|.......................|.......................|.......................|
.......................|.......................|.......................|.......................|.......................|.......................|.......................|.......................|.......................|.......................|
.......................|.......................|.......................|.......................|.......................|.......................|.......................|.......................|.......................|.......................|
.......................|.......................|.......................|.......................|.......................|.......................|.......................|.......................|.......................|.......................|
.......................|.......................|.......................|.......................|.......................|.......................|.......................|.......................|.......................|.......................|
C-0....................|.......................|.......................|.......................|.......................|.......................|.......................|.......................|.......................|.......................|
F-2....................|.......................|.......................|F-22E740400............|F-3....................|C-4C7..................|.......................|.......................|.......................|.......................|
.......................|.......................|.......................|.......................|.......................|.......................|.......................|.......................|.......................|.......................|
.......................|.......................|.......................|.......................|.......................|.......................|.......................|.......................|.......................|.......................|
.......................|.......................|.......................|.......................|.......................|.......................|.......................|.......................|.......................|.......................|
.......................|.......................|.......................|.......................|.......................|.......................|.......................|.......................|.......................|.......................|
.......................|.......................|.......................|.......................|.......................|.......................|.......................|.......................|.......................|.......................|
.......................|.......................|.......................|.......................|.......................|C-4C7..................|.......................|.......................|.......................|.......................|
.......................|.......................|.......................|.......................|.......................|.......................|.......................|.......................|.......................|.......................|
.......................|.......0452............|.......0452............|.......................|.......................|.......................|.......................|.......................|.......................|.......................|
.......................|.......................|.......................|.......................|.......................|.......................|.......................|.......................|.......................|.......................|
.......................|.......................|.......................|.......................|.......................|.......................|.......................|.......................|.......................|.......................|
C-0....................|C-0....................|C-0....................|C-0....................|C-0....................|.......................|.......................|.......................|.......................|.......................|
F-2....................|.......................|.......................|F-2....................|F-3....................|C-4C6..................|.......................|.......................|.......................|.......................|
.......................|.......................|.......................|.......................|.......................|.......................|.......................|.......................|.......................|.......................|
.......................|.......................|.......................|.......................|.......................|.......................|.......................|.......................|.......................|.......................|
.......................|.......................|.......................|.......................|.......................|.......................|.......................|.......................|.......................|.......................|
.......................|.......................|.......................|.......................|.......................|.......................|.......................|.......................|.......................|.......................|
.......................|.......................|.......................|C-0....................|C-0....................|.......................|.......................|.......................|.......................|.......................|
.......................|.......................|.......................|F-2....................|F-3....................|.......................|.......................|.......................|.......................|.......................|
.......................|.......................|.......................|.......................|.......................|.......................|.......................|.......................|.......................|.......................|
.......................|.......................|.......................|.......................|.......................|.......................|.......................|.......................|.......................|.......................|
.......................|.......................|.......................|.......................|.......................|.......................|.......................|.......................|.......................|.......................|
.......................|.......................|.......................|.......................|.......................|.......................|.......................|.......................|.......................|.......................|
C-0....................|.......................|.......................|C-0....................|C-0....................|.......................|.......................|.......................|.......................|.......................|
F-2....................|.......................|.......................|F-2....................|F-3....................|C-4C7..................|.......................|.......................|.......................|.......................|
.......................|.......................|.......................|.......................|.......................|.......................|.......................|.......................|.......................|.......................|
.......................|.......................|.......................|.......................|.......................|.......................|.......................|.......................|.......................|.......................|
.......................|.......................|.......................|.......................|.......................|.......................|.......................|.......................|.......................|.......................|
.......................|.......................|.......................|.......................|.......................|.......................|.......................|.......................|.......................|.......................|
.......................|.......................|.......................|.......................|.......................|.......................|.......................|.......................|.......................|.......................|
.......................|.......................|.......................|.......................|.......................|C-4C7..................|.......................|.......................|.......................|.......................|
.......................|.......................|.......................|.......................|.......................|.......................|.......................|.......................|.......................|.......................|
.......................|.......................|.......................|.......................|.......................|.......................|.......................|.......................|.......................|.......................|
.......................|.......................|.......................|.......................|.......................|.......................|.......................|.......................|.......................|.......................|
.......................|.......................|.......................|.......................|.......................|.......................|.......................|.......................|.......................|.......................|
C-0....................|.......................|.......................|C-0....................|C-0....................|.......................|.......................|.......................|.......................|.......................|
F-2....................|.......................|.......................|.......................|.......................|C-4C6..................|.......................|.......................|.......................|.......................|
.......................|.......................|.......................|.......................|.......................|.......................|.......................|.......................|.......................|.......................|
.......................|.......................|.......................|.......................|.......................|.......................|.......................|.......................|.......................|.......................|
.......................|.......................|.......................|.......................|.......................|.......................|.......................|.......................|.......................|.......................|
.......................|.......................|.......................|.......................|.......................|.......................|.......................|.......................|.......................|.......................|
.......................|.......................|.......................|.......................|.......................|.......................|.......................|.......................|.......................|.......................|
.......................|.......................|.......................|.......................|.......................|.......................|.......................|.......................|.......................|.......................|
.......................|.......................|.......................|.......................|.......................|.......................|.......................|.......................|.......................|.......................|
.......................|.......................|.......................|.......................|.......................|.......................|.......................|.......................|.......................|.......................|
.......................|.......................|.......................|.......................|.......................|.......................|.......................|.......................|.......................|.......................|
.......................|.......................|.......................|.......................|.......................|.......................|.......................|.......................|.......................|.......................|
C-0....................|.......................|.......................|.......................|.......................|.......................|.......................|.......................|.......................|.......................|
F-2....................|A#3..630400............|F-3..630400............|.......................|.......................|C-4C7..................|.......................|.......................|.......................|.......................|
.......................|.......................|.......................|.......................|.......................|.......................|.......................|.......................|.......................|.......................|
.......................|.......................|.......................|.......................|.......................|.......................|.......................|.......................|.......................|.......................|
.......................|.......................|.......................|.......................|.......................|.......................|.......................|.......................|.......................|.......................|
.......................|.......................|.......................|.......................|.......................|.......................|.......................|.......................|.......................|.......................|
.......................|C-0....................|C-0....................|.......................|.......................|.......................|.......................|.......................|.......................|.......................|
.......................|.......................|.......................|.......................|.......................|C-4C7..................|.......................|.......................|.......................|.......................|
.......................|.......................|.......................|.......................|.......................|.......................|.......................|.......................|.......................|.......................|
.......................|.......................|.......................|.......................|.......................|.......................|.......................|.......................|.......................|.......................|
.......................|.......................|.......................|.......................|.......................|.......................|.......................|.......................|.......................|.......................|
.......................|.......................|.......................|.......................|.......................|.......................|.......................|.......................|.......................|.......................|
C-0....................|.......................|.......................|.......................|.......................|.......................|.......................|.......................|.......................|.......................|
A#2....................|F-4....................|D-4....................|.......................|.......................|C-4C6..................|C-0....................|C-0....................|.......................|.......................|
.......................|.......................|.......................|.......................|.......................|.......................|.......................|.......................|.......................|.......................|
.......................|.......................|.......................|.......................|.......................|.......................|.......................|.......................|.......................|.......................|
.......................|.......................|.......................|.......................|.......................|.......................|.......................|.......................|.......................|.......................|
.......................|.......................|.......................|.......................|.......................|.......................|.......................|.......................|.......................|.......................|
.......................|.......................|.......................|.......................|.......................|.......................|.......................|.......................|.......................|.......................|
.......................|.......................|.......................|.......................|.......................|.......................|.......................|.......................|.......................|.......................|
.......................|.......................|.......................|.......................|.......................|.......................|.......................|.......................|.......................|.......................|
.......................|.......................|.......................|.......................|.......................|.......................|.......................|.......................|.......................|.......................|
.......................|.......................|.......................|.......................|.......................|.......................|.......................|.......................|.......................|.......................|
.......................|.......................|.......................|.......................|.......................|.......................|.......................|.......................|.......................|.......................|
C-0....................|.......................|.......................|.......................|.......................|.......................|.......................|.......................|.......................|.......................|
A#2....................|.......................|.......................|.......................|.......................|C-4C7..................|.......................|.......................|.......................|.......................|
.......................|.......................|.......................|.......................|.......................|.......................|.......................|.......................|.......................|.......................|
.......................|.......................|.......................|.......................|.......................|.......................|.......................|.......................|.......................|.......................|
.......................|.......................|.......................|.......................|.......................|.......................|.......................|.......................|.......................|.......................|
.......................|.......................|.......................|.......................|.......................|.......................|.......................|.......................|.......................|.......................|
.......................|.......................|.......................|.......................|.......................|.......................|.......................|.......................|.......................|.......................|
.......................|.......................|.......................|.......................|.......................|C-4C7..................|.......................|.......................|.......................|.......................|
.......................|.......................|.......................|.......................|.......................|.......................|.......................|.......................|.......................|.......................|
.......................|.......0452............|.......0452............|.......................|.......................|.......................|.......................|.......................|.......................|.......................|
.......................|.......................|.......................|.......................|.......................|.......................|.......................|.......................|.......................|.......................|
.......................|.......................|.......................|.......................|.......................|.......................|.......................|.......................|.......................|.......................|
C-0....................|C-0....................|C-0....................|.......................|.......................|.......................|.......................|.......................|.......................|.......................|
A#2....................|D-4....0400............|A#3....0400............|.......................|.......................|C-4C6..................|.......................|.......................|.......................|.......................|
.......................|.......................|.......................|.......................|.......................|.......................|.......................|.......................|.......................|.......................|
.......................|.......................|.......................|.......................|.......................|.......................|.......................|.......................|.......................|.......................|
.......................|.......................|.......................|.......................|.......................|.......................|.......................|.......................|.......................|.......................|
.......................|.......................|.......................|.......................|.......................|.......................|.......................|.......................|.......................|.......................|
.......................|.......................|.......................|.......................|.......................|.......................|.......................|.......................|.......................|.......................|
.......................|.......................|.......................|.......................|.......................|.......................|.......................|.......................|.......................|.......................|
.......................|.......................|.......................|.......................|.......................|.......................|.......................|.......................|.......................|.......................|
.......................|.......................|.......................|.......................|.......................|.......................|.......................|.......................|.......................|.......................|
.......................|.......................|.......................|.......................|.......................|.......................|.......................|.......................|.......................|.......................|
.......................|.......................|.......................|.......................|.......................|.......................|.......................|.......................|.......................|.......................|
C-0....................|.......................|.......................|.......................|.......................|.......................|.......................|.......................|.......................|.......................|
A#2....................|.......................|.......................|.......................|.......................|C-4C7..................|.......................|.......................|.......................|.......................|
.......................|.......................|.......................|.......................|.......................|.......................|.......................|.......................|.......................|.......................|
.......................|.......................|.......................|.......................|.......................|.......................|.......................|.......................|.......................|.......................|
.......................|.......................|.......................|.......................|.......................|.......................|.......................|.......................|.......................|.......................|
.......................|.......................|.......................|.......................|.......................|.......................|.......................|.......................|.......................|.......................|
.......................|.......................|.......................|.......................|.......................|.......................|.......................|.......................|.......................|.......................|
.......................|.......................|.......................|.......................|.......................|C-4C7..................|.......................|.......................|.......................|.......................|
.......................|.......................|.......................|.......................|.......................|.......................|.......................|.......................|.......................|.......................|
.......................|.......0452............|.......0452............|.......................|.......................|.......................|.......................|.......................|.......................|.......................|
.......................|.......................|.......................|.......................|.......................|.......................|.......................|.......................|.......................|.......................|
.......................|.......................|.......................|.......................|.......................|.......................|.......................|.......................|.......................|.......................|
C-0....................|C-0....................|C-0....................|.......................|.......................|.......................|.......................|.......................|.......................|.......................|
A#2....................|A#4....0400............|F-4....0400............|.......................|.......................|C-4C6..................|.......................|.......................|.......................|.......................|
.......................|.......................|.......................|.......................|.......................|.......................|.......................|.......................|.......................|.......................|
.......................|.......................|.......................|.......................|.......................|.......................|.......................|.......................|.......................|.......................|
.......................|.......................|.......................|.......................|.......................|.......................|.......................|.......................|.......................|.......................|
.......................|.......................|.......................|.......................|.......................|.......................|.......................|.......................|.......................|.......................|
.......................|.......................|.......................|.......................|.......................|.......................|.......................|.......................|.......................|.......................|
.......................|.......................|.......................|.......................|.......................|.......................|.......................|.......................|.......................|.......................|
.......................|.......................|.......................|.......................|.......................|.......................|.......................|.......................|.......................|.......................|
.......................|.......................|.......................|.......................|.......................|.......................|.......................|.......................|.......................|.......................|
.......................|.......................|.......................|.......................|.......................|.......................|.......................|.......................|.......................|.......................|
.......................|.......................|.......................|.......................|.......................|.......................|.......................|.......................|.......................|.......................|
C-0....................|.......................|.......................|.......................|.......................|.......................|.......................|.......................|.......................|.......................|
A#2....................|.......................|.......................|.......................|.......................|C-4C7..................|.......................|.......................|.......................|.......................|
.......................|.......................|.......................|.......................|.......................|.......................|.......................|.......................|.......................|.......................|
.......................|.......................|.......................|.......................|.......................|.......................|.......................|.......................|.......................|.......................|
.......................|.......................|.......................|.......................|.......................|.......................|.......................|.......................|.......................|.......................|
.......................|.......................|.......................|.......................|.......................|.......................|.......................|.......................|.......................|.......................|
.......................|.......................|.......................|.......................|.......................|.......................|.......................|.......................|.......................|.......................|
.......................|.......................|.......................|.......................|.......................|C-4C7..................|.......................|.......................|.......................|.......................|
.......................|.......................|.......................|.......................|.......................|.......................|.......................|.......................|.......................|.......................|
.......................|.......0452............|.......0452............|.......................|.......................|.......................|.......................|.......................|.......................|.......................|
.......................|.......................|.......................|.......................|.......................|.......................|.......................|.......................|.......................|.......................|
.......................|.......................|.......................|.......................|.......................|.......................|.......................|.......................|.......................|.......................|
C-0....................|C-0....................|C-0....................|.......................|.......................|.......................|.......................|.......................|.......................|.......................|
A#2....................|F-4....0400............|D-4....0400............|.......................|.......................|C-4C6..................|.......................|.......................|.......................|.......................|
.......................|.......................|.......................|.......................|.......................|.......................|.......................|.......................|.......................|.......................|
.......................|.......................|.......................|.......................|.......................|.......................|.......................|.......................|.......................|.......................|
.......................|.......................|.......................|.......................|.......................|.......................|.......................|.......................|.......................|.......................|
.......................|.......................|.......................|.......................|.......................|.......................|.......................|.......................|.......................|.......................|
.......................|C-0....................|C-0....................|.......................|.......................|.......................|.......................|.......................|.......................|.......................|
.......................|.......................|.......................|.......................|.......................|.......................|.......................|.......................|.......................|.......................|
.......................|.......................|.......................|.......................|.......................|.......................|.......................|.......................|.......................|.......................|
.......................|.......................|.......................|.......................|.......................|.......................|.......................|.......................|.......................|.......................|
.......................|.......................|.......................|.......................|.......................|.......................|.......................|.......................|.......................|.......................|
.......................|.......................|.......................|.......................|.......................|.......................|.......................|.......................|.......................|.......................|
C-0....................|.......................|.......................|.......................|.......................|.......................|.......................|.......................|.......................|.......................|
A#2....................|D-5....................|A#4....................|.......................|.......................|C-4C7..................|.......................|.......................|.......................|.......................|
.......................|.......................|.......................|.......................|.......................|.......................|.......................|.......................|.......................|.......................|
.......................|.......................|.......................|.......................|.......................|.......................|.......................|.......................|.......................|.......................|
.......................|.......................|.......................|.......................|.......................|.......................|.......................|.......................|.......................|.......................|
.......................|.......................|.......................|.......................|.......................|.......................|.......................|.......................|.......................|.......................|
.......................|.......................|.......................|.......................|.......................|.......................|.......................|.......................|.......................|.......................|
.......................|.......................|.......................|.......................|.......................|C-4C7..................|.......................|.......................|.......................|.......................|
.......................|.......................|.......................|.......................|.......................|.......................|.......................|.......................|.......................|.......................|
.......................|.......................|.......................|.......................|.......................|.......................|.......................|.......................|.......................|.......................|
.......................|.......................|.......................|.......................|.......................|.......................|.......................|.......................|.......................|.......................|
.......................|.......................|.......................|.......................|.......................|.......................|.......................|.......................|.......................|.......................|
C-0....................|.......................|.......................|.......................|.......................|.......................|.......................|.......................|.......................|.......................|
A#2....................|.......................|.......................|.......................|.......................|C-4C6..................|C-0....................|C-0....................|.......................|.......................|
.......................|.......................|.......................|.......................|.......................|.......................|.......................|.......................|.......................|.......................|
.......................|.......................|.......................|.......................|.......................|.......................|.......................|.......................|.......................|.......................|
.......................|.......................|.......................|.......................|.......................|.......................|.......................|.......................|.......................|.......................|
.......................|.......................|.......................|.......................|.......................|.......................|.......................|.......................|.......................|.......................|
.......................|C-0....................|C-0....................|.......................|.......................|.......................|.......................|.......................|.......................|.......................|
.......................|.......................|.......................|.......................|.......................|.......................|.......................|.......................|.......................|.......................|
.......................|.......................|.......................|.......................|.......................|.......................|.......................|.......................|.......................|.......................|
.......................|.......................|.......................|.......................|.......................|.......................|.......................|.......................|.......................|.......................|
.......................|.......................|.......................|.......................|.......................|.......................|.......................|.......................|.......................|.......................|
.......................|.......................|.......................|.......................|.......................|.......................|.......................|.......................|.......................|.......................|
C-0....................|.......................|.......................|.......................|.......................|.......................|.......................|.......................|.......................|.......................|
A#2....................|A#4....................|F-4....................|.......................|.......................|C-4C7..................|.......................|.......................|.......................|.......................|
.......................|.......................|.......................|.......................|.......................|.......................|.......................|.......................|.......................|.......................|
.......................|.......................|.......................|.......................|.......................|.......................|.......................|.......................|.......................|.......................|
.......................|.......................|.......................|.......................|.......................|.......................|.......................|.......................|.......................|.......................|
.......................|.......................|.......................|.......................|.......................|.......................|.......................|.......................|.......................|.......................|
.......................|C-0....................|C-0....................|.......................|.......................|.......................|.......................|.......................|.......................|.......................|
.......................|.......................|.......................|.......................|.......................|C-4C7..................|.......................|.......................|.......................|.......................|
.......................|.......................|.......................|.......................|.......................|.......................|.......................|.......................|.......................|.......................|
.......................|.......................|.......................|.......................|.......................|.......................|.......................|.......................|.......................|.......................|
.......................|.......................|.......................|.......................|.......................|.......................|.......................|.......................|.......................|.......................|
.......................|.......................|.......................|.......................|.......................|.......................|.......................|.......................|.......................|.......................|
C-0....................|.......................|.......................|.......................|.......................|.......................|.......................|.......................|.......................|.......................|
A#2....................|C-0....................|D-5....................|F-4205F................|A#3205F................|C-4C6..................|.......................|.......................|.......................|.......................|
.......................|.......................|.......................|.......................|.......................|.......................|.......................|.......................|.......................|.......................|
.......................|.......................|.......................|.......................|.......................|.......................|.......................|.......................|.......................|.......................|
.......................|.......................|.......................|.......................|.......................|.......................|.......................|.......................|.......................|.......................|
.......................|.......................|.......................|.......................|.......................|.......................|.......................|.......................|.......................|.......................|
.......................|.......................|.......................|.......................|.......................|.......................|.......................|.......................|.......................|.......................|
.......................|.......................|.......................|.......................|.......................|.......................|.......................|.......................|.......................|.......................|
.......................|.......................|.......................|.......................|.......................|.......................|.......................|.......................|.......................|.......................|
org.tildearrow.furnace - Pattern Data (219)
0
.......................|.......................|.......................|.......................|.......................|.......................|.......................|.......................|.......................|.......................|
.......................|.......................|.......................|.......................|.......................|.......................|.......................|.......................|.......................|.......................|
.......................|.......................|.......................|.......................|.......................|.......................|.......................|.......................|.......................|.......................|
C-0....................|.......................|.......................|.......................|.......................|.......................|.......................|.......................|.......................|.......................|
A#2....................|.......................|.......................|.......................|.......................|C-4C7..................|.......................|.......................|.......................|.......................|
.......................|.......................|.......................|.......................|.......................|.......................|.......................|.......................|.......................|.......................|
.......................|.......................|.......................|.......................|.......................|.......................|.......................|.......................|.......................|.......................|
.......................|.......................|.......................|.......................|.......................|.......................|.......................|.......................|.......................|.......................|
.......................|.......................|.......................|.......................|.......................|.......................|.......................|.......................|.......................|.......................|
.......................|.......................|.......................|.......................|.......................|.......................|.......................|.......................|.......................|.......................|
.......................|.......................|.......................|.......................|.......................|C-4C7..................|.......................|.......................|.......................|.......................|
.......................|.......................|.......................|.......................|.......................|.......................|.......................|.......................|.......................|.......................|
.......................|.......0452............|C-0....0452............|C-0....0452............|C-0....0452............|.......................|.......................|.......................|.......................|.......................|
.......................|.......................|.......................|.......................|.......................|.......................|.......................|.......................|.......................|.......................|
.......................|.......................|.......................|.......................|.......................|.......................|.......................|.......................|.......................|.......................|
C-0....................|.......................|.......................|.......................|.......................|.......................|.......................|.......................|.......................|.......................|
A#2....................|.......................|D-5....0400............|F-4....0400............|A#3....0400............|C-4C6..................|.......................|.......................|.......................|.......................|
.......................|.......................|.......................|.......................|.......................|.......................|.......................|.......................|.......................|.......................|
.......................|.......................|.......................|.......................|.......................|.......................|.......................|.......................|.......................|.......................|
.......................|.......................|.......................|.......................|.......................|.......................|.......................|.......................|.......................|.......................|
.......................|.......................|.......................|.......................|.......................|.......................|.......................|.......................|.......................|.......................|
.......................|.......................|.......................|.......................|.......................|.......................|.......................|.......................|.......................|.......................|
.......................|.......................|.......................|.......................|.......................|.......................|.......................|.......................|.......................|.......................|
.......................|.......................|.......................|.......................|.......................|.......................|.......................|.......................|.......................|.......................|
.......................|.......................|.......................|.......................|.......................|.......................|.......................|.......................|.......................|.......................|
.......................|.......................|.......................|.......................|.......................|.......................|.......................|.......................|.......................|.......................|
.......................|.......................|.......................|.......................|.......................|.......................|.......................|.......................|.......................|.......................|
C-0....................|.......................|.......................|.......................|.......................|.......................|.......................|.......................|.......................|.......................|
A#2....................|.......................|.......................|.......................|.......................|C-4C7..................|.......................|.......................|.......................|.......................|
.......................|.......................|.......................|.......................|.......................|.......................|.......................|.......................|.......................|.......................|
.......................|.......................|.......................|.......................|.......................|.......................|.......................|.......................|.......................|.......................|
.......................|.......................|.......................|.......................|.......................|.......................|.......................|.......................|.......................|.......................|
.......................|.......................|.......................|.......................|.......................|.......................|.......................|.......................|.......................|.......................|
.......................|.......................|.......................|.......................|.......................|.......................|.......................|.......................|.......................|.......................|
.......................|.......................|.......................|.......................|.......................|C-4C7..................|.......................|.......................|.......................|.......................|
.......................|.......................|.......................|.......................|.......................|.......................|.......................|.......................|.......................|.......................|
.......................|.......................|C-0....0452............|C-0....0452............|C-0....0452............|.......................|.......................|.......................|.......................|.......................|
.......................|.......................|.......................|.......................|.......................|.......................|.......................|.......................|.......................|.......................|
.......................|.......................|.......................|.......................|.......................|.......................|.......................|.......................|.......................|.......................|
C-0....................|.......................|.......................|.......................|.......................|.......................|.......................|.......................|.......................|.......................|
A#2....................|.......................|D-5....0400............|F-4....0400............|A#3....0400............|C-4C6..................|.......................|.......................|.......................|.......................|
.......................|.......................|.......................|.......................|.......................|.......................|.......................|.......................|.......................|.......................|
.......................|.......................|.......................|.......................|.......................|.......................|.......................|.......................|.......................|.......................|
.......................|.......................|.......................|.......................|.......................|.......................|.......................|.......................|.......................|.......................|
.......................|.......................|.......................|.......................|.......................|.......................|.......................|.......................|.......................|.......................|
.......................|.......................|C-0....................|C-0....................|C-0....................|.......................|.......................|.......................|.......................|.......................|
.......................|.......................|.......................|.......................|.......................|.......................|.......................|.......................|.......................|.......................|
.......................|.......................|.......................|.......................|.......................|.......................|.......................|.......................|.......................|.......................|
.......................|.......................|.......................|.......................|.......................|.......................|.......................|.......................|.......................|.......................|
.......................|.......................|.......................|.......................|.......................|.......................|.......................|.......................|.......................|.......................|
.......................|.......................|.......................|.......................|.......................|.......................|.......................|.......................|.......................|.......................|
C-0....................|C-0....................|.......................|.......................|.......................|.......................|.......................|.......................|.......................|.......................|
A#2....................|D#4....0400............|A#3....................|.......................|.......................|C-4C7..................|.......................|.......................|.......................|.......................|
.......................|.......................|.......................|.......................|.......................|.......................|.......................|.......................|.......................|.......................|
.......................|.......................|.......................|.......................|.......................|.......................|.......................|.......................|.......................|.......................|
.......................|.......................|.......................|.......................|.......................|.......................|.......................|.......................|.......................|.......................|
.......................|.......................|.......................|.......................|.......................|.......................|.......................|.......................|.......................|.......................|
.......................|C-0....................|C-0....................|.......................|.......................|.......................|.......................|.......................|.......................|.......................|
.......................|.......................|.......................|.......................|.......................|C-4C7..................|.......................|.......................|.......................|.......................|
.......................|.......................|.......................|.......................|.......................|.......................|.......................|.......................|.......................|.......................|
.......................|.......................|.......................|.......................|.......................|.......................|.......................|.......................|.......................|.......................|
.......................|.......................|.......................|.......................|.......................|.......................|.......................|.......................|.......................|.......................|
.......................|.......................|.......................|.......................|.......................|.......................|.......................|.......................|.......................|.......................|
C-0....................|.......................|.......................|.......................|.......................|.......................|.......................|.......................|.......................|.......................|
D#3....................|A#4....................|G-4....................|.......................|.......................|C-4C6..................|C-0....................|C-0....................|.......................|.......................|
.......................|.......................|.......................|.......................|.......................|.......................|.......................|.......................|.......................|.......................|
.......................|.......................|.......................|.......................|.......................|.......................|.......................|.......................|.......................|.......................|
.......................|.......................|.......................|.......................|.......................|.......................|.......................|.......................|.......................|.......................|
.......................|.......................|.......................|.......................|.......................|.......................|.......................|.......................|.......................|.......................|
.......................|.......................|.......................|.......................|.......................|.......................|.......................|.......................|.......................|.......................|
.......................|.......................|.......................|.......................|.......................|.......................|.......................|.......................|.......................|.......................|
.......................|.......................|.......................|.......................|.......................|.......................|.......................|.......................|.......................|.......................|
.......................|.......................|.......................|.......................|.......................|.......................|.......................|.......................|.......................|.......................|
.......................|.......................|.......................|.......................|.......................|.......................|.......................|.......................|.......................|.......................|
.......................|.......................|.......................|.......................|.......................|.......................|.......................|.......................|.......................|.......................|
C-0....................|.......................|.......................|.......................|.......................|.......................|.......................|.......................|.......................|.......................|
D#3....................|.......................|.......................|.......................|.......................|C-4C7..................|.......................|.......................|.......................|.......................|
.......................|.......................|.......................|.......................|.......................|.......................|.......................|.......................|.......................|.......................|
.......................|.......................|.......................|.......................|.......................|.......................|.......................|.......................|.......................|.......................|
.......................|.......................|.......................|.......................|.......................|.......................|.......................|.......................|.......................|.......................|
.......................|.......................|.......................|.......................|.......................|.......................|.......................|.......................|.......................|.......................|
.......................|.......................|.......................|.......................|.......................|.......................|.......................|.......................|.......................|.......................|
.......................|.......................|.......................|.......................|.......................|C-4C7..................|.......................|.......................|.......................|.......................|
.......................|.......................|.......................|.......................|.......................|.......................|.......................|.......................|.......................|.......................|
.......................|.......0452............|.......0452............|.......................|.......................|.......................|.......................|.......................|.......................|.......................|
.......................|.......................|.......................|.......................|.......................|.......................|.......................|.......................|.......................|.......................|
.......................|.......................|.......................|.......................|.......................|.......................|.......................|.......................|.......................|.......................|
C-0....................|C-0....................|C-0....................|.......................|.......................|.......................|.......................|.......................|.......................|.......................|
D#3....................|G-4....0400............|D#4....0400............|.......................|.......................|C-4C6..................|.......................|.......................|.......................|.......................|
.......................|.......................|.......................|.......................|.......................|.......................|.......................|.......................|.......................|.......................|
.......................|.......................|.......................|.......................|.......................|.......................|.......................|.......................|.......................|.......................|
.......................|.......................|.......................|.......................|.......................|.......................|.......................|.......................|.......................|.......................|
.......................|.......................|.......................|.......................|.......................|.......................|.......................|.......................|.......................|.......................|
.......................|.......................|.......................|.......................|.......................|.......................|.......................|.......................|.......................|.......................|
.......................|.......................|.......................|.......................|.......................|.......................|.......................|.......................|.......................|.......................|
.......................|.......................|.......................|.......................|.......................|.......................|.......................|.......................|.......................|.......................|
.......................|.......................|.......................|.......................|.......................|.......................|.......................|.......................|.......................|.......................|
.......................|.......................|.......................|.......................|.......................|.......................|.......................|.......................|.......................|.......................|
.......................|.......................|.......................|.......................|.......................|.......................|.......................|.......................|.......................|.......................|
C-0....................|.......................|.......................|.......................|.......................|.......................|.......................|.......................|.......................|.......................|
D#3....................|.......................|.......................|.......................|.......................|C-4C7..................|.......................|.......................|.......................|.......................|
.......................|.......................|.......................|.......................|.......................|.......................|.......................|.......................|.......................|.......................|
.......................|.......................|.......................|.......................|.......................|.......................|.......................|.......................|.......................|.......................|
.......................|.......................|.......................|.......................|.......................|.......................|.......................|.......................|.......................|.......................|
.......................|.......................|.......................|.......................|.......................|.......................|.......................|.......................|.......................|.......................|
.......................|.......................|.......................|.......................|.......................|.......................|.......................|.......................|.......................|.......................|
.......................|.......................|.......................|.......................|.......................|C-4C7..................|.......................|.......................|.......................|.......................|
.......................|.......................|.......................|.......................|.......................|.......................|.......................|.......................|.......................|.......................|
.......................|.......0452............|.......0452............|.......................|.......................|.......................|.......................|.......................|.......................|.......................|
.......................|.......................|.......................|.......................|.......................|.......................|.......................|.......................|.......................|.......................|
.......................|.......................|.......................|.......................|.......................|.......................|.......................|.......................|.......................|.......................|
C-0....................|C-0....................|C-0....................|.......................|.......................|.......................|.......................|.......................|.......................|.......................|
D#3....................|D#5....0400............|A#4....0400............|.......................|.......................|C-4C6..................|.......................|.......................|.......................|.......................|
.......................|.......................|.......................|.......................|.......................|.......................|.......................|.......................|.......................|.......................|
.......................|.......................|.......................|.......................|.......................|.......................|.......................|.......................|.......................|.......................|
.......................|.......................|.......................|.......................|.......................|.......................|.......................|.......................|.......................|.......................|
.......................|.......................|.......................|.......................|.......................|.......................|.......................|.......................|.......................|.......................|
.......................|.......................|.......................|.......................|.......................|.......................|.......................|.......................|.......................|.......................|
.......................|.......................|.......................|.......................|.......................|.......................|.......................|.......................|.......................|.......................|
.......................|.......................|.......................|.......................|.......................|.......................|.......................|.......................|.......................|.......................|
.......................|.......................|.......................|.......................|.......................|.......................|.......................|.......................|.......................|.......................|
.......................|.......................|.......................|.......................|.......................|.......................|.......................|.......................|.......................|.......................|
.......................|.......................|.......................|.......................|.......................|.......................|.......................|.......................|.......................|.......................|
C-0....................|.......................|.......................|.......................|.......................|.......................|.......................|.......................|.......................|.......................|
D#3....................|.......................|.......................|.......................|.......................|C-4C7..................|.......................|.......................|.......................|.......................|
.......................|.......................|.......................|.......................|.......................|.......................|.......................|.......................|.......................|.......................|
.......................|.......................|.......................|.......................|.......................|.......................|.......................|.......................|.......................|.......................|
.......................|.......................|.......................|.......................|.......................|.......................|.......................|.......................|.......................|.......................|
.......................|.......................|.......................|.......................|.......................|.......................|.......................|.......................|.......................|.......................|
.......................|.......................|.......................|.......................|.......................|.......................|.......................|.......................|.......................|.......................|
.......................|.......................|.......................|.......................|.......................|C-4C7..................|.......................|.......................|.......................|.......................|
.......................|.......................|.......................|.......................|.......................|.......................|.......................|.......................|.......................|.......................|
.......................|.......0452............|.......0452............|.......................|.......................|.......................|.......................|.......................|.......................|.......................|
.......................|.......................|.......................|.......................|.......................|.......................|.......................|.......................|.......................|.......................|
.......................|.......................|.......................|.......................|.......................|.......................|.......................|.......................|.......................|.......................|
C-0....................|C-0....................|C-0....................|.......................|.......................|.......................|.......................|.......................|.......................|.......................|
D#3....................|A#4....0400............|G-4....0400............|.......................|.......................|C-4C6..................|.......................|.......................|.......................|.......................|
.......................|.......................|.......................|.......................|.......................|.......................|.......................|.......................|.......................|.......................|
.......................|.......................|.......................|.......................|.......................|.......................|.......................|.......................|.......................|.......................|
.......................|.......................|.......................|.......................|.......................|.......................|.......................|.......................|.......................|.......................|
.......................|.......................|.......................|.......................|.......................|.......................|.......................|.......................|.......................|.......................|
.......................|C-0....................|C-0....................|.......................|.......................|.......................|.......................|.......................|.......................|.......................|
.......................|.......................|.......................|.......................|.......................|.......................|.......................|.......................|.......................|.......................|
.......................|.......................|.......................|.......................|.......................|.......................|.......................|.......................|.......................|.......................|
.......................|.......................|.......................|.......................|.......................|.......................|.......................|.......................|.......................|.......................|
.......................|.......................|.......................|.......................|.......................|.......................|.......................|.......................|.......................|.......................|
.......................|.......................|.......................|.......................|.......................|.......................|.......................|.......................|.......................|.......................|
C-0....................|.......................|.......................|.......................|.......................|.......................|.......................|.......................|.......................|.......................|
D#3....................|G-5....................|D#5....................|.......................|.......................|C-4C7..................|.......................|.......................|.......................|.......................|
.......................|.......................|.......................|.......................|.......................|.......................|.......................|.......................|.......................|.......................|
.......................|.......................|.......................|.......................|.......................|.......................|.......................|.......................|.......................|.......................|
.......................|.......................|.......................|.......................|.......................|.......................|.......................|.......................|.......................|.......................|
.......................|.......................|.......................|.......................|.......................|.......................|.......................|.......................|.......................|.......................|
.......................|.......................|.......................|.......................|.......................|.......................|.......................|.......................|.......................|.......................|
.......................|.......................|.......................|.......................|.......................|C-4C7..................|.......................|.......................|.......................|.......................|
.......................|.......................|.......................|.......................|.......................|.......................|.......................|.......................|.......................|.......................|
.......................|.......................|.......................|.......................|.......................|.......................|.......................|.......................|.......................|.......................|
.......................|.......................|.......................|.......................|.......................|.......................|.......................|.......................|.......................|.......................|
.......................|.......................|.......................|.......................|.......................|.......................|.......................|.......................|.......................|.......................|
C-0....................|.......................|.......................|.......................|.......................|.......................|.......................|.......................|.......................|.......................|
C-3....................|.......................|.......................|.......................|.......................|C-4C6..................|C-0....................|C-0....................|.......................|.......................|
.......................|.......................|.......................|.......................|.......................|.......................|.......................|.......................|.......................|.......................|
.......................|.......................|.......................|.......................|.......................|.......................|.......................|.......................|.......................|.......................|
.......................|.......................|.......................|.......................|.......................|.......................|.......................|.......................|.......................|.......................|
.......................|.......................|.......................|.......................|.......................|.......................|.......................|.......................|.......................|.......................|
.......................|C-0....................|C-0....................|.......................|.......................|.......................|.......................|.......................|.......................|.......................|
.......................|.......................|.......................|.......................|.......................|.......................|.......................|.......................|.......................|.......................|
.......................|.......................|.......................|.......................|.......................|.......................|.......................|.......................|.......................|.......................|
.......................|.......................|.......................|.......................|.......................|.......................|.......................|.......................|.......................|.......................|
.......................|.......................|.......................|.......................|.......................|.......................|.......................|.......................|.......................|.......................|
.......................|.......................|.......................|.......................|.......................|.......................|.......................|.......................|.......................|.......................|
C-0....................|.......................|.......................|.......................|.......................|.......................|.......................|.......................|.......................|.......................|
C-3....................|E-5....................|C-5....................|.......................|.......................|C-4C7..................|.......................|.......................|.......................|.......................|
.......................|.......................|.......................|.......................|.......................|.......................|.......................|.......................|.......................|.......................|
.......................|.......................|.......................|.......................|.......................|.......................|.......................|.......................|.......................|.......................|
.......................|.......................|.......................|.......................|.......................|.......................|.......................|.......................|.......................|.......................|
.......................|.......................|.......................|.......................|.......................|.......................|.......................|.......................|.......................|.......................|
.......................|C-0....................|C-0....................|.......................|.......................|.......................|.......................|.......................|.......................|.......................|
.......................|.......................|.......................|.......................|.......................|C-4C7..................|.......................|.......................|.......................|.......................|
.......................|.......................|.......................|.......................|.......................|.......................|.......................|.......................|.......................|.......................|
.......................|.......................|.......................|.......................|.......................|.......................|.......................|.......................|.......................|.......................|
.......................|.......................|.......................|.......................|.......................|.......................|.......................|.......................|.......................|.......................|
.......................|.......................|.......................|.......................|.......................|.......................|.......................|.......................|.......................|.......................|
C-0....................|.......................|.......................|.......................|.......................|.......................|.......................|.......................|.......................|.......................|
C-3....................|C-0....................|E-5....................|G-4....................|C-4....................|C-4C6..................|.......................|.......................|.......................|.......................|
.......................|.......................|.......................|.......................|.......................|.......................|.......................|.......................|.......................|.......................|
.......................|.......................|.......................|.......................|.......................|.......................|.......................|.......................|.......................|.......................|
.......................|.......................|.......................|.......................|.......................|.......................|.......................|.......................|.......................|.......................|
.......................|.......................|.......................|.......................|.......................|.......................|.......................|.......................|.......................|.......................|
.......................|.......................|.......................|.......................|.......................|.......................|.......................|.......................|.......................|.......................|
.......................|.......................|.......................|.......................|.......................|.......................|.......................|.......................|.......................|.......................|
.......................|.......................|.......................|.......................|.......................|.......................|.......................|.......................|.......................|.......................|
.......................|.......................|.......................|.......................|.......................|.......................|.......................|.......................|.......................|.......................|
.......................|.......................|.......................|.......................|.......................|.......................|.......................|.......................|.......................|.......................|
.......................|.......................|.......................|.......................|.......................|.......................|.......................|.......................|.......................|.......................|
C-0....................|.......................|.......................|.......................|.......................|.......................|.......................|.......................|.......................|.......................|
C-3....................|.......................|.......................|.......................|.......................|C-4C7..................|.......................|.......................|.......................|.......................|
.......................|.......................|.......................|.......................|.......................|.......................|.......................|.......................|.......................|.......................|
.......................|.......................|.......................|.......................|.......................|.......................|.......................|.......................|.......................|.......................|
.......................|.......................|.......................|.......................|.......................|.......................|.......................|.......................|.......................|.......................|
.......................|.......................|.......................|.......................|.......................|.......................|.......................|.......................|.......................|.......................|
.......................|.......................|.......................|.......................|.......................|.......................|.......................|.......................|.......................|.......................|
.......................|.......................|.......................|.......................|.......................|C-4C7..................|.......................|.......................|.......................|.......................|
.......................|.......................|.......................|.......................|.......................|.......................|.......................|.......................|.......................|.......................|
.......................|.......0452............|C-0....0452............|C-0....0452............|C-0....0452............|.......................|.......................|.......................|.......................|.......................|
.......................|.......................|.......................|.......................|.......................|.......................|.......................|.......................|.......................|.......................|
.......................|.......................|.......................|.......................|.......................|.......................|.......................|.......................|.......................|.......................|
C-0....................|.......................|.......................|.......................|.......................|.......................|.......................|.......................|.......................|.......................|
C-3....................|.......................|E-5....0400............|G-4....0400............|C-4....0400............|C-4C6..................|.......................|.......................|.......................|.......................|
.......................|.......................|.......................|.......................|.......................|.......................|.......................|.......................|.......................|.......................|
.......................|.......................|.......................|.......................|.......................|.......................|.......................|.......................|.......................|.......................|
.......................|.......................|.......................|.......................|.......................|.......................|.......................|.......................|.......................|.......................|
.......................|.......................|.......................|.......................|.......................|.......................|.......................|.......................|.......................|.......................|
.......................|.......................|.......................|.......................|.......................|.......................|.......................|.......................|.......................|.......................|
.......................|.......................|.......................|.......................|.......................|.......................|.......................|.......................|.......................|.......................|
.......................|.......................|.......................|.......................|.......................|.......................|.......................|.......................|.......................|.......................|
.......................|.......................|.......................|.......................|.......................|.......................|.......................|.......................|.......................|.......................|
.......................|.......................|.......................|.......................|.......................|.......................|.......................|.......................|.......................|.......................|
.......................|.......................|.......................|.......................|.......................|.......................|.......................|.......................|.......................|.......................|
C-0....................|.......................|.......................|.......................|.......................|.......................|.......................|.......................|.......................|.......................|
C-3....................|.......................|.......................|.......................|.......................|C-4C7..................|.......................|.......................|.......................|.......................|
.......................|.......................|.......................|.......................|.......................|.......................|.......................|.......................|.......................|.......................|
.......................|.......................|.......................|.......................|.......................|.......................|.......................|.......................|.......................|.......................|
.......................|.......................|.......................|.......................|.......................|.......................|.......................|.......................|.......................|.......................|
.......................|.......................|.......................|.......................|.......................|.......................|.......................|.......................|.......................|.......................|
.......................|.......................|.......................|.......................|.......................|.......................|.......................|.......................|.......................|.......................|
.......................|.......................|.......................|.......................|.......................|C-4C7..................|.......................|.......................|.......................|.......................|
.......................|.......................|.......................|.......................|.......................|.......................|.......................|.......................|.......................|.......................|
.......................|.......................|C-0....0452............|C-0....0452............|C-0....0452............|.......................|.......................|.......................|.......................|.......................|
.......................|.......................|.......................|.......................|.......................|.......................|.......................|.......................|.......................|.......................|
.......................|.......................|.......................|.......................|.......................|.......................|.......................|.......................|.......................|.......................|
C-0....................|.......................|.......................|.......................|.......................|.......................|.......................|.......................|.......................|.......................|
C-3....................|.......................|E-5....0400............|G-4....0400............|C-4....0400............|C-4C6..................|.......................|.......................|.......................|.......................|
.......................|.......................|.......................|.......................|.......................|.......................|.......................|.......................|.......................|.......................|
.......................|.......................|.......................|.......................|.......................|.......................|.......................|.......................|.......................|.......................|
.......................|.......................|.......................|.......................|.......................|.......................|.......................|.......................|.......................|.......................|
.......................|.......................|.......................|.......................|.......................|.......................|.......................|.......................|.......................|.......................|
.......................|C-0....................|C-0....................|C-0....................|C-0....................|.......................|.......................|.......................|.......................|.......................|
.......................|.......................|.......................|.......................|.......................|.......................|.......................|.......................|.......................|.......................|
.......................|.......................|.......................|.......................|.......................|.......................|.......................|.......................|.......................|.......................|
.......................|.......................|.......................|.......................|.......................|.......................|.......................|.......................|.......................|.......................|
.......................|.......................|.......................|.......................|.......................|.......................|.......................|.......................|.......................|.......................|
.......................|.......................|.......................|.......................|.......................|.......................|.......................|.......................|.......................|.......................|
C-0....................|.......................|.......................|.......................|.......................|.......................|.......................|.......................|.......................|.......................|
C-3....................|C-4....0400............|C-4....................|.......................|.......................|C-4C7..................|.......................|.......................|.......................|.......................|
.......................|.......................|.......................|.......................|.......................|.......................|.......................|.......................|.......................|.......................|
.......................|.......................|.......................|.......................|.......................|.......................|.......................|.......................|.......................|.......................|
.......................|.......................|.......................|.......................|.......................|.......................|.......................|.......................|.......................|.......................|
.......................|.......................|.......................|.......................|.......................|.......................|.......................|.......................|.......................|.......................|
.......................|C-0....................|C-0....................|.......................|.......................|.......................|.......................|.......................|.......................|.......................|
.......................|.......................|.......................|.......................|.......................|C-4C7..................|.......................|.......................|.......................|.......................|
.......................|.......................|.......................|.......................|.......................|.......................|.......................|.......................|.......................|.......................|
.......................|.......................|.......................|.......................|.......................|.......................|.......................|.......................|.......................|.......................|
.......................|.......................|.......................|.......................|.......................|.......................|.......................|.......................|.......................|.......................|
.......................|.......................|.......................|.......................|.......................|.......................|.......................|.......................|.......................|.......................|
C-0....................|.......................|.......................|.......................|.......................|.......................|.......................|.......................|.......................|.......................|
org.tildearrow.furnace - Pattern Data (219)
0
F-2....................|F-4....................|C-4....................|.......................|.......................|C-4C6..................|C-0....................|C-0....................|.......................|.......................|
.......................|.......................|.......................|.......................|.......................|.......................|.......................|.......................|.......................|.......................|
.......................|.......................|.......................|.......................|.......................|.......................|.......................|.......................|.......................|.......................|
.......................|.......................|.......................|.......................|.......................|.......................|.......................|.......................|.......................|.......................|
.......................|.......................|.......................|.......................|.......................|.......................|.......................|.......................|.......................|.......................|
.......................|.......................|.......................|.......................|.......................|.......................|.......................|.......................|.......................|.......................|
.......................|.......................|.......................|.......................|.......................|.......................|.......................|.......................|.......................|.......................|
.......................|.......................|.......................|.......................|.......................|.......................|.......................|.......................|.......................|.......................|
.......................|.......................|.......................|.......................|.......................|.......................|.......................|.......................|.......................|.......................|
.......................|.......................|.......................|.......................|.......................|.......................|.......................|.......................|.......................|.......................|
.......................|.......................|.......................|.......................|.......................|.......................|.......................|.......................|.......................|.......................|
C-0....................|.......................|.......................|.......................|.......................|.......................|.......................|.......................|.......................|.......................|
F-2....................|.......................|.......................|.......................|.......................|C-4C7..................|.......................|.......................|.......................|.......................|
.......................|.......................|.......................|.......................|.......................|.......................|.......................|.......................|.......................|.......................|
.......................|.......................|.......................|.......................|.......................|.......................|.......................|.......................|.......................|.......................|
.......................|.......................|.......................|.......................|.......................|.......................|.......................|.......................|.......................|.......................|
.......................|.......................|.......................|.......................|.......................|.......................|.......................|.......................|.......................|.......................|
.......................|.......................|.......................|.......................|.......................|.......................|.......................|.......................|.......................|.......................|
.......................|.......................|.......................|.......................|.......................|C-4C7..................|.......................|.......................|.......................|.......................|
.......................|.......................|.......................|.......................|.......................|.......................|.......................|.......................|.......................|.......................|
.......................|.......0452............|.......0452............|.......................|.......................|.......................|.......................|.......................|.......................|.......................|
.......................|.......................|.......................|.......................|.......................|.......................|.......................|.......................|.......................|.......................|
.......................|.......................|.......................|.......................|.......................|.......................|.......................|.......................|.......................|.......................|
C-0....................|C-0....................|C-0....................|.......................|.......................|.......................|.......................|.......................|.......................|.......................|
F-2....................|C-4....0400............|A-3....0400............|.......................|.......................|C-4C6..................|.......................|.......................|.......................|.......................|
.......................|.......................|.......................|.......................|.......................|.......................|.......................|.......................|.......................|.......................|
.......................|.......................|.......................|.......................|.......................|.......................|.......................|.......................|.......................|.......................|
.......................|.......................|.......................|.......................|.......................|.......................|.......................|.......................|.......................|.......................|
.......................|.......................|.......................|.......................|.......................|.......................|.......................|.......................|.......................|.......................|
.......................|.......................|.......................|.......................|.......................|.......................|.......................|.......................|.......................|.......................|
.......................|.......................|.......................|.......................|.......................|.......................|.......................|.......................|.......................|.......................|
.......................|.......................|.......................|.......................|.......................|.......................|.......................|.......................|.......................|.......................|
.......................|.......................|.......................|.......................|.......................|.......................|.......................|.......................|.......................|.......................|
.......................|.......................|.......................|.......................|.......................|.......................|.......................|.......................|.......................|.......................|
.......................|.......................|.......................|.......................|.......................|.......................|.......................|.......................|.......................|.......................|
C-0....................|.......................|.......................|.......................|.......................|.......................|.......................|.......................|.......................|.......................|
F-2....................|.......................|.......................|.......................|.......................|C-4C7..................|.......................|.......................|.......................|.......................|
.......................|.......................|.......................|.......................|.......................|.......................|.......................|.......................|.......................|.......................|
.......................|.......................|.......................|.......................|.......................|.......................|.......................|.......................|.......................|.......................|
.......................|.......................|.......................|.......................|.......................|.......................|.......................|.......................|.......................|.......................|
.......................|.......................|.......................|.......................|.......................|.......................|.......................|.......................|.......................|.......................|
.......................|.......................|.......................|.......................|.......................|.......................|.......................|.......................|.......................|.......................|
.......................|.......................|.......................|.......................|.......................|C-4C7..................|.......................|.......................|.......................|.......................|
.......................|.......................|.......................|.......................|.......................|.......................|.......................|.......................|.......................|.......................|
.......................|.......0452............|.......0452............|.......................|.......................|.......................|.......................|.......................|.......................|.......................|
.......................|.......................|.......................|.......................|.......................|.......................|.......................|.......................|.......................|.......................|
.......................|.......................|.......................|.......................|.......................|.......................|.......................|.......................|.......................|.......................|
C-0....................|C-0....................|C-0....................|.......................|.......................|.......................|.......................|.......................|.......................|.......................|
F-2....................|A-4....0400............|F-4....0400............|.......................|.......................|C-4C6..................|.......................|.......................|.......................|.......................|
.......................|.......................|.......................|.......................|.......................|.......................|.......................|.......................|.......................|.......................|
.......................|.......................|.......................|.......................|.......................|.......................|.......................|.......................|.......................|.......................|
.......................|.......................|.......................|.......................|.......................|.......................|.......................|.......................|.......................|.......................|
.......................|.......................|.......................|.......................|.......................|.......................|.......................|.......................|.......................|.......................|
.......................|.......................|.......................|.......................|.......................|.......................|.......................|.......................|.......................|.......................|
.......................|.......................|.......................|.......................|.......................|.......................|.......................|.......................|.......................|.......................|
.......................|.......................|.......................|.......................|.......................|.......................|.......................|.......................|.......................|.......................|
.......................|.......................|.......................|.......................|.......................|.......................|.......................|.......................|.......................|.......................|
.......................|.......................|.......................|.......................|.......................|.......................|.......................|.......................|.......................|.......................|
.......................|.......................|.......................|.......................|.......................|.......................|.......................|.......................|.......................|.......................|
C-0....................|.......................|.......................|.......................|.......................|.......................|.......................|.......................|.......................|.......................|
F-2....................|.......................|.......................|.......................|.......................|C-4C7..................|.......................|.......................|.......................|.......................|
.......................|.......................|.......................|.......................|.......................|.......................|.......................|.......................|.......................|.......................|
.......................|.......................|.......................|.......................|.......................|.......................|.......................|.......................|.......................|.......................|
.......................|.......................|.......................|.......................|.......................|.......................|.......................|.......................|.......................|.......................|
.......................|.......................|.......................|.......................|.......................|.......................|.......................|.......................|.......................|.......................|
.......................|.......................|.......................|.......................|.......................|.......................|.......................|.......................|.......................|.......................|
.......................|.......................|.......................|.......................|.......................|C-4C7..................|.......................|.......................|.......................|.......................|
.......................|.......................|.......................|.......................|.......................|.......................|.......................|.......................|.......................|.......................|
.......................|.......0452............|.......0452............|.......................|.......................|.......................|.......................|.......................|.......................|.......................|
.......................|.......................|.......................|.......................|.......................|.......................|.......................|.......................|.......................|.......................|
.......................|.......................|.......................|.......................|.......................|.......................|.......................|.......................|.......................|.......................|
C-0....................|C-0....................|C-0....................|.......................|.......................|.......................|.......................|.......................|.......................|.......................|
F-2....................|F-4....0400............|C-4....0400............|.......................|.......................|C-4C6..................|.......................|.......................|.......................|.......................|
.......................|.......................|.......................|.......................|.......................|.......................|.......................|.......................|.......................|.......................|
.......................|.......................|.......................|.......................|.......................|.......................|.......................|.......................|.......................|.......................|
.......................|.......................|.......................|.......................|.......................|.......................|.......................|.......................|.......................|.......................|
.......................|.......................|.......................|.......................|.......................|.......................|.......................|.......................|.......................|.......................|
.......................|C-0....................|C-0....................|.......................|.......................|.......................|.......................|.......................|.......................|.......................|
.......................|.......................|.......................|.......................|.......................|.......................|.......................|.......................|.......................|.......................|
.......................|.......................|.......................|.......................|.......................|.......................|.......................|.......................|.......................|.......................|
.......................|.......................|.......................|.......................|.......................|.......................|.......................|.......................|.......................|.......................|
.......................|.......................|.......................|.......................|.......................|.......................|.......................|.......................|.......................|.......................|
.......................|.......................|.......................|.......................|.......................|.......................|.......................|.......................|.......................|.......................|
C-0....................|.......................|.......................|.......................|.......................|.......................|.......................|.......................|.......................|.......................|
F-2....................|C-5....................|A-4....................|.......................|.......................|C-4C7..................|.......................|.......................|.......................|.......................|
.......................|.......................|.......................|.......................|.......................|.......................|.......................|.......................|.......................|.......................|
.......................|.......................|.......................|.......................|.......................|.......................|.......................|.......................|.......................|.......................|
.......................|.......................|.......................|.......................|.......................|.......................|.......................|.......................|.......................|.......................|
.......................|.......................|.......................|.......................|.......................|.......................|.......................|.......................|.......................|.......................|
.......................|.......................|.......................|.......................|.......................|.......................|.......................|.......................|.......................|.......................|
.......................|.......................|.......................|.......................|.......................|C-4C7..................|.......................|.......................|.......................|.......................|
.......................|.......................|.......................|.......................|.......................|.......................|.......................|.......................|.......................|.......................|
.......................|.......................|.......................|.......................|.......................|.......................|.......................|.......................|.......................|.......................|
.......................|.......................|.......................|.......................|.......................|.......................|.......................|.......................|.......................|.......................|
.......................|.......................|.......................|.......................|.......................|.......................|.......................|.......................|.......................|.......................|
C-0....................|.......................|.......................|.......................|.......................|.......................|.......................|.......................|.......................|.......................|
D-3....................|.......................|.......................|.......................|.......................|C-4C6..................|C-0....................|C-0....................|.......................|.......................|
.......................|.......................|.......................|.......................|.......................|.......................|.......................|.......................|.......................|.......................|
.......................|.......................|.......................|.......................|.......................|.......................|.......................|.......................|.......................|.......................|
.......................|.......................|.......................|.......................|.......................|.......................|.......................|.......................|.......................|.......................|
.......................|.......................|.......................|.......................|.......................|.......................|.......................|.......................|.......................|.......................|
.......................|C-0....................|C-0....................|.......................|.......................|.......................|.......................|.......................|.......................|.......................|
.......................|.......................|.......................|.......................|.......................|.......................|.......................|.......................|.......................|.......................|
.......................|.......................|.......................|.......................|.......................|.......................|.......................|.......................|.......................|.......................|
.......................|.......................|.......................|.......................|.......................|.......................|.......................|.......................|.......................|.......................|
.......................|.......................|.......................|.......................|.......................|.......................|.......................|.......................|.......................|.......................|
.......................|.......................|.......................|.......................|.......................|.......................|.......................|.......................|.......................|.......................|
C-0....................|.......................|.......................|.......................|.......................|.......................|.......................|.......................|.......................|.......................|
D-3....................|A-4....................|F-4....................|.......................|.......................|C-4C7..................|.......................|.......................|.......................|.......................|
.......................|.......................|.......................|.......................|.......................|.......................|.......................|.......................|.......................|.......................|
.......................|.......................|.......................|.......................|.......................|.......................|.......................|.......................|.......................|.......................|
.......................|.......................|.......................|.......................|.......................|.......................|.......................|.......................|.......................|.......................|
.......................|.......................|.......................|.......................|.......................|.......................|.......................|.......................|.......................|.......................|
.......................|C-0....................|C-0....................|.......................|.......................|.......................|.......................|.......................|.......................|.......................|
.......................|.......................|.......................|.......................|.......................|C-4C7..................|.......................|.......................|.......................|.......................|
.......................|.......................|.......................|.......................|.......................|.......................|.......................|.......................|.......................|.......................|
.......................|.......................|.......................|.......................|.......................|.......................|.......................|.......................|.......................|.......................|
.......................|.......................|.......................|.......................|.......................|.......................|.......................|.......................|.......................|.......................|
.......................|.......................|.......................|.......................|.......................|.......................|.......................|.......................|.......................|.......................|
C-0....................|.......................|.......................|.......................|.......................|.......................|.......................|.......................|.......................|.......................|
D-3....................|C-0....................|F#5....................|C-5....................|D-5....................|C-4C6..................|.......................|.......................|.......................|.......................|
.......................|.......................|.......................|.......................|.......................|.......................|.......................|.......................|.......................|.......................|
.......................|.......................|.......................|.......................|.......................|.......................|.......................|.......................|.......................|.......................|
.......................|.......................|.......................|.......................|.......................|.......................|.......................|.......................|.......................|.......................|
.......................|.......................|.......................|.......................|.......................|.......................|.......................|.......................|.......................|.......................|
.......................|.......................|.......................|.......................|.......................|.......................|.......................|.......................|.......................|.......................|
.......................|.......................|.......................|.......................|.......................|.......................|.......................|.......................|.......................|.......................|
.......................|.......................|.......................|.......................|.......................|.......................|.......................|.......................|.......................|.......................|
.......................|.......................|.......................|.......................|.......................|.......................|.......................|.......................|.......................|.......................|
.......................|.......................|.......................|.......................|.......................|.......................|.......................|.......................|.......................|.......................|
.......................|.......................|.......................|.......................|.......................|.......................|.......................|.......................|.......................|.......................|
C-0....................|.......................|.......................|.......................|.......................|.......................|.......................|.......................|.......................|.......................|
D-3....................|.......................|.......................|.......................|.......................|C-4C7..................|.......................|.......................|.......................|.......................|
.......................|.......................|.......................|.......................|.......................|.......................|.......................|.......................|.......................|.......................|
.......................|.......................|.......................|.......................|.......................|.......................|.......................|.......................|.......................|.......................|
.......................|.......................|.......................|.......................|.......................|.......................|.......................|.......................|.......................|.......................|
.......................|.......................|.......................|.......................|.......................|.......................|.......................|.......................|.......................|.......................|
.......................|.......................|.......................|.......................|C-0....................|.......................|.......................|.......................|.......................|.......................|
.......................|.......................|.......................|.......................|.......................|C-4C7..................|.......................|.......................|.......................|.......................|
.......................|.......................|.......................|.......................|.......................|.......................|.......................|.......................|.......................|.......................|
.......................|.......0452............|C-0....0452............|C-0....0452............|.......................|.......................|.......................|.......................|.......................|.......................|
.......................|.......................|.......................|.......................|.......................|.......................|.......................|.......................|.......................|.......................|
.......................|.......................|.......................|.......................|.......................|.......................|.......................|.......................|.......................|.......................|
C-0....................|.......................|.......................|.......................|.......................|.......................|.......................|.......................|.......................|.......................|
D-3....................|.......................|F#5....0400............|C-5....0400............|D-5....................|C-4C6..................|.......................|.......................|.......................|.......................|
.......................|.......................|.......................|.......................|.......................|.......................|.......................|.......................|.......................|.......................|
.......................|.......................|.......................|.......................|.......................|.......................|.......................|.......................|.......................|.......................|
.......................|.......................|.......................|.......................|.......................|.......................|.......................|.......................|.......................|.......................|
.......................|.......................|.......................|.......................|.......................|.......................|.......................|.......................|.......................|.......................|
.......................|.......................|.......................|.......................|.......................|.......................|.......................|.......................|.......................|.......................|
.......................|.......................|.......................|.......................|.......................|.......................|.......................|.......................|.......................|.......................|
.......................|.......................|.......................|.......................|.......................|.......................|.......................|.......................|.......................|.......................|
.......................|.......................|.......................|.......................|.......................|.......................|.......................|.......................|.......................|.......................|
.......................|.......................|.......................|.......................|.......................|.......................|.......................|.......................|.......................|.......................|
.......................|.......................|.......................|.......................|.......................|.......................|.......................|.......................|.......................|.......................|
C-0....................|.......................|.......................|.......................|.......................|.......................|.......................|.......................|.......................|.......................|
D-3....................|.......................|.......................|.......................|.......................|C-4C7..................|.......................|.......................|.......................|.......................|
.......................|.......................|.......................|.......................|.......................|.......................|.......................|.......................|.......................|.......................|
.......................|.......................|.......................|.......................|.......................|.......................|.......................|.......................|.......................|.......................|
.......................|.......................|.......................|.......................|.......................|.......................|.......................|.......................|.......................|.......................|
.......................|.......................|.......................|.......................|.......................|.......................|.......................|.......................|.......................|.......................|
.......................|.......................|.......................|.......................|C-0....................|.......................|.......................|.......................|.......................|.......................|
.......................|.......................|.......................|.......................|.......................|C-4C7..................|.......................|.......................|.......................|.......................|
.......................|.......................|.......................|.......................|.......................|.......................|.......................|.......................|.......................|.......................|
.......................|.......................|C-0....0452............|C-0....0452............|.......................|.......................|.......................|.......................|.......................|.......................|
.......................|.......................|.......................|.......................|.......................|.......................|.......................|.......................|.......................|.......................|
.......................|.......................|.......................|.......................|.......................|.......................|.......................|.......................|.......................|.......................|
C-0....................|.......................|.......................|.......................|.......................|.......................|.......................|.......................|.......................|.......................|
D-3....................|.......................|F#5....0400............|C-5....0400............|D-5....................|C-4C6..................|.......................|.......................|.......................|.......................|
.......................|.......................|.......................|.......................|.......................|.......................|.......................|.......................|.......................|.......................|
.......................|.......................|.......................|.......................|.......................|.......................|.......................|.......................|.......................|.......................|
.......................|.......................|.......................|.......................|.......................|.......................|.......................|.......................|.......................|.......................|
.......................|.......................|.......................|.......................|.......................|.......................|.......................|.......................|.......................|.......................|
.......................|.......................|.......................|.......................|.......................|.......................|.......................|.......................|.......................|.......................|
.......................|.......................|.......................|.......................|.......................|.......................|.......................|.......................|.......................|.......................|
.......................|.......................|.......................|.......................|.......................|.......................|.......................|.......................|.......................|.......................|
.......................|.......................|.......................|.......................|.......................|.......................|.......................|.......................|.......................|.......................|
.......................|.......................|.......................|.......................|.......................|.......................|.......................|.......................|.......................|.......................|
.......................|.......................|.......................|.......................|.......................|.......................|.......................|.......................|.......................|.......................|
C-0....................|.......................|.......................|.......................|.......................|.......................|.......................|.......................|.......................|.......................|
D-3....................|.......................|.......................|.......................|.......................|C-4C7..................|.......................|.......................|.......................|.......................|
.......................|.......................|.......................|.......................|.......................|.......................|.......................|.......................|.......................|.......................|
.......................|.......................|.......................|.......................|.......................|.......................|.......................|.......................|.......................|.......................|
.......................|.......................|.......................|.......................|.......................|.......................|.......................|.......................|.......................|.......................|
.......................|.......................|.......................|.......................|.......................|.......................|.......................|.......................|.......................|.......................|
.......................|.......................|.......................|.......................|C-0....................|.......................|.......................|.......................|.......................|.......................|
.......................|.......................|.......................|.......................|.......................|C-4C7..................|.......................|.......................|.......................|.......................|
.......................|.......................|.......................|.......................|.......................|.......................|.......................|.......................|.......................|.......................|
.......................|.......................|C-0....0452............|.......0452............|.......................|.......................|.......................|.......................|.......................|.......................|
.......................|.......................|.......................|.......................|.......................|.......................|.......................|.......................|.......................|.......................|
.......................|.......................|.......................|.......................|.......................|.......................|.......................|.......................|.......................|.......................|
C-0....................|C-0....................|.......................|C-0....................|.......................|.......................|.......................|.......................|.......................|.......................|
G-2....................|G-5....0400............|D-4....0400............|B-4....0400............|G-4....................|C-4C6..................|C-0....................|C-0....................|.......................|.......................|
.......................|.......................|.......................|.......................|.......................|.......................|.......................|.......................|.......................|.......................|
.......................|.......................|.......................|.......................|.......................|.......................|.......................|.......................|.......................|.......................|
.......................|.......................|.......................|.......................|.......................|.......................|.......................|.......................|.......................|.......................|
.......................|.......................|.......................|.......................|.......................|.......................|.......................|.......................|.......................|.......................|
.......................|.......................|.......................|.......................|.......................|.......................|.......................|.......................|.......................|.......................|
.......................|.......................|.......................|.......................|.......................|.......................|.......................|.......................|.......................|.......................|
.......................|.......................|.......................|.......................|.......................|.......................|.......................|.......................|.......................|.......................|
.......................|.......................|.......................|.......................|.......................|.......................|.......................|.......................|.......................|.......................|
.......................|.......................|.......................|.......................|.......................|.......................|.......................|.......................|.......................|.......................|
.......................|.......................|.......................|.......................|.......................|.......................|.......................|.......................|.......................|.......................|
C-0....................|C-0....................|C-0....................|C-0....................|C-0....................|.......................|.......................|.......................|.......................|.......................|
.......................|.......................|.......................|.......................|.......................|C-4C1..................|.......................|.......................|.......................|.......................|
.......................|.......................|.......................|.......................|.......................|.......................|.......................|.......................|.......................|.......................|
.......................|.......................|.......................|.......................|.......................|.......................|.......................|.......................|.......................|.......................|
.......................|.......................|.......................|.......................|.......................|.......................|.......................|.......................|.......................|.......................|
.......................|.......................|.......................|.......................|.......................|.......................|.......................|.......................|.......................|.......................|
.......................|.......................|.......................|.......................|.......................|.......................|.......................|.......................|.......................|.......................|
.......................|.......................|.......................|.......................|.......................|C-4C1..................|.......................|.......................|.......................|.......................|
.......................|.......................|.......................|.......................|.......................|.......................|.......................|.......................|.......................|.......................|
.......................|.......................|.......................|.......................|.......................|.......................|.......................|.......................|.......................|.......................|
.......................|.......................|.......................|.......................|.......................|.......................|.......................|.......................|.......................|.......................|
.......................|.......................|.......................|.......................|.......................|.......................|.......................|.......................|.......................|.......................|
.......................|.......................|.......................|.......................|.......................|.......................|.......................|.......................|.......................|.......................|
G#2....................|C-0..67................|D#4..67................|C-5..67................|G#4..67................|C-4C6..................|G#1..0D0400............|.......................|.......................|.......................|
.......................|.......................|.......................|.......................|.......................|.......................|.......................|.......................|.......................|.......................|
.......................|.......................|.......................|.......................|.......................|.......................|.......................|.......................|.......................|.......................|
.......................|.......................|.......................|.......................|.......................|.......................|.......................|.......................|.......................|.......................|
.......................|.......................|.......................|.......................|.......................|.......................|.......................|.......................|.......................|.......................|
.......................|.......................|.......................|.......................|.......................|.......................|C-0....................|.......................|.......................|.......................|
.......................|.......................|.......................|.......................|.......................|.......................|G-1....................|.......................|.......................|.......................|
.......................|.......................|.......................|.......................|.......................|.......................|.......................|.......................|.......................|.......................|
.......................|.......................|.......................|.......................|.......................|.......................|.......................|G#1..0B0400............|.......................|.......................|
.......................|.......................|.......................|.......................|.......................|.......................|.......................|.......................|.......................|.......................|
.......................|.......................|.......................|.......................|.......................|.......................|.......................|.......................|.......................|.......................|
.......................|.......................|.......................|.......................|.......................|.......................|C-0....................|.......................|.......................|.......................|
.......................|.......................|.......................|.......................|.......................|.......................|G#1....................|.......................|.......................|.......................|
.......................|.......................|.......................|.......................|.......................|.......................|.......................|C-0....................|.......................|.......................|
.......................|.......................|.......................|.......................|.......................|.......................|.......................|G-1....................|.......................|.......................|
.......................|.......................|.......................|.......................|.......................|.......................|.......................|.......................|.......................|.......................|
.......................|.......................|.......................|.......................|.......................|.......................|.......................|.......................|.......................|.......................|
.......................|.......................|.......................|.......................|.......................|.......................|C-0....................|.......................|.......................|.......................|
.......................|.......................|.......................|.......................|.......................|.......................|A#1....................|.......................|.......................|.......................|
.......................|.......................|.......................|.......................|.......................|.......................|.......................|C-0....................|.......................|.......................|
.......0452............|.......0452............|.......0452............|.......0452............|.......0452............|.......................|.......................|G#1....................|.......................|.......................|
.......................|.......................|.......................|.......................|.......................|.......................|.......................|.......................|.......................|.......................|
.......................|.......................|.......................|.......................|.......................|.......................|.......................|.......................|.......................|.......................|
.......................|.......................|.......................|.......................|.......................|.......................|C-0....................|.......................|.......................|.......................|
.......................|.......................|.......................|.......................|.......................|C-4C0..................|C-2....................|.......................|.......................|.......................|
.......................|.......................|.......................|.......................|.......................|.......................|.......................|C-0....................|.......................|.......................|
.......................|.......................|.......................|.......................|.......................|.......................|.......................|A#1....................|.......................|.......................|
.......................|.......................|.......................|.......................|.......................|.......................|.......................|.......................|.......................|.......................|
.......................|.......................|.......................|.......................|.......................|.......................|.......................|.......................|.......................|.......................|
.......................|.......................|.......................|.......................|.......................|.......................|C-0....................|.......................|.......................|.......................|
.......................|.......................|.......................|.......................|.......................|C-4C2..................|D-2....................|.......................|.......................|.......................|
.......................|.......................|.......................|.......................|.......................|.......................|.......................|C-0....................|.......................|.......................|
.......................|.......................|.......................|.......................|.......................|.......................|.......................|C-2....................|.......................|.......................|
.......................|.......................|.......................|.......................|.......................|.......................|.......................|.......................|.......................|.......................|
.......................|.......................|.......................|.......................|.......................|.......................|.......................|.......................|.......................|.......................|
.......................|.......................|.......................|.......................|.......................|.......................|C-0....................|.......................|.......................|.......................|
.......................|.......................|.......................|.......................|.......................|.......................|D#2....................|.......................|.......................|.......................|
.......................|.......................|.......................|.......................|.......................|.......................|.......................|C-0....................|.......................|.......................|
.......................|.......................|.......................|.......................|.......................|.......................|.......................|D-2....................|.......................|.......................|
.......................|.......................|.......................|.......................|.......................|.......................|.......................|.......................|.......................|.......................|
org.tildearrow.furnace - Pattern Data (219)
0
.......................|.......................|.......................|.......................|.......................|.......................|.......................|.......................|.......................|.......................|
.......................|.......................|.......................|.......................|.......................|.......................|C-0....................|.......................|.......................|.......................|
.......................|.......................|.......................|.......................|.......................|C-4C2..................|F-2....................|.......................|.......................|.......................|
.......................|.......................|.......................|.......................|.......................|.......................|.......................|C-0....................|.......................|.......................|
.......................|.......................|.......................|.......................|.......................|.......................|.......................|D#2....................|.......................|.......................|
.......................|.......................|.......................|.......................|.......................|.......................|.......................|.......................|.......................|.......................|
.......................|.......................|.......................|.......................|.......................|.......................|.......................|.......................|.......................|.......................|
C-0....................|C-0....................|C-0....................|C-0....................|C-0....................|.......................|C-0....................|.......................|.......................|.......................|
G#2....0400............|C-0..630400............|D#4..630400............|C-5..630400............|G#4..630400............|C-4C3..................|G-2....................|.......................|.......................|.......................|
.......................|.......................|.......................|.......................|.......................|.......................|.......................|C-0....................|.......................|.......................|
.......................|.......................|.......................|.......................|.......................|.......................|.......................|F-2....................|.......................|.......................|
.......................|.......................|.......................|.......................|.......................|.......................|C-0....................|.......................|.......................|.......................|
.......................|.......................|.......................|.......................|.......................|.......................|G#2....................|.......................|.......................|.......................|
.......................|.......................|.......................|.......................|.......................|.......................|.......................|.......................|.......................|.......................|
.......................|.......................|.......................|.......................|.......................|C-4C3..................|.......................|.......................|.......................|.......................|
.......................|.......................|.......................|.......................|.......................|.......................|C-0....................|C-0....................|.......................|.......................|
.......................|.......................|.......................|.......................|.......................|.......................|A#2....................|G-2....................|.......................|.......................|
.......................|.......................|.......................|.......................|.......................|.......................|.......................|.......................|.......................|.......................|
.......................|.......................|.......................|.......................|.......................|.......................|.......................|.......................|.......................|.......................|
.......................|.......................|.......................|.......................|.......................|.......................|C-0....................|C-0....................|.......................|.......................|
.......................|.......................|.......................|.......................|.......................|C-4C4..................|C-3....................|G#2....................|.......................|.......................|
.......................|.......................|.......................|.......................|.......................|.......................|.......................|.......................|.......................|.......................|
.......................|.......................|.......................|.......................|.......................|.......................|C-0....................|.......................|.......................|.......................|
.......................|.......................|.......................|.......................|.......................|.......................|D-3....................|C-0....................|.......................|.......................|
.......................|.......................|.......................|.......................|.......................|.......................|.......................|A#2....................|.......................|.......................|
.......................|.......................|.......................|.......................|.......................|.......................|C-0....................|.......................|.......................|.......................|
.......................|.......................|.......................|.......................|.......................|C-4C4..................|D#3....................|.......................|.......................|.......................|
.......................|.......................|.......................|.......................|.......................|.......................|.......................|C-0....................|.......................|.......................|
.......0452............|.......0452............|.......0452............|.......0452............|.......0452............|.......................|C-0....................|C-3....................|.......................|.......................|
.......................|.......................|.......................|.......................|.......................|.......................|F-3....................|.......................|.......................|.......................|
.......................|.......................|.......................|.......................|.......................|.......................|.......................|C-0....................|.......................|.......................|
C-0....................|C-0....................|C-0....................|C-0....................|C-0....................|.......................|C-0....................|D-3....................|.......................|.......................|
G-2....0400............|G-5....0400............|D-4....0400............|B-4....0400............|G-4....0400............|C-4C6..................|G-3....................|.......................|.......................|.......................|
.......................|.......................|.......................|.......................|.......................|.......................|.......................|C-0....................|.......................|.......................|
.......................|.......................|.......................|.......................|.......................|.......................|.......................|D#3....................|.......................|.......................|
.......................|.......................|.......................|.......................|.......................|.......................|.......................|.......................|.......................|.......................|
.......................|.......................|.......................|.......................|.......................|.......................|.......................|C-0....................|.......................|.......................|
.......................|.......................|.......................|.......................|.......................|.......................|.......................|F-3....................|.......................|.......................|
.......................|.......................|.......................|.......................|.......................|.......................|.......................|.......................|.......................|.......................|
.......................|.......................|.......................|.......................|.......................|.......................|.......................|C-0....................|.......................|.......................|
.......................|.......................|.......................|.......................|.......................|.......................|.......................|G-3....................|.......................|.......................|
.......................|.......................|.......................|.......................|.......................|.......................|.......................|.......................|.......................|.......................|
.......................|.......................|.......................|.......................|.......................|.......................|.......................|.......................|.......................|.......................|
C-0....................|C-0....................|C-0....................|C-0....................|C-0....................|.......................|C-0....................|.......................|.......................|.......................|
.......................|.......................|.......................|.......................|.......................|C-4C1..................|C-0....................|.......................|.......................|.......................|
.......................|.......................|.......................|.......................|.......................|.......................|.......................|.......................|.......................|.......................|
.......................|.......................|.......................|.......................|.......................|.......................|.......................|.......................|.......................|.......................|
.......................|.......................|.......................|.......................|.......................|.......................|.......................|.......................|.......................|.......................|
.......................|.......................|.......................|.......................|.......................|.......................|.......................|.......................|.......................|.......................|
.......................|.......................|.......................|.......................|.......................|.......................|.......................|.......................|.......................|.......................|
.......................|.......................|.......................|.......................|.......................|C-4C1..................|.......................|.......................|.......................|.......................|
.......................|.......................|.......................|.......................|.......................|.......................|.......................|C-0....................|.......................|.......................|
.......................|.......................|.......................|.......................|.......................|.......................|.......................|C-0....................|.......................|.......................|
.......................|.......................|.......................|.......................|.......................|.......................|.......................|.......................|.......................|.......................|
.......................|.......................|.......................|.......................|.......................|.......................|.......................|.......................|.......................|.......................|
.......................|.......................|.......................|.......................|.......................|.......................|.......................|.......................|.......................|.......................|
G#2....................|C-0..67................|D#4..67................|C-5..67................|G#4..67................|C-4C9..................|G#1....................|.......................|.......................|.......................|
.......................|.......................|.......................|.......................|.......................|.......................|.......................|.......................|.......................|.......................|
.......................|.......................|.......................|.......................|.......................|.......................|.......................|.......................|.......................|.......................|
.......................|.......................|.......................|.......................|.......................|.......................|.......................|.......................|.......................|.......................|
.......................|.......................|.......................|.......................|.......................|.......................|.......................|.......................|.......................|.......................|
.......................|.......................|.......................|.......................|.......................|.......................|C-0....................|.......................|.......................|.......................|
.......................|.......................|.......................|.......................|.......................|.......................|G-1....................|.......................|.......................|.......................|
.......................|.......................|.......................|.......................|.......................|.......................|.......................|.......................|.......................|.......................|
.......................|.......................|.......................|.......................|.......................|.......................|.......................|G#1....................|.......................|.......................|
.......................|.......................|.......................|.......................|.......................|.......................|.......................|.......................|.......................|.......................|
.......................|.......................|.......................|.......................|.......................|.......................|.......................|.......................|.......................|.......................|
.......................|.......................|.......................|.......................|.......................|.......................|C-0....................|.......................|.......................|.......................|
.......................|.......................|.......................|.......................|.......................|.......................|G#1....................|.......................|.......................|.......................|
.......................|.......................|.......................|.......................|.......................|.......................|.......................|C-0....................|.......................|.......................|
.......................|.......................|.......................|.......................|.......................|.......................|.......................|G-1....................|.......................|.......................|
.......................|.......................|.......................|.......................|.......................|.......................|.......................|.......................|.......................|.......................|
.......................|.......................|.......................|.......................|.......................|.......................|.......................|.......................|.......................|.......................|
.......................|.......................|.......................|.......................|.......................|.......................|C-0....................|.......................|.......................|.......................|
.......................|.......................|.......................|.......................|.......................|.......................|A#1....................|.......................|.......................|.......................|
.......................|.......................|.......................|.......................|.......................|.......................|.......................|C-0....................|.......................|.......................|
.......0452............|.......0452............|.......0452............|.......0452............|.......0452............|.......................|.......................|G#1....................|.......................|.......................|
.......................|.......................|.......................|.......................|.......................|.......................|.......................|.......................|.......................|.......................|
.......................|.......................|.......................|.......................|.......................|.......................|.......................|.......................|.......................|.......................|
.......................|.......................|.......................|.......................|.......................|.......................|C-0....................|.......................|.......................|.......................|
.......................|.......................|.......................|.......................|.......................|C-4C2..................|C-2....................|.......................|.......................|.......................|
.......................|.......................|.......................|.......................|.......................|.......................|.......................|C-0....................|.......................|.......................|
.......................|.......................|.......................|.......................|.......................|.......................|.......................|A#1....................|.......................|.......................|
.......................|.......................|.......................|.......................|.......................|.......................|.......................|.......................|.......................|.......................|
.......................|.......................|.......................|.......................|.......................|C-4C2..................|.......................|.......................|.......................|.......................|
.......................|.......................|.......................|.......................|.......................|.......................|C-0....................|.......................|.......................|.......................|
.......................|.......................|.......................|.......................|.......................|.......................|D-2....................|.......................|.......................|.......................|
.......................|.......................|.......................|.......................|.......................|.......................|.......................|C-0....................|.......................|.......................|
.......................|.......................|.......................|.......................|.......................|C-4C2..................|.......................|C-2....................|.......................|.......................|
.......................|.......................|.......................|.......................|.......................|.......................|.......................|.......................|.......................|.......................|
.......................|.......................|.......................|.......................|.......................|.......................|.......................|.......................|.......................|.......................|
.......................|.......................|.......................|.......................|.......................|.......................|C-0....................|.......................|.......................|.......................|
.......................|.......................|.......................|.......................|.......................|C-4C2..................|D#2....................|.......................|.......................|.......................|
.......................|.......................|.......................|.......................|.......................|.......................|.......................|C-0....................|.......................|.......................|
.......................|.......................|.......................|.......................|.......................|.......................|.......................|D-2....................|.......................|.......................|
.......................|.......................|.......................|.......................|.......................|.......................|.......................|.......................|.......................|.......................|
.......................|.......................|.......................|.......................|.......................|C-4C2..................|.......................|.......................|.......................|.......................|
.......................|.......................|.......................|.......................|.......................|.......................|C-0....................|.......................|.......................|.......................|
.......................|.......................|.......................|.......................|.......................|.......................|F-2....................|.......................|.......................|.......................|
.......................|.......................|.......................|.......................|.......................|.......................|.......................|C-0....................|.......................|.......................|
.......................|.......................|.......................|.......................|.......................|C-4C2..................|.......................|D#2....................|.......................|.......................|
.......................|.......................|.......................|.......................|.......................|.......................|.......................|.......................|.......................|.......................|
.......................|.......................|.......................|.......................|.......................|.......................|.......................|.......................|.......................|.......................|
C-0....................|C-0....................|C-0....................|C-0....................|C-0....................|.......................|C-0....................|.......................|.......................|.......................|
G#2....0400............|C-0..630400............|D#4..630400............|C-5..630400............|G#4..630400............|C-4C3..................|G-2....................|.......................|.......................|.......................|
.......................|.......................|.......................|.......................|.......................|.......................|.......................|C-0....................|.......................|.......................|
.......................|.......................|.......................|.......................|.......................|.......................|.......................|F-2....................|.......................|.......................|
.......................|.......................|.......................|.......................|.......................|.......................|C-0....................|.......................|.......................|.......................|
.......................|.......................|.......................|.......................|.......................|C-4C3..................|G#2....................|.......................|.......................|.......................|
.......................|.......................|.......................|.......................|.......................|.......................|.......................|.......................|.......................|.......................|
.......................|.......................|.......................|.......................|.......................|.......................|.......................|.......................|.......................|.......................|
.......................|.......................|.......................|.......................|.......................|.......................|C-0....................|C-0....................|.......................|.......................|
.......................|.......................|.......................|.......................|.......................|C-4C3..................|A#2....................|G-2....................|.......................|.......................|
.......................|.......................|.......................|.......................|.......................|.......................|.......................|.......................|.......................|.......................|
.......................|.......................|.......................|.......................|.......................|.......................|.......................|.......................|.......................|.......................|
.......................|.......................|.......................|.......................|.......................|.......................|C-0....................|C-0....................|.......................|.......................|
.......................|.......................|.......................|.......................|.......................|C-4C4..................|C-3....................|G#2....................|.......................|.......................|
.......................|.......................|.......................|.......................|.......................|.......................|.......................|.......................|.......................|.......................|
.......................|.......................|.......................|.......................|.......................|.......................|C-0....................|.......................|.......................|.......................|
.......................|.......................|.......................|.......................|.......................|.......................|D-3....................|C-0....................|.......................|.......................|
.......................|.......................|.......................|.......................|.......................|C-4C4..................|.......................|A#2....................|.......................|.......................|
.......................|.......................|.......................|.......................|.......................|.......................|C-0....................|.......................|.......................|.......................|
.......................|.......................|.......................|.......................|.......................|.......................|D#3....................|.......................|.......................|.......................|
.......................|.......................|.......................|.......................|.......................|.......................|.......................|C-0....................|.......................|.......................|
.......0452............|.......0452............|.......0452............|.......0452............|.......0452............|C-4C4..................|C-0....................|C-3....................|.......................|.......................|
.......................|.......................|.......................|.......................|.......................|.......................|F-3....................|.......................|.......................|.......................|
.......................|.......................|.......................|.......................|.......................|.......................|.......................|C-0....................|.......................|.......................|
C-0....................|C-0....................|C-0....................|C-0....................|C-0....................|.......................|C-0....................|D-3....................|.......................|.......................|
G-2....0400............|G-5....0400............|D-4....0400............|B-4....0400............|G-4....0400............|C-4C6..................|G-3....................|.......................|.......................|.......................|
.......................|.......................|.......................|.......................|.......................|.......................|.......................|C-0....................|.......................|.......................|
.......................|.......................|.......................|.......................|.......................|.......................|.......................|D#3....................|.......................|.......................|
.......................|.......................|.......................|.......................|.......................|.......................|.......................|.......................|.......................|.......................|
.......................|.......................|.......................|.......................|.......................|.......................|.......................|C-0....................|.......................|.......................|
.......................|.......................|.......................|.......................|.......................|.......................|C-0....................|F-3....................|.......................|.......................|
.......................|.......................|.......................|.......................|.......................|.......................|F-3....................|.......................|.......................|.......................|
.......................|.......................|.......................|.......................|.......................|.......................|.......................|C-0....................|.......................|.......................|
.......................|.......................|.......................|.......................|.......................|.......................|.......................|G-3....................|.......................|.......................|
.......................|.......................|.......................|.......................|.......................|.......................|.......................|.......................|.......................|.......................|
.......................|.......................|.......................|.......................|.......................|.......................|.......................|.......................|.......................|.......................|
C-0....................|C-0....................|C-0....................|C-0....................|C-0....................|.......................|C-0....................|.......................|.......................|.......................|
.......................|.......................|.......................|.......................|.......................|C-4C1..................|D-3....................|.......................|.......................|.......................|
.......................|.......................|.......................|.......................|.......................|.......................|.......................|C-0....................|.......................|.......................|
.......................|.......................|.......................|.......................|.......................|.......................|.......................|F-3....................|.......................|.......................|
.......................|.......................|.......................|.......................|.......................|.......................|.......................|.......................|.......................|.......................|
.......................|.......................|.......................|.......................|.......................|.......................|.......................|.......................|.......................|.......................|
.......................|.......................|.......................|.......................|.......................|.......................|C-0....................|.......................|.......................|.......................|
.......................|.......................|.......................|.......................|.......................|C-4C1..................|B-2....................|.......................|.......................|.......................|
.......................|.......................|.......................|.......................|.......................|.......................|.......................|C-0....................|.......................|.......................|
.......................|.......................|.......................|.......................|.......................|.......................|.......................|D-3....................|.......................|.......................|
.......................|.......................|.......................|.......................|.......................|.......................|.......................|.......................|.......................|.......................|
.......................|.......................|.......................|.......................|.......................|.......................|.......................|.......................|.......................|.......................|
.......................|.......................|.......................|.......................|.......................|.......................|C-0....................|.......................|.......................|.......................|
F-2....................|C-0..67................|D#4..67................|C-5..67................|A-4..67................|C-4C6..................|A-3....................|.......................|.......................|.......................|
.......................|.......................|.......................|.......................|.......................|.......................|.......................|C-0....................|.......................|.......................|
.......................|.......................|.......................|.......................|.......................|.......................|.......................|B-2....................|.......................|.......................|
.......................|.......................|.......................|.......................|.......................|.......................|.......................|.......................|.......................|.......................|
.......................|.......................|.......................|.......................|.......................|.......................|.......................|.......................|.......................|.......................|
.......................|.......................|.......................|.......................|.......................|.......................|C-0....................|.......................|.......................|.......................|
.......................|.......................|.......................|.......................|.......................|.......................|F-3....................|.......................|.......................|.......................|
.......................|.......................|.......................|.......................|.......................|.......................|.......................|C-0....................|.......................|.......................|
.......................|.......................|.......................|.......................|.......................|.......................|.......................|A-3....................|.......................|.......................|
.......................|.......................|.......................|.......................|.......................|.......................|.......................|.......................|.......................|.......................|
.......................|.......................|.......................|.......................|.......................|.......................|.......................|.......................|.......................|.......................|
.......................|.......................|.......................|.......................|.......................|.......................|C-0....................|.......................|.......................|.......................|
.......................|.......................|.......................|.......................|.......................|C-4C1..................|C-3....................|.......................|.......................|.......................|
.......................|.......................|.......................|.......................|.......................|.......................|.......................|C-0....................|.......................|.......................|
.......................|.......................|.......................|.......................|.......................|.......................|.......................|F-3....................|.......................|.......................|
.......................|.......................|.......................|.......................|.......................|.......................|.......................|.......................|.......................|.......................|
.......................|.......................|.......................|.......................|.......................|.......................|.......................|.......................|.......................|.......................|
.......................|.......................|.......................|.......................|.......................|.......................|C-0....................|.......................|.......................|.......................|
.......................|.......................|.......................|.......................|.......................|C-4C1..................|A-2....................|.......................|.......................|.......................|
.......................|.......................|.......................|.......................|.......................|.......................|.......................|C-0....................|.......................|.......................|
.......0452............|.......0452............|.......0452............|.......0452............|.......0452............|.......................|.......................|C-3....................|.......................|.......................|
.......................|.......................|.......................|.......................|.......................|.......................|.......................|.......................|.......................|.......................|
.......................|.......................|.......................|.......................|.......................|.......................|.......................|.......................|.......................|.......................|
C-0....................|.......................|.......................|.......................|.......................|.......................|C-0....................|.......................|.......................|.......................|
F-2....0400............|.......................|.......................|.......................|.......................|C-4C6..................|F-2....................|.......................|.......................|.......................|
.......................|.......................|.......................|.......................|.......................|.......................|.......................|C-0....................|.......................|.......................|
.......................|.......................|.......................|.......................|.......................|.......................|.......................|A-2....................|.......................|.......................|
.......................|.......................|.......................|.......................|.......................|.......................|.......................|.......................|.......................|.......................|
.......................|.......................|.......................|.......................|.......................|.......................|.......................|.......................|.......................|.......................|
.......................|.......................|.......................|.......................|.......................|.......................|C-0....................|.......................|.......................|.......................|
.......................|.......................|.......................|.......................|.......................|C-4C7..................|C-2....................|.......................|.......................|.......................|
.......................|.......................|.......................|.......................|.......................|.......................|.......................|C-0....................|.......................|.......................|
.......................|.......................|.......................|.......................|.......................|.......................|.......................|F-2....................|.......................|.......................|
.......................|.......................|.......................|.......................|.......................|.......................|.......................|.......................|.......................|.......................|
.......................|.......................|.......................|.......................|.......................|.......................|.......................|.......................|.......................|.......................|
.......................|.......................|.......................|.......................|.......................|.......................|C-0....................|.......................|.......................|.......................|
.......................|.......................|.......................|.......................|.......................|C-4C7..................|A-1....................|.......................|.......................|.......................|
.......................|.......................|.......................|.......................|.......................|.......................|.......................|C-0....................|.......................|.......................|
.......................|.......................|.......................|.......................|.......................|.......................|.......................|C-2....................|.......................|.......................|
.......................|.......................|.......................|.......................|.......................|.......................|.......................|.......................|.......................|.......................|
.......................|.......................|.......................|.......................|.......................|.......................|.......................|.......................|.......................|.......................|
.......................|.......................|.......................|.......................|.......................|.......................|C-0....................|.......................|.......................|.......................|
.......................|.......................|.......................|.......................|.......................|C-4C7..................|F-1....................|.......................|.......................|.......................|
.......................|.......................|.......................|.......................|.......................|.......................|.......................|C-0....................|.......................|.......................|
.......0452............|.......................|.......................|.......................|.......................|.......................|.......................|A-1....................|.......................|.......................|
.......................|.......................|.......................|.......................|.......................|.......................|.......................|.......................|.......................|.......................|
.......................|.......................|.......................|.......................|.......................|.......................|.......................|.......................|.......................|.......................|
C-0....................|C-0....................|C-0....................|C-0....................|C-0....................|.......................|C-0....................|.......................|.......................|.......................|
F-2....0400............|.......................|.......................|.......................|.......................|C-4C6..................|A-0....................|.......................|.......................|.......................|
.......................|.......................|.......................|.......................|.......................|.......................|.......................|C-0....................|.......................|.......................|
.......................|.......................|.......................|.......................|.......................|.......................|.......................|F-1....................|.......................|.......................|
.......................|.......................|.......................|.......................|.......................|.......................|.......................|.......................|.......................|.......................|
.......................|.......................|.......................|.......................|.......................|.......................|.......................|.......................|.......................|.......................|
.......................|.......................|.......................|.......................|.......................|.......................|C-0....................|.......................|.......................|.......................|
.......................|.......................|.......................|.......................|.......................|.......................|C-1....................|.......................|.......................|.......................|
.......................|.......................|.......................|.......................|.......................|.......................|.......................|C-0....................|.......................|.......................|
.......................|.......................|.......................|.......................|.......................|.......................|.......................|A-0....................|.......................|.......................|
.......................|.......................|.......................|.......................|.......................|.......................|.......................|.......................|.......................|.......................|
.......................|.......................|.......................|.......................|.......................|.......................|.......................|.......................|.......................|.......................|
C-0....................|.......................|.......................|.......................|.......................|.......................|C-0....................|.......................|.......................|.......................|
F-2....................|A#3..630400............|F-3..630400............|.......................|.......................|.......................|F-1....................|.......................|.......................|.......................|
.......................|.......................|.......................|.......................|.......................|.......................|.......................|C-0....................|.......................|.......................|
.......................|.......................|.......................|.......................|.......................|.......................|.......................|C-1....................|.......................|.......................|
.......................|.......................|.......................|.......................|.......................|.......................|.......................|.......................|.......................|.......................|
.......................|.......................|.......................|.......................|.......................|.......................|.......................|.......................|.......................|.......................|
C-0....................|C-0....................|C-0....................|.......................|.......................|.......................|C-0....................|.......................|.......................|.......................|
.......................|.......................|.......................|.......................|.......................|.......................|C-0....................|.......................|.......................|.......................|
.......................|.......................|.......................|.......................|.......................|.......................|.......................|C-0....................|.......................|.......................|
.......................|.......................|.......................|.......................|.......................|.......................|.......................|F-1....................|.......................|.......................|
.......................|.......................|.......................|.......................|.......................|.......................|.......................|.......................|.......................|.......................|
.......................|.......................|.......................|.......................|.......................|.......................|.......................|.......................|.......................|.......................|
.......0B000D60........|.......................|.......................|.......................|.......................|.......................|.......................|C-0....................|.......................|.......................|
.......................|.......................|.......................|.......................|.......................|.......................|.......................|.......................|.......................|.......................|
.......................|.......................|.......................|.......................|.......................|.......................|.......................|.......................|.......................|.......................|
.......................|.......................|.......................|.......................|.......................|.......................|.......................|.......................|.......................|.......................|
.......................|.......................|.......................|.......................|.......................|.......................|.......................|.......................|.......................|.......................|
.......................|.......................|.......................|.......................|.......................|.......................|.......................|.......................|.......................|.......................|
.......................|.......................|.......................|.......................|.......................|.......................|.......................|.......................|.......................|.......................|
.......................|.......................|.......................|.......................|.......................|.......................|.......................|.......................|.......................|.......................|
.......................|.......................|.......................|.......................|.......................|.......................|.......................|.......................|.......................|.......................|
.......................|.......................|.......................|.......................|.......................|.......................|.......................|.......................|.......................|.......................|
.......................|.......................|.......................|.......................|.......................|.......................|.......................|.......................|.......................|.......................|
.......................|.......................|.......................|.......................|.......................|.......................|.......................|.......................|.......................|.......................|
.......................|.......................|.......................|.......................|.......................|.......................|.......................|.......................|.......................|.......................|
.......................|.......................|.......................|.......................|.......................|.......................|.......................|.......................|.......................|.......................|
.......................|.......................|.......................|.......................|.......................|.......................|.......................|.......................|.......................|.......................|
.......................|.......................|.......................|.......................|.......................|.......................|.......................|.......................|.......................|.......................|
.......................|.......................|.......................|.......................|.......................|.......................|.......................|.......................|.......................|.......................|
.......................|.......................|.......................|.......................|.......................|.......................|.......................|.......................|.......................|.......................|
.......................|.......................|.......................|.......................|.......................|.......................|.......................|.......................|.......................|.......................|
.......................|.......................|.......................|.......................|.......................|.......................|.......................|.......................|.......................|.......................|
.......................|.......................|.......................|.......................|.......................|.......................|.......................|.......................|.......................|.......................|
.......................|.......................|.......................|.......................|.......................|.......................|.......................|.......................|.......................|.......................|
.......................|.......................|.......................|.......................|.......................|.......................|.......................|.......................|.......................|.......................|
.......................|.......................|.......................|.......................|.......................|.......................|.......................|.......................|.......................|.......................|
.......................|.......................|.......................|.......................|.......................|.......................|.......................|.......................|.......................|.......................|
.......................|.......................|.......................|.......................|.......................|.......................|.......................|.......................|.......................|.......................|
.......................|.......................|.......................|.......................|.......................|.......................|.......................|.......................|.......................|.......................|
.......................|.......................|.......................|.......................|.......................|.......................|.......................|.......................|.......................|.......................|
.......................|.......................|.......................|.......................|.......................|.......................|.......................|.......................|.......................|.......................|
.......................|.......................|.......................|.......................|.......................|.......................|.......................|.......................|.......................|.......................|
.......................|.......................|.......................|.......................|.......................|.......................|.......................|.......................|.......................|.......................|
.......................|.......................|.......................|.......................|.......................|.......................|.......................|.......................|.......................|.......................|
.......................|.......................|.......................|.......................|.......................|.......................|.......................|.......................|.......................|.......................|
