org.tildearrow.furnace - Pattern Data (219)
0
A-11E6FEA00............|E-40463EA00............|C-40463EA00............|D-40463EA00............|A-223748000EA00........|C-4C0..8080EA00........|.......................|.......................|C-5A000EA00............|.......................|
.......................|.......................|.......................|.......................|.......................|.......................|.......................|.......................|.......................|.......................|
.......................|.......................|.......................|D#4....EAFF............|.......................|.......................|.......................|.......................|.......................|.......................|
.......................|.......................|.......................|.......................|.......................|.......................|.......................|.......................|.......................|.......................|
.......................|.......................|.......................|E-4....................|.......................|.......................|.......................|.......................|.......................|.......................|
.......................|.......................|.......................|.......................|C-0....................|.......................|.......................|.......................|C-0....................|.......................|
.......................|.......................|.......................|.......................|A-2....80FF............|.......................|.......................|.......................|C-5A000EA00............|.......................|
.......................|.......................|.......................|.......................|.......................|.......................|.......................|.......................|.......................|.......................|
.......................|.......................|.......................|.......................|.......................|.......................|.......................|.......................|.......................|.......................|
.......................|.......................|.......................|.......................|.......................|.......................|.......................|.......................|.......................|.......................|
.......................|.......................|.......................|.......................|.......................|.......................|.......................|.......................|.......................|.......................|
.......................|C-0....................|C-0....................|.......................|C-0....................|.......................|.......................|.......................|C-0....................|.......................|
.......................|D-4....................|B-3....................|D-4....................|A-2....8000............|C-4C0..................|.......................|.......................|C-5A000EA00............|.......................|
.......................|.......................|.......................|.......................|.......................|.......................|.......................|.......................|.......................|.......................|
.......................|.......................|.......................|.......................|.......................|.......................|.......................|.......................|.......................|.......................|
.......................|.......................|.......................|.......................|.......................|.......................|.......................|.......................|.......................|.......................|
.......................|.......................|.......................|.......................|.......................|.......................|.......................|.......................|.......................|.......................|
C-0....................|.......................|.......................|.......................|C-0....................|.......................|.......................|.......................|C-0....................|.......................|
A-1....................|.......................|.......................|.......................|A-2....80FF............|C-4C0..................|.......................|.......................|C-5A000EA00............|.......................|
.......................|.......................|.......................|.......................|.......................|.......................|.......................|.......................|.......................|.......................|
.......................|.......................|.......................|.......................|.......................|.......................|.......................|.......................|.......................|.......................|
.......................|.......................|.......................|.......................|.......................|.......................|.......................|.......................|.......................|.......................|
.......................|.......................|.......................|.......................|.......................|.......................|.......................|.......................|.......................|.......................|
.......................|C-0....................|C-0....................|C-0....................|C-0....................|.......................|.......................|.......................|C-0....................|.......................|
.......................|C-4....................|A-3....................|C-4....EA00............|A-2....8000............|C-4C1..................|.......................|.......................|C-5A000EA00............|.......................|
.......................|.......................|.......................|.......................|.......................|.......................|.......................|.......................|.......................|.......................|
.......................|.......................|.......................|.......................|.......................|.......................|.......................|.......................|.......................|.......................|
.......................|.......................|.......................|.......................|.......................|.......................|.......................|.......................|.......................|.......................|
.......................|.......................|.......................|.......................|.......................|.......................|.......................|.......................|.......................|.......................|
.......................|C-0....................|C-0....................|.......................|C-0....................|.......................|.......................|.......................|C-0....................|.......................|
.......................|D-4....................|B-3....................|D-4....EAFFEA00........|A-2....80FF............|C-4C0..................|.......................|.......................|C-5A000EA00............|.......................|
.......................|.......................|.......................|.......................|.......................|.......................|.......................|.......................|.......................|.......................|
.......................|.......................|.......................|.......................|.......................|.......................|.......................|.......................|.......................|.......................|
.......................|.......................|.......................|.......................|.......................|.......................|.......................|.......................|.......................|.......................|
.......................|.......................|.......................|.......................|.......................|.......................|.......................|.......................|.......................|.......................|
C-0....................|C-0....................|C-0....................|C-0....................|C-0....................|.......................|.......................|.......................|C-0....................|.......................|
A-1....................|C-4....................|A-3....................|C-4....................|A-2....8000............|C-4C0..................|.......................|.......................|C-5A000EA00............|.......................|
.......................|.......................|.......................|.......................|.......................|.......................|.......................|.......................|.......................|.......................|
.......................|.......................|.......................|.......................|.......................|.......................|.......................|.......................|.......................|.......................|
.......................|.......................|.......................|.......................|.......................|.......................|.......................|.......................|.......................|.......................|
.......................|.......................|.......................|.......................|.......................|.......................|.......................|.......................|.......................|.......................|
.......................|C-0....................|C-0....................|C-0....................|C-0....................|.......................|.......................|.......................|C-0....................|.......................|
.......................|B-3....................|F-3....................|B-3....................|A-2....80FF............|C-4C0..................|.......................|.......................|C-5A000EA00............|.......................|
.......................|.......................|.......................|.......................|.......................|.......................|.......................|.......................|.......................|.......................|
.......................|.......................|.......................|.......................|.......................|.......................|.......................|.......................|.......................|.......................|
.......................|.......................|.......................|.......................|.......................|.......................|.......................|.......................|.......................|.......................|
.......................|.......................|.......................|.......................|.......................|.......................|.......................|.......................|.......................|.......................|
C-0....................|C-0....................|C-0....................|C-0....................|C-0....................|.......................|.......................|.......................|C-0....................|.......................|
G-2....................|C-4....................|G-3....................|C-4....................|A-2....8000............|C-4C1..................|.......................|.......................|C-5A000EA00............|.......................|
.......................|.......................|.......................|.......................|.......................|.......................|.......................|.......................|.......................|.......................|
.......................|.......................|.......................|.......................|.......................|.......................|.......................|.......................|.......................|.......................|
.......................|.......................|.......................|.......................|.......................|.......................|.......................|.......................|.......................|.......................|
.......................|.......................|.......................|.......................|.......................|.......................|.......................|.......................|.......................|.......................|
C-0....................|.......................|.......................|.......................|C-0....................|.......................|.......................|.......................|C-0....................|.......................|
.......................|.......................|.......................|.......................|A-2....80FF............|C-4C0..................|.......................|.......................|C-5A000EA00............|.......................|
.......................|.......................|.......................|.......................|.......................|.......................|.......................|.......................|.......................|.......................|
.......................|.......................|.......................|.......................|.......................|.......................|.......................|.......................|.......................|.......................|
.......................|.......................|.......................|.......................|.......................|.......................|.......................|.......................|.......................|.......................|
.......................|.......................|.......................|.......................|.......................|.......................|.......................|.......................|.......................|.......................|
.......................|C-0....................|C-0....................|C-0....................|C-0....................|.......................|.......................|.......................|C-0....................|.......................|
G-2....................|B-3....................|G-3....................|B-3....................|A-2....8000............|C-4C0..................|.......................|.......................|C-5A000EA00............|.......................|
.......................|.......................|.......................|.......................|.......................|.......................|.......................|.......................|.......................|.......................|
.......................|.......................|.......................|.......................|.......................|.......................|.......................|.......................|.......................|.......................|
.......................|.......................|.......................|.......................|.......................|.......................|.......................|.......................|.......................|.......................|
.......................|.......................|.......................|.......................|.......................|.......................|.......................|.......................|.......................|.......................|
C-0....................|.......................|.......................|.......................|C-0....................|.......................|.......................|.......................|C-0....................|.......................|
.......................|.......................|.......................|.......................|A-2....80FF............|C-4C1..................|.......................|.......................|C-5A000EA00............|.......................|
.......................|.......................|.......................|.......................|.......................|.......................|.......................|.......................|.......................|.......................|
.......................|.......................|.......................|.......................|.......................|.......................|.......................|.......................|.......................|.......................|
.......................|.......................|.......................|.......................|.......................|.......................|.......................|.......................|.......................|.......................|
.......................|.......................|.......................|.......................|.......................|.......................|.......................|.......................|.......................|.......................|
.......................|C-0....................|C-0....................|C-0....................|C-0....................|.......................|.......................|.......................|C-0....................|.......................|
G-2....................|G-3....................|D-3....................|G-3....................|A-2....8000............|C-4C0..................|.......................|.......................|C-5A000EA00............|.......................|
.......................|.......................|.......................|.......................|.......................|.......................|.......................|.......................|.......................|.......................|
.......................|.......................|.......................|.......................|.......................|.......................|.......................|.......................|.......................|.......................|
.......................|.......................|.......................|.......................|.......................|.......................|.......................|.......................|.......................|.......................|
.......................|.......................|.......................|.......................|.......................|.......................|.......................|.......................|.......................|.......................|
C-0....................|.......................|.......................|.......................|C-0....................|.......................|.......................|.......................|C-0....................|.......................|
A-1....................|.......................|.......................|.......................|A-2....80FF............|C-4C0..................|.......................|.......................|C-5A000EA00............|.......................|
.......................|.......................|.......................|.......................|.......................|.......................|.......................|.......................|.......................|.......................|
.......................|.......................|.......................|.......................|.......................|.......................|.......................|.......................|.......................|.......................|
.......................|.......................|.......................|.......................|.......................|.......................|.......................|.......................|.......................|.......................|
.......................|.......................|.......................|.......................|.......................|.......................|.......................|.......................|.......................|.......................|
.......................|C-0....................|C-0....................|C-0....................|C-0....................|.......................|.......................|.......................|C-0....................|.......................|
.......................|A-3....................|E-3....................|A-3....................|.......................|C-4C1..................|.......................|.......................|C-5A000EA00............|.......................|
.......................|.......................|.......................|.......................|.......................|.......................|.......................|.......................|.......................|.......................|
.......................|.......................|.......................|.......................|.......................|.......................|.......................|.......................|.......................|.......................|
.......................|.......................|.......................|.......................|.......................|.......................|.......................|.......................|.......................|.......................|
.......................|.......................|.......................|.......................|.......................|.......................|.......................|.......................|.......................|.......................|
C-0....................|.......................|.......................|.......................|.......................|.......................|.......................|.......................|C-0....................|.......................|
A-3....................|.......................|.......................|.......................|.......................|.......................|.......................|.......................|C-5A000EA00............|.......................|
.......................|.......................|.......................|.......................|.......................|.......................|.......................|.......................|.......................|.......................|
.......................|.......................|.......................|.......................|.......................|.......................|.......................|.......................|.......................|.......................|
.......................|.......................|.......................|.......................|.......................|.......................|.......................|.......................|.......................|.......................|
.......................|.......................|.......................|.......................|.......................|.......................|.......................|.......................|.......................|.......................|
C-0....................|C-0....................|C-0....................|C-0....................|.......................|.......................|.......................|.......................|C-0....................|.......................|
A-1....................|.......................|.......................|.......................|.......................|C-4C0..................|.......................|.......................|C-5A000EA00............|.......................|
.......................|.......................|.......................|.......................|.......................|.......................|.......................|.......................|.......................|.......................|
.......................|.......................|.......................|.......................|.......................|.......................|.......................|.......................|.......................|.......................|
.......................|.......................|.......................|.......................|.......................|.......................|.......................|.......................|.......................|.......................|
.......................|.......................|.......................|.......................|.......................|.......................|.......................|.......................|.......................|.......................|
C-0....................|.......................|.......................|.......................|.......................|.......................|.......................|.......................|C-0....................|.......................|
A-1....................|.......................|.......................|.......................|.......................|.......................|.......................|.......................|C-5A000EA00............|.......................|
.......................|.......................|.......................|.......................|.......................|.......................|.......................|.......................|.......................|.......................|
.......................|.......................|.......................|.......................|.......................|.......................|.......................|.......................|.......................|.......................|
.......................|.......................|.......................|.......................|.......................|.......................|.......................|.......................|.......................|.......................|
.......................|.......................|.......................|.......................|.......................|.......................|.......................|.......................|.......................|.......................|
C-0....................|.......................|.......................|.......................|.......................|.......................|.......................|.......................|C-0....................|.......................|
A-2....................|.......................|.......................|.......................|.......................|.......................|.......................|.......................|C-5A000EA00............|.......................|
.......................|.......................|.......................|.......................|.......................|.......................|.......................|.......................|.......................|.......................|
C-0....................|.......................|.......................|.......................|.......................|.......................|.......................|.......................|.......................|.......................|
.......................|.......................|.......................|.......................|.......................|.......................|.......................|.......................|.......................|.......................|
.......................|.......................|.......................|.......................|.......................|.......................|.......................|.......................|.......................|.......................|
.......................|.......................|.......................|.......................|.......................|.......................|.......................|.......................|C-0....................|.......................|
A-1....................|.......................|.......................|.......................|.......................|.......................|.......................|.......................|C-5A000EA00............|.......................|
.......................|.......................|.......................|.......................|.......................|.......................|.......................|.......................|.......................|.......................|
.......................|.......................|.......................|.......................|.......................|.......................|.......................|.......................|.......................|.......................|
.......................|.......................|.......................|.......................|.......................|.......................|.......................|.......................|.......................|.......................|
.......................|.......................|.......................|.......................|.......................|.......................|.......................|.......................|.......................|.......................|
C-0....................|.......................|.......................|.......................|.......................|.......................|.......................|.......................|C-0....................|.......................|
A-1....................|.......................|.......................|.......................|.......................|C-4C0..................|.......................|.......................|C-5A000EA00............|.......................|
.......................|.......................|.......................|.......................|.......................|.......................|.......................|.......................|.......................|.......................|
.......................|.......................|.......................|.......................|.......................|.......................|.......................|.......................|.......................|.......................|
.......................|.......................|.......................|.......................|.......................|.......................|.......................|.......................|.......................|.......................|
.......................|.......................|.......................|.......................|.......................|.......................|.......................|.......................|.......................|.......................|
C-0....................|.......................|.......................|.......................|.......................|.......................|.......................|.......................|C-0....................|.......................|
A-2....................|.......................|.......................|.......................|.......................|.......................|.......................|.......................|C-5A000EA00............|.......................|
.......................|.......................|.......................|.......................|.......................|.......................|.......................|.......................|.......................|.......................|
C-0....................|.......................|.......................|.......................|.......................|.......................|.......................|.......................|.......................|.......................|
.......................|.......................|.......................|.......................|.......................|.......................|.......................|.......................|.......................|.......................|
.......................|.......................|.......................|.......................|.......................|.......................|.......................|.......................|.......................|.......................|
.......................|.......................|.......................|.......................|.......................|.......................|.......................|.......................|C-0....................|.......................|
A-1....................|.......................|.......................|.......................|.......................|.......................|.......................|.......................|C-5A000EA00............|.......................|
.......................|.......................|.......................|.......................|.......................|.......................|.......................|.......................|.......................|.......................|
.......................|.......................|.......................|.......................|.......................|.......................|.......................|.......................|.......................|.......................|
.......................|.......................|.......................|.......................|.......................|.......................|.......................|.......................|.......................|.......................|
.......................|.......................|.......................|.......................|.......................|.......................|.......................|.......................|.......................|.......................|
C-0....................|.......................|.......................|.......................|.......................|.......................|.......................|.......................|C-0....................|.......................|
A-1....................|.......................|.......................|.......................|.......................|.......................|.......................|.......................|C-5A000EA00............|.......................|
.......................|.......................|.......................|.......................|.......................|.......................|.......................|.......................|.......................|.......................|
.......................|.......................|.......................|.......................|.......................|.......................|.......................|.......................|.......................|.......................|
.......................|.......................|.......................|.......................|.......................|.......................|.......................|.......................|.......................|.......................|
.......................|.......................|.......................|.......................|.......................|.......................|.......................|.......................|.......................|.......................|
C-0....................|.......................|.......................|.......................|.......................|.......................|.......................|.......................|C-0....................|.......................|
G-2....................|.......................|.......................|.......................|.......................|C-4C0..................|.......................|.......................|C-5A000EA00............|.......................|
.......................|.......................|.......................|.......................|.......................|.......................|.......................|.......................|.......................|.......................|
.......................|.......................|.......................|.......................|.......................|.......................|.......................|.......................|.......................|.......................|
.......................|.......................|.......................|.......................|.......................|.......................|.......................|.......................|.......................|.......................|
.......................|.......................|.......................|.......................|.......................|.......................|.......................|.......................|.......................|.......................|
C-0....................|.......................|.......................|.......................|.......................|.......................|.......................|.......................|C-0....................|.......................|
.......................|.......................|.......................|.......................|.......................|.......................|.......................|.......................|C-5A000EA00............|.......................|
.......................|.......................|.......................|.......................|.......................|.......................|.......................|.......................|.......................|.......................|
.......................|.......................|.......................|.......................|.......................|.......................|.......................|.......................|.......................|.......................|
.......................|.......................|.......................|.......................|.......................|.......................|.......................|.......................|.......................|.......................|
.......................|.......................|.......................|.......................|.......................|.......................|.......................|.......................|.......................|.......................|
.......................|.......................|.......................|.......................|.......................|.......................|.......................|.......................|C-0....................|.......................|
G-2....................|.......................|.......................|.......................|.......................|.......................|.......................|.......................|C-5A000EA00............|.......................|
.......................|.......................|.......................|.......................|.......................|.......................|.......................|.......................|.......................|.......................|
.......................|.......................|.......................|.......................|.......................|.......................|.......................|.......................|.......................|.......................|
.......................|.......................|.......................|.......................|.......................|.......................|.......................|.......................|.......................|.......................|
.......................|.......................|.......................|.......................|.......................|.......................|.......................|.......................|.......................|.......................|
C-0....................|.......................|.......................|.......................|.......................|.......................|.......................|.......................|C-0....................|.......................|
.......................|.......................|.......................|.......................|.......................|C-4C0..................|.......................|.......................|C-5A000EA00............|.......................|
.......................|.......................|.......................|.......................|.......................|.......................|.......................|.......................|.......................|.......................|
.......................|.......................|.......................|.......................|.......................|.......................|.......................|.......................|.......................|.......................|
.......................|.......................|.......................|.......................|.......................|.......................|.......................|.......................|.......................|.......................|
.......................|.......................|.......................|.......................|.......................|.......................|.......................|.......................|.......................|.......................|
.......................|.......................|.......................|.......................|.......................|.......................|.......................|.......................|C-0....................|.......................|
G-2....................|.......................|.......................|.......................|.......................|C-4C1..................|.......................|.......................|C-5A000EA00............|.......................|
.......................|.......................|.......................|.......................|.......................|.......................|.......................|.......................|.......................|.......................|
.......................|.......................|.......................|.......................|.......................|.......................|.......................|.......................|.......................|.......................|
.......................|.......................|.......................|.......................|.......................|.......................|.......................|.......................|.......................|.......................|
.......................|.......................|.......................|.......................|.......................|.......................|.......................|.......................|.......................|.......................|
C-0....................|.......................|.......................|.......................|.......................|.......................|.......................|.......................|C-0....................|.......................|
A-2....................|.......................|.......................|.......................|.......................|C-4C1..................|.......................|.......................|C-5A000EA00............|.......................|
.......................|.......................|.......................|.......................|.......................|.......................|.......................|.......................|.......................|.......................|
.......................|.......................|.......................|.......................|.......................|.......................|.......................|.......................|.......................|.......................|
.......................|.......................|.......................|.......................|.......................|.......................|.......................|.......................|.......................|.......................|
.......................|.......................|.......................|.......................|.......................|.......................|.......................|.......................|.......................|.......................|
.......................|.......................|.......................|.......................|.......................|.......................|.......................|.......................|C-0....................|.......................|
.......................|.......................|.......................|.......................|.......................|C-4C1..................|.......................|.......................|C-5A000EA00............|.......................|
.......................|.......................|.......................|.......................|.......................|.......................|.......................|.......................|.......................|.......................|
.......................|.......................|.......................|.......................|.......................|.......................|.......................|.......................|.......................|.......................|
.......................|.......................|.......................|.......................|.......................|.......................|.......................|.......................|.......................|.......................|
.......................|.......................|.......................|.......................|.......................|.......................|.......................|.......................|.......................|.......................|
C-0....................|.......................|.......................|.......................|.......................|.......................|.......................|.......................|C-0....................|.......................|
A-3....................|.......................|.......................|.......................|.......................|C-4C1..................|.......................|.......................|C-5A000EA00............|.......................|
.......................|.......................|.......................|.......................|.......................|.......................|.......................|.......................|.......................|.......................|
C-0....................|.......................|.......................|.......................|.......................|.......................|.......................|.......................|.......................|.......................|
.......................|.......................|.......................|.......................|.......................|.......................|.......................|.......................|.......................|.......................|
.......................|.......................|.......................|.......................|.......................|.......................|.......................|.......................|.......................|.......................|
.......................|.......................|.......................|.......................|.......................|.......................|.......................|.......................|C-0....................|.......................|
A-1....0400EA00........|A-3..6704008080EA00....|E-3..670400EA00........|.......................|A-2....0400EA00........|C-4C0..EA00............|.......................|.......................|C-5A000EA00............|.......................|
.......................|.......................|.......................|.......................|.......................|.......................|.......................|.......................|.......................|.......................|
.......................|.......................|.......................|.......................|.......................|.......................|.......................|.......................|.......................|.......................|
.......................|.......................|.......................|.......................|.......................|.......................|.......................|.......................|.......................|.......................|
.......................|.......................|.......................|.......................|.......................|.......................|.......................|.......................|.......................|.......................|
.......................|C-0....................|C-0....................|.......................|C-0....................|.......................|.......................|.......................|C-0....................|.......................|
.......................|A-3....................|E-3....................|.......................|A-2....8000............|.......................|.......................|.......................|C-5A000EA00............|.......................|
.......................|.......................|.......................|.......................|.......................|.......................|.......................|.......................|.......................|.......................|
.......................|.......................|.......................|.......................|.......................|.......................|.......................|.......................|.......................|.......................|
.......................|.......................|.......................|.......................|.......................|.......................|.......................|.......................|.......................|.......................|
.......................|.......................|.......................|.......................|.......................|.......................|.......................|.......................|.......................|.......................|
C-0....................|C-0....................|C-0....................|.......................|C-0....................|.......................|.......................|.......................|C-0....................|.......................|
A-2....................|.......................|.......................|A-3....040080FFEA00....|A-2....80FF............|.......................|.......................|.......................|C-5A000EA00............|.......................|
.......................|.......................|.......................|.......................|.......................|.......................|.......................|.......................|.......................|.......................|
.......................|.......................|.......................|.......................|.......................|.......................|.......................|.......................|.......................|.......................|
.......................|.......................|.......................|.......................|.......................|.......................|.......................|.......................|.......................|.......................|
.......................|.......................|.......................|.......................|.......................|.......................|.......................|.......................|.......................|.......................|
C-0....................|.......................|.......................|C-0....................|C-0....................|.......................|.......................|.......................|C-0....................|.......................|
.......................|C-4....................|A-3....................|A-3....................|A-2....8000............|.......................|.......................|.......................|C-5A000EA00............|.......................|
.......................|.......................|.......................|.......................|.......................|.......................|.......................|.......................|.......................|.......................|
.......................|.......................|.......................|.......................|.......................|.......................|.......................|.......................|.......................|.......................|
.......................|.......................|.......................|.......................|.......................|.......................|.......................|.......................|.......................|.......................|
.......................|.......................|.......................|.......................|.......................|.......................|.......................|.......................|.......................|.......................|
.......................|C-0....................|C-0....................|C-0....................|C-0....................|.......................|.......................|.......................|C-0....................|.......................|
A-1....................|C-4....................|A-3....................|.......................|A-2....80FF............|C-4C1..................|.......................|.......................|C-5A000EA00............|.......................|
.......................|.......................|.......................|.......................|.......................|.......................|.......................|.......................|.......................|.......................|
.......................|.......................|.......................|.......................|.......................|.......................|.......................|.......................|.......................|.......................|
.......................|.......................|.......................|.......................|.......................|.......................|.......................|.......................|.......................|.......................|
.......................|.......................|.......................|.......................|.......................|.......................|.......................|.......................|.......................|.......................|
.......................|C-0....................|C-0....................|.......................|C-0....................|.......................|.......................|.......................|C-0....................|.......................|
.......................|.......................|.......................|C-4....................|A-2....8000............|.......................|.......................|.......................|C-5A000EA00............|.......................|
.......................|.......................|.......................|.......................|.......................|.......................|.......................|.......................|.......................|.......................|
.......................|.......................|.......................|.......................|.......................|.......................|.......................|.......................|.......................|.......................|
.......................|.......................|.......................|.......................|.......................|.......................|.......................|.......................|.......................|.......................|
.......................|.......................|.......................|.......................|.......................|.......................|.......................|.......................|.......................|.......................|
C-0....................|.......................|.......................|C-0....................|C-0....................|.......................|.......................|.......................|C-0....................|.......................|
A-2....................|D-4....................|B-3....................|C-4....................|A-2....80FF............|.......................|.......................|.......................|C-5A000EA00............|.......................|
.......................|.......................|.......................|.......................|.......................|.......................|.......................|.......................|.......................|.......................|
.......................|.......................|.......................|.......................|.......................|.......................|.......................|.......................|.......................|.......................|
.......................|.......................|.......................|.......................|.......................|.......................|.......................|.......................|.......................|.......................|
.......................|.......................|.......................|.......................|.......................|.......................|.......................|.......................|.......................|.......................|
C-0....................|.......................|.......................|C-0....................|C-0....................|.......................|.......................|.......................|C-0....................|.......................|
.......................|.......................|.......................|.......................|A-2....8000............|.......................|.......................|.......................|C-5A000EA00............|.......................|
.......................|.......................|.......................|.......................|.......................|.......................|.......................|.......................|.......................|.......................|
.......................|.......................|.......................|.......................|.......................|.......................|.......................|.......................|.......................|.......................|
.......................|.......................|.......................|.......................|.......................|.......................|.......................|.......................|.......................|.......................|
.......................|.......................|.......................|.......................|.......................|.......................|.......................|.......................|.......................|.......................|
.......................|.......................|.......................|.......................|C-0....................|.......................|.......................|.......................|C-0....................|.......................|
G-1....................|.......................|.......................|D-4....................|G-2....80FF............|C-4C0..................|.......................|.......................|C-5A000EA00............|.......................|
.......................|.......................|.......................|.......................|.......................|.......................|.......................|.......................|.......................|.......................|
.......................|.......................|.......................|.......................|.......................|.......................|.......................|.......................|.......................|.......................|
.......................|.......................|.......................|.......................|.......................|.......................|.......................|.......................|.......................|.......................|
.......................|.......................|.......................|.......................|.......................|.......................|.......................|.......................|.......................|.......................|
.......................|.......................|.......................|.......................|C-0....................|.......................|.......................|.......................|C-0....................|.......................|
.......................|.......................|.......................|.......................|G-2....8000............|.......................|.......................|.......................|C-5A000EA00............|.......................|
.......................|.......................|.......................|.......................|.......................|.......................|.......................|.......................|.......................|.......................|
.......................|.......0452............|.......0452............|.......................|.......................|.......................|.......................|.......................|.......................|.......................|
.......................|.......................|.......................|.......................|.......................|.......................|.......................|.......................|.......................|.......................|
.......................|.......................|.......................|.......................|.......................|.......................|.......................|.......................|.......................|.......................|
C-0....................|.......................|.......................|.......................|C-0....................|.......................|.......................|.......................|C-0....................|.......................|
G-2....................|.......................|.......................|.......................|G-2....80FF............|C-4C0..................|.......................|.......................|C-5A000EA00............|.......................|
.......................|.......................|.......................|.......................|.......................|.......................|.......................|.......................|.......................|.......................|
.......................|.......................|.......................|.......................|.......................|.......................|.......................|.......................|.......................|.......................|
.......................|.......................|.......................|.......................|.......................|.......................|.......................|.......................|.......................|.......................|
org.tildearrow.furnace - Pattern Data (219)
0
.......................|.......................|.......................|.......................|.......................|.......................|.......................|.......................|.......................|.......................|
C-0....................|.......................|.......................|.......................|C-0....................|.......................|.......................|.......................|C-0....................|.......................|
.......................|.......................|.......................|.......................|G-2....8000............|C-4C0..................|.......................|.......................|C-5A000EA00............|.......................|
.......................|.......................|.......................|.......................|.......................|.......................|.......................|.......................|.......................|.......................|
.......................|.......................|.......................|.......0452............|.......................|.......................|.......................|.......................|.......................|.......................|
.......................|.......................|.......................|.......................|.......................|.......................|.......................|.......................|.......................|.......................|
.......................|.......................|.......................|.......................|.......................|.......................|.......................|.......................|.......................|.......................|
.......................|.......................|.......................|.......................|C-0....................|.......................|.......................|.......................|C-0....................|.......................|
G-1....................|.......................|.......................|.......................|G-2....80FF............|C-4C1..................|.......................|.......................|C-5A000EA00............|.......................|
.......................|.......................|.......................|.......................|.......................|.......................|.......................|.......................|.......................|.......................|
.......................|.......................|.......................|.......................|.......................|.......................|.......................|.......................|.......................|.......................|
.......................|.......................|.......................|.......................|.......................|.......................|.......................|.......................|.......................|.......................|
.......................|.......................|.......................|.......................|.......................|.......................|.......................|.......................|.......................|.......................|
.......................|.......................|.......................|.......................|C-0....................|.......................|.......................|.......................|C-0....................|.......................|
.......................|.......................|.......................|.......................|G-2....8000............|C-4C0..................|.......................|.......................|C-5A000EA00............|.......................|
.......................|.......................|.......................|.......................|.......................|.......................|.......................|.......................|.......................|.......................|
.......................|.......................|.......................|.......................|.......................|.......................|.......................|.......................|.......................|.......................|
.......................|.......................|C-0....................|.......................|.......................|.......................|.......................|.......................|.......................|.......................|
.......................|.......................|.......................|.......................|.......................|.......................|.......................|.......................|.......................|.......................|
C-0....................|.......................|.......................|.......................|C-0....................|.......................|.......................|.......................|C-0....................|.......................|
G-2....................|.......................|.......................|.......................|G-2....80FF............|C-4C0..................|.......................|.......................|C-5A000EA00............|.......................|
.......................|.......................|.......................|.......................|.......................|.......................|.......................|.......................|.......................|.......................|
.......................|.......................|.......................|.......................|.......................|.......................|.......................|.......................|.......................|.......................|
.......................|.......................|.......................|.......................|.......................|.......................|.......................|.......................|.......................|.......................|
.......................|.......................|.......................|.......................|.......................|.......................|.......................|.......................|.......................|.......................|
C-0....................|.......................|.......................|.......................|C-0....................|.......................|.......................|.......................|C-0....................|.......................|
.......................|.......................|.......................|.......................|G-2....8000............|C-4C0..................|.......................|.......................|C-5A000EA00............|.......................|
.......................|.......................|.......................|.......................|.......................|.......................|.......................|.......................|.......................|.......................|
.......................|.......................|.......................|.......................|.......................|.......................|.......................|.......................|.......................|.......................|
.......................|.......................|.......................|.......................|.......................|.......................|.......................|.......................|.......................|.......................|
.......................|.......................|.......................|.......................|.......................|.......................|.......................|.......................|.......................|.......................|
.......................|C-0....................|.......................|.......................|C-0....................|.......................|.......................|.......................|C-0....................|.......................|
A-1....................|A-3....0400............|E-3....0400............|.......................|A-2....80FF............|C-4C0..................|.......................|.......................|C-5A000EA00............|.......................|
.......................|.......................|.......................|.......................|.......................|.......................|.......................|.......................|.......................|.......................|
.......................|.......................|.......................|.......................|.......................|.......................|.......................|.......................|.......................|.......................|
.......................|.......................|.......................|.......................|.......................|.......................|.......................|.......................|.......................|.......................|
.......................|.......................|.......................|.......................|.......................|.......................|.......................|.......................|.......................|.......................|
.......................|C-0....................|C-0....................|.......................|C-0....................|.......................|.......................|.......................|C-0....................|.......................|
.......................|A-3....................|E-3....................|.......................|A-2....8000............|.......................|.......................|.......................|C-5A000EA00............|.......................|
.......................|.......................|.......................|.......................|.......................|.......................|.......................|.......................|.......................|.......................|
.......................|.......................|.......................|.......................|.......................|.......................|.......................|.......................|.......................|.......................|
.......................|.......................|.......................|.......................|.......................|.......................|.......................|.......................|.......................|.......................|
.......................|.......................|.......................|.......................|.......................|.......................|.......................|.......................|.......................|.......................|
C-0....................|C-0....................|C-0....................|C-0....................|C-0....................|.......................|.......................|.......................|C-0....................|.......................|
A-2....................|.......................|.......................|A-3....0400............|A-2....80FF............|.......................|.......................|.......................|C-5A000EA00............|.......................|
.......................|.......................|.......................|.......................|.......................|.......................|.......................|.......................|.......................|.......................|
.......................|.......................|.......................|.......................|.......................|.......................|.......................|.......................|.......................|.......................|
.......................|.......................|.......................|.......................|.......................|.......................|.......................|.......................|.......................|.......................|
.......................|.......................|.......................|.......................|.......................|.......................|.......................|.......................|.......................|.......................|
C-0....................|.......................|.......................|C-0....................|C-0....................|.......................|.......................|.......................|C-0....................|.......................|
.......................|C-4....................|A-3....................|A-3....................|A-2....8000............|.......................|.......................|.......................|C-5A000EA00............|.......................|
.......................|.......................|.......................|.......................|.......................|.......................|.......................|.......................|.......................|.......................|
.......................|.......................|.......................|.......................|.......................|.......................|.......................|.......................|.......................|.......................|
.......................|.......................|.......................|.......................|.......................|.......................|.......................|.......................|.......................|.......................|
.......................|.......................|.......................|.......................|.......................|.......................|.......................|.......................|.......................|.......................|
.......................|C-0....................|C-0....................|C-0....................|C-0....................|.......................|.......................|.......................|C-0....................|.......................|
A-1....................|C-4....................|A-3....................|.......................|A-2....80FF............|C-4C1..................|.......................|.......................|C-5A000EA00............|.......................|
.......................|.......................|.......................|.......................|.......................|.......................|.......................|.......................|.......................|.......................|
.......................|.......................|.......................|.......................|.......................|.......................|.......................|.......................|.......................|.......................|
.......................|.......................|.......................|.......................|.......................|.......................|.......................|.......................|.......................|.......................|
.......................|.......................|.......................|.......................|.......................|.......................|.......................|.......................|.......................|.......................|
.......................|C-0....................|C-0....................|.......................|C-0....................|.......................|.......................|.......................|C-0....................|.......................|
.......................|.......................|.......................|C-4....................|A-2....8000............|.......................|.......................|.......................|C-5A000EA00............|.......................|
.......................|.......................|.......................|.......................|.......................|.......................|.......................|.......................|.......................|.......................|
.......................|.......................|.......................|.......................|.......................|.......................|.......................|.......................|.......................|.......................|
.......................|.......................|.......................|.......................|.......................|.......................|.......................|.......................|.......................|.......................|
.......................|.......................|.......................|.......................|.......................|.......................|.......................|.......................|.......................|.......................|
C-0....................|.......................|.......................|C-0....................|C-0....................|.......................|.......................|.......................|C-0....................|.......................|
A-2....................|B-3....................|G-3....................|C-4....................|A-2....80FF............|.......................|.......................|.......................|C-5A000EA00............|.......................|
.......................|.......................|.......................|.......................|.......................|.......................|.......................|.......................|.......................|.......................|
.......................|.......................|.......................|.......................|.......................|.......................|.......................|.......................|.......................|.......................|
.......................|.......................|.......................|.......................|.......................|.......................|.......................|.......................|.......................|.......................|
.......................|.......................|.......................|.......................|.......................|.......................|.......................|.......................|.......................|.......................|
C-0....................|.......................|.......................|C-0....................|C-0....................|.......................|.......................|.......................|C-0....................|.......................|
.......................|.......................|.......................|.......................|A-2....8000............|.......................|.......................|.......................|C-5A000EA00............|.......................|
.......................|.......................|.......................|.......................|.......................|.......................|.......................|.......................|.......................|.......................|
.......................|.......................|.......................|.......................|.......................|.......................|.......................|.......................|.......................|.......................|
.......................|.......................|.......................|.......................|.......................|.......................|.......................|.......................|.......................|.......................|
.......................|.......................|.......................|.......................|.......................|.......................|.......................|.......................|.......................|.......................|
.......................|.......................|.......................|.......................|C-0....................|.......................|.......................|.......................|C-0....................|.......................|
G-1....................|.......................|.......................|B-3....................|G-2....80FF............|C-4C0..................|.......................|.......................|C-5A000EA00............|.......................|
.......................|.......................|.......................|.......................|.......................|.......................|.......................|.......................|.......................|.......................|
.......................|.......................|.......................|.......................|.......................|.......................|.......................|.......................|.......................|.......................|
.......................|.......................|.......................|.......................|.......................|.......................|.......................|.......................|.......................|.......................|
.......................|.......................|.......................|.......................|.......................|.......................|.......................|.......................|.......................|.......................|
.......................|.......................|.......................|.......................|C-0....................|.......................|.......................|.......................|C-0....................|.......................|
.......................|.......................|.......................|.......................|G-2....8000............|.......................|.......................|.......................|C-5A000EA00............|.......................|
.......................|.......................|.......................|.......................|.......................|.......................|.......................|.......................|.......................|.......................|
.......................|.......0452............|.......0452............|.......................|.......................|.......................|.......................|.......................|.......................|.......................|
.......................|.......................|.......................|.......................|.......................|.......................|.......................|.......................|.......................|.......................|
.......................|.......................|.......................|.......................|.......................|.......................|.......................|.......................|.......................|.......................|
C-0....................|.......................|.......................|.......................|C-0....................|.......................|.......................|.......................|C-0....................|.......................|
G-2....................|.......................|.......................|.......................|G-2....80FF............|C-4C0..................|.......................|.......................|C-5A000EA00............|.......................|
.......................|.......................|.......................|.......................|.......................|.......................|.......................|.......................|.......................|.......................|
.......................|.......................|.......................|.......................|.......................|.......................|.......................|.......................|.......................|.......................|
.......................|.......................|.......................|.......................|.......................|.......................|.......................|.......................|.......................|.......................|
.......................|.......................|.......................|.......................|.......................|.......................|.......................|.......................|.......................|.......................|
C-0....................|.......................|.......................|.......................|C-0....................|.......................|.......................|.......................|C-0....................|.......................|
.......................|.......................|.......................|.......................|G-2....8000............|C-4C0..................|.......................|.......................|C-5A000EA00............|.......................|
.......................|.......................|.......................|.......................|.......................|.......................|.......................|.......................|.......................|.......................|
.......................|.......................|.......................|.......0452............|.......................|.......................|.......................|.......................|.......................|.......................|
.......................|.......................|.......................|.......................|.......................|.......................|.......................|.......................|.......................|.......................|
.......................|.......................|.......................|.......................|.......................|.......................|.......................|.......................|.......................|.......................|
.......................|.......................|.......................|.......................|C-0....................|.......................|.......................|.......................|C-0....................|.......................|
G-1....................|.......................|.......................|.......................|G-2....80FF............|C-4C1..................|.......................|.......................|C-5A000EA00............|.......................|
.......................|.......................|.......................|.......................|.......................|.......................|.......................|.......................|.......................|.......................|
.......................|.......................|.......................|.......................|.......................|.......................|.......................|.......................|.......................|.......................|
.......................|.......................|.......................|.......................|.......................|.......................|.......................|.......................|.......................|.......................|
.......................|.......................|.......................|.......................|.......................|.......................|.......................|.......................|.......................|.......................|
.......................|.......................|.......................|.......................|C-0....................|.......................|.......................|.......................|C-0....................|.......................|
.......................|.......................|.......................|.......................|G-2....8000............|C-4C0..................|.......................|.......................|C-5A000EA00............|.......................|
.......................|.......................|.......................|.......................|.......................|.......................|.......................|.......................|.......................|.......................|
.......................|.......................|.......................|.......................|.......................|.......................|.......................|.......................|.......................|.......................|
.......................|.......................|C-0....................|.......................|.......................|.......................|.......................|.......................|.......................|.......................|
.......................|.......................|.......................|.......................|.......................|.......................|.......................|.......................|.......................|.......................|
C-0....................|.......................|.......................|.......................|C-0....................|.......................|.......................|.......................|C-0....................|.......................|
G-2....................|.......................|.......................|.......................|G-2....80FF............|C-4C0..................|.......................|.......................|C-5A000EA00............|.......................|
.......................|.......................|.......................|.......................|.......................|.......................|.......................|.......................|.......................|.......................|
.......................|.......................|.......................|.......................|.......................|.......................|.......................|.......................|.......................|.......................|
.......................|.......................|.......................|.......................|.......................|.......................|.......................|.......................|.......................|.......................|
.......................|.......................|.......................|.......................|.......................|.......................|.......................|.......................|.......................|.......................|
C-0....................|.......................|.......................|.......................|C-0....................|.......................|.......................|.......................|C-0....................|.......................|
.......................|.......................|.......................|.......................|G-2....8000............|C-4C0..................|.......................|.......................|C-5A000EA00............|.......................|
.......................|.......................|.......................|.......................|.......................|.......................|.......................|.......................|.......................|.......................|
.......................|.......................|.......................|.......................|.......................|.......................|.......................|.......................|.......................|.......................|
.......................|.......................|.......................|.......................|.......................|.......................|.......................|.......................|.......................|.......................|
.......................|.......................|.......................|.......................|.......................|.......................|.......................|.......................|.......................|.......................|
.......................|C-0....................|.......................|.......................|C-0....................|.......................|.......................|.......................|C-0....................|.......................|
A-1....................|A-3....0400............|E-3....0400............|.......................|A-2....80FF............|C-4C0..................|.......................|.......................|C-5A000EA00............|.......................|
.......................|.......................|.......................|.......................|.......................|.......................|.......................|.......................|.......................|.......................|
.......................|.......................|.......................|.......................|.......................|.......................|.......................|.......................|.......................|.......................|
.......................|.......................|.......................|.......................|.......................|.......................|.......................|.......................|.......................|.......................|
.......................|.......................|.......................|.......................|.......................|.......................|.......................|.......................|.......................|.......................|
.......................|C-0....................|C-0....................|.......................|C-0....................|.......................|.......................|.......................|C-0....................|.......................|
.......................|A-3....................|E-3....................|.......................|A-2....8000............|.......................|.......................|.......................|C-5A000EA00............|.......................|
.......................|.......................|.......................|.......................|.......................|.......................|.......................|.......................|.......................|.......................|
.......................|.......................|.......................|.......................|.......................|.......................|.......................|.......................|.......................|.......................|
.......................|.......................|.......................|.......................|.......................|.......................|.......................|.......................|.......................|.......................|
.......................|.......................|.......................|.......................|.......................|.......................|.......................|.......................|.......................|.......................|
C-0....................|C-0....................|C-0....................|C-0....................|C-0....................|.......................|.......................|.......................|C-0....................|.......................|
A-2....................|.......................|.......................|A-3....0400............|A-2....80FF............|.......................|.......................|.......................|C-5A000EA00............|.......................|
.......................|.......................|.......................|.......................|.......................|.......................|.......................|.......................|.......................|.......................|
.......................|.......................|.......................|.......................|.......................|.......................|.......................|.......................|.......................|.......................|
.......................|.......................|.......................|.......................|.......................|.......................|.......................|.......................|.......................|.......................|
.......................|.......................|.......................|.......................|.......................|.......................|.......................|.......................|.......................|.......................|
C-0....................|.......................|.......................|C-0....................|C-0....................|.......................|.......................|.......................|C-0....................|.......................|
.......................|C-4....................|A-3....................|A-3....................|A-2....8000............|.......................|.......................|.......................|C-5A000EA00............|.......................|
.......................|.......................|.......................|.......................|.......................|.......................|.......................|.......................|.......................|.......................|
.......................|.......................|.......................|.......................|.......................|.......................|.......................|.......................|.......................|.......................|
.......................|.......................|.......................|.......................|.......................|.......................|.......................|.......................|.......................|.......................|
.......................|.......................|.......................|.......................|.......................|.......................|.......................|.......................|.......................|.......................|
.......................|C-0....................|C-0....................|C-0....................|C-0....................|.......................|.......................|.......................|C-0....................|.......................|
A-1....................|C-4....................|A-3....................|.......................|A-2....80FF............|C-4C1..................|.......................|.......................|C-5A000EA00............|.......................|
.......................|.......................|.......................|.......................|.......................|.......................|.......................|.......................|.......................|.......................|
.......................|.......................|.......................|.......................|.......................|.......................|.......................|.......................|.......................|.......................|
.......................|.......................|.......................|.......................|.......................|.......................|.......................|.......................|.......................|.......................|
.......................|.......................|.......................|.......................|.......................|.......................|.......................|.......................|.......................|.......................|
.......................|C-0....................|C-0....................|.......................|C-0....................|.......................|.......................|.......................|C-0....................|.......................|
.......................|.......................|.......................|C-4....................|A-2....8000............|.......................|.......................|.......................|C-5A000EA00............|.......................|
.......................|.......................|.......................|.......................|.......................|.......................|.......................|.......................|.......................|.......................|
.......................|.......................|.......................|.......................|.......................|.......................|.......................|.......................|.......................|.......................|
.......................|.......................|.......................|.......................|.......................|.......................|.......................|.......................|.......................|.......................|
.......................|.......................|.......................|.......................|.......................|.......................|.......................|.......................|.......................|.......................|
C-0....................|.......................|.......................|C-0....................|C-0....................|.......................|.......................|.......................|C-0....................|.......................|
A-2....................|D-4....................|B-3....................|C-4....................|A-2....80FF............|.......................|.......................|.......................|C-5A000EA00............|.......................|
.......................|.......................|.......................|.......................|.......................|.......................|.......................|.......................|.......................|.......................|
.......................|.......................|.......................|.......................|.......................|.......................|.......................|.......................|.......................|.......................|
.......................|.......................|.......................|.......................|.......................|.......................|.......................|.......................|.......................|.......................|
.......................|.......................|.......................|.......................|.......................|.......................|.......................|.......................|.......................|.......................|
C-0....................|.......................|.......................|C-0....................|C-0....................|.......................|.......................|.......................|C-0....................|.......................|
.......................|.......................|.......................|.......................|A-2....8000............|.......................|.......................|.......................|C-5A000EA00............|.......................|
.......................|.......................|.......................|.......................|.......................|.......................|.......................|.......................|.......................|.......................|
.......................|.......................|.......................|.......................|.......................|.......................|.......................|.......................|.......................|.......................|
.......................|.......................|.......................|.......................|.......................|.......................|.......................|.......................|.......................|.......................|
.......................|.......................|.......................|.......................|.......................|.......................|.......................|.......................|.......................|.......................|
.......................|.......................|.......................|.......................|C-0....................|.......................|.......................|.......................|C-0....................|.......................|
G-1....................|.......................|.......................|D-4....................|G-2....8080............|C-4C0..................|.......................|.......................|C-5A000EA00............|.......................|
.......................|.......................|.......................|.......................|.......................|.......................|.......................|.......................|.......................|.......................|
.......................|.......................|.......................|.......................|.......................|.......................|.......................|.......................|.......................|.......................|
.......................|.......................|.......................|.......................|.......................|.......................|.......................|.......................|.......................|.......................|
.......................|.......................|.......................|.......................|.......................|.......................|.......................|.......................|.......................|.......................|
.......................|.......................|.......................|.......................|C-0....................|.......................|.......................|.......................|C-0....................|.......................|
.......................|.......................|.......................|.......................|G-2....................|.......................|.......................|.......................|C-5A000EA00............|.......................|
.......................|.......................|.......................|.......................|.......................|.......................|.......................|.......................|.......................|.......................|
.......................|.......0452............|.......0452............|.......................|.......................|.......................|.......................|.......................|.......................|.......................|
.......................|.......................|.......................|.......................|.......................|.......................|.......................|.......................|.......................|.......................|
.......................|.......................|.......................|.......................|.......................|.......................|.......................|.......................|.......................|.......................|
C-0....................|.......................|.......................|.......................|C-0....................|.......................|.......................|.......................|C-0....................|.......................|
G-2....................|.......................|.......................|.......................|G-2....................|C-4C0..................|.......................|.......................|C-5A000EA00............|.......................|
.......................|.......................|.......................|.......................|.......................|.......................|.......................|.......................|.......................|.......................|
.......................|.......................|.......................|.......................|.......................|.......................|.......................|.......................|.......................|.......................|
.......................|.......................|.......................|.......................|.......................|.......................|.......................|.......................|.......................|.......................|
.......................|.......................|.......................|.......................|.......................|.......................|.......................|.......................|.......................|.......................|
C-0....................|.......................|.......................|.......................|C-0....................|.......................|.......................|.......................|C-0....................|.......................|
.......................|.......................|.......................|.......................|G-2....................|C-4C0..................|.......................|.......................|C-5A000EA00............|.......................|
.......................|.......................|.......................|.......................|.......................|.......................|.......................|.......................|.......................|.......................|
.......................|.......................|.......................|.......0452............|.......................|.......................|.......................|.......................|.......................|.......................|
.......................|.......................|.......................|.......................|.......................|.......................|.......................|.......................|.......................|.......................|
.......................|.......................|.......................|.......................|.......................|.......................|.......................|.......................|.......................|.......................|
.......................|C-0....................|C-0....................|.......................|C-0....................|.......................|.......................|.......................|C-0....................|.......................|
F-1....................|E-4....0400............|C-4....0400............|.......................|F-2....................|C-4C1..................|.......................|.......................|C-5A000EA00............|.......................|
.......................|.......................|.......................|.......................|.......................|.......................|.......................|.......................|.......................|.......................|
.......................|.......................|.......................|.......................|.......................|.......................|.......................|.......................|.......................|.......................|
.......................|.......................|.......................|.......................|.......................|.......................|.......................|.......................|.......................|.......................|
.......................|.......................|.......................|.......................|.......................|.......................|.......................|.......................|.......................|.......................|
.......................|.......................|.......................|.......................|C-0....................|.......................|.......................|.......................|C-0....................|.......................|
.......................|.......................|.......................|.......................|F-2....................|C-4C0..................|.......................|.......................|C-5A000EA00............|.......................|
.......................|.......................|.......................|.......................|.......................|.......................|.......................|.......................|.......................|.......................|
.......................|.......................|.......................|.......................|.......................|.......................|.......................|.......................|.......................|.......................|
.......................|.......................|.......................|.......................|.......................|.......................|.......................|.......................|.......................|.......................|
.......................|.......................|.......................|.......................|.......................|.......................|.......................|.......................|.......................|.......................|
C-0....................|C-0....................|C-0....................|C-0....................|C-0....................|.......................|.......................|.......................|C-0....................|.......................|
F-2....................|F-4....................|C-4....................|E-4....0400............|F-2....................|C-4C0..................|.......................|.......................|C-5A000EA00............|.......................|
.......................|.......................|.......................|.......................|.......................|.......................|.......................|.......................|.......................|.......................|
.......................|.......................|.......................|.......................|.......................|.......................|.......................|.......................|.......................|.......................|
.......................|.......................|.......................|.......................|.......................|.......................|.......................|.......................|.......................|.......................|
.......................|.......................|.......................|.......................|.......................|.......................|.......................|.......................|.......................|.......................|
C-0....................|.......................|.......................|.......................|C-0....................|.......................|.......................|.......................|C-0....................|.......................|
.......................|.......................|.......................|.......................|F-2....................|C-4C0..................|.......................|.......................|C-5A000EA00............|.......................|
.......................|.......................|.......................|.......................|.......................|.......................|.......................|.......................|.......................|.......................|
.......................|.......................|.......................|.......................|.......................|.......................|.......................|.......................|.......................|.......................|
.......................|.......................|.......................|.......................|.......................|.......................|.......................|.......................|.......................|.......................|
.......................|.......................|.......................|.......................|.......................|.......................|.......................|.......................|.......................|.......................|
.......................|C-0....................|C-0....................|C-0....................|C-0....................|.......................|.......................|.......................|C-0....................|.......................|
E-1....................|E-4....................|B-3....................|F-4....................|E-2....80FF............|C-4C0..................|.......................|.......................|C-5A000EA00............|.......................|
.......................|.......................|.......................|.......................|.......................|.......................|.......................|.......................|.......................|.......................|
.......................|.......................|.......................|.......................|.......................|.......................|.......................|.......................|.......................|.......................|
.......................|.......................|.......................|.......................|.......................|.......................|.......................|.......................|.......................|.......................|
.......................|.......................|.......................|.......................|.......................|.......................|.......................|.......................|.......................|.......................|
.......................|C-0....................|C-0....................|.......................|C-0....................|.......................|.......................|.......................|C-0....................|.......................|
.......................|E-4....................|B-3....................|.......................|E-2....8000............|.......................|.......................|.......................|C-5A000EA00............|.......................|
.......................|.......................|.......................|.......................|.......................|.......................|.......................|.......................|.......................|.......................|
.......................|.......................|.......................|.......................|.......................|.......................|.......................|.......................|.......................|.......................|
.......................|.......................|.......................|.......................|.......................|.......................|.......................|.......................|.......................|.......................|
.......................|.......................|.......................|.......................|.......................|.......................|.......................|.......................|.......................|.......................|
C-0....................|C-0....................|C-0....................|C-0....................|C-0....................|.......................|.......................|.......................|C-0....................|.......................|
E-2....................|.......................|.......................|E-4....................|E-2....80FF............|.......................|.......................|.......................|C-5A000EA00............|.......................|
.......................|.......................|.......................|.......................|.......................|.......................|.......................|.......................|.......................|.......................|
.......................|.......................|.......................|.......................|.......................|.......................|.......................|.......................|.......................|.......................|
.......................|.......................|.......................|.......................|.......................|.......................|.......................|.......................|.......................|.......................|
.......................|.......................|.......................|.......................|.......................|.......................|.......................|.......................|.......................|.......................|
C-0....................|.......................|.......................|C-0....................|C-0....................|.......................|.......................|.......................|C-0....................|.......................|
.......................|E-4....................|B-3....................|E-4....................|E-2....8000............|.......................|.......................|.......................|C-5A000EA00............|.......................|
.......................|.......................|.......................|.......................|.......................|.......................|.......................|.......................|.......................|.......................|
.......................|.......................|.......................|.......................|.......................|.......................|.......................|.......................|.......................|.......................|
.......................|.......................|.......................|.......................|.......................|.......................|.......................|.......................|.......................|.......................|
.......................|.......................|.......................|.......................|.......................|.......................|.......................|.......................|.......................|.......................|
.......................|C-0....................|C-0....................|C-0....................|C-0....................|.......................|.......................|.......................|C-0....................|.......................|
E-1....................|F-4....................|D-3....................|.......................|E-2....80FF............|C-4C1..................|.......................|.......................|C-5A000EA00............|.......................|
.......................|.......................|.......................|.......................|.......................|.......................|.......................|.......................|.......................|.......................|
.......................|.......................|.......................|.......................|.......................|.......................|.......................|.......................|.......................|.......................|
.......................|.......................|.......................|.......................|.......................|.......................|.......................|.......................|.......................|.......................|
.......................|.......................|.......................|.......................|.......................|.......................|.......................|.......................|.......................|.......................|
.......................|.......................|.......................|.......................|C-0....................|.......................|.......................|.......................|C-0....................|.......................|
.......................|.......................|.......................|E-4....................|E-2....8000............|.......................|.......................|.......................|C-5A000EA00............|.......................|
.......................|.......................|.......................|.......................|.......................|.......................|.......................|.......................|.......................|.......................|
org.tildearrow.furnace - Pattern Data (219)
0
.......................|.......................|.......................|.......................|.......................|.......................|.......................|.......................|.......................|.......................|
.......................|.......................|.......................|.......................|.......................|.......................|.......................|.......................|.......................|.......................|
.......................|.......................|.......................|.......................|.......................|.......................|.......................|.......................|.......................|.......................|
C-0....................|C-0....................|C-0....................|C-0....................|C-0....................|.......................|.......................|.......................|C-0....................|.......................|
E-2....................|E-4....................|B-3....................|F-4....................|E-2....80FF............|.......................|.......................|.......................|C-5A000EA00............|.......................|
.......................|.......................|.......................|.......................|.......................|.......................|.......................|.......................|.......................|.......................|
.......................|.......................|.......................|.......................|.......................|.......................|.......................|.......................|.......................|.......................|
.......................|.......................|.......................|.......................|.......................|.......................|.......................|.......................|.......................|.......................|
.......................|.......................|.......................|.......................|.......................|.......................|.......................|.......................|.......................|.......................|
C-0....................|.......................|.......................|.......................|C-0....................|.......................|.......................|.......................|C-0....................|.......................|
.......................|.......................|.......................|.......................|E-2....8000............|.......................|.......................|.......................|C-5A000EA00............|.......................|
.......................|.......................|.......................|.......................|.......................|.......................|.......................|.......................|.......................|.......................|
.......................|.......................|.......................|.......................|.......................|.......................|.......................|.......................|.......................|.......................|
.......................|.......................|.......................|.......................|.......................|.......................|.......................|.......................|.......................|.......................|
.......................|.......................|.......................|.......................|.......................|.......................|.......................|.......................|.......................|.......................|
.......................|.......................|.......................|C-0....................|C-0....................|.......................|.......................|.......................|C-0....................|.......................|
E-1....................|.......................|.......................|E-4....................|E-2....80FF............|C-4C0..................|.......................|.......................|C-5A000EA00............|.......................|
.......................|.......................|.......................|.......................|.......................|.......................|.......................|.......................|.......................|.......................|
.......................|.......................|.......................|.......................|.......................|.......................|.......................|.......................|.......................|.......................|
.......................|.......................|.......................|.......................|.......................|.......................|.......................|.......................|.......................|.......................|
.......................|.......................|.......................|.......................|.......................|.......................|.......................|.......................|.......................|.......................|
.......................|.......................|.......................|.......................|C-0....................|.......................|.......................|.......................|C-0....................|.......................|
.......................|.......................|.......................|.......................|E-2....8000............|.......................|.......................|.......................|C-5A000EA00............|.......................|
.......................|.......................|.......................|.......................|.......................|.......................|.......................|.......................|.......................|.......................|
.......................|.......0452............|.......0452............|.......................|.......................|.......................|.......................|.......................|.......................|.......................|
.......................|.......................|.......................|.......................|.......................|.......................|.......................|.......................|.......................|.......................|
.......................|.......................|.......................|.......................|.......................|.......................|.......................|.......................|.......................|.......................|
C-0....................|C-0....................|C-0....................|.......................|C-0....................|.......................|.......................|.......................|C-0....................|.......................|
E-2....................|E-4....0400............|E-3....0400............|.......................|E-2....80FF............|C-4C0..................|.......................|.......................|C-5A000EA00............|.......................|
.......................|.......................|.......................|.......................|.......................|.......................|.......................|.......................|.......................|.......................|
.......................|.......................|.......................|.......................|.......................|.......................|.......................|.......................|.......................|.......................|
.......................|.......................|.......................|.......................|.......................|.......................|.......................|.......................|.......................|.......................|
.......................|.......................|.......................|.......................|.......................|.......................|.......................|.......................|.......................|.......................|
C-0....................|C-0....................|C-0....................|.......................|C-0....................|.......................|.......................|.......................|C-0....................|.......................|
E-2....................|F-4....................|F-3....................|.......................|E-2....8000............|C-4C0..................|.......................|.......................|C-5A000EA00............|.......................|
.......................|.......................|.......................|.......................|.......................|.......................|.......................|.......................|.......................|.......................|
.......................|.......................|.......................|.......0452............|.......................|.......................|.......................|.......................|.......................|.......................|
.......................|.......................|.......................|.......................|.......................|.......................|.......................|.......................|.......................|.......................|
.......................|.......................|.......................|.......................|.......................|.......................|.......................|.......................|.......................|.......................|
C-0....................|C-0....................|C-0....................|C-0....................|C-0....................|.......................|.......................|.......................|C-0....................|.......................|
E-1....................|E-4....................|E-3....................|E-4....0400............|E-2....80FF............|C-4C1..................|.......................|.......................|C-5A000EA00............|.......................|
.......................|.......................|.......................|.......................|.......................|.......................|.......................|.......................|.......................|.......................|
.......................|.......................|.......................|.......................|.......................|.......................|.......................|.......................|.......................|.......................|
.......................|.......................|.......................|.......................|.......................|.......................|.......................|.......................|.......................|.......................|
.......................|.......................|.......................|.......................|.......................|.......................|.......................|.......................|.......................|.......................|
C-0....................|C-0....................|C-0....................|C-0....................|C-0....................|.......................|.......................|.......................|C-0....................|.......................|
E-2....................|D-4....................|D-3....................|F-4....................|E-2....8000............|C-4C1..................|.......................|.......................|C-5A000EA00............|.......................|
.......................|.......................|.......................|.......................|.......................|.......................|.......................|.......................|.......................|.......................|
C-0....................|.......................|.......................|.......................|.......................|.......................|.......................|.......................|.......................|.......................|
.......................|.......................|.......................|.......................|.......................|.......................|.......................|.......................|.......................|.......................|
.......................|.......................|.......................|.......................|.......................|.......................|.......................|.......................|.......................|.......................|
.......................|C-0....................|C-0....................|C-0....................|C-0....................|.......................|.......................|.......................|C-0....................|.......................|
E-2....................|C-4....................|C-3....................|E-4....................|E-2....80FF............|C-4C1..................|.......................|.......................|C-5A000EA00............|.......................|
.......................|.......................|.......................|.......................|.......................|.......................|.......................|.......................|.......................|.......................|
C-0....................|.......................|.......................|.......................|.......................|.......................|.......................|.......................|.......................|.......................|
.......................|.......................|.......................|.......................|.......................|.......................|.......................|.......................|.......................|.......................|
.......................|.......................|.......................|.......................|.......................|.......................|.......................|.......................|.......................|.......................|
.......................|C-0....................|C-0....................|C-0....................|C-0....................|.......................|.......................|.......................|C-0....................|.......................|
E-3....................|G-3....................|G-3....................|D-4....................|E-2....8000............|C-4C1..................|.......................|.......................|C-5A000EA00............|.......................|
.......................|.......................|.......................|.......................|.......................|.......................|.......................|.......................|.......................|.......................|
C-0....................|.......................|.......................|.......................|.......................|.......................|.......................|.......................|.......................|.......................|
.......................|.......................|.......................|.......................|.......................|.......................|.......................|.......................|.......................|.......................|
.......................|.......................|.......................|.......................|.......................|.......................|.......................|.......................|.......................|.......................|
.......................|C-0....................|C-0....................|C-0....................|C-0....................|.......................|.......................|.......................|C-0....................|.......................|
A-1....................|A-3....................|E-3....................|C-4....................|A-2....80FF............|C-4C0..................|.......................|.......................|C-5A000EA00............|.......................|
.......................|.......................|.......................|.......................|.......................|.......................|.......................|.......................|.......................|.......................|
.......................|.......................|.......................|.......................|.......................|.......................|.......................|.......................|.......................|.......................|
.......................|.......................|.......................|.......................|.......................|.......................|.......................|.......................|.......................|.......................|
.......................|.......................|.......................|.......................|.......................|.......................|.......................|.......................|.......................|.......................|
.......................|C-0....................|C-0....................|C-0....................|C-0....................|.......................|.......................|.......................|C-0....................|.......................|
.......................|A-3....................|E-3....................|G-3....................|A-2....8000............|.......................|.......................|.......................|C-5A000EA00............|.......................|
.......................|.......................|.......................|.......................|.......................|.......................|.......................|.......................|.......................|.......................|
.......................|.......................|.......................|.......................|.......................|.......................|.......................|.......................|.......................|.......................|
.......................|.......................|.......................|.......................|.......................|.......................|.......................|.......................|.......................|.......................|
.......................|.......................|.......................|.......................|.......................|.......................|.......................|.......................|.......................|.......................|
C-0....................|C-0....................|C-0....................|C-0....................|C-0....................|.......................|.......................|.......................|C-0....................|.......................|
A-2....................|.......................|.......................|A-3....................|A-2....80FF............|.......................|.......................|.......................|C-5A000EA00............|.......................|
.......................|.......................|.......................|.......................|.......................|.......................|.......................|.......................|.......................|.......................|
.......................|.......................|.......................|.......................|.......................|.......................|.......................|.......................|.......................|.......................|
.......................|.......................|.......................|.......................|.......................|.......................|.......................|.......................|.......................|.......................|
.......................|.......................|.......................|.......................|.......................|.......................|.......................|.......................|.......................|.......................|
C-0....................|.......................|.......................|C-0....................|C-0....................|.......................|.......................|.......................|C-0....................|.......................|
.......................|C-4....................|A-3....................|A-3....................|A-2....8000............|.......................|.......................|.......................|C-5A000EA00............|.......................|
.......................|.......................|.......................|.......................|.......................|.......................|.......................|.......................|.......................|.......................|
.......................|.......................|.......................|.......................|.......................|.......................|.......................|.......................|.......................|.......................|
.......................|.......................|.......................|.......................|.......................|.......................|.......................|.......................|.......................|.......................|
.......................|.......................|.......................|.......................|.......................|.......................|.......................|.......................|.......................|.......................|
.......................|C-0....................|C-0....................|C-0....................|C-0....................|.......................|.......................|.......................|C-0....................|.......................|
A-1....................|C-4....................|A-3....................|.......................|A-2....80FF............|C-4C1..................|.......................|.......................|C-5A000EA00............|.......................|
.......................|.......................|.......................|.......................|.......................|.......................|.......................|.......................|.......................|.......................|
.......................|.......................|.......................|.......................|.......................|.......................|.......................|.......................|.......................|.......................|
.......................|.......................|.......................|.......................|.......................|.......................|.......................|.......................|.......................|.......................|
.......................|.......................|.......................|.......................|.......................|.......................|.......................|.......................|.......................|.......................|
.......................|C-0....................|C-0....................|.......................|C-0....................|.......................|.......................|.......................|C-0....................|.......................|
.......................|.......................|.......................|C-4....................|A-2....8000............|.......................|.......................|.......................|C-5A000EA00............|.......................|
.......................|.......................|.......................|.......................|.......................|.......................|.......................|.......................|.......................|.......................|
.......................|.......................|.......................|.......................|.......................|.......................|.......................|.......................|.......................|.......................|
.......................|.......................|.......................|.......................|.......................|.......................|.......................|.......................|.......................|.......................|
.......................|.......................|.......................|.......................|.......................|.......................|.......................|.......................|.......................|.......................|
C-0....................|.......................|.......................|C-0....................|C-0....................|.......................|.......................|.......................|C-0....................|.......................|
A-2....................|D-4....................|B-3....................|C-4....................|A-2....80FF............|.......................|.......................|.......................|C-5A000EA00............|.......................|
.......................|.......................|.......................|.......................|.......................|.......................|.......................|.......................|.......................|.......................|
.......................|.......................|.......................|.......................|.......................|.......................|.......................|.......................|.......................|.......................|
.......................|.......................|.......................|.......................|.......................|.......................|.......................|.......................|.......................|.......................|
.......................|.......................|.......................|.......................|.......................|.......................|.......................|.......................|.......................|.......................|
C-0....................|.......................|.......................|C-0....................|C-0....................|.......................|.......................|.......................|C-0....................|.......................|
.......................|.......................|.......................|.......................|A-2....8000............|.......................|.......................|.......................|C-5A000EA00............|.......................|
.......................|.......................|.......................|.......................|.......................|.......................|.......................|.......................|.......................|.......................|
.......................|.......................|.......................|.......................|.......................|.......................|.......................|.......................|.......................|.......................|
.......................|.......................|.......................|.......................|.......................|.......................|.......................|.......................|.......................|.......................|
.......................|.......................|.......................|.......................|.......................|.......................|.......................|.......................|.......................|.......................|
.......................|.......................|.......................|.......................|C-0....................|.......................|.......................|.......................|C-0....................|.......................|
G-1....................|.......................|.......................|D-4....................|G-2....80FF............|C-4C0..................|.......................|.......................|C-5A000EA00............|.......................|
.......................|.......................|.......................|.......................|.......................|.......................|.......................|.......................|.......................|.......................|
.......................|.......................|.......................|.......................|.......................|.......................|.......................|.......................|.......................|.......................|
.......................|.......................|.......................|.......................|.......................|.......................|.......................|.......................|.......................|.......................|
.......................|.......................|.......................|.......................|.......................|.......................|.......................|.......................|.......................|.......................|
.......................|.......................|.......................|.......................|C-0....................|.......................|.......................|.......................|C-0....................|.......................|
.......................|.......................|.......................|.......................|G-2....8000............|.......................|.......................|.......................|C-5A000EA00............|.......................|
.......................|.......................|.......................|.......................|.......................|.......................|.......................|.......................|.......................|.......................|
.......................|.......0452............|.......0452............|.......................|.......................|.......................|.......................|.......................|.......................|.......................|
.......................|.......................|.......................|.......................|.......................|.......................|.......................|.......................|.......................|.......................|
.......................|.......................|.......................|.......................|.......................|.......................|.......................|.......................|.......................|.......................|
C-0....................|.......................|.......................|.......................|C-0....................|.......................|.......................|.......................|C-0....................|.......................|
G-2....................|.......................|.......................|.......................|G-2....80FF............|C-4C0..................|.......................|.......................|C-5A000EA00............|.......................|
.......................|.......................|.......................|.......................|.......................|.......................|.......................|.......................|.......................|.......................|
.......................|.......................|.......................|.......................|.......................|.......................|.......................|.......................|.......................|.......................|
.......................|.......................|.......................|.......................|.......................|.......................|.......................|.......................|.......................|.......................|
.......................|.......................|.......................|.......................|.......................|.......................|.......................|.......................|.......................|.......................|
C-0....................|.......................|.......................|.......................|C-0....................|.......................|.......................|.......................|C-0....................|.......................|
.......................|.......................|.......................|.......................|G-2....8000............|C-4C0..................|.......................|.......................|C-5A000EA00............|.......................|
.......................|.......................|.......................|.......................|.......................|.......................|.......................|.......................|.......................|.......................|
.......................|.......................|.......................|.......0452............|.......................|.......................|.......................|.......................|.......................|.......................|
.......................|.......................|.......................|.......................|.......................|.......................|.......................|.......................|.......................|.......................|
.......................|.......................|.......................|.......................|.......................|.......................|.......................|.......................|.......................|.......................|
.......................|.......................|.......................|.......................|C-0....................|.......................|.......................|.......................|C-0....................|.......................|
G-1....................|.......................|.......................|.......................|G-2....80FF............|C-4C1..................|.......................|.......................|C-5A000EA00............|.......................|
.......................|.......................|.......................|.......................|.......................|.......................|.......................|.......................|.......................|.......................|
.......................|.......................|.......................|.......................|.......................|.......................|.......................|.......................|.......................|.......................|
.......................|.......................|.......................|.......................|.......................|.......................|.......................|.......................|.......................|.......................|
.......................|.......................|.......................|.......................|.......................|.......................|.......................|.......................|.......................|.......................|
.......................|.......................|.......................|.......................|C-0....................|.......................|.......................|.......................|C-0....................|.......................|
.......................|.......................|.......................|.......................|G-2....8000............|C-4C0..................|.......................|.......................|C-5A000EA00............|.......................|
.......................|.......................|.......................|.......................|.......................|.......................|.......................|.......................|.......................|.......................|
.......................|.......................|.......................|.......................|.......................|.......................|.......................|.......................|.......................|.......................|
.......................|.......................|C-0....................|.......................|.......................|.......................|.......................|.......................|.......................|.......................|
.......................|.......................|.......................|.......................|.......................|.......................|.......................|.......................|.......................|.......................|
C-0....................|.......................|.......................|.......................|C-0....................|.......................|.......................|.......................|C-0....................|.......................|
G-2....................|.......................|.......................|.......................|G-2....80FF............|C-4C0..................|.......................|.......................|C-5A000EA00............|.......................|
.......................|.......................|.......................|.......................|.......................|.......................|.......................|.......................|.......................|.......................|
.......................|.......................|.......................|.......................|.......................|.......................|.......................|.......................|.......................|.......................|
.......................|.......................|.......................|.......................|.......................|.......................|.......................|.......................|.......................|.......................|
.......................|.......................|.......................|.......................|.......................|.......................|.......................|.......................|.......................|.......................|
C-0....................|.......................|.......................|.......................|C-0....................|.......................|.......................|.......................|C-0....................|.......................|
.......................|.......................|.......................|.......................|G-2....8000............|C-4C0..................|.......................|.......................|C-5A000EA00............|.......................|
.......................|.......................|.......................|.......................|.......................|.......................|.......................|.......................|.......................|.......................|
.......................|.......................|.......................|.......................|.......................|.......................|.......................|.......................|.......................|.......................|
.......................|.......................|.......................|.......................|.......................|.......................|.......................|.......................|.......................|.......................|
.......................|.......................|.......................|.......................|.......................|.......................|.......................|.......................|.......................|.......................|
.......................|C-0....................|.......................|.......................|C-0....................|.......................|.......................|.......................|C-0....................|.......................|
A-1....................|A-3....0400............|E-3....0400............|.......................|A-2....80FF............|C-4C0..................|.......................|.......................|C-5A000EA00............|.......................|
.......................|.......................|.......................|.......................|.......................|.......................|.......................|.......................|.......................|.......................|
.......................|.......................|.......................|.......................|.......................|.......................|.......................|.......................|.......................|.......................|
.......................|.......................|.......................|.......................|.......................|.......................|.......................|.......................|.......................|.......................|
.......................|.......................|.......................|.......................|.......................|.......................|.......................|.......................|.......................|.......................|
.......................|C-0....................|C-0....................|.......................|C-0....................|.......................|.......................|.......................|C-0....................|.......................|
.......................|A-3....................|E-3....................|.......................|A-2....8000............|.......................|.......................|.......................|C-5A000EA00............|.......................|
.......................|.......................|.......................|.......................|.......................|.......................|.......................|.......................|.......................|.......................|
.......................|.......................|.......................|.......................|.......................|.......................|.......................|.......................|.......................|.......................|
.......................|.......................|.......................|.......................|.......................|.......................|.......................|.......................|.......................|.......................|
.......................|.......................|.......................|.......................|.......................|.......................|.......................|.......................|.......................|.......................|
C-0....................|C-0....................|C-0....................|C-0....................|C-0....................|.......................|.......................|.......................|C-0....................|.......................|
A-2....................|.......................|.......................|A-3....0400............|A-2....80FF............|.......................|.......................|.......................|C-5A000EA00............|.......................|
.......................|.......................|.......................|.......................|.......................|.......................|.......................|.......................|.......................|.......................|
.......................|.......................|.......................|.......................|.......................|.......................|.......................|.......................|.......................|.......................|
.......................|.......................|.......................|.......................|.......................|.......................|.......................|.......................|.......................|.......................|
.......................|.......................|.......................|.......................|.......................|.......................|.......................|.......................|.......................|.......................|
C-0....................|.......................|.......................|C-0....................|C-0....................|.......................|.......................|.......................|C-0....................|.......................|
.......................|C-4....................|A-3....................|A-3....................|A-2....8000............|.......................|.......................|.......................|C-5A000EA00............|.......................|
.......................|.......................|.......................|.......................|.......................|.......................|.......................|.......................|.......................|.......................|
.......................|.......................|.......................|.......................|.......................|.......................|.......................|.......................|.......................|.......................|
.......................|.......................|.......................|.......................|.......................|.......................|.......................|.......................|.......................|.......................|
.......................|.......................|.......................|.......................|.......................|.......................|.......................|.......................|.......................|.......................|
.......................|C-0....................|C-0....................|C-0....................|C-0....................|.......................|.......................|.......................|C-0....................|.......................|
A-1....................|C-4....................|A-3....................|.......................|A-2....80FF............|C-4C1..................|.......................|.......................|C-5A000EA00............|.......................|
.......................|.......................|.......................|.......................|.......................|.......................|.......................|.......................|.......................|.......................|
.......................|.......................|.......................|.......................|.......................|.......................|.......................|.......................|.......................|.......................|
.......................|.......................|.......................|.......................|.......................|.......................|.......................|.......................|.......................|.......................|
.......................|.......................|.......................|.......................|.......................|.......................|.......................|.......................|.......................|.......................|
.......................|C-0....................|C-0....................|.......................|C-0....................|.......................|.......................|.......................|C-0....................|.......................|
.......................|.......................|.......................|C-4....................|A-2....8000............|.......................|.......................|.......................|C-5A000EA00............|.......................|
.......................|.......................|.......................|.......................|.......................|.......................|.......................|.......................|.......................|.......................|
.......................|.......................|.......................|.......................|.......................|.......................|.......................|.......................|.......................|.......................|
.......................|.......................|.......................|.......................|.......................|.......................|.......................|.......................|.......................|.......................|
.......................|.......................|.......................|.......................|.......................|.......................|.......................|.......................|.......................|.......................|
C-0....................|.......................|.......................|C-0....................|C-0....................|.......................|.......................|.......................|C-0....................|.......................|
A-2....................|B-3....................|G-3....................|C-4....................|A-2....80FF............|.......................|.......................|.......................|C-5A000EA00............|.......................|
.......................|.......................|.......................|.......................|.......................|.......................|.......................|.......................|.......................|.......................|
.......................|.......................|.......................|.......................|.......................|.......................|.......................|.......................|.......................|.......................|
.......................|.......................|.......................|.......................|.......................|.......................|.......................|.......................|.......................|.......................|
.......................|.......................|.......................|.......................|.......................|.......................|.......................|.......................|.......................|.......................|
C-0....................|.......................|.......................|C-0....................|C-0....................|.......................|.......................|.......................|C-0....................|.......................|
.......................|.......................|.......................|.......................|A-2....8000............|.......................|.......................|.......................|C-5A000EA00............|.......................|
.......................|.......................|.......................|.......................|.......................|.......................|.......................|.......................|.......................|.......................|
.......................|.......................|.......................|.......................|.......................|.......................|.......................|.......................|.......................|.......................|
.......................|.......................|.......................|.......................|.......................|.......................|.......................|.......................|.......................|.......................|
.......................|.......................|.......................|.......................|.......................|.......................|.......................|.......................|.......................|.......................|
.......................|.......................|.......................|.......................|C-0....................|.......................|.......................|.......................|C-0....................|.......................|
G-1....................|.......................|.......................|B-3....................|G-2....80FF............|C-4C0..................|.......................|.......................|C-5A000EA00............|.......................|
.......................|.......................|.......................|.......................|.......................|.......................|.......................|.......................|.......................|.......................|
.......................|.......................|.......................|.......................|.......................|.......................|.......................|.......................|.......................|.......................|
.......................|.......................|.......................|.......................|.......................|.......................|.......................|.......................|.......................|.......................|
.......................|.......................|.......................|.......................|.......................|.......................|.......................|.......................|.......................|.......................|
.......................|.......................|.......................|.......................|C-0....................|.......................|.......................|.......................|C-0....................|.......................|
.......................|.......................|.......................|.......................|G-2....8000............|.......................|.......................|.......................|C-5A000EA00............|.......................|
.......................|.......................|.......................|.......................|.......................|.......................|.......................|.......................|.......................|.......................|
.......................|.......0452............|.......0452............|.......................|.......................|.......................|.......................|.......................|.......................|.......................|
.......................|.......................|.......................|.......................|.......................|.......................|.......................|.......................|.......................|.......................|
.......................|.......................|.......................|.......................|.......................|.......................|.......................|.......................|.......................|.......................|
C-0....................|.......................|.......................|.......................|C-0....................|.......................|.......................|.......................|C-0....................|.......................|
G-2....................|.......................|.......................|.......................|G-2....80FF............|C-4C0..................|.......................|.......................|C-5A000EA00............|.......................|
.......................|.......................|.......................|.......................|.......................|.......................|.......................|.......................|.......................|.......................|
.......................|.......................|.......................|.......................|.......................|.......................|.......................|.......................|.......................|.......................|
.......................|.......................|.......................|.......................|.......................|.......................|.......................|.......................|.......................|.......................|
.......................|.......................|.......................|.......................|.......................|.......................|.......................|.......................|.......................|.......................|
C-0....................|.......................|.......................|.......................|C-0....................|.......................|.......................|.......................|C-0....................|.......................|
.......................|.......................|.......................|.......................|G-2....8000............|C-4C0..................|.......................|.......................|C-5A000EA00............|.......................|
.......................|.......................|.......................|.......................|.......................|.......................|.......................|.......................|.......................|.......................|
.......................|.......................|.......................|.......0452............|.......................|.......................|.......................|.......................|.......................|.......................|
.......................|.......................|.......................|.......................|.......................|.......................|.......................|.......................|.......................|.......................|
.......................|.......................|.......................|.......................|.......................|.......................|.......................|.......................|.......................|.......................|
.......................|.......................|.......................|.......................|C-0....................|.......................|.......................|.......................|C-0....................|.......................|
G-1....................|.......................|.......................|.......................|G-2....80FF............|C-4C1..................|.......................|.......................|C-5A000EA00............|.......................|
.......................|.......................|.......................|.......................|.......................|.......................|.......................|.......................|.......................|.......................|
.......................|.......................|.......................|.......................|.......................|.......................|.......................|.......................|.......................|.......................|
.......................|.......................|.......................|.......................|.......................|.......................|.......................|.......................|.......................|.......................|
.......................|.......................|.......................|.......................|.......................|.......................|.......................|.......................|.......................|.......................|
.......................|.......................|.......................|.......................|C-0....................|.......................|.......................|.......................|C-0....................|.......................|
.......................|.......................|.......................|.......................|G-2....8000............|C-4C0..................|.......................|.......................|C-5A000EA00............|.......................|
.......................|.......................|.......................|.......................|.......................|.......................|.......................|.......................|.......................|.......................|
.......................|.......................|.......................|.......................|.......................|.......................|.......................|.......................|.......................|.......................|
.......................|.......................|C-0....................|.......................|.......................|.......................|.......................|.......................|.......................|.......................|
.......................|.......................|.......................|.......................|.......................|.......................|.......................|.......................|.......................|.......................|
C-0....................|.......................|.......................|.......................|C-0....................|.......................|.......................|.......................|C-0....................|.......................|
G-2....................|.......................|.......................|.......................|G-2....80FF............|C-4C0..................|.......................|.......................|C-5A000EA00............|.......................|
.......................|.......................|.......................|.......................|.......................|.......................|.......................|.......................|.......................|.......................|
.......................|.......................|.......................|.......................|.......................|.......................|.......................|.......................|.......................|.......................|
.......................|.......................|.......................|.......................|.......................|.......................|.......................|.......................|.......................|.......................|
.......................|.......................|.......................|.......................|.......................|.......................|.......................|.......................|.......................|.......................|
C-0....................|.......................|.......................|.......................|C-0....................|.......................|.......................|.......................|C-0....................|.......................|
.......................|.......................|.......................|.......................|G-2....8000............|C-4C0..................|.......................|.......................|C-5A000EA00............|.......................|
.......................|.......................|.......................|.......................|.......................|.......................|.......................|.......................|.......................|.......................|
.......................|.......................|.......................|.......................|.......................|.......................|.......................|.......................|.......................|.......................|
.......................|.......................|.......................|.......................|.......................|.......................|.......................|.......................|.......................|.......................|
.......................|.......................|.......................|.......................|.......................|.......................|.......................|.......................|.......................|.......................|
.......................|C-0....................|.......................|.......................|C-0....................|.......................|.......................|.......................|C-0....................|.......................|
org.tildearrow.furnace - Pattern Data (219)
0
A-1....................|A-3....0400............|E-3....0400............|.......................|A-2....80FF............|C-4C0..................|.......................|.......................|C-5A000EA00............|.......................|
.......................|.......................|.......................|.......................|.......................|.......................|.......................|.......................|.......................|.......................|
.......................|.......................|.......................|.......................|.......................|.......................|.......................|.......................|.......................|.......................|
.......................|.......................|.......................|.......................|.......................|.......................|.......................|.......................|.......................|.......................|
.......................|.......................|.......................|.......................|.......................|.......................|.......................|.......................|.......................|.......................|
.......................|C-0....................|C-0....................|.......................|C-0....................|.......................|.......................|.......................|C-0....................|.......................|
.......................|A-3....................|E-3....................|.......................|A-2....8000............|.......................|.......................|.......................|C-5A000EA00............|.......................|
.......................|.......................|.......................|.......................|.......................|.......................|.......................|.......................|.......................|.......................|
.......................|.......................|.......................|.......................|.......................|.......................|.......................|.......................|.......................|.......................|
.......................|.......................|.......................|.......................|.......................|.......................|.......................|.......................|.......................|.......................|
.......................|.......................|.......................|.......................|.......................|.......................|.......................|.......................|.......................|.......................|
C-0....................|C-0....................|C-0....................|C-0....................|C-0....................|.......................|.......................|.......................|C-0....................|.......................|
A-2....................|.......................|.......................|A-3....0400............|A-2....80FF............|.......................|.......................|.......................|C-5A000EA00............|.......................|
.......................|.......................|.......................|.......................|.......................|.......................|.......................|.......................|.......................|.......................|
.......................|.......................|.......................|.......................|.......................|.......................|.......................|.......................|.......................|.......................|
.......................|.......................|.......................|.......................|.......................|.......................|.......................|.......................|.......................|.......................|
.......................|.......................|.......................|.......................|.......................|.......................|.......................|.......................|.......................|.......................|
C-0....................|.......................|.......................|C-0....................|C-0....................|.......................|.......................|.......................|C-0....................|.......................|
.......................|C-4....................|A-3....................|A-3....................|A-2....8000............|.......................|.......................|.......................|C-5A000EA00............|.......................|
.......................|.......................|.......................|.......................|.......................|.......................|.......................|.......................|.......................|.......................|
.......................|.......................|.......................|.......................|.......................|.......................|.......................|.......................|.......................|.......................|
.......................|.......................|.......................|.......................|.......................|.......................|.......................|.......................|.......................|.......................|
.......................|.......................|.......................|.......................|.......................|.......................|.......................|.......................|.......................|.......................|
.......................|C-0....................|C-0....................|C-0....................|C-0....................|.......................|.......................|.......................|C-0....................|.......................|
A-1....................|C-4....................|A-3....................|.......................|A-2....80FF............|C-4C1..................|.......................|.......................|C-5A000EA00............|.......................|
.......................|.......................|.......................|.......................|.......................|.......................|.......................|.......................|.......................|.......................|
.......................|.......................|.......................|.......................|.......................|.......................|.......................|.......................|.......................|.......................|
.......................|.......................|.......................|.......................|.......................|.......................|.......................|.......................|.......................|.......................|
.......................|.......................|.......................|.......................|.......................|.......................|.......................|.......................|.......................|.......................|
.......................|C-0....................|C-0....................|.......................|C-0....................|.......................|.......................|.......................|C-0....................|.......................|
.......................|.......................|.......................|C-4....................|A-2....8000............|.......................|.......................|.......................|C-5A000EA00............|.......................|
.......................|.......................|.......................|.......................|.......................|.......................|.......................|.......................|.......................|.......................|
.......................|.......................|.......................|.......................|.......................|.......................|.......................|.......................|.......................|.......................|
.......................|.......................|.......................|.......................|.......................|.......................|.......................|.......................|.......................|.......................|
.......................|.......................|.......................|.......................|.......................|.......................|.......................|.......................|.......................|.......................|
C-0....................|.......................|.......................|C-0....................|C-0....................|.......................|.......................|.......................|C-0....................|.......................|
A-2....................|D-4....................|B-3....................|C-4....................|A-2....80FF............|.......................|.......................|.......................|C-5A000EA00............|.......................|
.......................|.......................|.......................|.......................|.......................|.......................|.......................|.......................|.......................|.......................|
.......................|.......................|.......................|.......................|.......................|.......................|.......................|.......................|.......................|.......................|
.......................|.......................|.......................|.......................|.......................|.......................|.......................|.......................|.......................|.......................|
.......................|.......................|.......................|.......................|.......................|.......................|.......................|.......................|.......................|.......................|
C-0....................|.......................|.......................|C-0....................|C-0....................|.......................|.......................|.......................|C-0....................|.......................|
.......................|.......................|.......................|.......................|A-2....8000............|.......................|.......................|.......................|C-5A000EA00............|.......................|
.......................|.......................|.......................|.......................|.......................|.......................|.......................|.......................|.......................|.......................|
.......................|.......................|.......................|.......................|.......................|.......................|.......................|.......................|.......................|.......................|
.......................|.......................|.......................|.......................|.......................|.......................|.......................|.......................|.......................|.......................|
.......................|.......................|.......................|.......................|.......................|.......................|.......................|.......................|.......................|.......................|
.......................|.......................|.......................|.......................|C-0....................|.......................|.......................|.......................|C-0....................|.......................|
G-1....................|.......................|.......................|D-4....................|G-2....8080............|C-4C0..................|.......................|.......................|C-5A000EA00............|.......................|
.......................|.......................|.......................|.......................|.......................|.......................|.......................|.......................|.......................|.......................|
.......................|.......................|.......................|.......................|.......................|.......................|.......................|.......................|.......................|.......................|
.......................|.......................|.......................|.......................|.......................|.......................|.......................|.......................|.......................|.......................|
.......................|.......................|.......................|.......................|.......................|.......................|.......................|.......................|.......................|.......................|
.......................|.......................|.......................|.......................|C-0....................|.......................|.......................|.......................|C-0....................|.......................|
.......................|.......................|.......................|.......................|G-2....................|.......................|.......................|.......................|C-5A000EA00............|.......................|
.......................|.......................|.......................|.......................|.......................|.......................|.......................|.......................|.......................|.......................|
.......................|.......0452............|.......0452............|.......................|.......................|.......................|.......................|.......................|.......................|.......................|
.......................|.......................|.......................|.......................|.......................|.......................|.......................|.......................|.......................|.......................|
.......................|.......................|.......................|.......................|.......................|.......................|.......................|.......................|.......................|.......................|
C-0....................|.......................|.......................|.......................|C-0....................|.......................|.......................|.......................|C-0....................|.......................|
G-2....................|.......................|.......................|.......................|G-2....................|C-4C0..................|.......................|.......................|C-5A000EA00............|.......................|
.......................|.......................|.......................|.......................|.......................|.......................|.......................|.......................|.......................|.......................|
.......................|.......................|.......................|.......................|.......................|.......................|.......................|.......................|.......................|.......................|
.......................|.......................|.......................|.......................|.......................|.......................|.......................|.......................|.......................|.......................|
.......................|.......................|.......................|.......................|.......................|.......................|.......................|.......................|.......................|.......................|
C-0....................|.......................|.......................|.......................|C-0....................|.......................|.......................|.......................|C-0....................|.......................|
.......................|.......................|.......................|.......................|G-2....................|C-4C0..................|.......................|.......................|C-5A000EA00............|.......................|
.......................|.......................|.......................|.......................|.......................|.......................|.......................|.......................|.......................|.......................|
.......................|.......................|.......................|.......0452............|.......................|.......................|.......................|.......................|.......................|.......................|
.......................|.......................|.......................|.......................|.......................|.......................|.......................|.......................|.......................|.......................|
.......................|.......................|.......................|.......................|.......................|.......................|.......................|.......................|.......................|.......................|
.......................|C-0....................|C-0....................|.......................|C-0....................|.......................|.......................|.......................|C-0....................|.......................|
F-1....................|E-4....0400............|C-4....0400............|.......................|F-2....................|C-4C1..................|.......................|.......................|C-5A000EA00............|.......................|
.......................|.......................|.......................|.......................|.......................|.......................|.......................|.......................|.......................|.......................|
.......................|.......................|.......................|.......................|.......................|.......................|.......................|.......................|.......................|.......................|
.......................|.......................|.......................|.......................|.......................|.......................|.......................|.......................|.......................|.......................|
.......................|.......................|.......................|.......................|.......................|.......................|.......................|.......................|.......................|.......................|
.......................|.......................|.......................|.......................|C-0....................|.......................|.......................|.......................|C-0....................|.......................|
.......................|.......................|.......................|.......................|F-2....................|C-4C0..................|.......................|.......................|C-5A000EA00............|.......................|
.......................|.......................|.......................|.......................|.......................|.......................|.......................|.......................|.......................|.......................|
.......................|.......................|.......................|.......................|.......................|.......................|.......................|.......................|.......................|.......................|
.......................|.......................|.......................|.......................|.......................|.......................|.......................|.......................|.......................|.......................|
.......................|.......................|.......................|.......................|.......................|.......................|.......................|.......................|.......................|.......................|
C-0....................|C-0....................|C-0....................|C-0....................|C-0....................|.......................|.......................|.......................|C-0....................|.......................|
F-2....................|F-4....................|C-4....................|E-4....0400............|F-2....................|C-4C0..................|.......................|.......................|C-5A000EA00............|.......................|
.......................|.......................|.......................|.......................|.......................|.......................|.......................|.......................|.......................|.......................|
.......................|.......................|.......................|.......................|.......................|.......................|.......................|.......................|.......................|.......................|
.......................|.......................|.......................|.......................|.......................|.......................|.......................|.......................|.......................|.......................|
.......................|.......................|.......................|.......................|.......................|.......................|.......................|.......................|.......................|.......................|
C-0....................|.......................|.......................|.......................|C-0....................|.......................|.......................|.......................|C-0....................|.......................|
.......................|.......................|.......................|.......................|F-2....................|C-4C0..................|.......................|.......................|C-5A000EA00............|.......................|
.......................|.......................|.......................|.......................|.......................|.......................|.......................|.......................|.......................|.......................|
.......................|.......................|.......................|.......................|.......................|.......................|.......................|.......................|.......................|.......................|
.......................|.......................|.......................|.......................|.......................|.......................|.......................|.......................|.......................|.......................|
.......................|.......................|.......................|.......................|.......................|.......................|.......................|.......................|.......................|.......................|
.......................|C-0....................|C-0....................|C-0....................|C-0....................|.......................|.......................|.......................|C-0....................|.......................|
E-1....................|A-4....................|E-4....................|F-4....................|E-2....80FF............|C-4C0..................|.......................|.......................|C-5A000EA00............|.......................|
.......................|.......................|.......................|.......................|.......................|.......................|.......................|.......................|.......................|.......................|
.......................|.......................|.......................|.......................|.......................|.......................|.......................|.......................|.......................|.......................|
.......................|.......................|.......................|.......................|.......................|.......................|.......................|.......................|.......................|.......................|
.......................|.......................|.......................|.......................|.......................|.......................|.......................|.......................|.......................|.......................|
.......................|C-0....................|C-0....................|.......................|C-0....................|.......................|.......................|.......................|C-0....................|.......................|
.......................|C-0....................|E-4....................|.......................|E-2....8000............|.......................|.......................|.......................|C-5A000EA00............|.......................|
.......................|.......................|.......................|.......................|.......................|.......................|.......................|.......................|.......................|.......................|
.......................|.......................|.......................|.......................|.......................|.......................|.......................|.......................|.......................|.......................|
.......................|.......................|.......................|.......................|.......................|.......................|.......................|.......................|.......................|.......................|
.......................|.......................|.......................|.......................|.......................|.......................|.......................|.......................|.......................|.......................|
C-0....................|C-0....................|C-0....................|C-0....................|C-0....................|.......................|.......................|.......................|C-0....................|.......................|
E-2....................|.......................|.......................|A-4....................|E-2....80FF............|.......................|.......................|.......................|C-5A000EA00............|.......................|
.......................|.......................|.......................|.......................|.......................|.......................|.......................|.......................|.......................|.......................|
.......................|.......................|.......................|.......................|.......................|.......................|.......................|.......................|.......................|.......................|
.......................|.......................|.......................|.......................|.......................|.......................|.......................|.......................|.......................|.......................|
.......................|.......................|.......................|.......................|.......................|.......................|.......................|.......................|.......................|.......................|
C-0....................|.......................|.......................|C-0....................|C-0....................|.......................|.......................|.......................|C-0....................|.......................|
.......................|A-4....................|E-4....................|A-4....................|E-2....8000............|.......................|.......................|.......................|C-5A000EA00............|.......................|
.......................|.......................|.......................|.......................|.......................|.......................|.......................|.......................|.......................|.......................|
.......................|.......................|.......................|.......................|.......................|.......................|.......................|.......................|.......................|.......................|
.......................|.......................|.......................|.......................|.......................|.......................|.......................|.......................|.......................|.......................|
.......................|.......................|.......................|.......................|.......................|.......................|.......................|.......................|.......................|.......................|
.......................|C-0....................|C-0....................|C-0....................|C-0....................|.......................|.......................|.......................|C-0....................|.......................|
E-1....................|A-4....................|E-4....................|.......................|E-2....80FF............|C-4C1..................|.......................|.......................|C-5A000EA00............|.......................|
.......................|.......................|.......................|.......................|.......................|.......................|.......................|.......................|.......................|.......................|
.......................|.......................|.......................|.......................|.......................|.......................|.......................|.......................|.......................|.......................|
.......................|.......................|.......................|.......................|.......................|.......................|.......................|.......................|.......................|.......................|
.......................|.......................|.......................|.......................|.......................|.......................|.......................|.......................|.......................|.......................|
.......................|.......................|.......................|.......................|C-0....................|.......................|.......................|.......................|C-0....................|.......................|
.......................|.......................|.......................|A-4....................|E-2....8000............|.......................|.......................|.......................|C-5A000EA00............|.......................|
.......................|.......................|.......................|.......................|.......................|.......................|.......................|.......................|.......................|.......................|
.......................|.......................|.......................|.......................|.......................|.......................|.......................|.......................|.......................|.......................|
.......................|.......................|.......................|.......................|.......................|.......................|.......................|.......................|.......................|.......................|
.......................|.......................|.......................|.......................|.......................|.......................|.......................|.......................|.......................|.......................|
C-0....................|C-0....................|C-0....................|C-0....................|C-0....................|.......................|.......................|.......................|C-0....................|.......................|
E-2....................|G#4....................|E-4....................|A-4....................|E-2....80FF............|.......................|.......................|.......................|C-5A000EA00............|.......................|
.......................|.......................|.......................|.......................|.......................|.......................|.......................|.......................|.......................|.......................|
.......................|.......................|.......................|.......................|.......................|.......................|.......................|.......................|.......................|.......................|
.......................|.......................|.......................|.......................|.......................|.......................|.......................|.......................|.......................|.......................|
.......................|.......................|.......................|.......................|.......................|.......................|.......................|.......................|.......................|.......................|
C-0....................|.......................|.......................|.......................|C-0....................|.......................|.......................|.......................|C-0....................|.......................|
.......................|.......................|.......................|.......................|E-2....8000............|.......................|.......................|.......................|C-5A000EA00............|.......................|
.......................|.......................|.......................|.......................|.......................|.......................|.......................|.......................|.......................|.......................|
.......................|.......................|.......................|.......................|.......................|.......................|.......................|.......................|.......................|.......................|
.......................|.......................|.......................|.......................|.......................|.......................|.......................|.......................|.......................|.......................|
.......................|.......................|.......................|.......................|.......................|.......................|.......................|.......................|.......................|.......................|
.......................|.......................|.......................|C-0....................|C-0....................|.......................|.......................|.......................|C-0....................|.......................|
E-1....................|.......................|.......................|G#4....................|E-2....80FF............|C-4C0..................|.......................|.......................|C-5A000EA00............|.......................|
.......................|.......................|.......................|.......................|.......................|.......................|.......................|.......................|.......................|.......................|
.......................|.......................|.......................|.......................|.......................|.......................|.......................|.......................|.......................|.......................|
.......................|.......................|.......................|.......................|.......................|.......................|.......................|.......................|.......................|.......................|
.......................|.......................|.......................|.......................|.......................|.......................|.......................|.......................|.......................|.......................|
.......................|.......................|.......................|.......................|C-0....................|.......................|.......................|.......................|C-0....................|.......................|
.......................|.......................|.......................|.......................|E-2....8000............|.......................|.......................|.......................|C-5A000EA00............|.......................|
.......................|.......................|.......................|.......................|.......................|.......................|.......................|.......................|.......................|.......................|
.......................|.......0452............|.......0452............|.......................|.......................|.......................|.......................|.......................|.......................|.......................|
.......................|.......................|.......................|.......................|.......................|.......................|.......................|.......................|.......................|.......................|
.......................|.......................|.......................|.......................|.......................|.......................|.......................|.......................|.......................|.......................|
C-0....................|C-0....................|C-0....................|.......................|C-0....................|.......................|.......................|.......................|C-0....................|.......................|
E-2....................|G#4....0400............|E-4....0400............|.......................|E-2....80FF............|C-4C0..................|.......................|.......................|C-5A000EA00............|.......................|
.......................|.......................|.......................|.......................|.......................|.......................|.......................|.......................|.......................|.......................|
.......................|.......................|.......................|.......................|.......................|.......................|.......................|.......................|.......................|.......................|
.......................|.......................|.......................|.......................|.......................|.......................|.......................|.......................|.......................|.......................|
.......................|.......................|.......................|.......................|.......................|.......................|.......................|.......................|.......................|.......................|
C-0....................|.......................|.......................|.......................|C-0....................|.......................|.......................|.......................|C-0....................|.......................|
.......................|.......................|.......................|.......................|E-2....8000............|C-4C1..................|.......................|.......................|C-5A000EA00............|.......................|
.......................|.......................|.......................|.......................|.......................|.......................|.......................|.......................|.......................|.......................|
.......................|.......................|.......................|.......0452............|.......................|.......................|.......................|.......................|.......................|.......................|
.......................|.......................|.......................|.......................|.......................|.......................|.......................|.......................|.......................|.......................|
.......................|.......................|.......................|.......................|.......................|.......................|.......................|.......................|.......................|.......................|
.......................|C-0....................|C-0....................|C-0....................|C-0....................|.......................|.......................|.......................|C-0....................|.......................|
E-1....................|A-4....................|F-4....................|G#4....0400............|E-2....80FF............|C-4C0..................|.......................|.......................|C-5A000EA00............|.......................|
.......................|.......................|.......................|.......................|.......................|.......................|.......................|.......................|.......................|.......................|
.......................|.......................|.......................|.......................|.......................|.......................|.......................|.......................|.......................|.......................|
.......................|.......................|.......................|.......................|.......................|.......................|.......................|.......................|.......................|.......................|
.......................|.......................|.......................|.......................|.......................|.......................|.......................|.......................|.......................|.......................|
.......................|.......................|.......................|.......................|C-0....................|.......................|.......................|.......................|C-0....................|.......................|
.......................|.......................|.......................|.......................|E-2....8000............|C-4C1..................|.......................|.......................|C-5A000EA00............|.......................|
.......................|.......................|.......................|.......................|.......................|.......................|.......................|.......................|.......................|.......................|
.......................|.......................|.......................|.......................|.......................|.......................|.......................|.......................|.......................|.......................|
.......................|.......................|.......................|.......................|.......................|.......................|.......................|.......................|.......................|.......................|
.......................|.......................|.......................|.......................|.......................|.......................|.......................|.......................|.......................|.......................|
C-0....................|C-0....................|C-0....................|C-0....................|C-0....................|.......................|.......................|.......................|C-0....................|.......................|
E-2....................|B-4....................|G-4....................|A-4....................|E-2....80FF............|C-4C1..................|.......................|.......................|C-5A000EA00............|.......................|
.......................|.......................|.......................|.......................|.......................|.......................|.......................|.......................|.......................|.......................|
.......................|.......................|.......................|.......................|.......................|.......................|.......................|.......................|.......................|.......................|
.......................|.......................|.......................|.......................|.......................|.......................|.......................|.......................|.......................|.......................|
.......................|.......................|.......................|.......................|.......................|.......................|.......................|.......................|.......................|.......................|
C-0....................|.......................|.......................|.......................|C-0....................|.......................|.......................|.......................|C-0....................|.......................|
.......................|.......................|.......................|.......................|E-2....8000............|C-4C1..................|.......................|.......................|C-5A000EA00............|.......................|
.......................|.......................|.......................|.......................|.......................|.......................|.......................|.......................|.......................|.......................|
.......................|.......................|.......................|.......................|.......................|.......................|.......................|.......................|.......................|.......................|
.......................|.......................|.......................|.......................|.......................|.......................|.......................|.......................|.......................|.......................|
.......................|.......................|.......................|.......................|.......................|.......................|.......................|.......................|.......................|.......................|
.......................|C-0....................|C-0....................|C-0....................|C-0....................|.......................|.......................|.......................|C-0....................|.......................|
F-1....................|F-4....................|C-4....................|B-4....................|F-2....80FF............|C-4C0..................|.......................|.......................|C-5A000EA00............|.......................|
.......................|.......................|.......................|.......................|.......................|.......................|.......................|.......................|.......................|.......................|
.......................|.......................|.......................|.......................|.......................|.......................|.......................|.......................|.......................|.......................|
.......................|.......................|.......................|.......................|.......................|.......................|.......................|.......................|.......................|.......................|
.......................|.......................|.......................|.......................|.......................|.......................|.......................|.......................|.......................|.......................|
.......................|.......................|.......................|.......................|C-0....................|.......................|.......................|.......................|C-0....................|.......................|
.......................|.......................|.......................|.......................|F-2....8000............|.......................|.......................|.......................|C-5A000EA00............|.......................|
.......................|.......................|.......................|.......................|.......................|.......................|.......................|.......................|.......................|.......................|
.......................|.......................|.......................|.......................|.......................|.......................|.......................|.......................|.......................|.......................|
.......................|.......................|.......................|.......................|.......................|.......................|.......................|.......................|.......................|.......................|
.......................|.......................|.......................|.......................|.......................|.......................|.......................|.......................|.......................|.......................|
C-0....................|C-0....................|C-0....................|C-0....................|C-0....................|.......................|.......................|.......................|C-0....................|.......................|
F-2....................|.......................|.......................|F-4....................|F-2....80FF............|.......................|.......................|.......................|C-5A000EA00............|.......................|
.......................|.......................|.......................|.......................|.......................|.......................|.......................|.......................|.......................|.......................|
.......................|.......................|.......................|.......................|.......................|.......................|.......................|.......................|.......................|.......................|
.......................|.......................|.......................|.......................|.......................|.......................|.......................|.......................|.......................|.......................|
.......................|.......................|.......................|.......................|.......................|.......................|.......................|.......................|.......................|.......................|
C-0....................|.......................|.......................|.......................|C-0....................|.......................|.......................|.......................|C-0....................|.......................|
.......................|F-4....................|C-4....................|.......................|F-2....8000............|.......................|.......................|.......................|C-5A000EA00............|.......................|
.......................|.......................|.......................|.......................|.......................|.......................|.......................|.......................|.......................|.......................|
.......................|.......................|.......................|.......................|.......................|.......................|.......................|.......................|.......................|.......................|
.......................|.......................|.......................|.......................|.......................|.......................|.......................|.......................|.......................|.......................|
.......................|.......................|.......................|.......................|.......................|.......................|.......................|.......................|.......................|.......................|
.......................|C-0....................|C-0....................|C-0....................|C-0....................|.......................|.......................|.......................|C-0....................|.......................|
F-1....................|.......................|.......................|.......................|F-2....80FF............|C-4C1..................|.......................|.......................|C-5A000EA00............|.......................|
.......................|.......................|.......................|.......................|.......................|.......................|.......................|.......................|.......................|.......................|
.......................|.......................|.......................|.......................|.......................|.......................|.......................|.......................|.......................|.......................|
.......................|.......................|.......................|.......................|.......................|.......................|.......................|.......................|.......................|.......................|
.......................|.......................|.......................|.......................|.......................|.......................|.......................|.......................|.......................|.......................|
.......................|.......................|.......................|.......................|C-0....................|.......................|.......................|.......................|C-0....................|.......................|
.......................|.......................|.......................|F-4....................|F-2....8000............|.......................|.......................|.......................|C-5A000EA00............|.......................|
.......................|.......................|.......................|.......................|.......................|.......................|.......................|.......................|.......................|.......................|
.......................|.......................|.......................|.......................|.......................|.......................|.......................|.......................|.......................|.......................|
.......................|.......................|.......................|.......................|.......................|.......................|.......................|.......................|.......................|.......................|
.......................|.......................|.......................|.......................|.......................|.......................|.......................|.......................|.......................|.......................|
C-0....................|.......................|.......................|C-0....................|C-0....................|.......................|.......................|.......................|C-0....................|.......................|
F-2....................|F-4....................|C-4....................|.......................|F-2....80FF............|.......................|.......................|.......................|C-5A000EA00............|.......................|
.......................|.......................|.......................|.......................|.......................|.......................|.......................|.......................|.......................|.......................|
.......................|.......................|.......................|.......................|.......................|.......................|.......................|.......................|.......................|.......................|
.......................|.......................|.......................|.......................|.......................|.......................|.......................|.......................|.......................|.......................|
.......................|.......................|.......................|.......................|.......................|.......................|.......................|.......................|.......................|.......................|
C-0....................|.......................|.......................|.......................|C-0....................|.......................|.......................|.......................|C-0....................|.......................|
.......................|.......................|.......................|.......................|F-2....8000............|.......................|.......................|.......................|C-5A000EA00............|.......................|
.......................|.......................|.......................|.......................|.......................|.......................|.......................|.......................|.......................|.......................|
.......................|.......................|.......................|.......................|.......................|.......................|.......................|.......................|.......................|.......................|
.......................|.......................|.......................|.......................|.......................|.......................|.......................|.......................|.......................|.......................|
.......................|.......................|.......................|.......................|.......................|.......................|.......................|.......................|.......................|.......................|
.......................|C-0....................|C-0....................|.......................|C-0....................|.......................|.......................|.......................|C-0....................|.......................|
G-1....................|G-4....................|D-4....................|F-4....................|G-2....80FF............|C-4C0..................|.......................|.......................|C-5A000EA00............|.......................|
.......................|.......................|.......................|.......................|.......................|.......................|.......................|.......................|.......................|.......................|
.......................|.......................|.......................|.......................|.......................|.......................|.......................|.......................|.......................|.......................|
.......................|.......................|.......................|.......................|.......................|.......................|.......................|.......................|.......................|.......................|
.......................|.......................|.......................|.......................|.......................|.......................|.......................|.......................|.......................|.......................|
.......................|.......................|.......................|.......................|C-0....................|.......................|.......................|.......................|C-0....................|.......................|
.......................|.......................|.......................|.......................|G-2....8000............|.......................|.......................|.......................|C-5A000EA00............|.......................|
.......................|.......................|.......................|.......................|.......................|.......................|.......................|.......................|.......................|.......................|
.......................|.......................|.......................|.......................|.......................|.......................|.......................|.......................|.......................|.......................|
.......................|.......................|.......................|.......................|.......................|.......................|.......................|.......................|.......................|.......................|
.......................|.......................|.......................|.......................|.......................|.......................|.......................|.......................|.......................|.......................|
C-0....................|.......................|.......................|C-0....................|C-0....................|.......................|.......................|.......................|C-0....................|.......................|
G-2....................|.......................|.......................|G-4....................|G-2....80FF............|C-4C0..................|.......................|.......................|C-5A000EA00............|.......................|
.......................|.......................|.......................|.......................|.......................|.......................|.......................|.......................|.......................|.......................|
.......................|.......................|.......................|.......................|.......................|.......................|.......................|.......................|.......................|.......................|
.......................|.......................|.......................|.......................|.......................|.......................|.......................|.......................|.......................|.......................|
org.tildearrow.furnace - Pattern Data (219)
0
.......................|.......................|.......................|.......................|.......................|.......................|.......................|.......................|.......................|.......................|
C-0....................|.......................|.......................|.......................|C-0....................|.......................|.......................|.......................|C-0....................|.......................|
G-2....................|.......................|.......................|.......................|G-2....8000............|C-4C0..................|.......................|.......................|C-5A000EA00............|.......................|
.......................|.......................|.......................|.......................|.......................|.......................|.......................|.......................|.......................|.......................|
.......................|.......0452............|.......0452............|.......................|.......................|.......................|.......................|.......................|.......................|.......................|
.......................|.......................|.......................|.......................|.......................|.......................|.......................|.......................|.......................|.......................|
.......................|.......................|.......................|.......................|.......................|.......................|.......................|.......................|.......................|.......................|
C-0....................|C-0....................|C-0....................|.......................|C-0....................|.......................|.......................|.......................|C-0....................|.......................|
G-1....................|D-4....0400............|B-3....0400............|.......................|G-2....80FF............|C-4C1..................|.......................|.......................|C-5A000EA00............|.......................|
.......................|.......................|.......................|.......................|.......................|.......................|.......................|.......................|.......................|.......................|
.......................|.......................|.......................|.......................|.......................|.......................|.......................|.......................|.......................|.......................|
.......................|.......................|.......................|.......................|.......................|.......................|.......................|.......................|.......................|.......................|
.......................|.......................|.......................|.......................|.......................|.......................|.......................|.......................|.......................|.......................|
C-0....................|.......................|.......................|.......................|C-0....................|.......................|.......................|.......................|C-0....................|.......................|
G-2....................|.......................|.......................|.......................|G-2....8000............|C-4C0..................|.......................|.......................|C-5A000EA00............|.......................|
.......................|.......................|.......................|.......................|.......................|.......................|.......................|.......................|.......................|.......................|
.......................|.......................|.......................|.......0452............|.......................|.......................|.......................|.......................|.......................|.......................|
.......................|.......................|.......................|.......................|.......................|.......................|.......................|.......................|.......................|.......................|
.......................|.......................|.......................|.......................|.......................|.......................|.......................|.......................|.......................|.......................|
C-0....................|.......................|.......................|C-0....................|C-0....................|.......................|.......................|.......................|C-0....................|.......................|
G-2....................|.......................|.......................|D-4....0400............|G-2....80FF............|C-4C0..................|.......................|.......................|C-5A000EA00............|.......................|
.......................|.......................|.......................|.......................|.......................|.......................|.......................|.......................|.......................|.......................|
.......................|.......................|.......................|.......................|.......................|.......................|.......................|.......................|.......................|.......................|
.......................|.......................|.......................|.......................|.......................|.......................|.......................|.......................|.......................|.......................|
.......................|.......................|.......................|.......................|.......................|.......................|.......................|.......................|.......................|.......................|
C-0....................|.......................|.......................|.......................|C-0....................|.......................|.......................|.......................|C-0....................|.......................|
G-2....................|.......................|.......................|.......................|G-2....8000............|C-4C0..................|.......................|.......................|C-5A000EA00............|.......................|
.......................|.......................|.......................|.......................|.......................|.......................|.......................|.......................|.......................|.......................|
C-0....................|.......0452............|.......0452............|.......................|.......................|.......................|.......................|.......................|.......................|.......................|
.......................|.......................|.......................|.......................|.......................|.......................|.......................|.......................|.......................|.......................|
.......................|.......................|.......................|.......................|.......................|.......................|.......................|.......................|.......................|.......................|
.......................|C-0....................|C-0....................|.......................|C-0....................|.......................|.......................|.......................|C-0....................|.......................|
C-2....................|E-4....0400............|C-4....0400............|.......................|C-3....8080............|C-4C0..................|.......................|.......................|C-5A000EA00............|.......................|
.......................|.......................|.......................|.......................|.......................|.......................|.......................|.......................|.......................|.......................|
.......................|.......................|.......................|.......................|.......................|.......................|.......................|.......................|.......................|.......................|
.......................|.......................|.......................|.......................|.......................|.......................|.......................|.......................|.......................|.......................|
.......................|.......................|.......................|.......................|.......................|.......................|.......................|.......................|.......................|.......................|
.......................|.......................|.......................|.......................|C-0....................|.......................|.......................|.......................|C-0....................|.......................|
.......................|.......................|.......................|.......................|C-3....................|.......................|.......................|.......................|C-5A000EA00............|.......................|
.......................|.......................|.......................|.......................|.......................|.......................|.......................|.......................|.......................|.......................|
.......................|.......................|.......................|.......0452............|.......................|.......................|.......................|.......................|.......................|.......................|
.......................|.......................|.......................|.......................|.......................|.......................|.......................|.......................|.......................|.......................|
.......................|.......................|.......................|.......................|.......................|.......................|.......................|.......................|.......................|.......................|
C-0....................|.......................|.......................|C-0....................|C-0....................|.......................|.......................|.......................|C-0....................|.......................|
C-3....................|.......................|.......................|E-4....0400............|C-3....................|.......................|.......................|.......................|C-5A000EA00............|.......................|
.......................|.......................|.......................|.......................|.......................|.......................|.......................|.......................|.......................|.......................|
.......................|.......................|.......................|.......................|.......................|.......................|.......................|.......................|.......................|.......................|
.......................|.......................|.......................|.......................|.......................|.......................|.......................|.......................|.......................|.......................|
.......................|.......................|.......................|.......................|.......................|.......................|.......................|.......................|.......................|.......................|
C-0....................|.......................|.......................|.......................|C-0....................|.......................|.......................|.......................|C-0....................|.......................|
.......................|.......................|.......................|.......................|C-3....................|.......................|.......................|.......................|C-5A000EA00............|.......................|
.......................|.......................|.......................|.......................|.......................|.......................|.......................|.......................|.......................|.......................|
.......................|.......0452............|.......0452............|.......................|.......................|.......................|.......................|.......................|.......................|.......................|
.......................|.......................|.......................|.......................|.......................|.......................|.......................|.......................|.......................|.......................|
.......................|.......................|.......................|.......................|.......................|.......................|.......................|.......................|.......................|.......................|
.......................|C-0....................|C-0....................|.......................|C-0....................|.......................|.......................|.......................|C-0....................|.......................|
B-1....................|D-4....0400............|B-3....0400............|.......................|B-2....................|C-4C1..................|.......................|.......................|C-5A000EA00............|.......................|
.......................|.......................|.......................|.......................|.......................|.......................|.......................|.......................|.......................|.......................|
.......................|.......................|.......................|.......................|.......................|.......................|.......................|.......................|.......................|.......................|
.......................|.......................|.......................|.......................|.......................|.......................|.......................|.......................|.......................|.......................|
.......................|.......................|.......................|.......................|.......................|.......................|.......................|.......................|.......................|.......................|
.......................|.......................|.......................|.......................|C-0....................|.......................|.......................|.......................|C-0....................|.......................|
.......................|.......................|.......................|.......................|B-2....................|.......................|.......................|.......................|C-5A000EA00............|.......................|
.......................|.......................|.......................|.......................|.......................|.......................|.......................|.......................|.......................|.......................|
.......................|.......................|.......................|.......0452............|.......................|.......................|.......................|.......................|.......................|.......................|
.......................|.......................|.......................|.......................|.......................|.......................|.......................|.......................|.......................|.......................|
.......................|.......................|.......................|.......................|.......................|.......................|.......................|.......................|.......................|.......................|
C-0....................|.......................|.......................|C-0....................|C-0....................|.......................|.......................|.......................|C-0....................|.......................|
B-2....................|.......................|.......................|D-4....0400............|B-2....................|.......................|.......................|.......................|C-5A000EA00............|.......................|
.......................|.......................|.......................|.......................|.......................|.......................|.......................|.......................|.......................|.......................|
.......................|.......................|.......................|.......................|.......................|.......................|.......................|.......................|.......................|.......................|
.......................|.......................|.......................|.......................|.......................|.......................|.......................|.......................|.......................|.......................|
.......................|.......................|.......................|.......................|.......................|.......................|.......................|.......................|.......................|.......................|
C-0....................|.......................|.......................|.......................|C-0....................|.......................|.......................|.......................|C-0....................|.......................|
.......................|.......................|.......................|.......................|B-2....................|.......................|.......................|.......................|C-5A000EA00............|.......................|
.......................|.......................|.......................|.......................|.......................|.......................|.......................|.......................|.......................|.......................|
.......................|.......0452............|.......0452............|.......................|.......................|.......................|.......................|.......................|.......................|.......................|
.......................|.......................|.......................|.......................|.......................|.......................|.......................|.......................|.......................|.......................|
.......................|.......................|.......................|.......................|.......................|.......................|.......................|.......................|.......................|.......................|
.......................|C-0....................|C-0....................|.......................|C-0....................|.......................|.......................|.......................|C-0....................|.......................|
A-1....................|C-4....0400............|A-3....0400............|.......................|A-2....80FF............|C-4C0..................|.......................|.......................|C-5A000EA00............|.......................|
.......................|.......................|.......................|.......................|.......................|.......................|.......................|.......................|.......................|.......................|
.......................|.......................|.......................|.......................|.......................|.......................|.......................|.......................|.......................|.......................|
.......................|.......................|.......................|.......................|.......................|.......................|.......................|.......................|.......................|.......................|
.......................|.......................|.......................|.......................|.......................|.......................|.......................|.......................|.......................|.......................|
.......................|.......................|.......................|.......................|C-0....................|.......................|.......................|.......................|C-0....................|.......................|
.......................|.......................|.......................|.......................|A-2....8000............|.......................|.......................|.......................|C-5A000EA00............|.......................|
.......................|.......................|.......................|.......................|.......................|.......................|.......................|.......................|.......................|.......................|
.......................|.......................|.......................|.......0452............|.......................|.......................|.......................|.......................|.......................|.......................|
.......................|.......................|.......................|.......................|.......................|.......................|.......................|.......................|.......................|.......................|
.......................|.......................|.......................|.......................|.......................|.......................|.......................|.......................|.......................|.......................|
C-0....................|.......................|.......................|C-0....................|C-0....................|.......................|.......................|.......................|C-0....................|.......................|
A-2....................|.......................|.......................|C-4....0400............|A-2....80FF............|C-4C0..................|.......................|.......................|C-5A000EA00............|.......................|
.......................|.......................|.......................|.......................|.......................|.......................|.......................|.......................|.......................|.......................|
.......................|.......................|.......................|.......................|.......................|.......................|.......................|.......................|.......................|.......................|
.......................|.......................|.......................|.......................|.......................|.......................|.......................|.......................|.......................|.......................|
.......................|.......................|.......................|.......................|.......................|.......................|.......................|.......................|.......................|.......................|
C-0....................|.......................|.......................|.......................|C-0....................|.......................|.......................|.......................|C-0....................|.......................|
.......................|.......................|.......................|.......................|A-2....8000............|C-4C0..................|.......................|.......................|C-5A000EA00............|.......................|
.......................|.......................|.......................|.......................|.......................|.......................|.......................|.......................|.......................|.......................|
.......................|.......0452............|.......0452............|.......................|.......................|.......................|.......................|.......................|.......................|.......................|
.......................|.......................|.......................|.......................|.......................|.......................|.......................|.......................|.......................|.......................|
.......................|.......................|.......................|.......................|.......................|.......................|.......................|.......................|.......................|.......................|
.......................|.......................|.......................|.......................|C-0....................|.......................|.......................|.......................|C-0....................|.......................|
A-1....................|.......................|.......................|.......................|A-2....80FF............|C-4C1..................|.......................|.......................|C-5A000EA00............|.......................|
.......................|.......................|.......................|.......................|.......................|.......................|.......................|.......................|.......................|.......................|
.......................|.......................|.......................|.......................|.......................|.......................|.......................|.......................|.......................|.......................|
.......................|.......................|.......................|.......................|.......................|.......................|.......................|.......................|.......................|.......................|
.......................|.......................|.......................|.......................|.......................|.......................|.......................|.......................|.......................|.......................|
.......................|.......................|.......................|.......................|C-0....................|.......................|.......................|.......................|C-0....................|.......................|
.......................|.......................|.......................|.......................|A-2....8000............|C-4C0..................|.......................|.......................|C-5A000EA00............|.......................|
.......................|.......................|.......................|.......................|.......................|.......................|.......................|.......................|.......................|.......................|
.......................|.......................|.......................|.......0452............|.......................|.......................|.......................|.......................|.......................|.......................|
.......................|.......................|.......................|.......................|.......................|.......................|.......................|.......................|.......................|.......................|
.......................|.......................|.......................|.......................|.......................|.......................|.......................|.......................|.......................|.......................|
C-0....................|C-0....................|C-0....................|.......................|C-0....................|.......................|.......................|.......................|C-0....................|.......................|
A-2....................|C-4....0400............|A-3....0400............|.......................|A-2....80FF............|C-4C0..................|.......................|.......................|C-5A000EA00............|.......................|
.......................|.......................|.......................|.......................|.......................|.......................|.......................|.......................|.......................|.......................|
.......................|.......................|.......................|.......................|.......................|.......................|.......................|.......................|.......................|.......................|
.......................|.......................|.......................|.......................|.......................|.......................|.......................|.......................|.......................|.......................|
.......................|.......................|.......................|.......................|.......................|.......................|.......................|.......................|.......................|.......................|
C-0....................|.......................|.......................|.......................|C-0....................|.......................|.......................|.......................|C-0....................|.......................|
.......................|.......................|.......................|.......................|A-2....8000............|C-4C0..................|.......................|.......................|C-5A000EA00............|.......................|
.......................|.......................|.......................|.......................|.......................|.......................|.......................|.......................|.......................|.......................|
.......................|.......................|.......................|.......................|.......................|.......................|.......................|.......................|.......................|.......................|
.......................|.......................|.......................|.......................|.......................|.......................|.......................|.......................|.......................|.......................|
.......................|.......................|.......................|.......................|.......................|.......................|.......................|.......................|.......................|.......................|
.......................|C-0....................|C-0....................|C-0....................|C-0....................|.......................|.......................|.......................|C-0....................|.......................|
F-1....................|F-4....................|C-4....................|C-4....0400............|F-2....80FF............|C-4C0..................|.......................|.......................|C-5A000EA00............|.......................|
.......................|.......................|.......................|.......................|.......................|.......................|.......................|.......................|.......................|.......................|
.......................|.......................|.......................|.......................|.......................|.......................|.......................|.......................|.......................|.......................|
.......................|.......................|.......................|.......................|.......................|.......................|.......................|.......................|.......................|.......................|
.......................|.......................|.......................|.......................|.......................|.......................|.......................|.......................|.......................|.......................|
.......................|.......................|.......................|.......................|C-0....................|.......................|.......................|.......................|C-0....................|.......................|
.......................|.......................|.......................|.......................|F-2....8000............|.......................|.......................|.......................|C-5A000EA00............|.......................|
.......................|.......................|.......................|.......................|.......................|.......................|.......................|.......................|.......................|.......................|
.......................|.......................|.......................|.......................|.......................|.......................|.......................|.......................|.......................|.......................|
.......................|.......................|.......................|.......................|.......................|.......................|.......................|.......................|.......................|.......................|
.......................|.......................|.......................|.......................|.......................|.......................|.......................|.......................|.......................|.......................|
C-0....................|C-0....................|C-0....................|C-0....................|C-0....................|.......................|.......................|.......................|C-0....................|.......................|
F-2....................|.......................|.......................|F-4....................|F-2....80FF............|.......................|.......................|.......................|C-5A000EA00............|.......................|
.......................|.......................|.......................|.......................|.......................|.......................|.......................|.......................|.......................|.......................|
.......................|.......................|.......................|.......................|.......................|.......................|.......................|.......................|.......................|.......................|
.......................|.......................|.......................|.......................|.......................|.......................|.......................|.......................|.......................|.......................|
.......................|.......................|.......................|.......................|.......................|.......................|.......................|.......................|.......................|.......................|
C-0....................|.......................|.......................|.......................|C-0....................|.......................|.......................|.......................|C-0....................|.......................|
.......................|F-4....................|C-4....................|.......................|F-2....8000............|.......................|.......................|.......................|C-5A000EA00............|.......................|
.......................|.......................|.......................|.......................|.......................|.......................|.......................|.......................|.......................|.......................|
.......................|.......................|.......................|.......................|.......................|.......................|.......................|.......................|.......................|.......................|
.......................|.......................|.......................|.......................|.......................|.......................|.......................|.......................|.......................|.......................|
.......................|.......................|.......................|.......................|.......................|.......................|.......................|.......................|.......................|.......................|
.......................|C-0....................|C-0....................|C-0....................|C-0....................|.......................|.......................|.......................|C-0....................|.......................|
F-1....................|.......................|.......................|.......................|F-2....80FF............|C-4C1..................|.......................|.......................|C-5A000EA00............|.......................|
.......................|.......................|.......................|.......................|.......................|.......................|.......................|.......................|.......................|.......................|
.......................|.......................|.......................|.......................|.......................|.......................|.......................|.......................|.......................|.......................|
.......................|.......................|.......................|.......................|.......................|.......................|.......................|.......................|.......................|.......................|
.......................|.......................|.......................|.......................|.......................|.......................|.......................|.......................|.......................|.......................|
.......................|.......................|.......................|.......................|C-0....................|.......................|.......................|.......................|C-0....................|.......................|
.......................|.......................|.......................|F-4....................|F-2....8000............|.......................|.......................|.......................|C-5A000EA00............|.......................|
.......................|.......................|.......................|.......................|.......................|.......................|.......................|.......................|.......................|.......................|
.......................|.......................|.......................|.......................|.......................|.......................|.......................|.......................|.......................|.......................|
.......................|.......................|.......................|.......................|.......................|.......................|.......................|.......................|.......................|.......................|
.......................|.......................|.......................|.......................|.......................|.......................|.......................|.......................|.......................|.......................|
C-0....................|.......................|.......................|C-0....................|C-0....................|.......................|.......................|.......................|C-0....................|.......................|
F-2....................|F-4....................|C-4....................|.......................|F-2....80FF............|.......................|.......................|.......................|C-5A000EA00............|.......................|
.......................|.......................|.......................|.......................|.......................|.......................|.......................|.......................|.......................|.......................|
.......................|.......................|.......................|.......................|.......................|.......................|.......................|.......................|.......................|.......................|
.......................|.......................|.......................|.......................|.......................|.......................|.......................|.......................|.......................|.......................|
.......................|.......................|.......................|.......................|.......................|.......................|.......................|.......................|.......................|.......................|
C-0....................|.......................|.......................|.......................|C-0....................|.......................|.......................|.......................|C-0....................|.......................|
.......................|.......................|.......................|.......................|F-2....8000............|.......................|.......................|.......................|C-5A000EA00............|.......................|
.......................|.......................|.......................|.......................|.......................|.......................|.......................|.......................|.......................|.......................|
.......................|.......................|.......................|.......................|.......................|.......................|.......................|.......................|.......................|.......................|
.......................|.......................|.......................|.......................|.......................|.......................|.......................|.......................|.......................|.......................|
.......................|.......................|.......................|.......................|.......................|.......................|.......................|.......................|.......................|.......................|
.......................|C-0....................|C-0....................|.......................|C-0....................|.......................|.......................|.......................|C-0....................|.......................|
G-1....................|G-4....................|D-4....................|F-4....................|G-2....80FF............|C-4C0..................|.......................|.......................|C-5A000EA00............|.......................|
.......................|.......................|.......................|.......................|.......................|.......................|.......................|.......................|.......................|.......................|
.......................|.......................|.......................|.......................|.......................|.......................|.......................|.......................|.......................|.......................|
.......................|.......................|.......................|.......................|.......................|.......................|.......................|.......................|.......................|.......................|
.......................|.......................|.......................|.......................|.......................|.......................|.......................|.......................|.......................|.......................|
.......................|.......................|.......................|.......................|C-0....................|.......................|.......................|.......................|C-0....................|.......................|
.......................|.......................|.......................|.......................|G-2....8000............|.......................|.......................|.......................|C-5A000EA00............|.......................|
.......................|.......................|.......................|.......................|.......................|.......................|.......................|.......................|.......................|.......................|
.......................|.......................|.......................|.......................|.......................|.......................|.......................|.......................|.......................|.......................|
.......................|.......................|.......................|.......................|.......................|.......................|.......................|.......................|.......................|.......................|
.......................|.......................|.......................|.......................|.......................|.......................|.......................|.......................|.......................|.......................|
C-0....................|.......................|.......................|C-0....................|C-0....................|.......................|.......................|.......................|C-0....................|.......................|
G-2....................|.......................|.......................|G-4....................|G-2....80FF............|C-4C0..................|.......................|.......................|C-5A000EA00............|.......................|
.......................|.......................|.......................|.......................|.......................|.......................|.......................|.......................|.......................|.......................|
.......................|.......................|.......................|.......................|.......................|.......................|.......................|.......................|.......................|.......................|
.......................|.......................|.......................|.......................|.......................|.......................|.......................|.......................|.......................|.......................|
.......................|.......................|.......................|.......................|.......................|.......................|.......................|.......................|.......................|.......................|
C-0....................|.......................|.......................|.......................|C-0....................|.......................|.......................|.......................|C-0....................|.......................|
.......................|.......................|.......................|.......................|G-2....8000............|C-4C0..................|.......................|.......................|C-5A000EA00............|.......................|
.......................|.......................|.......................|.......................|.......................|.......................|.......................|.......................|.......................|.......................|
.......................|.......0452............|.......0452............|.......................|.......................|.......................|.......................|.......................|.......................|.......................|
.......................|.......................|.......................|.......................|.......................|.......................|.......................|.......................|.......................|.......................|
.......................|.......................|.......................|.......................|.......................|.......................|.......................|.......................|.......................|.......................|
.......................|C-0....................|C-0....................|.......................|C-0....................|.......................|.......................|.......................|C-0....................|.......................|
G-1....................|B-4....0400............|G-4....0400............|.......................|G-2....80FF............|C-4C1..................|.......................|.......................|C-5A000EA00............|.......................|
.......................|.......................|.......................|.......................|.......................|.......................|.......................|.......................|.......................|.......................|
.......................|.......................|.......................|.......................|.......................|.......................|.......................|.......................|.......................|.......................|
.......................|.......................|.......................|.......................|.......................|.......................|.......................|.......................|.......................|.......................|
.......................|.......................|.......................|.......................|.......................|.......................|.......................|.......................|.......................|.......................|
.......................|.......................|.......................|.......................|C-0....................|.......................|.......................|.......................|C-0....................|.......................|
.......................|.......................|.......................|.......................|G-2....8000............|C-4C0..................|.......................|.......................|C-5A000EA00............|.......................|
.......................|.......................|.......................|.......................|.......................|.......................|.......................|.......................|.......................|.......................|
.......................|.......................|.......................|.......0452............|.......................|.......................|.......................|.......................|.......................|.......................|
.......................|.......................|.......................|.......................|.......................|.......................|.......................|.......................|.......................|.......................|
.......................|.......................|.......................|.......................|.......................|.......................|.......................|.......................|.......................|.......................|
C-0....................|.......................|.......................|C-0....................|C-0....................|.......................|.......................|.......................|C-0....................|.......................|
G-2....................|.......................|.......................|B-4....0400............|G-2....80FF............|C-4C0..................|.......................|.......................|C-5A000EA00............|.......................|
.......................|.......................|.......................|.......................|.......................|.......................|.......................|.......................|.......................|.......................|
.......................|.......................|.......................|.......................|.......................|.......................|.......................|.......................|.......................|.......................|
.......................|.......................|.......................|.......................|.......................|.......................|.......................|.......................|.......................|.......................|
.......................|.......................|.......................|.......................|.......................|.......................|.......................|.......................|.......................|.......................|
C-0....................|.......................|.......................|.......................|C-0....................|.......................|.......................|.......................|C-0....................|.......................|
.......................|.......................|.......................|.......................|G-2....8000............|C-4C0..................|.......................|.......................|C-5A000EA00............|.......................|
.......................|.......................|.......................|.......................|.......................|.......................|.......................|.......................|.......................|.......................|
.......................|.......0452............|.......0452............|.......................|.......................|.......................|.......................|.......................|.......................|.......................|
.......................|.......................|.......................|.......................|.......................|.......................|.......................|.......................|.......................|.......................|
.......................|.......................|.......................|.......................|.......................|.......................|.......................|.......................|.......................|.......................|
.......................|C-0....................|C-0....................|.......................|C-0....................|.......................|.......................|.......................|C-0....................|.......................|
C-2....................|C-5....0400............|G-4....0400............|.......................|C-3....80FF............|C-4C0..................|.......................|.......................|C-5A000EA00............|.......................|
.......................|.......................|.......................|.......................|.......................|.......................|.......................|.......................|.......................|.......................|
.......................|.......................|.......................|.......................|.......................|.......................|.......................|.......................|.......................|.......................|
.......................|.......................|.......................|.......................|.......................|.......................|.......................|.......................|.......................|.......................|
.......................|.......................|.......................|.......................|.......................|.......................|.......................|.......................|.......................|.......................|
.......................|.......................|.......................|.......................|C-0....................|.......................|.......................|.......................|C-0....................|.......................|
.......................|.......................|.......................|.......................|C-3....8000............|.......................|.......................|.......................|C-5A000EA00............|.......................|
.......................|.......................|.......................|.......................|.......................|.......................|.......................|.......................|.......................|.......................|
.......................|.......................|.......................|.......0452............|.......................|.......................|.......................|.......................|.......................|.......................|
.......................|.......................|.......................|.......................|.......................|.......................|.......................|.......................|.......................|.......................|
.......................|.......................|.......................|.......................|.......................|.......................|.......................|.......................|.......................|.......................|
C-0....................|.......................|.......................|C-0....................|C-0....................|.......................|.......................|.......................|C-0....................|.......................|
C-3....................|.......................|.......................|C-5....0400............|C-3....80FF............|.......................|.......................|.......................|C-5A000EA00............|.......................|
.......................|.......................|.......................|.......................|.......................|.......................|.......................|.......................|.......................|.......................|
.......................|.......................|.......................|.......................|.......................|.......................|.......................|.......................|.......................|.......................|
.......................|.......................|.......................|.......................|.......................|.......................|.......................|.......................|.......................|.......................|
.......................|.......................|.......................|.......................|.......................|.......................|.......................|.......................|.......................|.......................|
C-0....................|.......................|.......................|.......................|C-0....................|.......................|.......................|.......................|C-0....................|.......................|
.......................|.......................|.......................|.......................|C-3....8000............|.......................|.......................|.......................|C-5A000EA00............|.......................|
.......................|.......................|.......................|.......................|.......................|.......................|.......................|.......................|.......................|.......................|
.......................|.......0452............|.......0452............|.......................|.......................|.......................|.......................|.......................|.......................|.......................|
.......................|.......................|.......................|.......................|.......................|.......................|.......................|.......................|.......................|.......................|
.......................|.......................|.......................|.......................|.......................|.......................|.......................|.......................|.......................|.......................|
.......................|.......................|.......................|.......................|C-0....................|.......................|.......................|.......................|C-0....................|.......................|
C-2....................|.......................|.......................|.......................|C-3....80FF............|C-4C1..................|.......................|.......................|C-5A000EA00............|.......................|
.......................|.......................|.......................|.......................|.......................|.......................|.......................|.......................|.......................|.......................|
.......................|.......................|.......................|.......................|.......................|.......................|.......................|.......................|.......................|.......................|
.......................|.......................|.......................|.......................|.......................|.......................|.......................|.......................|.......................|.......................|
.......................|.......................|.......................|.......................|.......................|.......................|.......................|.......................|.......................|.......................|
.......................|.......................|.......................|.......................|C-0....................|.......................|.......................|.......................|C-0....................|.......................|
.......................|.......................|.......................|.......................|C-3....8000............|.......................|.......................|.......................|C-5A000EA00............|.......................|
.......................|.......................|.......................|.......................|.......................|.......................|.......................|.......................|.......................|.......................|
org.tildearrow.furnace - Pattern Data (219)
0
.......................|.......................|.......................|.......0452............|.......................|.......................|.......................|.......................|.......................|.......................|
.......................|.......................|.......................|.......................|.......................|.......................|.......................|.......................|.......................|.......................|
.......................|.......................|.......................|.......................|.......................|.......................|.......................|.......................|.......................|.......................|
C-0....................|.......................|.......................|.......................|C-0....................|.......................|.......................|.......................|C-0....................|.......................|
C-3....................|.......................|.......................|.......................|C-3....80FF............|.......................|.......................|.......................|C-5A000EA00............|.......................|
.......................|.......................|.......................|.......................|.......................|.......................|.......................|.......................|.......................|.......................|
.......................|.......................|.......................|.......................|.......................|.......................|.......................|.......................|.......................|.......................|
.......................|.......................|.......................|.......................|.......................|.......................|.......................|.......................|.......................|.......................|
.......................|.......................|.......................|.......................|.......................|.......................|.......................|.......................|.......................|.......................|
C-0....................|.......................|.......................|.......................|C-0....................|.......................|.......................|.......................|C-0....................|.......................|
.......................|.......................|.......................|.......................|C-3....8000............|.......................|.......................|.......................|C-5A000EA00............|.......................|
.......................|.......................|.......................|.......................|.......................|.......................|.......................|.......................|.......................|.......................|
.......................|.......................|.......................|.......................|.......................|.......................|.......................|.......................|.......................|.......................|
.......................|.......................|.......................|.......................|.......................|.......................|.......................|.......................|.......................|.......................|
.......................|.......................|.......................|.......................|.......................|.......................|.......................|.......................|.......................|.......................|
.......................|C-0....................|C-0....................|.......................|C-0....................|.......................|.......................|.......................|C-0....................|.......................|
G-1....................|G-4....0400............|D-4....0400............|.......................|G-2....80FF............|C-4C0..................|.......................|.......................|C-5A000EA00............|.......................|
.......................|.......................|.......................|.......................|.......................|.......................|.......................|.......................|.......................|.......................|
.......................|.......................|.......................|.......................|.......................|.......................|.......................|.......................|.......................|.......................|
.......................|.......................|.......................|.......................|.......................|.......................|.......................|.......................|.......................|.......................|
.......................|.......................|.......................|.......................|.......................|.......................|.......................|.......................|.......................|.......................|
.......................|.......................|.......................|.......................|C-0....................|.......................|.......................|.......................|C-0....................|.......................|
.......................|.......................|.......................|.......................|G-2....8000............|.......................|.......................|.......................|C-5A000EA00............|.......................|
.......................|.......................|.......................|.......................|.......................|.......................|.......................|.......................|.......................|.......................|
.......................|.......................|.......................|.......................|.......................|.......................|.......................|.......................|.......................|.......................|
.......................|.......................|.......................|.......................|.......................|.......................|.......................|.......................|.......................|.......................|
.......................|.......................|.......................|.......................|.......................|.......................|.......................|.......................|.......................|.......................|
C-0....................|.......................|.......................|C-0....................|C-0....................|.......................|.......................|.......................|C-0....................|.......................|
G-2....................|.......................|.......................|G-4....0400............|G-2....80FF............|C-4C1..................|.......................|.......................|C-5A000EA00............|.......................|
.......................|.......................|.......................|.......................|.......................|.......................|.......................|.......................|.......................|.......................|
.......................|.......................|.......................|.......................|.......................|.......................|.......................|.......................|.......................|.......................|
.......................|.......................|.......................|.......................|.......................|.......................|.......................|.......................|.......................|.......................|
.......................|.......................|.......................|.......................|.......................|.......................|.......................|.......................|.......................|.......................|
C-0....................|.......................|.......................|.......................|C-0....................|.......................|.......................|.......................|C-0....................|.......................|
G-2....................|.......................|.......................|.......................|G-2....8000............|C-4C0..................|.......................|.......................|C-5A000EA00............|.......................|
.......................|.......................|.......................|.......................|.......................|.......................|.......................|.......................|.......................|.......................|
.......................|.......0452............|.......0452............|.......................|.......................|.......................|.......................|.......................|.......................|.......................|
.......................|.......................|.......................|.......................|.......................|.......................|.......................|.......................|.......................|.......................|
.......................|.......................|.......................|.......................|.......................|.......................|.......................|.......................|.......................|.......................|
C-0....................|.......................|.......................|.......................|C-0....................|.......................|.......................|.......................|C-0....................|.......................|
G-1....................|.......................|.......................|.......................|G-2....80FF............|C-4C0..................|.......................|.......................|C-5A000EA00............|.......................|
.......................|.......................|.......................|.......................|.......................|.......................|.......................|.......................|.......................|.......................|
.......................|.......................|.......................|.......................|.......................|.......................|.......................|.......................|.......................|.......................|
.......................|.......................|.......................|.......................|.......................|.......................|.......................|.......................|.......................|.......................|
.......................|.......................|.......................|.......................|.......................|.......................|.......................|.......................|.......................|.......................|
C-0....................|.......................|.......................|.......................|C-0....................|.......................|.......................|.......................|C-0....................|.......................|
G-2....................|.......................|.......................|.......................|G-2....8000............|C-4C1..................|.......................|.......................|C-5A000EA00............|.......................|
.......................|.......................|.......................|.......................|.......................|.......................|.......................|.......................|.......................|.......................|
.......................|.......................|.......................|.......0452............|.......................|.......................|.......................|.......................|.......................|.......................|
.......................|.......................|.......................|.......................|.......................|.......................|.......................|.......................|.......................|.......................|
.......................|.......................|.......................|.......................|.......................|.......................|.......................|.......................|.......................|.......................|
C-0....................|.......................|.......................|.......................|C-0....................|.......................|.......................|.......................|C-0....................|.......................|
G-2....................|.......................|.......................|.......................|G-2....80FF............|C-4C1..................|.......................|.......................|C-5A000EA00............|.......................|
.......................|.......................|.......................|.......................|.......................|.......................|.......................|.......................|.......................|.......................|
.......................|.......................|.......................|.......................|.......................|.......................|.......................|.......................|.......................|.......................|
.......................|.......................|.......................|.......................|.......................|.......................|.......................|.......................|.......................|.......................|
.......................|.......................|.......................|.......................|.......................|.......................|.......................|.......................|.......................|.......................|
C-0....................|.......................|.......................|.......................|C-0....................|.......................|.......................|.......................|C-0....................|.......................|
G-2....................|.......................|.......................|.......................|G-2....8000............|C-4C1..................|.......................|.......................|C-5A000EA00............|.......................|
.......................|.......................|.......................|.......................|.......................|.......................|.......................|.......................|.......................|.......................|
C-0....................|.......................|.......................|.......................|.......................|.......................|.......................|.......................|.......................|.......................|
.......................|.......................|.......................|.......................|.......................|.......................|.......................|.......................|.......................|.......................|
.......................|.......................|.......................|.......................|.......................|.......................|.......................|.......................|.......................|.......................|
.......................|C-0....................|C-0....................|.......................|C-0....................|.......................|.......................|.......................|C-0....................|.......................|
A-1....................|A-3....0400............|E-3....0400............|.......................|A-2....80FF............|C-4C0..................|.......................|.......................|C-5A000EA00............|.......................|
.......................|.......................|.......................|.......................|.......................|.......................|.......................|.......................|.......................|.......................|
.......................|.......................|.......................|.......................|.......................|.......................|.......................|.......................|.......................|.......................|
.......................|.......................|.......................|.......................|.......................|.......................|.......................|.......................|.......................|.......................|
.......................|.......................|.......................|.......................|.......................|.......................|.......................|.......................|.......................|.......................|
.......................|C-0....................|C-0....................|.......................|C-0....................|.......................|.......................|.......................|C-0....................|.......................|
.......................|A-3....................|E-3....................|.......................|A-2....8000............|.......................|.......................|.......................|C-5A000EA00............|.......................|
.......................|.......................|.......................|.......................|.......................|.......................|.......................|.......................|.......................|.......................|
.......................|.......................|.......................|.......................|.......................|.......................|.......................|.......................|.......................|.......................|
.......................|.......................|.......................|.......................|.......................|.......................|.......................|.......................|.......................|.......................|
.......................|.......................|.......................|.......................|.......................|.......................|.......................|.......................|.......................|.......................|
C-0....................|C-0....................|C-0....................|C-0....................|C-0....................|.......................|.......................|.......................|C-0....................|.......................|
A-2....................|.......................|.......................|A-3....0400............|A-2....80FF............|.......................|.......................|.......................|C-5A000EA00............|.......................|
.......................|.......................|.......................|.......................|.......................|.......................|.......................|.......................|.......................|.......................|
.......................|.......................|.......................|.......................|.......................|.......................|.......................|.......................|.......................|.......................|
.......................|.......................|.......................|.......................|.......................|.......................|.......................|.......................|.......................|.......................|
.......................|.......................|.......................|.......................|.......................|.......................|.......................|.......................|.......................|.......................|
C-0....................|.......................|.......................|C-0....................|C-0....................|.......................|.......................|.......................|C-0....................|.......................|
.......................|C-4....................|A-3....................|A-3....................|A-2....8000............|.......................|.......................|.......................|C-5A000EA00............|.......................|
.......................|.......................|.......................|.......................|.......................|.......................|.......................|.......................|.......................|.......................|
.......................|.......................|.......................|.......................|.......................|.......................|.......................|.......................|.......................|.......................|
.......................|.......................|.......................|.......................|.......................|.......................|.......................|.......................|.......................|.......................|
.......................|.......................|.......................|.......................|.......................|.......................|.......................|.......................|.......................|.......................|
.......................|C-0....................|C-0....................|C-0....................|C-0....................|.......................|.......................|.......................|C-0....................|.......................|
A-1....................|C-4....................|A-3....................|.......................|A-2....80FF............|C-4C1..................|.......................|.......................|C-5A000EA00............|.......................|
.......................|.......................|.......................|.......................|.......................|.......................|.......................|.......................|.......................|.......................|
.......................|.......................|.......................|.......................|.......................|.......................|.......................|.......................|.......................|.......................|
.......................|.......................|.......................|.......................|.......................|.......................|.......................|.......................|.......................|.......................|
.......................|.......................|.......................|.......................|.......................|.......................|.......................|.......................|.......................|.......................|
.......................|C-0....................|C-0....................|.......................|C-0....................|.......................|.......................|.......................|C-0....................|.......................|
.......................|.......................|.......................|C-4....................|A-2....8000............|.......................|.......................|.......................|C-5A000EA00............|.......................|
.......................|.......................|.......................|.......................|.......................|.......................|.......................|.......................|.......................|.......................|
.......................|.......................|.......................|.......................|.......................|.......................|.......................|.......................|.......................|.......................|
.......................|.......................|.......................|.......................|.......................|.......................|.......................|.......................|.......................|.......................|
.......................|.......................|.......................|.......................|.......................|.......................|.......................|.......................|.......................|.......................|
C-0....................|.......................|.......................|C-0....................|C-0....................|.......................|.......................|.......................|C-0....................|.......................|
A-2....................|D-4....................|B-3....................|C-4....................|A-2....80FF............|.......................|.......................|.......................|C-5A000EA00............|.......................|
.......................|.......................|.......................|.......................|.......................|.......................|.......................|.......................|.......................|.......................|
.......................|.......................|.......................|.......................|.......................|.......................|.......................|.......................|.......................|.......................|
.......................|.......................|.......................|.......................|.......................|.......................|.......................|.......................|.......................|.......................|
.......................|.......................|.......................|.......................|.......................|.......................|.......................|.......................|.......................|.......................|
C-0....................|.......................|.......................|C-0....................|C-0....................|.......................|.......................|.......................|C-0....................|.......................|
.......................|.......................|.......................|.......................|A-2....8000............|.......................|.......................|.......................|C-5A000EA00............|.......................|
.......................|.......................|.......................|.......................|.......................|.......................|.......................|.......................|.......................|.......................|
.......................|.......................|.......................|.......................|.......................|.......................|.......................|.......................|.......................|.......................|
.......................|.......................|.......................|.......................|.......................|.......................|.......................|.......................|.......................|.......................|
.......................|.......................|.......................|.......................|.......................|.......................|.......................|.......................|.......................|.......................|
.......................|.......................|.......................|.......................|C-0....................|.......................|.......................|.......................|C-0....................|.......................|
G-1....................|.......................|.......................|D-4....................|G-2....80FF............|C-4C0..................|.......................|.......................|C-5A000EA00............|.......................|
.......................|.......................|.......................|.......................|.......................|.......................|.......................|.......................|.......................|.......................|
.......................|.......................|.......................|.......................|.......................|.......................|.......................|.......................|.......................|.......................|
.......................|.......................|.......................|.......................|.......................|.......................|.......................|.......................|.......................|.......................|
.......................|.......................|.......................|.......................|.......................|.......................|.......................|.......................|.......................|.......................|
.......................|.......................|.......................|.......................|C-0....................|.......................|.......................|.......................|C-0....................|.......................|
.......................|.......................|.......................|.......................|G-2....8000............|.......................|.......................|.......................|C-5A000EA00............|.......................|
.......................|.......................|.......................|.......................|.......................|.......................|.......................|.......................|.......................|.......................|
.......................|.......0452............|.......0452............|.......................|.......................|.......................|.......................|.......................|.......................|.......................|
.......................|.......................|.......................|.......................|.......................|.......................|.......................|.......................|.......................|.......................|
.......................|.......................|.......................|.......................|.......................|.......................|.......................|.......................|.......................|.......................|
C-0....................|.......................|.......................|.......................|C-0....................|.......................|.......................|.......................|C-0....................|.......................|
G-2....................|.......................|.......................|.......................|G-2....80FF............|C-4C0..................|.......................|.......................|C-5A000EA00............|.......................|
.......................|.......................|.......................|.......................|.......................|.......................|.......................|.......................|.......................|.......................|
.......................|.......................|.......................|.......................|.......................|.......................|.......................|.......................|.......................|.......................|
.......................|.......................|.......................|.......................|.......................|.......................|.......................|.......................|.......................|.......................|
.......................|.......................|.......................|.......................|.......................|.......................|.......................|.......................|.......................|.......................|
C-0....................|.......................|.......................|.......................|C-0....................|.......................|.......................|.......................|C-0....................|.......................|
.......................|.......................|.......................|.......................|G-2....8000............|C-4C0..................|.......................|.......................|C-5A000EA00............|.......................|
.......................|.......................|.......................|.......................|.......................|.......................|.......................|.......................|.......................|.......................|
.......................|.......................|.......................|.......0452............|.......................|.......................|.......................|.......................|.......................|.......................|
.......................|.......................|.......................|.......................|.......................|.......................|.......................|.......................|.......................|.......................|
.......................|.......................|.......................|.......................|.......................|.......................|.......................|.......................|.......................|.......................|
.......................|.......................|.......................|.......................|C-0....................|.......................|.......................|.......................|C-0....................|.......................|
G-1....................|.......................|.......................|.......................|G-2....80FF............|C-4C1..................|.......................|.......................|C-5A000EA00............|.......................|
.......................|.......................|.......................|.......................|.......................|.......................|.......................|.......................|.......................|.......................|
C-0....................|.......................|.......................|.......................|.......................|.......................|.......................|.......................|.......................|.......................|
.......................|.......................|.......................|.......................|.......................|.......................|.......................|.......................|.......................|.......................|
.......................|.......................|.......................|.......................|.......................|.......................|.......................|.......................|.......................|.......................|
.......................|.......................|.......................|.......................|C-0....................|.......................|.......................|.......................|C-0....................|.......................|
G-2....................|.......................|.......................|.......................|G-2....8000............|C-4C0..................|.......................|.......................|C-5A000EA00............|.......................|
.......................|.......................|.......................|.......................|.......................|.......................|.......................|.......................|.......................|.......................|
C-0....................|.......................|.......................|.......................|.......................|.......................|.......................|.......................|.......................|.......................|
.......................|.......................|C-0....................|.......................|.......................|.......................|.......................|.......................|.......................|.......................|
.......................|.......................|.......................|.......................|.......................|.......................|.......................|.......................|.......................|.......................|
.......................|.......................|.......................|.......................|C-0....................|.......................|.......................|.......................|C-0....................|.......................|
G-2....................|.......................|.......................|.......................|G-2....80FF............|C-4C0..................|.......................|.......................|C-5A000EA00............|.......................|
.......................|.......................|.......................|.......................|.......................|.......................|.......................|.......................|.......................|.......................|
C-0....................|.......................|.......................|.......................|.......................|.......................|.......................|.......................|.......................|.......................|
.......................|.......................|.......................|.......................|.......................|.......................|.......................|.......................|.......................|.......................|
.......................|.......................|.......................|.......................|.......................|.......................|.......................|.......................|.......................|.......................|
.......................|.......................|.......................|.......................|C-0....................|.......................|.......................|.......................|C-0....................|.......................|
G-2....................|.......................|.......................|.......................|G-2....8000............|C-4C0..................|.......................|.......................|C-5A000EA00............|.......................|
.......................|.......................|.......................|.......................|.......................|.......................|.......................|.......................|.......................|.......................|
C-0....................|.......................|.......................|.......................|.......................|.......................|.......................|.......................|.......................|.......................|
.......................|.......................|.......................|.......................|.......................|.......................|.......................|.......................|.......................|.......................|
.......................|.......................|.......................|.......................|.......................|.......................|.......................|.......................|.......................|.......................|
.......................|C-0....................|.......................|.......................|C-0....................|.......................|.......................|.......................|C-0....................|.......................|
A-1....................|A-3....0400............|E-3....0400............|.......................|A-2....80FF............|C-4C0..................|.......................|.......................|C-5A000EA00............|.......................|
.......................|.......................|.......................|.......................|.......................|.......................|.......................|.......................|.......................|.......................|
.......................|.......................|.......................|.......................|.......................|.......................|.......................|.......................|.......................|.......................|
.......................|.......................|.......................|.......................|.......................|.......................|.......................|.......................|.......................|.......................|
.......................|.......................|.......................|.......................|.......................|.......................|.......................|.......................|.......................|.......................|
.......................|C-0....................|C-0....................|.......................|C-0....................|.......................|.......................|.......................|C-0....................|.......................|
.......................|A-3....................|E-3....................|.......................|A-2....8000............|.......................|.......................|.......................|C-5A000EA00............|.......................|
.......................|.......................|.......................|.......................|.......................|.......................|.......................|.......................|.......................|.......................|
.......................|.......................|.......................|.......................|.......................|.......................|.......................|.......................|.......................|.......................|
.......................|.......................|.......................|.......................|.......................|.......................|.......................|.......................|.......................|.......................|
.......................|.......................|.......................|.......................|.......................|.......................|.......................|.......................|.......................|.......................|
C-0....................|C-0....................|C-0....................|C-0....................|C-0....................|.......................|.......................|.......................|C-0....................|.......................|
A-2....................|.......................|.......................|A-3....0400............|A-2....80FF............|.......................|.......................|.......................|C-5A000EA00............|.......................|
.......................|.......................|.......................|.......................|.......................|.......................|.......................|.......................|.......................|.......................|
.......................|.......................|.......................|.......................|.......................|.......................|.......................|.......................|.......................|.......................|
.......................|.......................|.......................|.......................|.......................|.......................|.......................|.......................|.......................|.......................|
.......................|.......................|.......................|.......................|.......................|.......................|.......................|.......................|.......................|.......................|
C-0....................|.......................|.......................|C-0....................|C-0....................|.......................|.......................|.......................|C-0....................|.......................|
.......................|C-4....................|A-3....................|A-3....................|A-2....8000............|.......................|.......................|.......................|C-5A000EA00............|.......................|
.......................|.......................|.......................|.......................|.......................|.......................|.......................|.......................|.......................|.......................|
.......................|.......................|.......................|.......................|.......................|.......................|.......................|.......................|.......................|.......................|
.......................|.......................|.......................|.......................|.......................|.......................|.......................|.......................|.......................|.......................|
.......................|.......................|.......................|.......................|.......................|.......................|.......................|.......................|.......................|.......................|
.......................|C-0....................|C-0....................|C-0....................|C-0....................|.......................|.......................|.......................|C-0....................|.......................|
A-1....................|C-4....................|A-3....................|.......................|A-2....80FF............|C-4C1..................|.......................|.......................|C-5A000EA00............|.......................|
.......................|.......................|.......................|.......................|.......................|.......................|.......................|.......................|.......................|.......................|
.......................|.......................|.......................|.......................|.......................|.......................|.......................|.......................|.......................|.......................|
.......................|.......................|.......................|.......................|.......................|.......................|.......................|.......................|.......................|.......................|
.......................|.......................|.......................|.......................|.......................|.......................|.......................|.......................|.......................|.......................|
.......................|C-0....................|C-0....................|.......................|C-0....................|.......................|.......................|.......................|C-0....................|.......................|
.......................|.......................|.......................|C-4....................|A-2....8000............|.......................|.......................|.......................|C-5A000EA00............|.......................|
.......................|.......................|.......................|.......................|.......................|.......................|.......................|.......................|.......................|.......................|
.......................|.......................|.......................|.......................|.......................|.......................|.......................|.......................|.......................|.......................|
.......................|.......................|.......................|.......................|.......................|.......................|.......................|.......................|.......................|.......................|
.......................|.......................|.......................|.......................|.......................|.......................|.......................|.......................|.......................|.......................|
C-0....................|.......................|.......................|C-0....................|C-0....................|.......................|.......................|.......................|C-0....................|.......................|
A-2....................|B-3....................|G-3....................|C-4....................|A-2....80FF............|.......................|.......................|.......................|C-5A000EA00............|.......................|
.......................|.......................|.......................|.......................|.......................|.......................|.......................|.......................|.......................|.......................|
.......................|.......................|.......................|.......................|.......................|.......................|.......................|.......................|.......................|.......................|
.......................|.......................|.......................|.......................|.......................|.......................|.......................|.......................|.......................|.......................|
.......................|.......................|.......................|.......................|.......................|.......................|.......................|.......................|.......................|.......................|
C-0....................|.......................|.......................|C-0....................|C-0....................|.......................|.......................|.......................|C-0....................|.......................|
.......................|.......................|.......................|.......................|A-2....8000............|.......................|.......................|.......................|C-5A000EA00............|.......................|
.......................|.......................|.......................|.......................|.......................|.......................|.......................|.......................|.......................|.......................|
.......................|.......................|.......................|.......................|.......................|.......................|.......................|.......................|.......................|.......................|
.......................|.......................|.......................|.......................|.......................|.......................|.......................|.......................|.......................|.......................|
.......................|.......................|.......................|.......................|.......................|.......................|.......................|.......................|.......................|.......................|
.......................|.......................|.......................|.......................|C-0....................|.......................|.......................|.......................|C-0....................|.......................|
G-1....................|.......................|.......................|B-3....................|G-2....80FF............|C-4C0..................|.......................|.......................|C-5A000EA00............|.......................|
.......................|.......................|.......................|.......................|.......................|.......................|.......................|.......................|.......................|.......................|
.......................|.......................|.......................|.......................|.......................|.......................|.......................|.......................|.......................|.......................|
.......................|.......................|.......................|.......................|.......................|.......................|.......................|.......................|.......................|.......................|
.......................|.......................|.......................|.......................|.......................|.......................|.......................|.......................|.......................|.......................|
.......................|.......................|.......................|.......................|C-0....................|.......................|.......................|.......................|C-0....................|.......................|
.......................|.......................|.......................|.......................|G-2....8000............|.......................|.......................|.......................|C-5A000EA00............|.......................|
.......................|.......................|.......................|.......................|.......................|.......................|.......................|.......................|.......................|.......................|
.......................|.......0452............|.......0452............|.......................|.......................|.......................|.......................|.......................|.......................|.......................|
.......................|.......................|.......................|.......................|.......................|.......................|.......................|.......................|.......................|.......................|
.......................|.......................|.......................|.......................|.......................|.......................|.......................|.......................|.......................|.......................|
C-0....................|.......................|.......................|.......................|C-0....................|.......................|.......................|.......................|C-0....................|.......................|
G-2....................|.......................|.......................|.......................|G-2....80FF............|C-4C0..................|.......................|.......................|C-5A000EA00............|.......................|
.......................|.......................|.......................|.......................|.......................|.......................|.......................|.......................|.......................|.......................|
.......................|.......................|.......................|.......................|.......................|.......................|.......................|.......................|.......................|.......................|
.......................|.......................|.......................|.......................|.......................|.......................|.......................|.......................|.......................|.......................|
.......................|.......................|.......................|.......................|.......................|.......................|.......................|.......................|.......................|.......................|
C-0....................|.......................|.......................|.......................|C-0....................|.......................|.......................|.......................|C-0....................|.......................|
.......................|.......................|.......................|.......................|G-2....8000............|C-4C0..................|.......................|.......................|C-5A000EA00............|.......................|
.......................|.......................|.......................|.......................|.......................|.......................|.......................|.......................|.......................|.......................|
.......................|.......................|.......................|.......0452............|.......................|.......................|.......................|.......................|.......................|.......................|
.......................|.......................|.......................|.......................|.......................|.......................|.......................|.......................|.......................|.......................|
.......................|.......................|.......................|.......................|.......................|.......................|.......................|.......................|.......................|.......................|
.......................|.......................|.......................|.......................|C-0....................|.......................|.......................|.......................|C-0....................|.......................|
G-1....................|.......................|.......................|.......................|G-2....80FF............|C-4C1..................|.......................|.......................|C-5A000EA00............|.......................|
.......................|.......................|.......................|.......................|.......................|.......................|.......................|.......................|.......................|.......................|
C-0....................|.......................|.......................|.......................|.......................|.......................|.......................|.......................|.......................|.......................|
.......................|.......................|.......................|.......................|.......................|.......................|.......................|.......................|.......................|.......................|
.......................|.......................|.......................|.......................|.......................|.......................|.......................|.......................|.......................|.......................|
.......................|.......................|.......................|.......................|C-0....................|.......................|.......................|.......................|C-0....................|.......................|
G-2....................|.......................|.......................|.......................|G-2....8000............|C-4C0..................|.......................|.......................|C-5A000EA00............|.......................|
.......................|.......................|.......................|.......................|.......................|.......................|.......................|.......................|.......................|.......................|
C-0....................|.......................|.......................|.......................|.......................|.......................|.......................|.......................|.......................|.......................|
.......................|.......................|C-0....................|.......................|.......................|.......................|.......................|.......................|.......................|.......................|
.......................|.......................|.......................|.......................|.......................|.......................|.......................|.......................|.......................|.......................|
.......................|.......................|.......................|.......................|C-0....................|.......................|.......................|.......................|C-0....................|.......................|
G-2....................|.......................|.......................|.......................|G-2....80FF............|C-4C0..................|.......................|.......................|C-5A000EA00............|.......................|
.......................|.......................|.......................|.......................|.......................|.......................|.......................|.......................|.......................|.......................|
C-0....................|.......................|.......................|.......................|.......................|.......................|.......................|.......................|.......................|.......................|
.......................|.......................|.......................|.......................|.......................|.......................|.......................|.......................|.......................|.......................|
.......................|.......................|.......................|.......................|.......................|.......................|.......................|.......................|.......................|.......................|
.......................|.......................|.......................|.......................|C-0....................|.......................|.......................|.......................|C-0....................|.......................|
G-2....................|.......................|.......................|.......................|G-2....8000............|C-4C0..................|.......................|.......................|C-5A000EA00............|.......................|
.......................|.......................|.......................|.......................|.......................|.......................|.......................|.......................|.......................|.......................|
C-0....................|.......................|.......................|.......................|.......................|.......................|.......................|.......................|.......................|.......................|
.......................|.......................|.......................|.......................|.......................|.......................|.......................|.......................|.......................|.......................|
.......................|.......................|.......................|.......................|.......................|.......................|.......................|.......................|.......................|.......................|
.......................|C-0....................|.......................|.......................|C-0....................|.......................|.......................|.......................|C-0....................|.......................|
org.tildearrow.furnace - Pattern Data (219)
0
A-1....................|A-3....0400............|E-3....0400............|.......................|A-2....80FF............|C-4C0..................|.......................|.......................|C-5A000EA00............|.......................|
.......................|.......................|.......................|.......................|.......................|.......................|.......................|.......................|.......................|.......................|
.......................|.......................|.......................|.......................|.......................|.......................|.......................|.......................|.......................|.......................|
.......................|.......................|.......................|.......................|.......................|.......................|.......................|.......................|.......................|.......................|
.......................|.......................|.......................|.......................|.......................|.......................|.......................|.......................|.......................|.......................|
.......................|C-0....................|C-0....................|.......................|C-0....................|.......................|.......................|.......................|C-0....................|.......................|
.......................|A-3....................|E-3....................|.......................|A-2....8000............|.......................|.......................|.......................|C-5A000EA00............|.......................|
.......................|.......................|.......................|.......................|.......................|.......................|.......................|.......................|.......................|.......................|
.......................|.......................|.......................|.......................|.......................|.......................|.......................|.......................|.......................|.......................|
.......................|.......................|.......................|.......................|.......................|.......................|.......................|.......................|.......................|.......................|
.......................|.......................|.......................|.......................|.......................|.......................|.......................|.......................|.......................|.......................|
C-0....................|C-0....................|C-0....................|C-0....................|C-0....................|.......................|.......................|.......................|C-0....................|.......................|
A-2....................|.......................|.......................|A-3....0400............|A-2....80FF............|.......................|.......................|.......................|C-5A000EA00............|.......................|
.......................|.......................|.......................|.......................|.......................|.......................|.......................|.......................|.......................|.......................|
.......................|.......................|.......................|.......................|.......................|.......................|.......................|.......................|.......................|.......................|
.......................|.......................|.......................|.......................|.......................|.......................|.......................|.......................|.......................|.......................|
.......................|.......................|.......................|.......................|.......................|.......................|.......................|.......................|.......................|.......................|
C-0....................|.......................|.......................|C-0....................|C-0....................|.......................|.......................|.......................|C-0....................|.......................|
.......................|C-4....................|A-3....................|A-3....................|A-2....8000............|.......................|.......................|.......................|C-5A000EA00............|.......................|
.......................|.......................|.......................|.......................|.......................|.......................|.......................|.......................|.......................|.......................|
.......................|.......................|.......................|.......................|.......................|.......................|.......................|.......................|.......................|.......................|
.......................|.......................|.......................|.......................|.......................|.......................|.......................|.......................|.......................|.......................|
.......................|.......................|.......................|.......................|.......................|.......................|.......................|.......................|.......................|.......................|
.......................|C-0....................|C-0....................|C-0....................|C-0....................|.......................|.......................|.......................|C-0....................|.......................|
A-1....................|C-4....................|A-3....................|.......................|A-2....80FF............|C-4C1..................|.......................|.......................|C-5A000EA00............|.......................|
.......................|.......................|.......................|.......................|.......................|.......................|.......................|.......................|.......................|.......................|
.......................|.......................|.......................|.......................|.......................|.......................|.......................|.......................|.......................|.......................|
.......................|.......................|.......................|.......................|.......................|.......................|.......................|.......................|.......................|.......................|
.......................|.......................|.......................|.......................|.......................|.......................|.......................|.......................|.......................|.......................|
.......................|C-0....................|C-0....................|.......................|C-0....................|.......................|.......................|.......................|C-0....................|.......................|
.......................|.......................|.......................|C-4....................|A-2....8000............|.......................|.......................|.......................|C-5A000EA00............|.......................|
.......................|.......................|.......................|.......................|.......................|.......................|.......................|.......................|.......................|.......................|
.......................|.......................|.......................|.......................|.......................|.......................|.......................|.......................|.......................|.......................|
.......................|.......................|.......................|.......................|.......................|.......................|.......................|.......................|.......................|.......................|
.......................|.......................|.......................|.......................|.......................|.......................|.......................|.......................|.......................|.......................|
C-0....................|.......................|.......................|C-0....................|C-0....................|.......................|.......................|.......................|C-0....................|.......................|
A-2....................|D-4....................|B-3....................|C-4....................|A-2....80FF............|.......................|.......................|.......................|C-5A000EA00............|.......................|
.......................|.......................|.......................|.......................|.......................|.......................|.......................|.......................|.......................|.......................|
.......................|.......................|.......................|.......................|.......................|.......................|.......................|.......................|.......................|.......................|
.......................|.......................|.......................|.......................|.......................|.......................|.......................|.......................|.......................|.......................|
.......................|.......................|.......................|.......................|.......................|.......................|.......................|.......................|.......................|.......................|
C-0....................|.......................|.......................|C-0....................|C-0....................|.......................|.......................|.......................|C-0....................|.......................|
.......................|.......................|.......................|.......................|A-2....8000............|.......................|.......................|.......................|C-5A000EA00............|.......................|
.......................|.......................|.......................|.......................|.......................|.......................|.......................|.......................|.......................|.......................|
.......................|.......................|.......................|.......................|.......................|.......................|.......................|.......................|.......................|.......................|
.......................|.......................|.......................|.......................|.......................|.......................|.......................|.......................|.......................|.......................|
.......................|.......................|.......................|.......................|.......................|.......................|.......................|.......................|.......................|.......................|
.......................|.......................|.......................|.......................|C-0....................|.......................|.......................|.......................|C-0....................|.......................|
G-1....................|.......................|.......................|D-4....................|G-2....8080............|C-4C0..................|.......................|.......................|C-5A000EA00............|.......................|
.......................|.......................|.......................|.......................|.......................|.......................|.......................|.......................|.......................|.......................|
.......................|.......................|.......................|.......................|.......................|.......................|.......................|.......................|.......................|.......................|
.......................|.......................|.......................|.......................|.......................|.......................|.......................|.......................|.......................|.......................|
.......................|.......................|.......................|.......................|.......................|.......................|.......................|.......................|.......................|.......................|
.......................|.......................|.......................|.......................|C-0....................|.......................|.......................|.......................|C-0....................|.......................|
.......................|.......................|.......................|.......................|G-2....................|.......................|.......................|.......................|C-5A000EA00............|.......................|
.......................|.......................|.......................|.......................|.......................|.......................|.......................|.......................|.......................|.......................|
.......................|.......0452............|.......0452............|.......................|.......................|.......................|.......................|.......................|.......................|.......................|
.......................|.......................|.......................|.......................|.......................|.......................|.......................|.......................|.......................|.......................|
.......................|.......................|.......................|.......................|.......................|.......................|.......................|.......................|.......................|.......................|
C-0....................|.......................|.......................|.......................|C-0....................|.......................|.......................|.......................|C-0....................|.......................|
G-2....................|.......................|.......................|.......................|G-2....................|C-4C0..................|.......................|.......................|C-5A000EA00............|.......................|
.......................|.......................|.......................|.......................|.......................|.......................|.......................|.......................|.......................|.......................|
.......................|.......................|.......................|.......................|.......................|.......................|.......................|.......................|.......................|.......................|
.......................|.......................|.......................|.......................|.......................|.......................|.......................|.......................|.......................|.......................|
.......................|.......................|.......................|.......................|.......................|.......................|.......................|.......................|.......................|.......................|
C-0....................|.......................|.......................|.......................|C-0....................|.......................|.......................|.......................|C-0....................|.......................|
.......................|.......................|.......................|.......................|G-2....................|C-4C0..................|.......................|.......................|C-5A000EA00............|.......................|
.......................|.......................|.......................|.......................|.......................|.......................|.......................|.......................|.......................|.......................|
.......................|.......................|.......................|.......0452............|.......................|.......................|.......................|.......................|.......................|.......................|
.......................|.......................|.......................|.......................|.......................|.......................|.......................|.......................|.......................|.......................|
.......................|.......................|.......................|.......................|.......................|.......................|.......................|.......................|.......................|.......................|
.......................|C-0....................|C-0....................|.......................|C-0....................|.......................|.......................|.......................|C-0....................|.......................|
F-1....................|E-4....0400............|C-4....0400............|.......................|F-2....................|C-4C1..................|.......................|.......................|C-5A000EA00............|.......................|
.......................|.......................|.......................|.......................|.......................|.......................|.......................|.......................|.......................|.......................|
.......................|.......................|.......................|.......................|.......................|.......................|.......................|.......................|.......................|.......................|
.......................|.......................|.......................|.......................|.......................|.......................|.......................|.......................|.......................|.......................|
.......................|.......................|.......................|.......................|.......................|.......................|.......................|.......................|.......................|.......................|
.......................|.......................|.......................|.......................|C-0....................|.......................|.......................|.......................|C-0....................|.......................|
.......................|.......................|.......................|.......................|F-2....................|C-4C0..................|.......................|.......................|C-5A000EA00............|.......................|
.......................|.......................|.......................|.......................|.......................|.......................|.......................|.......................|.......................|.......................|
.......................|.......................|.......................|.......................|.......................|.......................|.......................|.......................|.......................|.......................|
.......................|.......................|.......................|.......................|.......................|.......................|.......................|.......................|.......................|.......................|
.......................|.......................|.......................|.......................|.......................|.......................|.......................|.......................|.......................|.......................|
C-0....................|C-0....................|C-0....................|C-0....................|C-0....................|.......................|.......................|.......................|C-0....................|.......................|
F-2....................|F-4....................|C-4....................|E-4....0400............|F-2....................|C-4C0..................|.......................|.......................|C-5A000EA00............|.......................|
.......................|.......................|.......................|.......................|.......................|.......................|.......................|.......................|.......................|.......................|
.......................|.......................|.......................|.......................|.......................|.......................|.......................|.......................|.......................|.......................|
.......................|.......................|.......................|.......................|.......................|.......................|.......................|.......................|.......................|.......................|
.......................|.......................|.......................|.......................|.......................|.......................|.......................|.......................|.......................|.......................|
C-0....................|.......................|.......................|.......................|C-0....................|.......................|.......................|.......................|C-0....................|.......................|
.......................|.......................|.......................|.......................|F-2....................|C-4C0..................|.......................|.......................|C-5A000EA00............|.......................|
.......................|.......................|.......................|.......................|.......................|.......................|.......................|.......................|.......................|.......................|
.......................|.......................|.......................|.......................|.......................|.......................|.......................|.......................|.......................|.......................|
.......................|.......................|.......................|.......................|.......................|.......................|.......................|.......................|.......................|.......................|
.......................|.......................|.......................|.......................|.......................|.......................|.......................|.......................|.......................|.......................|
.......................|C-0....................|C-0....................|C-0....................|C-0....................|.......................|.......................|.......................|C-0....................|.......................|
E-1....................|E-4....................|B-3....................|F-4....................|E-2....80FF............|C-4C0..................|.......................|.......................|C-5A000EA00............|.......................|
.......................|.......................|.......................|.......................|.......................|.......................|.......................|.......................|.......................|.......................|
.......................|.......................|.......................|.......................|.......................|.......................|.......................|.......................|.......................|.......................|
.......................|.......................|.......................|.......................|.......................|.......................|.......................|.......................|.......................|.......................|
.......................|.......................|.......................|.......................|.......................|.......................|.......................|.......................|.......................|.......................|
.......................|C-0....................|C-0....................|.......................|C-0....................|.......................|.......................|.......................|C-0....................|.......................|
.......................|E-4....................|B-3....................|.......................|E-2....8000............|.......................|.......................|.......................|C-5A000EA00............|.......................|
.......................|.......................|.......................|.......................|.......................|.......................|.......................|.......................|.......................|.......................|
.......................|.......................|.......................|.......................|.......................|.......................|.......................|.......................|.......................|.......................|
.......................|.......................|.......................|.......................|.......................|.......................|.......................|.......................|.......................|.......................|
.......................|.......................|.......................|.......................|.......................|.......................|.......................|.......................|.......................|.......................|
C-0....................|C-0....................|C-0....................|C-0....................|C-0....................|.......................|.......................|.......................|C-0....................|.......................|
E-2....................|.......................|.......................|E-4....................|E-2....80FF............|.......................|.......................|.......................|C-5A000EA00............|.......................|
.......................|.......................|.......................|.......................|.......................|.......................|.......................|.......................|.......................|.......................|
.......................|.......................|.......................|.......................|.......................|.......................|.......................|.......................|.......................|.......................|
.......................|.......................|.......................|.......................|.......................|.......................|.......................|.......................|.......................|.......................|
.......................|.......................|.......................|.......................|.......................|.......................|.......................|.......................|.......................|.......................|
C-0....................|.......................|.......................|C-0....................|C-0....................|.......................|.......................|.......................|C-0....................|.......................|
.......................|E-4....................|B-3....................|E-4....................|E-2....8000............|.......................|.......................|.......................|C-5A000EA00............|.......................|
.......................|.......................|.......................|.......................|.......................|.......................|.......................|.......................|.......................|.......................|
.......................|.......................|.......................|.......................|.......................|.......................|.......................|.......................|.......................|.......................|
.......................|.......................|.......................|.......................|.......................|.......................|.......................|.......................|.......................|.......................|
.......................|.......................|.......................|.......................|.......................|.......................|.......................|.......................|.......................|.......................|
.......................|C-0....................|C-0....................|C-0....................|C-0....................|.......................|.......................|.......................|C-0....................|.......................|
E-1....................|F-4....................|D-3....................|.......................|E-2....80FF............|C-4C1..................|.......................|.......................|C-5A000EA00............|.......................|
.......................|.......................|.......................|.......................|.......................|.......................|.......................|.......................|.......................|.......................|
.......................|.......................|.......................|.......................|.......................|.......................|.......................|.......................|.......................|.......................|
.......................|.......................|.......................|.......................|.......................|.......................|.......................|.......................|.......................|.......................|
.......................|.......................|.......................|.......................|.......................|.......................|.......................|.......................|.......................|.......................|
.......................|.......................|.......................|.......................|C-0....................|.......................|.......................|.......................|C-0....................|.......................|
.......................|.......................|.......................|E-4....................|E-2....8000............|.......................|.......................|.......................|C-5A000EA00............|.......................|
.......................|.......................|.......................|.......................|.......................|.......................|.......................|.......................|.......................|.......................|
.......................|.......................|.......................|.......................|.......................|.......................|.......................|.......................|.......................|.......................|
.......................|.......................|.......................|.......................|.......................|.......................|.......................|.......................|.......................|.......................|
.......................|.......................|.......................|.......................|.......................|.......................|.......................|.......................|.......................|.......................|
C-0....................|C-0....................|C-0....................|C-0....................|C-0....................|.......................|.......................|.......................|C-0....................|.......................|
E-2....................|E-4....................|B-3....................|F-4....................|E-2....80FF............|.......................|.......................|.......................|C-5A000EA00............|.......................|
.......................|.......................|.......................|.......................|.......................|.......................|.......................|.......................|.......................|.......................|
.......................|.......................|.......................|.......................|.......................|.......................|.......................|.......................|.......................|.......................|
.......................|.......................|.......................|.......................|.......................|.......................|.......................|.......................|.......................|.......................|
.......................|.......................|.......................|.......................|.......................|.......................|.......................|.......................|.......................|.......................|
C-0....................|.......................|.......................|.......................|C-0....................|.......................|.......................|.......................|C-0....................|.......................|
.......................|.......................|.......................|.......................|E-2....8000............|.......................|.......................|.......................|C-5A000EA00............|.......................|
.......................|.......................|.......................|.......................|.......................|.......................|.......................|.......................|.......................|.......................|
.......................|.......................|.......................|.......................|.......................|.......................|.......................|.......................|.......................|.......................|
.......................|.......................|.......................|.......................|.......................|.......................|.......................|.......................|.......................|.......................|
.......................|.......................|.......................|.......................|.......................|.......................|.......................|.......................|.......................|.......................|
.......................|.......................|.......................|C-0....................|C-0....................|.......................|.......................|.......................|C-0....................|.......................|
E-1....................|.......................|.......................|E-4....................|E-2....80FF............|C-4C0..................|.......................|.......................|C-5A000EA00............|.......................|
.......................|.......................|.......................|.......................|.......................|.......................|.......................|.......................|.......................|.......................|
.......................|.......................|.......................|.......................|.......................|.......................|.......................|.......................|.......................|.......................|
.......................|.......................|.......................|.......................|.......................|.......................|.......................|.......................|.......................|.......................|
.......................|.......................|.......................|.......................|.......................|.......................|.......................|.......................|.......................|.......................|
.......................|.......................|.......................|.......................|C-0....................|.......................|.......................|.......................|C-0....................|.......................|
.......................|.......................|.......................|.......................|E-2....8000............|.......................|.......................|.......................|C-5A000EA00............|.......................|
.......................|.......................|.......................|.......................|.......................|.......................|.......................|.......................|.......................|.......................|
.......................|.......0452............|.......0452............|.......................|.......................|.......................|.......................|.......................|.......................|.......................|
.......................|.......................|.......................|.......................|.......................|.......................|.......................|.......................|.......................|.......................|
.......................|.......................|.......................|.......................|.......................|.......................|.......................|.......................|.......................|.......................|
C-0....................|C-0....................|C-0....................|.......................|C-0....................|.......................|.......................|.......................|C-0....................|.......................|
E-2....................|E-4....0400............|E-3....0400............|.......................|E-2....80FF............|C-4C0..................|.......................|.......................|C-5A000EA00............|.......................|
.......................|.......................|.......................|.......................|.......................|.......................|.......................|.......................|.......................|.......................|
.......................|.......................|.......................|.......................|.......................|.......................|.......................|.......................|.......................|.......................|
.......................|.......................|.......................|.......................|.......................|.......................|.......................|.......................|.......................|.......................|
.......................|.......................|.......................|.......................|.......................|.......................|.......................|.......................|.......................|.......................|
C-0....................|C-0....................|C-0....................|.......................|C-0....................|.......................|.......................|.......................|C-0....................|.......................|
E-2....................|F-4....................|F-3....................|.......................|E-2....8000............|C-4C0..................|.......................|.......................|C-5A000EA00............|.......................|
.......................|.......................|.......................|.......................|.......................|.......................|.......................|.......................|.......................|.......................|
.......................|.......................|.......................|.......0452............|.......................|.......................|.......................|.......................|.......................|.......................|
.......................|.......................|.......................|.......................|.......................|.......................|.......................|.......................|.......................|.......................|
.......................|.......................|.......................|.......................|.......................|.......................|.......................|.......................|.......................|.......................|
C-0....................|C-0....................|C-0....................|C-0....................|C-0....................|.......................|.......................|.......................|C-0....................|.......................|
E-1....................|E-4....................|E-3....................|E-4....0400............|E-2....80FF............|C-4C1..................|.......................|.......................|C-5A000EA00............|.......................|
.......................|.......................|.......................|.......................|.......................|.......................|.......................|.......................|.......................|.......................|
.......................|.......................|.......................|.......................|.......................|.......................|.......................|.......................|.......................|.......................|
.......................|.......................|.......................|.......................|.......................|.......................|.......................|.......................|.......................|.......................|
.......................|.......................|.......................|.......................|.......................|.......................|.......................|.......................|.......................|.......................|
C-0....................|C-0....................|C-0....................|C-0....................|C-0....................|.......................|.......................|.......................|C-0....................|.......................|
E-2....................|D-4....................|D-3....................|F-4....................|E-2....8000............|C-4C0..................|.......................|.......................|C-5A000EA00............|.......................|
.......................|.......................|.......................|.......................|.......................|.......................|.......................|.......................|.......................|.......................|
C-0....................|.......................|.......................|.......................|.......................|.......................|.......................|.......................|.......................|.......................|
.......................|.......................|.......................|.......................|.......................|.......................|.......................|.......................|.......................|.......................|
.......................|.......................|.......................|.......................|.......................|.......................|.......................|.......................|.......................|.......................|
.......................|C-0....................|C-0....................|C-0....................|C-0....................|.......................|.......................|.......................|C-0....................|.......................|
E-2....................|C-4....................|C-3....................|E-4....................|E-2....80FF............|C-4C0..................|.......................|.......................|C-5A000EA00............|.......................|
.......................|.......................|.......................|.......................|.......................|.......................|.......................|.......................|.......................|.......................|
C-0....................|.......................|.......................|.......................|.......................|.......................|.......................|.......................|.......................|.......................|
.......................|.......................|.......................|.......................|.......................|.......................|.......................|.......................|.......................|.......................|
.......................|.......................|.......................|.......................|.......................|.......................|.......................|.......................|.......................|.......................|
.......................|C-0....................|C-0....................|C-0....................|C-0....................|.......................|.......................|.......................|C-0....................|.......................|
E-3....................|G-3....................|G-3....................|D-4....................|E-2....8000............|C-4C0..................|.......................|.......................|C-5A000EA00............|.......................|
.......................|.......................|.......................|.......................|.......................|.......................|.......................|.......................|.......................|.......................|
C-0....................|.......................|.......................|.......................|.......................|.......................|.......................|.......................|.......................|.......................|
.......................|.......................|.......................|.......................|.......................|.......................|.......................|.......................|.......................|.......................|
.......................|.......................|.......................|.......................|.......................|.......................|.......................|.......................|.......................|.......................|
.......................|C-0....................|C-0....................|C-0....................|C-0....................|.......................|.......................|.......................|C-0....................|.......................|
A-1....................|A-3....................|E-3....................|C-4....................|A-2....80FF............|C-4C0..................|.......................|.......................|C-5A000EA00............|.......................|
.......................|.......................|.......................|.......................|.......................|.......................|.......................|.......................|.......................|.......................|
.......................|.......................|.......................|.......................|.......................|.......................|.......................|.......................|.......................|.......................|
.......................|.......................|.......................|.......................|.......................|.......................|.......................|.......................|.......................|.......................|
.......................|.......................|.......................|.......................|.......................|.......................|.......................|.......................|.......................|.......................|
.......................|C-0....................|C-0....................|C-0....................|C-0....................|.......................|.......................|.......................|C-0....................|.......................|
.......................|A-3....................|E-3....................|G-3....................|A-2....8000............|.......................|.......................|.......................|C-5A000EA00............|.......................|
.......................|.......................|.......................|.......................|.......................|.......................|.......................|.......................|.......................|.......................|
.......................|.......................|.......................|.......................|.......................|.......................|.......................|.......................|.......................|.......................|
.......................|.......................|.......................|.......................|.......................|.......................|.......................|.......................|.......................|.......................|
.......................|.......................|.......................|.......................|.......................|.......................|.......................|.......................|.......................|.......................|
C-0....................|C-0....................|C-0....................|C-0....................|C-0....................|.......................|.......................|.......................|C-0....................|.......................|
A-2....................|.......................|.......................|A-3....................|A-2....80FF............|.......................|.......................|.......................|C-5A000EA00............|.......................|
.......................|.......................|.......................|.......................|.......................|.......................|.......................|.......................|.......................|.......................|
.......................|.......................|.......................|.......................|.......................|.......................|.......................|.......................|.......................|.......................|
.......................|.......................|.......................|.......................|.......................|.......................|.......................|.......................|.......................|.......................|
.......................|.......................|.......................|.......................|.......................|.......................|.......................|.......................|.......................|.......................|
C-0....................|.......................|.......................|C-0....................|C-0....................|.......................|.......................|.......................|C-0....................|.......................|
.......................|C-4....................|A-3....................|A-3....................|A-2....8000............|.......................|.......................|.......................|C-5A000EA00............|.......................|
.......................|.......................|.......................|.......................|.......................|.......................|.......................|.......................|.......................|.......................|
.......................|.......................|.......................|.......................|.......................|.......................|.......................|.......................|.......................|.......................|
.......................|.......................|.......................|.......................|.......................|.......................|.......................|.......................|.......................|.......................|
.......................|.......................|.......................|.......................|.......................|.......................|.......................|.......................|.......................|.......................|
.......................|C-0....................|C-0....................|C-0....................|C-0....................|.......................|.......................|.......................|C-0....................|.......................|
A-1....................|C-4....................|A-3....................|.......................|A-2....80FF............|C-4C1..................|.......................|.......................|C-5A000EA00............|.......................|
.......................|.......................|.......................|.......................|.......................|.......................|.......................|.......................|.......................|.......................|
.......................|.......................|.......................|.......................|.......................|.......................|.......................|.......................|.......................|.......................|
.......................|.......................|.......................|.......................|.......................|.......................|.......................|.......................|.......................|.......................|
.......................|.......................|.......................|.......................|.......................|.......................|.......................|.......................|.......................|.......................|
.......................|C-0....................|C-0....................|.......................|C-0....................|.......................|.......................|.......................|C-0....................|.......................|
.......................|.......................|.......................|C-4....................|A-2....8000............|.......................|.......................|.......................|C-5A000EA00............|.......................|
.......................|.......................|.......................|.......................|.......................|.......................|.......................|.......................|.......................|.......................|
.......................|.......................|.......................|.......................|.......................|.......................|.......................|.......................|.......................|.......................|
.......................|.......................|.......................|.......................|.......................|.......................|.......................|.......................|.......................|.......................|
.......................|.......................|.......................|.......................|.......................|.......................|.......................|.......................|.......................|.......................|
C-0....................|.......................|.......................|C-0....................|C-0....................|.......................|.......................|.......................|C-0....................|.......................|
A-2....................|D-4....................|B-3....................|C-4....................|A-2....80FF............|.......................|.......................|.......................|C-5A000EA00............|.......................|
.......................|.......................|.......................|.......................|.......................|.......................|.......................|.......................|.......................|.......................|
.......................|.......................|.......................|.......................|.......................|.......................|.......................|.......................|.......................|.......................|
.......................|.......................|.......................|.......................|.......................|.......................|.......................|.......................|.......................|.......................|
.......................|.......................|.......................|.......................|.......................|.......................|.......................|.......................|.......................|.......................|
C-0....................|.......................|.......................|C-0....................|C-0....................|.......................|.......................|.......................|C-0....................|.......................|
.......................|.......................|.......................|.......................|A-2....8000............|.......................|.......................|.......................|C-5A000EA00............|.......................|
.......................|.......................|.......................|.......................|.......................|.......................|.......................|.......................|.......................|.......................|
.......................|.......................|.......................|.......................|.......................|.......................|.......................|.......................|.......................|.......................|
.......................|.......................|.......................|.......................|.......................|.......................|.......................|.......................|.......................|.......................|
.......................|.......................|.......................|.......................|.......................|.......................|.......................|.......................|.......................|.......................|
.......................|.......................|.......................|.......................|C-0....................|.......................|.......................|.......................|C-0....................|.......................|
G-1....................|.......................|.......................|D-4....................|G-2....80FF............|C-4C0..................|.......................|.......................|C-5A000EA00............|.......................|
.......................|.......................|.......................|.......................|.......................|.......................|.......................|.......................|.......................|.......................|
.......................|.......................|.......................|.......................|.......................|.......................|.......................|.......................|.......................|.......................|
.......................|.......................|.......................|.......................|.......................|.......................|.......................|.......................|.......................|.......................|
.......................|.......................|.......................|.......................|.......................|.......................|.......................|.......................|.......................|.......................|
.......................|.......................|.......................|.......................|C-0....................|.......................|.......................|.......................|C-0....................|.......................|
.......................|.......................|.......................|.......................|G-2....8000............|.......................|.......................|.......................|C-5A000EA00............|.......................|
.......................|.......................|.......................|.......................|.......................|.......................|.......................|.......................|.......................|.......................|
.......................|.......0452............|.......0452............|.......................|.......................|.......................|.......................|.......................|.......................|.......................|
.......................|.......................|.......................|.......................|.......................|.......................|.......................|.......................|.......................|.......................|
.......................|.......................|.......................|.......................|.......................|.......................|.......................|.......................|.......................|.......................|
C-0....................|.......................|.......................|.......................|C-0....................|.......................|.......................|.......................|C-0....................|.......................|
G-2....................|.......................|.......................|.......................|G-2....80FF............|C-4C0..................|.......................|.......................|C-5A000EA00............|.......................|
.......................|.......................|.......................|.......................|.......................|.......................|.......................|.......................|.......................|.......................|
.......................|.......................|.......................|.......................|.......................|.......................|.......................|.......................|.......................|.......................|
.......................|.......................|.......................|.......................|.......................|.......................|.......................|.......................|.......................|.......................|
org.tildearrow.furnace - Pattern Data (219)
0
.......................|.......................|.......................|.......................|.......................|.......................|.......................|.......................|.......................|.......................|
C-0....................|.......................|.......................|.......................|C-0....................|.......................|.......................|.......................|C-0....................|.......................|
.......................|.......................|.......................|.......................|G-2....8000............|C-4C0..................|.......................|.......................|C-5A000EA00............|.......................|
.......................|.......................|.......................|.......................|.......................|.......................|.......................|.......................|.......................|.......................|
.......................|.......................|.......................|.......0452............|.......................|.......................|.......................|.......................|.......................|.......................|
.......................|.......................|.......................|.......................|.......................|.......................|.......................|.......................|.......................|.......................|
.......................|.......................|.......................|.......................|.......................|.......................|.......................|.......................|.......................|.......................|
.......................|.......................|.......................|.......................|C-0....................|.......................|.......................|.......................|C-0....................|.......................|
G-1....................|.......................|.......................|.......................|G-2....80FF............|C-4C1..................|.......................|.......................|C-5A000EA00............|.......................|
.......................|.......................|.......................|.......................|.......................|.......................|.......................|.......................|.......................|.......................|
.......................|.......................|.......................|.......................|.......................|.......................|.......................|.......................|.......................|.......................|
.......................|.......................|.......................|.......................|.......................|.......................|.......................|.......................|.......................|.......................|
.......................|.......................|.......................|.......................|.......................|.......................|.......................|.......................|.......................|.......................|
.......................|.......................|.......................|.......................|C-0....................|.......................|.......................|.......................|C-0....................|.......................|
.......................|.......................|.......................|.......................|G-2....8000............|C-4C0..................|.......................|.......................|C-5A000EA00............|.......................|
.......................|.......................|.......................|.......................|.......................|.......................|.......................|.......................|.......................|.......................|
.......................|.......................|.......................|.......................|.......................|.......................|.......................|.......................|.......................|.......................|
.......................|.......................|C-0....................|.......................|.......................|.......................|.......................|.......................|.......................|.......................|
.......................|.......................|.......................|.......................|.......................|.......................|.......................|.......................|.......................|.......................|
C-0....................|.......................|.......................|.......................|C-0....................|.......................|.......................|.......................|C-0....................|.......................|
G-2....................|.......................|.......................|.......................|G-2....80FF............|C-4C0..................|.......................|.......................|C-5A000EA00............|.......................|
.......................|.......................|.......................|.......................|.......................|.......................|.......................|.......................|.......................|.......................|
.......................|.......................|.......................|.......................|.......................|.......................|.......................|.......................|.......................|.......................|
.......................|.......................|.......................|.......................|.......................|.......................|.......................|.......................|.......................|.......................|
.......................|.......................|.......................|.......................|.......................|.......................|.......................|.......................|.......................|.......................|
C-0....................|.......................|.......................|.......................|C-0....................|.......................|.......................|.......................|C-0....................|.......................|
.......................|.......................|.......................|.......................|G-2....8000............|C-4C0..................|.......................|.......................|C-5A000EA00............|.......................|
.......................|.......................|.......................|.......................|.......................|.......................|.......................|.......................|.......................|.......................|
.......................|.......................|.......................|.......................|.......................|.......................|.......................|.......................|.......................|.......................|
.......................|.......................|.......................|.......................|.......................|.......................|.......................|.......................|.......................|.......................|
.......................|.......................|.......................|.......................|.......................|.......................|.......................|.......................|.......................|.......................|
.......................|C-0....................|.......................|.......................|C-0....................|.......................|.......................|.......................|C-0....................|.......................|
A-1....................|A-3....0400............|E-3....0400............|.......................|A-2....80FF............|C-4C0..................|.......................|.......................|C-5A000EA00............|.......................|
.......................|.......................|.......................|.......................|.......................|.......................|.......................|.......................|.......................|.......................|
.......................|.......................|.......................|.......................|.......................|.......................|.......................|.......................|.......................|.......................|
.......................|.......................|.......................|.......................|.......................|.......................|.......................|.......................|.......................|.......................|
.......................|.......................|.......................|.......................|.......................|.......................|.......................|.......................|.......................|.......................|
.......................|C-0....................|C-0....................|.......................|C-0....................|.......................|.......................|.......................|C-0....................|.......................|
.......................|A-3....................|E-3....................|.......................|A-2....8000............|.......................|.......................|.......................|C-5A000EA00............|.......................|
.......................|.......................|.......................|.......................|.......................|.......................|.......................|.......................|.......................|.......................|
.......................|.......................|.......................|.......................|.......................|.......................|.......................|.......................|.......................|.......................|
.......................|.......................|.......................|.......................|.......................|.......................|.......................|.......................|.......................|.......................|
.......................|.......................|.......................|.......................|.......................|.......................|.......................|.......................|.......................|.......................|
C-0....................|C-0....................|C-0....................|C-0....................|C-0....................|.......................|.......................|.......................|C-0....................|.......................|
A-2....................|.......................|.......................|A-3....0400............|A-2....80FF............|.......................|.......................|.......................|C-5A000EA00............|.......................|
.......................|.......................|.......................|.......................|.......................|.......................|.......................|.......................|.......................|.......................|
.......................|.......................|.......................|.......................|.......................|.......................|.......................|.......................|.......................|.......................|
.......................|.......................|.......................|.......................|.......................|.......................|.......................|.......................|.......................|.......................|
.......................|.......................|.......................|.......................|.......................|.......................|.......................|.......................|.......................|.......................|
C-0....................|.......................|.......................|C-0....................|C-0....................|.......................|.......................|.......................|C-0....................|.......................|
.......................|C-4....................|A-3....................|A-3....................|A-2....8000............|.......................|.......................|.......................|C-5A000EA00............|.......................|
.......................|.......................|.......................|.......................|.......................|.......................|.......................|.......................|.......................|.......................|
.......................|.......................|.......................|.......................|.......................|.......................|.......................|.......................|.......................|.......................|
.......................|.......................|.......................|.......................|.......................|.......................|.......................|.......................|.......................|.......................|
.......................|.......................|.......................|.......................|.......................|.......................|.......................|.......................|.......................|.......................|
.......................|C-0....................|C-0....................|C-0....................|C-0....................|.......................|.......................|.......................|C-0....................|.......................|
A-1....................|C-4....................|A-3....................|.......................|A-2....80FF............|C-4C1..................|.......................|.......................|C-5A000EA00............|.......................|
.......................|.......................|.......................|.......................|.......................|.......................|.......................|.......................|.......................|.......................|
.......................|.......................|.......................|.......................|.......................|.......................|.......................|.......................|.......................|.......................|
.......................|.......................|.......................|.......................|.......................|.......................|.......................|.......................|.......................|.......................|
.......................|.......................|.......................|.......................|.......................|.......................|.......................|.......................|.......................|.......................|
.......................|C-0....................|C-0....................|.......................|C-0....................|.......................|.......................|.......................|C-0....................|.......................|
.......................|.......................|.......................|C-4....................|A-2....8000............|.......................|.......................|.......................|C-5A000EA00............|.......................|
.......................|.......................|.......................|.......................|.......................|.......................|.......................|.......................|.......................|.......................|
.......................|.......................|.......................|.......................|.......................|.......................|.......................|.......................|.......................|.......................|
.......................|.......................|.......................|.......................|.......................|.......................|.......................|.......................|.......................|.......................|
.......................|.......................|.......................|.......................|.......................|.......................|.......................|.......................|.......................|.......................|
C-0....................|.......................|.......................|C-0....................|C-0....................|.......................|.......................|.......................|C-0....................|.......................|
A-2....................|B-3....................|G-3....................|C-4....................|A-2....80FF............|.......................|.......................|.......................|C-5A000EA00............|.......................|
.......................|.......................|.......................|.......................|.......................|.......................|.......................|.......................|.......................|.......................|
.......................|.......................|.......................|.......................|.......................|.......................|.......................|.......................|.......................|.......................|
.......................|.......................|.......................|.......................|.......................|.......................|.......................|.......................|.......................|.......................|
.......................|.......................|.......................|.......................|.......................|.......................|.......................|.......................|.......................|.......................|
C-0....................|.......................|.......................|C-0....................|C-0....................|.......................|.......................|.......................|C-0....................|.......................|
.......................|.......................|.......................|.......................|A-2....8000............|.......................|.......................|.......................|C-5A000EA00............|.......................|
.......................|.......................|.......................|.......................|.......................|.......................|.......................|.......................|.......................|.......................|
.......................|.......................|.......................|.......................|.......................|.......................|.......................|.......................|.......................|.......................|
.......................|.......................|.......................|.......................|.......................|.......................|.......................|.......................|.......................|.......................|
.......................|.......................|.......................|.......................|.......................|.......................|.......................|.......................|.......................|.......................|
.......................|.......................|.......................|.......................|C-0....................|.......................|.......................|.......................|C-0....................|.......................|
G-1....................|.......................|.......................|B-3....................|G-2....80FF............|C-4C0..................|.......................|.......................|C-5A000EA00............|.......................|
.......................|.......................|.......................|.......................|.......................|.......................|.......................|.......................|.......................|.......................|
.......................|.......................|.......................|.......................|.......................|.......................|.......................|.......................|.......................|.......................|
.......................|.......................|.......................|.......................|.......................|.......................|.......................|.......................|.......................|.......................|
.......................|.......................|.......................|.......................|.......................|.......................|.......................|.......................|.......................|.......................|
.......................|.......................|.......................|.......................|C-0....................|.......................|.......................|.......................|C-0....................|.......................|
.......................|.......................|.......................|.......................|G-2....8000............|.......................|.......................|.......................|C-5A000EA00............|.......................|
.......................|.......................|.......................|.......................|.......................|.......................|.......................|.......................|.......................|.......................|
.......................|.......0452............|.......0452............|.......................|.......................|.......................|.......................|.......................|.......................|.......................|
.......................|.......................|.......................|.......................|.......................|.......................|.......................|.......................|.......................|.......................|
.......................|.......................|.......................|.......................|.......................|.......................|.......................|.......................|.......................|.......................|
C-0....................|.......................|.......................|.......................|C-0....................|.......................|.......................|.......................|C-0....................|.......................|
G-2....................|.......................|.......................|.......................|G-2....80FF............|C-4C0..................|.......................|.......................|C-5A000EA00............|.......................|
.......................|.......................|.......................|.......................|.......................|.......................|.......................|.......................|.......................|.......................|
.......................|.......................|.......................|.......................|.......................|.......................|.......................|.......................|.......................|.......................|
.......................|.......................|.......................|.......................|.......................|.......................|.......................|.......................|.......................|.......................|
.......................|.......................|.......................|.......................|.......................|.......................|.......................|.......................|.......................|.......................|
C-0....................|.......................|.......................|.......................|C-0....................|.......................|.......................|.......................|C-0....................|.......................|
.......................|.......................|.......................|.......................|G-2....8000............|C-4C0..................|.......................|.......................|C-5A000EA00............|.......................|
.......................|.......................|.......................|.......................|.......................|.......................|.......................|.......................|.......................|.......................|
.......................|.......................|.......................|.......0452............|.......................|.......................|.......................|.......................|.......................|.......................|
.......................|.......................|.......................|.......................|.......................|.......................|.......................|.......................|.......................|.......................|
.......................|.......................|.......................|.......................|.......................|.......................|.......................|.......................|.......................|.......................|
.......................|.......................|.......................|.......................|C-0....................|.......................|.......................|.......................|C-0....................|.......................|
G-1....................|.......................|.......................|.......................|G-2....80FF............|C-4C1..................|.......................|.......................|C-5A000EA00............|.......................|
.......................|.......................|.......................|.......................|.......................|.......................|.......................|.......................|.......................|.......................|
.......................|.......................|.......................|.......................|.......................|.......................|.......................|.......................|.......................|.......................|
.......................|.......................|.......................|.......................|.......................|.......................|.......................|.......................|.......................|.......................|
.......................|.......................|.......................|.......................|.......................|.......................|.......................|.......................|.......................|.......................|
.......................|.......................|.......................|.......................|C-0....................|.......................|.......................|.......................|C-0....................|.......................|
.......................|.......................|.......................|.......................|G-2....8000............|C-4C0..................|.......................|.......................|C-5A000EA00............|.......................|
.......................|.......................|.......................|.......................|.......................|.......................|.......................|.......................|.......................|.......................|
.......................|.......................|.......................|.......................|.......................|.......................|.......................|.......................|.......................|.......................|
.......................|.......................|C-0....................|.......................|.......................|.......................|.......................|.......................|.......................|.......................|
.......................|.......................|.......................|.......................|.......................|.......................|.......................|.......................|.......................|.......................|
C-0....................|.......................|.......................|.......................|C-0....................|.......................|.......................|.......................|C-0....................|.......................|
G-2....................|.......................|.......................|.......................|G-2....80FF............|C-4C0..................|.......................|.......................|C-5A000EA00............|.......................|
.......................|.......................|.......................|.......................|.......................|.......................|.......................|.......................|.......................|.......................|
.......................|.......................|.......................|.......................|.......................|.......................|.......................|.......................|.......................|.......................|
.......................|.......................|.......................|.......................|.......................|.......................|.......................|.......................|.......................|.......................|
.......................|.......................|.......................|.......................|.......................|.......................|.......................|.......................|.......................|.......................|
C-0....................|.......................|.......................|.......................|C-0....................|.......................|.......................|.......................|C-0....................|.......................|
.......................|.......................|.......................|.......................|G-2....8000............|C-4C0..................|.......................|.......................|C-5A000EA00............|.......................|
.......................|.......................|.......................|.......................|.......................|.......................|.......................|.......................|.......................|.......................|
.......................|.......................|.......................|.......................|.......................|.......................|.......................|.......................|.......................|.......................|
.......................|.......................|.......................|.......................|.......................|.......................|.......................|.......................|.......................|.......................|
.......................|.......................|.......................|.......................|.......................|.......................|.......................|.......................|.......................|.......................|
.......................|C-0....................|.......................|.......................|C-0....................|.......................|.......................|.......................|C-0....................|.......................|
A-1....................|A-3....0400............|E-3....0400............|.......................|A-2....80FF............|C-4C0..................|.......................|.......................|C-5A000EA00............|.......................|
.......................|.......................|.......................|.......................|.......................|.......................|.......................|.......................|.......................|.......................|
.......................|.......................|.......................|.......................|.......................|.......................|.......................|.......................|.......................|.......................|
.......................|.......................|.......................|.......................|.......................|.......................|.......................|.......................|.......................|.......................|
.......................|.......................|.......................|.......................|.......................|.......................|.......................|.......................|.......................|.......................|
.......................|C-0....................|C-0....................|.......................|C-0....................|.......................|.......................|.......................|C-0....................|.......................|
.......................|A-3....................|E-3....................|.......................|A-2....8000............|.......................|.......................|.......................|C-5A000EA00............|.......................|
.......................|.......................|.......................|.......................|.......................|.......................|.......................|.......................|.......................|.......................|
.......................|.......................|.......................|.......................|.......................|.......................|.......................|.......................|.......................|.......................|
.......................|.......................|.......................|.......................|.......................|.......................|.......................|.......................|.......................|.......................|
.......................|.......................|.......................|.......................|.......................|.......................|.......................|.......................|.......................|.......................|
C-0....................|C-0....................|C-0....................|C-0....................|C-0....................|.......................|.......................|.......................|C-0....................|.......................|
A-2....................|.......................|.......................|A-3....0400............|A-2....80FF............|.......................|.......................|.......................|C-5A000EA00............|.......................|
.......................|.......................|.......................|.......................|.......................|.......................|.......................|.......................|.......................|.......................|
.......................|.......................|.......................|.......................|.......................|.......................|.......................|.......................|.......................|.......................|
.......................|.......................|.......................|.......................|.......................|.......................|.......................|.......................|.......................|.......................|
.......................|.......................|.......................|.......................|.......................|.......................|.......................|.......................|.......................|.......................|
C-0....................|.......................|.......................|C-0....................|C-0....................|.......................|.......................|.......................|C-0....................|.......................|
.......................|C-4....................|A-3....................|A-3....................|A-2....8000............|.......................|.......................|.......................|C-5A000EA00............|.......................|
.......................|.......................|.......................|.......................|.......................|.......................|.......................|.......................|.......................|.......................|
.......................|.......................|.......................|.......................|.......................|.......................|.......................|.......................|.......................|.......................|
.......................|.......................|.......................|.......................|.......................|.......................|.......................|.......................|.......................|.......................|
.......................|.......................|.......................|.......................|.......................|.......................|.......................|.......................|.......................|.......................|
.......................|C-0....................|C-0....................|C-0....................|C-0....................|.......................|.......................|.......................|C-0....................|.......................|
A-1....................|C-4....................|A-3....................|.......................|A-2....80FF............|C-4C1..................|.......................|.......................|C-5A000EA00............|.......................|
.......................|.......................|.......................|.......................|.......................|.......................|.......................|.......................|.......................|.......................|
.......................|.......................|.......................|.......................|.......................|.......................|.......................|.......................|.......................|.......................|
.......................|.......................|.......................|.......................|.......................|.......................|.......................|.......................|.......................|.......................|
.......................|.......................|.......................|.......................|.......................|.......................|.......................|.......................|.......................|.......................|
.......................|C-0....................|C-0....................|.......................|C-0....................|.......................|.......................|.......................|C-0....................|.......................|
.......................|.......................|.......................|C-4....................|A-2....8000............|.......................|.......................|.......................|C-5A000EA00............|.......................|
.......................|.......................|.......................|.......................|.......................|.......................|.......................|.......................|.......................|.......................|
.......................|.......................|.......................|.......................|.......................|.......................|.......................|.......................|.......................|.......................|
.......................|.......................|.......................|.......................|.......................|.......................|.......................|.......................|.......................|.......................|
.......................|.......................|.......................|.......................|.......................|.......................|.......................|.......................|.......................|.......................|
C-0....................|.......................|.......................|C-0....................|C-0....................|.......................|.......................|.......................|C-0....................|.......................|
A-2....................|D-4....................|B-3....................|C-4....................|A-2....80FF............|.......................|.......................|.......................|C-5A000EA00............|.......................|
.......................|.......................|.......................|.......................|.......................|.......................|.......................|.......................|.......................|.......................|
.......................|.......................|.......................|.......................|.......................|.......................|.......................|.......................|.......................|.......................|
.......................|.......................|.......................|.......................|.......................|.......................|.......................|.......................|.......................|.......................|
.......................|.......................|.......................|.......................|.......................|.......................|.......................|.......................|.......................|.......................|
C-0....................|.......................|.......................|C-0....................|C-0....................|.......................|.......................|.......................|C-0....................|.......................|
.......................|.......................|.......................|.......................|A-2....8000............|.......................|.......................|.......................|C-5A000EA00............|.......................|
.......................|.......................|.......................|.......................|.......................|.......................|.......................|.......................|.......................|.......................|
.......................|.......................|.......................|.......................|.......................|.......................|.......................|.......................|.......................|.......................|
.......................|.......................|.......................|.......................|.......................|.......................|.......................|.......................|.......................|.......................|
.......................|.......................|.......................|.......................|.......................|.......................|.......................|.......................|.......................|.......................|
.......................|.......................|.......................|.......................|C-0....................|.......................|.......................|.......................|C-0....................|.......................|
G-1....................|.......................|.......................|D-4....................|G-2....8080............|C-4C0..................|.......................|.......................|C-5A000EA00............|.......................|
.......................|.......................|.......................|.......................|.......................|.......................|.......................|.......................|.......................|.......................|
.......................|.......................|.......................|.......................|.......................|.......................|.......................|.......................|.......................|.......................|
.......................|.......................|.......................|.......................|.......................|.......................|.......................|.......................|.......................|.......................|
.......................|.......................|.......................|.......................|.......................|.......................|.......................|.......................|.......................|.......................|
.......................|.......................|.......................|.......................|C-0....................|.......................|.......................|.......................|C-0....................|.......................|
.......................|.......................|.......................|.......................|G-2....................|.......................|.......................|.......................|C-5A000EA00............|.......................|
.......................|.......................|.......................|.......................|.......................|.......................|.......................|.......................|.......................|.......................|
.......................|.......0452............|.......0452............|.......................|.......................|.......................|.......................|.......................|.......................|.......................|
.......................|.......................|.......................|.......................|.......................|.......................|.......................|.......................|.......................|.......................|
.......................|.......................|.......................|.......................|.......................|.......................|.......................|.......................|.......................|.......................|
C-0....................|.......................|.......................|.......................|C-0....................|.......................|.......................|.......................|C-0....................|.......................|
G-2....................|.......................|.......................|.......................|G-2....................|C-4C0..................|.......................|.......................|C-5A000EA00............|.......................|
.......................|.......................|.......................|.......................|.......................|.......................|.......................|.......................|.......................|.......................|
.......................|.......................|.......................|.......................|.......................|.......................|.......................|.......................|.......................|.......................|
.......................|.......................|.......................|.......................|.......................|.......................|.......................|.......................|.......................|.......................|
.......................|.......................|.......................|.......................|.......................|.......................|.......................|.......................|.......................|.......................|
C-0....................|.......................|.......................|.......................|C-0....................|.......................|.......................|.......................|C-0....................|.......................|
.......................|.......................|.......................|.......................|G-2....................|C-4C0..................|.......................|.......................|C-5A000EA00............|.......................|
.......................|.......................|.......................|.......................|.......................|.......................|.......................|.......................|.......................|.......................|
.......................|.......................|.......................|.......0452............|.......................|.......................|.......................|.......................|.......................|.......................|
.......................|.......................|.......................|.......................|.......................|.......................|.......................|.......................|.......................|.......................|
.......................|.......................|.......................|.......................|.......................|.......................|.......................|.......................|.......................|.......................|
.......................|C-0....................|C-0....................|.......................|C-0....................|.......................|.......................|.......................|C-0....................|.......................|
F-1....................|E-4....0400............|C-4....0400............|.......................|F-2....................|C-4C1..................|.......................|.......................|C-5A000EA00............|.......................|
.......................|.......................|.......................|.......................|.......................|.......................|.......................|.......................|.......................|.......................|
.......................|.......................|.......................|.......................|.......................|.......................|.......................|.......................|.......................|.......................|
.......................|.......................|.......................|.......................|.......................|.......................|.......................|.......................|.......................|.......................|
.......................|.......................|.......................|.......................|.......................|.......................|.......................|.......................|.......................|.......................|
.......................|.......................|.......................|.......................|C-0....................|.......................|.......................|.......................|C-0....................|.......................|
.......................|.......................|.......................|.......................|F-2....................|C-4C0..................|.......................|.......................|C-5A000EA00............|.......................|
.......................|.......................|.......................|.......................|.......................|.......................|.......................|.......................|.......................|.......................|
.......................|.......................|.......................|.......................|.......................|.......................|.......................|.......................|.......................|.......................|
.......................|.......................|.......................|.......................|.......................|.......................|.......................|.......................|.......................|.......................|
.......................|.......................|.......................|.......................|.......................|.......................|.......................|.......................|.......................|.......................|
C-0....................|C-0....................|C-0....................|C-0....................|C-0....................|.......................|.......................|.......................|C-0....................|.......................|
F-2....................|F-4....................|C-4....................|E-4....0400............|F-2....................|C-4C0..................|.......................|.......................|C-5A000EA00............|.......................|
.......................|.......................|.......................|.......................|.......................|.......................|.......................|.......................|.......................|.......................|
.......................|.......................|.......................|.......................|.......................|.......................|.......................|.......................|.......................|.......................|
.......................|.......................|.......................|.......................|.......................|.......................|.......................|.......................|.......................|.......................|
.......................|.......................|.......................|.......................|.......................|.......................|.......................|.......................|.......................|.......................|
C-0....................|.......................|.......................|.......................|C-0....................|.......................|.......................|.......................|C-0....................|.......................|
.......................|.......................|.......................|.......................|F-2....................|C-4C0..................|.......................|.......................|C-5A000EA00............|.......................|
.......................|.......................|.......................|.......................|.......................|.......................|.......................|.......................|.......................|.......................|
.......................|.......................|.......................|.......................|.......................|.......................|.......................|.......................|.......................|.......................|
.......................|.......................|.......................|.......................|.......................|.......................|.......................|.......................|.......................|.......................|
.......................|.......................|.......................|.......................|.......................|.......................|.......................|.......................|.......................|.......................|
.......................|C-0....................|C-0....................|C-0....................|C-0....................|.......................|.......................|.......................|C-0....................|.......................|
E-1....................|A-4....................|E-4....................|F-4....................|E-2....80FF............|C-4C0..................|.......................|.......................|C-5A000EA00............|.......................|
.......................|.......................|.......................|.......................|.......................|.......................|.......................|.......................|.......................|.......................|
.......................|.......................|.......................|.......................|.......................|.......................|.......................|.......................|.......................|.......................|
.......................|.......................|.......................|.......................|.......................|.......................|.......................|.......................|.......................|.......................|
.......................|.......................|.......................|.......................|.......................|.......................|.......................|.......................|.......................|.......................|
.......................|C-0....................|C-0....................|.......................|C-0....................|.......................|.......................|.......................|C-0....................|.......................|
.......................|C-0....................|E-4....................|.......................|E-2....8000............|.......................|.......................|.......................|C-5A000EA00............|.......................|
.......................|.......................|.......................|.......................|.......................|.......................|.......................|.......................|.......................|.......................|
.......................|.......................|.......................|.......................|.......................|.......................|.......................|.......................|.......................|.......................|
.......................|.......................|.......................|.......................|.......................|.......................|.......................|.......................|.......................|.......................|
.......................|.......................|.......................|.......................|.......................|.......................|.......................|.......................|.......................|.......................|
C-0....................|C-0....................|C-0....................|C-0....................|C-0....................|.......................|.......................|.......................|C-0....................|.......................|
E-2....................|.......................|.......................|A-4....................|E-2....80FF............|.......................|.......................|.......................|C-5A000EA00............|.......................|
.......................|.......................|.......................|.......................|.......................|.......................|.......................|.......................|.......................|.......................|
.......................|.......................|.......................|.......................|.......................|.......................|.......................|.......................|.......................|.......................|
.......................|.......................|.......................|.......................|.......................|.......................|.......................|.......................|.......................|.......................|
.......................|.......................|.......................|.......................|.......................|.......................|.......................|.......................|.......................|.......................|
C-0....................|.......................|.......................|C-0....................|C-0....................|.......................|.......................|.......................|C-0....................|.......................|
.......................|A-4....................|E-4....................|A-4....................|E-2....8000............|.......................|.......................|.......................|C-5A000EA00............|.......................|
.......................|.......................|.......................|.......................|.......................|.......................|.......................|.......................|.......................|.......................|
.......................|.......................|.......................|.......................|.......................|.......................|.......................|.......................|.......................|.......................|
.......................|.......................|.......................|.......................|.......................|.......................|.......................|.......................|.......................|.......................|
.......................|.......................|.......................|.......................|.......................|.......................|.......................|.......................|.......................|.......................|
.......................|C-0....................|C-0....................|C-0....................|C-0....................|.......................|.......................|.......................|C-0....................|.......................|
E-1....................|A-4....................|E-4....................|.......................|E-2....80FF............|C-4C1..................|.......................|.......................|C-5A000EA00............|.......................|
.......................|.......................|.......................|.......................|.......................|.......................|.......................|.......................|.......................|.......................|
.......................|.......................|.......................|.......................|.......................|.......................|.......................|.......................|.......................|.......................|
.......................|.......................|.......................|.......................|.......................|.......................|.......................|.......................|.......................|.......................|
.......................|.......................|.......................|.......................|.......................|.......................|.......................|.......................|.......................|.......................|
.......................|.......................|.......................|.......................|C-0....................|.......................|.......................|.......................|C-0....................|.......................|
.......................|.......................|.......................|A-4....................|E-2....8000............|.......................|.......................|.......................|C-5A000EA00............|.......................|
.......................|.......................|.......................|.......................|.......................|.......................|.......................|.......................|.......................|.......................|
org.tildearrow.furnace - Pattern Data (219)
0
.......................|.......................|.......................|.......................|.......................|.......................|.......................|.......................|.......................|.......................|
.......................|.......................|.......................|.......................|.......................|.......................|.......................|.......................|.......................|.......................|
.......................|.......................|.......................|.......................|.......................|.......................|.......................|.......................|.......................|.......................|
C-0....................|C-0....................|C-0....................|C-0....................|C-0....................|.......................|.......................|.......................|C-0....................|.......................|
E-2....................|G#4....................|E-4....................|A-4....................|E-2....80FF............|.......................|.......................|.......................|C-5A000EA00............|.......................|
.......................|.......................|.......................|.......................|.......................|.......................|.......................|.......................|.......................|.......................|
.......................|.......................|.......................|.......................|.......................|.......................|.......................|.......................|.......................|.......................|
.......................|.......................|.......................|.......................|.......................|.......................|.......................|.......................|.......................|.......................|
.......................|.......................|.......................|.......................|.......................|.......................|.......................|.......................|.......................|.......................|
C-0....................|.......................|.......................|.......................|C-0....................|.......................|.......................|.......................|C-0....................|.......................|
.......................|.......................|.......................|.......................|E-2....8000............|.......................|.......................|.......................|C-5A000EA00............|.......................|
.......................|.......................|.......................|.......................|.......................|.......................|.......................|.......................|.......................|.......................|
.......................|.......................|.......................|.......................|.......................|.......................|.......................|.......................|.......................|.......................|
.......................|.......................|.......................|.......................|.......................|.......................|.......................|.......................|.......................|.......................|
.......................|.......................|.......................|.......................|.......................|.......................|.......................|.......................|.......................|.......................|
.......................|.......................|.......................|C-0....................|C-0....................|.......................|.......................|.......................|C-0....................|.......................|
E-1....................|.......................|.......................|G#4....................|E-2....80FF............|C-4C0..................|.......................|.......................|C-5A000EA00............|.......................|
.......................|.......................|.......................|.......................|.......................|.......................|.......................|.......................|.......................|.......................|
.......................|.......................|.......................|.......................|.......................|.......................|.......................|.......................|.......................|.......................|
.......................|.......................|.......................|.......................|.......................|.......................|.......................|.......................|.......................|.......................|
.......................|.......................|.......................|.......................|.......................|.......................|.......................|.......................|.......................|.......................|
.......................|.......................|.......................|.......................|C-0....................|.......................|.......................|.......................|C-0....................|.......................|
.......................|.......................|.......................|.......................|E-2....8000............|.......................|.......................|.......................|C-5A000EA00............|.......................|
.......................|.......................|.......................|.......................|.......................|.......................|.......................|.......................|.......................|.......................|
.......................|.......0452............|.......0452............|.......................|.......................|.......................|.......................|.......................|.......................|.......................|
.......................|.......................|.......................|.......................|.......................|.......................|.......................|.......................|.......................|.......................|
.......................|.......................|.......................|.......................|.......................|.......................|.......................|.......................|.......................|.......................|
C-0....................|C-0....................|C-0....................|.......................|C-0....................|.......................|.......................|.......................|C-0....................|.......................|
E-2....................|G#4....0400............|E-4....0400............|.......................|E-2....80FF............|C-4C0..................|.......................|.......................|C-5A000EA00............|.......................|
.......................|.......................|.......................|.......................|.......................|.......................|.......................|.......................|.......................|.......................|
.......................|.......................|.......................|.......................|.......................|.......................|.......................|.......................|.......................|.......................|
.......................|.......................|.......................|.......................|.......................|.......................|.......................|.......................|.......................|.......................|
.......................|.......................|.......................|.......................|.......................|.......................|.......................|.......................|.......................|.......................|
C-0....................|.......................|.......................|.......................|C-0....................|.......................|.......................|.......................|C-0....................|.......................|
E-2....................|.......................|.......................|.......................|E-2....8000............|C-4C0..................|.......................|.......................|C-5A000EA00............|.......................|
.......................|.......................|.......................|.......................|.......................|.......................|.......................|.......................|.......................|.......................|
.......................|.......................|.......................|.......0452............|.......................|.......................|.......................|.......................|.......................|.......................|
.......................|.......................|.......................|.......................|.......................|.......................|.......................|.......................|.......................|.......................|
.......................|.......................|.......................|.......................|.......................|.......................|.......................|.......................|.......................|.......................|
C-0....................|C-0....................|C-0....................|C-0....................|C-0....................|.......................|.......................|.......................|C-0....................|.......................|
E-1....................|A-4....................|F-4....................|G#4....0400............|E-2....80FF............|C-4C1..................|.......................|.......................|C-5A000EA00............|.......................|
.......................|.......................|.......................|.......................|.......................|.......................|.......................|.......................|.......................|.......................|
.......................|.......................|.......................|.......................|.......................|.......................|.......................|.......................|.......................|.......................|
.......................|.......................|.......................|.......................|.......................|.......................|.......................|.......................|.......................|.......................|
.......................|.......................|.......................|.......................|.......................|.......................|.......................|.......................|.......................|.......................|
C-0....................|.......................|.......................|.......................|C-0....................|.......................|.......................|.......................|C-0....................|.......................|
E-2....................|.......................|.......................|.......................|E-2....8000............|C-4C1..................|.......................|.......................|C-5A000EA00............|.......................|
.......................|.......................|.......................|.......................|.......................|.......................|.......................|.......................|.......................|.......................|
.......................|.......................|.......................|.......................|.......................|.......................|.......................|.......................|.......................|.......................|
.......................|.......................|.......................|.......................|.......................|.......................|.......................|.......................|.......................|.......................|
.......................|.......................|.......................|.......................|.......................|.......................|.......................|.......................|.......................|.......................|
C-0....................|C-0....................|C-0....................|C-0....................|C-0....................|.......................|.......................|.......................|C-0....................|.......................|
E-2....................|B-4....................|G-4....................|A-4....................|E-2....80FF............|C-4C1..................|.......................|.......................|C-5A000EA00............|.......................|
.......................|.......................|.......................|.......................|.......................|.......................|.......................|.......................|.......................|.......................|
.......................|.......................|.......................|.......................|.......................|.......................|.......................|.......................|.......................|.......................|
.......................|.......................|.......................|.......................|.......................|.......................|.......................|.......................|.......................|.......................|
.......................|.......................|.......................|.......................|.......................|.......................|.......................|.......................|.......................|.......................|
C-0....................|.......................|.......................|.......................|C-0....................|.......................|.......................|.......................|C-0....................|.......................|
E-2....................|.......................|.......................|.......................|E-2....8000............|.......................|.......................|.......................|C-5A000EA00............|.......................|
.......................|.......................|.......................|.......................|.......................|.......................|.......................|.......................|.......................|.......................|
C-0....................|.......................|.......................|.......................|.......................|.......................|.......................|.......................|.......................|.......................|
.......................|.......................|.......................|.......................|.......................|.......................|.......................|.......................|.......................|.......................|
.......................|.......................|.......................|.......................|.......................|.......................|.......................|.......................|.......................|.......................|
.......................|C-0....................|C-0....................|C-0....................|C-0....................|.......................|.......................|.......................|C-0....................|.......................|
F-1....................|F-4....................|C-4....................|B-4....................|F-2....80FF............|C-4C0..................|.......................|.......................|C-5A000EA00............|.......................|
.......................|.......................|.......................|.......................|.......................|.......................|.......................|.......................|.......................|.......................|
.......................|.......................|.......................|.......................|.......................|.......................|.......................|.......................|.......................|.......................|
.......................|.......................|.......................|.......................|.......................|.......................|.......................|.......................|.......................|.......................|
.......................|.......................|.......................|.......................|.......................|.......................|.......................|.......................|.......................|.......................|
.......................|.......................|.......................|.......................|C-0....................|.......................|.......................|.......................|C-0....................|.......................|
.......................|.......................|.......................|.......................|F-2....8000............|.......................|.......................|.......................|C-5A000EA00............|.......................|
.......................|.......................|.......................|.......................|.......................|.......................|.......................|.......................|.......................|.......................|
.......................|.......................|.......................|.......................|.......................|.......................|.......................|.......................|.......................|.......................|
.......................|.......................|.......................|.......................|.......................|.......................|.......................|.......................|.......................|.......................|
.......................|.......................|.......................|.......................|.......................|.......................|.......................|.......................|.......................|.......................|
C-0....................|C-0....................|C-0....................|C-0....................|C-0....................|.......................|.......................|.......................|C-0....................|.......................|
F-2....................|.......................|.......................|F-4....................|F-2....80FF............|.......................|.......................|.......................|C-5A000EA00............|.......................|
.......................|.......................|.......................|.......................|.......................|.......................|.......................|.......................|.......................|.......................|
.......................|.......................|.......................|.......................|.......................|.......................|.......................|.......................|.......................|.......................|
.......................|.......................|.......................|.......................|.......................|.......................|.......................|.......................|.......................|.......................|
.......................|.......................|.......................|.......................|.......................|.......................|.......................|.......................|.......................|.......................|
C-0....................|.......................|.......................|.......................|C-0....................|.......................|.......................|.......................|C-0....................|.......................|
.......................|F-4....................|C-4....................|.......................|F-2....8000............|.......................|.......................|.......................|C-5A000EA00............|.......................|
.......................|.......................|.......................|.......................|.......................|.......................|.......................|.......................|.......................|.......................|
.......................|.......................|.......................|.......................|.......................|.......................|.......................|.......................|.......................|.......................|
.......................|.......................|.......................|.......................|.......................|.......................|.......................|.......................|.......................|.......................|
.......................|.......................|.......................|.......................|.......................|.......................|.......................|.......................|.......................|.......................|
.......................|C-0....................|C-0....................|C-0....................|C-0....................|.......................|.......................|.......................|C-0....................|.......................|
F-1....................|.......................|.......................|.......................|F-2....80FF............|C-4C1..................|.......................|.......................|C-5A000EA00............|.......................|
.......................|.......................|.......................|.......................|.......................|.......................|.......................|.......................|.......................|.......................|
.......................|.......................|.......................|.......................|.......................|.......................|.......................|.......................|.......................|.......................|
.......................|.......................|.......................|.......................|.......................|.......................|.......................|.......................|.......................|.......................|
.......................|.......................|.......................|.......................|.......................|.......................|.......................|.......................|.......................|.......................|
.......................|.......................|.......................|.......................|C-0....................|.......................|.......................|.......................|C-0....................|.......................|
.......................|.......................|.......................|F-4....................|F-2....8000............|.......................|.......................|.......................|C-5A000EA00............|.......................|
.......................|.......................|.......................|.......................|.......................|.......................|.......................|.......................|.......................|.......................|
.......................|.......................|.......................|.......................|.......................|.......................|.......................|.......................|.......................|.......................|
.......................|.......................|.......................|.......................|.......................|.......................|.......................|.......................|.......................|.......................|
.......................|.......................|.......................|.......................|.......................|.......................|.......................|.......................|.......................|.......................|
C-0....................|.......................|.......................|C-0....................|C-0....................|.......................|.......................|.......................|C-0....................|.......................|
F-2....................|F-4....................|C-4....................|.......................|F-2....80FF............|.......................|.......................|.......................|C-5A000EA00............|.......................|
.......................|.......................|.......................|.......................|.......................|.......................|.......................|.......................|.......................|.......................|
.......................|.......................|.......................|.......................|.......................|.......................|.......................|.......................|.......................|.......................|
.......................|.......................|.......................|.......................|.......................|.......................|.......................|.......................|.......................|.......................|
.......................|.......................|.......................|.......................|.......................|.......................|.......................|.......................|.......................|.......................|
C-0....................|.......................|.......................|.......................|C-0....................|.......................|.......................|.......................|C-0....................|.......................|
.......................|.......................|.......................|.......................|F-2....8000............|.......................|.......................|.......................|C-5A000EA00............|.......................|
.......................|.......................|.......................|.......................|.......................|.......................|.......................|.......................|.......................|.......................|
.......................|.......................|.......................|.......................|.......................|.......................|.......................|.......................|.......................|.......................|
.......................|.......................|.......................|.......................|.......................|.......................|.......................|.......................|.......................|.......................|
.......................|.......................|.......................|.......................|.......................|.......................|.......................|.......................|.......................|.......................|
.......................|C-0....................|C-0....................|.......................|C-0....................|.......................|.......................|.......................|C-0....................|.......................|
G-1....................|G-4....................|D-4....................|F-4....................|G-2....80FF............|C-4C0..................|.......................|.......................|C-5A000EA00............|.......................|
.......................|.......................|.......................|.......................|.......................|.......................|.......................|.......................|.......................|.......................|
.......................|.......................|.......................|.......................|.......................|.......................|.......................|.......................|.......................|.......................|
.......................|.......................|.......................|.......................|.......................|.......................|.......................|.......................|.......................|.......................|
.......................|.......................|.......................|.......................|.......................|.......................|.......................|.......................|.......................|.......................|
.......................|.......................|.......................|.......................|C-0....................|.......................|.......................|.......................|C-0....................|.......................|
.......................|.......................|.......................|.......................|G-2....8000............|.......................|.......................|.......................|C-5A000EA00............|.......................|
.......................|.......................|.......................|.......................|.......................|.......................|.......................|.......................|.......................|.......................|
.......................|.......................|.......................|.......................|.......................|.......................|.......................|.......................|.......................|.......................|
.......................|.......................|.......................|.......................|.......................|.......................|.......................|.......................|.......................|.......................|
.......................|.......................|.......................|.......................|.......................|.......................|.......................|.......................|.......................|.......................|
C-0....................|.......................|.......................|C-0....................|C-0....................|.......................|.......................|.......................|C-0....................|.......................|
G-1....................|.......................|.......................|G-4....................|G-2....80FF............|C-4C0..................|.......................|.......................|C-5A000EA00............|.......................|
.......................|.......................|.......................|.......................|.......................|.......................|.......................|.......................|.......................|.......................|
.......................|.......................|.......................|.......................|.......................|.......................|.......................|.......................|.......................|.......................|
.......................|.......................|.......................|.......................|.......................|.......................|.......................|.......................|.......................|.......................|
.......................|.......................|.......................|.......................|.......................|.......................|.......................|.......................|.......................|.......................|
C-0....................|.......................|.......................|.......................|C-0....................|.......................|.......................|.......................|C-0....................|.......................|
.......................|.......................|.......................|.......................|G-2....8000............|C-4C0..................|.......................|.......................|C-5A000EA00............|.......................|
.......................|.......................|.......................|.......................|.......................|.......................|.......................|.......................|.......................|.......................|
.......................|.......0452............|.......0452............|.......................|.......................|.......................|.......................|.......................|.......................|.......................|
.......................|.......................|.......................|.......................|.......................|.......................|.......................|.......................|.......................|.......................|
.......................|.......................|.......................|.......................|.......................|.......................|.......................|.......................|.......................|.......................|
.......................|C-0....................|C-0....................|.......................|C-0....................|.......................|.......................|.......................|C-0....................|.......................|
G-1....................|D-4....0400............|B-3....0400............|.......................|G-2....80FF............|C-4C1..................|.......................|.......................|C-5A000EA00............|.......................|
.......................|.......................|.......................|.......................|.......................|.......................|.......................|.......................|.......................|.......................|
.......................|.......................|.......................|.......................|.......................|.......................|.......................|.......................|.......................|.......................|
.......................|.......................|.......................|.......................|.......................|.......................|.......................|.......................|.......................|.......................|
.......................|.......................|.......................|.......................|.......................|.......................|.......................|.......................|.......................|.......................|
.......................|.......................|.......................|.......................|C-0....................|.......................|.......................|.......................|C-0....................|.......................|
.......................|.......................|.......................|.......................|G-2....8000............|C-4C0..................|.......................|.......................|C-5A000EA00............|.......................|
.......................|.......................|.......................|.......................|.......................|.......................|.......................|.......................|.......................|.......................|
.......................|.......................|.......................|.......0452............|.......................|.......................|.......................|.......................|.......................|.......................|
.......................|.......................|.......................|.......................|.......................|.......................|.......................|.......................|.......................|.......................|
.......................|.......................|.......................|.......................|.......................|.......................|.......................|.......................|.......................|.......................|
C-0....................|.......................|.......................|C-0....................|C-0....................|.......................|.......................|.......................|C-0....................|.......................|
G-2....................|.......................|.......................|D-4....0400............|G-2....80FF............|C-4C0..................|.......................|.......................|C-5A000EA00............|.......................|
.......................|.......................|.......................|.......................|.......................|.......................|.......................|.......................|.......................|.......................|
.......................|.......................|.......................|.......................|.......................|.......................|.......................|.......................|.......................|.......................|
.......................|.......................|.......................|.......................|.......................|.......................|.......................|.......................|.......................|.......................|
.......................|.......................|.......................|.......................|.......................|.......................|.......................|.......................|.......................|.......................|
C-0....................|.......................|.......................|.......................|C-0....................|.......................|.......................|.......................|C-0....................|.......................|
.......................|.......................|.......................|.......................|G-2....8000............|C-4C0..................|.......................|.......................|C-5A000EA00............|.......................|
.......................|.......................|.......................|.......................|.......................|.......................|.......................|.......................|.......................|.......................|
.......................|.......0452............|.......0452............|.......................|.......................|.......................|.......................|.......................|.......................|.......................|
.......................|.......................|.......................|.......................|.......................|.......................|.......................|.......................|.......................|.......................|
.......................|.......................|.......................|.......................|.......................|.......................|.......................|.......................|.......................|.......................|
.......................|C-0....................|C-0....................|.......................|C-0....................|.......................|.......................|.......................|C-0....................|.......................|
C-2....................|E-4....0400............|C-4....0400............|.......................|C-3....8080............|C-4C0..................|.......................|.......................|C-5A000EA00............|.......................|
.......................|.......................|.......................|.......................|.......................|.......................|.......................|.......................|.......................|.......................|
.......................|.......................|.......................|.......................|.......................|.......................|.......................|.......................|.......................|.......................|
.......................|.......................|.......................|.......................|.......................|.......................|.......................|.......................|.......................|.......................|
.......................|.......................|.......................|.......................|.......................|.......................|.......................|.......................|.......................|.......................|
.......................|.......................|.......................|.......................|C-0....................|.......................|.......................|.......................|C-0....................|.......................|
.......................|.......................|.......................|.......................|C-3....................|.......................|.......................|.......................|C-5A000EA00............|.......................|
.......................|.......................|.......................|.......................|.......................|.......................|.......................|.......................|.......................|.......................|
.......................|.......................|.......................|.......0452............|.......................|.......................|.......................|.......................|.......................|.......................|
.......................|.......................|.......................|.......................|.......................|.......................|.......................|.......................|.......................|.......................|
.......................|.......................|.......................|.......................|.......................|.......................|.......................|.......................|.......................|.......................|
C-0....................|.......................|.......................|C-0....................|C-0....................|.......................|.......................|.......................|C-0....................|.......................|
C-3....................|.......................|.......................|E-4....0400............|C-3....................|.......................|.......................|.......................|C-5A000EA00............|.......................|
.......................|.......................|.......................|.......................|.......................|.......................|.......................|.......................|.......................|.......................|
.......................|.......................|.......................|.......................|.......................|.......................|.......................|.......................|.......................|.......................|
.......................|.......................|.......................|.......................|.......................|.......................|.......................|.......................|.......................|.......................|
.......................|.......................|.......................|.......................|.......................|.......................|.......................|.......................|.......................|.......................|
C-0....................|.......................|.......................|.......................|C-0....................|.......................|.......................|.......................|C-0....................|.......................|
.......................|.......................|.......................|.......................|C-3....................|.......................|.......................|.......................|C-5A000EA00............|.......................|
.......................|.......................|.......................|.......................|.......................|.......................|.......................|.......................|.......................|.......................|
.......................|.......0452............|.......0452............|.......................|.......................|.......................|.......................|.......................|.......................|.......................|
.......................|.......................|.......................|.......................|.......................|.......................|.......................|.......................|.......................|.......................|
.......................|.......................|.......................|.......................|.......................|.......................|.......................|.......................|.......................|.......................|
.......................|C-0....................|C-0....................|.......................|C-0....................|.......................|.......................|.......................|C-0....................|.......................|
B-1....................|D-4....0400............|B-3....0400............|.......................|B-2....................|C-4C1..................|.......................|.......................|C-5A000EA00............|.......................|
.......................|.......................|.......................|.......................|.......................|.......................|.......................|.......................|.......................|.......................|
.......................|.......................|.......................|.......................|.......................|.......................|.......................|.......................|.......................|.......................|
.......................|.......................|.......................|.......................|.......................|.......................|.......................|.......................|.......................|.......................|
.......................|.......................|.......................|.......................|.......................|.......................|.......................|.......................|.......................|.......................|
.......................|.......................|.......................|.......................|C-0....................|.......................|.......................|.......................|C-0....................|.......................|
.......................|.......................|.......................|.......................|B-2....................|.......................|.......................|.......................|C-5A000EA00............|.......................|
.......................|.......................|.......................|.......................|.......................|.......................|.......................|.......................|.......................|.......................|
.......................|.......................|.......................|.......0452............|.......................|.......................|.......................|.......................|.......................|.......................|
.......................|.......................|.......................|.......................|.......................|.......................|.......................|.......................|.......................|.......................|
.......................|.......................|.......................|.......................|.......................|.......................|.......................|.......................|.......................|.......................|
C-0....................|.......................|.......................|C-0....................|C-0....................|.......................|.......................|.......................|C-0....................|.......................|
B-2....................|.......................|.......................|D-4....0400............|B-2....................|.......................|.......................|.......................|C-5A000EA00............|.......................|
.......................|.......................|.......................|.......................|.......................|.......................|.......................|.......................|.......................|.......................|
.......................|.......................|.......................|.......................|.......................|.......................|.......................|.......................|.......................|.......................|
.......................|.......................|.......................|.......................|.......................|.......................|.......................|.......................|.......................|.......................|
.......................|.......................|.......................|.......................|.......................|.......................|.......................|.......................|.......................|.......................|
C-0....................|.......................|.......................|.......................|C-0....................|.......................|.......................|.......................|C-0....................|.......................|
.......................|.......................|.......................|.......................|B-2....................|.......................|.......................|.......................|C-5A000EA00............|.......................|
.......................|.......................|.......................|.......................|.......................|.......................|.......................|.......................|.......................|.......................|
.......................|.......0452............|.......0452............|.......................|.......................|.......................|.......................|.......................|.......................|.......................|
.......................|.......................|.......................|.......................|.......................|.......................|.......................|.......................|.......................|.......................|
.......................|.......................|.......................|.......................|.......................|.......................|.......................|.......................|.......................|.......................|
.......................|C-0....................|C-0....................|.......................|C-0....................|.......................|.......................|.......................|C-0....................|.......................|
A-1....................|C-4....0400............|A-3....0400............|.......................|A-2....80FF............|C-4C0..................|.......................|.......................|C-5A000EA00............|.......................|
.......................|.......................|.......................|.......................|.......................|.......................|.......................|.......................|.......................|.......................|
.......................|.......................|.......................|.......................|.......................|.......................|.......................|.......................|.......................|.......................|
.......................|.......................|.......................|.......................|.......................|.......................|.......................|.......................|.......................|.......................|
.......................|.......................|.......................|.......................|.......................|.......................|.......................|.......................|.......................|.......................|
.......................|.......................|.......................|.......................|C-0....................|.......................|.......................|.......................|C-0....................|.......................|
.......................|.......................|.......................|.......................|A-2....8000............|.......................|.......................|.......................|C-5A000EA00............|.......................|
.......................|.......................|.......................|.......................|.......................|.......................|.......................|.......................|.......................|.......................|
.......................|.......................|.......................|.......0452............|.......................|.......................|.......................|.......................|.......................|.......................|
.......................|.......................|.......................|.......................|.......................|.......................|.......................|.......................|.......................|.......................|
.......................|.......................|.......................|.......................|.......................|.......................|.......................|.......................|.......................|.......................|
C-0....................|.......................|.......................|C-0....................|C-0....................|.......................|.......................|.......................|C-0....................|.......................|
A-2....................|.......................|.......................|C-4....0400............|A-2....80FF............|C-4C0..................|.......................|.......................|C-5A000EA00............|.......................|
.......................|.......................|.......................|.......................|.......................|.......................|.......................|.......................|.......................|.......................|
.......................|.......................|.......................|.......................|.......................|.......................|.......................|.......................|.......................|.......................|
.......................|.......................|.......................|.......................|.......................|.......................|.......................|.......................|.......................|.......................|
.......................|.......................|.......................|.......................|.......................|.......................|.......................|.......................|.......................|.......................|
C-0....................|.......................|.......................|.......................|C-0....................|.......................|.......................|.......................|C-0....................|.......................|
A-2....................|.......................|.......................|.......................|A-2....8000............|C-4C0..................|.......................|.......................|C-5A000EA00............|.......................|
.......................|.......................|.......................|.......................|.......................|.......................|.......................|.......................|.......................|.......................|
.......................|.......0452............|.......0452............|.......................|.......................|.......................|.......................|.......................|.......................|.......................|
.......................|.......................|.......................|.......................|.......................|.......................|.......................|.......................|.......................|.......................|
.......................|.......................|.......................|.......................|.......................|.......................|.......................|.......................|.......................|.......................|
C-0....................|.......................|.......................|.......................|C-0....................|.......................|.......................|.......................|C-0....................|.......................|
A-1....................|.......................|.......................|.......................|A-2....80FF............|C-4C1..................|.......................|.......................|C-5A000EA00............|.......................|
.......................|.......................|.......................|.......................|.......................|.......................|.......................|.......................|.......................|.......................|
.......................|.......................|.......................|.......................|.......................|.......................|.......................|.......................|.......................|.......................|
.......................|.......................|.......................|.......................|.......................|.......................|.......................|.......................|.......................|.......................|
.......................|.......................|.......................|.......................|.......................|.......................|.......................|.......................|.......................|.......................|
C-0....................|.......................|.......................|.......................|C-0....................|.......................|.......................|.......................|C-0....................|.......................|
A-2....................|.......................|.......................|.......................|A-2....8000............|C-4C0..................|.......................|.......................|C-5A000EA00............|.......................|
.......................|.......................|.......................|.......................|.......................|.......................|.......................|.......................|.......................|.......................|
.......................|.......................|.......................|.......0452............|.......................|.......................|.......................|.......................|.......................|.......................|
.......................|.......................|.......................|.......................|.......................|.......................|.......................|.......................|.......................|.......................|
.......................|.......................|.......................|.......................|.......................|.......................|.......................|.......................|.......................|.......................|
C-0....................|C-0....................|C-0....................|.......................|C-0....................|.......................|.......................|.......................|C-0....................|.......................|
A-2....................|C-4....0400............|A-3....0400............|.......................|A-2....80FF............|C-4C0..................|.......................|.......................|C-5A000EA00............|.......................|
.......................|.......................|.......................|.......................|.......................|.......................|.......................|.......................|.......................|.......................|
.......................|.......................|.......................|.......................|.......................|.......................|.......................|.......................|.......................|.......................|
.......................|.......................|.......................|.......................|.......................|.......................|.......................|.......................|.......................|.......................|
.......................|.......................|.......................|.......................|.......................|.......................|.......................|.......................|.......................|.......................|
C-0....................|.......................|.......................|.......................|C-0....................|.......................|.......................|.......................|C-0....................|.......................|
A-2....................|.......................|.......................|.......................|A-2....8000............|C-4C0..................|.......................|.......................|C-5A000EA00............|.......................|
.......................|.......................|.......................|.......................|.......................|.......................|.......................|.......................|.......................|.......................|
.......................|.......................|.......................|.......................|.......................|.......................|.......................|.......................|.......................|.......................|
.......................|.......................|.......................|.......................|.......................|.......................|.......................|.......................|.......................|.......................|
.......................|.......................|.......................|.......................|.......................|.......................|.......................|.......................|.......................|.......................|
C-0....................|C-0....................|C-0....................|C-0....................|C-0....................|.......................|.......................|.......................|C-0....................|.......................|
org.tildearrow.furnace - Pattern Data (219)
0
F-1....................|F-4....................|C-4....................|C-4....0400............|F-2....80FF............|C-4C0..................|.......................|.......................|C-5A000EA00............|.......................|
.......................|.......................|.......................|.......................|.......................|.......................|.......................|.......................|.......................|.......................|
.......................|.......................|.......................|.......................|.......................|.......................|.......................|.......................|.......................|.......................|
.......................|.......................|.......................|.......................|.......................|.......................|.......................|.......................|.......................|.......................|
.......................|.......................|.......................|.......................|.......................|.......................|.......................|.......................|.......................|.......................|
.......................|.......................|.......................|.......................|C-0....................|.......................|.......................|.......................|C-0....................|.......................|
.......................|.......................|.......................|.......................|F-2....8000............|.......................|.......................|.......................|C-5A000EA00............|.......................|
.......................|.......................|.......................|.......................|.......................|.......................|.......................|.......................|.......................|.......................|
.......................|.......................|.......................|.......................|.......................|.......................|.......................|.......................|.......................|.......................|
.......................|.......................|.......................|.......................|.......................|.......................|.......................|.......................|.......................|.......................|
.......................|.......................|.......................|.......................|.......................|.......................|.......................|.......................|.......................|.......................|
C-0....................|C-0....................|C-0....................|C-0....................|C-0....................|.......................|.......................|.......................|C-0....................|.......................|
F-2....................|.......................|.......................|F-4....................|F-2....80FF............|.......................|.......................|.......................|C-5A000EA00............|.......................|
.......................|.......................|.......................|.......................|.......................|.......................|.......................|.......................|.......................|.......................|
.......................|.......................|.......................|.......................|.......................|.......................|.......................|.......................|.......................|.......................|
.......................|.......................|.......................|.......................|.......................|.......................|.......................|.......................|.......................|.......................|
.......................|.......................|.......................|.......................|.......................|.......................|.......................|.......................|.......................|.......................|
C-0....................|.......................|.......................|.......................|C-0....................|.......................|.......................|.......................|C-0....................|.......................|
.......................|F-4....................|C-4....................|.......................|F-2....8000............|.......................|.......................|.......................|C-5A000EA00............|.......................|
.......................|.......................|.......................|.......................|.......................|.......................|.......................|.......................|.......................|.......................|
.......................|.......................|.......................|.......................|.......................|.......................|.......................|.......................|.......................|.......................|
.......................|.......................|.......................|.......................|.......................|.......................|.......................|.......................|.......................|.......................|
.......................|.......................|.......................|.......................|.......................|.......................|.......................|.......................|.......................|.......................|
.......................|C-0....................|C-0....................|C-0....................|C-0....................|.......................|.......................|.......................|C-0....................|.......................|
F-1....................|.......................|.......................|.......................|F-2....80FF............|C-4C1..................|.......................|.......................|C-5A000EA00............|.......................|
.......................|.......................|.......................|.......................|.......................|.......................|.......................|.......................|.......................|.......................|
.......................|.......................|.......................|.......................|.......................|.......................|.......................|.......................|.......................|.......................|
.......................|.......................|.......................|.......................|.......................|.......................|.......................|.......................|.......................|.......................|
.......................|.......................|.......................|.......................|.......................|.......................|.......................|.......................|.......................|.......................|
.......................|.......................|.......................|.......................|C-0....................|.......................|.......................|.......................|C-0....................|.......................|
.......................|.......................|.......................|F-4....................|F-2....8000............|.......................|.......................|.......................|C-5A000EA00............|.......................|
.......................|.......................|.......................|.......................|.......................|.......................|.......................|.......................|.......................|.......................|
.......................|.......................|.......................|.......................|.......................|.......................|.......................|.......................|.......................|.......................|
.......................|.......................|.......................|.......................|.......................|.......................|.......................|.......................|.......................|.......................|
.......................|.......................|.......................|.......................|.......................|.......................|.......................|.......................|.......................|.......................|
C-0....................|.......................|.......................|C-0....................|C-0....................|.......................|.......................|.......................|C-0....................|.......................|
F-2....................|F-4....................|C-4....................|.......................|F-2....80FF............|.......................|.......................|.......................|C-5A000EA00............|.......................|
.......................|.......................|.......................|.......................|.......................|.......................|.......................|.......................|.......................|.......................|
.......................|.......................|.......................|.......................|.......................|.......................|.......................|.......................|.......................|.......................|
.......................|.......................|.......................|.......................|.......................|.......................|.......................|.......................|.......................|.......................|
.......................|.......................|.......................|.......................|.......................|.......................|.......................|.......................|.......................|.......................|
C-0....................|.......................|.......................|.......................|C-0....................|.......................|.......................|.......................|C-0....................|.......................|
.......................|.......................|.......................|.......................|F-2....8000............|.......................|.......................|.......................|C-5A000EA00............|.......................|
.......................|.......................|.......................|.......................|.......................|.......................|.......................|.......................|.......................|.......................|
.......................|.......................|.......................|.......................|.......................|.......................|.......................|.......................|.......................|.......................|
.......................|.......................|.......................|.......................|.......................|.......................|.......................|.......................|.......................|.......................|
.......................|.......................|.......................|.......................|.......................|.......................|.......................|.......................|.......................|.......................|
.......................|C-0....................|C-0....................|.......................|C-0....................|.......................|.......................|.......................|C-0....................|.......................|
G-1....................|G-4....................|D-4....................|F-4....................|G-2....80FF............|C-4C0..................|.......................|.......................|C-5A000EA00............|.......................|
.......................|.......................|.......................|.......................|.......................|.......................|.......................|.......................|.......................|.......................|
.......................|.......................|.......................|.......................|.......................|.......................|.......................|.......................|.......................|.......................|
.......................|.......................|.......................|.......................|.......................|.......................|.......................|.......................|.......................|.......................|
.......................|.......................|.......................|.......................|.......................|.......................|.......................|.......................|.......................|.......................|
.......................|.......................|.......................|.......................|C-0....................|.......................|.......................|.......................|C-0....................|.......................|
.......................|.......................|.......................|.......................|G-2....8000............|.......................|.......................|.......................|C-5A000EA00............|.......................|
.......................|.......................|.......................|.......................|.......................|.......................|.......................|.......................|.......................|.......................|
.......................|.......................|.......................|.......................|.......................|.......................|.......................|.......................|.......................|.......................|
.......................|.......................|.......................|.......................|.......................|.......................|.......................|.......................|.......................|.......................|
.......................|.......................|.......................|.......................|.......................|.......................|.......................|.......................|.......................|.......................|
C-0....................|.......................|.......................|C-0....................|C-0....................|.......................|.......................|.......................|C-0....................|.......................|
G-2....................|.......................|.......................|G-4....................|G-2....80FF............|C-4C0..................|.......................|.......................|C-5A000EA00............|.......................|
.......................|.......................|.......................|.......................|.......................|.......................|.......................|.......................|.......................|.......................|
.......................|.......................|.......................|.......................|.......................|.......................|.......................|.......................|.......................|.......................|
.......................|.......................|.......................|.......................|.......................|.......................|.......................|.......................|.......................|.......................|
.......................|.......................|.......................|.......................|.......................|.......................|.......................|.......................|.......................|.......................|
C-0....................|.......................|.......................|.......................|C-0....................|.......................|.......................|.......................|C-0....................|.......................|
.......................|.......................|.......................|.......................|G-2....8000............|C-4C0..................|.......................|.......................|C-5A000EA00............|.......................|
.......................|.......................|.......................|.......................|.......................|.......................|.......................|.......................|.......................|.......................|
.......................|.......0452............|.......0452............|.......................|.......................|.......................|.......................|.......................|.......................|.......................|
.......................|.......................|.......................|.......................|.......................|.......................|.......................|.......................|.......................|.......................|
.......................|.......................|.......................|.......................|.......................|.......................|.......................|.......................|.......................|.......................|
.......................|C-0....................|C-0....................|.......................|C-0....................|.......................|.......................|.......................|C-0....................|.......................|
G-1....................|B-4....0400............|G-4....0400............|.......................|G-2....80FF............|C-4C1..................|.......................|.......................|C-5A000EA00............|.......................|
.......................|.......................|.......................|.......................|.......................|.......................|.......................|.......................|.......................|.......................|
.......................|.......................|.......................|.......................|.......................|.......................|.......................|.......................|.......................|.......................|
.......................|.......................|.......................|.......................|.......................|.......................|.......................|.......................|.......................|.......................|
.......................|.......................|.......................|.......................|.......................|.......................|.......................|.......................|.......................|.......................|
.......................|.......................|.......................|.......................|C-0....................|.......................|.......................|.......................|C-0....................|.......................|
.......................|.......................|.......................|.......................|G-2....8000............|C-4C0..................|.......................|.......................|C-5A000EA00............|.......................|
.......................|.......................|.......................|.......................|.......................|.......................|.......................|.......................|.......................|.......................|
.......................|.......................|.......................|.......0452............|.......................|.......................|.......................|.......................|.......................|.......................|
.......................|.......................|.......................|.......................|.......................|.......................|.......................|.......................|.......................|.......................|
.......................|.......................|.......................|.......................|.......................|.......................|.......................|.......................|.......................|.......................|
C-0....................|.......................|.......................|C-0....................|C-0....................|.......................|.......................|.......................|C-0....................|.......................|
G-2....................|.......................|.......................|B-4....0400............|G-2....80FF............|C-4C0..................|.......................|.......................|C-5A000EA00............|.......................|
.......................|.......................|.......................|.......................|.......................|.......................|.......................|.......................|.......................|.......................|
.......................|.......................|.......................|.......................|.......................|.......................|.......................|.......................|.......................|.......................|
.......................|.......................|.......................|.......................|.......................|.......................|.......................|.......................|.......................|.......................|
.......................|.......................|.......................|.......................|.......................|.......................|.......................|.......................|.......................|.......................|
C-0....................|.......................|.......................|.......................|C-0....................|.......................|.......................|.......................|C-0....................|.......................|
.......................|.......................|.......................|.......................|G-2....8000............|C-4C0..................|.......................|.......................|C-5A000EA00............|.......................|
.......................|.......................|.......................|.......................|.......................|.......................|.......................|.......................|.......................|.......................|
.......................|.......0452............|.......0452............|.......................|.......................|.......................|.......................|.......................|.......................|.......................|
.......................|.......................|.......................|.......................|.......................|.......................|.......................|.......................|.......................|.......................|
.......................|.......................|.......................|.......................|.......................|.......................|.......................|.......................|.......................|.......................|
.......................|C-0....................|C-0....................|.......................|C-0....................|.......................|.......................|.......................|C-0....................|.......................|
A-1....................|A-4....0400............|E-4....0400............|.......................|A-2....80FF............|C-4C0..................|.......................|.......................|C-5A000EA00............|.......................|
.......................|.......................|.......................|.......................|.......................|.......................|.......................|.......................|.......................|.......................|
.......................|.......................|.......................|.......................|.......................|.......................|.......................|.......................|.......................|.......................|
.......................|.......................|.......................|.......................|.......................|.......................|.......................|.......................|.......................|.......................|
.......................|.......................|.......................|.......................|.......................|.......................|.......................|.......................|.......................|.......................|
.......................|.......................|.......................|.......................|C-0....................|.......................|.......................|.......................|C-0....................|.......................|
.......................|.......................|.......................|.......................|A-2....8000............|.......................|.......................|.......................|C-5A000EA00............|.......................|
.......................|.......................|.......................|.......................|.......................|.......................|.......................|.......................|.......................|.......................|
.......................|.......................|.......................|.......0452............|.......................|.......................|.......................|.......................|.......................|.......................|
.......................|.......................|.......................|.......................|.......................|.......................|.......................|.......................|.......................|.......................|
.......................|.......................|.......................|.......................|.......................|.......................|.......................|.......................|.......................|.......................|
C-0....................|.......................|.......................|C-0....................|C-0....................|.......................|.......................|.......................|C-0....................|.......................|
A-2....................|.......................|.......................|A-4....0400............|A-2....80FF............|.......................|.......................|.......................|C-5A000EA00............|.......................|
.......................|.......................|.......................|.......................|.......................|.......................|.......................|.......................|.......................|.......................|
.......................|.......................|.......................|.......................|.......................|.......................|.......................|.......................|.......................|.......................|
.......................|.......................|.......................|.......................|.......................|.......................|.......................|.......................|.......................|.......................|
.......................|.......................|.......................|.......................|.......................|.......................|.......................|.......................|.......................|.......................|
C-0....................|.......................|C-0....................|.......................|C-0....................|.......................|.......................|.......................|C-0....................|.......................|
A-2....................|.......................|C-4....................|.......................|A-2....8000............|.......................|.......................|.......................|C-5A000EA00............|.......................|
.......................|.......................|.......................|.......................|.......................|.......................|.......................|.......................|.......................|.......................|
.......................|.......0452............|.......................|.......................|.......................|.......................|.......................|.......................|.......................|.......................|
.......................|.......................|.......................|.......................|.......................|.......................|.......................|.......................|.......................|.......................|
.......................|.......................|.......................|.......................|.......................|.......................|.......................|.......................|.......................|.......................|
C-0....................|.......................|C-0....................|.......................|C-0....................|.......................|.......................|.......................|C-0....................|.......................|
A-1....................|.......................|D-4....................|.......................|A-2....80FF............|C-4C1..................|.......................|.......................|C-5A000EA00............|.......................|
.......................|.......................|.......................|.......................|.......................|.......................|.......................|.......................|.......................|.......................|
.......................|.......................|.......................|.......................|.......................|.......................|.......................|.......................|.......................|.......................|
.......................|.......................|.......................|.......................|.......................|.......................|.......................|.......................|.......................|.......................|
.......................|.......................|.......................|.......................|.......................|.......................|.......................|.......................|.......................|.......................|
C-0....................|.......................|C-0....................|.......................|C-0....................|.......................|.......................|.......................|C-0....................|.......................|
A-2....................|.......................|C-4....................|.......................|A-2....8000............|.......................|.......................|.......................|C-5A000EA00............|.......................|
.......................|.......................|.......................|.......................|.......................|.......................|.......................|.......................|.......................|.......................|
.......................|.......................|.......................|.......0452............|.......................|.......................|.......................|.......................|.......................|.......................|
.......................|.......................|.......................|.......................|.......................|.......................|.......................|.......................|.......................|.......................|
.......................|.......................|.......................|.......................|.......................|.......................|.......................|.......................|.......................|.......................|
C-0....................|.......................|C-0....................|.......................|C-0....................|.......................|.......................|.......................|C-0....................|.......................|
A-2....................|.......................|B-3....................|.......................|A-2....80FF............|.......................|.......................|.......................|C-5A000EA00............|.......................|
.......................|.......................|.......................|.......................|.......................|.......................|.......................|.......................|.......................|.......................|
.......................|.......................|.......................|.......................|.......................|.......................|.......................|.......................|.......................|.......................|
.......................|.......................|.......................|.......................|.......................|.......................|.......................|.......................|.......................|.......................|
.......................|.......................|.......................|.......................|.......................|.......................|.......................|.......................|.......................|.......................|
C-0....................|.......................|C-0....................|.......................|C-0....................|.......................|.......................|.......................|C-0....................|.......................|
A-2....................|.......................|G-3....................|.......................|A-2....8000............|.......................|.......................|.......................|C-5A000EA00............|.......................|
.......................|.......................|.......................|.......................|.......................|.......................|.......................|.......................|.......................|.......................|
.......................|.......................|.......................|.......................|.......................|.......................|.......................|.......................|.......................|.......................|
.......................|.......................|.......................|.......................|.......................|.......................|.......................|.......................|.......................|.......................|
.......................|.......................|.......................|.......................|.......................|.......................|.......................|.......................|.......................|.......................|
C-0....................|C-0....................|C-0....................|.......................|C-0....................|.......................|.......................|.......................|C-0....................|.......................|
A-1....................|A-4....0400............|E-3....................|.......................|A-2....80FF............|C-4C0..................|.......................|.......................|C-5A000EA00............|.......................|
.......................|.......................|.......................|.......................|.......................|.......................|.......................|.......................|.......................|.......................|
.......................|.......................|.......................|.......................|.......................|.......................|.......................|.......................|.......................|.......................|
.......................|.......................|.......................|.......................|.......................|.......................|.......................|.......................|.......................|.......................|
.......................|.......................|.......................|.......................|.......................|.......................|.......................|.......................|.......................|.......................|
.......................|.......................|.......................|.......................|C-0....................|.......................|.......................|.......................|C-0....................|.......................|
C-0....................|C-0....................|C-0....................|.......................|.......................|.......................|.......................|.......................|C-5A000EA00............|.......................|
.......................|.......................|.......................|.......................|.......................|.......................|.......................|.......................|.......................|.......................|
.......................|.......................|.......................|.......................|.......................|.......................|.......................|.......................|.......................|.......................|
.......................|.......................|.......................|.......................|.......................|.......................|.......................|.......................|.......................|.......................|
.......................|.......................|.......................|.......................|.......................|.......................|.......................|.......................|.......................|.......................|
.......................|.......................|.......................|C-0....................|.......................|.......................|.......................|.......................|C-0....................|.......................|
.......................|.......................|.......................|A-3....0400............|.......................|C-4C0..................|.......................|.......................|C-5A000EA00............|.......................|
.......................|.......................|.......................|.......................|.......................|.......................|.......................|.......................|.......................|.......................|
.......................|.......................|.......................|.......................|.......................|.......................|.......................|.......................|.......................|.......................|
.......................|.......................|.......................|.......................|.......................|.......................|.......................|.......................|.......................|.......................|
.......................|.......................|.......................|.......................|.......................|.......................|.......................|.......................|.......................|.......................|
.......................|.......................|.......................|.......................|.......................|.......................|.......................|.......................|C-0....................|.......................|
.......................|.......................|.......................|C-0....................|.......................|C-4C0..................|.......................|.......................|C-5A000EA00............|.......................|
.......................|.......................|.......................|.......................|.......................|.......................|.......................|.......................|.......................|.......................|
.......................|.......................|.......................|.......................|.......................|.......................|.......................|.......................|.......................|.......................|
.......................|.......................|.......................|.......................|.......................|.......................|.......................|.......................|.......................|.......................|
.......................|.......................|.......................|.......................|.......................|.......................|.......................|.......................|.......................|.......................|
.......................|.......................|.......................|.......................|.......................|.......................|.......................|.......................|C-0....................|.......................|
.......................|.......................|.......................|.......................|.......................|C-4C1..................|.......................|.......................|C-5A000EA00............|.......................|
.......................|.......................|.......................|.......................|.......................|.......................|.......................|.......................|.......................|.......................|
.......................|.......................|.......................|.......................|.......................|.......................|.......................|.......................|.......................|.......................|
.......................|.......................|.......................|.......................|.......................|.......................|.......................|.......................|.......................|.......................|
.......................|.......................|.......................|.......................|.......................|.......................|.......................|.......................|.......................|.......................|
.......................|.......................|.......................|.......................|.......................|.......................|.......................|.......................|C-0....................|.......................|
.......................|.......................|.......................|.......................|.......................|C-4C1..................|.......................|.......................|C-5A000EA00............|.......................|
.......................|.......................|.......................|.......................|.......................|.......................|.......................|.......................|.......................|.......................|
.......................|.......................|.......................|.......................|.......................|.......................|.......................|.......................|.......................|.......................|
.......................|.......................|.......................|.......................|.......................|.......................|.......................|.......................|.......................|.......................|
.......................|.......................|.......................|.......................|.......................|.......................|.......................|.......................|.......................|.......................|
.......................|.......................|.......................|.......................|.......................|.......................|.......................|.......................|C-0....................|.......................|
.......................|.......................|.......................|.......................|.......................|C-4C1..................|.......................|.......................|C-5A000EA00............|.......................|
.......................|.......................|.......................|.......................|.......................|.......................|.......................|.......................|.......................|.......................|
.......................|.......................|.......................|.......................|.......................|.......................|.......................|.......................|.......................|.......................|
.......................|.......................|.......................|.......................|.......................|.......................|.......................|.......................|.......................|.......................|
.......................|.......................|.......................|.......................|.......................|.......................|.......................|.......................|.......................|.......................|
.......................|.......................|.......................|.......................|.......................|.......................|.......................|.......................|C-0....................|.......................|
.......................|.......................|.......................|.......................|.......................|C-4C1..................|.......................|.......................|C-5A000EA00............|.......................|
.......................|.......................|.......................|.......................|.......................|.......................|.......................|.......................|.......................|.......................|
.......................|.......................|.......................|.......................|.......................|.......................|.......................|.......................|.......................|.......................|
.......................|.......................|.......................|.......................|.......................|.......................|.......................|.......................|.......................|.......................|
.......................|.......................|.......................|.......................|.......................|.......................|.......................|.......................|.......................|.......................|
.......................|.......................|.......................|.......................|.......................|.......................|.......................|.......................|C-0....................|.......................|
G-1....................|D-3....8000............|B-203..................|.......................|G-2....................|C-4C0..................|.......................|.......................|C-5A000EA00............|.......................|
.......................|.......................|.......................|.......................|.......................|.......................|.......................|.......................|.......................|.......................|
.......................|.......................|.......................|.......................|.......................|.......................|.......................|.......................|.......................|.......................|
.......................|.......................|.......................|D-303..................|.......................|.......................|.......................|.......................|.......................|.......................|
.......................|.......................|.......................|.......................|.......................|.......................|.......................|.......................|.......................|.......................|
.......................|.......................|.......................|.......................|C-0....................|.......................|.......................|.......................|C-0....................|.......................|
.......................|.......................|.......................|.......................|G-2....8000............|.......................|.......................|.......................|C-5A000EA00............|.......................|
.......................|.......................|.......................|.......................|.......................|.......................|.......................|.......................|.......................|.......................|
.......................|.......................|.......................|.......................|.......................|.......................|.......................|.......................|.......................|.......................|
.......................|.......................|.......................|.......................|.......................|.......................|.......................|.......................|.......................|.......................|
.......................|.......................|.......................|.......................|.......................|.......................|.......................|.......................|.......................|.......................|
C-0....................|C-0....................|C-0....................|.......................|C-0....................|.......................|.......................|.......................|C-0....................|.......................|
G-2....................|.......................|.......................|.......................|G-2....80FF............|C-4C0..................|.......................|.......................|C-5A000EA00............|.......................|
.......................|.......................|.......................|.......................|.......................|.......................|.......................|.......................|.......................|.......................|
.......................|.......................|.......................|C-0....................|.......................|.......................|.......................|.......................|.......................|.......................|
.......................|.......................|.......................|.......................|.......................|.......................|.......................|.......................|.......................|.......................|
.......................|.......................|.......................|.......................|.......................|.......................|.......................|.......................|.......................|.......................|
C-0....................|.......................|.......................|.......................|C-0....................|.......................|.......................|.......................|C-0....................|.......................|
.......................|D-3....................|B-2....................|.......................|G-2....8000............|C-4C0..................|.......................|.......................|C-5A000EA00............|.......................|
.......................|.......................|.......................|.......................|.......................|.......................|.......................|.......................|.......................|.......................|
.......................|.......................|.......................|.......................|.......................|.......................|.......................|.......................|.......................|.......................|
.......................|.......................|.......................|D-3....................|.......................|.......................|.......................|.......................|.......................|.......................|
.......................|.......................|.......................|.......................|.......................|.......................|.......................|.......................|.......................|.......................|
.......................|C-0....................|C-0....................|.......................|C-0....................|.......................|.......................|.......................|C-0....................|.......................|
G-1....................|.......................|.......................|.......................|G-2....80FF............|C-4C1..................|.......................|.......................|C-5A000EA00............|.......................|
.......................|.......................|.......................|.......................|.......................|.......................|.......................|.......................|.......................|.......................|
.......................|.......................|.......................|C-0....................|.......................|.......................|.......................|.......................|.......................|.......................|
.......................|.......................|.......................|.......................|.......................|.......................|.......................|.......................|.......................|.......................|
.......................|.......................|.......................|.......................|.......................|.......................|.......................|.......................|.......................|.......................|
.......................|.......................|.......................|.......................|C-0....................|.......................|.......................|.......................|C-0....................|.......................|
.......................|.......................|.......................|.......................|G-2....8000............|C-4C0..................|.......................|.......................|C-5A000EA00............|.......................|
.......................|.......................|.......................|.......................|.......................|.......................|.......................|.......................|.......................|.......................|
.......................|.......................|.......................|.......................|.......................|.......................|.......................|.......................|.......................|.......................|
.......................|.......................|.......................|.......................|.......................|.......................|.......................|.......................|.......................|.......................|
.......................|.......................|.......................|.......................|.......................|.......................|.......................|.......................|.......................|.......................|
C-0....................|.......................|.......................|.......................|C-0....................|.......................|.......................|.......................|C-0....................|.......................|
G-2....................|D-3....................|B-2....................|.......................|G-2....80FF............|C-4C0..................|.......................|.......................|C-5A000EA00............|.......................|
.......................|.......................|.......................|.......................|.......................|.......................|.......................|.......................|.......................|.......................|
.......................|.......................|.......................|.......................|.......................|.......................|.......................|.......................|.......................|.......................|
.......................|.......................|.......................|D-3....................|.......................|.......................|.......................|.......................|.......................|.......................|
.......................|.......................|.......................|.......................|.......................|.......................|.......................|.......................|.......................|.......................|
C-0....................|.......................|.......................|.......................|C-0....................|.......................|.......................|.......................|C-0....................|.......................|
.......................|.......................|.......................|.......................|G-2....8000............|C-4C0..................|.......................|.......................|C-5A000EA00............|.......................|
.......................|.......................|.......................|.......................|.......................|.......................|.......................|.......................|.......................|.......................|
.......................|.......................|.......................|.......................|.......................|.......................|.......................|.......................|.......................|.......................|
.......................|.......................|.......................|.......................|.......................|.......................|.......................|.......................|.......................|.......................|
.......................|.......................|.......................|.......................|.......................|.......................|.......................|.......................|.......................|.......................|
.......................|C-0....................|C-0....................|.......................|C-0....................|.......................|.......................|.......................|C-0....................|.......................|
G-1....................|.......................|.......................|.......................|G-2....80FF............|C-4C0..................|.......................|.......................|C-5A000EA00............|.......................|
.......................|.......................|.......................|.......................|.......................|.......................|.......................|.......................|.......................|.......................|
.......................|.......................|.......................|C-0....................|.......................|.......................|.......................|.......................|.......................|.......................|
.......................|.......................|.......................|.......................|.......................|.......................|.......................|.......................|.......................|.......................|
.......................|.......................|.......................|.......................|.......................|.......................|.......................|.......................|.......................|.......................|
.......................|.......................|.......................|.......................|C-0....................|.......................|.......................|.......................|C-0....................|.......................|
.......................|.......................|.......................|.......................|G-2....8000............|.......................|.......................|.......................|C-5A000EA00............|.......................|
.......................|.......................|.......................|.......................|.......................|.......................|.......................|.......................|.......................|.......................|
.......................|.......................|.......................|.......................|.......................|.......................|.......................|.......................|.......................|.......................|
.......................|.......................|.......................|.......................|.......................|.......................|.......................|.......................|.......................|.......................|
.......................|.......................|.......................|.......................|.......................|.......................|.......................|.......................|.......................|.......................|
C-0....................|.......................|.......................|.......................|C-0....................|.......................|.......................|.......................|C-0....................|.......................|
G-2....................|D-3....................|B-2....................|.......................|G-2....80FF............|C-4C0..................|.......................|.......................|C-5A000EA00............|.......................|
.......................|.......................|.......................|.......................|.......................|.......................|.......................|.......................|.......................|.......................|
.......................|.......................|.......................|.......................|.......................|.......................|.......................|.......................|.......................|.......................|
.......................|.......................|.......................|D-3....................|.......................|.......................|.......................|.......................|.......................|.......................|
org.tildearrow.furnace - Pattern Data (219)
0
.......................|.......................|.......................|.......................|.......................|.......................|.......................|.......................|.......................|.......................|
C-0....................|.......................|.......................|.......................|C-0....................|.......................|.......................|.......................|C-0....................|.......................|
.......................|.......................|.......................|.......................|G-2....8000............|C-4C0..................|.......................|.......................|C-5A000EA00............|.......................|
.......................|.......................|.......................|.......................|.......................|.......................|.......................|.......................|.......................|.......................|
.......................|.......................|.......................|.......................|.......................|.......................|.......................|.......................|.......................|.......................|
.......................|.......................|.......................|.......................|.......................|.......................|.......................|.......................|.......................|.......................|
.......................|.......................|.......................|.......................|.......................|.......................|.......................|.......................|.......................|.......................|
.......................|C-0....................|C-0....................|.......................|C-0....................|.......................|.......................|.......................|C-0....................|.......................|
G-1....................|B-2....8080............|B-2....................|.......................|G-2....80FF............|C-4C1..................|.......................|.......................|C-5A000EA00............|.......................|
.......................|.......................|.......................|.......................|.......................|.......................|.......................|.......................|.......................|.......................|
.......................|.......................|.......................|C-0....................|.......................|.......................|.......................|.......................|.......................|.......................|
.......................|.......................|.......................|.......................|.......................|.......................|.......................|.......................|.......................|.......................|
.......................|.......................|.......................|.......................|.......................|.......................|.......................|.......................|.......................|.......................|
C-0....................|C-0....................|C-0....................|.......................|C-0....................|.......................|.......................|.......................|C-0....................|.......................|
G-2....................|G-2....................|G-2....................|.......................|G-2....8000............|C-4C0..................|.......................|.......................|C-5A000EA00............|.......................|
.......................|.......................|.......................|.......................|.......................|.......................|.......................|.......................|.......................|.......................|
.......................|.......................|.......................|.......................|.......................|.......................|.......................|.......................|.......................|.......................|
.......................|.......................|.......................|.......................|.......................|.......................|.......................|.......................|.......................|.......................|
.......................|.......................|.......................|.......................|.......................|.......................|.......................|.......................|.......................|.......................|
C-0....................|C-0....................|C-0....................|.......................|C-0....................|.......................|.......................|.......................|C-0....................|.......................|
G-1....................|C-3....................|C-3....................|.......................|G-2....80FF............|C-4C0..................|.......................|.......................|C-5A000EA00............|.......................|
.......................|.......................|.......................|.......................|.......................|.......................|.......................|.......................|.......................|.......................|
.......................|.......................|.......................|.......................|.......................|.......................|.......................|.......................|.......................|.......................|
.......................|.......................|.......................|.......................|.......................|.......................|.......................|.......................|.......................|.......................|
.......................|.......................|.......................|.......................|.......................|.......................|.......................|.......................|.......................|.......................|
C-0....................|C-0....................|C-0....................|.......................|C-0....................|.......................|.......................|.......................|C-0....................|.......................|
G-2....................|A-2....................|A-2....................|.......................|G-2....8000............|C-4C0..................|.......................|.......................|C-5A000EA00............|.......................|
.......................|.......................|.......................|.......................|.......................|.......................|.......................|.......................|.......................|.......................|
.......................|.......................|.......................|.......................|.......................|.......................|.......................|.......................|.......................|.......................|
.......................|.......................|.......................|.......................|.......................|.......................|.......................|.......................|.......................|.......................|
.......................|.......................|.......................|.......................|.......................|.......................|.......................|.......................|.......................|.......................|
C-0....................|C-0....................|C-0....................|.......................|C-0....................|.......................|.......................|.......................|C-0....................|.......................|
G-1....................|D-3....8000............|B-2....................|.......................|G-2....80FF............|C-4C0..................|.......................|.......................|C-5A000EA00............|.......................|
.......................|.......................|.......................|.......................|.......................|.......................|.......................|.......................|.......................|.......................|
.......................|.......................|.......................|.......................|.......................|.......................|.......................|.......................|.......................|.......................|
.......................|.......................|.......................|D-3....................|.......................|.......................|.......................|.......................|.......................|.......................|
.......................|.......................|.......................|.......................|.......................|.......................|.......................|.......................|.......................|.......................|
.......................|.......................|.......................|.......................|C-0....................|.......................|.......................|.......................|C-0....................|.......................|
.......................|.......................|.......................|.......................|G-2....8000............|.......................|.......................|.......................|C-5A000EA00............|.......................|
.......................|.......................|.......................|.......................|.......................|.......................|.......................|.......................|.......................|.......................|
.......................|.......................|.......................|.......................|.......................|.......................|.......................|.......................|.......................|.......................|
.......................|.......................|.......................|.......................|.......................|.......................|.......................|.......................|.......................|.......................|
.......................|.......................|.......................|.......................|.......................|.......................|.......................|.......................|.......................|.......................|
C-0....................|C-0....................|C-0....................|.......................|C-0....................|.......................|.......................|.......................|C-0....................|.......................|
G-2....................|.......................|.......................|.......................|G-2....80FF............|C-4C0..................|.......................|.......................|C-5A000EA00............|.......................|
.......................|.......................|.......................|.......................|.......................|.......................|.......................|.......................|.......................|.......................|
.......................|.......................|.......................|C-0....................|.......................|.......................|.......................|.......................|.......................|.......................|
.......................|.......................|.......................|.......................|.......................|.......................|.......................|.......................|.......................|.......................|
.......................|.......................|.......................|.......................|.......................|.......................|.......................|.......................|.......................|.......................|
C-0....................|.......................|.......................|.......................|C-0....................|.......................|.......................|.......................|C-0....................|.......................|
.......................|D-3....................|B-2....................|.......................|G-2....8000............|C-4C0..................|.......................|.......................|C-5A000EA00............|.......................|
.......................|.......................|.......................|.......................|.......................|.......................|.......................|.......................|.......................|.......................|
.......................|.......................|.......................|.......................|.......................|.......................|.......................|.......................|.......................|.......................|
.......................|.......................|.......................|D-3....................|.......................|.......................|.......................|.......................|.......................|.......................|
.......................|.......................|.......................|.......................|.......................|.......................|.......................|.......................|.......................|.......................|
.......................|C-0....................|C-0....................|.......................|C-0....................|.......................|.......................|.......................|C-0....................|.......................|
G-1....................|.......................|.......................|.......................|G-2....80FF............|C-4C1..................|.......................|.......................|C-5A000EA00............|.......................|
.......................|.......................|.......................|.......................|.......................|.......................|.......................|.......................|.......................|.......................|
.......................|.......................|.......................|C-0....................|.......................|.......................|.......................|.......................|.......................|.......................|
.......................|.......................|.......................|.......................|.......................|.......................|.......................|.......................|.......................|.......................|
.......................|.......................|.......................|.......................|.......................|.......................|.......................|.......................|.......................|.......................|
.......................|.......................|.......................|.......................|C-0....................|.......................|.......................|.......................|C-0....................|.......................|
.......................|.......................|.......................|.......................|G-2....8000............|C-4C0..................|.......................|.......................|C-5A000EA00............|.......................|
.......................|.......................|.......................|.......................|.......................|.......................|.......................|.......................|.......................|.......................|
.......................|.......................|.......................|.......................|.......................|.......................|.......................|.......................|.......................|.......................|
.......................|.......................|.......................|.......................|.......................|.......................|.......................|.......................|.......................|.......................|
.......................|.......................|.......................|.......................|.......................|.......................|.......................|.......................|.......................|.......................|
C-0....................|.......................|.......................|.......................|C-0....................|.......................|.......................|.......................|C-0....................|.......................|
G-2....................|D-3....................|B-2....................|.......................|G-2....80FF............|C-4C0..................|.......................|.......................|C-5A000EA00............|.......................|
.......................|.......................|.......................|.......................|.......................|.......................|.......................|.......................|.......................|.......................|
.......................|.......................|.......................|.......................|.......................|.......................|.......................|.......................|.......................|.......................|
.......................|.......................|.......................|D-3....................|.......................|.......................|.......................|.......................|.......................|.......................|
.......................|.......................|.......................|.......................|.......................|.......................|.......................|.......................|.......................|.......................|
C-0....................|.......................|.......................|.......................|C-0....................|.......................|.......................|.......................|C-0....................|.......................|
.......................|.......................|.......................|.......................|G-2....8000............|C-4C0..................|.......................|.......................|C-5A000EA00............|.......................|
.......................|.......................|.......................|.......................|.......................|.......................|.......................|.......................|.......................|.......................|
.......................|.......................|.......................|.......................|.......................|.......................|.......................|.......................|.......................|.......................|
.......................|.......................|.......................|.......................|.......................|.......................|.......................|.......................|.......................|.......................|
.......................|.......................|.......................|.......................|.......................|.......................|.......................|.......................|.......................|.......................|
.......................|C-0....................|C-0....................|.......................|C-0....................|.......................|.......................|.......................|C-0....................|.......................|
F-1....................|F-3....................|C-3....................|.......................|F-2....8080............|C-4C0..................|.......................|.......................|C-5A000EA00............|.......................|
.......................|.......................|.......................|.......................|.......................|.......................|.......................|.......................|.......................|.......................|
.......................|.......................|.......................|C-0....................|.......................|.......................|.......................|.......................|.......................|.......................|
.......................|.......................|.......................|F-3....................|.......................|.......................|.......................|.......................|.......................|.......................|
.......................|.......................|.......................|.......................|.......................|.......................|.......................|.......................|.......................|.......................|
.......................|C-0....................|C-0....................|.......................|C-0....................|.......................|.......................|.......................|C-0....................|.......................|
.......................|D-3....................|.......................|.......................|F-2....................|.......................|.......................|.......................|C-5A000EA00............|.......................|
.......................|.......................|.......................|.......................|.......................|.......................|.......................|.......................|.......................|.......................|
.......................|.......................|.......................|C-0....................|.......................|.......................|.......................|.......................|.......................|.......................|
.......................|.......................|.......................|D-3....................|.......................|.......................|.......................|.......................|.......................|.......................|
.......................|.......................|.......................|.......................|.......................|.......................|.......................|.......................|.......................|.......................|
C-0....................|C-0....................|.......................|.......................|C-0....................|.......................|.......................|.......................|C-0....................|.......................|
F-2....................|F-3....................|C-3....................|.......................|F-2....................|C-4C0..................|.......................|.......................|C-5A000EA00............|.......................|
.......................|.......................|.......................|.......................|.......................|.......................|.......................|.......................|.......................|.......................|
.......................|.......................|.......................|C-0....................|.......................|.......................|.......................|.......................|.......................|.......................|
.......................|.......................|.......................|F-3....................|.......................|.......................|.......................|.......................|.......................|.......................|
.......................|.......................|.......................|.......................|.......................|.......................|.......................|.......................|.......................|.......................|
C-0....................|.......................|.......................|.......................|C-0....................|.......................|.......................|.......................|C-0....................|.......................|
F-2....................|.......................|.......................|.......................|F-2....................|C-4C0..................|.......................|.......................|C-5A000EA00............|.......................|
.......................|.......................|.......................|.......................|.......................|.......................|.......................|.......................|.......................|.......................|
.......................|.......................|.......................|.......................|.......................|.......................|.......................|.......................|.......................|.......................|
.......................|.......................|.......................|.......................|.......................|.......................|.......................|.......................|.......................|.......................|
.......................|.......................|.......................|.......................|.......................|.......................|.......................|.......................|.......................|.......................|
C-0....................|C-0....................|C-0....................|.......................|C-0....................|.......................|.......................|.......................|C-0....................|.......................|
C-2....................|E-3....................|C-3....................|.......................|C-2....................|C-4C1..................|.......................|.......................|C-5A000EA00............|.......................|
.......................|.......................|.......................|.......................|.......................|.......................|.......................|.......................|.......................|.......................|
.......................|.......................|.......................|C-0....................|.......................|.......................|.......................|.......................|.......................|.......................|
.......................|.......................|.......................|E-3....................|.......................|.......................|.......................|.......................|.......................|.......................|
.......................|.......................|.......................|.......................|.......................|.......................|.......................|.......................|.......................|.......................|
C-0....................|C-0....................|C-0....................|.......................|C-0....................|.......................|.......................|.......................|C-0....................|.......................|
C-3....................|E-3....................|C-3....................|.......................|C-2....................|C-4C0..................|.......................|.......................|C-5A000EA00............|.......................|
.......................|.......................|.......................|.......................|.......................|.......................|.......................|.......................|.......................|.......................|
C-0....................|.......................|.......................|C-0....................|.......................|.......................|.......................|.......................|.......................|.......................|
.......................|.......................|.......................|E-3....................|.......................|.......................|.......................|.......................|.......................|.......................|
.......................|.......................|.......................|.......................|.......................|.......................|.......................|.......................|.......................|.......................|
.......................|C-0....................|C-0....................|.......................|C-0....................|.......................|.......................|.......................|C-0....................|.......................|
C-3....................|.......................|.......................|.......................|C-2....................|C-4C0..................|.......................|.......................|C-5A000EA00............|.......................|
.......................|.......................|.......................|.......................|.......................|.......................|.......................|.......................|.......................|.......................|
C-0....................|.......................|.......................|C-0....................|.......................|.......................|.......................|.......................|.......................|.......................|
.......................|.......................|.......................|.......................|.......................|.......................|.......................|.......................|.......................|.......................|
.......................|.......................|.......................|.......................|.......................|.......................|.......................|.......................|.......................|.......................|
.......................|.......................|.......................|.......................|C-0....................|.......................|.......................|.......................|C-0....................|.......................|
C-3....................|E-3....................|C-3....................|.......................|C-2....................|C-4C0..................|.......................|.......................|C-5A000EA00............|.......................|
.......................|.......................|.......................|.......................|.......................|.......................|.......................|.......................|.......................|.......................|
C-0....................|.......................|.......................|.......................|.......................|.......................|.......................|.......................|.......................|.......................|
.......................|.......................|.......................|E-3....................|.......................|.......................|.......................|.......................|.......................|.......................|
.......................|.......................|.......................|.......................|.......................|.......................|.......................|.......................|.......................|.......................|
.......................|C-0....................|C-0....................|.......................|C-0....................|.......................|.......................|.......................|C-0....................|.......................|
G-1....................|D-3....................|B-2....................|.......................|G-2....80FF............|C-4C0..................|.......................|.......................|C-5A000EA00............|.......................|
.......................|.......................|.......................|.......................|.......................|.......................|.......................|.......................|.......................|.......................|
.......................|.......................|.......................|C-0....................|.......................|.......................|.......................|.......................|.......................|.......................|
.......................|.......................|.......................|D-3....................|.......................|.......................|.......................|.......................|.......................|.......................|
.......................|.......................|.......................|.......................|.......................|.......................|.......................|.......................|.......................|.......................|
.......................|.......................|.......................|.......................|C-0....................|.......................|.......................|.......................|C-0....................|.......................|
.......................|.......................|.......................|.......................|G-2....8000............|.......................|.......................|.......................|C-5A000EA00............|.......................|
.......................|.......................|.......................|.......................|.......................|.......................|.......................|.......................|.......................|.......................|
.......................|.......................|.......................|.......................|.......................|.......................|.......................|.......................|.......................|.......................|
.......................|.......................|.......................|.......................|.......................|.......................|.......................|.......................|.......................|.......................|
.......................|.......................|.......................|.......................|.......................|.......................|.......................|.......................|.......................|.......................|
C-0....................|C-0....................|C-0....................|.......................|C-0....................|.......................|.......................|.......................|C-0....................|.......................|
G-2....................|.......................|.......................|.......................|G-2....80FF............|C-4C0..................|.......................|.......................|C-5A000EA00............|.......................|
.......................|.......................|.......................|.......................|.......................|.......................|.......................|.......................|.......................|.......................|
.......................|.......................|.......................|C-0....................|.......................|.......................|.......................|.......................|.......................|.......................|
.......................|.......................|.......................|.......................|.......................|.......................|.......................|.......................|.......................|.......................|
.......................|.......................|.......................|.......................|.......................|.......................|.......................|.......................|.......................|.......................|
C-0....................|.......................|.......................|.......................|C-0....................|.......................|.......................|.......................|C-0....................|.......................|
.......................|D-3....................|B-2....................|.......................|G-2....8000............|C-4C0..................|.......................|.......................|C-5A000EA00............|.......................|
.......................|.......................|.......................|.......................|.......................|.......................|.......................|.......................|.......................|.......................|
.......................|.......................|.......................|.......................|.......................|.......................|.......................|.......................|.......................|.......................|
.......................|.......................|.......................|D-3....................|.......................|.......................|.......................|.......................|.......................|.......................|
.......................|.......................|.......................|.......................|.......................|.......................|.......................|.......................|.......................|.......................|
.......................|C-0....................|C-0....................|.......................|C-0....................|.......................|.......................|.......................|C-0....................|.......................|
G-1....................|.......................|.......................|.......................|G-2....80FF............|C-4C1..................|.......................|.......................|C-5A000EA00............|.......................|
.......................|.......................|.......................|.......................|.......................|.......................|.......................|.......................|.......................|.......................|
.......................|.......................|.......................|C-0....................|.......................|.......................|.......................|.......................|.......................|.......................|
.......................|.......................|.......................|.......................|.......................|.......................|.......................|.......................|.......................|.......................|
.......................|.......................|.......................|.......................|.......................|.......................|.......................|.......................|.......................|.......................|
.......................|.......................|.......................|.......................|C-0....................|.......................|.......................|.......................|C-0....................|.......................|
.......................|.......................|.......................|.......................|G-2....8000............|C-4C0..................|.......................|.......................|C-5A000EA00............|.......................|
.......................|.......................|.......................|.......................|.......................|.......................|.......................|.......................|.......................|.......................|
.......................|.......................|.......................|.......................|.......................|.......................|.......................|.......................|.......................|.......................|
.......................|.......................|.......................|.......................|.......................|.......................|.......................|.......................|.......................|.......................|
.......................|.......................|.......................|.......................|.......................|.......................|.......................|.......................|.......................|.......................|
C-0....................|.......................|.......................|.......................|C-0....................|.......................|.......................|.......................|C-0....................|.......................|
G-2....................|D-3....................|B-2....................|.......................|G-2....80FF............|C-4C0..................|.......................|.......................|C-5A000EA00............|.......................|
.......................|.......................|.......................|.......................|.......................|.......................|.......................|.......................|.......................|.......................|
.......................|.......................|.......................|.......................|.......................|.......................|.......................|.......................|.......................|.......................|
.......................|.......................|.......................|D-3....................|.......................|.......................|.......................|.......................|.......................|.......................|
.......................|.......................|.......................|.......................|.......................|.......................|.......................|.......................|.......................|.......................|
C-0....................|.......................|.......................|.......................|C-0....................|.......................|.......................|.......................|C-0....................|.......................|
.......................|.......................|.......................|.......................|G-2....8000............|C-4C0..................|.......................|.......................|C-5A000EA00............|.......................|
.......................|.......................|.......................|.......................|.......................|.......................|.......................|.......................|.......................|.......................|
.......................|.......................|.......................|.......................|.......................|.......................|.......................|.......................|.......................|.......................|
.......................|.......................|.......................|.......................|.......................|.......................|.......................|.......................|.......................|.......................|
.......................|.......................|.......................|.......................|.......................|.......................|.......................|.......................|.......................|.......................|
.......................|C-0....................|C-0....................|.......................|C-0....................|.......................|.......................|.......................|C-0....................|.......................|
G-1....................|.......................|.......................|.......................|G-2....80FF............|C-4C0..................|.......................|.......................|C-5A000EA00............|.......................|
.......................|.......................|.......................|.......................|.......................|.......................|.......................|.......................|.......................|.......................|
.......................|.......................|.......................|C-0....................|.......................|.......................|.......................|.......................|.......................|.......................|
.......................|.......................|.......................|.......................|.......................|.......................|.......................|.......................|.......................|.......................|
.......................|.......................|.......................|.......................|.......................|.......................|.......................|.......................|.......................|.......................|
.......................|.......................|.......................|.......................|C-0....................|.......................|.......................|.......................|C-0....................|.......................|
.......................|.......................|.......................|.......................|G-2....8000............|.......................|.......................|.......................|C-5A000EA00............|.......................|
.......................|.......................|.......................|.......................|.......................|.......................|.......................|.......................|.......................|.......................|
.......................|.......................|.......................|.......................|.......................|.......................|.......................|.......................|.......................|.......................|
.......................|.......................|.......................|.......................|.......................|.......................|.......................|.......................|.......................|.......................|
.......................|.......................|.......................|.......................|.......................|.......................|.......................|.......................|.......................|.......................|
C-0....................|.......................|.......................|.......................|C-0....................|.......................|.......................|.......................|C-0....................|.......................|
G-2....................|D-3....................|B-2....................|.......................|G-2....80FF............|C-4C0..................|.......................|.......................|C-5A000EA00............|.......................|
.......................|.......................|.......................|.......................|.......................|.......................|.......................|.......................|.......................|.......................|
.......................|.......................|.......................|.......................|.......................|.......................|.......................|.......................|.......................|.......................|
.......................|.......................|.......................|D-3....................|.......................|.......................|.......................|.......................|.......................|.......................|
.......................|.......................|.......................|.......................|.......................|.......................|.......................|.......................|.......................|.......................|
C-0....................|.......................|.......................|.......................|C-0....................|.......................|.......................|.......................|C-0....................|.......................|
.......................|.......................|.......................|.......................|G-2....8000............|C-4C0..................|.......................|.......................|C-5A000EA00............|.......................|
.......................|.......................|.......................|.......................|.......................|.......................|.......................|.......................|.......................|.......................|
.......................|.......................|.......................|.......................|.......................|.......................|.......................|.......................|.......................|.......................|
.......................|.......................|.......................|.......................|.......................|.......................|.......................|.......................|.......................|.......................|
.......................|.......................|.......................|.......................|.......................|.......................|.......................|.......................|.......................|.......................|
.......................|C-0....................|C-0....................|.......................|C-0....................|.......................|.......................|.......................|C-0....................|.......................|
G-1....................|B-2....8080............|B-2....................|.......................|G-2....80FF............|C-4C1..................|.......................|.......................|C-5A000EA00............|.......................|
.......................|.......................|.......................|.......................|.......................|.......................|.......................|.......................|.......................|.......................|
.......................|.......................|.......................|C-0....................|.......................|.......................|.......................|.......................|.......................|.......................|
.......................|.......................|.......................|.......................|.......................|.......................|.......................|.......................|.......................|.......................|
.......................|.......................|.......................|.......................|.......................|.......................|.......................|.......................|.......................|.......................|
C-0....................|C-0....................|C-0....................|.......................|C-0....................|.......................|.......................|.......................|C-0....................|.......................|
G-2....................|G-2....................|G-2....................|.......................|G-2....8000............|C-4C0..................|.......................|.......................|C-5A000EA00............|.......................|
.......................|.......................|.......................|.......................|.......................|.......................|.......................|.......................|.......................|.......................|
.......................|.......................|.......................|.......................|.......................|.......................|.......................|.......................|.......................|.......................|
.......................|.......................|.......................|.......................|.......................|.......................|.......................|.......................|.......................|.......................|
.......................|.......................|.......................|.......................|.......................|.......................|.......................|.......................|.......................|.......................|
C-0....................|C-0....................|C-0....................|.......................|C-0....................|.......................|.......................|.......................|C-0....................|.......................|
G-1....................|C-3....................|C-3....................|.......................|G-2....80FF............|C-4C0..................|.......................|.......................|C-5A000EA00............|.......................|
.......................|.......................|.......................|.......................|.......................|.......................|.......................|.......................|.......................|.......................|
.......................|.......................|.......................|.......................|.......................|.......................|.......................|.......................|.......................|.......................|
.......................|.......................|.......................|.......................|.......................|.......................|.......................|.......................|.......................|.......................|
.......................|.......................|.......................|.......................|.......................|.......................|.......................|.......................|.......................|.......................|
C-0....................|C-0....................|C-0....................|.......................|C-0....................|.......................|.......................|.......................|C-0....................|.......................|
G-2....................|A-2....................|A-2....................|.......................|G-2....8000............|C-4C0..................|.......................|.......................|C-5A000EA00............|.......................|
.......................|.......................|.......................|.......................|.......................|.......................|.......................|.......................|.......................|.......................|
.......................|.......................|.......................|.......................|.......................|.......................|.......................|.......................|.......................|.......................|
.......................|.......................|.......................|.......................|.......................|.......................|.......................|.......................|.......................|.......................|
.......................|.......................|.......................|.......................|.......................|.......................|.......................|.......................|.......................|.......................|
C-0....................|C-0....................|C-0....................|.......................|C-0....................|.......................|.......................|.......................|C-0....................|.......................|
G-1....................|D-3....8000............|B-2....................|.......................|G-2....80FF............|C-4C0..................|.......................|.......................|C-5A000EA00............|.......................|
.......................|.......................|.......................|.......................|.......................|.......................|.......................|.......................|.......................|.......................|
.......................|.......................|.......................|.......................|.......................|.......................|.......................|.......................|.......................|.......................|
.......................|.......................|.......................|D-3....................|.......................|.......................|.......................|.......................|.......................|.......................|
.......................|.......................|.......................|.......................|.......................|.......................|.......................|.......................|.......................|.......................|
.......................|.......................|.......................|.......................|C-0....................|.......................|.......................|.......................|C-0....................|.......................|
.......................|.......................|.......................|.......................|G-2....8000............|.......................|.......................|.......................|C-5A000EA00............|.......................|
.......................|.......................|.......................|.......................|.......................|.......................|.......................|.......................|.......................|.......................|
.......................|.......................|.......................|.......................|.......................|.......................|.......................|.......................|.......................|.......................|
.......................|.......................|.......................|.......................|.......................|.......................|.......................|.......................|.......................|.......................|
.......................|.......................|.......................|.......................|.......................|.......................|.......................|.......................|.......................|.......................|
C-0....................|C-0....................|C-0....................|.......................|C-0....................|.......................|.......................|.......................|C-0....................|.......................|
G-2....................|.......................|.......................|.......................|G-2....80FF............|C-4C0..................|.......................|.......................|C-5A000EA00............|.......................|
.......................|.......................|.......................|.......................|.......................|.......................|.......................|.......................|.......................|.......................|
.......................|.......................|.......................|C-0....................|.......................|.......................|.......................|.......................|.......................|.......................|
.......................|.......................|.......................|.......................|.......................|.......................|.......................|.......................|.......................|.......................|
.......................|.......................|.......................|.......................|.......................|.......................|.......................|.......................|.......................|.......................|
C-0....................|.......................|.......................|.......................|C-0....................|.......................|.......................|.......................|C-0....................|.......................|
.......................|D-3....................|B-2....................|.......................|G-2....8000............|C-4C0..................|.......................|.......................|C-5A000EA00............|.......................|
.......................|.......................|.......................|.......................|.......................|.......................|.......................|.......................|.......................|.......................|
.......................|.......................|.......................|.......................|.......................|.......................|.......................|.......................|.......................|.......................|
.......................|.......................|.......................|D-3....................|.......................|.......................|.......................|.......................|.......................|.......................|
.......................|.......................|.......................|.......................|.......................|.......................|.......................|.......................|.......................|.......................|
.......................|C-0....................|C-0....................|.......................|C-0....................|.......................|.......................|.......................|C-0....................|.......................|
G-1....................|.......................|.......................|.......................|G-2....80FF............|C-4C1..................|.......................|.......................|C-5A000EA00............|.......................|
.......................|.......................|.......................|.......................|.......................|.......................|.......................|.......................|.......................|.......................|
.......................|.......................|.......................|C-0....................|.......................|.......................|.......................|.......................|.......................|.......................|
.......................|.......................|.......................|.......................|.......................|.......................|.......................|.......................|.......................|.......................|
.......................|.......................|.......................|.......................|.......................|.......................|.......................|.......................|.......................|.......................|
.......................|.......................|.......................|.......................|C-0....................|.......................|.......................|.......................|C-0....................|.......................|
.......................|.......................|.......................|.......................|G-2....8000............|C-4C0..................|.......................|.......................|C-5A000EA00............|.......................|
.......................|.......................|.......................|.......................|.......................|.......................|.......................|.......................|.......................|.......................|
org.tildearrow.furnace - Pattern Data (219)
0
.......................|.......................|.......................|.......................|.......................|.......................|.......................|.......................|.......................|.......................|
.......................|.......................|.......................|.......................|.......................|.......................|.......................|.......................|.......................|.......................|
.......................|.......................|.......................|.......................|.......................|.......................|.......................|.......................|.......................|.......................|
C-0....................|.......................|.......................|.......................|C-0....................|.......................|.......................|.......................|C-0....................|.......................|
G-2....................|D-3....................|B-2....................|.......................|G-2....80FF............|C-4C0..................|.......................|.......................|C-5A000EA00............|.......................|
.......................|.......................|.......................|.......................|.......................|.......................|.......................|.......................|.......................|.......................|
.......................|.......................|.......................|.......................|.......................|.......................|.......................|.......................|.......................|.......................|
.......................|.......................|.......................|D-3....................|.......................|.......................|.......................|.......................|.......................|.......................|
.......................|.......................|.......................|.......................|.......................|.......................|.......................|.......................|.......................|.......................|
C-0....................|.......................|.......................|.......................|C-0....................|.......................|.......................|.......................|C-0....................|.......................|
.......................|.......................|.......................|.......................|G-2....8000............|C-4C0..................|.......................|.......................|C-5A000EA00............|.......................|
.......................|.......................|.......................|.......................|.......................|.......................|.......................|.......................|.......................|.......................|
.......................|.......................|.......................|.......................|.......................|.......................|.......................|.......................|.......................|.......................|
.......................|.......................|.......................|.......................|.......................|.......................|.......................|.......................|.......................|.......................|
.......................|.......................|.......................|.......................|.......................|.......................|.......................|.......................|.......................|.......................|
.......................|C-0....................|C-0....................|.......................|C-0....................|.......................|.......................|.......................|C-0....................|.......................|
F-1....................|F-3....................|C-3....................|.......................|F-2....8080............|C-4C0..................|.......................|.......................|C-5A000EA00............|.......................|
.......................|.......................|.......................|.......................|.......................|.......................|.......................|.......................|.......................|.......................|
.......................|.......................|.......................|C-0....................|.......................|.......................|.......................|.......................|.......................|.......................|
.......................|.......................|.......................|F-3....................|.......................|.......................|.......................|.......................|.......................|.......................|
.......................|.......................|.......................|.......................|.......................|.......................|.......................|.......................|.......................|.......................|
.......................|C-0....................|C-0....................|.......................|C-0....................|.......................|.......................|.......................|C-0....................|.......................|
.......................|D-3....................|.......................|.......................|F-2....................|.......................|.......................|.......................|C-5A000EA00............|.......................|
.......................|.......................|.......................|.......................|.......................|.......................|.......................|.......................|.......................|.......................|
.......................|.......................|.......................|C-0....................|.......................|.......................|.......................|.......................|.......................|.......................|
.......................|.......................|.......................|D-3....................|.......................|.......................|.......................|.......................|.......................|.......................|
.......................|.......................|.......................|.......................|.......................|.......................|.......................|.......................|.......................|.......................|
C-0....................|C-0....................|.......................|.......................|C-0....................|.......................|.......................|.......................|C-0....................|.......................|
F-2....................|F-3....................|C-3....................|.......................|F-2....................|C-4C0..................|.......................|.......................|C-5A000EA00............|.......................|
.......................|.......................|.......................|.......................|.......................|.......................|.......................|.......................|.......................|.......................|
.......................|.......................|.......................|C-0....................|.......................|.......................|.......................|.......................|.......................|.......................|
.......................|.......................|.......................|F-3....................|.......................|.......................|.......................|.......................|.......................|.......................|
.......................|.......................|.......................|.......................|.......................|.......................|.......................|.......................|.......................|.......................|
C-0....................|.......................|.......................|.......................|C-0....................|.......................|.......................|.......................|C-0....................|.......................|
F-2....................|.......................|.......................|.......................|F-2....................|C-4C0..................|.......................|.......................|C-5A000EA00............|.......................|
.......................|.......................|.......................|.......................|.......................|.......................|.......................|.......................|.......................|.......................|
.......................|.......................|.......................|.......................|.......................|.......................|.......................|.......................|.......................|.......................|
.......................|.......................|.......................|.......................|.......................|.......................|.......................|.......................|.......................|.......................|
.......................|.......................|.......................|.......................|.......................|.......................|.......................|.......................|.......................|.......................|
C-0....................|C-0....................|C-0....................|.......................|C-0....................|.......................|.......................|.......................|C-0....................|.......................|
C-2....................|E-3....................|C-3....................|.......................|C-2....................|C-4C1..................|.......................|.......................|C-5A000EA00............|.......................|
.......................|.......................|.......................|.......................|.......................|.......................|.......................|.......................|.......................|.......................|
.......................|.......................|.......................|C-0....................|.......................|.......................|.......................|.......................|.......................|.......................|
.......................|.......................|.......................|E-3....................|.......................|.......................|.......................|.......................|.......................|.......................|
.......................|.......................|.......................|.......................|.......................|.......................|.......................|.......................|.......................|.......................|
C-0....................|C-0....................|C-0....................|.......................|C-0....................|.......................|.......................|.......................|C-0....................|.......................|
C-3....................|E-3....................|C-3....................|.......................|C-2....................|C-4C0..................|.......................|.......................|C-5A000EA00............|.......................|
.......................|.......................|.......................|.......................|.......................|.......................|.......................|.......................|.......................|.......................|
C-0....................|.......................|.......................|C-0....................|.......................|.......................|.......................|.......................|.......................|.......................|
.......................|.......................|.......................|E-3....................|.......................|.......................|.......................|.......................|.......................|.......................|
.......................|.......................|.......................|.......................|.......................|.......................|.......................|.......................|.......................|.......................|
.......................|C-0....................|C-0....................|.......................|C-0....................|.......................|.......................|.......................|C-0....................|.......................|
C-3....................|.......................|.......................|.......................|C-2....................|C-4C1..................|.......................|.......................|C-5A000EA00............|.......................|
.......................|.......................|.......................|.......................|.......................|.......................|.......................|.......................|.......................|.......................|
C-0....................|.......................|.......................|C-0....................|.......................|.......................|.......................|.......................|.......................|.......................|
.......................|.......................|.......................|.......................|.......................|.......................|.......................|.......................|.......................|.......................|
.......................|.......................|.......................|.......................|.......................|.......................|.......................|.......................|.......................|.......................|
.......................|.......................|.......................|.......................|C-0....................|.......................|.......................|.......................|C-0....................|.......................|
C-3....................|E-3....................|C-3....................|.......................|C-2....................|C-4C1..................|.......................|.......................|C-5A000EA00............|.......................|
.......................|.......................|.......................|.......................|.......................|.......................|.......................|.......................|.......................|.......................|
C-0....................|.......................|.......................|.......................|.......................|.......................|.......................|.......................|.......................|.......................|
.......................|.......................|.......................|E-3....................|.......................|.......................|.......................|.......................|.......................|.......................|
.......................|.......................|.......................|.......................|.......................|.......................|.......................|.......................|.......................|.......................|
.......................|C-0....................|C-0....................|.......................|C-0....................|.......................|.......................|.......................|C-0....................|.......................|
D-2....................|D-3....................|A-2....................|.......................|D-2....80FF............|C-4C0..................|.......................|.......................|C-5A000EA00............|.......................|
.......................|.......................|.......................|.......................|.......................|.......................|.......................|.......................|.......................|.......................|
.......................|.......................|.......................|C-0....................|.......................|.......................|.......................|.......................|.......................|.......................|
.......................|.......................|.......................|D-3....................|.......................|.......................|.......................|.......................|.......................|.......................|
.......................|.......................|.......................|.......................|.......................|.......................|.......................|.......................|.......................|.......................|
.......................|.......................|.......................|.......................|C-0....................|.......................|.......................|.......................|C-0....................|.......................|
.......................|.......................|.......................|.......................|D-2....8000............|.......................|.......................|.......................|C-5A000EA00............|.......................|
.......................|.......................|.......................|.......................|.......................|.......................|.......................|.......................|.......................|.......................|
.......................|.......................|.......................|.......................|.......................|.......................|.......................|.......................|.......................|.......................|
.......................|.......................|.......................|.......................|.......................|.......................|.......................|.......................|.......................|.......................|
.......................|.......................|.......................|.......................|.......................|.......................|.......................|.......................|.......................|.......................|
C-0....................|C-0....................|C-0....................|.......................|C-0....................|.......................|.......................|.......................|C-0....................|.......................|
D-3....................|.......................|.......................|.......................|D-2....80FF............|C-4C0..................|.......................|.......................|C-5A000EA00............|.......................|
.......................|.......................|.......................|.......................|.......................|.......................|.......................|.......................|.......................|.......................|
.......................|.......................|.......................|C-0....................|.......................|.......................|.......................|.......................|.......................|.......................|
.......................|.......................|.......................|.......................|.......................|.......................|.......................|.......................|.......................|.......................|
.......................|.......................|.......................|.......................|.......................|.......................|.......................|.......................|.......................|.......................|
C-0....................|.......................|.......................|.......................|C-0....................|.......................|.......................|.......................|C-0....................|.......................|
.......................|D-3....................|A-2....................|.......................|D-2....8000............|C-4C0..................|.......................|.......................|C-5A000EA00............|.......................|
.......................|.......................|.......................|.......................|.......................|.......................|.......................|.......................|.......................|.......................|
.......................|.......................|.......................|.......................|.......................|.......................|.......................|.......................|.......................|.......................|
.......................|.......................|.......................|D-3....................|.......................|.......................|.......................|.......................|.......................|.......................|
.......................|.......................|.......................|.......................|.......................|.......................|.......................|.......................|.......................|.......................|
.......................|C-0....................|C-0....................|.......................|C-0....................|.......................|.......................|.......................|C-0....................|.......................|
D-2....................|.......................|.......................|.......................|D-2....80FF............|C-4C1..................|.......................|.......................|C-5A000EA00............|.......................|
.......................|.......................|.......................|.......................|.......................|.......................|.......................|.......................|.......................|.......................|
.......................|.......................|.......................|C-0....................|.......................|.......................|.......................|.......................|.......................|.......................|
.......................|.......................|.......................|.......................|.......................|.......................|.......................|.......................|.......................|.......................|
.......................|.......................|.......................|.......................|.......................|.......................|.......................|.......................|.......................|.......................|
.......................|.......................|.......................|.......................|C-0....................|.......................|.......................|.......................|C-0....................|.......................|
.......................|.......................|.......................|.......................|D-2....8000............|C-4C0..................|.......................|.......................|C-5A000EA00............|.......................|
.......................|.......................|.......................|.......................|.......................|.......................|.......................|.......................|.......................|.......................|
.......................|.......................|.......................|.......................|.......................|.......................|.......................|.......................|.......................|.......................|
.......................|.......................|.......................|.......................|.......................|.......................|.......................|.......................|.......................|.......................|
.......................|.......................|.......................|.......................|.......................|.......................|.......................|.......................|.......................|.......................|
C-0....................|.......................|.......................|.......................|C-0....................|.......................|.......................|.......................|C-0....................|.......................|
D-3....................|D-3....................|A-2....................|.......................|D-2....80FF............|C-4C0..................|.......................|.......................|C-5A000EA00............|.......................|
.......................|.......................|.......................|.......................|.......................|.......................|.......................|.......................|.......................|.......................|
.......................|.......................|.......................|.......................|.......................|.......................|.......................|.......................|.......................|.......................|
.......................|.......................|.......................|D-3....................|.......................|.......................|.......................|.......................|.......................|.......................|
.......................|.......................|.......................|.......................|.......................|.......................|.......................|.......................|.......................|.......................|
C-0....................|.......................|.......................|.......................|C-0....................|.......................|.......................|.......................|C-0....................|.......................|
.......................|.......................|.......................|.......................|D-2....8000............|C-4C0..................|.......................|.......................|C-5A000EA00............|.......................|
.......................|.......................|.......................|.......................|.......................|.......................|.......................|.......................|.......................|.......................|
.......................|.......................|.......................|.......................|.......................|.......................|.......................|.......................|.......................|.......................|
.......................|.......................|.......................|.......................|.......................|.......................|.......................|.......................|.......................|.......................|
.......................|.......................|.......................|.......................|.......................|.......................|.......................|.......................|.......................|.......................|
.......................|C-0....................|C-0....................|.......................|C-0....................|.......................|.......................|.......................|C-0....................|.......................|
D-2....................|.......................|.......................|.......................|D-2....80FF............|C-4C0..................|.......................|.......................|C-5A000EA00............|.......................|
.......................|.......................|.......................|.......................|.......................|.......................|.......................|.......................|.......................|.......................|
.......................|.......................|.......................|C-0....................|.......................|.......................|.......................|.......................|.......................|.......................|
.......................|.......................|.......................|.......................|.......................|.......................|.......................|.......................|.......................|.......................|
.......................|.......................|.......................|.......................|.......................|.......................|.......................|.......................|.......................|.......................|
.......................|.......................|.......................|.......................|C-0....................|.......................|.......................|.......................|C-0....................|.......................|
.......................|.......................|.......................|.......................|D-2....8000............|.......................|.......................|.......................|C-5A000EA00............|.......................|
.......................|.......................|.......................|.......................|.......................|.......................|.......................|.......................|.......................|.......................|
.......................|.......................|.......................|.......................|.......................|.......................|.......................|.......................|.......................|.......................|
.......................|.......................|.......................|.......................|.......................|.......................|.......................|.......................|.......................|.......................|
.......................|.......................|.......................|.......................|.......................|.......................|.......................|.......................|.......................|.......................|
C-0....................|.......................|.......................|.......................|C-0....................|.......................|.......................|.......................|C-0....................|.......................|
D-3....................|D-3....................|A-2....................|.......................|D-2....80FF............|C-4C0..................|.......................|.......................|C-5A000EA00............|.......................|
.......................|.......................|.......................|.......................|.......................|.......................|.......................|.......................|.......................|.......................|
.......................|.......................|.......................|.......................|.......................|.......................|.......................|.......................|.......................|.......................|
.......................|.......................|.......................|D-3....................|.......................|.......................|.......................|.......................|.......................|.......................|
.......................|.......................|.......................|.......................|.......................|.......................|.......................|.......................|.......................|.......................|
C-0....................|.......................|.......................|.......................|C-0....................|.......................|.......................|.......................|C-0....................|.......................|
.......................|.......................|.......................|.......................|D-2....8000............|C-4C0..................|.......................|.......................|C-5A000EA00............|.......................|
.......................|.......................|.......................|.......................|.......................|.......................|.......................|.......................|.......................|.......................|
.......................|.......................|.......................|.......................|.......................|.......................|.......................|.......................|.......................|.......................|
.......................|.......................|.......................|.......................|.......................|.......................|.......................|.......................|.......................|.......................|
.......................|.......................|.......................|.......................|.......................|.......................|.......................|.......................|.......................|.......................|
.......................|C-0....................|C-0....................|.......................|C-0....................|.......................|.......................|.......................|C-0....................|.......................|
D-2....................|B-2....8080............|E-3....................|.......................|D-2....80FF............|C-4C1..................|.......................|.......................|C-5A000EA00............|.......................|
.......................|.......................|.......................|.......................|.......................|.......................|.......................|.......................|.......................|.......................|
.......................|.......................|.......................|C-0....................|.......................|.......................|.......................|.......................|.......................|.......................|
.......................|.......................|.......................|.......................|.......................|.......................|.......................|.......................|.......................|.......................|
.......................|.......................|.......................|.......................|.......................|.......................|.......................|.......................|.......................|.......................|
C-0....................|C-0....................|C-0....................|.......................|C-0....................|.......................|.......................|.......................|C-0....................|.......................|
D-3....................|G-2....................|F-3....................|.......................|D-2....8000............|C-4C0..................|.......................|.......................|C-5A000EA00............|.......................|
.......................|.......................|.......................|.......................|.......................|.......................|.......................|.......................|.......................|.......................|
.......................|.......................|.......................|.......................|.......................|.......................|.......................|.......................|.......................|.......................|
.......................|.......................|.......................|.......................|.......................|.......................|.......................|.......................|.......................|.......................|
.......................|.......................|.......................|.......................|.......................|.......................|.......................|.......................|.......................|.......................|
C-0....................|C-0....................|C-0....................|.......................|C-0....................|.......................|.......................|.......................|C-0....................|.......................|
D-2....................|C-3....................|E-3....................|.......................|D-2....80FF............|C-4C0..................|.......................|.......................|C-5A000EA00............|.......................|
.......................|.......................|.......................|.......................|.......................|.......................|.......................|.......................|.......................|.......................|
.......................|.......................|.......................|.......................|.......................|.......................|.......................|.......................|.......................|.......................|
.......................|.......................|.......................|.......................|.......................|.......................|.......................|.......................|.......................|.......................|
.......................|.......................|.......................|.......................|.......................|.......................|.......................|.......................|.......................|.......................|
C-0....................|C-0....................|C-0....................|.......................|C-0....................|.......................|.......................|.......................|C-0....................|.......................|
D-3....................|A-2....................|C-3....................|.......................|D-2....8000............|C-4C0..................|.......................|.......................|C-5A000EA00............|.......................|
.......................|.......................|.......................|.......................|.......................|.......................|.......................|.......................|.......................|.......................|
.......................|.......................|.......................|.......................|.......................|.......................|.......................|.......................|.......................|.......................|
.......................|.......................|.......................|.......................|.......................|.......................|.......................|.......................|.......................|.......................|
.......................|.......................|.......................|.......................|.......................|.......................|.......................|.......................|.......................|.......................|
C-0....................|C-0....................|C-0....................|.......................|C-0....................|.......................|.......................|.......................|C-0....................|.......................|
D-2....................|D-3....8000............|A-2....................|.......................|D-2....80FF............|C-4C0..................|.......................|.......................|C-5A000EA00............|.......................|
.......................|.......................|.......................|.......................|.......................|.......................|.......................|.......................|.......................|.......................|
.......................|.......................|.......................|.......................|.......................|.......................|.......................|.......................|.......................|.......................|
.......................|.......................|.......................|D-3....................|.......................|.......................|.......................|.......................|.......................|.......................|
.......................|.......................|.......................|.......................|.......................|.......................|.......................|.......................|.......................|.......................|
.......................|.......................|.......................|.......................|C-0....................|.......................|.......................|.......................|C-0....................|.......................|
.......................|.......................|.......................|.......................|D-2....8000............|.......................|.......................|.......................|C-5A000EA00............|.......................|
.......................|.......................|.......................|.......................|.......................|.......................|.......................|.......................|.......................|.......................|
.......................|.......................|.......................|.......................|.......................|.......................|.......................|.......................|.......................|.......................|
.......................|.......................|.......................|.......................|.......................|.......................|.......................|.......................|.......................|.......................|
.......................|.......................|.......................|.......................|.......................|.......................|.......................|.......................|.......................|.......................|
C-0....................|C-0....................|C-0....................|.......................|C-0....................|.......................|.......................|.......................|C-0....................|.......................|
D-3....................|.......................|.......................|.......................|D-2....80FF............|C-4C0..................|.......................|.......................|C-5A000EA00............|.......................|
.......................|.......................|.......................|.......................|.......................|.......................|.......................|.......................|.......................|.......................|
.......................|.......................|.......................|C-0....................|.......................|.......................|.......................|.......................|.......................|.......................|
.......................|.......................|.......................|.......................|.......................|.......................|.......................|.......................|.......................|.......................|
.......................|.......................|.......................|.......................|.......................|.......................|.......................|.......................|.......................|.......................|
C-0....................|.......................|.......................|.......................|C-0....................|.......................|.......................|.......................|C-0....................|.......................|
.......................|D-3....................|A-2....................|.......................|D-2....8000............|C-4C0..................|.......................|.......................|C-5A000EA00............|.......................|
.......................|.......................|.......................|.......................|.......................|.......................|.......................|.......................|.......................|.......................|
.......................|.......................|.......................|.......................|.......................|.......................|.......................|.......................|.......................|.......................|
.......................|.......................|.......................|D-3....................|.......................|.......................|.......................|.......................|.......................|.......................|
.......................|.......................|.......................|.......................|.......................|.......................|.......................|.......................|.......................|.......................|
.......................|C-0....................|C-0....................|.......................|C-0....................|.......................|.......................|.......................|C-0....................|.......................|
D-2....................|.......................|.......................|.......................|D-2....80FF............|C-4C1..................|.......................|.......................|C-5A000EA00............|.......................|
.......................|.......................|.......................|.......................|.......................|.......................|.......................|.......................|.......................|.......................|
.......................|.......................|.......................|C-0....................|.......................|.......................|.......................|.......................|.......................|.......................|
.......................|.......................|.......................|.......................|.......................|.......................|.......................|.......................|.......................|.......................|
.......................|.......................|.......................|.......................|.......................|.......................|.......................|.......................|.......................|.......................|
.......................|.......................|.......................|.......................|C-0....................|.......................|.......................|.......................|C-0....................|.......................|
.......................|.......................|.......................|.......................|D-2....8000............|C-4C0..................|.......................|.......................|C-5A000EA00............|.......................|
.......................|.......................|.......................|.......................|.......................|.......................|.......................|.......................|.......................|.......................|
.......................|.......................|.......................|.......................|.......................|.......................|.......................|.......................|.......................|.......................|
.......................|.......................|.......................|.......................|.......................|.......................|.......................|.......................|.......................|.......................|
.......................|.......................|.......................|.......................|.......................|.......................|.......................|.......................|.......................|.......................|
C-0....................|.......................|.......................|.......................|C-0....................|.......................|.......................|.......................|C-0....................|.......................|
D-3....................|D-3....................|A-2....................|.......................|D-2....80FF............|C-4C0..................|.......................|.......................|C-5A000EA00............|.......................|
.......................|.......................|.......................|.......................|.......................|.......................|.......................|.......................|.......................|.......................|
.......................|.......................|.......................|.......................|.......................|.......................|.......................|.......................|.......................|.......................|
.......................|.......................|.......................|D-3....................|.......................|.......................|.......................|.......................|.......................|.......................|
.......................|.......................|.......................|.......................|.......................|.......................|.......................|.......................|.......................|.......................|
C-0....................|.......................|.......................|.......................|C-0....................|.......................|.......................|.......................|C-0....................|.......................|
.......................|.......................|.......................|.......................|D-2....8000............|C-4C0..................|.......................|.......................|C-5A000EA00............|.......................|
.......................|.......................|.......................|.......................|.......................|.......................|.......................|.......................|.......................|.......................|
.......................|.......................|.......................|.......................|.......................|.......................|.......................|.......................|.......................|.......................|
.......................|.......................|.......................|.......................|.......................|.......................|.......................|.......................|.......................|.......................|
.......................|.......................|.......................|.......................|.......................|.......................|.......................|.......................|.......................|.......................|
.......................|C-0....................|C-0....................|.......................|C-0....................|.......................|.......................|.......................|C-0....................|.......................|
A#1....................|D-3....................|A#2....................|.......................|A#1....8080............|C-4C0..................|.......................|.......................|C-5A000EA00............|.......................|
.......................|.......................|.......................|.......................|.......................|.......................|.......................|.......................|.......................|.......................|
.......................|.......................|.......................|C-0....................|.......................|.......................|.......................|.......................|.......................|.......................|
.......................|.......................|.......................|D-3....................|.......................|.......................|.......................|.......................|.......................|.......................|
.......................|.......................|.......................|.......................|.......................|.......................|.......................|.......................|.......................|.......................|
.......................|.......................|.......................|.......................|C-0....................|.......................|.......................|.......................|C-0....................|.......................|
.......................|.......................|.......................|.......................|A#1....................|.......................|.......................|.......................|C-5A000EA00............|.......................|
.......................|.......................|.......................|.......................|.......................|.......................|.......................|.......................|.......................|.......................|
.......................|.......................|.......................|.......................|.......................|.......................|.......................|.......................|.......................|.......................|
.......................|.......................|.......................|.......................|.......................|.......................|.......................|.......................|.......................|.......................|
.......................|.......................|.......................|.......................|.......................|.......................|.......................|.......................|.......................|.......................|
C-0....................|.......................|.......................|.......................|C-0....................|.......................|.......................|.......................|C-0....................|.......................|
A#2....................|.......................|.......................|.......................|A#1....................|C-4C0..................|.......................|.......................|C-5A000EA00............|.......................|
.......................|.......................|.......................|.......................|.......................|.......................|.......................|.......................|.......................|.......................|
.......................|.......................|.......................|.......................|.......................|.......................|.......................|.......................|.......................|.......................|
.......................|.......................|.......................|.......................|.......................|.......................|.......................|.......................|.......................|.......................|
.......................|.......................|.......................|.......................|.......................|.......................|.......................|.......................|.......................|.......................|
C-0....................|.......................|.......................|.......................|C-0....................|.......................|.......................|.......................|C-0....................|.......................|
A#2....................|.......................|.......................|.......................|A#1....................|C-4C0..................|.......................|.......................|C-5A000EA00............|.......................|
.......................|.......................|.......................|.......................|.......................|.......................|.......................|.......................|.......................|.......................|
.......................|.......0452............|.......0452............|.......................|.......................|.......................|.......................|.......................|.......................|.......................|
.......................|.......................|.......................|.......................|.......................|.......................|.......................|.......................|.......................|.......................|
.......................|.......................|.......................|.......................|.......................|.......................|.......................|.......................|.......................|.......................|
C-0....................|C-0....................|C-0....................|.......0452............|C-0....................|.......................|.......................|.......................|C-0....................|.......................|
C-2....................|E-3....0400............|C-3....0400............|.......................|C-2....................|C-4C1..................|.......................|.......................|C-5A000EA00............|.......................|
.......................|.......................|.......................|.......................|.......................|.......................|.......................|.......................|.......................|.......................|
.......................|.......................|.......................|C-0....................|.......................|.......................|.......................|.......................|.......................|.......................|
.......................|.......................|.......................|E-3....0400............|.......................|.......................|.......................|.......................|.......................|.......................|
.......................|.......................|.......................|.......................|.......................|.......................|.......................|.......................|.......................|.......................|
C-0....................|.......................|.......................|.......................|C-0....................|.......................|.......................|.......................|C-0....................|.......................|
C-3....................|.......................|.......................|.......................|C-2....................|C-4C0..................|.......................|.......................|C-5A000EA00............|.......................|
.......................|.......................|.......................|.......................|.......................|.......................|.......................|.......................|.......................|.......................|
C-0....................|.......................|.......................|.......................|.......................|.......................|.......................|.......................|.......................|.......................|
.......................|.......................|.......................|.......................|.......................|.......................|.......................|.......................|.......................|.......................|
.......................|.......................|.......................|.......................|.......................|.......................|.......................|.......................|.......................|.......................|
.......................|.......................|.......................|.......................|C-0....................|.......................|.......................|.......................|C-0....................|.......................|
C-3....................|.......................|.......................|.......................|C-2....................|C-4C0..................|.......................|.......................|C-5A000EA00............|.......................|
.......................|.......................|.......................|.......................|.......................|.......................|.......................|.......................|.......................|.......................|
C-0....................|.......................|.......................|.......................|.......................|.......................|.......................|.......................|.......................|.......................|
.......................|.......................|.......................|.......................|.......................|.......................|.......................|.......................|.......................|.......................|
.......................|.......................|.......................|.......................|.......................|.......................|.......................|.......................|.......................|.......................|
.......................|.......................|.......................|.......................|C-0....................|.......................|.......................|.......................|C-0....................|.......................|
C-3....................|.......................|.......................|.......................|C-2....................|C-4C0..................|.......................|.......................|C-5A000EA00............|.......................|
.......................|.......................|.......................|.......................|.......................|.......................|.......................|.......................|.......................|.......................|
C-0....................|.......0452............|.......0452............|.......................|.......................|.......................|.......................|.......................|.......................|.......................|
.......................|.......................|.......................|.......................|.......................|.......................|.......................|.......................|.......................|.......................|
.......................|.......................|.......................|.......................|.......................|.......................|.......................|.......................|.......................|.......................|
.......................|C-0....................|C-0....................|.......0452............|C-0....................|.......................|.......................|.......................|C-0....................|.......................|
org.tildearrow.furnace - Pattern Data (219)
0
D-2....................|D-3....0400............|A-3....0400............|.......................|D-2....80FF............|C-4C0..................|.......................|.......................|C-5A000EA00............|.......................|
.......................|.......................|.......................|.......................|.......................|.......................|.......................|.......................|.......................|.......................|
.......................|.......................|.......................|C-0....................|.......................|.......................|.......................|.......................|.......................|.......................|
.......................|.......................|.......................|D-3....0400............|.......................|.......................|.......................|.......................|.......................|.......................|
.......................|.......................|.......................|.......................|.......................|.......................|.......................|.......................|.......................|.......................|
.......................|.......................|.......................|.......................|C-0....................|.......................|.......................|.......................|C-0....................|.......................|
.......................|.......................|.......................|.......................|D-2....8000............|.......................|.......................|.......................|C-5A000EA00............|.......................|
.......................|.......................|.......................|.......................|.......................|.......................|.......................|.......................|.......................|.......................|
.......................|.......................|.......................|.......................|.......................|.......................|.......................|.......................|.......................|.......................|
.......................|.......................|.......................|.......................|.......................|.......................|.......................|.......................|.......................|.......................|
.......................|.......................|.......................|.......................|.......................|.......................|.......................|.......................|.......................|.......................|
C-0....................|C-0....................|C-0....................|.......................|C-0....................|.......................|.......................|.......................|C-0....................|.......................|
D-3....................|.......................|.......................|.......................|D-2....80FF............|C-4C0..................|.......................|.......................|C-5A000EA00............|.......................|
.......................|.......................|.......................|.......................|.......................|.......................|.......................|.......................|.......................|.......................|
.......................|.......................|.......................|C-0....................|.......................|.......................|.......................|.......................|.......................|.......................|
.......................|.......................|.......................|.......................|.......................|.......................|.......................|.......................|.......................|.......................|
.......................|.......................|.......................|.......................|.......................|.......................|.......................|.......................|.......................|.......................|
C-0....................|.......................|.......................|.......................|C-0....................|.......................|.......................|.......................|C-0....................|.......................|
.......................|D-3....................|A-2....................|.......................|D-2....8000............|C-4C0..................|.......................|.......................|C-5A000EA00............|.......................|
.......................|.......................|.......................|.......................|.......................|.......................|.......................|.......................|.......................|.......................|
.......................|.......................|.......................|.......................|.......................|.......................|.......................|.......................|.......................|.......................|
.......................|.......................|.......................|D-3....................|.......................|.......................|.......................|.......................|.......................|.......................|
.......................|.......................|.......................|.......................|.......................|.......................|.......................|.......................|.......................|.......................|
.......................|C-0....................|C-0....................|.......................|C-0....................|.......................|.......................|.......................|C-0....................|.......................|
D-2....................|.......................|.......................|.......................|D-2....80FF............|C-4C1..................|.......................|.......................|C-5A000EA00............|.......................|
.......................|.......................|.......................|.......................|.......................|.......................|.......................|.......................|.......................|.......................|
.......................|.......................|.......................|C-0....................|.......................|.......................|.......................|.......................|.......................|.......................|
.......................|.......................|.......................|.......................|.......................|.......................|.......................|.......................|.......................|.......................|
.......................|.......................|.......................|.......................|.......................|.......................|.......................|.......................|.......................|.......................|
.......................|.......................|.......................|.......................|C-0....................|.......................|.......................|.......................|C-0....................|.......................|
.......................|.......................|.......................|.......................|D-2....8000............|C-4C0..................|.......................|.......................|C-5A000EA00............|.......................|
.......................|.......................|.......................|.......................|.......................|.......................|.......................|.......................|.......................|.......................|
.......................|.......................|.......................|.......................|.......................|.......................|.......................|.......................|.......................|.......................|
.......................|.......................|.......................|.......................|.......................|.......................|.......................|.......................|.......................|.......................|
.......................|.......................|.......................|.......................|.......................|.......................|.......................|.......................|.......................|.......................|
C-0....................|.......................|.......................|.......................|C-0....................|.......................|.......................|.......................|C-0....................|.......................|
D-3....................|D-3....................|A-3....................|.......................|D-2....80FF............|C-4C0..................|.......................|.......................|C-5A000EA00............|.......................|
.......................|.......................|.......................|.......................|.......................|.......................|.......................|.......................|.......................|.......................|
.......................|.......................|.......................|.......................|.......................|.......................|.......................|.......................|.......................|.......................|
.......................|.......................|.......................|D-3....................|.......................|.......................|.......................|.......................|.......................|.......................|
.......................|.......................|.......................|.......................|.......................|.......................|.......................|.......................|.......................|.......................|
C-0....................|.......................|.......................|.......................|C-0....................|.......................|.......................|.......................|C-0....................|.......................|
.......................|.......................|.......................|.......................|D-2....8000............|C-4C0..................|.......................|.......................|C-5A000EA00............|.......................|
.......................|.......................|.......................|.......................|.......................|.......................|.......................|.......................|.......................|.......................|
.......................|.......................|.......................|.......................|.......................|.......................|.......................|.......................|.......................|.......................|
.......................|.......................|.......................|.......................|.......................|.......................|.......................|.......................|.......................|.......................|
.......................|.......................|.......................|.......................|.......................|.......................|.......................|.......................|.......................|.......................|
.......................|C-0....................|C-0....................|.......................|C-0....................|.......................|.......................|.......................|C-0....................|.......................|
D-2....................|.......................|.......................|.......................|D-2....80FF............|C-4C0..................|.......................|.......................|C-5A000EA00............|.......................|
.......................|.......................|.......................|.......................|.......................|.......................|.......................|.......................|.......................|.......................|
.......................|.......................|.......................|C-0....................|.......................|.......................|.......................|.......................|.......................|.......................|
.......................|.......................|.......................|.......................|.......................|.......................|.......................|.......................|.......................|.......................|
.......................|.......................|.......................|.......................|.......................|.......................|.......................|.......................|.......................|.......................|
.......................|.......................|.......................|.......................|C-0....................|.......................|.......................|.......................|C-0....................|.......................|
.......................|.......................|.......................|.......................|D-2....8000............|.......................|.......................|.......................|C-5A000EA00............|.......................|
.......................|.......................|.......................|.......................|.......................|.......................|.......................|.......................|.......................|.......................|
.......................|.......................|.......................|.......................|.......................|.......................|.......................|.......................|.......................|.......................|
.......................|.......................|.......................|.......................|.......................|.......................|.......................|.......................|.......................|.......................|
.......................|.......................|.......................|.......................|.......................|.......................|.......................|.......................|.......................|.......................|
C-0....................|.......................|.......................|.......................|C-0....................|.......................|.......................|.......................|C-0....................|.......................|
D-3....................|D-3....................|A-2....................|.......................|D-2....80FF............|C-4C0..................|.......................|.......................|C-5A000EA00............|.......................|
.......................|.......................|.......................|.......................|.......................|.......................|.......................|.......................|.......................|.......................|
.......................|.......................|.......................|.......................|.......................|.......................|.......................|.......................|.......................|.......................|
.......................|.......................|.......................|D-3....................|.......................|.......................|.......................|.......................|.......................|.......................|
.......................|.......................|.......................|.......................|.......................|.......................|.......................|.......................|.......................|.......................|
C-0....................|.......................|.......................|.......................|C-0....................|.......................|.......................|.......................|C-0....................|.......................|
.......................|.......................|.......................|.......................|D-2....8000............|C-4C0..................|.......................|.......................|C-5A000EA00............|.......................|
.......................|.......................|.......................|.......................|.......................|.......................|.......................|.......................|.......................|.......................|
.......................|.......................|.......................|.......................|.......................|.......................|.......................|.......................|.......................|.......................|
.......................|.......................|.......................|.......................|.......................|.......................|.......................|.......................|.......................|.......................|
.......................|.......................|.......................|.......................|.......................|.......................|.......................|.......................|.......................|.......................|
.......................|C-0....................|C-0....................|.......................|C-0....................|.......................|.......................|.......................|C-0....................|.......................|
D-2....................|E-2....8080............|E-3....................|.......................|D-2....80FF............|C-4C1..................|.......................|.......................|C-5A000EA00............|.......................|
.......................|.......................|.......................|.......................|.......................|.......................|.......................|.......................|.......................|.......................|
.......................|.......................|.......................|C-0....................|.......................|.......................|.......................|.......................|.......................|.......................|
.......................|.......................|.......................|.......................|.......................|.......................|.......................|.......................|.......................|.......................|
.......................|.......................|.......................|.......................|.......................|.......................|.......................|.......................|.......................|.......................|
C-0....................|C-0....................|C-0....................|.......................|C-0....................|.......................|.......................|.......................|C-0....................|.......................|
D-3....................|F-2....................|F-3....................|.......................|D-2....8000............|C-4C0..................|.......................|.......................|C-5A000EA00............|.......................|
.......................|.......................|.......................|.......................|.......................|.......................|.......................|.......................|.......................|.......................|
.......................|.......................|.......................|.......................|.......................|.......................|.......................|.......................|.......................|.......................|
.......................|.......................|.......................|.......................|.......................|.......................|.......................|.......................|.......................|.......................|
.......................|.......................|.......................|.......................|.......................|.......................|.......................|.......................|.......................|.......................|
C-0....................|C-0....................|C-0....................|.......................|C-0....................|.......................|.......................|.......................|C-0....................|.......................|
D-2....................|E-2....................|E-3....................|.......................|D-2....80FF............|C-4C0..................|.......................|.......................|C-5A000EA00............|.......................|
.......................|.......................|.......................|.......................|.......................|.......................|.......................|.......................|.......................|.......................|
.......................|.......................|.......................|.......................|.......................|.......................|.......................|.......................|.......................|.......................|
.......................|.......................|.......................|.......................|.......................|.......................|.......................|.......................|.......................|.......................|
.......................|.......................|.......................|.......................|.......................|.......................|.......................|.......................|.......................|.......................|
C-0....................|C-0....................|C-0....................|.......................|C-0....................|.......................|.......................|.......................|C-0....................|.......................|
D-3....................|C-2....................|C-3....................|.......................|D-2....8000............|C-4C0..................|.......................|.......................|C-5A000EA00............|.......................|
.......................|.......................|.......................|.......................|.......................|.......................|.......................|.......................|.......................|.......................|
.......................|.......................|.......................|.......................|.......................|.......................|.......................|.......................|.......................|.......................|
.......................|.......................|.......................|.......................|.......................|.......................|.......................|.......................|.......................|.......................|
.......................|.......................|.......................|.......................|.......................|.......................|.......................|.......................|.......................|.......................|
C-0....................|C-0....................|C-0....................|.......................|C-0....................|.......................|.......................|.......................|C-0....................|.......................|
D-2....................|D-3....8000............|A-2....................|.......................|D-2....80FF............|C-4C0..................|.......................|.......................|C-5A000EA00............|.......................|
.......................|.......................|.......................|.......................|.......................|.......................|.......................|.......................|.......................|.......................|
.......................|.......................|.......................|.......................|.......................|.......................|.......................|.......................|.......................|.......................|
.......................|.......................|.......................|D-3....................|.......................|.......................|.......................|.......................|.......................|.......................|
.......................|.......................|.......................|.......................|.......................|.......................|.......................|.......................|.......................|.......................|
.......................|.......................|.......................|.......................|C-0....................|.......................|.......................|.......................|C-0....................|.......................|
.......................|.......................|.......................|.......................|D-2....8000............|.......................|.......................|.......................|C-5A000EA00............|.......................|
.......................|.......................|.......................|.......................|.......................|.......................|.......................|.......................|.......................|.......................|
.......................|.......................|.......................|.......................|.......................|.......................|.......................|.......................|.......................|.......................|
.......................|.......................|.......................|.......................|.......................|.......................|.......................|.......................|.......................|.......................|
.......................|.......................|.......................|.......................|.......................|.......................|.......................|.......................|.......................|.......................|
C-0....................|C-0....................|C-0....................|.......................|C-0....................|.......................|.......................|.......................|C-0....................|.......................|
D-3....................|.......................|.......................|.......................|D-2....80FF............|C-4C0..................|.......................|.......................|C-5A000EA00............|.......................|
.......................|.......................|.......................|.......................|.......................|.......................|.......................|.......................|.......................|.......................|
.......................|.......................|.......................|C-0....................|.......................|.......................|.......................|.......................|.......................|.......................|
.......................|.......................|.......................|.......................|.......................|.......................|.......................|.......................|.......................|.......................|
.......................|.......................|.......................|.......................|.......................|.......................|.......................|.......................|.......................|.......................|
C-0....................|.......................|.......................|.......................|C-0....................|.......................|.......................|.......................|C-0....................|.......................|
.......................|D-3....................|A-2....................|.......................|D-2....8000............|C-4C0..................|.......................|.......................|C-5A000EA00............|.......................|
.......................|.......................|.......................|.......................|.......................|.......................|.......................|.......................|.......................|.......................|
.......................|.......................|.......................|.......................|.......................|.......................|.......................|.......................|.......................|.......................|
.......................|.......................|.......................|D-3....................|.......................|.......................|.......................|.......................|.......................|.......................|
.......................|.......................|.......................|.......................|.......................|.......................|.......................|.......................|.......................|.......................|
.......................|C-0....................|C-0....................|.......................|C-0....................|.......................|.......................|.......................|C-0....................|.......................|
D-2....................|.......................|.......................|.......................|D-2....80FF............|C-4C1..................|.......................|.......................|C-5A000EA00............|.......................|
.......................|.......................|.......................|.......................|.......................|.......................|.......................|.......................|.......................|.......................|
.......................|.......................|.......................|C-0....................|.......................|.......................|.......................|.......................|.......................|.......................|
.......................|.......................|.......................|.......................|.......................|.......................|.......................|.......................|.......................|.......................|
.......................|.......................|.......................|.......................|.......................|.......................|.......................|.......................|.......................|.......................|
.......................|.......................|.......................|.......................|C-0....................|.......................|.......................|.......................|C-0....................|.......................|
.......................|.......................|.......................|.......................|D-2....8000............|C-4C0..................|.......................|.......................|C-5A000EA00............|.......................|
.......................|.......................|.......................|.......................|.......................|.......................|.......................|.......................|.......................|.......................|
.......................|.......................|.......................|.......................|.......................|.......................|.......................|.......................|.......................|.......................|
.......................|.......................|.......................|.......................|.......................|.......................|.......................|.......................|.......................|.......................|
.......................|.......................|.......................|.......................|.......................|.......................|.......................|.......................|.......................|.......................|
C-0....................|.......................|.......................|.......................|C-0....................|.......................|.......................|.......................|C-0....................|.......................|
D-3....................|D-3....................|A-2....................|.......................|D-2....80FF............|C-4C0..................|.......................|.......................|C-5A000EA00............|.......................|
.......................|.......................|.......................|.......................|.......................|.......................|.......................|.......................|.......................|.......................|
.......................|.......................|.......................|.......................|.......................|.......................|.......................|.......................|.......................|.......................|
.......................|.......................|.......................|D-3....................|.......................|.......................|.......................|.......................|.......................|.......................|
.......................|.......................|.......................|.......................|.......................|.......................|.......................|.......................|.......................|.......................|
C-0....................|.......................|.......................|.......................|C-0....................|.......................|.......................|.......................|C-0....................|.......................|
.......................|.......................|.......................|.......................|D-2....8000............|C-4C0..................|.......................|.......................|C-5A000EA00............|.......................|
.......................|.......................|.......................|.......................|.......................|.......................|.......................|.......................|.......................|.......................|
.......................|.......................|.......................|.......................|.......................|.......................|.......................|.......................|.......................|.......................|
.......................|.......................|.......................|.......................|.......................|.......................|.......................|.......................|.......................|.......................|
.......................|.......................|.......................|.......................|.......................|.......................|.......................|.......................|.......................|.......................|
.......................|C-0....................|C-0....................|.......................|C-0....................|.......................|.......................|.......................|C-0....................|.......................|
A#1....................|D-3....................|A#2....................|.......................|A#1....8080............|C-4C0..................|.......................|.......................|C-5A000EA00............|.......................|
.......................|.......................|.......................|.......................|.......................|.......................|.......................|.......................|.......................|.......................|
.......................|.......................|.......................|C-0....................|.......................|.......................|.......................|.......................|.......................|.......................|
.......................|.......................|.......................|D-3....................|.......................|.......................|.......................|.......................|.......................|.......................|
.......................|.......................|.......................|.......................|.......................|.......................|.......................|.......................|.......................|.......................|
.......................|C-0....................|C-0....................|.......................|C-0....................|.......................|.......................|.......................|C-0....................|.......................|
.......................|.......................|.......................|.......................|A#1....................|.......................|.......................|.......................|C-5A000EA00............|.......................|
.......................|.......................|.......................|.......................|.......................|.......................|.......................|.......................|.......................|.......................|
.......................|.......................|.......................|C-0....................|.......................|.......................|.......................|.......................|.......................|.......................|
.......................|.......................|.......................|.......................|.......................|.......................|.......................|.......................|.......................|.......................|
.......................|.......................|.......................|.......................|.......................|.......................|.......................|.......................|.......................|.......................|
C-0....................|.......................|.......................|.......................|C-0....................|.......................|.......................|.......................|C-0....................|.......................|
A#2....................|D-3....................|A#2....................|.......................|A#1....................|C-4C0..................|.......................|.......................|C-5A000EA00............|.......................|
.......................|.......................|.......................|.......................|.......................|.......................|.......................|.......................|.......................|.......................|
.......................|.......................|.......................|.......................|.......................|.......................|.......................|.......................|.......................|.......................|
.......................|.......................|.......................|D-3....................|.......................|.......................|.......................|.......................|.......................|.......................|
.......................|.......................|.......................|.......................|.......................|.......................|.......................|.......................|.......................|.......................|
C-0....................|.......................|.......................|.......................|C-0....................|.......................|.......................|.......................|C-0....................|.......................|
A#2....................|.......................|.......................|.......................|A#1....................|C-4C0..................|.......................|.......................|C-5A000EA00............|.......................|
.......................|.......................|.......................|.......................|.......................|.......................|.......................|.......................|.......................|.......................|
.......................|.......................|.......................|.......................|.......................|.......................|.......................|.......................|.......................|.......................|
.......................|.......................|.......................|.......................|.......................|.......................|.......................|.......................|.......................|.......................|
.......................|.......................|.......................|.......................|.......................|.......................|.......................|.......................|.......................|.......................|
C-0....................|C-0....................|C-0....................|.......................|C-0....................|.......................|.......................|.......................|C-0....................|.......................|
C-2....................|E-3....................|C-3....................|.......................|C-2....................|C-4C1..................|.......................|.......................|C-5A000EA00............|.......................|
.......................|.......................|.......................|.......................|.......................|.......................|.......................|.......................|.......................|.......................|
.......................|.......................|.......................|C-0....................|.......................|.......................|.......................|.......................|.......................|.......................|
.......................|.......................|.......................|E-3....................|.......................|.......................|.......................|.......................|.......................|.......................|
.......................|.......................|.......................|.......................|.......................|.......................|.......................|.......................|.......................|.......................|
C-0....................|C-0....................|C-0....................|.......................|C-0....................|.......................|.......................|.......................|C-0....................|.......................|
C-3....................|E-3....................|C-3....................|.......................|C-2....................|C-4C0..................|.......................|.......................|C-5A000EA00............|.......................|
.......................|.......................|.......................|.......................|.......................|.......................|.......................|.......................|.......................|.......................|
C-0....................|.......................|.......................|C-0....................|.......................|.......................|.......................|.......................|.......................|.......................|
.......................|.......................|.......................|E-3....................|.......................|.......................|.......................|.......................|.......................|.......................|
.......................|.......................|.......................|.......................|.......................|.......................|.......................|.......................|.......................|.......................|
.......................|C-0....................|C-0....................|.......................|C-0....................|.......................|.......................|.......................|C-0....................|.......................|
C-3....................|.......................|.......................|.......................|C-2....................|C-4C0..................|.......................|.......................|C-5A000EA00............|.......................|
.......................|.......................|.......................|.......................|.......................|.......................|.......................|.......................|.......................|.......................|
C-0....................|.......................|.......................|C-0....................|.......................|.......................|.......................|.......................|.......................|.......................|
.......................|.......................|.......................|.......................|.......................|.......................|.......................|.......................|.......................|.......................|
.......................|.......................|.......................|.......................|.......................|.......................|.......................|.......................|.......................|.......................|
.......................|.......................|.......................|.......................|C-0....................|.......................|.......................|.......................|C-0....................|.......................|
C-3....................|E-3....................|C-3....................|.......................|C-2....................|C-4C0..................|.......................|.......................|C-5A000EA00............|.......................|
.......................|.......................|.......................|.......................|.......................|.......................|.......................|.......................|.......................|.......................|
C-0....................|.......................|.......................|.......................|.......................|.......................|.......................|.......................|.......................|.......................|
.......................|.......................|.......................|E-3....................|.......................|.......................|.......................|.......................|.......................|.......................|
.......................|.......................|.......................|.......................|.......................|.......................|.......................|.......................|.......................|.......................|
.......................|C-0....................|C-0....................|.......................|C-0....................|.......................|.......................|.......................|C-0....................|.......................|
G-1....................|D-3....................|B-2....................|.......................|G-2....80FF............|C-4C0..................|.......................|.......................|C-5A000EA00............|.......................|
.......................|.......................|.......................|.......................|.......................|.......................|.......................|.......................|.......................|.......................|
.......................|.......................|.......................|C-0....................|.......................|.......................|.......................|.......................|.......................|.......................|
.......................|.......................|.......................|D-3....................|.......................|.......................|.......................|.......................|.......................|.......................|
.......................|.......................|.......................|.......................|.......................|.......................|.......................|.......................|.......................|.......................|
.......................|.......................|.......................|.......................|C-0....................|.......................|.......................|.......................|C-0....................|.......................|
.......................|.......................|.......................|.......................|G-2....8000............|.......................|.......................|.......................|C-5A000EA00............|.......................|
.......................|.......................|.......................|.......................|.......................|.......................|.......................|.......................|.......................|.......................|
.......................|.......................|.......................|.......................|.......................|.......................|.......................|.......................|.......................|.......................|
.......................|.......................|.......................|.......................|.......................|.......................|.......................|.......................|.......................|.......................|
.......................|.......................|.......................|.......................|.......................|.......................|.......................|.......................|.......................|.......................|
C-0....................|C-0....................|C-0....................|.......................|C-0....................|.......................|.......................|.......................|C-0....................|.......................|
G-2....................|.......................|.......................|.......................|G-2....80FF............|C-4C0..................|.......................|.......................|C-5A000EA00............|.......................|
.......................|.......................|.......................|.......................|.......................|.......................|.......................|.......................|.......................|.......................|
.......................|.......................|.......................|C-0....................|.......................|.......................|.......................|.......................|.......................|.......................|
.......................|.......................|.......................|.......................|.......................|.......................|.......................|.......................|.......................|.......................|
.......................|.......................|.......................|.......................|.......................|.......................|.......................|.......................|.......................|.......................|
C-0....................|.......................|.......................|.......................|C-0....................|.......................|.......................|.......................|C-0....................|.......................|
.......................|D-3....................|B-2....................|.......................|G-2....8000............|C-4C0..................|.......................|.......................|C-5A000EA00............|.......................|
.......................|.......................|.......................|.......................|.......................|.......................|.......................|.......................|.......................|.......................|
.......................|.......................|.......................|.......................|.......................|.......................|.......................|.......................|.......................|.......................|
.......................|.......................|.......................|D-3....................|.......................|.......................|.......................|.......................|.......................|.......................|
.......................|.......................|.......................|.......................|.......................|.......................|.......................|.......................|.......................|.......................|
.......................|C-0....................|C-0....................|.......................|C-0....................|.......................|.......................|.......................|C-0....................|.......................|
G-1....................|.......................|.......................|.......................|G-2....80FF............|C-4C1..................|.......................|.......................|C-5A000EA00............|.......................|
.......................|.......................|.......................|.......................|.......................|.......................|.......................|.......................|.......................|.......................|
.......................|.......................|.......................|C-0....................|.......................|.......................|.......................|.......................|.......................|.......................|
.......................|.......................|.......................|.......................|.......................|.......................|.......................|.......................|.......................|.......................|
.......................|.......................|.......................|.......................|.......................|.......................|.......................|.......................|.......................|.......................|
.......................|.......................|.......................|.......................|C-0....................|.......................|.......................|.......................|C-0....................|.......................|
.......................|.......................|.......................|.......................|G-2....8000............|C-4C0..................|.......................|.......................|C-5A000EA00............|.......................|
.......................|.......................|.......................|.......................|.......................|.......................|.......................|.......................|.......................|.......................|
.......................|.......................|.......................|.......................|.......................|.......................|.......................|.......................|.......................|.......................|
.......................|.......................|.......................|.......................|.......................|.......................|.......................|.......................|.......................|.......................|
.......................|.......................|.......................|.......................|.......................|.......................|.......................|.......................|.......................|.......................|
C-0....................|.......................|.......................|.......................|C-0....................|.......................|.......................|.......................|C-0....................|.......................|
G-2....................|D-3....................|B-2....................|.......................|G-2....80FF............|C-4C0..................|.......................|.......................|C-5A000EA00............|.......................|
.......................|.......................|.......................|.......................|.......................|.......................|.......................|.......................|.......................|.......................|
.......................|.......................|.......................|.......................|.......................|.......................|.......................|.......................|.......................|.......................|
.......................|.......................|.......................|D-3....................|.......................|.......................|.......................|.......................|.......................|.......................|
.......................|.......................|.......................|.......................|.......................|.......................|.......................|.......................|.......................|.......................|
C-0....................|.......................|.......................|.......................|C-0....................|.......................|.......................|.......................|C-0....................|.......................|
.......................|.......................|.......................|.......................|G-2....8000............|C-4C0..................|.......................|.......................|C-5A000EA00............|.......................|
.......................|.......................|.......................|.......................|.......................|.......................|.......................|.......................|.......................|.......................|
.......................|.......................|.......................|.......................|.......................|.......................|.......................|.......................|.......................|.......................|
.......................|.......................|.......................|.......................|.......................|.......................|.......................|.......................|.......................|.......................|
.......................|.......................|.......................|.......................|.......................|.......................|.......................|.......................|.......................|.......................|
.......................|C-0....................|C-0....................|.......................|C-0....................|.......................|.......................|.......................|C-0....................|.......................|
G-1....................|.......................|.......................|.......................|G-2....80FF............|C-4C0..................|.......................|.......................|C-5A000EA00............|.......................|
.......................|.......................|.......................|.......................|.......................|.......................|.......................|.......................|.......................|.......................|
.......................|.......................|.......................|C-0....................|.......................|.......................|.......................|.......................|.......................|.......................|
.......................|.......................|.......................|.......................|.......................|.......................|.......................|.......................|.......................|.......................|
.......................|.......................|.......................|.......................|.......................|.......................|.......................|.......................|.......................|.......................|
.......................|.......................|.......................|.......................|C-0....................|.......................|.......................|.......................|C-0....................|.......................|
.......................|.......................|.......................|.......................|G-2....8000............|.......................|.......................|.......................|C-5A000EA00............|.......................|
.......................|.......................|.......................|.......................|.......................|.......................|.......................|.......................|.......................|.......................|
.......................|.......................|.......................|.......................|.......................|.......................|.......................|.......................|.......................|.......................|
.......................|.......................|.......................|.......................|.......................|.......................|.......................|.......................|.......................|.......................|
.......................|.......................|.......................|.......................|.......................|.......................|.......................|.......................|.......................|.......................|
C-0....................|.......................|.......................|.......................|C-0....................|.......................|.......................|.......................|C-0....................|.......................|
G-2....................|D-3....................|B-2....................|.......................|G-2....80FF............|C-4C0..................|.......................|.......................|C-5A000EA00............|.......................|
.......................|.......................|.......................|.......................|.......................|.......................|.......................|.......................|.......................|.......................|
.......................|.......................|.......................|.......................|.......................|.......................|.......................|.......................|.......................|.......................|
.......................|.......................|.......................|D-3....................|.......................|.......................|.......................|.......................|.......................|.......................|
org.tildearrow.furnace - Pattern Data (219)
0
.......................|.......................|.......................|.......................|.......................|.......................|.......................|.......................|.......................|.......................|
C-0....................|.......................|.......................|.......................|C-0....................|.......................|.......................|.......................|C-0....................|.......................|
.......................|.......................|.......................|.......................|G-2....8000............|C-4C0..................|.......................|.......................|C-5A000EA00............|.......................|
.......................|.......................|.......................|.......................|.......................|.......................|.......................|.......................|.......................|.......................|
.......................|.......................|.......................|.......................|.......................|.......................|.......................|.......................|.......................|.......................|
.......................|.......................|.......................|.......................|.......................|.......................|.......................|.......................|.......................|.......................|
.......................|.......................|.......................|.......................|.......................|.......................|.......................|.......................|.......................|.......................|
.......................|C-0....................|C-0....................|.......................|C-0....................|.......................|.......................|.......................|C-0....................|.......................|
G-1....................|B-2....8080............|B-2....................|.......................|G-2....80FF............|C-4C1..................|.......................|.......................|C-5A000EA00............|.......................|
.......................|.......................|.......................|.......................|.......................|.......................|.......................|.......................|.......................|.......................|
.......................|.......................|.......................|C-0....................|.......................|.......................|.......................|.......................|.......................|.......................|
.......................|.......................|.......................|.......................|.......................|.......................|.......................|.......................|.......................|.......................|
.......................|.......................|.......................|.......................|.......................|.......................|.......................|.......................|.......................|.......................|
C-0....................|C-0....................|C-0....................|.......................|C-0....................|.......................|.......................|.......................|C-0....................|.......................|
G-2....................|G-2....................|G-2....................|.......................|G-2....8000............|C-4C0..................|.......................|.......................|C-5A000EA00............|.......................|
.......................|.......................|.......................|.......................|.......................|.......................|.......................|.......................|.......................|.......................|
.......................|.......................|.......................|.......................|.......................|.......................|.......................|.......................|.......................|.......................|
.......................|.......................|.......................|.......................|.......................|.......................|.......................|.......................|.......................|.......................|
.......................|.......................|.......................|.......................|.......................|.......................|.......................|.......................|.......................|.......................|
C-0....................|C-0....................|C-0....................|.......................|C-0....................|.......................|.......................|.......................|C-0....................|.......................|
G-1....................|C-3....................|C-3....................|.......................|G-2....80FF............|C-4C0..................|.......................|.......................|C-5A000EA00............|.......................|
.......................|.......................|.......................|.......................|.......................|.......................|.......................|.......................|.......................|.......................|
.......................|.......................|.......................|.......................|.......................|.......................|.......................|.......................|.......................|.......................|
.......................|.......................|.......................|.......................|.......................|.......................|.......................|.......................|.......................|.......................|
.......................|.......................|.......................|.......................|.......................|.......................|.......................|.......................|.......................|.......................|
C-0....................|C-0....................|C-0....................|.......................|C-0....................|.......................|.......................|.......................|C-0....................|.......................|
G-2....................|A-2....................|A-2....................|.......................|G-2....8000............|C-4C0..................|.......................|.......................|C-5A000EA00............|.......................|
.......................|.......................|.......................|.......................|.......................|.......................|.......................|.......................|.......................|.......................|
.......................|.......................|.......................|.......................|.......................|.......................|.......................|.......................|.......................|.......................|
.......................|.......................|.......................|.......................|.......................|.......................|.......................|.......................|.......................|.......................|
.......................|.......................|.......................|.......................|.......................|.......................|.......................|.......................|.......................|.......................|
C-0....................|C-0....................|C-0....................|.......................|C-0....................|.......................|.......................|.......................|C-0....................|.......................|
G-1....................|D-3....8000............|B-2....................|.......................|G-2....80FF............|C-4C0..................|.......................|.......................|C-5A000EA00............|.......................|
.......................|.......................|.......................|.......................|.......................|.......................|.......................|.......................|.......................|.......................|
.......................|.......................|.......................|.......................|.......................|.......................|.......................|.......................|.......................|.......................|
.......................|.......................|.......................|D-3....................|.......................|.......................|.......................|.......................|.......................|.......................|
.......................|.......................|.......................|.......................|.......................|.......................|.......................|.......................|.......................|.......................|
.......................|.......................|.......................|.......................|C-0....................|.......................|.......................|.......................|C-0....................|.......................|
.......................|.......................|.......................|.......................|G-2....8000............|.......................|.......................|.......................|C-5A000EA00............|.......................|
.......................|.......................|.......................|.......................|.......................|.......................|.......................|.......................|.......................|.......................|
.......................|.......................|.......................|.......................|.......................|.......................|.......................|.......................|.......................|.......................|
.......................|.......................|.......................|.......................|.......................|.......................|.......................|.......................|.......................|.......................|
.......................|.......................|.......................|.......................|.......................|.......................|.......................|.......................|.......................|.......................|
C-0....................|C-0....................|C-0....................|.......................|C-0....................|.......................|.......................|.......................|C-0....................|.......................|
G-2....................|.......................|.......................|.......................|G-2....80FF............|C-4C0..................|.......................|.......................|C-5A000EA00............|.......................|
.......................|.......................|.......................|.......................|.......................|.......................|.......................|.......................|.......................|.......................|
.......................|.......................|.......................|C-0....................|.......................|.......................|.......................|.......................|.......................|.......................|
.......................|.......................|.......................|.......................|.......................|.......................|.......................|.......................|.......................|.......................|
.......................|.......................|.......................|.......................|.......................|.......................|.......................|.......................|.......................|.......................|
C-0....................|.......................|.......................|.......................|C-0....................|.......................|.......................|.......................|C-0....................|.......................|
.......................|D-3....................|B-2....................|.......................|G-2....8000............|C-4C0..................|.......................|.......................|C-5A000EA00............|.......................|
.......................|.......................|.......................|.......................|.......................|.......................|.......................|.......................|.......................|.......................|
.......................|.......................|.......................|.......................|.......................|.......................|.......................|.......................|.......................|.......................|
.......................|.......................|.......................|D-3....................|.......................|.......................|.......................|.......................|.......................|.......................|
.......................|.......................|.......................|.......................|.......................|.......................|.......................|.......................|.......................|.......................|
.......................|C-0....................|C-0....................|.......................|C-0....................|.......................|.......................|.......................|C-0....................|.......................|
G-1....................|.......................|.......................|.......................|G-2....80FF............|C-4C1..................|.......................|.......................|C-5A000EA00............|.......................|
.......................|.......................|.......................|.......................|.......................|.......................|.......................|.......................|.......................|.......................|
.......................|.......................|.......................|C-0....................|.......................|.......................|.......................|.......................|.......................|.......................|
.......................|.......................|.......................|.......................|.......................|.......................|.......................|.......................|.......................|.......................|
.......................|.......................|.......................|.......................|.......................|.......................|.......................|.......................|.......................|.......................|
.......................|.......................|.......................|.......................|C-0....................|.......................|.......................|.......................|C-0....................|.......................|
.......................|.......................|.......................|.......................|G-2....8000............|C-4C0..................|.......................|.......................|C-5A000EA00............|.......................|
.......................|.......................|.......................|.......................|.......................|.......................|.......................|.......................|.......................|.......................|
.......................|.......................|.......................|.......................|.......................|.......................|.......................|.......................|.......................|.......................|
.......................|.......................|.......................|.......................|.......................|.......................|.......................|.......................|.......................|.......................|
.......................|.......................|.......................|.......................|.......................|.......................|.......................|.......................|.......................|.......................|
C-0....................|.......................|.......................|.......................|C-0....................|.......................|.......................|.......................|C-0....................|.......................|
G-2....................|D-3....................|B-2....................|.......................|G-2....80FF............|C-4C0..................|.......................|.......................|C-5A000EA00............|.......................|
.......................|.......................|.......................|.......................|.......................|.......................|.......................|.......................|.......................|.......................|
.......................|.......................|.......................|.......................|.......................|.......................|.......................|.......................|.......................|.......................|
.......................|.......................|.......................|D-3....................|.......................|.......................|.......................|.......................|.......................|.......................|
.......................|.......................|.......................|.......................|.......................|.......................|.......................|.......................|.......................|.......................|
C-0....................|.......................|.......................|.......................|C-0....................|.......................|.......................|.......................|C-0....................|.......................|
.......................|.......................|.......................|.......................|G-2....8000............|C-4C0..................|.......................|.......................|C-5A000EA00............|.......................|
.......................|.......................|.......................|.......................|.......................|.......................|.......................|.......................|.......................|.......................|
.......................|.......................|.......................|.......................|.......................|.......................|.......................|.......................|.......................|.......................|
.......................|.......................|.......................|.......................|.......................|.......................|.......................|.......................|.......................|.......................|
.......................|.......................|.......................|.......................|.......................|.......................|.......................|.......................|.......................|.......................|
.......................|C-0....................|C-0....................|.......................|C-0....................|.......................|.......................|.......................|C-0....................|.......................|
F-1....................|F-3....................|C-3....................|.......................|F-2....8080............|C-4C0..................|.......................|.......................|C-5A000EA00............|.......................|
.......................|.......................|.......................|.......................|.......................|.......................|.......................|.......................|.......................|.......................|
.......................|.......................|.......................|C-0....................|.......................|.......................|.......................|.......................|.......................|.......................|
.......................|.......................|.......................|F-3....................|.......................|.......................|.......................|.......................|.......................|.......................|
.......................|.......................|.......................|.......................|.......................|.......................|.......................|.......................|.......................|.......................|
.......................|C-0....................|C-0....................|.......................|C-0....................|.......................|.......................|.......................|C-0....................|.......................|
.......................|D-3....................|.......................|.......................|F-2....................|.......................|.......................|.......................|C-5A000EA00............|.......................|
.......................|.......................|.......................|.......................|.......................|.......................|.......................|.......................|.......................|.......................|
.......................|.......................|.......................|C-0....................|.......................|.......................|.......................|.......................|.......................|.......................|
.......................|.......................|.......................|D-3....................|.......................|.......................|.......................|.......................|.......................|.......................|
.......................|.......................|.......................|.......................|.......................|.......................|.......................|.......................|.......................|.......................|
C-0....................|C-0....................|.......................|.......................|C-0....................|.......................|.......................|.......................|C-0....................|.......................|
F-2....................|F-3....................|C-3....................|.......................|F-2....................|C-4C0..................|.......................|.......................|C-5A000EA00............|.......................|
.......................|.......................|.......................|.......................|.......................|.......................|.......................|.......................|.......................|.......................|
.......................|.......................|.......................|C-0....................|.......................|.......................|.......................|.......................|.......................|.......................|
.......................|.......................|.......................|F-3....................|.......................|.......................|.......................|.......................|.......................|.......................|
.......................|.......................|.......................|.......................|.......................|.......................|.......................|.......................|.......................|.......................|
C-0....................|.......................|.......................|.......................|C-0....................|.......................|.......................|.......................|C-0....................|.......................|
F-2....................|.......................|.......................|.......................|F-2....................|C-4C0..................|.......................|.......................|C-5A000EA00............|.......................|
.......................|.......................|.......................|.......................|.......................|.......................|.......................|.......................|.......................|.......................|
.......................|.......................|.......................|.......................|.......................|.......................|.......................|.......................|.......................|.......................|
.......................|.......................|.......................|.......................|.......................|.......................|.......................|.......................|.......................|.......................|
.......................|.......................|.......................|.......................|.......................|.......................|.......................|.......................|.......................|.......................|
C-0....................|C-0....................|C-0....................|.......................|C-0....................|.......................|.......................|.......................|C-0....................|.......................|
C-2....................|E-3....................|C-3....................|.......................|C-2....................|C-4C1..................|.......................|.......................|C-5A000EA00............|.......................|
.......................|.......................|.......................|.......................|.......................|.......................|.......................|.......................|.......................|.......................|
.......................|.......................|.......................|C-0....................|.......................|.......................|.......................|.......................|.......................|.......................|
.......................|.......................|.......................|E-3....................|.......................|.......................|.......................|.......................|.......................|.......................|
.......................|.......................|.......................|.......................|.......................|.......................|.......................|.......................|.......................|.......................|
C-0....................|C-0....................|C-0....................|.......................|C-0....................|.......................|.......................|.......................|C-0....................|.......................|
C-3....................|E-3....................|C-3....................|.......................|C-2....................|C-4C0..................|.......................|.......................|C-5A000EA00............|.......................|
.......................|.......................|.......................|.......................|.......................|.......................|.......................|.......................|.......................|.......................|
C-0....................|.......................|.......................|C-0....................|.......................|.......................|.......................|.......................|.......................|.......................|
.......................|.......................|.......................|E-3....................|.......................|.......................|.......................|.......................|.......................|.......................|
.......................|.......................|.......................|.......................|.......................|.......................|.......................|.......................|.......................|.......................|
.......................|C-0....................|C-0....................|.......................|C-0....................|.......................|.......................|.......................|C-0....................|.......................|
C-3....................|.......................|.......................|.......................|C-2....................|C-4C0..................|.......................|.......................|C-5A000EA00............|.......................|
.......................|.......................|.......................|.......................|.......................|.......................|.......................|.......................|.......................|.......................|
C-0....................|.......................|.......................|C-0....................|.......................|.......................|.......................|.......................|.......................|.......................|
.......................|.......................|.......................|.......................|.......................|.......................|.......................|.......................|.......................|.......................|
.......................|.......................|.......................|.......................|.......................|.......................|.......................|.......................|.......................|.......................|
.......................|.......................|.......................|.......................|C-0....................|.......................|.......................|.......................|C-0....................|.......................|
C-3....................|E-3....................|C-3....................|.......................|C-2....................|C-4C0..................|.......................|.......................|C-5A000EA00............|.......................|
.......................|.......................|.......................|.......................|.......................|.......................|.......................|.......................|.......................|.......................|
C-0....................|.......................|.......................|.......................|.......................|.......................|.......................|.......................|.......................|.......................|
.......................|.......................|.......................|E-3....................|.......................|.......................|.......................|.......................|.......................|.......................|
.......................|.......................|.......................|.......................|.......................|.......................|.......................|.......................|.......................|.......................|
.......................|C-0....................|C-0....................|.......................|C-0....................|.......................|.......................|.......................|C-0....................|.......................|
G-1....................|D-3....................|B-2....................|.......................|G-2....80FF............|C-4C0..................|.......................|.......................|C-5A000EA00............|.......................|
.......................|.......................|.......................|.......................|.......................|.......................|.......................|.......................|.......................|.......................|
.......................|.......................|.......................|C-0....................|.......................|.......................|.......................|.......................|.......................|.......................|
.......................|.......................|.......................|D-3....................|.......................|.......................|.......................|.......................|.......................|.......................|
.......................|.......................|.......................|.......................|.......................|.......................|.......................|.......................|.......................|.......................|
.......................|.......................|.......................|.......................|C-0....................|.......................|.......................|.......................|C-0....................|.......................|
.......................|.......................|.......................|.......................|G-2....8000............|.......................|.......................|.......................|C-5A000EA00............|.......................|
.......................|.......................|.......................|.......................|.......................|.......................|.......................|.......................|.......................|.......................|
.......................|.......................|.......................|.......................|.......................|.......................|.......................|.......................|.......................|.......................|
.......................|.......................|.......................|.......................|.......................|.......................|.......................|.......................|.......................|.......................|
.......................|.......................|.......................|.......................|.......................|.......................|.......................|.......................|.......................|.......................|
C-0....................|C-0....................|C-0....................|.......................|C-0....................|.......................|.......................|.......................|C-0....................|.......................|
G-2....................|.......................|.......................|.......................|G-2....80FF............|C-4C0..................|.......................|.......................|C-5A000EA00............|.......................|
.......................|.......................|.......................|.......................|.......................|.......................|.......................|.......................|.......................|.......................|
.......................|.......................|.......................|C-0....................|.......................|.......................|.......................|.......................|.......................|.......................|
.......................|.......................|.......................|.......................|.......................|.......................|.......................|.......................|.......................|.......................|
.......................|.......................|.......................|.......................|.......................|.......................|.......................|.......................|.......................|.......................|
C-0....................|.......................|.......................|.......................|C-0....................|.......................|.......................|.......................|C-0....................|.......................|
.......................|D-3....................|B-2....................|.......................|G-2....8000............|C-4C0..................|.......................|.......................|C-5A000EA00............|.......................|
.......................|.......................|.......................|.......................|.......................|.......................|.......................|.......................|.......................|.......................|
.......................|.......................|.......................|.......................|.......................|.......................|.......................|.......................|.......................|.......................|
.......................|.......................|.......................|D-3....................|.......................|.......................|.......................|.......................|.......................|.......................|
.......................|.......................|.......................|.......................|.......................|.......................|.......................|.......................|.......................|.......................|
.......................|C-0....................|C-0....................|.......................|C-0....................|.......................|.......................|.......................|C-0....................|.......................|
G-1....................|.......................|.......................|.......................|G-2....80FF............|C-4C1..................|.......................|.......................|C-5A000EA00............|.......................|
.......................|.......................|.......................|.......................|.......................|.......................|.......................|.......................|.......................|.......................|
.......................|.......................|.......................|C-0....................|.......................|.......................|.......................|.......................|.......................|.......................|
.......................|.......................|.......................|.......................|.......................|.......................|.......................|.......................|.......................|.......................|
.......................|.......................|.......................|.......................|.......................|.......................|.......................|.......................|.......................|.......................|
.......................|.......................|.......................|.......................|C-0....................|.......................|.......................|.......................|C-0....................|.......................|
.......................|.......................|.......................|.......................|G-2....8000............|C-4C0..................|.......................|.......................|C-5A000EA00............|.......................|
.......................|.......................|.......................|.......................|.......................|.......................|.......................|.......................|.......................|.......................|
.......................|.......................|.......................|.......................|.......................|.......................|.......................|.......................|.......................|.......................|
.......................|.......................|.......................|.......................|.......................|.......................|.......................|.......................|.......................|.......................|
.......................|.......................|.......................|.......................|.......................|.......................|.......................|.......................|.......................|.......................|
C-0....................|.......................|.......................|.......................|C-0....................|.......................|.......................|.......................|C-0....................|.......................|
G-2....................|D-3....................|B-2....................|.......................|G-2....80FF............|C-4C0..................|.......................|.......................|C-5A000EA00............|.......................|
.......................|.......................|.......................|.......................|.......................|.......................|.......................|.......................|.......................|.......................|
.......................|.......................|.......................|.......................|.......................|.......................|.......................|.......................|.......................|.......................|
.......................|.......................|.......................|D-3....................|.......................|.......................|.......................|.......................|.......................|.......................|
.......................|.......................|.......................|.......................|.......................|.......................|.......................|.......................|.......................|.......................|
C-0....................|.......................|.......................|.......................|C-0....................|.......................|.......................|.......................|C-0....................|.......................|
.......................|.......................|.......................|.......................|G-2....8000............|C-4C0..................|.......................|.......................|C-5A000EA00............|.......................|
.......................|.......................|.......................|.......................|.......................|.......................|.......................|.......................|.......................|.......................|
.......................|.......................|.......................|.......................|.......................|.......................|.......................|.......................|.......................|.......................|
.......................|.......................|.......................|.......................|.......................|.......................|.......................|.......................|.......................|.......................|
.......................|.......................|.......................|.......................|.......................|.......................|.......................|.......................|.......................|.......................|
.......................|C-0....................|C-0....................|.......................|C-0....................|.......................|.......................|.......................|C-0....................|.......................|
G-1....................|.......................|.......................|.......................|G-2....80FF............|C-4C0..................|.......................|.......................|C-5A000EA00............|.......................|
.......................|.......................|.......................|.......................|.......................|.......................|.......................|.......................|.......................|.......................|
.......................|.......................|.......................|C-0....................|.......................|.......................|.......................|.......................|.......................|.......................|
.......................|.......................|.......................|.......................|.......................|.......................|.......................|.......................|.......................|.......................|
.......................|.......................|.......................|.......................|.......................|.......................|.......................|.......................|.......................|.......................|
.......................|.......................|.......................|.......................|C-0....................|.......................|.......................|.......................|C-0....................|.......................|
.......................|.......................|.......................|.......................|G-2....8000............|.......................|.......................|.......................|C-5A000EA00............|.......................|
.......................|.......................|.......................|.......................|.......................|.......................|.......................|.......................|.......................|.......................|
.......................|.......................|.......................|.......................|.......................|.......................|.......................|.......................|.......................|.......................|
.......................|.......................|.......................|.......................|.......................|.......................|.......................|.......................|.......................|.......................|
.......................|.......................|.......................|.......................|.......................|.......................|.......................|.......................|.......................|.......................|
C-0....................|.......................|.......................|.......................|C-0....................|.......................|.......................|.......................|C-0....................|.......................|
G-2....................|D-3....................|B-2....................|.......................|G-2....80FF............|C-4C0..................|.......................|.......................|C-5A000EA00............|.......................|
.......................|.......................|.......................|.......................|.......................|.......................|.......................|.......................|.......................|.......................|
.......................|.......................|.......................|.......................|.......................|.......................|.......................|.......................|.......................|.......................|
.......................|.......................|.......................|D-3....................|.......................|.......................|.......................|.......................|.......................|.......................|
.......................|.......................|.......................|.......................|.......................|.......................|.......................|.......................|.......................|.......................|
C-0....................|.......................|.......................|.......................|C-0....................|.......................|.......................|.......................|C-0....................|.......................|
.......................|.......................|.......................|.......................|G-2....8000............|C-4C0..................|.......................|.......................|C-5A000EA00............|.......................|
.......................|.......................|.......................|.......................|.......................|.......................|.......................|.......................|.......................|.......................|
.......................|.......................|.......................|.......................|.......................|.......................|.......................|.......................|.......................|.......................|
.......................|.......................|.......................|.......................|.......................|.......................|.......................|.......................|.......................|.......................|
.......................|.......................|.......................|.......................|.......................|.......................|.......................|.......................|.......................|.......................|
.......................|C-0....................|C-0....................|.......................|C-0....................|.......................|.......................|.......................|C-0....................|.......................|
G-1....................|B-2....8080............|B-2....................|.......................|G-2....80FF............|C-4C1..................|.......................|.......................|C-5A000EA00............|.......................|
.......................|.......................|.......................|.......................|.......................|.......................|.......................|.......................|.......................|.......................|
.......................|.......................|.......................|C-0....................|.......................|.......................|.......................|.......................|.......................|.......................|
.......................|.......................|.......................|.......................|.......................|.......................|.......................|.......................|.......................|.......................|
.......................|.......................|.......................|.......................|.......................|.......................|.......................|.......................|.......................|.......................|
C-0....................|C-0....................|C-0....................|.......................|C-0....................|.......................|.......................|.......................|C-0....................|.......................|
G-2....................|G-2....................|G-2....................|.......................|G-2....8000............|C-4C0..................|.......................|.......................|C-5A000EA00............|.......................|
.......................|.......................|.......................|.......................|.......................|.......................|.......................|.......................|.......................|.......................|
.......................|.......................|.......................|.......................|.......................|.......................|.......................|.......................|.......................|.......................|
.......................|.......................|.......................|.......................|.......................|.......................|.......................|.......................|.......................|.......................|
.......................|.......................|.......................|.......................|.......................|.......................|.......................|.......................|.......................|.......................|
C-0....................|C-0....................|C-0....................|.......................|C-0....................|.......................|.......................|.......................|C-0....................|.......................|
G-1....................|C-3....................|C-3....................|.......................|G-2....80FF............|C-4C0..................|.......................|.......................|C-5A000EA00............|.......................|
.......................|.......................|.......................|.......................|.......................|.......................|.......................|.......................|.......................|.......................|
.......................|.......................|.......................|.......................|.......................|.......................|.......................|.......................|.......................|.......................|
.......................|.......................|.......................|.......................|.......................|.......................|.......................|.......................|.......................|.......................|
.......................|.......................|.......................|.......................|.......................|.......................|.......................|.......................|.......................|.......................|
C-0....................|C-0....................|C-0....................|.......................|C-0....................|.......................|.......................|.......................|C-0....................|.......................|
G-2....................|A-2....................|A-2....................|.......................|G-2....8000............|C-4C0..................|.......................|.......................|C-5A000EA00............|.......................|
.......................|.......................|.......................|.......................|.......................|.......................|.......................|.......................|.......................|.......................|
.......................|.......................|.......................|.......................|.......................|.......................|.......................|.......................|.......................|.......................|
.......................|.......................|.......................|.......................|.......................|.......................|.......................|.......................|.......................|.......................|
.......................|.......................|.......................|.......................|.......................|.......................|.......................|.......................|.......................|.......................|
C-0....................|C-0....................|C-0....................|.......................|C-0....................|.......................|.......................|.......................|C-0....................|.......................|
G-1....................|D-3....8000............|B-2....................|.......................|G-2....80FF............|C-4C0..................|.......................|.......................|C-5A000EA00............|.......................|
.......................|.......................|.......................|.......................|.......................|.......................|.......................|.......................|.......................|.......................|
.......................|.......................|.......................|.......................|.......................|.......................|.......................|.......................|.......................|.......................|
.......................|.......................|.......................|D-3....................|.......................|.......................|.......................|.......................|.......................|.......................|
.......................|.......................|.......................|.......................|.......................|.......................|.......................|.......................|.......................|.......................|
.......................|.......................|.......................|.......................|C-0....................|.......................|.......................|.......................|C-0....................|.......................|
.......................|.......................|.......................|.......................|G-2....8000............|.......................|.......................|.......................|C-5A000EA00............|.......................|
.......................|.......................|.......................|.......................|.......................|.......................|.......................|.......................|.......................|.......................|
.......................|.......................|.......................|.......................|.......................|.......................|.......................|.......................|.......................|.......................|
.......................|.......................|.......................|.......................|.......................|.......................|.......................|.......................|.......................|.......................|
.......................|.......................|.......................|.......................|.......................|.......................|.......................|.......................|.......................|.......................|
C-0....................|C-0....................|C-0....................|.......................|C-0....................|.......................|.......................|.......................|C-0....................|.......................|
G-2....................|.......................|.......................|.......................|G-2....80FF............|C-4C0..................|.......................|.......................|C-5A000EA00............|.......................|
.......................|.......................|.......................|.......................|.......................|.......................|.......................|.......................|.......................|.......................|
.......................|.......................|.......................|C-0....................|.......................|.......................|.......................|.......................|.......................|.......................|
.......................|.......................|.......................|.......................|.......................|.......................|.......................|.......................|.......................|.......................|
.......................|.......................|.......................|.......................|.......................|.......................|.......................|.......................|.......................|.......................|
C-0....................|.......................|.......................|.......................|C-0....................|.......................|.......................|.......................|C-0....................|.......................|
.......................|D-3....................|B-2....................|.......................|G-2....8000............|C-4C0..................|.......................|.......................|C-5A000EA00............|.......................|
.......................|.......................|.......................|.......................|.......................|.......................|.......................|.......................|.......................|.......................|
.......................|.......................|.......................|.......................|.......................|.......................|.......................|.......................|.......................|.......................|
.......................|.......................|.......................|D-3....................|.......................|.......................|.......................|.......................|.......................|.......................|
.......................|.......................|.......................|.......................|.......................|.......................|.......................|.......................|.......................|.......................|
.......................|C-0....................|C-0....................|.......................|C-0....................|.......................|.......................|.......................|C-0....................|.......................|
G-1....................|.......................|.......................|.......................|G-2....80FF............|C-4C1..................|.......................|.......................|C-5A000EA00............|.......................|
.......................|.......................|.......................|.......................|.......................|.......................|.......................|.......................|.......................|.......................|
.......................|.......................|.......................|C-0....................|.......................|.......................|.......................|.......................|.......................|.......................|
.......................|.......................|.......................|.......................|.......................|.......................|.......................|.......................|.......................|.......................|
.......................|.......................|.......................|.......................|.......................|.......................|.......................|.......................|.......................|.......................|
.......................|.......................|.......................|.......................|C-0....................|.......................|.......................|.......................|C-0....................|.......................|
.......................|.......................|.......................|.......................|G-2....8000............|C-4C0..................|.......................|.......................|C-5A000EA00............|.......................|
.......................|.......................|.......................|.......................|.......................|.......................|.......................|.......................|.......................|.......................|
org.tildearrow.furnace - Pattern Data (219)
0
.......................|.......................|.......................|.......................|.......................|.......................|.......................|.......................|.......................|.......................|
.......................|.......................|.......................|.......................|.......................|.......................|.......................|.......................|.......................|.......................|
.......................|.......................|.......................|.......................|.......................|.......................|.......................|.......................|.......................|.......................|
C-0....................|.......................|.......................|.......................|C-0....................|.......................|.......................|.......................|C-0....................|.......................|
G-2....................|D-3....................|B-2....................|.......................|G-2....80FF............|C-4C0..................|.......................|.......................|C-5A000EA00............|.......................|
.......................|.......................|.......................|.......................|.......................|.......................|.......................|.......................|.......................|.......................|
.......................|.......................|.......................|.......................|.......................|.......................|.......................|.......................|.......................|.......................|
.......................|.......................|.......................|D-3....................|.......................|.......................|.......................|.......................|.......................|.......................|
.......................|.......................|.......................|.......................|.......................|.......................|.......................|.......................|.......................|.......................|
C-0....................|.......................|.......................|.......................|C-0....................|.......................|.......................|.......................|C-0....................|.......................|
.......................|.......................|.......................|.......................|G-2....8000............|C-4C0..................|.......................|.......................|C-5A000EA00............|.......................|
.......................|.......................|.......................|.......................|.......................|.......................|.......................|.......................|.......................|.......................|
.......................|.......................|.......................|.......................|.......................|.......................|.......................|.......................|.......................|.......................|
.......................|.......................|.......................|.......................|.......................|.......................|.......................|.......................|.......................|.......................|
.......................|.......................|.......................|.......................|.......................|.......................|.......................|.......................|.......................|.......................|
.......................|C-0....................|C-0....................|.......................|C-0....................|.......................|.......................|.......................|C-0....................|.......................|
F-1....................|F-3....................|C-3....................|.......................|F-2....8080............|C-4C0..................|.......................|.......................|C-5A000EA00............|.......................|
.......................|.......................|.......................|.......................|.......................|.......................|.......................|.......................|.......................|.......................|
.......................|.......................|.......................|C-0....................|.......................|.......................|.......................|.......................|.......................|.......................|
.......................|.......................|.......................|F-3....................|.......................|.......................|.......................|.......................|.......................|.......................|
.......................|.......................|.......................|.......................|.......................|.......................|.......................|.......................|.......................|.......................|
.......................|C-0....................|C-0....................|.......................|C-0....................|.......................|.......................|.......................|C-0....................|.......................|
.......................|D-3....................|.......................|.......................|F-2....................|.......................|.......................|.......................|C-5A000EA00............|.......................|
.......................|.......................|.......................|.......................|.......................|.......................|.......................|.......................|.......................|.......................|
.......................|.......................|.......................|C-0....................|.......................|.......................|.......................|.......................|.......................|.......................|
.......................|.......................|.......................|D-3....................|.......................|.......................|.......................|.......................|.......................|.......................|
.......................|.......................|.......................|.......................|.......................|.......................|.......................|.......................|.......................|.......................|
C-0....................|C-0....................|.......................|.......................|C-0....................|.......................|.......................|.......................|C-0....................|.......................|
F-2....................|F-3....................|C-3....................|.......................|F-2....................|C-4C0..................|.......................|.......................|C-5A000EA00............|.......................|
.......................|.......................|.......................|.......................|.......................|.......................|.......................|.......................|.......................|.......................|
.......................|.......................|.......................|C-0....................|.......................|.......................|.......................|.......................|.......................|.......................|
.......................|.......................|.......................|F-3....................|.......................|.......................|.......................|.......................|.......................|.......................|
.......................|.......................|.......................|.......................|.......................|.......................|.......................|.......................|.......................|.......................|
C-0....................|.......................|.......................|.......................|C-0....................|.......................|.......................|.......................|C-0....................|.......................|
F-2....................|.......................|.......................|.......................|F-2....................|C-4C0..................|.......................|.......................|C-5A000EA00............|.......................|
.......................|.......................|.......................|.......................|.......................|.......................|.......................|.......................|.......................|.......................|
.......................|.......................|.......................|.......................|.......................|.......................|.......................|.......................|.......................|.......................|
.......................|.......................|.......................|.......................|.......................|.......................|.......................|.......................|.......................|.......................|
.......................|.......................|.......................|.......................|.......................|.......................|.......................|.......................|.......................|.......................|
C-0....................|C-0....................|C-0....................|.......................|C-0....................|.......................|.......................|.......................|C-0....................|.......................|
C-2....................|E-3....................|C-3....................|.......................|C-2....................|C-4C1..................|.......................|.......................|C-5A000EA00............|.......................|
.......................|.......................|.......................|.......................|.......................|.......................|.......................|.......................|.......................|.......................|
.......................|.......................|.......................|C-0....................|.......................|.......................|.......................|.......................|.......................|.......................|
.......................|.......................|.......................|E-3....................|.......................|.......................|.......................|.......................|.......................|.......................|
.......................|.......................|.......................|.......................|.......................|.......................|.......................|.......................|.......................|.......................|
C-0....................|C-0....................|C-0....................|.......................|C-0....................|.......................|.......................|.......................|C-0....................|.......................|
C-3....................|E-3....................|C-3....................|.......................|C-2....................|C-4C0..................|.......................|.......................|C-5A000EA00............|.......................|
.......................|.......................|.......................|.......................|.......................|.......................|.......................|.......................|.......................|.......................|
C-0....................|.......................|.......................|C-0....................|.......................|.......................|.......................|.......................|.......................|.......................|
.......................|.......................|.......................|E-3....................|.......................|.......................|.......................|.......................|.......................|.......................|
.......................|.......................|.......................|.......................|.......................|.......................|.......................|.......................|.......................|.......................|
.......................|C-0....................|C-0....................|.......................|C-0....................|.......................|.......................|.......................|C-0....................|.......................|
C-3....................|.......................|.......................|.......................|C-2....................|C-4C0..................|.......................|.......................|C-5A000EA00............|.......................|
.......................|.......................|.......................|.......................|.......................|.......................|.......................|.......................|.......................|.......................|
C-0....................|.......................|.......................|C-0....................|.......................|.......................|.......................|.......................|.......................|.......................|
.......................|.......................|.......................|.......................|.......................|.......................|.......................|.......................|.......................|.......................|
.......................|.......................|.......................|.......................|.......................|.......................|.......................|.......................|.......................|.......................|
.......................|.......................|.......................|.......................|C-0....................|.......................|.......................|.......................|C-0....................|.......................|
C-3....................|E-3....................|C-3....................|.......................|C-2....................|C-4C0..................|.......................|.......................|C-5A000EA00............|.......................|
.......................|.......................|.......................|.......................|.......................|.......................|.......................|.......................|.......................|.......................|
C-0....................|.......................|.......................|.......................|.......................|.......................|.......................|.......................|.......................|.......................|
.......................|.......................|.......................|E-3....................|.......................|.......................|.......................|.......................|.......................|.......................|
.......................|.......................|.......................|.......................|.......................|.......................|.......................|.......................|.......................|.......................|
.......................|C-0....................|C-0....................|.......................|C-0....................|.......................|.......................|.......................|C-0....................|.......................|
D-2....................|D-3....................|A-2....................|.......................|D-2....80FF............|C-4C0..................|.......................|.......................|C-5A000EA00............|.......................|
.......................|.......................|.......................|.......................|.......................|.......................|.......................|.......................|.......................|.......................|
.......................|.......................|.......................|C-0....................|.......................|.......................|.......................|.......................|.......................|.......................|
.......................|.......................|.......................|D-3....................|.......................|.......................|.......................|.......................|.......................|.......................|
.......................|.......................|.......................|.......................|.......................|.......................|.......................|.......................|.......................|.......................|
.......................|.......................|.......................|.......................|C-0....................|.......................|.......................|.......................|C-0....................|.......................|
.......................|.......................|.......................|.......................|D-2....8000............|.......................|.......................|.......................|C-5A000EA00............|.......................|
.......................|.......................|.......................|.......................|.......................|.......................|.......................|.......................|.......................|.......................|
.......................|.......................|.......................|.......................|.......................|.......................|.......................|.......................|.......................|.......................|
.......................|.......................|.......................|.......................|.......................|.......................|.......................|.......................|.......................|.......................|
.......................|.......................|.......................|.......................|.......................|.......................|.......................|.......................|.......................|.......................|
C-0....................|C-0....................|C-0....................|.......................|C-0....................|.......................|.......................|.......................|C-0....................|.......................|
D-3....................|.......................|.......................|.......................|D-2....80FF............|C-4C0..................|.......................|.......................|C-5A000EA00............|.......................|
.......................|.......................|.......................|.......................|.......................|.......................|.......................|.......................|.......................|.......................|
.......................|.......................|.......................|C-0....................|.......................|.......................|.......................|.......................|.......................|.......................|
.......................|.......................|.......................|.......................|.......................|.......................|.......................|.......................|.......................|.......................|
.......................|.......................|.......................|.......................|.......................|.......................|.......................|.......................|.......................|.......................|
C-0....................|.......................|.......................|.......................|C-0....................|.......................|.......................|.......................|C-0....................|.......................|
.......................|D-3....................|A-2....................|.......................|D-2....8000............|C-4C0..................|.......................|.......................|C-5A000EA00............|.......................|
.......................|.......................|.......................|.......................|.......................|.......................|.......................|.......................|.......................|.......................|
.......................|.......................|.......................|.......................|.......................|.......................|.......................|.......................|.......................|.......................|
.......................|.......................|.......................|D-3....................|.......................|.......................|.......................|.......................|.......................|.......................|
.......................|.......................|.......................|.......................|.......................|.......................|.......................|.......................|.......................|.......................|
.......................|C-0....................|C-0....................|.......................|C-0....................|.......................|.......................|.......................|C-0....................|.......................|
D-2....................|.......................|.......................|.......................|D-2....80FF............|C-4C1..................|.......................|.......................|C-5A000EA00............|.......................|
.......................|.......................|.......................|.......................|.......................|.......................|.......................|.......................|.......................|.......................|
.......................|.......................|.......................|C-0....................|.......................|.......................|.......................|.......................|.......................|.......................|
.......................|.......................|.......................|.......................|.......................|.......................|.......................|.......................|.......................|.......................|
.......................|.......................|.......................|.......................|.......................|.......................|.......................|.......................|.......................|.......................|
.......................|.......................|.......................|.......................|C-0....................|.......................|.......................|.......................|C-0....................|.......................|
.......................|.......................|.......................|.......................|D-2....8000............|C-4C0..................|.......................|.......................|C-5A000EA00............|.......................|
.......................|.......................|.......................|.......................|.......................|.......................|.......................|.......................|.......................|.......................|
.......................|.......................|.......................|.......................|.......................|.......................|.......................|.......................|.......................|.......................|
.......................|.......................|.......................|.......................|.......................|.......................|.......................|.......................|.......................|.......................|
.......................|.......................|.......................|.......................|.......................|.......................|.......................|.......................|.......................|.......................|
C-0....................|.......................|.......................|.......................|C-0....................|.......................|.......................|.......................|C-0....................|.......................|
D-3....................|D-3....................|A-2....................|.......................|D-2....80FF............|C-4C0..................|.......................|.......................|C-5A000EA00............|.......................|
.......................|.......................|.......................|.......................|.......................|.......................|.......................|.......................|.......................|.......................|
.......................|.......................|.......................|.......................|.......................|.......................|.......................|.......................|.......................|.......................|
.......................|.......................|.......................|D-3....................|.......................|.......................|.......................|.......................|.......................|.......................|
.......................|.......................|.......................|.......................|.......................|.......................|.......................|.......................|.......................|.......................|
C-0....................|.......................|.......................|.......................|C-0....................|.......................|.......................|.......................|C-0....................|.......................|
.......................|.......................|.......................|.......................|D-2....8000............|C-4C0..................|.......................|.......................|C-5A000EA00............|.......................|
.......................|.......................|.......................|.......................|.......................|.......................|.......................|.......................|.......................|.......................|
.......................|.......................|.......................|.......................|.......................|.......................|.......................|.......................|.......................|.......................|
.......................|.......................|.......................|.......................|.......................|.......................|.......................|.......................|.......................|.......................|
.......................|.......................|.......................|.......................|.......................|.......................|.......................|.......................|.......................|.......................|
.......................|C-0....................|C-0....................|.......................|C-0....................|.......................|.......................|.......................|C-0....................|.......................|
D-2....................|.......................|.......................|.......................|D-2....80FF............|C-4C0..................|.......................|.......................|C-5A000EA00............|.......................|
.......................|.......................|.......................|.......................|.......................|.......................|.......................|.......................|.......................|.......................|
.......................|.......................|.......................|C-0....................|.......................|.......................|.......................|.......................|.......................|.......................|
.......................|.......................|.......................|.......................|.......................|.......................|.......................|.......................|.......................|.......................|
.......................|.......................|.......................|.......................|.......................|.......................|.......................|.......................|.......................|.......................|
.......................|.......................|.......................|.......................|C-0....................|.......................|.......................|.......................|C-0....................|.......................|
.......................|.......................|.......................|.......................|D-2....8000............|.......................|.......................|.......................|C-5A000EA00............|.......................|
.......................|.......................|.......................|.......................|.......................|.......................|.......................|.......................|.......................|.......................|
.......................|.......................|.......................|.......................|.......................|.......................|.......................|.......................|.......................|.......................|
.......................|.......................|.......................|.......................|.......................|.......................|.......................|.......................|.......................|.......................|
.......................|.......................|.......................|.......................|.......................|.......................|.......................|.......................|.......................|.......................|
C-0....................|.......................|.......................|.......................|C-0....................|.......................|.......................|.......................|C-0....................|.......................|
D-3....................|D-3....................|A-2....................|.......................|D-2....80FF............|C-4C0..................|.......................|.......................|C-5A000EA00............|.......................|
.......................|.......................|.......................|.......................|.......................|.......................|.......................|.......................|.......................|.......................|
.......................|.......................|.......................|.......................|.......................|.......................|.......................|.......................|.......................|.......................|
.......................|.......................|.......................|D-3....................|.......................|.......................|.......................|.......................|.......................|.......................|
.......................|.......................|.......................|.......................|.......................|.......................|.......................|.......................|.......................|.......................|
C-0....................|.......................|.......................|.......................|C-0....................|.......................|.......................|.......................|C-0....................|.......................|
.......................|.......................|.......................|.......................|D-2....8000............|C-4C0..................|.......................|.......................|C-5A000EA00............|.......................|
.......................|.......................|.......................|.......................|.......................|.......................|.......................|.......................|.......................|.......................|
.......................|.......................|.......................|.......................|.......................|.......................|.......................|.......................|.......................|.......................|
.......................|.......................|.......................|.......................|.......................|.......................|.......................|.......................|.......................|.......................|
.......................|.......................|.......................|.......................|.......................|.......................|.......................|.......................|.......................|.......................|
.......................|C-0....................|C-0....................|.......................|C-0....................|.......................|.......................|.......................|C-0....................|.......................|
D-2....................|B-2....8080............|E-3....................|.......................|D-2....80FF............|C-4C1..................|.......................|.......................|C-5A000EA00............|.......................|
.......................|.......................|.......................|.......................|.......................|.......................|.......................|.......................|.......................|.......................|
.......................|.......................|.......................|C-0....................|.......................|.......................|.......................|.......................|.......................|.......................|
.......................|.......................|.......................|.......................|.......................|.......................|.......................|.......................|.......................|.......................|
.......................|.......................|.......................|.......................|.......................|.......................|.......................|.......................|.......................|.......................|
C-0....................|C-0....................|C-0....................|.......................|C-0....................|.......................|.......................|.......................|C-0....................|.......................|
D-3....................|G-2....................|F-3....................|.......................|D-2....8000............|C-4C0..................|.......................|.......................|C-5A000EA00............|.......................|
.......................|.......................|.......................|.......................|.......................|.......................|.......................|.......................|.......................|.......................|
.......................|.......................|.......................|.......................|.......................|.......................|.......................|.......................|.......................|.......................|
.......................|.......................|.......................|.......................|.......................|.......................|.......................|.......................|.......................|.......................|
.......................|.......................|.......................|.......................|.......................|.......................|.......................|.......................|.......................|.......................|
C-0....................|C-0....................|C-0....................|.......................|C-0....................|.......................|.......................|.......................|C-0....................|.......................|
D-2....................|C-3....................|E-3....................|.......................|D-2....80FF............|C-4C0..................|.......................|.......................|C-5A000EA00............|.......................|
.......................|.......................|.......................|.......................|.......................|.......................|.......................|.......................|.......................|.......................|
.......................|.......................|.......................|.......................|.......................|.......................|.......................|.......................|.......................|.......................|
.......................|.......................|.......................|.......................|.......................|.......................|.......................|.......................|.......................|.......................|
.......................|.......................|.......................|.......................|.......................|.......................|.......................|.......................|.......................|.......................|
C-0....................|C-0....................|C-0....................|.......................|C-0....................|.......................|.......................|.......................|C-0....................|.......................|
D-3....................|A-2....................|C-3....................|.......................|D-2....8000............|C-4C0..................|.......................|.......................|C-5A000EA00............|.......................|
.......................|.......................|.......................|.......................|.......................|.......................|.......................|.......................|.......................|.......................|
.......................|.......................|.......................|.......................|.......................|.......................|.......................|.......................|.......................|.......................|
.......................|.......................|.......................|.......................|.......................|.......................|.......................|.......................|.......................|.......................|
.......................|.......................|.......................|.......................|.......................|.......................|.......................|.......................|.......................|.......................|
C-0....................|C-0....................|C-0....................|.......................|C-0....................|.......................|.......................|.......................|C-0....................|.......................|
D-2....................|D-3....8000............|A-2....................|.......................|D-2....80FF............|C-4C0..................|.......................|.......................|C-5A000EA00............|.......................|
.......................|.......................|.......................|.......................|.......................|.......................|.......................|.......................|.......................|.......................|
.......................|.......................|.......................|.......................|.......................|.......................|.......................|.......................|.......................|.......................|
.......................|.......................|.......................|D-3....................|.......................|.......................|.......................|.......................|.......................|.......................|
.......................|.......................|.......................|.......................|.......................|.......................|.......................|.......................|.......................|.......................|
.......................|.......................|.......................|.......................|C-0....................|.......................|.......................|.......................|C-0....................|.......................|
.......................|.......................|.......................|.......................|D-2....8000............|.......................|.......................|.......................|C-5A000EA00............|.......................|
.......................|.......................|.......................|.......................|.......................|.......................|.......................|.......................|.......................|.......................|
.......................|.......................|.......................|.......................|.......................|.......................|.......................|.......................|.......................|.......................|
.......................|.......................|.......................|.......................|.......................|.......................|.......................|.......................|.......................|.......................|
.......................|.......................|.......................|.......................|.......................|.......................|.......................|.......................|.......................|.......................|
C-0....................|C-0....................|C-0....................|.......................|C-0....................|.......................|.......................|.......................|C-0....................|.......................|
D-3....................|.......................|.......................|.......................|D-2....80FF............|C-4C0..................|.......................|.......................|C-5A000EA00............|.......................|
.......................|.......................|.......................|.......................|.......................|.......................|.......................|.......................|.......................|.......................|
.......................|.......................|.......................|C-0....................|.......................|.......................|.......................|.......................|.......................|.......................|
.......................|.......................|.......................|.......................|.......................|.......................|.......................|.......................|.......................|.......................|
.......................|.......................|.......................|.......................|.......................|.......................|.......................|.......................|.......................|.......................|
C-0....................|.......................|.......................|.......................|C-0....................|.......................|.......................|.......................|C-0....................|.......................|
.......................|D-3....................|A-2....................|.......................|D-2....8000............|C-4C0..................|.......................|.......................|C-5A000EA00............|.......................|
.......................|.......................|.......................|.......................|.......................|.......................|.......................|.......................|.......................|.......................|
.......................|.......................|.......................|.......................|.......................|.......................|.......................|.......................|.......................|.......................|
.......................|.......................|.......................|D-3....................|.......................|.......................|.......................|.......................|.......................|.......................|
.......................|.......................|.......................|.......................|.......................|.......................|.......................|.......................|.......................|.......................|
.......................|C-0....................|C-0....................|.......................|C-0....................|.......................|.......................|.......................|C-0....................|.......................|
D-2....................|.......................|.......................|.......................|D-2....80FF............|C-4C1..................|.......................|.......................|C-5A000EA00............|.......................|
.......................|.......................|.......................|.......................|.......................|.......................|.......................|.......................|.......................|.......................|
.......................|.......................|.......................|C-0....................|.......................|.......................|.......................|.......................|.......................|.......................|
.......................|.......................|.......................|.......................|.......................|.......................|.......................|.......................|.......................|.......................|
.......................|.......................|.......................|.......................|.......................|.......................|.......................|.......................|.......................|.......................|
.......................|.......................|.......................|.......................|C-0....................|.......................|.......................|.......................|C-0....................|.......................|
.......................|.......................|.......................|.......................|D-2....8000............|C-4C0..................|.......................|.......................|C-5A000EA00............|.......................|
.......................|.......................|.......................|.......................|.......................|.......................|.......................|.......................|.......................|.......................|
.......................|.......................|.......................|.......................|.......................|.......................|.......................|.......................|.......................|.......................|
.......................|.......................|.......................|.......................|.......................|.......................|.......................|.......................|.......................|.......................|
.......................|.......................|.......................|.......................|.......................|.......................|.......................|.......................|.......................|.......................|
C-0....................|.......................|.......................|.......................|C-0....................|.......................|.......................|.......................|C-0....................|.......................|
D-3....................|D-3....................|A-2....................|.......................|D-2....80FF............|C-4C0..................|.......................|.......................|C-5A000EA00............|.......................|
.......................|.......................|.......................|.......................|.......................|.......................|.......................|.......................|.......................|.......................|
.......................|.......................|.......................|.......................|.......................|.......................|.......................|.......................|.......................|.......................|
.......................|.......................|.......................|D-3....................|.......................|.......................|.......................|.......................|.......................|.......................|
.......................|.......................|.......................|.......................|.......................|.......................|.......................|.......................|.......................|.......................|
C-0....................|.......................|.......................|.......................|C-0....................|.......................|.......................|.......................|C-0....................|.......................|
.......................|.......................|.......................|.......................|D-2....8000............|C-4C0..................|.......................|.......................|C-5A000EA00............|.......................|
.......................|.......................|.......................|.......................|.......................|.......................|.......................|.......................|.......................|.......................|
.......................|.......................|.......................|.......................|.......................|.......................|.......................|.......................|.......................|.......................|
.......................|.......................|.......................|.......................|.......................|.......................|.......................|.......................|.......................|.......................|
.......................|.......................|.......................|.......................|.......................|.......................|.......................|.......................|.......................|.......................|
.......................|C-0....................|C-0....................|.......................|C-0....................|.......................|.......................|.......................|C-0....................|.......................|
A#1....................|D-3....................|A#2....................|.......................|A#1....8080............|C-4C0..................|.......................|.......................|C-5A000EA00............|.......................|
.......................|.......................|.......................|.......................|.......................|.......................|.......................|.......................|.......................|.......................|
.......................|.......................|.......................|C-0....................|.......................|.......................|.......................|.......................|.......................|.......................|
.......................|.......................|.......................|D-3....................|.......................|.......................|.......................|.......................|.......................|.......................|
.......................|.......................|.......................|.......................|.......................|.......................|.......................|.......................|.......................|.......................|
.......................|.......................|.......................|.......................|C-0....................|.......................|.......................|.......................|C-0....................|.......................|
.......................|.......................|.......................|.......................|A#1....................|.......................|.......................|.......................|C-5A000EA00............|.......................|
.......................|.......................|.......................|.......................|.......................|.......................|.......................|.......................|.......................|.......................|
.......................|.......................|.......................|.......................|.......................|.......................|.......................|.......................|.......................|.......................|
.......................|.......................|.......................|.......................|.......................|.......................|.......................|.......................|.......................|.......................|
.......................|.......................|.......................|.......................|.......................|.......................|.......................|.......................|.......................|.......................|
C-0....................|.......................|.......................|.......................|C-0....................|.......................|.......................|.......................|C-0....................|.......................|
A#2....................|.......................|.......................|.......................|A#1....................|C-4C0..................|.......................|.......................|C-5A000EA00............|.......................|
.......................|.......................|.......................|.......................|.......................|.......................|.......................|.......................|.......................|.......................|
.......................|.......................|.......................|.......................|.......................|.......................|.......................|.......................|.......................|.......................|
.......................|.......................|.......................|.......................|.......................|.......................|.......................|.......................|.......................|.......................|
.......................|.......................|.......................|.......................|.......................|.......................|.......................|.......................|.......................|.......................|
C-0....................|.......................|.......................|.......................|C-0....................|.......................|.......................|.......................|C-0....................|.......................|
A#1....................|.......................|.......................|.......................|A#1....................|C-4C0..................|.......................|.......................|C-5A000EA00............|.......................|
.......................|.......................|.......................|.......................|.......................|.......................|.......................|.......................|.......................|.......................|
.......................|.......0452............|.......0452............|.......................|.......................|.......................|.......................|.......................|.......................|.......................|
.......................|.......................|.......................|.......................|.......................|.......................|.......................|.......................|.......................|.......................|
.......................|.......................|.......................|.......................|.......................|.......................|.......................|.......................|.......................|.......................|
C-0....................|C-0....................|C-0....................|.......0452............|C-0....................|.......................|.......................|.......................|C-0....................|.......................|
C-2....................|E-3....0400............|C-3....0400............|.......................|C-2....................|C-4C1..................|.......................|.......................|C-5A000EA00............|.......................|
.......................|.......................|.......................|.......................|.......................|.......................|.......................|.......................|.......................|.......................|
.......................|.......................|.......................|C-0....................|.......................|.......................|.......................|.......................|.......................|.......................|
.......................|.......................|.......................|E-3....0400............|.......................|.......................|.......................|.......................|.......................|.......................|
.......................|.......................|.......................|.......................|.......................|.......................|.......................|.......................|.......................|.......................|
C-0....................|.......................|.......................|.......................|C-0....................|.......................|.......................|.......................|C-0....................|.......................|
C-3....................|.......................|.......................|.......................|C-2....................|C-4C0..................|.......................|.......................|C-5A000EA00............|.......................|
.......................|.......................|.......................|.......................|.......................|.......................|.......................|.......................|.......................|.......................|
C-0....................|.......................|.......................|.......................|.......................|.......................|.......................|.......................|.......................|.......................|
.......................|.......................|.......................|.......................|.......................|.......................|.......................|.......................|.......................|.......................|
.......................|.......................|.......................|.......................|.......................|.......................|.......................|.......................|.......................|.......................|
.......................|.......................|.......................|.......................|C-0....................|.......................|.......................|.......................|C-0....................|.......................|
C-3....................|.......................|.......................|.......................|C-2....................|C-4C0..................|.......................|.......................|C-5A000EA00............|.......................|
.......................|.......................|.......................|.......................|.......................|.......................|.......................|.......................|.......................|.......................|
C-0....................|.......................|.......................|.......................|.......................|.......................|.......................|.......................|.......................|.......................|
.......................|.......................|.......................|.......................|.......................|.......................|.......................|.......................|.......................|.......................|
.......................|.......................|.......................|.......................|.......................|.......................|.......................|.......................|.......................|.......................|
.......................|.......................|.......................|.......................|C-0....................|.......................|.......................|.......................|C-0....................|.......................|
C-3....................|.......................|.......................|.......................|C-2....................|C-4C0..................|.......................|.......................|C-5A000EA00............|.......................|
.......................|.......................|.......................|.......................|.......................|.......................|.......................|.......................|.......................|.......................|
C-0....................|.......0452............|.......0452............|.......................|.......................|.......................|.......................|.......................|.......................|.......................|
.......................|.......................|.......................|.......................|.......................|.......................|.......................|.......................|.......................|.......................|
.......................|.......................|.......................|.......................|.......................|.......................|.......................|.......................|.......................|.......................|
.......................|C-0....................|C-0....................|.......0452............|C-0....................|.......................|.......................|.......................|C-0....................|.......................|
org.tildearrow.furnace - Pattern Data (219)
0
D-2....................|D-3....0400............|A-3....0400............|.......................|D-2....80FF............|C-4C0..................|.......................|.......................|C-5A000EA00............|.......................|
.......................|.......................|.......................|.......................|.......................|.......................|.......................|.......................|.......................|.......................|
.......................|.......................|.......................|C-0....................|.......................|.......................|.......................|.......................|.......................|.......................|
.......................|.......................|.......................|D-3....0400............|.......................|.......................|.......................|.......................|.......................|.......................|
.......................|.......................|.......................|.......................|.......................|.......................|.......................|.......................|.......................|.......................|
.......................|.......................|.......................|.......................|C-0....................|.......................|.......................|.......................|C-0....................|.......................|
.......................|.......................|.......................|.......................|D-2....8000............|.......................|.......................|.......................|C-5A000EA00............|.......................|
.......................|.......................|.......................|.......................|.......................|.......................|.......................|.......................|.......................|.......................|
.......................|.......................|.......................|.......................|.......................|.......................|.......................|.......................|.......................|.......................|
.......................|.......................|.......................|.......................|.......................|.......................|.......................|.......................|.......................|.......................|
.......................|.......................|.......................|.......................|.......................|.......................|.......................|.......................|.......................|.......................|
C-0....................|C-0....................|C-0....................|.......................|C-0....................|.......................|.......................|.......................|C-0....................|.......................|
D-3....................|.......................|.......................|.......................|D-2....80FF............|C-4C0..................|.......................|.......................|C-5A000EA00............|.......................|
.......................|.......................|.......................|.......................|.......................|.......................|.......................|.......................|.......................|.......................|
.......................|.......................|.......................|C-0....................|.......................|.......................|.......................|.......................|.......................|.......................|
.......................|.......................|.......................|.......................|.......................|.......................|.......................|.......................|.......................|.......................|
.......................|.......................|.......................|.......................|.......................|.......................|.......................|.......................|.......................|.......................|
C-0....................|.......................|.......................|.......................|C-0....................|.......................|.......................|.......................|C-0....................|.......................|
.......................|D-3....................|A-2....................|.......................|D-2....8000............|C-4C0..................|.......................|.......................|C-5A000EA00............|.......................|
.......................|.......................|.......................|.......................|.......................|.......................|.......................|.......................|.......................|.......................|
.......................|.......................|.......................|.......................|.......................|.......................|.......................|.......................|.......................|.......................|
.......................|.......................|.......................|D-3....................|.......................|.......................|.......................|.......................|.......................|.......................|
.......................|.......................|.......................|.......................|.......................|.......................|.......................|.......................|.......................|.......................|
.......................|C-0....................|C-0....................|.......................|C-0....................|.......................|.......................|.......................|C-0....................|.......................|
D-2....................|.......................|.......................|.......................|D-2....80FF............|C-4C1..................|.......................|.......................|C-5A000EA00............|.......................|
.......................|.......................|.......................|.......................|.......................|.......................|.......................|.......................|.......................|.......................|
.......................|.......................|.......................|C-0....................|.......................|.......................|.......................|.......................|.......................|.......................|
.......................|.......................|.......................|.......................|.......................|.......................|.......................|.......................|.......................|.......................|
.......................|.......................|.......................|.......................|.......................|.......................|.......................|.......................|.......................|.......................|
.......................|.......................|.......................|.......................|C-0....................|.......................|.......................|.......................|C-0....................|.......................|
.......................|.......................|.......................|.......................|D-2....8000............|C-4C0..................|.......................|.......................|C-5A000EA00............|.......................|
.......................|.......................|.......................|.......................|.......................|.......................|.......................|.......................|.......................|.......................|
.......................|.......................|.......................|.......................|.......................|.......................|.......................|.......................|.......................|.......................|
.......................|.......................|.......................|.......................|.......................|.......................|.......................|.......................|.......................|.......................|
.......................|.......................|.......................|.......................|.......................|.......................|.......................|.......................|.......................|.......................|
C-0....................|.......................|.......................|.......................|C-0....................|.......................|.......................|.......................|C-0....................|.......................|
D-3....................|D-3....................|A-3....................|.......................|D-2....80FF............|C-4C0..................|.......................|.......................|C-5A000EA00............|.......................|
.......................|.......................|.......................|.......................|.......................|.......................|.......................|.......................|.......................|.......................|
.......................|.......................|.......................|.......................|.......................|.......................|.......................|.......................|.......................|.......................|
.......................|.......................|.......................|D-3....................|.......................|.......................|.......................|.......................|.......................|.......................|
.......................|.......................|.......................|.......................|.......................|.......................|.......................|.......................|.......................|.......................|
C-0....................|.......................|.......................|.......................|C-0....................|.......................|.......................|.......................|C-0....................|.......................|
.......................|.......................|.......................|.......................|D-2....8000............|C-4C0..................|.......................|.......................|C-5A000EA00............|.......................|
.......................|.......................|.......................|.......................|.......................|.......................|.......................|.......................|.......................|.......................|
.......................|.......................|.......................|.......................|.......................|.......................|.......................|.......................|.......................|.......................|
.......................|.......................|.......................|.......................|.......................|.......................|.......................|.......................|.......................|.......................|
.......................|.......................|.......................|.......................|.......................|.......................|.......................|.......................|.......................|.......................|
.......................|C-0....................|C-0....................|.......................|C-0....................|.......................|.......................|.......................|C-0....................|.......................|
D-2....................|.......................|.......................|.......................|D-2....80FF............|C-4C0..................|.......................|.......................|C-5A000EA00............|.......................|
.......................|.......................|.......................|.......................|.......................|.......................|.......................|.......................|.......................|.......................|
.......................|.......................|.......................|C-0....................|.......................|.......................|.......................|.......................|.......................|.......................|
.......................|.......................|.......................|.......................|.......................|.......................|.......................|.......................|.......................|.......................|
.......................|.......................|.......................|.......................|.......................|.......................|.......................|.......................|.......................|.......................|
.......................|.......................|.......................|.......................|C-0....................|.......................|.......................|.......................|C-0....................|.......................|
.......................|.......................|.......................|.......................|D-2....8000............|.......................|.......................|.......................|C-5A000EA00............|.......................|
.......................|.......................|.......................|.......................|.......................|.......................|.......................|.......................|.......................|.......................|
.......................|.......................|.......................|.......................|.......................|.......................|.......................|.......................|.......................|.......................|
.......................|.......................|.......................|.......................|.......................|.......................|.......................|.......................|.......................|.......................|
.......................|.......................|.......................|.......................|.......................|.......................|.......................|.......................|.......................|.......................|
C-0....................|.......................|.......................|.......................|C-0....................|.......................|.......................|.......................|C-0....................|.......................|
D-3....................|D-3....................|A-2....................|.......................|D-2....80FF............|C-4C0..................|.......................|.......................|C-5A000EA00............|.......................|
.......................|.......................|.......................|.......................|.......................|.......................|.......................|.......................|.......................|.......................|
.......................|.......................|.......................|.......................|.......................|.......................|.......................|.......................|.......................|.......................|
.......................|.......................|.......................|D-3....................|.......................|.......................|.......................|.......................|.......................|.......................|
.......................|.......................|.......................|.......................|.......................|.......................|.......................|.......................|.......................|.......................|
C-0....................|.......................|.......................|.......................|C-0....................|.......................|.......................|.......................|C-0....................|.......................|
.......................|.......................|.......................|.......................|D-2....8000............|C-4C0..................|.......................|.......................|C-5A000EA00............|.......................|
.......................|.......................|.......................|.......................|.......................|.......................|.......................|.......................|.......................|.......................|
.......................|.......................|.......................|.......................|.......................|.......................|.......................|.......................|.......................|.......................|
.......................|.......................|.......................|.......................|.......................|.......................|.......................|.......................|.......................|.......................|
.......................|.......................|.......................|.......................|.......................|.......................|.......................|.......................|.......................|.......................|
.......................|C-0....................|C-0....................|.......................|C-0....................|.......................|.......................|.......................|C-0....................|.......................|
D-2....................|E-2....8080............|E-3....................|.......................|D-2....80FF............|C-4C1..................|.......................|.......................|C-5A000EA00............|.......................|
.......................|.......................|.......................|.......................|.......................|.......................|.......................|.......................|.......................|.......................|
.......................|.......................|.......................|C-0....................|.......................|.......................|.......................|.......................|.......................|.......................|
.......................|.......................|.......................|.......................|.......................|.......................|.......................|.......................|.......................|.......................|
.......................|.......................|.......................|.......................|.......................|.......................|.......................|.......................|.......................|.......................|
C-0....................|C-0....................|C-0....................|.......................|C-0....................|.......................|.......................|.......................|C-0....................|.......................|
D-3....................|F-2....................|F-3....................|.......................|D-2....8000............|C-4C0..................|.......................|.......................|C-5A000EA00............|.......................|
.......................|.......................|.......................|.......................|.......................|.......................|.......................|.......................|.......................|.......................|
.......................|.......................|.......................|.......................|.......................|.......................|.......................|.......................|.......................|.......................|
.......................|.......................|.......................|.......................|.......................|.......................|.......................|.......................|.......................|.......................|
.......................|.......................|.......................|.......................|.......................|.......................|.......................|.......................|.......................|.......................|
C-0....................|C-0....................|C-0....................|.......................|C-0....................|.......................|.......................|.......................|C-0....................|.......................|
D-2....................|E-2....................|E-3....................|.......................|D-2....80FF............|C-4C0..................|.......................|.......................|C-5A000EA00............|.......................|
.......................|.......................|.......................|.......................|.......................|.......................|.......................|.......................|.......................|.......................|
.......................|.......................|.......................|.......................|.......................|.......................|.......................|.......................|.......................|.......................|
.......................|.......................|.......................|.......................|.......................|.......................|.......................|.......................|.......................|.......................|
.......................|.......................|.......................|.......................|.......................|.......................|.......................|.......................|.......................|.......................|
C-0....................|C-0....................|C-0....................|.......................|C-0....................|.......................|.......................|.......................|C-0....................|.......................|
D-3....................|C-2....................|C-3....................|.......................|D-2....8000............|C-4C0..................|.......................|.......................|C-5A000EA00............|.......................|
.......................|.......................|.......................|.......................|.......................|.......................|.......................|.......................|.......................|.......................|
.......................|.......................|.......................|.......................|.......................|.......................|.......................|.......................|.......................|.......................|
.......................|.......................|.......................|.......................|.......................|.......................|.......................|.......................|.......................|.......................|
.......................|.......................|.......................|.......................|.......................|.......................|.......................|.......................|.......................|.......................|
C-0....................|C-0....................|C-0....................|.......................|C-0....................|.......................|.......................|.......................|C-0....................|.......................|
D-2....................|D-3....8000............|A-2....................|.......................|D-2....80FF............|C-4C0..................|.......................|.......................|C-5A000EA00............|.......................|
.......................|.......................|.......................|.......................|.......................|.......................|.......................|.......................|.......................|.......................|
.......................|.......................|.......................|.......................|.......................|.......................|.......................|.......................|.......................|.......................|
.......................|.......................|.......................|D-3....................|.......................|.......................|.......................|.......................|.......................|.......................|
.......................|.......................|.......................|.......................|.......................|.......................|.......................|.......................|.......................|.......................|
.......................|.......................|.......................|.......................|C-0....................|.......................|.......................|.......................|C-0....................|.......................|
.......................|.......................|.......................|.......................|D-2....8000............|.......................|.......................|.......................|C-5A000EA00............|.......................|
.......................|.......................|.......................|.......................|.......................|.......................|.......................|.......................|.......................|.......................|
.......................|.......................|.......................|.......................|.......................|.......................|.......................|.......................|.......................|.......................|
.......................|.......................|.......................|.......................|.......................|.......................|.......................|.......................|.......................|.......................|
.......................|.......................|.......................|.......................|.......................|.......................|.......................|.......................|.......................|.......................|
C-0....................|C-0....................|C-0....................|.......................|C-0....................|.......................|.......................|.......................|C-0....................|.......................|
D-3....................|.......................|.......................|.......................|D-2....80FF............|C-4C0..................|.......................|.......................|C-5A000EA00............|.......................|
.......................|.......................|.......................|.......................|.......................|.......................|.......................|.......................|.......................|.......................|
.......................|.......................|.......................|C-0....................|.......................|.......................|.......................|.......................|.......................|.......................|
.......................|.......................|.......................|.......................|.......................|.......................|.......................|.......................|.......................|.......................|
.......................|.......................|.......................|.......................|.......................|.......................|.......................|.......................|.......................|.......................|
C-0....................|.......................|.......................|.......................|C-0....................|.......................|.......................|.......................|C-0....................|.......................|
.......................|D-3....................|A-2....................|.......................|D-2....8000............|C-4C0..................|.......................|.......................|C-5A000EA00............|.......................|
.......................|.......................|.......................|.......................|.......................|.......................|.......................|.......................|.......................|.......................|
.......................|.......................|.......................|.......................|.......................|.......................|.......................|.......................|.......................|.......................|
.......................|.......................|.......................|D-3....................|.......................|.......................|.......................|.......................|.......................|.......................|
.......................|.......................|.......................|.......................|.......................|.......................|.......................|.......................|.......................|.......................|
.......................|C-0....................|C-0....................|.......................|C-0....................|.......................|.......................|.......................|C-0....................|.......................|
D-2....................|.......................|.......................|.......................|D-2....80FF............|C-4C1..................|.......................|.......................|C-5A000EA00............|.......................|
.......................|.......................|.......................|.......................|.......................|.......................|.......................|.......................|.......................|.......................|
.......................|.......................|.......................|C-0....................|.......................|.......................|.......................|.......................|.......................|.......................|
.......................|.......................|.......................|.......................|.......................|.......................|.......................|.......................|.......................|.......................|
.......................|.......................|.......................|.......................|.......................|.......................|.......................|.......................|.......................|.......................|
.......................|.......................|.......................|.......................|C-0....................|.......................|.......................|.......................|C-0....................|.......................|
.......................|.......................|.......................|.......................|D-2....8000............|C-4C0..................|.......................|.......................|C-5A000EA00............|.......................|
.......................|.......................|.......................|.......................|.......................|.......................|.......................|.......................|.......................|.......................|
.......................|.......................|.......................|.......................|.......................|.......................|.......................|.......................|.......................|.......................|
.......................|.......................|.......................|.......................|.......................|.......................|.......................|.......................|.......................|.......................|
.......................|.......................|.......................|.......................|.......................|.......................|.......................|.......................|.......................|.......................|
C-0....................|.......................|.......................|.......................|C-0....................|.......................|.......................|.......................|C-0....................|.......................|
D-3....................|D-3....................|A-2....................|.......................|D-2....80FF............|C-4C0..................|.......................|.......................|C-5A000EA00............|.......................|
.......................|.......................|.......................|.......................|.......................|.......................|.......................|.......................|.......................|.......................|
.......................|.......................|.......................|.......................|.......................|.......................|.......................|.......................|.......................|.......................|
.......................|.......................|.......................|D-3....................|.......................|.......................|.......................|.......................|.......................|.......................|
.......................|.......................|.......................|.......................|.......................|.......................|.......................|.......................|.......................|.......................|
C-0....................|.......................|.......................|.......................|C-0....................|.......................|.......................|.......................|C-0....................|.......................|
.......................|.......................|.......................|.......................|D-2....8000............|C-4C0..................|.......................|.......................|C-5A000EA00............|.......................|
.......................|.......................|.......................|.......................|.......................|.......................|.......................|.......................|.......................|.......................|
.......................|.......................|.......................|.......................|.......................|.......................|.......................|.......................|.......................|.......................|
.......................|.......................|.......................|.......................|.......................|.......................|.......................|.......................|.......................|.......................|
.......................|.......................|.......................|.......................|.......................|.......................|.......................|.......................|.......................|.......................|
.......................|C-0....................|C-0....................|.......................|C-0....................|.......................|.......................|.......................|C-0....................|.......................|
A#1....................|D-3....................|A#2....................|.......................|A#1....8080............|C-4C0..................|.......................|.......................|C-5A000EA00............|.......................|
.......................|.......................|.......................|.......................|.......................|.......................|.......................|.......................|.......................|.......................|
.......................|.......................|.......................|C-0....................|.......................|.......................|.......................|.......................|.......................|.......................|
.......................|.......................|.......................|D-3....................|.......................|.......................|.......................|.......................|.......................|.......................|
.......................|.......................|.......................|.......................|.......................|.......................|.......................|.......................|.......................|.......................|
.......................|C-0....................|C-0....................|.......................|C-0....................|.......................|.......................|.......................|C-0....................|.......................|
.......................|.......................|.......................|.......................|A#1....................|.......................|.......................|.......................|C-5A000EA00............|.......................|
.......................|.......................|.......................|.......................|.......................|.......................|.......................|.......................|.......................|.......................|
.......................|.......................|.......................|C-0....................|.......................|.......................|.......................|.......................|.......................|.......................|
.......................|.......................|.......................|.......................|.......................|.......................|.......................|.......................|.......................|.......................|
.......................|.......................|.......................|.......................|.......................|.......................|.......................|.......................|.......................|.......................|
C-0....................|.......................|.......................|.......................|C-0....................|.......................|.......................|.......................|C-0....................|.......................|
A#2....................|D-3....................|A#2....................|.......................|A#1....................|C-4C0..................|.......................|.......................|C-5A000EA00............|.......................|
.......................|.......................|.......................|.......................|.......................|.......................|.......................|.......................|.......................|.......................|
.......................|.......................|.......................|.......................|.......................|.......................|.......................|.......................|.......................|.......................|
.......................|.......................|.......................|D-3....................|.......................|.......................|.......................|.......................|.......................|.......................|
.......................|.......................|.......................|.......................|.......................|.......................|.......................|.......................|.......................|.......................|
C-0....................|.......................|.......................|.......................|C-0....................|.......................|.......................|.......................|C-0....................|.......................|
A#1....................|.......................|.......................|.......................|A#1....................|C-4C0..................|.......................|.......................|C-5A000EA00............|.......................|
.......................|.......................|.......................|.......................|.......................|.......................|.......................|.......................|.......................|.......................|
.......................|.......................|.......................|.......................|.......................|.......................|.......................|.......................|.......................|.......................|
.......................|.......................|.......................|.......................|.......................|.......................|.......................|.......................|.......................|.......................|
.......................|.......................|.......................|.......................|.......................|.......................|.......................|.......................|.......................|.......................|
C-0....................|C-0....................|C-0....................|.......................|C-0....................|.......................|.......................|.......................|C-0....................|.......................|
C-2....................|E-3....................|C-3....................|.......................|C-2....................|C-4C1..................|.......................|.......................|C-5A000EA00............|.......................|
.......................|.......................|.......................|.......................|.......................|.......................|.......................|.......................|.......................|.......................|
.......................|.......................|.......................|C-0....................|.......................|.......................|.......................|.......................|.......................|.......................|
.......................|.......................|.......................|E-3....................|.......................|.......................|.......................|.......................|.......................|.......................|
.......................|.......................|.......................|.......................|.......................|.......................|.......................|.......................|.......................|.......................|
C-0....................|C-0....................|C-0....................|.......................|C-0....................|.......................|.......................|.......................|C-0....................|.......................|
C-3....................|E-3....................|C-3....................|.......................|C-2....................|C-4C0..................|.......................|.......................|C-5A000EA00............|.......................|
.......................|.......................|.......................|.......................|.......................|.......................|.......................|.......................|.......................|.......................|
C-0....................|.......................|.......................|C-0....................|.......................|.......................|.......................|.......................|.......................|.......................|
.......................|.......................|.......................|E-3....................|.......................|.......................|.......................|.......................|.......................|.......................|
.......................|.......................|.......................|.......................|.......................|.......................|.......................|.......................|.......................|.......................|
.......................|C-0....................|C-0....................|.......................|C-0....................|.......................|.......................|.......................|C-0....................|.......................|
C-3....................|.......................|.......................|.......................|C-2....................|C-4C0..................|.......................|.......................|C-5A000EA00............|.......................|
.......................|.......................|.......................|.......................|.......................|.......................|.......................|.......................|.......................|.......................|
C-0....................|.......................|.......................|C-0....................|.......................|.......................|.......................|.......................|.......................|.......................|
.......................|.......................|.......................|.......................|.......................|.......................|.......................|.......................|.......................|.......................|
.......................|.......................|.......................|.......................|.......................|.......................|.......................|.......................|.......................|.......................|
.......................|.......................|.......................|.......................|C-0....................|.......................|.......................|.......................|C-0....................|.......................|
C-3....................|E-3....................|C-3....................|.......................|C-2....................|C-4C0..................|.......................|.......................|C-5A000EA00............|.......................|
.......................|.......................|.......................|.......................|.......................|.......................|.......................|.......................|.......................|.......................|
C-0....................|.......................|.......................|.......................|.......................|.......................|.......................|.......................|.......................|.......................|
.......................|.......................|.......................|E-3....................|.......................|.......................|.......................|.......................|.......................|.......................|
.......................|.......................|.......................|.......................|.......................|.......................|.......................|.......................|.......................|.......................|
.......................|C-0....................|C-0....................|.......................|C-0....................|.......................|.......................|.......................|C-0....................|.......................|
D-2....................|F-3....................|D-3....................|.......................|D-2....80FF............|C-4C0..................|.......................|.......................|C-5A000EA00............|.......................|
.......................|.......................|.......................|.......................|.......................|.......................|.......................|.......................|.......................|.......................|
.......................|.......................|.......................|C-0....................|.......................|.......................|.......................|.......................|.......................|.......................|
.......................|.......................|.......................|F-3....................|.......................|.......................|.......................|.......................|.......................|.......................|
.......................|.......................|.......................|.......................|.......................|.......................|.......................|.......................|.......................|.......................|
.......................|.......................|.......................|.......................|C-0....................|.......................|.......................|.......................|C-0....................|.......................|
.......................|.......................|.......................|.......................|D-2....8000............|.......................|.......................|.......................|C-5A000EA00............|.......................|
.......................|.......................|.......................|.......................|.......................|.......................|.......................|.......................|.......................|.......................|
.......................|.......................|.......................|.......................|.......................|.......................|.......................|.......................|.......................|.......................|
.......................|.......................|.......................|.......................|.......................|.......................|.......................|.......................|.......................|.......................|
.......................|.......................|.......................|.......................|.......................|.......................|.......................|.......................|.......................|.......................|
C-0....................|C-0....................|C-0....................|.......................|C-0....................|.......................|.......................|.......................|C-0....................|.......................|
D-3....................|.......................|.......................|.......................|D-2....80FF............|C-4C0..................|.......................|.......................|C-5A000EA00............|.......................|
.......................|.......................|.......................|.......................|.......................|.......................|.......................|.......................|.......................|.......................|
.......................|.......................|.......................|C-0....................|.......................|.......................|.......................|.......................|.......................|.......................|
.......................|.......................|.......................|.......................|.......................|.......................|.......................|.......................|.......................|.......................|
.......................|.......................|.......................|.......................|.......................|.......................|.......................|.......................|.......................|.......................|
C-0....................|.......................|.......................|.......................|C-0....................|.......................|.......................|.......................|C-0....................|.......................|
.......................|F-3....................|D-3....................|.......................|D-2....8000............|C-4C0..................|.......................|.......................|C-5A000EA00............|.......................|
.......................|.......................|.......................|.......................|.......................|.......................|.......................|.......................|.......................|.......................|
.......................|.......................|.......................|.......................|.......................|.......................|.......................|.......................|.......................|.......................|
.......................|.......................|.......................|F-3....................|.......................|.......................|.......................|.......................|.......................|.......................|
.......................|.......................|.......................|.......................|.......................|.......................|.......................|.......................|.......................|.......................|
.......................|C-0....................|C-0....................|.......................|C-0....................|.......................|.......................|.......................|C-0....................|.......................|
D-2....................|.......................|.......................|.......................|D-2....80FF............|C-4C1..................|.......................|.......................|C-5A000EA00............|.......................|
.......................|.......................|.......................|.......................|.......................|.......................|.......................|.......................|.......................|.......................|
.......................|.......................|.......................|C-0....................|.......................|.......................|.......................|.......................|.......................|.......................|
.......................|.......................|.......................|.......................|.......................|.......................|.......................|.......................|.......................|.......................|
.......................|.......................|.......................|.......................|.......................|.......................|.......................|.......................|.......................|.......................|
.......................|.......................|.......................|.......................|C-0....................|.......................|.......................|.......................|C-0....................|.......................|
.......................|.......................|.......................|.......................|D-2....8000............|C-4C0..................|.......................|.......................|C-5A000EA00............|.......................|
.......................|.......................|.......................|.......................|.......................|.......................|.......................|.......................|.......................|.......................|
.......................|.......................|.......................|.......................|.......................|.......................|.......................|.......................|.......................|.......................|
.......................|.......................|.......................|.......................|.......................|.......................|.......................|.......................|.......................|.......................|
.......................|.......................|.......................|.......................|.......................|.......................|.......................|.......................|.......................|.......................|
C-0....................|.......................|.......................|.......................|C-0....................|.......................|.......................|.......................|C-0....................|.......................|
D-3....................|F-3....................|D-3....................|.......................|D-2....80FF............|C-4C0..................|.......................|.......................|C-5A000EA00............|.......................|
.......................|.......................|.......................|.......................|.......................|.......................|.......................|.......................|.......................|.......................|
.......................|.......................|.......................|.......................|.......................|.......................|.......................|.......................|.......................|.......................|
.......................|.......................|.......................|F-3....................|.......................|.......................|.......................|.......................|.......................|.......................|
.......................|.......................|.......................|.......................|.......................|.......................|.......................|.......................|.......................|.......................|
C-0....................|.......................|.......................|.......................|C-0....................|.......................|.......................|.......................|C-0....................|.......................|
.......................|.......................|.......................|.......................|D-2....8000............|C-4C0..................|.......................|.......................|C-5A000EA00............|.......................|
.......................|.......................|.......................|.......................|.......................|.......................|.......................|.......................|.......................|.......................|
.......................|.......................|.......................|.......................|.......................|.......................|.......................|.......................|.......................|.......................|
.......................|.......................|.......................|.......................|.......................|.......................|.......................|.......................|.......................|.......................|
.......................|.......................|.......................|.......................|.......................|.......................|.......................|.......................|.......................|.......................|
.......................|C-0....................|C-0....................|.......................|C-0....................|.......................|.......................|.......................|C-0....................|.......................|
A#1....................|A-3....................|F-3....................|.......................|A#1....8080............|C-4C0..................|.......................|.......................|C-5A000EA00............|.......................|
.......................|.......................|.......................|.......................|.......................|.......................|.......................|.......................|.......................|.......................|
.......................|.......................|.......................|C-0....................|.......................|.......................|.......................|.......................|.......................|.......................|
.......................|.......................|.......................|A-3....................|.......................|.......................|.......................|.......................|.......................|.......................|
.......................|.......................|.......................|.......................|.......................|.......................|.......................|.......................|.......................|.......................|
.......................|.......................|.......................|.......................|C-0....................|.......................|.......................|.......................|C-0....................|.......................|
.......................|.......................|.......................|.......................|A#1....................|.......................|.......................|.......................|C-5A000EA00............|.......................|
.......................|.......................|.......................|.......................|.......................|.......................|.......................|.......................|.......................|.......................|
.......................|.......................|.......................|.......................|.......................|.......................|.......................|.......................|.......................|.......................|
.......................|.......................|.......................|.......................|.......................|.......................|.......................|.......................|.......................|.......................|
.......................|.......................|.......................|.......................|.......................|.......................|.......................|.......................|.......................|.......................|
C-0....................|.......................|.......................|.......................|C-0....................|.......................|.......................|.......................|C-0....................|.......................|
A#2....................|.......................|.......................|.......................|A#1....................|C-4C0..................|.......................|.......................|C-5A000EA00............|.......................|
.......................|.......................|.......................|.......................|.......................|.......................|.......................|.......................|.......................|.......................|
.......................|.......................|.......................|.......................|.......................|.......................|.......................|.......................|.......................|.......................|
.......................|.......................|.......................|.......................|.......................|.......................|.......................|.......................|.......................|.......................|
org.tildearrow.furnace - Pattern Data (219)
0
.......................|.......................|.......................|.......................|.......................|.......................|.......................|.......................|.......................|.......................|
C-0....................|.......................|.......................|.......................|C-0....................|.......................|.......................|.......................|C-0....................|.......................|
.......................|.......................|.......................|.......................|A#1....................|C-4C0..................|.......................|.......................|C-5A000EA00............|.......................|
.......................|.......................|.......................|.......................|.......................|.......................|.......................|.......................|.......................|.......................|
.......................|.......0452............|.......0452............|.......................|.......................|.......................|.......................|.......................|.......................|.......................|
.......................|.......................|.......................|.......................|.......................|.......................|.......................|.......................|.......................|.......................|
.......................|.......................|.......................|.......................|.......................|.......................|.......................|.......................|.......................|.......................|
.......................|C-0....................|C-0....................|.......0452............|C-0....................|.......................|.......................|.......................|C-0....................|.......................|
C-2....................|G-3....0400............|E-3....0400............|.......................|C-2....................|C-4C1..................|.......................|.......................|C-5A000EA00............|.......................|
.......................|.......................|.......................|.......................|.......................|.......................|.......................|.......................|.......................|.......................|
.......................|.......................|.......................|C-0....................|.......................|.......................|.......................|.......................|.......................|.......................|
.......................|.......................|.......................|G-3....0400............|.......................|.......................|.......................|.......................|.......................|.......................|
.......................|.......................|.......................|.......................|.......................|.......................|.......................|.......................|.......................|.......................|
C-0....................|.......................|.......................|.......................|C-0....................|.......................|.......................|.......................|C-0....................|.......................|
C-3....................|.......................|.......................|.......................|C-2....................|C-4C0..................|.......................|.......................|C-5A000EA00............|.......................|
.......................|.......................|.......................|.......................|.......................|.......................|.......................|.......................|.......................|.......................|
.......................|.......................|.......................|.......................|.......................|.......................|.......................|.......................|.......................|.......................|
.......................|.......................|.......................|.......................|.......................|.......................|.......................|.......................|.......................|.......................|
.......................|.......................|.......................|.......................|.......................|.......................|.......................|.......................|.......................|.......................|
C-0....................|.......................|.......................|.......................|C-0....................|.......................|.......................|.......................|C-0....................|.......................|
C-2....................|.......................|.......................|.......................|C-2....................|C-4C0..................|.......................|.......................|C-5A000EA00............|.......................|
.......................|.......................|.......................|.......................|.......................|.......................|.......................|.......................|.......................|.......................|
.......................|.......................|.......................|.......................|.......................|.......................|.......................|.......................|.......................|.......................|
.......................|.......................|.......................|.......................|.......................|.......................|.......................|.......................|.......................|.......................|
.......................|.......................|.......................|.......................|.......................|.......................|.......................|.......................|.......................|.......................|
C-0....................|.......................|.......................|.......................|C-0....................|.......................|.......................|.......................|C-0....................|.......................|
C-3....................|.......................|.......................|.......................|C-2....................|C-4C0..................|.......................|.......................|C-5A000EA00............|.......................|
.......................|.......................|.......................|.......................|.......................|.......................|.......................|.......................|.......................|.......................|
.......................|.......0452............|.......0452............|.......................|.......................|.......................|.......................|.......................|.......................|.......................|
.......................|.......................|.......................|.......................|.......................|.......................|.......................|.......................|.......................|.......................|
.......................|.......................|.......................|.......................|.......................|.......................|.......................|.......................|.......................|.......................|
C-0....................|C-0....................|C-0....................|.......0452............|C-0....................|.......................|.......................|.......................|C-0....................|.......................|
D-2....................|F-3....0400............|D-3....0400............|.......................|D-2....80FF............|C-4C0..................|.......................|.......................|C-5A000EA00............|.......................|
.......................|.......................|.......................|.......................|.......................|.......................|.......................|.......................|.......................|.......................|
.......................|.......................|.......................|C-0....................|.......................|.......................|.......................|.......................|.......................|.......................|
.......................|.......................|.......................|F-3....0400............|.......................|.......................|.......................|.......................|.......................|.......................|
.......................|.......................|.......................|.......................|.......................|.......................|.......................|.......................|.......................|.......................|
.......................|.......................|.......................|.......................|C-0....................|.......................|.......................|.......................|C-0....................|.......................|
.......................|.......................|.......................|.......................|D-2....8000............|.......................|.......................|.......................|C-5A000EA00............|.......................|
.......................|.......................|.......................|.......................|.......................|.......................|.......................|.......................|.......................|.......................|
.......................|.......................|.......................|.......................|.......................|.......................|.......................|.......................|.......................|.......................|
.......................|.......................|.......................|.......................|.......................|.......................|.......................|.......................|.......................|.......................|
.......................|.......................|.......................|.......................|.......................|.......................|.......................|.......................|.......................|.......................|
C-0....................|C-0....................|C-0....................|.......................|C-0....................|.......................|.......................|.......................|C-0....................|.......................|
D-3....................|.......................|.......................|.......................|D-2....80FF............|C-4C0..................|.......................|.......................|C-5A000EA00............|.......................|
.......................|.......................|.......................|.......................|.......................|.......................|.......................|.......................|.......................|.......................|
.......................|.......................|.......................|C-0....................|.......................|.......................|.......................|.......................|.......................|.......................|
.......................|.......................|.......................|.......................|.......................|.......................|.......................|.......................|.......................|.......................|
.......................|.......................|.......................|.......................|.......................|.......................|.......................|.......................|.......................|.......................|
C-0....................|.......................|.......................|.......................|C-0....................|.......................|.......................|.......................|C-0....................|.......................|
.......................|F-3....................|D-3....................|.......................|D-2....8000............|C-4C0..................|.......................|.......................|C-5A000EA00............|.......................|
.......................|.......................|.......................|.......................|.......................|.......................|.......................|.......................|.......................|.......................|
.......................|.......................|.......................|.......................|.......................|.......................|.......................|.......................|.......................|.......................|
.......................|.......................|.......................|F-3....................|.......................|.......................|.......................|.......................|.......................|.......................|
.......................|.......................|.......................|.......................|.......................|.......................|.......................|.......................|.......................|.......................|
.......................|C-0....................|C-0....................|.......................|C-0....................|.......................|.......................|.......................|C-0....................|.......................|
D-2....................|.......................|.......................|.......................|D-2....80FF............|C-4C1..................|.......................|.......................|C-5A000EA00............|.......................|
.......................|.......................|.......................|.......................|.......................|.......................|.......................|.......................|.......................|.......................|
.......................|.......................|.......................|C-0....................|.......................|.......................|.......................|.......................|.......................|.......................|
.......................|.......................|.......................|.......................|.......................|.......................|.......................|.......................|.......................|.......................|
.......................|.......................|.......................|.......................|.......................|.......................|.......................|.......................|.......................|.......................|
.......................|.......................|.......................|.......................|C-0....................|.......................|.......................|.......................|C-0....................|.......................|
.......................|.......................|.......................|.......................|D-2....8000............|C-4C0..................|.......................|.......................|C-5A000EA00............|.......................|
.......................|.......................|.......................|.......................|.......................|.......................|.......................|.......................|.......................|.......................|
.......................|.......................|.......................|.......................|.......................|.......................|.......................|.......................|.......................|.......................|
.......................|.......................|.......................|.......................|.......................|.......................|.......................|.......................|.......................|.......................|
.......................|.......................|.......................|.......................|.......................|.......................|.......................|.......................|.......................|.......................|
C-0....................|.......................|.......................|.......................|C-0....................|.......................|.......................|.......................|C-0....................|.......................|
D-3....................|D-3....................|D-3....................|.......................|D-2....80FF............|C-4C0..................|.......................|.......................|C-5A000EA00............|.......................|
.......................|.......................|.......................|.......................|.......................|.......................|.......................|.......................|.......................|.......................|
.......................|.......................|.......................|.......................|.......................|.......................|.......................|.......................|.......................|.......................|
.......................|.......................|.......................|D-3....................|.......................|.......................|.......................|.......................|.......................|.......................|
.......................|.......................|.......................|.......................|.......................|.......................|.......................|.......................|.......................|.......................|
C-0....................|.......................|.......................|.......................|C-0....................|.......................|.......................|.......................|C-0....................|.......................|
.......................|.......................|.......................|.......................|D-2....8000............|C-4C0..................|.......................|.......................|C-5A000EA00............|.......................|
.......................|.......................|.......................|.......................|.......................|.......................|.......................|.......................|.......................|.......................|
.......................|.......................|.......................|.......................|.......................|.......................|.......................|.......................|.......................|.......................|
.......................|.......................|.......................|.......................|.......................|.......................|.......................|.......................|.......................|.......................|
.......................|.......................|.......................|.......................|.......................|.......................|.......................|.......................|.......................|.......................|
.......................|C-0....................|C-0....................|.......................|C-0....................|.......................|.......................|.......................|C-0....................|.......................|
A#1....................|D-3....................|A#2....................|.......................|A#1....8080............|C-4C0..................|.......................|.......................|C-5A000EA00............|.......................|
.......................|.......................|.......................|.......................|.......................|.......................|.......................|.......................|.......................|.......................|
.......................|.......................|.......................|C-0....................|.......................|.......................|.......................|.......................|.......................|.......................|
.......................|.......................|.......................|D-3....................|.......................|.......................|.......................|.......................|.......................|.......................|
.......................|.......................|.......................|.......................|.......................|.......................|.......................|.......................|.......................|.......................|
.......................|.......................|.......................|.......................|C-0....................|.......................|.......................|.......................|C-0....................|.......................|
.......................|.......................|.......................|.......................|A#1....................|.......................|.......................|.......................|C-5A000EA00............|.......................|
.......................|.......................|.......................|.......................|.......................|.......................|.......................|.......................|.......................|.......................|
.......................|.......................|.......................|.......................|.......................|.......................|.......................|.......................|.......................|.......................|
.......................|.......................|.......................|.......................|.......................|.......................|.......................|.......................|.......................|.......................|
.......................|.......................|.......................|.......................|.......................|.......................|.......................|.......................|.......................|.......................|
C-0....................|.......................|.......................|.......................|C-0....................|.......................|.......................|.......................|C-0....................|.......................|
A#2....................|.......................|.......................|.......................|A#1....................|C-4C0..................|.......................|.......................|C-5A000EA00............|.......................|
.......................|.......................|.......................|.......................|.......................|.......................|.......................|.......................|.......................|.......................|
.......................|.......................|.......................|.......................|.......................|.......................|.......................|.......................|.......................|.......................|
.......................|.......................|.......................|.......................|.......................|.......................|.......................|.......................|.......................|.......................|
.......................|.......................|.......................|.......................|.......................|.......................|.......................|.......................|.......................|.......................|
C-0....................|.......................|.......................|.......................|C-0....................|.......................|.......................|.......................|C-0....................|.......................|
.......................|.......................|.......................|.......................|A#1....................|C-4C0..................|.......................|.......................|C-5A000EA00............|.......................|
.......................|.......................|.......................|.......................|.......................|.......................|.......................|.......................|.......................|.......................|
.......................|.......0452............|.......0452............|.......................|.......................|.......................|.......................|.......................|.......................|.......................|
.......................|.......................|.......................|.......................|.......................|.......................|.......................|.......................|.......................|.......................|
.......................|.......................|.......................|.......................|.......................|.......................|.......................|.......................|.......................|.......................|
.......................|C-0....................|C-0....................|.......0452............|C-0....................|.......................|.......................|.......................|C-0....................|.......................|
C-2....................|E-3....0400............|C-3....0400............|.......................|C-2....................|C-4C1..................|.......................|.......................|C-5A000EA00............|.......................|
.......................|.......................|.......................|.......................|.......................|.......................|.......................|.......................|.......................|.......................|
.......................|.......................|.......................|C-0....................|.......................|.......................|.......................|.......................|.......................|.......................|
.......................|.......................|.......................|E-3....0400............|.......................|.......................|.......................|.......................|.......................|.......................|
.......................|.......................|.......................|.......................|.......................|.......................|.......................|.......................|.......................|.......................|
C-0....................|.......................|.......................|.......................|C-0....................|.......................|.......................|.......................|C-0....................|.......................|
C-3....................|.......................|.......................|.......................|C-2....................|C-4C0..................|.......................|.......................|C-5A000EA00............|.......................|
.......................|.......................|.......................|.......................|.......................|.......................|.......................|.......................|.......................|.......................|
.......................|.......................|.......................|.......................|.......................|.......................|.......................|.......................|.......................|.......................|
.......................|.......................|.......................|.......................|.......................|.......................|.......................|.......................|.......................|.......................|
.......................|.......................|.......................|.......................|.......................|.......................|.......................|.......................|.......................|.......................|
C-0....................|.......................|.......................|.......................|C-0....................|.......................|.......................|.......................|C-0....................|.......................|
C-2....................|.......................|.......................|.......................|C-2....................|C-4C0..................|.......................|.......................|C-5A000EA00............|.......................|
.......................|.......................|.......................|.......................|.......................|.......................|.......................|.......................|.......................|.......................|
.......................|.......................|.......................|.......................|.......................|.......................|.......................|.......................|.......................|.......................|
.......................|.......................|.......................|.......................|.......................|.......................|.......................|.......................|.......................|.......................|
.......................|.......................|.......................|.......................|.......................|.......................|.......................|.......................|.......................|.......................|
C-0....................|.......................|.......................|.......................|C-0....................|.......................|.......................|.......................|C-0....................|.......................|
C-3....................|.......................|.......................|.......................|C-2....................|C-4C0..................|.......................|.......................|C-5A000EA00............|.......................|
.......................|.......................|.......................|.......................|.......................|.......................|.......................|.......................|.......................|.......................|
.......................|.......0452............|.......0452............|.......................|.......................|.......................|.......................|.......................|.......................|.......................|
.......................|.......................|.......................|.......................|.......................|.......................|.......................|.......................|.......................|.......................|
.......................|.......................|.......................|.......................|.......................|.......................|.......................|.......................|.......................|.......................|
C-0....................|C-0....................|C-0....................|.......0452............|C-0....................|.......................|.......................|.......................|C-0....................|.......................|
D-2....................|F-3....0400............|D-3....0400............|.......................|D-2....80FF............|C-4C0..................|.......................|.......................|C-5A000EA00............|.......................|
.......................|.......................|.......................|.......................|.......................|.......................|.......................|.......................|.......................|.......................|
.......................|.......................|.......................|C-0....................|.......................|.......................|.......................|.......................|.......................|.......................|
.......................|.......................|.......................|F-3....0400............|.......................|.......................|.......................|.......................|.......................|.......................|
.......................|.......................|.......................|.......................|.......................|.......................|.......................|.......................|.......................|.......................|
.......................|.......................|.......................|.......................|C-0....................|.......................|.......................|.......................|C-0....................|.......................|
.......................|.......................|.......................|.......................|D-2....8000............|.......................|.......................|.......................|C-5A000EA00............|.......................|
.......................|.......................|.......................|.......................|.......................|.......................|.......................|.......................|.......................|.......................|
.......................|.......................|.......................|.......................|.......................|.......................|.......................|.......................|.......................|.......................|
.......................|.......................|.......................|.......................|.......................|.......................|.......................|.......................|.......................|.......................|
.......................|.......................|.......................|.......................|.......................|.......................|.......................|.......................|.......................|.......................|
C-0....................|C-0....................|C-0....................|.......................|C-0....................|.......................|.......................|.......................|C-0....................|.......................|
D-3....................|.......................|.......................|.......................|D-2....80FF............|C-4C0..................|.......................|.......................|C-5A000EA00............|.......................|
.......................|.......................|.......................|.......................|.......................|.......................|.......................|.......................|.......................|.......................|
.......................|.......................|.......................|C-0....................|.......................|.......................|.......................|.......................|.......................|.......................|
.......................|.......................|.......................|.......................|.......................|.......................|.......................|.......................|.......................|.......................|
.......................|.......................|.......................|.......................|.......................|.......................|.......................|.......................|.......................|.......................|
C-0....................|.......................|.......................|.......................|C-0....................|.......................|.......................|.......................|C-0....................|.......................|
.......................|F-3....................|D-3....................|.......................|D-2....8000............|C-4C0..................|.......................|.......................|C-5A000EA00............|.......................|
.......................|.......................|.......................|.......................|.......................|.......................|.......................|.......................|.......................|.......................|
.......................|.......................|.......................|.......................|.......................|.......................|.......................|.......................|.......................|.......................|
.......................|.......................|.......................|F-3....................|.......................|.......................|.......................|.......................|.......................|.......................|
.......................|.......................|.......................|.......................|.......................|.......................|.......................|.......................|.......................|.......................|
.......................|C-0....................|C-0....................|.......................|C-0....................|.......................|.......................|.......................|C-0....................|.......................|
D-2....................|.......................|.......................|.......................|D-2....80FF............|C-4C1..................|.......................|.......................|C-5A000EA00............|.......................|
.......................|.......................|.......................|.......................|.......................|.......................|.......................|.......................|.......................|.......................|
.......................|.......................|.......................|C-0....................|.......................|.......................|.......................|.......................|.......................|.......................|
.......................|.......................|.......................|.......................|.......................|.......................|.......................|.......................|.......................|.......................|
.......................|.......................|.......................|.......................|.......................|.......................|.......................|.......................|.......................|.......................|
.......................|.......................|.......................|.......................|C-0....................|.......................|.......................|.......................|C-0....................|.......................|
.......................|.......................|.......................|.......................|D-2....8000............|C-4C0..................|.......................|.......................|C-5A000EA00............|.......................|
.......................|.......................|.......................|.......................|.......................|.......................|.......................|.......................|.......................|.......................|
.......................|.......................|.......................|.......................|.......................|.......................|.......................|.......................|.......................|.......................|
.......................|.......................|.......................|.......................|.......................|.......................|.......................|.......................|.......................|.......................|
.......................|.......................|.......................|.......................|.......................|.......................|.......................|.......................|.......................|.......................|
C-0....................|.......................|.......................|.......................|C-0....................|.......................|.......................|.......................|C-0....................|.......................|
D-3....................|F-3....................|D-3....................|.......................|D-2....80FF............|C-4C0..................|.......................|.......................|C-5A000EA00............|.......................|
.......................|.......................|.......................|.......................|.......................|.......................|.......................|.......................|.......................|.......................|
.......................|.......................|.......................|.......................|.......................|.......................|.......................|.......................|.......................|.......................|
.......................|.......................|.......................|F-3....................|.......................|.......................|.......................|.......................|.......................|.......................|
.......................|.......................|.......................|.......................|.......................|.......................|.......................|.......................|.......................|.......................|
C-0....................|.......................|.......................|.......................|C-0....................|.......................|.......................|.......................|C-0....................|.......................|
.......................|.......................|.......................|.......................|D-2....8000............|C-4C0..................|.......................|.......................|C-5A000EA00............|.......................|
.......................|.......................|.......................|.......................|.......................|.......................|.......................|.......................|.......................|.......................|
.......................|.......................|.......................|.......................|.......................|.......................|.......................|.......................|.......................|.......................|
.......................|.......................|.......................|.......................|.......................|.......................|.......................|.......................|.......................|.......................|
.......................|.......................|.......................|.......................|.......................|.......................|.......................|.......................|.......................|.......................|
.......................|C-0....................|C-0....................|.......................|C-0....................|.......................|.......................|.......................|C-0....................|.......................|
A#1....................|A-3....................|F-3....................|.......................|A#1....8080............|C-4C0..................|.......................|.......................|C-5A000EA00............|.......................|
.......................|.......................|.......................|.......................|.......................|.......................|.......................|.......................|.......................|.......................|
.......................|.......................|.......................|C-0....................|.......................|.......................|.......................|.......................|.......................|.......................|
.......................|.......................|.......................|A-3....................|.......................|.......................|.......................|.......................|.......................|.......................|
.......................|.......................|.......................|.......................|.......................|.......................|.......................|.......................|.......................|.......................|
.......................|.......................|.......................|.......................|C-0....................|.......................|.......................|.......................|C-0....................|.......................|
.......................|.......................|.......................|.......................|A#1....................|.......................|.......................|.......................|C-5A000EA00............|.......................|
.......................|.......................|.......................|.......................|.......................|.......................|.......................|.......................|.......................|.......................|
.......................|.......................|.......................|.......................|.......................|.......................|.......................|.......................|.......................|.......................|
.......................|.......................|.......................|.......................|.......................|.......................|.......................|.......................|.......................|.......................|
.......................|.......................|.......................|.......................|.......................|.......................|.......................|.......................|.......................|.......................|
C-0....................|.......................|.......................|.......................|C-0....................|.......................|.......................|.......................|C-0....................|.......................|
A#2....................|.......................|.......................|.......................|A#1....................|C-4C0..................|.......................|.......................|C-5A000EA00............|.......................|
.......................|.......................|.......................|.......................|.......................|.......................|.......................|.......................|.......................|.......................|
.......................|.......................|.......................|.......................|.......................|.......................|.......................|.......................|.......................|.......................|
.......................|.......................|.......................|.......................|.......................|.......................|.......................|.......................|.......................|.......................|
.......................|.......................|.......................|.......................|.......................|.......................|.......................|.......................|.......................|.......................|
C-0....................|.......................|.......................|.......................|C-0....................|.......................|.......................|.......................|C-0....................|.......................|
.......................|.......................|.......................|.......................|A#1....................|C-4C0..................|.......................|.......................|C-5A000EA00............|.......................|
.......................|.......................|.......................|.......................|.......................|.......................|.......................|.......................|.......................|.......................|
.......................|.......0452............|.......0452............|.......................|.......................|.......................|.......................|.......................|.......................|.......................|
.......................|.......................|.......................|.......................|.......................|.......................|.......................|.......................|.......................|.......................|
.......................|.......................|.......................|.......................|.......................|.......................|.......................|.......................|.......................|.......................|
.......................|C-0....................|C-0....................|.......0452............|C-0....................|.......................|.......................|.......................|C-0....................|.......................|
C-2....................|G-3....0400............|E-3....0400............|.......................|C-2....................|C-4C1..................|.......................|.......................|C-5A000EA00............|.......................|
.......................|.......................|.......................|.......................|.......................|.......................|.......................|.......................|.......................|.......................|
.......................|.......................|.......................|C-0....................|.......................|.......................|.......................|.......................|.......................|.......................|
.......................|.......................|.......................|G-3....0400............|.......................|.......................|.......................|.......................|.......................|.......................|
.......................|.......................|.......................|.......................|.......................|.......................|.......................|.......................|.......................|.......................|
C-0....................|.......................|.......................|.......................|C-0....................|.......................|.......................|.......................|C-0....................|.......................|
C-3....................|.......................|.......................|.......................|C-2....................|C-4C0..................|.......................|.......................|C-5A000EA00............|.......................|
.......................|.......................|.......................|.......................|.......................|.......................|.......................|.......................|.......................|.......................|
.......................|.......................|.......................|.......................|.......................|.......................|.......................|.......................|.......................|.......................|
.......................|.......................|.......................|.......................|.......................|.......................|.......................|.......................|.......................|.......................|
.......................|.......................|.......................|.......................|.......................|.......................|.......................|.......................|.......................|.......................|
C-0....................|.......................|.......................|.......................|C-0....................|.......................|.......................|.......................|C-0....................|.......................|
C-2....................|.......................|.......................|.......................|C-2....................|C-4C0..................|.......................|.......................|C-5A000EA00............|.......................|
.......................|.......................|.......................|.......................|.......................|.......................|.......................|.......................|.......................|.......................|
.......................|.......................|.......................|.......................|.......................|.......................|.......................|.......................|.......................|.......................|
.......................|.......................|.......................|.......................|.......................|.......................|.......................|.......................|.......................|.......................|
.......................|.......................|.......................|.......................|.......................|.......................|.......................|.......................|.......................|.......................|
C-0....................|.......................|.......................|.......................|C-0....................|.......................|.......................|.......................|C-0....................|.......................|
C-3....................|.......................|.......................|.......................|C-2....................|C-4C0..................|.......................|.......................|C-5A000EA00............|.......................|
.......................|.......................|.......................|.......................|.......................|.......................|.......................|.......................|.......................|.......................|
.......................|.......0452............|.......0452............|.......................|.......................|.......................|.......................|.......................|.......................|.......................|
.......................|.......................|.......................|.......................|.......................|.......................|.......................|.......................|.......................|.......................|
.......................|.......................|.......................|.......................|.......................|.......................|.......................|.......................|.......................|.......................|
C-0....................|C-0....................|C-0....................|.......0452............|C-0....................|.......................|.......................|.......................|C-0....................|.......................|
D-2....................|F-4..6B0400............|D-404..0400............|.......................|D-2....80FF............|C-4C0..................|.......................|.......................|C-5A000EA00............|.......................|
.......................|.......................|.......................|.......................|.......................|.......................|.......................|.......................|.......................|.......................|
.......................|.......................|.......................|C-0....................|.......................|.......................|.......................|.......................|.......................|.......................|
.......................|.......................|.......................|F-404670400............|.......................|.......................|.......................|.......................|.......................|.......................|
.......................|.......................|.......................|.......................|.......................|.......................|.......................|.......................|.......................|.......................|
.......................|.......................|.......................|.......................|C-0....................|.......................|.......................|.......................|C-0....................|.......................|
.......................|.......................|.......................|.......................|D-2....8000............|.......................|.......................|.......................|C-5A000EA00............|.......................|
.......................|.......................|.......................|.......................|.......................|.......................|.......................|.......................|.......................|.......................|
.......................|.......................|.......................|.......................|.......................|.......................|.......................|.......................|.......................|.......................|
.......................|.......................|.......................|.......................|.......................|.......................|.......................|.......................|.......................|.......................|
.......................|.......................|.......................|.......................|.......................|.......................|.......................|.......................|.......................|.......................|
C-0....................|C-0....................|C-0....................|.......................|C-0....................|.......................|.......................|.......................|C-0....................|.......................|
D-2....................|F-4....................|D-4....................|.......................|D-2....80FF............|C-4C0..................|.......................|.......................|C-5A000EA00............|.......................|
.......................|.......................|.......................|.......................|.......................|.......................|.......................|.......................|.......................|.......................|
.......................|.......................|.......................|C-0....................|.......................|.......................|.......................|.......................|.......................|.......................|
.......................|.......................|.......................|F-4....................|.......................|.......................|.......................|.......................|.......................|.......................|
.......................|.......................|.......................|.......................|.......................|.......................|.......................|.......................|.......................|.......................|
C-0....................|.......................|.......................|.......................|C-0....................|.......................|.......................|.......................|C-0....................|.......................|
.......................|.......................|.......................|.......................|D-2....8000............|C-4C0..................|.......................|.......................|C-5A000EA00............|.......................|
.......................|.......................|.......................|.......................|.......................|.......................|.......................|.......................|.......................|.......................|
.......................|.......................|.......................|.......................|.......................|.......................|.......................|.......................|.......................|.......................|
.......................|.......................|.......................|.......................|.......................|.......................|.......................|.......................|.......................|.......................|
.......................|.......................|.......................|.......................|.......................|.......................|.......................|.......................|.......................|.......................|
.......................|C-0....................|C-0....................|.......................|C-0....................|.......................|.......................|.......................|C-0....................|.......................|
.......................|.......................|.......................|.......................|.......................|C-4C1..................|.......................|.......................|C-5A000EA00............|.......................|
.......................|.......................|.......................|.......................|.......................|.......................|.......................|.......................|.......................|.......................|
.......................|.......................|.......................|C-0....................|.......................|.......................|.......................|.......................|.......................|.......................|
.......................|.......................|.......................|.......................|.......................|.......................|.......................|.......................|.......................|.......................|
.......................|.......................|.......................|.......................|.......................|.......................|.......................|.......................|.......................|.......................|
.......................|.......................|.......................|.......................|.......................|.......................|.......................|.......................|C-0....................|.......................|
.......................|.......................|.......................|.......................|.......................|C-4C0..................|.......................|.......................|C-5A000EA00............|.......................|
.......................|.......................|.......................|.......................|.......................|.......................|.......................|.......................|.......................|.......................|
org.tildearrow.furnace - Pattern Data (219)
0
.......................|.......................|.......................|.......................|.......................|.......................|.......................|.......................|.......................|.......................|
.......................|.......................|.......................|.......................|.......................|.......................|.......................|.......................|.......................|.......................|
.......................|.......................|.......................|.......................|.......................|.......................|.......................|.......................|.......................|.......................|
.......................|.......................|.......................|.......................|.......................|.......................|.......................|.......................|C-0....................|.......................|
E-2....................|E-3..63................|E-3....................|.......................|.......................|C-4C0..................|.......................|.......................|C-5A000EA00............|.......................|
.......................|.......................|.......................|.......................|.......................|.......................|.......................|.......................|.......................|.......................|
.......................|.......................|.......................|.......................|.......................|.......................|.......................|.......................|.......................|.......................|
.......................|.......................|.......................|E-4..63................|.......................|.......................|.......................|.......................|.......................|.......................|
.......................|.......................|.......................|.......................|.......................|.......................|.......................|.......................|.......................|.......................|
C-0....................|C-0....................|C-0....................|.......................|.......................|.......................|.......................|.......................|C-0....................|.......................|
F-2....................|F-3....................|F-3....................|.......................|.......................|C-4C2..80FF............|.......................|.......................|C-5A000EA00............|.......................|
.......................|.......................|.......................|.......................|.......................|.......................|.......................|.......................|.......................|.......................|
.......................|.......................|.......................|C-0....................|.......................|.......................|.......................|.......................|.......................|.......................|
.......................|.......................|.......................|F-4....................|.......................|.......................|.......................|.......................|.......................|.......................|
.......................|.......................|.......................|.......................|.......................|.......................|.......................|.......................|.......................|.......................|
C-0....................|C-0....................|C-0....................|.......................|.......................|.......................|.......................|.......................|C-0....................|.......................|
E-2....................|E-3....................|E-3....................|.......................|.......................|C-4C2..................|.......................|.......................|C-5A000EA00............|.......................|
.......................|.......................|.......................|.......................|.......................|.......................|.......................|.......................|.......................|.......................|
.......................|.......................|.......................|C-0....................|.......................|.......................|.......................|.......................|.......................|.......................|
.......................|.......................|.......................|E-4....................|.......................|.......................|.......................|.......................|.......................|.......................|
.......................|.......................|.......................|.......................|.......................|.......................|.......................|.......................|.......................|.......................|
C-0....................|C-0....................|C-0....................|.......................|.......................|.......................|.......................|.......................|C-0....................|.......................|
D-2....................|D-3....................|D-3....................|.......................|.......................|C-4C3..8080............|.......................|.......................|C-5A000EA00............|.......................|
.......................|.......................|.......................|.......................|.......................|.......................|.......................|.......................|.......................|.......................|
.......................|.......................|.......................|C-0....................|.......................|.......................|.......................|.......................|.......................|.......................|
.......................|.......................|.......................|D-4....................|.......................|.......................|.......................|.......................|.......................|.......................|
.......................|.......................|.......................|.......................|.......................|.......................|.......................|.......................|.......................|.......................|
C-0....................|C-0....................|C-0....................|.......................|.......................|.......................|.......................|.......................|C-0....................|.......................|
C-2....................|C-3....................|C-3....................|.......................|.......................|C-4C3..................|.......................|.......................|C-5A000EA00............|.......................|
.......................|.......................|.......................|.......................|.......................|.......................|.......................|.......................|.......................|.......................|
.......................|.......................|.......................|C-0....................|.......................|.......................|.......................|.......................|.......................|.......................|
.......................|.......................|.......................|C-4....................|.......................|.......................|.......................|.......................|.......................|.......................|
.......................|.......................|.......................|.......................|.......................|.......................|.......................|.......................|.......................|.......................|
C-0....................|C-0....................|C-0....................|.......................|.......................|.......................|.......................|.......................|C-0....................|.......................|
A-1....................|A-2....................|A-2....................|.......................|.......................|C-4C0..................|.......................|.......................|C-5A000EA00............|.......................|
.......................|.......................|.......................|.......................|.......................|.......................|.......................|.......................|.......................|.......................|
.......................|.......................|.......................|C-0....................|.......................|.......................|.......................|.......................|.......................|.......................|
.......................|.......................|.......................|A-3....................|.......................|.......................|.......................|.......................|.......................|.......................|
.......................|.......................|.......................|.......................|.......................|.......................|.......................|.......................|.......................|.......................|
C-0....................|C-0....................|C-0....................|.......................|.......................|.......................|.......................|.......................|C-0....................|.......................|
G-1....................|G-2....................|G-2....................|.......................|.......................|C-4C0..................|.......................|.......................|C-5A000EA00............|.......................|
.......................|.......................|.......................|.......................|.......................|.......................|.......................|.......................|.......................|.......................|
.......................|.......................|.......................|C-0....................|.......................|.......................|.......................|.......................|.......................|.......................|
.......................|.......................|.......................|G-3....................|.......................|.......................|.......................|.......................|.......................|.......................|
.......................|.......................|.......................|.......................|.......................|.......................|.......................|.......................|.......................|.......................|
C-0....................|C-0....................|C-0....................|.......................|.......................|.......................|.......................|.......................|C-0....................|.......................|
A-1....................|A-2....................|A-2....................|.......................|.......................|C-4C4..8000............|.......................|.......................|C-5A000EA00............|.......................|
.......................|.......................|.......................|.......................|.......................|.......................|.......................|.......................|.......................|.......................|
.......................|.......................|.......................|C-0....................|.......................|.......................|.......................|.......................|.......................|.......................|
.......................|.......................|.......................|A-3....................|.......................|.......................|.......................|.......................|.......................|.......................|
.......................|.......................|.......................|.......................|.......................|.......................|.......................|.......................|.......................|.......................|
C-0....................|C-0....................|C-0....................|.......................|.......................|.......................|.......................|.......................|C-0....................|.......................|
E-1....................|E-2....................|E-2....................|.......................|.......................|C-4C4..................|.......................|.......................|C-5A000EA00............|.......................|
.......................|.......................|.......................|.......................|.......................|.......................|.......................|.......................|.......................|.......................|
.......................|.......................|.......................|C-0....................|.......................|.......................|.......................|.......................|.......................|.......................|
.......................|.......................|.......................|E-3....................|.......................|.......................|.......................|.......................|.......................|.......................|
.......................|.......................|.......................|.......................|.......................|.......................|.......................|.......................|.......................|.......................|
C-0....................|C-0....................|C-0....................|.......................|.......................|.......................|.......................|.......................|C-0....................|.......................|
C-1....................|C-2....................|C-2....................|.......................|.......................|C-4C4..................|.......................|.......................|C-5A000EA00............|.......................|
.......................|.......................|.......................|.......................|.......................|.......................|.......................|.......................|.......................|.......................|
.......................|.......................|.......................|C-0....................|.......................|.......................|.......................|.......................|.......................|.......................|
.......................|.......................|.......................|C-3....................|.......................|.......................|.......................|.......................|.......................|.......................|
.......................|.......................|.......................|.......................|.......................|.......................|.......................|.......................|.......................|.......................|
C-0....0B000DC0........|C-0....................|C-0....................|C-0....................|.......................|.......................|.......................|.......................|C-0....................|.......................|
.......................|.......................|.......................|.......................|.......................|.......................|.......................|.......................|.......................|.......................|
.......................|.......................|.......................|.......................|.......................|.......................|.......................|.......................|.......................|.......................|
.......................|.......................|.......................|.......................|.......................|.......................|.......................|.......................|.......................|.......................|
.......................|.......................|.......................|.......................|.......................|.......................|.......................|.......................|.......................|.......................|
.......................|.......................|.......................|.......................|.......................|.......................|.......................|.......................|.......................|.......................|
.......................|.......................|.......................|.......................|.......................|.......................|.......................|.......................|.......................|.......................|
.......................|.......................|.......................|.......................|.......................|.......................|.......................|.......................|.......................|.......................|
.......................|.......................|.......................|.......................|.......................|.......................|.......................|.......................|.......................|.......................|
.......................|.......................|.......................|.......................|.......................|.......................|.......................|.......................|.......................|.......................|
.......................|.......................|.......................|.......................|.......................|.......................|.......................|.......................|.......................|.......................|
.......................|.......................|.......................|.......................|.......................|.......................|.......................|.......................|.......................|.......................|
.......................|.......................|.......................|.......................|.......................|.......................|.......................|.......................|.......................|.......................|
.......................|.......................|.......................|.......................|.......................|.......................|.......................|.......................|.......................|.......................|
.......................|.......................|.......................|.......................|.......................|.......................|.......................|.......................|.......................|.......................|
.......................|.......................|.......................|.......................|.......................|.......................|.......................|.......................|.......................|.......................|
.......................|.......................|.......................|.......................|.......................|.......................|.......................|.......................|.......................|.......................|
.......................|.......................|.......................|.......................|.......................|.......................|.......................|.......................|.......................|.......................|
.......................|.......................|.......................|.......................|.......................|.......................|.......................|.......................|.......................|.......................|
.......................|.......................|.......................|.......................|.......................|.......................|.......................|.......................|.......................|.......................|
.......................|.......................|.......................|.......................|.......................|.......................|.......................|.......................|.......................|.......................|
.......................|.......................|.......................|.......................|.......................|.......................|.......................|.......................|.......................|.......................|
.......................|.......................|.......................|.......................|.......................|.......................|.......................|.......................|.......................|.......................|
.......................|.......................|.......................|.......................|.......................|.......................|.......................|.......................|.......................|.......................|
.......................|.......................|.......................|.......................|.......................|.......................|.......................|.......................|.......................|.......................|
.......................|.......................|.......................|.......................|.......................|.......................|.......................|.......................|.......................|.......................|
.......................|.......................|.......................|.......................|.......................|.......................|.......................|.......................|.......................|.......................|
.......................|.......................|.......................|.......................|.......................|.......................|.......................|.......................|.......................|.......................|
.......................|.......................|.......................|.......................|.......................|.......................|.......................|.......................|.......................|.......................|
.......................|.......................|.......................|.......................|.......................|.......................|.......................|.......................|.......................|.......................|
.......................|.......................|.......................|.......................|.......................|.......................|.......................|.......................|.......................|.......................|
.......................|.......................|.......................|.......................|.......................|.......................|.......................|.......................|.......................|.......................|
.......................|.......................|.......................|.......................|.......................|.......................|.......................|.......................|.......................|.......................|
.......................|.......................|.......................|.......................|.......................|.......................|.......................|.......................|.......................|.......................|
.......................|.......................|.......................|.......................|.......................|.......................|.......................|.......................|.......................|.......................|
.......................|.......................|.......................|.......................|.......................|.......................|.......................|.......................|.......................|.......................|
.......................|.......................|.......................|.......................|.......................|.......................|.......................|.......................|.......................|.......................|
.......................|.......................|.......................|.......................|.......................|.......................|.......................|.......................|.......................|.......................|
.......................|.......................|.......................|.......................|.......................|.......................|.......................|.......................|.......................|.......................|
.......................|.......................|.......................|.......................|.......................|.......................|.......................|.......................|.......................|.......................|
.......................|.......................|.......................|.......................|.......................|.......................|.......................|.......................|.......................|.......................|
.......................|.......................|.......................|.......................|.......................|.......................|.......................|.......................|.......................|.......................|
.......................|.......................|.......................|.......................|.......................|.......................|.......................|.......................|.......................|.......................|
.......................|.......................|.......................|.......................|.......................|.......................|.......................|.......................|.......................|.......................|
.......................|.......................|.......................|.......................|.......................|.......................|.......................|.......................|.......................|.......................|
.......................|.......................|.......................|.......................|.......................|.......................|.......................|.......................|.......................|.......................|
.......................|.......................|.......................|.......................|.......................|.......................|.......................|.......................|.......................|.......................|
.......................|.......................|.......................|.......................|.......................|.......................|.......................|.......................|.......................|.......................|
.......................|.......................|.......................|.......................|.......................|.......................|.......................|.......................|.......................|.......................|
.......................|.......................|.......................|.......................|.......................|.......................|.......................|.......................|.......................|.......................|
.......................|.......................|.......................|.......................|.......................|.......................|.......................|.......................|.......................|.......................|
.......................|.......................|.......................|.......................|.......................|.......................|.......................|.......................|.......................|.......................|
.......................|.......................|.......................|.......................|.......................|.......................|.......................|.......................|.......................|.......................|
.......................|.......................|.......................|.......................|.......................|.......................|.......................|.......................|.......................|.......................|
.......................|.......................|.......................|.......................|.......................|.......................|.......................|.......................|.......................|.......................|
.......................|.......................|.......................|.......................|.......................|.......................|.......................|.......................|.......................|.......................|
.......................|.......................|.......................|.......................|.......................|.......................|.......................|.......................|.......................|.......................|
.......................|.......................|.......................|.......................|.......................|.......................|.......................|.......................|.......................|.......................|
.......................|.......................|.......................|.......................|.......................|.......................|.......................|.......................|.......................|.......................|
.......................|.......................|.......................|.......................|.......................|.......................|.......................|.......................|.......................|.......................|
.......................|.......................|.......................|.......................|.......................|.......................|.......................|.......................|.......................|.......................|
.......................|.......................|.......................|.......................|.......................|.......................|.......................|.......................|.......................|.......................|
.......................|.......................|.......................|.......................|.......................|.......................|.......................|.......................|.......................|.......................|
.......................|.......................|.......................|.......................|.......................|.......................|.......................|.......................|.......................|.......................|
.......................|.......................|.......................|.......................|.......................|.......................|.......................|.......................|.......................|.......................|
.......................|.......................|.......................|.......................|.......................|.......................|.......................|.......................|.......................|.......................|
.......................|.......................|.......................|.......................|.......................|.......................|.......................|.......................|.......................|.......................|
.......................|.......................|.......................|.......................|.......................|.......................|.......................|.......................|.......................|.......................|
.......................|.......................|.......................|.......................|.......................|.......................|.......................|.......................|.......................|.......................|
.......................|.......................|.......................|.......................|.......................|.......................|.......................|.......................|.......................|.......................|
.......................|.......................|.......................|.......................|.......................|.......................|.......................|.......................|.......................|.......................|
.......................|.......................|.......................|.......................|.......................|.......................|.......................|.......................|.......................|.......................|
.......................|.......................|.......................|.......................|.......................|.......................|.......................|.......................|.......................|.......................|
.......................|.......................|.......................|.......................|.......................|.......................|.......................|.......................|.......................|.......................|
.......................|.......................|.......................|.......................|.......................|.......................|.......................|.......................|.......................|.......................|
.......................|.......................|.......................|.......................|.......................|.......................|.......................|.......................|.......................|.......................|
.......................|.......................|.......................|.......................|.......................|.......................|.......................|.......................|.......................|.......................|
.......................|.......................|.......................|.......................|.......................|.......................|.......................|.......................|.......................|.......................|
.......................|.......................|.......................|.......................|.......................|.......................|.......................|.......................|.......................|.......................|
.......................|.......................|.......................|.......................|.......................|.......................|.......................|.......................|.......................|.......................|
.......................|.......................|.......................|.......................|.......................|.......................|.......................|.......................|.......................|.......................|
.......................|.......................|.......................|.......................|.......................|.......................|.......................|.......................|.......................|.......................|
.......................|.......................|.......................|.......................|.......................|.......................|.......................|.......................|.......................|.......................|
.......................|.......................|.......................|.......................|.......................|.......................|.......................|.......................|.......................|.......................|
.......................|.......................|.......................|.......................|.......................|.......................|.......................|.......................|.......................|.......................|
.......................|.......................|.......................|.......................|.......................|.......................|.......................|.......................|.......................|.......................|
.......................|.......................|.......................|.......................|.......................|.......................|.......................|.......................|.......................|.......................|
.......................|.......................|.......................|.......................|.......................|.......................|.......................|.......................|.......................|.......................|
.......................|.......................|.......................|.......................|.......................|.......................|.......................|.......................|.......................|.......................|
.......................|.......................|.......................|.......................|.......................|.......................|.......................|.......................|.......................|.......................|
.......................|.......................|.......................|.......................|.......................|.......................|.......................|.......................|.......................|.......................|
.......................|.......................|.......................|.......................|.......................|.......................|.......................|.......................|.......................|.......................|
.......................|.......................|.......................|.......................|.......................|.......................|.......................|.......................|.......................|.......................|
.......................|.......................|.......................|.......................|.......................|.......................|.......................|.......................|.......................|.......................|
.......................|.......................|.......................|.......................|.......................|.......................|.......................|.......................|.......................|.......................|
.......................|.......................|.......................|.......................|.......................|.......................|.......................|.......................|.......................|.......................|
.......................|.......................|.......................|.......................|.......................|.......................|.......................|.......................|.......................|.......................|
.......................|.......................|.......................|.......................|.......................|.......................|.......................|.......................|.......................|.......................|
.......................|.......................|.......................|.......................|.......................|.......................|.......................|.......................|.......................|.......................|
.......................|.......................|.......................|.......................|.......................|.......................|.......................|.......................|.......................|.......................|
.......................|.......................|.......................|.......................|.......................|.......................|.......................|.......................|.......................|.......................|
.......................|.......................|.......................|.......................|.......................|.......................|.......................|.......................|.......................|.......................|
.......................|.......................|.......................|.......................|.......................|.......................|.......................|.......................|.......................|.......................|
.......................|.......................|.......................|.......................|.......................|.......................|.......................|.......................|.......................|.......................|
.......................|.......................|.......................|.......................|.......................|.......................|.......................|.......................|.......................|.......................|
.......................|.......................|.......................|.......................|.......................|.......................|.......................|.......................|.......................|.......................|
.......................|.......................|.......................|.......................|.......................|.......................|.......................|.......................|.......................|.......................|
.......................|.......................|.......................|.......................|.......................|.......................|.......................|.......................|.......................|.......................|
.......................|.......................|.......................|.......................|.......................|.......................|.......................|.......................|.......................|.......................|
.......................|.......................|.......................|.......................|.......................|.......................|.......................|.......................|.......................|.......................|
.......................|.......................|.......................|.......................|.......................|.......................|.......................|.......................|.......................|.......................|
.......................|.......................|.......................|.......................|.......................|.......................|.......................|.......................|.......................|.......................|
.......................|.......................|.......................|.......................|.......................|.......................|.......................|.......................|.......................|.......................|
.......................|.......................|.......................|.......................|.......................|.......................|.......................|.......................|.......................|.......................|
.......................|.......................|.......................|.......................|.......................|.......................|.......................|.......................|.......................|.......................|
.......................|.......................|.......................|.......................|.......................|.......................|.......................|.......................|.......................|.......................|
.......................|.......................|.......................|.......................|.......................|.......................|.......................|.......................|.......................|.......................|
.......................|.......................|.......................|.......................|.......................|.......................|.......................|.......................|.......................|.......................|
.......................|.......................|.......................|.......................|.......................|.......................|.......................|.......................|.......................|.......................|
.......................|.......................|.......................|.......................|.......................|.......................|.......................|.......................|.......................|.......................|
.......................|.......................|.......................|.......................|.......................|.......................|.......................|.......................|.......................|.......................|
.......................|.......................|.......................|.......................|.......................|.......................|.......................|.......................|.......................|.......................|
.......................|.......................|.......................|.......................|.......................|.......................|.......................|.......................|.......................|.......................|
.......................|.......................|.......................|.......................|.......................|.......................|.......................|.......................|.......................|.......................|
.......................|.......................|.......................|.......................|.......................|.......................|.......................|.......................|.......................|.......................|
.......................|.......................|.......................|.......................|.......................|.......................|.......................|.......................|.......................|.......................|
.......................|.......................|.......................|.......................|.......................|.......................|.......................|.......................|.......................|.......................|
.......................|.......................|.......................|.......................|.......................|.......................|.......................|.......................|.......................|.......................|
.......................|.......................|.......................|.......................|.......................|.......................|.......................|.......................|.......................|.......................|
.......................|.......................|.......................|.......................|.......................|.......................|.......................|.......................|.......................|.......................|
.......................|.......................|.......................|.......................|.......................|.......................|.......................|.......................|.......................|.......................|
.......................|.......................|.......................|.......................|.......................|.......................|.......................|.......................|.......................|.......................|
.......................|.......................|.......................|.......................|.......................|.......................|.......................|.......................|.......................|.......................|
.......................|.......................|.......................|.......................|.......................|.......................|.......................|.......................|.......................|.......................|
.......................|.......................|.......................|.......................|.......................|.......................|.......................|.......................|.......................|.......................|
.......................|.......................|.......................|.......................|.......................|.......................|.......................|.......................|.......................|.......................|
.......................|.......................|.......................|.......................|.......................|.......................|.......................|.......................|.......................|.......................|
.......................|.......................|.......................|.......................|.......................|.......................|.......................|.......................|.......................|.......................|
.......................|.......................|.......................|.......................|.......................|.......................|.......................|.......................|.......................|.......................|
.......................|.......................|.......................|.......................|.......................|.......................|.......................|.......................|.......................|.......................|
.......................|.......................|.......................|.......................|.......................|.......................|.......................|.......................|.......................|.......................|
.......................|.......................|.......................|.......................|.......................|.......................|.......................|.......................|.......................|.......................|
.......................|.......................|.......................|.......................|.......................|.......................|.......................|.......................|.......................|.......................|
.......................|.......................|.......................|.......................|.......................|.......................|.......................|.......................|.......................|.......................|
.......................|.......................|.......................|.......................|.......................|.......................|.......................|.......................|.......................|.......................|
.......................|.......................|.......................|.......................|.......................|.......................|.......................|.......................|.......................|.......................|
.......................|.......................|.......................|.......................|.......................|.......................|.......................|.......................|.......................|.......................|
.......................|.......................|.......................|.......................|.......................|.......................|.......................|.......................|.......................|.......................|
.......................|.......................|.......................|.......................|.......................|.......................|.......................|.......................|.......................|.......................|
.......................|.......................|.......................|.......................|.......................|.......................|.......................|.......................|.......................|.......................|
.......................|.......................|.......................|.......................|.......................|.......................|.......................|.......................|.......................|.......................|
.......................|.......................|.......................|.......................|.......................|.......................|.......................|.......................|.......................|.......................|
.......................|.......................|.......................|.......................|.......................|.......................|.......................|.......................|.......................|.......................|
.......................|.......................|.......................|.......................|.......................|.......................|.......................|.......................|.......................|.......................|
.......................|.......................|.......................|.......................|.......................|.......................|.......................|.......................|.......................|.......................|
.......................|.......................|.......................|.......................|.......................|.......................|.......................|.......................|.......................|.......................|
.......................|.......................|.......................|.......................|.......................|.......................|.......................|.......................|.......................|.......................|
.......................|.......................|.......................|.......................|.......................|.......................|.......................|.......................|.......................|.......................|
.......................|.......................|.......................|.......................|.......................|.......................|.......................|.......................|.......................|.......................|
.......................|.......................|.......................|.......................|.......................|.......................|.......................|.......................|.......................|.......................|
.......................|.......................|.......................|.......................|.......................|.......................|.......................|.......................|.......................|.......................|
.......................|.......................|.......................|.......................|.......................|.......................|.......................|.......................|.......................|.......................|
.......................|.......................|.......................|.......................|.......................|.......................|.......................|.......................|.......................|.......................|
.......................|.......................|.......................|.......................|.......................|.......................|.......................|.......................|.......................|.......................|
.......................|.......................|.......................|.......................|.......................|.......................|.......................|.......................|.......................|.......................|
.......................|.......................|.......................|.......................|.......................|.......................|.......................|.......................|.......................|.......................|
.......................|.......................|.......................|.......................|.......................|.......................|.......................|.......................|.......................|.......................|
.......................|.......................|.......................|.......................|.......................|.......................|.......................|.......................|.......................|.......................|
.......................|.......................|.......................|.......................|.......................|.......................|.......................|.......................|.......................|.......................|
.......................|.......................|.......................|.......................|.......................|.......................|.......................|.......................|.......................|.......................|
.......................|.......................|.......................|.......................|.......................|.......................|.......................|.......................|.......................|.......................|
.......................|.......................|.......................|.......................|.......................|.......................|.......................|.......................|.......................|.......................|
.......................|.......................|.......................|.......................|.......................|.......................|.......................|.......................|.......................|.......................|
.......................|.......................|.......................|.......................|.......................|.......................|.......................|.......................|.......................|.......................|
.......................|.......................|.......................|.......................|.......................|.......................|.......................|.......................|.......................|.......................|
.......................|.......................|.......................|.......................|.......................|.......................|.......................|.......................|.......................|.......................|
.......................|.......................|.......................|.......................|.......................|.......................|.......................|.......................|.......................|.......................|
.......................|.......................|.......................|.......................|.......................|.......................|.......................|.......................|.......................|.......................|
.......................|.......................|.......................|.......................|.......................|.......................|.......................|.......................|.......................|.......................|
.......................|.......................|.......................|.......................|.......................|.......................|.......................|.......................|.......................|.......................|
.......................|.......................|.......................|.......................|.......................|.......................|.......................|.......................|.......................|.......................|
.......................|.......................|.......................|.......................|.......................|.......................|.......................|.......................|.......................|.......................|
.......................|.......................|.......................|.......................|.......................|.......................|.......................|.......................|.......................|.......................|
.......................|.......................|.......................|.......................|.......................|.......................|.......................|.......................|.......................|.......................|
.......................|.......................|.......................|.......................|.......................|.......................|.......................|.......................|.......................|.......................|
.......................|.......................|.......................|.......................|.......................|.......................|.......................|.......................|.......................|.......................|
.......................|.......................|.......................|.......................|.......................|.......................|.......................|.......................|.......................|.......................|
.......................|.......................|.......................|.......................|.......................|.......................|.......................|.......................|.......................|.......................|
.......................|.......................|.......................|.......................|.......................|.......................|.......................|.......................|.......................|.......................|
.......................|.......................|.......................|.......................|.......................|.......................|.......................|.......................|.......................|.......................|
.......................|.......................|.......................|.......................|.......................|.......................|.......................|.......................|.......................|.......................|
.......................|.......................|.......................|.......................|.......................|.......................|.......................|.......................|.......................|.......................|
.......................|.......................|.......................|.......................|.......................|.......................|.......................|.......................|.......................|.......................|
