org.tildearrow.furnace - Pattern Data (219)
0
A-3266F................|.......................|F#3266F................|.......................|.......................|.......................|C-0....................|.......................|.......................|.......................|
.......................|.......................|.......................|.......................|.......................|.......................|.......................|.......................|.......................|.......................|
.......................|.......................|.......................|C-002748000............|C-0026F80FF............|.......................|C-0....................|.......................|.......................|.......................|
.......................|.......................|.......................|.......................|.......................|.......................|.......................|.......................|.......................|.......................|
.......................|.......................|.......................|.......................|.......................|.......................|.......................|.......................|.......................|.......................|
.......................|.......................|.......................|.......................|.......................|.......................|.......................|.......................|.......................|.......................|
.......................|.......................|.......................|.......................|.......................|.......................|.......................|.......................|.......................|.......................|
.......................|.......................|.......................|.......................|.......................|.......................|.......................|.......................|.......................|.......................|
.......................|.......................|.......................|.......................|.......................|.......................|.......................|.......................|.......................|.......................|
.......................|.......................|.......................|.......................|.......................|.......................|.......................|.......................|.......................|.......................|
.......................|.......................|.......................|.......................|.......................|.......................|.......................|.......................|.......................|.......................|
.......................|.......................|.......................|.......................|.......................|.......................|.......................|.......................|.......................|.......................|
.......................|.......................|.......................|.......................|.......................|.......................|.......................|.......................|.......................|.......................|
.......................|.......................|.......................|.......................|.......................|.......................|.......................|.......................|.......................|.......................|
.......................|.......................|.......................|C-0....................|C-0....................|.......................|.......................|.......................|.......................|.......................|
.......................|.......................|.......................|.......................|.......................|.......................|.......................|.......................|.......................|.......................|
.......................|.......................|.......................|.......................|.......................|.......................|.......................|.......................|.......................|.......................|
.......................|.......................|.......................|.......................|.......................|.......................|.......................|.......................|.......................|.......................|
.......................|.......................|.......................|.......................|.......................|.......................|.......................|.......................|.......................|.......................|
.......................|.......................|.......................|.......................|.......................|.......................|.......................|.......................|.......................|.......................|
.......................|.......................|.......................|.......................|.......................|.......................|A-4A009................|.......................|.......................|.......................|
.......................|.......................|.......................|.......................|.......................|.......................|.......................|.......................|.......................|.......................|
.......................|.......................|.......................|.......................|.......................|.......................|.......................|.......................|.......................|.......................|
.......................|.......................|.......................|.......................|.......................|.......................|.......................|.......................|.......................|.......................|
.......0452............|A-32663................|.......0452............|.......................|.......................|.......................|.......................|.......................|.......................|.......................|
.......................|.......................|.......................|.......................|.......................|.......................|.......................|.......................|.......................|.......................|
.......................|.......................|.......................|C-0....................|C-0....................|.......................|.......................|.......................|.......................|.......................|
.......................|.......................|.......................|.......................|.......................|.......................|.......................|.......................|.......................|.......................|
.......................|.......................|.......................|.......................|.......................|.......................|.......................|.......................|.......................|.......................|
.......................|.......................|.......................|.......................|.......................|.......................|.......................|.......................|.......................|.......................|
.......................|.......................|.......................|.......................|.......................|.......................|.......................|.......................|.......................|.......................|
.......................|.......................|.......................|.......................|.......................|.......................|.......................|.......................|.......................|.......................|
.......................|.......................|.......................|.......................|.......................|.......................|F#4....................|.......................|.......................|.......................|
.......................|.......................|.......................|.......................|.......................|.......................|.......................|.......................|.......................|.......................|
.......................|.......................|.......................|.......................|.......................|.......................|.......................|.......................|.......................|.......................|
.......................|.......................|.......................|.......................|.......................|.......................|.......................|.......................|.......................|.......................|
.......................|.......................|.......................|.......................|.......................|.......................|.......................|.......................|.......................|.......................|
.......................|.......................|.......................|.......................|.......................|.......................|.......................|.......................|.......................|.......................|
.......................|.......................|.......................|C-0....................|F#5....................|.......................|.......................|.......................|.......................|.......................|
.......................|.......................|.......................|.......................|.......................|.......................|.......................|.......................|.......................|.......................|
.......................|.......................|.......................|.......................|.......................|.......................|.......................|.......................|.......................|.......................|
.......................|.......................|.......................|.......................|.......................|.......................|.......................|.......................|.......................|.......................|
.......................|.......................|.......................|.......................|.......................|.......................|.......................|.......................|.......................|.......................|
.......................|.......................|.......................|.......................|.......................|.......................|.......................|.......................|.......................|.......................|
.......................|.......................|.......................|.......................|.......................|.......................|E-4....................|.......................|.......................|.......................|
.......................|.......................|.......................|.......................|.......................|.......................|.......................|.......................|.......................|.......................|
.......................|.......................|.......................|.......................|.......................|.......................|.......................|.......................|.......................|.......................|
C-0....................|.......................|C-0....................|.......................|.......................|.......................|.......................|.......................|.......................|.......................|
A-3....0400............|.......0452............|F#3....0400............|.......................|.......................|.......................|.......................|.......................|.......................|.......................|
.......................|.......................|.......................|.......................|.......................|.......................|.......................|.......................|.......................|.......................|
.......................|.......................|.......................|C-0....................|E-5....................|.......................|.......................|.......................|.......................|.......................|
.......................|.......................|.......................|.......................|.......................|.......................|.......................|.......................|.......................|.......................|
.......................|.......................|.......................|.......................|.......................|.......................|.......................|.......................|.......................|.......................|
.......................|.......................|.......................|.......................|.......................|.......................|.......................|.......................|.......................|.......................|
.......................|.......................|.......................|.......................|.......................|.......................|.......................|.......................|.......................|.......................|
.......................|.......................|.......................|.......................|.......................|.......................|.......................|.......................|.......................|.......................|
.......................|.......................|.......................|.......................|.......................|.......................|D-4....................|.......................|.......................|.......................|
.......................|.......................|.......................|.......................|.......................|.......................|.......................|.......................|.......................|.......................|
.......................|.......................|.......................|.......................|.......................|.......................|.......................|.......................|.......................|.......................|
.......................|.......................|.......................|.......................|.......................|.......................|.......................|.......................|.......................|.......................|
.......................|.......................|.......................|.......................|.......................|.......................|.......................|.......................|.......................|.......................|
.......................|.......................|.......................|.......................|.......................|.......................|.......................|.......................|.......................|.......................|
.......................|.......................|.......................|F#5....................|D-5....................|.......................|.......................|.......................|.......................|.......................|
.......................|.......................|.......................|.......................|.......................|.......................|.......................|.......................|.......................|.......................|
.......................|.......................|.......................|.......................|.......................|.......................|.......................|.......................|.......................|.......................|
.......................|.......................|.......................|.......................|.......................|.......................|.......................|.......................|.......................|.......................|
.......................|.......................|.......................|.......................|.......................|.......................|.......................|.......................|.......................|.......................|
.......................|.......................|.......................|.......................|.......................|.......................|.......................|.......................|.......................|.......................|
.......................|.......................|.......................|.......................|.......................|.......................|A-3....................|.......................|.......................|.......................|
.......................|.......................|.......................|.......................|.......................|.......................|.......................|.......................|.......................|.......................|
.......................|.......................|.......................|.......................|.......................|.......................|.......................|.......................|.......................|.......................|
.......................|C-0....................|.......................|.......................|.......................|.......................|.......................|.......................|.......................|.......................|
.......0452............|A-3....0400............|.......0452............|.......................|.......................|.......................|.......................|.......................|.......................|.......................|
.......................|.......................|.......................|.......................|.......................|.......................|.......................|.......................|.......................|.......................|
.......................|.......................|.......................|E-5....................|A-4....................|.......................|.......................|.......................|.......................|.......................|
.......................|.......................|.......................|.......................|.......................|.......................|.......................|.......................|.......................|.......................|
.......................|.......................|.......................|.......................|.......................|.......................|.......................|.......................|.......................|.......................|
.......................|.......................|.......................|.......................|.......................|.......................|.......................|.......................|.......................|.......................|
.......................|.......................|.......................|.......................|.......................|.......................|.......................|.......................|.......................|.......................|
.......................|.......................|.......................|.......................|.......................|.......................|.......................|.......................|.......................|.......................|
.......................|.......................|.......................|.......................|.......................|.......................|F#3....................|.......................|.......................|.......................|
.......................|.......................|.......................|.......................|.......................|.......................|.......................|.......................|.......................|.......................|
.......................|.......................|.......................|.......................|.......................|.......................|.......................|.......................|.......................|.......................|
.......................|.......................|.......................|.......................|.......................|.......................|.......................|.......................|.......................|.......................|
.......................|.......................|.......................|.......................|.......................|.......................|.......................|.......................|.......................|.......................|
.......................|.......................|.......................|.......................|.......................|.......................|.......................|.......................|.......................|.......................|
.......................|.......................|.......................|D-5....................|F#4....................|.......................|.......................|.......................|.......................|.......................|
.......................|.......................|.......................|.......................|.......................|.......................|.......................|.......................|.......................|.......................|
.......................|.......................|.......................|.......................|.......................|.......................|.......................|.......................|.......................|.......................|
.......................|.......................|.......................|.......................|.......................|.......................|.......................|.......................|.......................|.......................|
.......................|.......................|.......................|.......................|.......................|.......................|.......................|.......................|.......................|.......................|
.......................|.......................|.......................|.......................|.......................|.......................|.......................|.......................|.......................|.......................|
.......................|.......................|.......................|.......................|.......................|.......................|E-3....................|.......................|.......................|.......................|
.......................|.......................|.......................|.......................|.......................|.......................|.......................|.......................|.......................|.......................|
.......................|.......................|.......................|.......................|.......................|.......................|.......................|.......................|.......................|.......................|
C-0....................|.......................|C-0....................|.......................|.......................|.......................|.......................|.......................|.......................|.......................|
D-4....0400............|.......0452............|A#3....0400............|.......................|.......................|.......................|.......................|.......................|.......................|.......................|
.......................|.......................|.......................|.......................|.......................|.......................|.......................|.......................|.......................|.......................|
.......................|.......................|.......................|C-0....................|C-0....................|.......................|.......................|.......................|.......................|.......................|
.......................|.......................|.......................|.......................|.......................|.......................|.......................|.......................|.......................|.......................|
.......................|.......................|.......................|.......................|.......................|.......................|.......................|.......................|.......................|.......................|
.......................|.......................|.......................|.......................|.......................|.......................|.......................|.......................|.......................|.......................|
.......................|.......................|.......................|.......................|.......................|.......................|.......................|.......................|.......................|.......................|
.......................|.......................|.......................|.......................|.......................|.......................|.......................|.......................|.......................|.......................|
.......................|.......................|.......................|.......................|.......................|.......................|D-3....................|.......................|.......................|.......................|
.......................|.......................|.......................|.......................|.......................|.......................|.......................|.......................|.......................|.......................|
.......................|.......................|.......................|.......................|.......................|.......................|.......................|.......................|.......................|.......................|
.......................|.......................|.......................|.......................|.......................|.......................|.......................|.......................|.......................|.......................|
.......................|.......................|.......................|.......................|.......................|.......................|.......................|.......................|.......................|.......................|
.......................|.......................|.......................|.......................|.......................|.......................|.......................|.......................|.......................|.......................|
.......................|.......................|.......................|C-0....................|C-0....................|.......................|.......................|.......................|.......................|.......................|
.......................|.......................|.......................|.......................|.......................|.......................|.......................|.......................|.......................|.......................|
.......................|.......................|.......................|.......................|.......................|.......................|.......................|.......................|.......................|.......................|
.......................|.......................|.......................|.......................|.......................|.......................|.......................|.......................|.......................|.......................|
.......................|.......................|.......................|.......................|.......................|.......................|.......................|.......................|.......................|.......................|
.......................|.......................|.......................|.......................|.......................|.......................|.......................|.......................|.......................|.......................|
.......................|.......................|.......................|.......................|.......................|.......................|A#4....................|.......................|.......................|.......................|
.......................|.......................|.......................|.......................|.......................|.......................|.......................|.......................|.......................|.......................|
.......................|.......................|.......................|.......................|.......................|.......................|.......................|.......................|.......................|.......................|
.......................|C-0....................|.......................|.......................|.......................|.......................|.......................|.......................|.......................|.......................|
.......0452............|D-4....0400............|.......0452............|.......................|.......................|.......................|.......................|.......................|.......................|.......................|
.......................|.......................|.......................|.......................|.......................|.......................|.......................|.......................|.......................|.......................|
.......................|.......................|.......................|C-0....................|C-0....................|.......................|.......................|.......................|.......................|.......................|
.......................|.......................|.......................|.......................|.......................|.......................|.......................|.......................|.......................|.......................|
.......................|.......................|.......................|.......................|.......................|.......................|.......................|.......................|.......................|.......................|
.......................|.......................|.......................|.......................|.......................|.......................|.......................|.......................|.......................|.......................|
.......................|.......................|.......................|.......................|.......................|.......................|.......................|.......................|.......................|.......................|
.......................|.......................|.......................|.......................|.......................|.......................|.......................|.......................|.......................|.......................|
.......................|.......................|.......................|.......................|.......................|.......................|G-4....................|.......................|.......................|.......................|
.......................|.......................|.......................|.......................|.......................|.......................|.......................|.......................|.......................|.......................|
.......................|.......................|.......................|.......................|.......................|.......................|.......................|.......................|.......................|.......................|
.......................|.......................|.......................|.......................|.......................|.......................|.......................|.......................|.......................|.......................|
.......................|.......................|.......................|.......................|.......................|.......................|.......................|.......................|.......................|.......................|
.......................|.......................|.......................|.......................|.......................|.......................|.......................|.......................|.......................|.......................|
.......................|.......................|.......................|C-0....................|G-5....................|.......................|.......................|.......................|.......................|.......................|
.......................|.......................|.......................|.......................|.......................|.......................|.......................|.......................|.......................|.......................|
.......................|.......................|.......................|.......................|.......................|.......................|.......................|.......................|.......................|.......................|
.......................|.......................|.......................|.......................|.......................|.......................|.......................|.......................|.......................|.......................|
.......................|.......................|.......................|.......................|.......................|.......................|.......................|.......................|.......................|.......................|
.......................|.......................|.......................|.......................|.......................|.......................|.......................|.......................|.......................|.......................|
.......................|.......................|.......................|.......................|.......................|.......................|E-4....................|.......................|.......................|.......................|
.......................|.......................|.......................|.......................|.......................|.......................|.......................|.......................|.......................|.......................|
.......................|.......................|.......................|.......................|.......................|.......................|.......................|.......................|.......................|.......................|
C-0....................|.......................|C-0....................|.......................|.......................|.......................|.......................|.......................|.......................|.......................|
D-4....0400............|.......0452............|A#3....0400............|.......................|.......................|.......................|.......................|.......................|.......................|.......................|
.......................|.......................|.......................|.......................|.......................|.......................|.......................|.......................|.......................|.......................|
.......................|.......................|.......................|C-0....................|E-5....................|.......................|.......................|.......................|.......................|.......................|
.......................|.......................|.......................|.......................|.......................|.......................|.......................|.......................|.......................|.......................|
.......................|.......................|.......................|.......................|.......................|.......................|.......................|.......................|.......................|.......................|
.......................|.......................|.......................|.......................|.......................|.......................|.......................|.......................|.......................|.......................|
.......................|.......................|.......................|.......................|.......................|.......................|.......................|.......................|.......................|.......................|
.......................|.......................|.......................|.......................|.......................|.......................|.......................|.......................|.......................|.......................|
.......................|.......................|.......................|.......................|.......................|.......................|D-4....................|.......................|.......................|.......................|
.......................|.......................|.......................|.......................|.......................|.......................|.......................|.......................|.......................|.......................|
.......................|.......................|.......................|.......................|.......................|.......................|.......................|.......................|.......................|.......................|
.......................|.......................|.......................|.......................|.......................|.......................|.......................|.......................|.......................|.......................|
.......................|.......................|.......................|.......................|.......................|.......................|.......................|.......................|.......................|.......................|
.......................|.......................|.......................|.......................|.......................|.......................|.......................|.......................|.......................|.......................|
.......................|.......................|.......................|G-5....................|D-5....................|.......................|.......................|.......................|.......................|.......................|
.......................|.......................|.......................|.......................|.......................|.......................|.......................|.......................|.......................|.......................|
.......................|.......................|.......................|.......................|.......................|.......................|.......................|.......................|.......................|.......................|
.......................|.......................|.......................|.......................|.......................|.......................|.......................|.......................|.......................|.......................|
.......................|.......................|.......................|.......................|.......................|.......................|.......................|.......................|.......................|.......................|
.......................|.......................|.......................|.......................|.......................|.......................|.......................|.......................|.......................|.......................|
.......................|.......................|.......................|.......................|.......................|.......................|A#3....................|.......................|.......................|.......................|
.......................|.......................|.......................|.......................|.......................|.......................|.......................|.......................|.......................|.......................|
.......................|.......................|.......................|.......................|.......................|.......................|.......................|.......................|.......................|.......................|
.......................|C-0....................|.......................|.......................|.......................|.......................|.......................|.......................|.......................|.......................|
.......0452............|D-4....0400............|.......0452............|.......................|.......................|.......................|.......................|.......................|.......................|.......................|
.......................|.......................|.......................|.......................|.......................|.......................|.......................|.......................|.......................|.......................|
.......................|.......................|.......................|E-5....................|A#4....................|.......................|.......................|.......................|.......................|.......................|
.......................|.......................|.......................|.......................|.......................|.......................|.......................|.......................|.......................|.......................|
.......................|.......................|.......................|.......................|.......................|.......................|.......................|.......................|.......................|.......................|
.......................|.......................|.......................|.......................|.......................|.......................|.......................|.......................|.......................|.......................|
.......................|.......................|.......................|.......................|.......................|.......................|.......................|.......................|.......................|.......................|
.......................|.......................|.......................|.......................|.......................|.......................|.......................|.......................|.......................|.......................|
.......................|.......................|.......................|.......................|.......................|.......................|G-3....................|.......................|.......................|.......................|
.......................|.......................|.......................|.......................|.......................|.......................|.......................|.......................|.......................|.......................|
.......................|.......................|.......................|.......................|.......................|.......................|.......................|.......................|.......................|.......................|
.......................|.......................|.......................|.......................|.......................|.......................|.......................|.......................|.......................|.......................|
.......................|.......................|.......................|.......................|.......................|.......................|.......................|.......................|.......................|.......................|
.......................|.......................|.......................|.......................|.......................|.......................|.......................|.......................|.......................|.......................|
.......................|.......................|.......................|D-5....................|G-4....................|.......................|.......................|.......................|.......................|.......................|
.......................|.......................|.......................|.......................|.......................|.......................|.......................|.......................|.......................|.......................|
.......................|.......................|.......................|.......................|.......................|.......................|.......................|.......................|.......................|.......................|
.......................|.......................|.......................|.......................|.......................|.......................|.......................|.......................|.......................|.......................|
.......................|.......................|.......................|.......................|.......................|.......................|.......................|.......................|.......................|.......................|
.......................|.......................|.......................|.......................|.......................|.......................|.......................|.......................|.......................|.......................|
.......................|.......................|.......................|.......................|.......................|.......................|E-3....................|.......................|.......................|.......................|
.......................|.......................|.......................|.......................|.......................|.......................|.......................|.......................|.......................|.......................|
.......................|.......................|.......................|.......................|.......................|.......................|.......................|.......................|.......................|.......................|
C-0....................|.......................|C-0....................|.......................|.......................|.......................|.......................|.......................|.......................|.......................|
C#4....0400............|.......0452............|A-3....0400............|.......................|.......................|.......................|.......................|.......................|.......................|.......................|
.......................|.......................|.......................|.......................|.......................|.......................|.......................|.......................|.......................|.......................|
.......................|.......................|.......................|C-0....................|.......................|.......................|.......................|.......................|.......................|.......................|
.......................|.......................|.......................|.......................|.......................|.......................|.......................|.......................|.......................|.......................|
.......................|.......................|.......................|.......................|.......................|.......................|.......................|.......................|.......................|.......................|
.......................|.......................|.......................|.......................|.......................|.......................|.......................|.......................|.......................|.......................|
.......................|.......................|.......................|.......................|.......................|.......................|.......................|.......................|.......................|.......................|
.......................|.......................|.......................|.......................|.......................|.......................|.......................|.......................|.......................|.......................|
.......................|.......................|.......................|.......................|.......................|.......................|D-3....................|.......................|.......................|.......................|
.......................|.......................|.......................|.......................|.......................|.......................|.......................|.......................|.......................|.......................|
.......................|.......................|.......................|.......................|.......................|.......................|.......................|.......................|.......................|.......................|
.......................|.......................|.......................|.......................|.......................|.......................|.......................|.......................|.......................|.......................|
.......................|.......................|.......................|.......................|.......................|.......................|.......................|.......................|.......................|.......................|
.......................|.......................|.......................|.......................|.......................|.......................|.......................|.......................|.......................|.......................|
.......................|.......................|.......................|C-0....................|C-0....................|.......................|.......................|.......................|.......................|.......................|
.......................|.......................|.......................|.......................|.......................|.......................|.......................|.......................|.......................|.......................|
.......................|.......................|.......................|.......................|.......................|.......................|.......................|.......................|.......................|.......................|
.......................|.......................|.......................|.......................|.......................|.......................|.......................|.......................|.......................|.......................|
.......................|.......................|.......................|.......................|.......................|.......................|.......................|.......................|.......................|.......................|
.......................|.......................|.......................|.......................|.......................|.......................|.......................|.......................|.......................|.......................|
.......................|.......................|.......................|.......................|.......................|.......................|A-4....................|.......................|.......................|.......................|
.......................|.......................|.......................|.......................|.......................|.......................|.......................|.......................|.......................|.......................|
.......................|.......................|.......................|.......................|.......................|.......................|.......................|.......................|.......................|.......................|
.......................|C-0....................|.......................|.......................|.......................|.......................|.......................|.......................|.......................|.......................|
.......0452............|C#4....0400............|.......0452............|.......................|.......................|.......................|.......................|.......................|.......................|.......................|
.......................|.......................|.......................|.......................|.......................|.......................|.......................|.......................|.......................|.......................|
.......................|.......................|.......................|C-0....................|C-0....................|.......................|.......................|.......................|.......................|.......................|
.......................|.......................|.......................|.......................|.......................|.......................|.......................|.......................|.......................|.......................|
.......................|.......................|.......................|.......................|.......................|.......................|.......................|.......................|.......................|.......................|
.......................|.......................|.......................|.......................|.......................|.......................|.......................|.......................|.......................|.......................|
.......................|.......................|.......................|.......................|.......................|.......................|.......................|.......................|.......................|.......................|
.......................|.......................|.......................|.......................|.......................|.......................|.......................|.......................|.......................|.......................|
.......................|.......................|.......................|.......................|.......................|.......................|E-4....................|.......................|.......................|.......................|
.......................|.......................|.......................|.......................|.......................|.......................|.......................|.......................|.......................|.......................|
.......................|.......................|.......................|.......................|.......................|.......................|.......................|.......................|.......................|.......................|
.......................|.......................|.......................|.......................|.......................|.......................|.......................|.......................|.......................|.......................|
.......................|.......................|.......................|.......................|.......................|.......................|.......................|.......................|.......................|.......................|
.......................|.......................|.......................|.......................|.......................|.......................|.......................|.......................|.......................|.......................|
.......................|.......................|.......................|C-0....................|C-0....................|.......................|.......................|.......................|.......................|.......................|
.......................|.......................|.......................|.......................|.......................|.......................|.......................|.......................|.......................|.......................|
.......................|.......................|.......................|.......................|.......................|.......................|.......................|.......................|.......................|.......................|
.......................|.......................|.......................|.......................|.......................|.......................|.......................|.......................|.......................|.......................|
.......................|.......................|.......................|.......................|.......................|.......................|.......................|.......................|.......................|.......................|
.......................|.......................|.......................|.......................|.......................|.......................|.......................|.......................|.......................|.......................|
.......................|.......................|.......................|.......................|.......................|.......................|D-4....................|.......................|.......................|.......................|
.......................|.......................|.......................|.......................|.......................|.......................|.......................|.......................|.......................|.......................|
.......................|.......................|.......................|.......................|.......................|.......................|.......................|.......................|.......................|.......................|
C-0....................|.......................|C-0....................|.......................|.......................|.......................|.......................|.......................|.......................|.......................|
C#4....0400............|.......0452............|A-3....0400............|.......................|.......................|.......................|.......................|.......................|.......................|.......................|
.......................|.......................|.......................|.......................|.......................|.......................|.......................|.......................|.......................|.......................|
.......................|.......................|.......................|C-0....................|C-0....................|.......................|.......................|.......................|.......................|.......................|
.......................|.......................|.......................|.......................|.......................|.......................|.......................|.......................|.......................|.......................|
.......................|.......................|.......................|.......................|.......................|.......................|.......................|.......................|.......................|.......................|
.......................|.......................|.......................|.......................|.......................|.......................|.......................|.......................|.......................|.......................|
.......................|.......................|.......................|.......................|.......................|.......................|.......................|.......................|.......................|.......................|
.......................|.......................|.......................|.......................|.......................|.......................|.......................|.......................|.......................|.......................|
.......................|.......................|.......................|.......................|.......................|.......................|C#4....................|.......................|.......................|.......................|
.......................|.......................|.......................|.......................|.......................|.......................|.......................|.......................|.......................|.......................|
.......................|.......................|.......................|.......................|.......................|.......................|.......................|.......................|.......................|.......................|
.......................|.......................|.......................|.......................|.......................|.......................|.......................|.......................|.......................|.......................|
.......................|.......................|.......................|.......................|.......................|.......................|.......................|.......................|.......................|.......................|
.......................|.......................|.......................|.......................|.......................|.......................|.......................|.......................|.......................|.......................|
.......................|.......................|.......................|E-5....................|C-0....................|.......................|.......................|.......................|.......................|.......................|
.......................|.......................|.......................|.......................|.......................|.......................|.......................|.......................|.......................|.......................|
org.tildearrow.furnace - Pattern Data (219)
0
.......................|.......................|.......................|.......................|.......................|.......................|.......................|.......................|.......................|.......................|
.......................|.......................|.......................|.......................|.......................|.......................|.......................|.......................|.......................|.......................|
.......................|.......................|.......................|.......................|.......................|.......................|.......................|.......................|.......................|.......................|
.......................|.......................|.......................|.......................|.......................|.......................|.......................|.......................|.......................|.......................|
.......................|.......................|.......................|.......................|.......................|.......................|A-3....................|.......................|.......................|.......................|
.......................|.......................|.......................|.......................|.......................|.......................|.......................|.......................|.......................|.......................|
.......................|.......................|.......................|.......................|.......................|.......................|.......................|.......................|.......................|.......................|
.......................|C-0....................|.......................|.......................|.......................|.......................|.......................|.......................|.......................|.......................|
.......0452............|C#4....0400............|.......0452............|.......................|.......................|.......................|.......................|.......................|.......................|.......................|
.......................|.......................|.......................|.......................|.......................|.......................|.......................|.......................|.......................|.......................|
.......................|.......................|.......................|D-5....................|E-5....................|.......................|.......................|.......................|.......................|.......................|
.......................|.......................|.......................|.......................|.......................|.......................|.......................|.......................|.......................|.......................|
.......................|.......................|.......................|.......................|.......................|.......................|.......................|.......................|.......................|.......................|
.......................|.......................|.......................|.......................|.......................|.......................|.......................|.......................|.......................|.......................|
.......................|.......................|.......................|.......................|.......................|.......................|.......................|.......................|.......................|.......................|
.......................|.......................|.......................|.......................|.......................|.......................|.......................|.......................|.......................|.......................|
.......................|.......................|.......................|.......................|.......................|.......................|E-3....................|.......................|.......................|.......................|
.......................|.......................|.......................|.......................|.......................|.......................|.......................|.......................|.......................|.......................|
.......................|.......................|.......................|.......................|.......................|.......................|.......................|.......................|.......................|.......................|
.......................|.......................|.......................|.......................|.......................|.......................|.......................|.......................|.......................|.......................|
.......................|.......................|.......................|.......................|.......................|.......................|.......................|.......................|.......................|.......................|
.......................|.......................|.......................|.......................|.......................|.......................|.......................|.......................|.......................|.......................|
.......................|.......................|.......................|C#5....................|D-5....................|.......................|.......................|.......................|.......................|.......................|
.......................|.......................|.......................|.......................|.......................|.......................|.......................|.......................|.......................|.......................|
.......................|.......................|.......................|.......................|.......................|.......................|.......................|.......................|.......................|.......................|
.......................|.......................|.......................|.......................|.......................|.......................|.......................|.......................|.......................|.......................|
.......................|.......................|.......................|.......................|.......................|.......................|.......................|.......................|.......................|.......................|
.......................|.......................|.......................|.......................|.......................|.......................|.......................|.......................|.......................|.......................|
.......................|.......................|.......................|.......................|.......................|.......................|D-3....................|.......................|.......................|.......................|
.......................|.......................|.......................|.......................|.......................|.......................|.......................|.......................|.......................|.......................|
.......................|.......................|.......................|.......................|.......................|.......................|.......................|.......................|.......................|.......................|
C-0....................|.......................|C-0....................|.......................|.......................|.......................|.......................|.......................|.......................|.......................|
G#3....0400............|.......0452............|D-3....0400............|.......................|.......................|.......................|.......................|.......................|.......................|.......................|
.......................|.......................|.......................|.......................|.......................|.......................|.......................|.......................|.......................|.......................|
.......................|.......................|.......................|B-4....................|C#5....................|.......................|.......................|.......................|.......................|.......................|
.......................|.......................|.......................|.......................|.......................|.......................|.......................|.......................|.......................|.......................|
.......................|.......................|.......................|.......................|.......................|.......................|.......................|.......................|.......................|.......................|
.......................|.......................|.......................|.......................|.......................|.......................|.......................|.......................|.......................|.......................|
.......................|.......................|.......................|.......................|.......................|.......................|.......................|.......................|.......................|.......................|
.......................|.......................|.......................|.......................|.......................|.......................|.......................|.......................|.......................|.......................|
.......................|.......................|.......................|.......................|.......................|.......................|C#3....................|.......................|.......................|.......................|
.......................|.......................|.......................|.......................|.......................|.......................|.......................|.......................|.......................|.......................|
.......................|.......................|.......................|.......................|.......................|.......................|.......................|.......................|.......................|.......................|
.......................|.......................|.......................|.......................|.......................|.......................|.......................|.......................|.......................|.......................|
.......................|.......................|.......................|.......................|.......................|.......................|.......................|.......................|.......................|.......................|
.......................|.......................|.......................|.......................|.......................|.......................|.......................|.......................|.......................|.......................|
.......................|.......................|.......................|G#4....................|B-4....................|.......................|.......................|.......................|.......................|.......................|
.......................|.......................|.......................|.......................|.......................|.......................|.......................|.......................|.......................|.......................|
.......................|.......................|.......................|.......................|.......................|.......................|.......................|.......................|.......................|.......................|
.......................|.......................|.......................|.......................|.......................|.......................|.......................|.......................|.......................|.......................|
.......................|.......................|.......................|.......................|.......................|.......................|.......................|.......................|.......................|.......................|
.......................|.......................|.......................|.......................|.......................|.......................|.......................|.......................|.......................|.......................|
.......................|.......................|.......................|.......................|.......................|.......................|B-2....................|.......................|.......................|.......................|
.......................|.......................|.......................|.......................|.......................|.......................|.......................|.......................|.......................|.......................|
.......................|.......................|.......................|.......................|.......................|.......................|.......................|.......................|.......................|.......................|
.......................|C-0....................|.......................|.......................|.......................|.......................|.......................|.......................|.......................|.......................|
.......0452............|G#3....0400............|.......0452............|.......................|.......................|.......................|.......................|.......................|.......................|.......................|
.......................|.......................|.......................|.......................|.......................|.......................|.......................|.......................|.......................|.......................|
.......................|.......................|.......................|D-4....................|G#4....................|.......................|.......................|.......................|.......................|.......................|
.......................|.......................|.......................|.......................|.......................|.......................|.......................|.......................|.......................|.......................|
.......................|.......................|.......................|.......................|.......................|.......................|.......................|.......................|.......................|.......................|
.......................|.......................|.......................|.......................|.......................|.......................|.......................|.......................|.......................|.......................|
.......................|.......................|.......................|.......................|.......................|.......................|.......................|.......................|.......................|.......................|
.......................|.......................|.......................|.......................|.......................|.......................|.......................|.......................|.......................|.......................|
.......................|.......................|.......................|.......................|.......................|.......................|G#2....................|.......................|.......................|.......................|
.......................|.......................|.......................|.......................|.......................|.......................|.......................|.......................|.......................|.......................|
.......................|.......................|.......................|.......................|.......................|.......................|.......................|.......................|.......................|.......................|
.......................|.......................|.......................|.......................|.......................|.......................|.......................|.......................|.......................|.......................|
.......................|.......................|.......................|.......................|.......................|.......................|.......................|.......................|.......................|.......................|
.......................|.......................|.......................|.......................|.......................|.......................|.......................|.......................|.......................|.......................|
.......................|.......................|.......................|B-3....................|D-4....................|.......................|.......................|.......................|.......................|.......................|
.......................|.......................|.......................|.......................|.......................|.......................|.......................|.......................|.......................|.......................|
.......................|.......................|.......................|.......................|.......................|.......................|.......................|.......................|.......................|.......................|
.......................|.......................|.......................|.......................|.......................|.......................|.......................|.......................|.......................|.......................|
.......................|.......................|.......................|.......................|.......................|.......................|.......................|.......................|.......................|.......................|
.......................|.......................|.......................|.......................|.......................|.......................|.......................|.......................|.......................|.......................|
.......................|.......................|.......................|.......................|.......................|.......................|D-2....................|.......................|.......................|.......................|
.......................|.......................|.......................|.......................|.......................|.......................|.......................|.......................|.......................|.......................|
.......................|.......................|.......................|.......................|.......................|.......................|.......................|.......................|.......................|.......................|
C-0....................|.......................|C-0....................|.......................|.......................|.......................|.......................|.......................|.......................|.......................|
G#3....0400............|.......0452............|D-3....0400............|.......................|.......................|.......................|.......................|.......................|.......................|.......................|
.......................|.......................|.......................|.......................|.......................|.......................|.......................|.......................|.......................|.......................|
.......................|.......................|.......................|D-4....................|B-3....................|.......................|.......................|.......................|.......................|.......................|
.......................|.......................|.......................|.......................|.......................|.......................|.......................|.......................|.......................|.......................|
.......................|.......................|.......................|.......................|.......................|.......................|.......................|.......................|.......................|.......................|
.......................|.......................|.......................|.......................|.......................|.......................|.......................|.......................|.......................|.......................|
.......................|.......................|.......................|.......................|.......................|.......................|.......................|.......................|.......................|.......................|
.......................|.......................|.......................|.......................|.......................|.......................|.......................|.......................|.......................|.......................|
.......................|.......................|.......................|.......................|.......................|.......................|B-1....................|.......................|.......................|.......................|
.......................|.......................|.......................|.......................|.......................|.......................|.......................|.......................|.......................|.......................|
.......................|.......................|.......................|.......................|.......................|.......................|.......................|.......................|.......................|.......................|
.......................|.......................|.......................|.......................|.......................|.......................|.......................|.......................|.......................|.......................|
.......................|.......................|.......................|.......................|.......................|.......................|.......................|.......................|.......................|.......................|
.......................|.......................|.......................|.......................|.......................|.......................|.......................|.......................|.......................|.......................|
.......................|.......................|.......................|E-4....................|D-4....................|.......................|.......................|.......................|.......................|.......................|
.......................|.......................|.......................|.......................|.......................|.......................|.......................|.......................|.......................|.......................|
.......................|.......................|.......................|.......................|.......................|.......................|.......................|.......................|.......................|.......................|
.......................|.......................|.......................|.......................|.......................|.......................|.......................|.......................|.......................|.......................|
.......................|.......................|.......................|.......................|.......................|.......................|.......................|.......................|.......................|.......................|
.......................|.......................|.......................|.......................|.......................|.......................|.......................|.......................|.......................|.......................|
.......................|.......................|.......................|.......................|.......................|.......................|D-2....................|.......................|.......................|.......................|
.......................|.......................|.......................|.......................|.......................|.......................|.......................|.......................|.......................|.......................|
.......................|.......................|.......................|.......................|.......................|.......................|.......................|.......................|.......................|.......................|
.......................|C-0....................|.......................|.......................|.......................|.......................|.......................|.......................|.......................|.......................|
.......0452............|G#3....0400............|.......0452............|.......................|.......................|.......................|.......................|.......................|.......................|.......................|
.......................|.......................|.......................|.......................|.......................|.......................|.......................|.......................|.......................|.......................|
.......................|.......................|.......................|G#4....................|E-4....................|.......................|.......................|.......................|.......................|.......................|
.......................|.......................|.......................|.......................|.......................|.......................|.......................|.......................|.......................|.......................|
.......................|.......................|.......................|.......................|.......................|.......................|.......................|.......................|.......................|.......................|
.......................|.......................|.......................|.......................|.......................|.......................|.......................|.......................|.......................|.......................|
.......................|.......................|.......................|.......................|.......................|.......................|.......................|.......................|.......................|.......................|
.......................|.......................|.......................|.......................|.......................|.......................|.......................|.......................|.......................|.......................|
.......................|.......................|.......................|.......................|.......................|.......................|E-2....................|.......................|.......................|.......................|
.......................|.......................|.......................|.......................|.......................|.......................|.......................|.......................|.......................|.......................|
.......................|.......................|.......................|.......................|.......................|.......................|.......................|.......................|.......................|.......................|
.......................|.......................|.......................|.......................|.......................|.......................|.......................|.......................|.......................|.......................|
.......................|.......................|.......................|.......................|.......................|.......................|.......................|.......................|.......................|.......................|
.......................|.......................|.......................|.......................|.......................|.......................|.......................|.......................|.......................|.......................|
.......................|.......................|.......................|B-4....................|G#4....................|.......................|.......................|.......................|.......................|.......................|
.......................|.......................|.......................|.......................|.......................|.......................|.......................|.......................|.......................|.......................|
.......................|.......................|.......................|.......................|.......................|.......................|.......................|.......................|.......................|.......................|
.......................|.......................|.......................|.......................|.......................|.......................|.......................|.......................|.......................|.......................|
.......................|.......................|.......................|.......................|.......................|.......................|.......................|.......................|.......................|.......................|
.......................|.......................|.......................|.......................|.......................|.......................|.......................|.......................|.......................|.......................|
.......................|.......................|.......................|.......................|.......................|.......................|G#2....................|.......................|.......................|.......................|
.......................|.......................|.......................|.......................|.......................|.......................|.......................|.......................|.......................|.......................|
.......................|.......................|.......................|.......................|.......................|.......................|.......................|.......................|.......................|.......................|
C-0....................|.......................|C-0....................|.......................|.......................|.......................|.......................|.......................|.......................|.......................|
B-3....0400EA00........|.......0452............|F-3....0400EA00........|.......................|.......................|.......................|.......................|.......................|.......................|.......................|
.......................|.......................|.......................|.......................|.......................|.......................|.......................|.......................|.......................|.......................|
.......................|.......................|.......................|D-5....0400EA00........|B-4....................|.......................|.......................|.......................|.......................|.......................|
.......................|.......................|.......................|.......................|.......................|.......................|.......................|.......................|.......................|.......................|
.......................|.......................|.......................|.......................|.......................|.......................|.......................|.......................|.......................|.......................|
.......................|.......................|.......................|.......................|.......................|.......................|.......................|.......................|.......................|.......................|
.......................|.......................|.......................|.......................|.......................|.......................|.......................|.......................|.......................|.......................|
.......................|.......................|.......................|.......................|.......................|.......................|.......................|.......................|.......................|.......................|
.......................|.......................|.......................|.......................|.......................|.......................|B-2....................|.......................|.......................|.......................|
.......................|.......................|.......................|.......................|.......................|.......................|.......................|.......................|.......................|.......................|
.......................|.......................|.......................|.......................|.......................|.......................|.......................|.......................|.......................|.......................|
.......................|.......................|.......................|.......................|.......................|.......................|.......................|.......................|.......................|.......................|
.......................|.......................|.......................|.......................|.......................|.......................|.......................|.......................|.......................|.......................|
.......................|.......................|.......................|.......................|.......................|.......................|.......................|.......................|.......................|.......................|
.......................|.......................|.......................|B-4....................|D-5....0400EA00........|.......................|.......................|.......................|.......................|.......................|
.......................|.......................|.......................|.......................|.......................|.......................|.......................|.......................|.......................|.......................|
.......................|.......................|.......................|.......................|.......................|.......................|.......................|.......................|.......................|.......................|
.......................|.......................|.......................|.......................|.......................|.......................|.......................|.......................|.......................|.......................|
.......................|.......................|.......................|.......................|.......................|.......................|.......................|.......................|.......................|.......................|
.......................|.......................|.......................|.......................|.......................|.......................|.......................|.......................|.......................|.......................|
.......................|.......................|.......................|.......................|.......................|.......................|D-3....0400EA00........|.......................|.......................|.......................|
.......................|.......................|.......................|.......................|.......................|.......................|.......................|.......................|.......................|.......................|
.......................|.......................|.......................|.......................|.......................|.......................|.......................|.......................|.......................|.......................|
.......................|C-0....................|.......................|.......................|.......................|.......................|.......................|.......................|.......................|.......................|
.......0452............|B-3....0400EA00........|.......0452............|.......................|.......................|.......................|.......................|.......................|.......................|.......................|
.......................|.......................|.......................|.......................|.......................|.......................|.......................|.......................|.......................|.......................|
.......................|.......................|.......................|G#4....................|B-4....................|.......................|.......................|.......................|.......................|.......................|
.......................|.......................|.......................|.......................|.......................|.......................|.......................|.......................|.......................|.......................|
.......................|.......................|.......................|.......................|.......................|.......................|.......................|.......................|.......................|.......................|
.......................|.......................|.......................|.......................|.......................|.......................|.......................|.......................|.......................|.......................|
.......................|.......................|.......................|.......................|.......................|.......................|.......................|.......................|.......................|.......................|
.......................|.......................|.......................|.......................|.......................|.......................|.......................|.......................|.......................|.......................|
.......................|.......................|.......................|.......................|.......................|.......................|B-2....................|.......................|.......................|.......................|
.......................|.......................|.......................|.......................|.......................|.......................|.......................|.......................|.......................|.......................|
.......................|.......................|.......................|.......................|.......................|.......................|.......................|.......................|.......................|.......................|
.......................|.......................|.......................|.......................|.......................|.......................|.......................|.......................|.......................|.......................|
.......................|.......................|.......................|.......................|.......................|.......................|.......................|.......................|.......................|.......................|
.......................|.......................|.......................|.......................|.......................|.......................|.......................|.......................|.......................|.......................|
.......................|.......................|.......................|F-4....................|G#4....................|.......................|.......................|.......................|.......................|.......................|
.......................|.......................|.......................|.......................|.......................|.......................|.......................|.......................|.......................|.......................|
.......................|.......................|.......................|.......................|.......................|.......................|.......................|.......................|.......................|.......................|
.......................|.......................|.......................|.......................|.......................|.......................|.......................|.......................|.......................|.......................|
.......................|.......................|.......................|.......................|.......................|.......................|.......................|.......................|.......................|.......................|
.......................|.......................|.......................|.......................|.......................|.......................|.......................|.......................|.......................|.......................|
.......................|.......................|.......................|.......................|.......................|.......................|G#2....................|.......................|.......................|.......................|
.......................|.......................|.......................|.......................|.......................|.......................|.......................|.......................|.......................|.......................|
.......................|.......................|.......................|.......................|.......................|.......................|.......................|.......................|.......................|.......................|
.......................|.......................|.......................|.......................|.......................|.......................|.......................|.......................|.......................|.......................|
.......................|.......0452............|.......................|.......................|.......................|.......................|.......................|.......................|.......................|.......................|
.......................|.......................|.......................|.......................|.......................|.......................|.......................|.......................|.......................|.......................|
.......................|.......................|.......................|D-4....................|F-4....................|.......................|.......................|.......................|.......................|.......................|
.......................|.......................|.......................|.......................|.......................|.......................|.......................|.......................|.......................|.......................|
.......................|.......................|.......................|.......................|.......................|.......................|.......................|.......................|.......................|.......................|
.......................|.......................|.......................|.......................|.......................|.......................|.......................|.......................|.......................|.......................|
.......................|.......................|.......................|.......................|.......................|.......................|.......................|.......................|.......................|.......................|
.......................|.......................|.......................|.......................|.......................|.......................|.......................|.......................|.......................|.......................|
.......................|.......................|.......................|.......................|.......................|.......................|F-2....................|.......................|.......................|.......................|
.......................|.......................|.......................|.......................|.......................|.......................|.......................|.......................|.......................|.......................|
.......................|.......................|.......................|.......................|.......................|.......................|.......................|.......................|.......................|.......................|
.......................|.......................|.......................|.......................|.......................|.......................|.......................|.......................|.......................|.......................|
.......................|.......................|.......................|.......................|.......................|.......................|.......................|.......................|.......................|.......................|
.......................|.......................|.......................|.......................|.......................|.......................|.......................|.......................|.......................|.......................|
.......................|.......................|.......................|B-3....................|D-4....................|.......................|.......................|.......................|.......................|.......................|
.......................|.......................|.......................|.......................|.......................|.......................|.......................|.......................|.......................|.......................|
.......................|.......................|.......................|.......................|.......................|.......................|.......................|.......................|.......................|.......................|
.......................|.......................|.......................|.......................|.......................|.......................|.......................|.......................|.......................|.......................|
.......................|.......................|.......................|.......................|.......................|.......................|.......................|.......................|.......................|.......................|
.......................|.......................|.......................|.......................|.......................|.......................|.......................|.......................|.......................|.......................|
.......................|.......................|.......................|.......................|.......................|.......................|D-2....................|.......................|.......................|.......................|
.......................|.......................|.......................|.......................|.......................|.......................|.......................|.......................|.......................|.......................|
.......................|.......................|.......................|.......................|.......................|.......................|.......................|.......................|.......................|.......................|
.......................|.......................|.......................|.......................|.......................|.......................|.......................|.......................|.......................|.......................|
.......................|.......................|.......................|.......................|.......................|.......................|.......................|.......................|.......................|.......................|
.......................|.......................|.......................|.......................|.......................|.......................|.......................|.......................|.......................|.......................|
.......................|.......................|.......................|G#3....................|B-3....................|.......................|.......................|.......................|.......................|.......................|
.......................|.......................|.......................|.......................|.......................|.......................|.......................|.......................|.......................|.......................|
.......................|.......................|.......................|.......................|.......................|.......................|.......................|.......................|.......................|.......................|
.......................|.......................|.......................|.......................|.......................|.......................|.......................|.......................|.......................|.......................|
.......................|.......................|.......................|.......................|.......................|.......................|.......................|.......................|.......................|.......................|
.......................|.......................|.......................|.......................|.......................|.......................|.......................|.......................|.......................|.......................|
.......................|.......................|.......................|.......................|.......................|.......................|B-1....................|.......................|.......................|.......................|
.......................|.......................|.......................|.......................|.......................|.......................|.......................|.......................|.......................|.......................|
.......................|.......................|.......................|.......................|.......................|.......................|.......................|.......................|.......................|.......................|
.......................|.......................|.......................|.......................|.......................|.......................|.......................|.......................|.......................|.......................|
.......................|.......................|.......................|.......................|.......................|.......................|.......................|.......................|.......................|.......................|
.......................|.......................|.......................|.......................|.......................|.......................|.......................|.......................|.......................|.......................|
.......................|.......................|.......................|F-3....................|G#3....................|.......................|.......................|.......................|.......................|.......................|
.......................|.......................|.......................|.......................|.......................|.......................|.......................|.......................|.......................|.......................|
.......................|.......................|.......................|.......................|.......................|.......................|.......................|.......................|.......................|.......................|
.......................|.......................|.......................|.......................|.......................|.......................|.......................|.......................|.......................|.......................|
.......................|.......................|.......................|.......................|.......................|.......................|.......................|.......................|.......................|.......................|
.......................|.......................|.......................|.......................|.......................|.......................|.......................|.......................|.......................|.......................|
.......................|.......................|.......................|.......................|.......................|.......................|G#1....................|.......................|.......................|.......................|
.......................|.......................|.......................|.......................|.......................|.......................|.......................|.......................|.......................|.......................|
.......................|.......................|.......................|.......................|.......................|.......................|.......................|.......................|.......................|.......................|
C-0....................|.......................|C-0....................|.......................|.......................|.......................|.......................|.......................|.......................|.......................|
A-3....0400............|.......................|F#3....0400............|.......................|.......................|.......................|.......................|.......................|.......................|.......................|
.......................|.......................|.......................|.......................|.......................|.......................|.......................|.......................|.......................|.......................|
.......................|.......................|.......................|D-5....................|F-3....................|.......................|.......................|.......................|.......................|.......................|
.......................|.......................|.......................|.......................|.......................|.......................|.......................|.......................|.......................|.......................|
.......................|.......................|.......................|.......................|.......................|.......................|.......................|.......................|.......................|.......................|
.......................|.......................|.......................|.......................|.......................|.......................|.......................|.......................|.......................|.......................|
.......................|.......................|.......................|.......................|.......................|.......................|.......................|.......................|.......................|.......................|
.......................|.......................|.......................|.......................|.......................|.......................|.......................|.......................|.......................|.......................|
.......................|.......................|.......................|.......................|.......................|.......................|F-1....................|.......................|.......................|.......................|
.......................|.......................|.......................|.......................|.......................|.......................|.......................|.......................|.......................|.......................|
.......................|.......................|.......................|.......................|.......................|.......................|.......................|.......................|.......................|.......................|
.......................|.......................|.......................|.......................|.......................|.......................|.......................|.......................|.......................|.......................|
.......................|.......................|.......................|.......................|.......................|.......................|.......................|.......................|.......................|.......................|
.......................|.......................|.......................|.......................|.......................|.......................|.......................|.......................|.......................|.......................|
.......................|.......................|.......................|C#5....................|D-5....................|.......................|.......................|.......................|.......................|.......................|
.......................|.......................|.......................|.......................|.......................|.......................|.......................|.......................|.......................|.......................|
.......................|.......................|.......................|.......................|.......................|.......................|.......................|.......................|.......................|.......................|
.......................|.......................|.......................|.......................|.......................|.......................|.......................|.......................|.......................|.......................|
.......................|.......................|.......................|.......................|.......................|.......................|.......................|.......................|.......................|.......................|
.......................|.......................|.......................|.......................|.......................|.......................|.......................|.......................|.......................|.......................|
.......................|.......................|.......................|.......................|.......................|.......................|D-3....................|.......................|.......................|.......................|
.......................|.......................|.......................|.......................|.......................|.......................|.......................|.......................|.......................|.......................|
.......................|.......................|.......................|.......................|.......................|.......................|.......................|.......................|.......................|.......................|
.......................|C-0....................|.......................|.......................|.......................|.......................|.......................|.......................|.......................|.......................|
.......0452............|A-3....0400............|.......0452............|.......................|.......................|.......................|.......................|.......................|.......................|.......................|
.......................|.......................|.......................|.......................|.......................|.......................|.......................|.......................|.......................|.......................|
.......................|.......................|.......................|C-0....................|C#5....................|.......................|.......................|.......................|.......................|.......................|
.......................|.......................|.......................|.......................|.......................|.......................|.......................|.......................|.......................|.......................|
.......................|.......................|.......................|.......................|.......................|.......................|.......................|.......................|.......................|.......................|
.......................|.......................|.......................|.......................|.......................|.......................|.......................|.......................|.......................|.......................|
.......................|.......................|.......................|.......................|.......................|.......................|.......................|.......................|.......................|.......................|
.......................|.......................|.......................|.......................|.......................|.......................|.......................|.......................|.......................|.......................|
org.tildearrow.furnace - Pattern Data (219)
0
.......................|.......................|.......................|.......................|.......................|.......................|C#3....................|.......................|.......................|.......................|
.......................|.......................|.......................|.......................|.......................|.......................|.......................|.......................|.......................|.......................|
.......................|.......................|.......................|.......................|.......................|.......................|.......................|.......................|.......................|.......................|
.......................|.......................|.......................|.......................|.......................|.......................|.......................|.......................|.......................|.......................|
.......................|.......................|.......................|.......................|.......................|.......................|.......................|.......................|.......................|.......................|
.......................|.......................|.......................|.......................|.......................|.......................|.......................|.......................|.......................|.......................|
.......................|.......................|.......................|F#5....................|C-0....................|.......................|.......................|.......................|.......................|.......................|
.......................|.......................|.......................|.......................|.......................|.......................|.......................|.......................|.......................|.......................|
.......................|.......................|.......................|.......................|.......................|.......................|.......................|.......................|.......................|.......................|
.......................|.......................|.......................|.......................|.......................|.......................|.......................|.......................|.......................|.......................|
.......................|.......................|.......................|.......................|.......................|.......................|.......................|.......................|.......................|.......................|
.......................|.......................|.......................|.......................|.......................|.......................|.......................|.......................|.......................|.......................|
.......................|.......................|.......................|.......................|.......................|.......................|A-3....................|.......................|.......................|.......................|
.......................|.......................|.......................|.......................|.......................|.......................|.......................|.......................|.......................|.......................|
.......................|.......................|.......................|.......................|.......................|.......................|.......................|.......................|.......................|.......................|
.......................|.......................|.......................|.......................|.......................|.......................|.......................|.......................|.......................|.......................|
.......................|.......0452............|.......................|.......................|.......................|.......................|.......................|.......................|.......................|.......................|
.......................|.......................|.......................|.......................|.......................|.......................|.......................|.......................|.......................|.......................|
.......................|.......................|.......................|D-5....................|F#5....................|.......................|.......................|.......................|.......................|.......................|
.......................|.......................|.......................|.......................|.......................|.......................|.......................|.......................|.......................|.......................|
.......................|.......................|.......................|.......................|.......................|.......................|.......................|.......................|.......................|.......................|
.......................|.......................|.......................|.......................|.......................|.......................|.......................|.......................|.......................|.......................|
.......................|.......................|.......................|.......................|.......................|.......................|.......................|.......................|.......................|.......................|
.......................|.......................|.......................|.......................|.......................|.......................|.......................|.......................|.......................|.......................|
.......................|.......................|.......................|.......................|.......................|.......................|F#3....................|.......................|.......................|.......................|
.......................|.......................|.......................|.......................|.......................|.......................|.......................|.......................|.......................|.......................|
.......................|.......................|.......................|.......................|.......................|.......................|.......................|.......................|.......................|.......................|
.......................|.......................|.......................|.......................|.......................|.......................|.......................|.......................|.......................|.......................|
.......................|.......................|.......................|.......................|.......................|.......................|.......................|.......................|.......................|.......................|
.......................|.......................|.......................|.......................|.......................|.......................|.......................|.......................|.......................|.......................|
.......................|.......................|.......................|C#5....................|D-5....................|.......................|.......................|.......................|.......................|.......................|
.......................|.......................|.......................|.......................|.......................|.......................|.......................|.......................|.......................|.......................|
.......................|.......................|.......................|.......................|.......................|.......................|.......................|.......................|.......................|.......................|
.......................|.......................|.......................|.......................|.......................|.......................|.......................|.......................|.......................|.......................|
.......................|.......................|.......................|.......................|.......................|.......................|.......................|.......................|.......................|.......................|
.......................|.......................|.......................|.......................|.......................|.......................|.......................|.......................|.......................|.......................|
.......................|.......................|.......................|.......................|.......................|.......................|D-3....................|.......................|.......................|.......................|
.......................|.......................|.......................|.......................|.......................|.......................|.......................|.......................|.......................|.......................|
.......................|.......................|.......................|.......................|.......................|.......................|.......................|.......................|.......................|.......................|
.......................|.......................|.......................|.......................|.......................|.......................|.......................|.......................|.......................|.......................|
.......................|.......................|.......................|.......................|.......................|.......................|.......................|.......................|.......................|.......................|
.......................|.......................|.......................|.......................|.......................|.......................|.......................|.......................|.......................|.......................|
.......................|.......................|.......................|A-4....................|C#5....................|.......................|.......................|.......................|.......................|.......................|
.......................|.......................|.......................|.......................|.......................|.......................|.......................|.......................|.......................|.......................|
.......................|.......................|.......................|.......................|.......................|.......................|.......................|.......................|.......................|.......................|
.......................|.......................|.......................|.......................|.......................|.......................|.......................|.......................|.......................|.......................|
.......................|.......................|.......................|.......................|.......................|.......................|.......................|.......................|.......................|.......................|
.......................|.......................|.......................|.......................|.......................|.......................|.......................|.......................|.......................|.......................|
.......................|.......................|.......................|.......................|.......................|.......................|C#3....................|.......................|.......................|.......................|
.......................|.......................|.......................|.......................|.......................|.......................|.......................|.......................|.......................|.......................|
.......................|.......................|.......................|.......................|.......................|.......................|.......................|.......................|.......................|.......................|
.......................|.......................|.......................|.......................|.......................|.......................|.......................|.......................|.......................|.......................|
.......................|.......................|.......................|.......................|.......................|.......................|.......................|.......................|.......................|.......................|
.......................|.......................|.......................|.......................|.......................|.......................|.......................|.......................|.......................|.......................|
.......................|.......................|.......................|F#4....................|A-4....................|.......................|.......................|.......................|.......................|.......................|
.......................|.......................|.......................|.......................|.......................|.......................|.......................|.......................|.......................|.......................|
.......................|.......................|.......................|.......................|.......................|.......................|.......................|.......................|.......................|.......................|
.......................|.......................|.......................|.......................|.......................|.......................|.......................|.......................|.......................|.......................|
.......................|.......................|.......................|.......................|.......................|.......................|.......................|.......................|.......................|.......................|
.......................|.......................|.......................|.......................|.......................|.......................|.......................|.......................|.......................|.......................|
.......................|.......................|.......................|.......................|.......................|.......................|A-2....................|.......................|.......................|.......................|
.......................|.......................|.......................|.......................|.......................|.......................|.......................|.......................|.......................|.......................|
.......................|.......................|.......................|.......................|.......................|.......................|.......................|.......................|.......................|.......................|
C-0....................|.......................|C-0....................|.......................|.......................|.......................|.......................|.......................|.......................|.......................|
D-3....0400............|.......................|A#2....0400............|.......................|.......................|.......................|.......................|.......................|.......................|.......................|
.......................|.......................|.......................|.......................|.......................|.......................|.......................|.......................|.......................|.......................|
.......................|.......................|.......................|C-0....................|F#4....................|.......................|.......................|.......................|.......................|.......................|
.......................|.......................|.......................|.......................|.......................|.......................|.......................|.......................|.......................|.......................|
.......................|.......................|.......................|.......................|.......................|.......................|.......................|.......................|.......................|.......................|
.......................|.......................|.......................|.......................|.......................|.......................|.......................|.......................|.......................|.......................|
.......................|.......................|.......................|.......................|.......................|.......................|.......................|.......................|.......................|.......................|
.......................|.......................|.......................|.......................|.......................|.......................|.......................|.......................|.......................|.......................|
.......................|.......................|.......................|.......................|.......................|.......................|F#2....................|.......................|.......................|.......................|
.......................|.......................|.......................|.......................|.......................|.......................|.......................|.......................|.......................|.......................|
.......................|.......................|.......................|.......................|.......................|.......................|.......................|.......................|.......................|.......................|
.......................|.......................|.......................|.......................|.......................|.......................|.......................|.......................|.......................|.......................|
.......................|.......................|.......................|.......................|.......................|.......................|.......................|.......................|.......................|.......................|
.......................|.......................|.......................|.......................|.......................|.......................|.......................|.......................|.......................|.......................|
.......................|.......................|.......................|C-0....................|C-0....................|.......................|.......................|.......................|.......................|.......................|
.......................|.......................|.......................|.......................|.......................|.......................|.......................|.......................|.......................|.......................|
.......................|.......................|.......................|.......................|.......................|.......................|.......................|.......................|.......................|.......................|
.......................|.......................|.......................|.......................|.......................|.......................|.......................|.......................|.......................|.......................|
.......................|.......................|.......................|.......................|.......................|.......................|.......................|.......................|.......................|.......................|
.......................|.......................|.......................|.......................|.......................|.......................|.......................|.......................|.......................|.......................|
.......................|.......................|.......................|.......................|.......................|.......................|D-4....................|.......................|.......................|.......................|
.......................|.......................|.......................|.......................|.......................|.......................|.......................|.......................|.......................|.......................|
.......................|.......................|.......................|.......................|.......................|.......................|.......................|.......................|.......................|.......................|
.......................|C-0....................|.......................|.......................|.......................|.......................|.......................|.......................|.......................|.......................|
.......0452............|D-3....0400............|.......0452............|.......................|.......................|.......................|.......................|.......................|.......................|.......................|
.......................|.......................|.......................|.......................|.......................|.......................|.......................|.......................|.......................|.......................|
.......................|.......................|.......................|G-5....................|C-0....................|.......................|.......................|.......................|.......................|.......................|
.......................|.......................|.......................|.......................|.......................|.......................|.......................|.......................|.......................|.......................|
.......................|.......................|.......................|.......................|.......................|.......................|.......................|.......................|.......................|.......................|
.......................|.......................|.......................|.......................|.......................|.......................|.......................|.......................|.......................|.......................|
.......................|.......................|.......................|.......................|.......................|.......................|.......................|.......................|.......................|.......................|
.......................|.......................|.......................|.......................|.......................|.......................|.......................|.......................|.......................|.......................|
.......................|.......................|.......................|.......................|.......................|.......................|A#3....................|.......................|.......................|.......................|
.......................|.......................|.......................|.......................|.......................|.......................|.......................|.......................|.......................|.......................|
.......................|.......................|.......................|.......................|.......................|.......................|.......................|.......................|.......................|.......................|
.......................|.......................|.......................|.......................|.......................|.......................|.......................|.......................|.......................|.......................|
.......................|.......................|.......................|.......................|.......................|.......................|.......................|.......................|.......................|.......................|
.......................|.......................|.......................|.......................|.......................|.......................|.......................|.......................|.......................|.......................|
.......................|.......................|.......................|F-5....................|G-5....................|.......................|.......................|.......................|.......................|.......................|
.......................|.......................|.......................|.......................|.......................|.......................|.......................|.......................|.......................|.......................|
.......................|.......................|.......................|.......................|.......................|.......................|.......................|.......................|.......................|.......................|
.......................|.......................|.......................|.......................|.......................|.......................|.......................|.......................|.......................|.......................|
.......................|.......................|.......................|.......................|.......................|.......................|.......................|.......................|.......................|.......................|
.......................|.......................|.......................|.......................|.......................|.......................|.......................|.......................|.......................|.......................|
.......................|.......................|.......................|.......................|.......................|.......................|G-3....................|.......................|.......................|.......................|
.......................|.......................|.......................|.......................|.......................|.......................|.......................|.......................|.......................|.......................|
.......................|.......................|.......................|.......................|.......................|.......................|.......................|.......................|.......................|.......................|
.......................|.......................|.......................|.......................|.......................|.......................|.......................|.......................|.......................|.......................|
.......................|.......0452............|.......................|.......................|.......................|.......................|.......................|.......................|.......................|.......................|
.......................|.......................|.......................|.......................|.......................|.......................|.......................|.......................|.......................|.......................|
.......................|.......................|.......................|E-5....................|F-5....................|.......................|.......................|.......................|.......................|.......................|
.......................|.......................|.......................|.......................|.......................|.......................|.......................|.......................|.......................|.......................|
.......................|.......................|.......................|.......................|.......................|.......................|.......................|.......................|.......................|.......................|
.......................|.......................|.......................|.......................|.......................|.......................|.......................|.......................|.......................|.......................|
.......................|.......................|.......................|.......................|.......................|.......................|.......................|.......................|.......................|.......................|
.......................|.......................|.......................|.......................|.......................|.......................|.......................|.......................|.......................|.......................|
.......................|.......................|.......................|.......................|.......................|.......................|F-3....................|.......................|.......................|.......................|
.......................|.......................|.......................|.......................|.......................|.......................|.......................|.......................|.......................|.......................|
.......................|.......................|.......................|.......................|.......................|.......................|.......................|.......................|.......................|.......................|
.......................|.......................|.......................|.......................|.......................|.......................|.......................|.......................|.......................|.......................|
.......................|.......................|.......................|.......................|.......................|.......................|.......................|.......................|.......................|.......................|
.......................|.......................|.......................|.......................|.......................|.......................|.......................|.......................|.......................|.......................|
.......................|.......................|.......................|D-5....................|E-5....................|.......................|.......................|.......................|.......................|.......................|
.......................|.......................|.......................|.......................|.......................|.......................|.......................|.......................|.......................|.......................|
.......................|.......................|.......................|.......................|.......................|.......................|.......................|.......................|.......................|.......................|
.......................|.......................|.......................|.......................|.......................|.......................|.......................|.......................|.......................|.......................|
.......................|.......................|.......................|.......................|.......................|.......................|.......................|.......................|.......................|.......................|
.......................|.......................|.......................|.......................|.......................|.......................|.......................|.......................|.......................|.......................|
.......................|.......................|.......................|.......................|.......................|.......................|E-3....................|.......................|.......................|.......................|
.......................|.......................|.......................|.......................|.......................|.......................|.......................|.......................|.......................|.......................|
.......................|.......................|.......................|.......................|.......................|.......................|.......................|.......................|.......................|.......................|
.......................|.......................|.......................|.......................|.......................|.......................|.......................|.......................|.......................|.......................|
.......................|.......................|.......................|.......................|.......................|.......................|.......................|.......................|.......................|.......................|
.......................|.......................|.......................|.......................|.......................|.......................|.......................|.......................|.......................|.......................|
.......................|.......................|.......................|A#4....................|D-5....................|.......................|.......................|.......................|.......................|.......................|
.......................|.......................|.......................|.......................|.......................|.......................|.......................|.......................|.......................|.......................|
.......................|.......................|.......................|.......................|.......................|.......................|.......................|.......................|.......................|.......................|
.......................|.......................|.......................|.......................|.......................|.......................|.......................|.......................|.......................|.......................|
.......................|.......................|.......................|.......................|.......................|.......................|.......................|.......................|.......................|.......................|
.......................|.......................|.......................|.......................|.......................|.......................|.......................|.......................|.......................|.......................|
.......................|.......................|.......................|.......................|.......................|.......................|D-3....................|.......................|.......................|.......................|
.......................|.......................|.......................|.......................|.......................|.......................|.......................|.......................|.......................|.......................|
.......................|.......................|.......................|.......................|.......................|.......................|.......................|.......................|.......................|.......................|
.......................|.......................|.......................|.......................|.......................|.......................|.......................|.......................|.......................|.......................|
.......................|.......................|.......................|.......................|.......................|.......................|.......................|.......................|.......................|.......................|
.......................|.......................|.......................|.......................|.......................|.......................|.......................|.......................|.......................|.......................|
.......................|.......................|.......................|G-4....................|A#4....................|.......................|.......................|.......................|.......................|.......................|
.......................|.......................|.......................|.......................|.......................|.......................|.......................|.......................|.......................|.......................|
.......................|.......................|.......................|.......................|.......................|.......................|.......................|.......................|.......................|.......................|
.......................|.......................|.......................|.......................|.......................|.......................|.......................|.......................|.......................|.......................|
.......................|.......................|.......................|.......................|.......................|.......................|.......................|.......................|.......................|.......................|
.......................|.......................|.......................|.......................|.......................|.......................|.......................|.......................|.......................|.......................|
.......................|.......................|.......................|.......................|.......................|.......................|A#2....................|.......................|.......................|.......................|
.......................|.......................|.......................|.......................|.......................|.......................|.......................|.......................|.......................|.......................|
.......................|.......................|.......................|.......................|.......................|.......................|.......................|.......................|.......................|.......................|
C-0....................|.......................|C-0....................|.......................|.......................|.......................|.......................|.......................|.......................|.......................|
G-3....0400............|.......................|E-3....0400............|.......................|.......................|.......................|.......................|.......................|.......................|.......................|
.......................|.......................|.......................|.......................|.......................|.......................|.......................|.......................|.......................|.......................|
.......................|.......................|.......................|D-4....................|G-4....................|.......................|.......................|.......................|.......................|.......................|
.......................|.......................|.......................|.......................|.......................|.......................|.......................|.......................|.......................|.......................|
.......................|.......................|.......................|.......................|.......................|.......................|.......................|.......................|.......................|.......................|
.......................|.......................|.......................|.......................|.......................|.......................|.......................|.......................|.......................|.......................|
.......................|.......................|.......................|.......................|.......................|.......................|.......................|.......................|.......................|.......................|
.......................|.......................|.......................|.......................|.......................|.......................|.......................|.......................|.......................|.......................|
.......................|.......................|.......................|.......................|.......................|.......................|G-2....................|.......................|.......................|.......................|
.......................|.......................|.......................|.......................|.......................|.......................|.......................|.......................|.......................|.......................|
.......................|.......................|.......................|.......................|.......................|.......................|.......................|.......................|.......................|.......................|
.......................|.......................|.......................|.......................|.......................|.......................|.......................|.......................|.......................|.......................|
.......................|.......................|.......................|.......................|.......................|.......................|.......................|.......................|.......................|.......................|
.......................|.......................|.......................|.......................|.......................|.......................|.......................|.......................|.......................|.......................|
.......................|.......................|.......................|E-4....................|D-4....................|.......................|.......................|.......................|.......................|.......................|
.......................|.......................|.......................|.......................|.......................|.......................|.......................|.......................|.......................|.......................|
.......................|.......................|.......................|.......................|.......................|.......................|.......................|.......................|.......................|.......................|
.......................|.......................|.......................|.......................|.......................|.......................|.......................|.......................|.......................|.......................|
.......................|.......................|.......................|.......................|.......................|.......................|.......................|.......................|.......................|.......................|
.......................|.......................|.......................|.......................|.......................|.......................|.......................|.......................|.......................|.......................|
.......................|.......................|.......................|.......................|.......................|.......................|D-2....................|.......................|.......................|.......................|
.......................|.......................|.......................|.......................|.......................|.......................|.......................|.......................|.......................|.......................|
.......................|.......................|.......................|.......................|.......................|.......................|.......................|.......................|.......................|.......................|
.......................|C-0....................|.......................|.......................|.......................|.......................|.......................|.......................|.......................|.......................|
.......0452............|G-3....0400............|.......0452............|.......................|.......................|.......................|.......................|.......................|.......................|.......................|
.......................|.......................|.......................|.......................|.......................|.......................|.......................|.......................|.......................|.......................|
.......................|.......................|.......................|G-4....................|E-4....................|.......................|.......................|.......................|.......................|.......................|
.......................|.......................|.......................|.......................|.......................|.......................|.......................|.......................|.......................|.......................|
.......................|.......................|.......................|.......................|.......................|.......................|.......................|.......................|.......................|.......................|
.......................|.......................|.......................|.......................|.......................|.......................|.......................|.......................|.......................|.......................|
.......................|.......................|.......................|.......................|.......................|.......................|.......................|.......................|.......................|.......................|
.......................|.......................|.......................|.......................|.......................|.......................|.......................|.......................|.......................|.......................|
.......................|.......................|.......................|.......................|.......................|.......................|E-2....................|.......................|.......................|.......................|
.......................|.......................|.......................|.......................|.......................|.......................|.......................|.......................|.......................|.......................|
.......................|.......................|.......................|.......................|.......................|.......................|.......................|.......................|.......................|.......................|
.......................|.......................|.......................|.......................|.......................|.......................|.......................|.......................|.......................|.......................|
.......................|.......................|.......................|.......................|.......................|.......................|.......................|.......................|.......................|.......................|
.......................|.......................|.......................|.......................|.......................|.......................|.......................|.......................|.......................|.......................|
.......................|.......................|.......................|A#4....................|G-4....................|.......................|.......................|.......................|.......................|.......................|
.......................|.......................|.......................|.......................|.......................|.......................|.......................|.......................|.......................|.......................|
.......................|.......................|.......................|.......................|.......................|.......................|.......................|.......................|.......................|.......................|
.......................|.......................|.......................|.......................|.......................|.......................|.......................|.......................|.......................|.......................|
.......................|.......................|.......................|.......................|.......................|.......................|.......................|.......................|.......................|.......................|
.......................|.......................|.......................|.......................|.......................|.......................|.......................|.......................|.......................|.......................|
.......................|.......................|.......................|.......................|.......................|.......................|G-2....................|.......................|.......................|.......................|
.......................|.......................|.......................|.......................|.......................|.......................|.......................|.......................|.......................|.......................|
.......................|.......................|.......................|.......................|.......................|.......................|.......................|.......................|.......................|.......................|
.......................|.......................|.......................|.......................|.......................|.......................|.......................|.......................|.......................|.......................|
.......................|.......0452............|.......................|.......................|.......................|.......................|.......................|.......................|.......................|.......................|
.......................|.......................|.......................|.......................|.......................|.......................|.......................|.......................|.......................|.......................|
.......................|.......................|.......................|D-5....................|A#4....................|.......................|.......................|.......................|.......................|.......................|
.......................|.......................|.......................|.......................|.......................|.......................|.......................|.......................|.......................|.......................|
.......................|.......................|.......................|.......................|.......................|.......................|.......................|.......................|.......................|.......................|
.......................|.......................|.......................|.......................|.......................|.......................|.......................|.......................|.......................|.......................|
.......................|.......................|.......................|.......................|.......................|.......................|.......................|.......................|.......................|.......................|
.......................|.......................|.......................|.......................|.......................|.......................|.......................|.......................|.......................|.......................|
.......................|.......................|.......................|.......................|.......................|.......................|A#2....................|.......................|.......................|.......................|
.......................|.......................|.......................|.......................|.......................|.......................|.......................|.......................|.......................|.......................|
.......................|.......................|.......................|.......................|.......................|.......................|.......................|.......................|.......................|.......................|
.......................|.......................|.......................|.......................|.......................|.......................|.......................|.......................|.......................|.......................|
.......................|.......................|.......................|.......................|.......................|.......................|.......................|.......................|.......................|.......................|
.......................|.......................|.......................|.......................|.......................|.......................|.......................|.......................|.......................|.......................|
.......................|.......................|.......................|E-5....................|D-5....................|.......................|.......................|.......................|.......................|.......................|
.......................|.......................|.......................|.......................|.......................|.......................|.......................|.......................|.......................|.......................|
.......................|.......................|.......................|.......................|.......................|.......................|.......................|.......................|.......................|.......................|
.......................|.......................|.......................|.......................|.......................|.......................|.......................|.......................|.......................|.......................|
.......................|.......................|.......................|.......................|.......................|.......................|.......................|.......................|.......................|.......................|
.......................|.......................|.......................|.......................|.......................|.......................|.......................|.......................|.......................|.......................|
.......................|.......................|.......................|.......................|.......................|.......................|D-3....................|.......................|.......................|.......................|
.......................|.......................|.......................|.......................|.......................|.......................|.......................|.......................|.......................|.......................|
.......................|.......................|.......................|.......................|.......................|.......................|.......................|.......................|.......................|.......................|
.......................|.......................|.......................|.......................|.......................|.......................|.......................|.......................|.......................|.......................|
.......................|.......................|.......................|.......................|.......................|.......................|.......................|.......................|.......................|.......................|
.......................|.......................|.......................|.......................|.......................|.......................|.......................|.......................|.......................|.......................|
.......................|.......................|.......................|G-5....................|E-5....................|.......................|.......................|.......................|.......................|.......................|
.......................|.......................|.......................|.......................|.......................|.......................|.......................|.......................|.......................|.......................|
.......................|.......................|.......................|.......................|.......................|.......................|.......................|.......................|.......................|.......................|
.......................|.......................|.......................|.......................|.......................|.......................|.......................|.......................|.......................|.......................|
.......................|.......................|.......................|.......................|.......................|.......................|.......................|.......................|.......................|.......................|
.......................|.......................|.......................|.......................|.......................|.......................|.......................|.......................|.......................|.......................|
.......................|.......................|.......................|.......................|.......................|.......................|E-3....................|.......................|.......................|.......................|
.......................|.......................|.......................|.......................|.......................|.......................|.......................|.......................|.......................|.......................|
.......................|.......................|.......................|.......................|.......................|.......................|.......................|.......................|.......................|.......................|
.......................|.......................|.......................|.......................|.......................|.......................|.......................|.......................|.......................|.......................|
.......................|.......................|.......................|.......................|.......................|.......................|.......................|.......................|.......................|.......................|
.......................|.......................|.......................|.......................|.......................|.......................|.......................|.......................|.......................|.......................|
.......................|.......................|.......................|C-0....................|G-5....................|.......................|.......................|.......................|.......................|.......................|
.......................|.......................|.......................|.......................|.......................|.......................|.......................|.......................|.......................|.......................|
.......................|.......................|.......................|.......................|.......................|.......................|.......................|.......................|.......................|.......................|
.......................|.......................|.......................|.......................|.......................|.......................|.......................|.......................|.......................|.......................|
.......................|.......................|.......................|.......................|.......................|.......................|.......................|.......................|.......................|.......................|
.......................|.......................|.......................|.......................|.......................|.......................|.......................|.......................|.......................|.......................|
.......................|.......................|.......................|.......................|.......................|.......................|G-3....................|.......................|.......................|.......................|
.......................|.......................|.......................|.......................|.......................|.......................|.......................|.......................|.......................|.......................|
.......................|.......................|.......................|.......................|.......................|.......................|.......................|.......................|.......................|.......................|
C-0....................|.......................|C-0....................|.......................|.......................|.......................|.......................|.......................|.......................|.......................|
org.tildearrow.furnace - Pattern Data (219)
0
F#3....0400............|.......................|D-3....0400............|.......................|.......................|.......................|.......................|.......................|.......................|.......................|
.......................|.......................|.......................|.......................|.......................|.......................|.......................|.......................|.......................|.......................|
.......................|.......................|.......................|C-0....................|C-0....................|.......................|.......................|.......................|.......................|.......................|
.......................|.......................|.......................|.......................|.......................|.......................|.......................|.......................|.......................|.......................|
.......................|.......................|.......................|.......................|.......................|.......................|.......................|.......................|.......................|.......................|
.......................|.......................|.......................|.......................|.......................|.......................|.......................|.......................|.......................|.......................|
.......................|.......................|.......................|.......................|.......................|.......................|.......................|.......................|.......................|.......................|
.......................|.......................|.......................|.......................|.......................|.......................|.......................|.......................|.......................|.......................|
.......................|.......................|.......................|.......................|.......................|.......................|A#3....................|.......................|.......................|.......................|
.......................|.......................|.......................|.......................|.......................|.......................|.......................|.......................|.......................|.......................|
.......................|.......................|.......................|.......................|.......................|.......................|.......................|.......................|.......................|.......................|
.......................|.......................|.......................|.......................|.......................|.......................|.......................|.......................|.......................|.......................|
.......................|.......................|.......................|.......................|.......................|.......................|.......................|.......................|.......................|.......................|
.......................|.......................|.......................|.......................|.......................|.......................|.......................|.......................|.......................|.......................|
.......................|.......................|.......................|F#5....................|C-0....................|.......................|.......................|.......................|.......................|.......................|
.......................|.......................|.......................|.......................|.......................|.......................|.......................|.......................|.......................|.......................|
.......................|.......................|.......................|.......................|.......................|.......................|.......................|.......................|.......................|.......................|
.......................|.......................|.......................|.......................|.......................|.......................|.......................|.......................|.......................|.......................|
.......................|.......................|.......................|.......................|.......................|.......................|.......................|.......................|.......................|.......................|
.......................|.......................|.......................|.......................|.......................|.......................|.......................|.......................|.......................|.......................|
.......................|.......................|.......................|.......................|.......................|.......................|A-3....................|.......................|.......................|.......................|
.......................|.......................|.......................|.......................|.......................|.......................|.......................|.......................|.......................|.......................|
.......................|.......................|.......................|.......................|.......................|.......................|.......................|.......................|.......................|.......................|
.......................|C-0....................|.......................|.......................|.......................|.......................|.......................|.......................|.......................|.......................|
.......0452............|F#3....0400............|.......0452............|.......................|.......................|.......................|.......................|.......................|.......................|.......................|
.......................|.......................|.......................|.......................|.......................|.......................|.......................|.......................|.......................|.......................|
.......................|.......................|.......................|C-0....................|F#5....................|.......................|.......................|.......................|.......................|.......................|
.......................|.......................|.......................|.......................|.......................|.......................|.......................|.......................|.......................|.......................|
.......................|.......................|.......................|.......................|.......................|.......................|.......................|.......................|.......................|.......................|
.......................|.......................|.......................|.......................|.......................|.......................|.......................|.......................|.......................|.......................|
.......................|.......................|.......................|.......................|.......................|.......................|.......................|.......................|.......................|.......................|
.......................|.......................|.......................|.......................|.......................|.......................|.......................|.......................|.......................|.......................|
.......................|.......................|.......................|.......................|.......................|.......................|F#3....................|.......................|.......................|.......................|
.......................|.......................|.......................|.......................|.......................|.......................|.......................|.......................|.......................|.......................|
.......................|.......................|.......................|.......................|.......................|.......................|.......................|.......................|.......................|.......................|
.......................|.......................|.......................|.......................|.......................|.......................|.......................|.......................|.......................|.......................|
.......................|.......................|.......................|.......................|.......................|.......................|.......................|.......................|.......................|.......................|
.......................|.......................|.......................|.......................|.......................|.......................|.......................|.......................|.......................|.......................|
.......................|.......................|.......................|C-0....................|C-0....................|.......................|.......................|.......................|.......................|.......................|
.......................|.......................|.......................|.......................|.......................|.......................|.......................|.......................|.......................|.......................|
.......................|.......................|.......................|.......................|.......................|.......................|.......................|.......................|.......................|.......................|
.......................|.......................|.......................|.......................|.......................|.......................|.......................|.......................|.......................|.......................|
.......................|.......................|.......................|.......................|.......................|.......................|.......................|.......................|.......................|.......................|
.......................|.......................|.......................|.......................|.......................|.......................|.......................|.......................|.......................|.......................|
.......................|.......................|.......................|.......................|.......................|.......................|B-3....................|.......................|.......................|.......................|
.......................|.......................|.......................|.......................|.......................|.......................|.......................|.......................|.......................|.......................|
.......................|.......................|.......................|.......................|.......................|.......................|.......................|.......................|.......................|.......................|
.......................|.......................|.......................|.......................|.......................|.......................|.......................|.......................|.......................|.......................|
.......................|.......0452............|.......................|.......................|.......................|.......................|.......................|.......................|.......................|.......................|
.......................|.......................|.......................|.......................|.......................|.......................|.......................|.......................|.......................|.......................|
.......................|.......................|.......................|C-0....................|C-0....................|.......................|.......................|.......................|.......................|.......................|
.......................|.......................|.......................|.......................|.......................|.......................|.......................|.......................|.......................|.......................|
.......................|.......................|.......................|.......................|.......................|.......................|.......................|.......................|.......................|.......................|
.......................|.......................|.......................|.......................|.......................|.......................|.......................|.......................|.......................|.......................|
.......................|.......................|.......................|.......................|.......................|.......................|.......................|.......................|.......................|.......................|
.......................|.......................|.......................|.......................|.......................|.......................|.......................|.......................|.......................|.......................|
.......................|.......................|.......................|.......................|.......................|.......................|A-3....................|.......................|.......................|.......................|
.......................|.......................|.......................|.......................|.......................|.......................|.......................|.......................|.......................|.......................|
.......................|.......................|.......................|.......................|.......................|.......................|.......................|.......................|.......................|.......................|
.......................|.......................|.......................|.......................|.......................|.......................|.......................|.......................|.......................|.......................|
.......................|.......................|.......................|.......................|.......................|.......................|.......................|.......................|.......................|.......................|
.......................|.......................|.......................|.......................|.......................|.......................|.......................|.......................|.......................|.......................|
.......................|.......................|.......................|C-0....................|C-0....................|.......................|.......................|.......................|.......................|.......................|
.......................|.......................|.......................|.......................|.......................|.......................|.......................|.......................|.......................|.......................|
.......................|.......................|.......................|.......................|.......................|.......................|.......................|.......................|.......................|.......................|
.......................|.......................|.......................|.......................|.......................|.......................|.......................|.......................|.......................|.......................|
.......................|.......................|.......................|.......................|.......................|.......................|.......................|.......................|.......................|.......................|
.......................|.......................|.......................|.......................|.......................|.......................|.......................|.......................|.......................|.......................|
.......................|.......................|.......................|.......................|.......................|.......................|D-4....................|.......................|.......................|.......................|
.......................|.......................|.......................|.......................|.......................|.......................|.......................|.......................|.......................|.......................|
.......................|.......................|.......................|.......................|.......................|.......................|.......................|.......................|.......................|.......................|
.......................|.......................|.......................|.......................|.......................|.......................|.......................|.......................|.......................|.......................|
.......................|.......................|.......................|.......................|.......................|.......................|.......................|.......................|.......................|.......................|
.......................|.......................|.......................|.......................|.......................|.......................|.......................|.......................|.......................|.......................|
.......................|.......................|.......................|C-0....................|C-0....................|.......................|.......................|.......................|.......................|.......................|
.......................|.......................|.......................|.......................|.......................|.......................|.......................|.......................|.......................|.......................|
.......................|.......................|.......................|.......................|.......................|.......................|.......................|.......................|.......................|.......................|
.......................|.......................|.......................|.......................|.......................|.......................|.......................|.......................|.......................|.......................|
.......................|.......................|.......................|.......................|.......................|.......................|.......................|.......................|.......................|.......................|
.......................|.......................|.......................|.......................|.......................|.......................|.......................|.......................|.......................|.......................|
.......................|.......................|.......................|.......................|.......................|.......................|C#4....................|.......................|.......................|.......................|
.......................|.......................|.......................|.......................|.......................|.......................|.......................|.......................|.......................|.......................|
.......................|.......................|.......................|.......................|.......................|.......................|.......................|.......................|.......................|.......................|
.......................|.......................|.......................|.......................|.......................|.......................|.......................|.......................|.......................|.......................|
.......................|.......................|.......................|.......................|.......................|.......................|.......................|.......................|.......................|.......................|
.......................|.......................|.......................|.......................|.......................|.......................|.......................|.......................|.......................|.......................|
.......................|.......................|.......................|C-0....................|C-0....................|.......................|.......................|.......................|.......................|.......................|
.......................|.......................|.......................|.......................|.......................|.......................|.......................|.......................|.......................|.......................|
.......................|.......................|.......................|.......................|.......................|.......................|.......................|.......................|.......................|.......................|
.......................|.......................|.......................|.......................|.......................|.......................|.......................|.......................|.......................|.......................|
.......................|.......................|.......................|.......................|.......................|.......................|.......................|.......................|.......................|.......................|
.......................|.......................|.......................|.......................|.......................|.......................|.......................|.......................|.......................|.......................|
.......................|.......................|.......................|.......................|.......................|.......................|E-4....................|.......................|.......................|.......................|
.......................|.......................|.......................|.......................|.......................|.......................|.......................|.......................|.......................|.......................|
.......................|.......................|.......................|.......................|.......................|.......................|.......................|.......................|.......................|.......................|
C-0....................|.......................|C-0....................|.......................|.......................|.......................|.......................|.......................|.......................|.......................|
F#3....0400............|.......................|D-3....0400............|.......................|.......................|.......................|.......................|.......................|.......................|.......................|
.......................|.......................|.......................|.......................|.......................|.......................|.......................|.......................|.......................|.......................|
.......................|.......................|.......................|C-0....................|C-0....................|.......................|.......................|.......................|.......................|.......................|
.......................|.......................|.......................|.......................|.......................|.......................|.......................|.......................|.......................|.......................|
.......................|.......................|.......................|.......................|.......................|.......................|.......................|.......................|.......................|.......................|
.......................|.......................|.......................|.......................|.......................|.......................|.......................|.......................|.......................|.......................|
.......................|.......................|.......................|.......................|.......................|.......................|.......................|.......................|.......................|.......................|
.......................|.......................|.......................|.......................|.......................|.......................|.......................|.......................|.......................|.......................|
.......................|.......................|.......................|.......................|.......................|.......................|D-4....................|.......................|.......................|.......................|
.......................|.......................|.......................|.......................|.......................|.......................|.......................|.......................|.......................|.......................|
.......................|.......................|.......................|.......................|.......................|.......................|.......................|.......................|.......................|.......................|
.......................|.......................|.......................|.......................|.......................|.......................|.......................|.......................|.......................|.......................|
.......................|.......................|.......................|.......................|.......................|.......................|.......................|.......................|.......................|.......................|
.......................|.......................|.......................|.......................|.......................|.......................|.......................|.......................|.......................|.......................|
.......................|.......................|.......................|C-0....................|C-0....................|.......................|.......................|.......................|.......................|.......................|
.......................|.......................|.......................|.......................|.......................|.......................|.......................|.......................|.......................|.......................|
.......................|.......................|.......................|.......................|.......................|.......................|.......................|.......................|.......................|.......................|
.......................|.......................|.......................|.......................|.......................|.......................|.......................|.......................|.......................|.......................|
.......................|.......................|.......................|.......................|.......................|.......................|.......................|.......................|.......................|.......................|
.......................|.......................|.......................|.......................|.......................|.......................|.......................|.......................|.......................|.......................|
.......................|.......................|.......................|.......................|.......................|.......................|G-4....................|.......................|.......................|.......................|
.......................|.......................|.......................|.......................|.......................|.......................|.......................|.......................|.......................|.......................|
.......................|.......................|.......................|.......................|.......................|.......................|.......................|.......................|.......................|.......................|
.......................|C-0....................|.......................|.......................|.......................|.......................|.......................|.......................|.......................|.......................|
.......0452............|F#3....0400............|.......0452............|.......................|.......................|.......................|.......................|.......................|.......................|.......................|
.......................|.......................|.......................|.......................|.......................|.......................|.......................|.......................|.......................|.......................|
.......................|.......................|.......................|C-0....................|C-0....................|.......................|.......................|.......................|.......................|.......................|
.......................|.......................|.......................|.......................|.......................|.......................|.......................|.......................|.......................|.......................|
.......................|.......................|.......................|.......................|.......................|.......................|.......................|.......................|.......................|.......................|
.......................|.......................|.......................|.......................|.......................|.......................|.......................|.......................|.......................|.......................|
.......................|.......................|.......................|.......................|.......................|.......................|.......................|.......................|.......................|.......................|
.......................|.......................|.......................|.......................|.......................|.......................|.......................|.......................|.......................|.......................|
.......................|.......................|.......................|.......................|.......................|.......................|F#4....................|.......................|.......................|.......................|
.......................|.......................|.......................|.......................|.......................|.......................|.......................|.......................|.......................|.......................|
.......................|.......................|.......................|.......................|.......................|.......................|.......................|.......................|.......................|.......................|
.......................|.......................|.......................|.......................|.......................|.......................|.......................|.......................|.......................|.......................|
.......................|.......................|.......................|.......................|.......................|.......................|.......................|.......................|.......................|.......................|
.......................|.......................|.......................|.......................|.......................|.......................|.......................|.......................|.......................|.......................|
.......................|.......................|.......................|C-0....................|C-0....................|.......................|.......................|.......................|.......................|.......................|
.......................|.......................|.......................|.......................|.......................|.......................|.......................|.......................|.......................|.......................|
.......................|.......................|.......................|.......................|.......................|.......................|.......................|.......................|.......................|.......................|
.......................|.......................|.......................|.......................|.......................|.......................|.......................|.......................|.......................|.......................|
.......................|.......................|.......................|.......................|.......................|.......................|.......................|.......................|.......................|.......................|
.......................|.......................|.......................|.......................|.......................|.......................|.......................|.......................|.......................|.......................|
.......................|.......................|.......................|.......................|.......................|.......................|B-4....................|.......................|.......................|.......................|
.......................|.......................|.......................|.......................|.......................|.......................|.......................|.......................|.......................|.......................|
.......................|.......................|.......................|.......................|.......................|.......................|.......................|.......................|.......................|.......................|
.......................|.......................|.......................|.......................|.......................|.......................|.......................|.......................|.......................|.......................|
.......................|.......0452............|.......................|.......................|.......................|.......................|.......................|.......................|.......................|.......................|
.......................|.......................|.......................|.......................|.......................|.......................|.......................|.......................|.......................|.......................|
.......................|.......................|.......................|C-0....................|C-0....................|.......................|.......................|.......................|.......................|.......................|
.......................|.......................|.......................|.......................|.......................|.......................|.......................|.......................|.......................|.......................|
.......................|.......................|.......................|.......................|.......................|.......................|.......................|.......................|.......................|.......................|
.......................|.......................|.......................|.......................|.......................|.......................|.......................|.......................|.......................|.......................|
.......................|.......................|.......................|.......................|.......................|.......................|.......................|.......................|.......................|.......................|
.......................|.......................|.......................|.......................|.......................|.......................|.......................|.......................|.......................|.......................|
.......................|.......................|.......................|.......................|.......................|.......................|A-4....................|.......................|.......................|.......................|
.......................|.......................|.......................|.......................|.......................|.......................|.......................|.......................|.......................|.......................|
.......................|.......................|.......................|.......................|.......................|.......................|.......................|.......................|.......................|.......................|
.......................|.......................|.......................|.......................|.......................|.......................|.......................|.......................|.......................|.......................|
.......................|.......................|.......................|.......................|.......................|.......................|.......................|.......................|.......................|.......................|
.......................|.......................|.......................|.......................|.......................|.......................|.......................|.......................|.......................|.......................|
.......................|.......................|.......................|C-0....................|C-0....................|.......................|.......................|.......................|.......................|.......................|
.......................|.......................|.......................|.......................|.......................|.......................|.......................|.......................|.......................|.......................|
.......................|.......................|.......................|.......................|.......................|.......................|.......................|.......................|.......................|.......................|
.......................|.......................|.......................|.......................|.......................|.......................|.......................|.......................|.......................|.......................|
.......................|.......................|.......................|.......................|.......................|.......................|.......................|.......................|.......................|.......................|
.......................|.......................|.......................|.......................|.......................|.......................|.......................|.......................|.......................|.......................|
.......................|.......................|.......................|.......................|.......................|.......................|G-4....................|.......................|.......................|.......................|
.......................|.......................|.......................|.......................|.......................|.......................|.......................|.......................|.......................|.......................|
.......................|.......................|.......................|.......................|.......................|.......................|.......................|.......................|.......................|.......................|
.......................|.......................|.......................|.......................|.......................|.......................|.......................|.......................|.......................|.......................|
.......................|.......................|.......................|.......................|.......................|.......................|.......................|.......................|.......................|.......................|
.......................|.......................|.......................|.......................|.......................|.......................|.......................|.......................|.......................|.......................|
.......................|.......................|.......................|C-0....................|C-0....................|.......................|.......................|.......................|.......................|.......................|
.......................|.......................|.......................|.......................|.......................|.......................|.......................|.......................|.......................|.......................|
.......................|.......................|.......................|.......................|.......................|.......................|.......................|.......................|.......................|.......................|
.......................|.......................|.......................|.......................|.......................|.......................|.......................|.......................|.......................|.......................|
.......................|.......................|.......................|.......................|.......................|.......................|.......................|.......................|.......................|.......................|
.......................|.......................|.......................|.......................|.......................|.......................|.......................|.......................|.......................|.......................|
.......................|.......................|.......................|.......................|.......................|.......................|F#4....................|.......................|.......................|.......................|
.......................|.......................|.......................|.......................|.......................|.......................|.......................|.......................|.......................|.......................|
.......................|.......................|.......................|.......................|.......................|.......................|.......................|.......................|.......................|.......................|
.......................|.......................|.......................|.......................|.......................|.......................|.......................|.......................|.......................|.......................|
.......................|.......................|.......................|.......................|.......................|.......................|.......................|.......................|.......................|.......................|
.......................|.......................|.......................|.......................|.......................|.......................|.......................|.......................|.......................|.......................|
.......................|.......................|.......................|C-0....................|C-0....................|.......................|.......................|.......................|.......................|.......................|
.......................|.......................|.......................|.......................|.......................|.......................|.......................|.......................|.......................|.......................|
.......................|.......................|.......................|.......................|.......................|.......................|.......................|.......................|.......................|.......................|
.......................|.......................|.......................|.......................|.......................|.......................|.......................|.......................|.......................|.......................|
.......................|.......................|.......................|.......................|.......................|.......................|.......................|.......................|.......................|.......................|
.......................|.......................|.......................|.......................|.......................|.......................|.......................|.......................|.......................|.......................|
.......................|.......................|.......................|.......................|.......................|.......................|E-4....................|.......................|.......................|.......................|
.......................|.......................|.......................|.......................|.......................|.......................|.......................|.......................|.......................|.......................|
.......................|.......................|.......................|.......................|.......................|.......................|.......................|.......................|.......................|.......................|
C-0....................|.......................|C-0....................|.......................|.......................|.......................|.......................|.......................|.......................|.......................|
A#3....0400............|.......................|G-3....0400............|.......................|.......................|.......................|.......................|.......................|.......................|.......................|
.......................|.......................|.......................|.......................|.......................|.......................|.......................|.......................|.......................|.......................|
.......................|.......................|.......................|C-0....................|C-0....................|.......................|.......................|.......................|.......................|.......................|
.......................|.......................|.......................|.......................|.......................|.......................|.......................|.......................|.......................|.......................|
.......................|.......................|.......................|.......................|.......................|.......................|.......................|.......................|.......................|.......................|
.......................|.......................|.......................|.......................|.......................|.......................|.......................|.......................|.......................|.......................|
.......................|.......................|.......................|.......................|.......................|.......................|.......................|.......................|.......................|.......................|
.......................|.......................|.......................|.......................|.......................|.......................|.......................|.......................|.......................|.......................|
.......................|.......................|.......................|.......................|.......................|.......................|D-4....................|.......................|.......................|.......................|
.......................|.......................|.......................|.......................|.......................|.......................|.......................|.......................|.......................|.......................|
.......................|.......................|.......................|.......................|.......................|.......................|.......................|.......................|.......................|.......................|
.......................|.......................|.......................|.......................|.......................|.......................|.......................|.......................|.......................|.......................|
.......................|.......................|.......................|.......................|.......................|.......................|.......................|.......................|.......................|.......................|
.......................|.......................|.......................|.......................|.......................|.......................|.......................|.......................|.......................|.......................|
.......................|.......................|.......................|C-0....................|C-0....................|.......................|.......................|.......................|.......................|.......................|
.......................|.......................|.......................|.......................|.......................|.......................|.......................|.......................|.......................|.......................|
.......................|.......................|.......................|.......................|.......................|.......................|.......................|.......................|.......................|.......................|
.......................|.......................|.......................|.......................|.......................|.......................|.......................|.......................|.......................|.......................|
.......................|.......................|.......................|.......................|.......................|.......................|.......................|.......................|.......................|.......................|
.......................|.......................|.......................|.......................|.......................|.......................|.......................|.......................|.......................|.......................|
.......................|.......................|.......................|.......................|.......................|.......................|C#4....................|.......................|.......................|.......................|
.......................|.......................|.......................|.......................|.......................|.......................|.......................|.......................|.......................|.......................|
.......................|.......................|.......................|.......................|.......................|.......................|.......................|.......................|.......................|.......................|
.......................|C-0....................|.......................|.......................|.......................|.......................|.......................|.......................|.......................|.......................|
.......0452............|A#3....0400............|.......0452............|.......................|.......................|.......................|.......................|.......................|.......................|.......................|
.......................|.......................|.......................|.......................|.......................|.......................|.......................|.......................|.......................|.......................|
.......................|.......................|.......................|G-5....................|C-0....................|.......................|.......................|.......................|.......................|.......................|
.......................|.......................|.......................|.......................|.......................|.......................|.......................|.......................|.......................|.......................|
.......................|.......................|.......................|.......................|.......................|.......................|.......................|.......................|.......................|.......................|
.......................|.......................|.......................|.......................|.......................|.......................|.......................|.......................|.......................|.......................|
.......................|.......................|.......................|.......................|.......................|.......................|.......................|.......................|.......................|.......................|
.......................|.......................|.......................|.......................|.......................|.......................|.......................|.......................|.......................|.......................|
.......................|.......................|.......................|.......................|.......................|.......................|A#3....................|.......................|.......................|.......................|
.......................|.......................|.......................|.......................|.......................|.......................|.......................|.......................|.......................|.......................|
.......................|.......................|.......................|.......................|.......................|.......................|.......................|.......................|.......................|.......................|
.......................|.......................|.......................|.......................|.......................|.......................|.......................|.......................|.......................|.......................|
.......................|.......................|.......................|.......................|.......................|.......................|.......................|.......................|.......................|.......................|
.......................|.......................|.......................|.......................|.......................|.......................|.......................|.......................|.......................|.......................|
.......................|.......................|.......................|E-5....................|G-5....................|.......................|.......................|.......................|.......................|.......................|
.......................|.......................|.......................|.......................|.......................|.......................|.......................|.......................|.......................|.......................|
.......................|.......................|.......................|.......................|.......................|.......................|.......................|.......................|.......................|.......................|
.......................|.......................|.......................|.......................|.......................|.......................|.......................|.......................|.......................|.......................|
.......................|.......................|.......................|.......................|.......................|.......................|.......................|.......................|.......................|.......................|
.......................|.......................|.......................|.......................|.......................|.......................|.......................|.......................|.......................|.......................|
.......................|.......................|.......................|.......................|.......................|.......................|G-3....................|.......................|.......................|.......................|
.......................|.......................|.......................|.......................|.......................|.......................|.......................|.......................|.......................|.......................|
.......................|.......................|.......................|.......................|.......................|.......................|.......................|.......................|.......................|.......................|
.......................|.......................|.......................|.......................|.......................|.......................|.......................|.......................|.......................|.......................|
.......................|.......0452............|.......................|.......................|.......................|.......................|.......................|.......................|.......................|.......................|
.......................|.......................|.......................|.......................|.......................|.......................|.......................|.......................|.......................|.......................|
.......................|.......................|.......................|C#5....................|E-5....................|.......................|.......................|.......................|.......................|.......................|
.......................|.......................|.......................|.......................|.......................|.......................|.......................|.......................|.......................|.......................|
.......................|.......................|.......................|.......................|.......................|.......................|.......................|.......................|.......................|.......................|
.......................|.......................|.......................|.......................|.......................|.......................|.......................|.......................|.......................|.......................|
.......................|.......................|.......................|.......................|.......................|.......................|.......................|.......................|.......................|.......................|
.......................|.......................|.......................|.......................|.......................|.......................|.......................|.......................|.......................|.......................|
.......................|.......................|.......................|.......................|.......................|.......................|E-3....................|.......................|.......................|.......................|
.......................|.......................|.......................|.......................|.......................|.......................|.......................|.......................|.......................|.......................|
.......................|.......................|.......................|.......................|.......................|.......................|.......................|.......................|.......................|.......................|
.......................|.......................|.......................|.......................|.......................|.......................|.......................|.......................|.......................|.......................|
.......................|.......................|.......................|.......................|.......................|.......................|.......................|.......................|.......................|.......................|
.......................|.......................|.......................|.......................|.......................|.......................|.......................|.......................|.......................|.......................|
.......................|.......................|.......................|A#4....................|C#5....................|.......................|.......................|.......................|.......................|.......................|
.......................|.......................|.......................|.......................|.......................|.......................|.......................|.......................|.......................|.......................|
org.tildearrow.furnace - Pattern Data (219)
0
.......................|.......................|.......................|.......................|.......................|.......................|.......................|.......................|.......................|.......................|
.......................|.......................|.......................|.......................|.......................|.......................|.......................|.......................|.......................|.......................|
.......................|.......................|.......................|.......................|.......................|.......................|.......................|.......................|.......................|.......................|
.......................|.......................|.......................|.......................|.......................|.......................|.......................|.......................|.......................|.......................|
.......................|.......................|.......................|.......................|.......................|.......................|C#3....................|.......................|.......................|.......................|
.......................|.......................|.......................|.......................|.......................|.......................|.......................|.......................|.......................|.......................|
.......................|.......................|.......................|.......................|.......................|.......................|.......................|.......................|.......................|.......................|
.......................|.......................|.......................|.......................|.......................|.......................|.......................|.......................|.......................|.......................|
.......................|.......................|.......................|.......................|.......................|.......................|.......................|.......................|.......................|.......................|
.......................|.......................|.......................|.......................|.......................|.......................|.......................|.......................|.......................|.......................|
.......................|.......................|.......................|G-4....................|A#4....................|.......................|.......................|.......................|.......................|.......................|
.......................|.......................|.......................|.......................|.......................|.......................|.......................|.......................|.......................|.......................|
.......................|.......................|.......................|.......................|.......................|.......................|.......................|.......................|.......................|.......................|
.......................|.......................|.......................|.......................|.......................|.......................|.......................|.......................|.......................|.......................|
.......................|.......................|.......................|.......................|.......................|.......................|.......................|.......................|.......................|.......................|
.......................|.......................|.......................|.......................|.......................|.......................|.......................|.......................|.......................|.......................|
.......................|.......................|.......................|.......................|.......................|.......................|A#2....................|.......................|.......................|.......................|
.......................|.......................|.......................|.......................|.......................|.......................|.......................|.......................|.......................|.......................|
.......................|.......................|.......................|.......................|.......................|.......................|.......................|.......................|.......................|.......................|
.......................|.......................|.......................|.......................|.......................|.......................|.......................|.......................|.......................|.......................|
.......................|.......................|.......................|.......................|.......................|.......................|.......................|.......................|.......................|.......................|
.......................|.......................|.......................|.......................|.......................|.......................|.......................|.......................|.......................|.......................|
.......................|.......................|.......................|E-4....................|G-4....................|.......................|.......................|.......................|.......................|.......................|
.......................|.......................|.......................|.......................|.......................|.......................|.......................|.......................|.......................|.......................|
.......................|.......................|.......................|.......................|.......................|.......................|.......................|.......................|.......................|.......................|
.......................|.......................|.......................|.......................|.......................|.......................|.......................|.......................|.......................|.......................|
.......................|.......................|.......................|.......................|.......................|.......................|.......................|.......................|.......................|.......................|
.......................|.......................|.......................|.......................|.......................|.......................|.......................|.......................|.......................|.......................|
.......................|.......................|.......................|.......................|.......................|.......................|G-2....................|.......................|.......................|.......................|
.......................|.......................|.......................|.......................|.......................|.......................|.......................|.......................|.......................|.......................|
.......................|.......................|.......................|.......................|.......................|.......................|.......................|.......................|.......................|.......................|
C-0....................|.......................|C-0....................|.......................|.......................|.......................|.......................|.......................|.......................|.......................|
G-3....0400............|.......................|D-3....0400............|.......................|.......................|.......................|.......................|.......................|.......................|.......................|
.......................|.......................|.......................|.......................|.......................|.......................|.......................|.......................|.......................|.......................|
.......................|.......................|.......................|D-4....................|E-4....................|.......................|.......................|.......................|.......................|.......................|
.......................|.......................|.......................|.......................|.......................|.......................|.......................|.......................|.......................|.......................|
.......................|.......................|.......................|.......................|.......................|.......................|.......................|.......................|.......................|.......................|
.......................|.......................|.......................|.......................|.......................|.......................|.......................|.......................|.......................|.......................|
.......................|.......................|.......................|.......................|.......................|.......................|.......................|.......................|.......................|.......................|
.......................|.......................|.......................|.......................|.......................|.......................|.......................|.......................|.......................|.......................|
.......................|.......................|.......................|.......................|.......................|.......................|E-2....................|.......................|.......................|.......................|
.......................|.......................|.......................|.......................|.......................|.......................|.......................|.......................|.......................|.......................|
.......................|.......................|.......................|.......................|.......................|.......................|.......................|.......................|.......................|.......................|
.......................|.......................|.......................|.......................|.......................|.......................|.......................|.......................|.......................|.......................|
.......................|.......................|.......................|.......................|.......................|.......................|.......................|.......................|.......................|.......................|
.......................|.......................|.......................|.......................|.......................|.......................|.......................|.......................|.......................|.......................|
.......................|.......................|.......................|E-4....................|D-4....................|.......................|.......................|.......................|.......................|.......................|
.......................|.......................|.......................|.......................|.......................|.......................|.......................|.......................|.......................|.......................|
.......................|.......................|.......................|.......................|.......................|.......................|.......................|.......................|.......................|.......................|
.......................|.......................|.......................|.......................|.......................|.......................|.......................|.......................|.......................|.......................|
.......................|.......................|.......................|.......................|.......................|.......................|.......................|.......................|.......................|.......................|
.......................|.......................|.......................|.......................|.......................|.......................|.......................|.......................|.......................|.......................|
.......................|.......................|.......................|.......................|.......................|.......................|D-2....................|.......................|.......................|.......................|
.......................|.......................|.......................|.......................|.......................|.......................|.......................|.......................|.......................|.......................|
.......................|.......................|.......................|.......................|.......................|.......................|.......................|.......................|.......................|.......................|
.......................|C-0....................|.......................|.......................|.......................|.......................|.......................|.......................|.......................|.......................|
.......0452............|G-3....0400............|.......0452............|.......................|.......................|.......................|.......................|.......................|.......................|.......................|
.......................|.......................|.......................|.......................|.......................|.......................|.......................|.......................|.......................|.......................|
.......................|.......................|.......................|G-4....................|E-4....................|.......................|.......................|.......................|.......................|.......................|
.......................|.......................|.......................|.......................|.......................|.......................|.......................|.......................|.......................|.......................|
.......................|.......................|.......................|.......................|.......................|.......................|.......................|.......................|.......................|.......................|
.......................|.......................|.......................|.......................|.......................|.......................|.......................|.......................|.......................|.......................|
.......................|.......................|.......................|.......................|.......................|.......................|.......................|.......................|.......................|.......................|
.......................|.......................|.......................|.......................|.......................|.......................|.......................|.......................|.......................|.......................|
.......................|.......................|.......................|.......................|.......................|.......................|E-2....................|.......................|.......................|.......................|
.......................|.......................|.......................|.......................|.......................|.......................|.......................|.......................|.......................|.......................|
.......................|.......................|.......................|.......................|.......................|.......................|.......................|.......................|.......................|.......................|
.......................|.......................|.......................|.......................|.......................|.......................|.......................|.......................|.......................|.......................|
.......................|.......................|.......................|.......................|.......................|.......................|.......................|.......................|.......................|.......................|
.......................|.......................|.......................|.......................|.......................|.......................|.......................|.......................|.......................|.......................|
.......................|.......................|.......................|A#4....................|G-4....................|.......................|.......................|.......................|.......................|.......................|
.......................|.......................|.......................|.......................|.......................|.......................|.......................|.......................|.......................|.......................|
.......................|.......................|.......................|.......................|.......................|.......................|.......................|.......................|.......................|.......................|
.......................|.......................|.......................|.......................|.......................|.......................|.......................|.......................|.......................|.......................|
.......................|.......................|.......................|.......................|.......................|.......................|.......................|.......................|.......................|.......................|
.......................|.......................|.......................|.......................|.......................|.......................|.......................|.......................|.......................|.......................|
.......................|.......................|.......................|.......................|.......................|.......................|G-2....................|.......................|.......................|.......................|
.......................|.......................|.......................|.......................|.......................|.......................|.......................|.......................|.......................|.......................|
.......................|.......................|.......................|.......................|.......................|.......................|.......................|.......................|.......................|.......................|
.......................|.......................|.......................|.......................|.......................|.......................|.......................|.......................|.......................|.......................|
.......................|.......0452............|.......................|.......................|.......................|.......................|.......................|.......................|.......................|.......................|
.......................|.......................|.......................|.......................|.......................|.......................|.......................|.......................|.......................|.......................|
.......................|.......................|.......................|D-5....................|A#4....................|.......................|.......................|.......................|.......................|.......................|
.......................|.......................|.......................|.......................|.......................|.......................|.......................|.......................|.......................|.......................|
.......................|.......................|.......................|.......................|.......................|.......................|.......................|.......................|.......................|.......................|
.......................|.......................|.......................|.......................|.......................|.......................|.......................|.......................|.......................|.......................|
.......................|.......................|.......................|.......................|.......................|.......................|.......................|.......................|.......................|.......................|
.......................|.......................|.......................|.......................|.......................|.......................|.......................|.......................|.......................|.......................|
.......................|.......................|.......................|.......................|.......................|.......................|A#2....................|.......................|.......................|.......................|
.......................|.......................|.......................|.......................|.......................|.......................|.......................|.......................|.......................|.......................|
.......................|.......................|.......................|.......................|.......................|.......................|.......................|.......................|.......................|.......................|
.......................|.......................|.......................|.......................|.......................|.......................|.......................|.......................|.......................|.......................|
.......................|.......................|.......................|.......................|.......................|.......................|.......................|.......................|.......................|.......................|
.......................|.......................|.......................|.......................|.......................|.......................|.......................|.......................|.......................|.......................|
.......................|.......................|.......................|E-5....................|D-5....................|.......................|.......................|.......................|.......................|.......................|
.......................|.......................|.......................|.......................|.......................|.......................|.......................|.......................|.......................|.......................|
.......................|.......................|.......................|.......................|.......................|.......................|.......................|.......................|.......................|.......................|
.......................|.......................|.......................|.......................|.......................|.......................|.......................|.......................|.......................|.......................|
.......................|.......................|.......................|.......................|.......................|.......................|.......................|.......................|.......................|.......................|
.......................|.......................|.......................|.......................|.......................|.......................|.......................|.......................|.......................|.......................|
.......................|.......................|.......................|.......................|.......................|.......................|D-3....................|.......................|.......................|.......................|
.......................|.......................|.......................|.......................|.......................|.......................|.......................|.......................|.......................|.......................|
.......................|.......................|.......................|.......................|.......................|.......................|.......................|.......................|.......................|.......................|
.......................|.......................|.......................|.......................|.......................|.......................|.......................|.......................|.......................|.......................|
.......................|.......................|.......................|.......................|.......................|.......................|.......................|.......................|.......................|.......................|
.......................|.......................|.......................|.......................|.......................|.......................|.......................|.......................|.......................|.......................|
.......................|.......................|.......................|G-5....................|E-5....................|.......................|.......................|.......................|.......................|.......................|
.......................|.......................|.......................|.......................|.......................|.......................|.......................|.......................|.......................|.......................|
.......................|.......................|.......................|.......................|.......................|.......................|.......................|.......................|.......................|.......................|
.......................|.......................|.......................|.......................|.......................|.......................|.......................|.......................|.......................|.......................|
.......................|.......................|.......................|.......................|.......................|.......................|.......................|.......................|.......................|.......................|
.......................|.......................|.......................|.......................|.......................|.......................|.......................|.......................|.......................|.......................|
.......................|.......................|.......................|.......................|.......................|.......................|E-3....................|.......................|.......................|.......................|
.......................|.......................|.......................|.......................|.......................|.......................|.......................|.......................|.......................|.......................|
.......................|.......................|.......................|.......................|.......................|.......................|.......................|.......................|.......................|.......................|
.......................|.......................|.......................|.......................|.......................|.......................|.......................|.......................|.......................|.......................|
.......................|.......................|.......................|.......................|.......................|.......................|.......................|.......................|.......................|.......................|
.......................|.......................|.......................|.......................|.......................|.......................|.......................|.......................|.......................|.......................|
.......................|.......................|.......................|C-0....................|G-5....................|.......................|.......................|.......................|.......................|.......................|
.......................|.......................|.......................|.......................|.......................|.......................|.......................|.......................|.......................|.......................|
.......................|.......................|.......................|.......................|.......................|.......................|.......................|.......................|.......................|.......................|
.......................|.......................|.......................|.......................|.......................|.......................|.......................|.......................|.......................|.......................|
.......................|.......................|.......................|.......................|.......................|.......................|.......................|.......................|.......................|.......................|
.......................|.......................|.......................|.......................|.......................|.......................|.......................|.......................|.......................|.......................|
.......................|.......................|.......................|.......................|.......................|.......................|G-3....................|.......................|.......................|.......................|
.......................|.......................|.......................|.......................|.......................|.......................|.......................|.......................|.......................|.......................|
.......................|.......................|.......................|.......................|.......................|.......................|.......................|.......................|.......................|.......................|
C-0....................|.......................|C-0....................|.......................|.......................|.......................|.......................|.......................|.......................|.......................|
A-3....0400............|.......................|F#3....0400............|.......................|.......................|.......................|.......................|.......................|.......................|.......................|
.......................|.......................|.......................|.......................|.......................|.......................|.......................|.......................|.......................|.......................|
.......................|.......................|.......................|C-0....................|C-0....................|.......................|.......................|.......................|.......................|.......................|
.......................|.......................|.......................|.......................|.......................|.......................|.......................|.......................|.......................|.......................|
.......................|.......................|.......................|.......................|.......................|.......................|.......................|.......................|.......................|.......................|
.......................|.......................|.......................|.......................|.......................|.......................|.......................|.......................|.......................|.......................|
.......................|.......................|.......................|.......................|.......................|.......................|.......................|.......................|.......................|.......................|
.......................|.......................|.......................|.......................|.......................|.......................|.......................|.......................|.......................|.......................|
.......................|.......................|.......................|.......................|.......................|.......................|A#3....................|.......................|.......................|.......................|
.......................|.......................|.......................|.......................|.......................|.......................|.......................|.......................|.......................|.......................|
.......................|.......................|.......................|.......................|.......................|.......................|.......................|.......................|.......................|.......................|
.......................|.......................|.......................|.......................|.......................|.......................|.......................|.......................|.......................|.......................|
.......................|.......................|.......................|.......................|.......................|.......................|.......................|.......................|.......................|.......................|
.......................|.......................|.......................|.......................|.......................|.......................|.......................|.......................|.......................|.......................|
.......................|.......................|.......................|F#5....................|C-0....................|.......................|.......................|.......................|.......................|.......................|
.......................|.......................|.......................|.......................|.......................|.......................|.......................|.......................|.......................|.......................|
.......................|.......................|.......................|.......................|.......................|.......................|.......................|.......................|.......................|.......................|
.......................|.......................|.......................|.......................|.......................|.......................|.......................|.......................|.......................|.......................|
.......................|.......................|.......................|.......................|.......................|.......................|.......................|.......................|.......................|.......................|
.......................|.......................|.......................|.......................|.......................|.......................|.......................|.......................|.......................|.......................|
.......................|.......................|.......................|.......................|.......................|.......................|A-3....................|.......................|.......................|.......................|
.......................|.......................|.......................|.......................|.......................|.......................|.......................|.......................|.......................|.......................|
.......................|.......................|.......................|.......................|.......................|.......................|.......................|.......................|.......................|.......................|
.......................|C-0....................|.......................|.......................|.......................|.......................|.......................|.......................|.......................|.......................|
.......0452............|A-3....0400............|.......0452............|.......................|.......................|.......................|.......................|.......................|.......................|.......................|
.......................|.......................|.......................|.......................|.......................|.......................|.......................|.......................|.......................|.......................|
.......................|.......................|.......................|C-0....................|F#5....................|.......................|.......................|.......................|.......................|.......................|
.......................|.......................|.......................|.......................|.......................|.......................|.......................|.......................|.......................|.......................|
.......................|.......................|.......................|.......................|.......................|.......................|.......................|.......................|.......................|.......................|
.......................|.......................|.......................|.......................|.......................|.......................|.......................|.......................|.......................|.......................|
.......................|.......................|.......................|.......................|.......................|.......................|.......................|.......................|.......................|.......................|
.......................|.......................|.......................|.......................|.......................|.......................|.......................|.......................|.......................|.......................|
.......................|.......................|.......................|.......................|.......................|.......................|F#3....................|.......................|.......................|.......................|
.......................|.......................|.......................|.......................|.......................|.......................|.......................|.......................|.......................|.......................|
.......................|.......................|.......................|.......................|.......................|.......................|.......................|.......................|.......................|.......................|
.......................|.......................|.......................|.......................|.......................|.......................|.......................|.......................|.......................|.......................|
.......................|.......................|.......................|.......................|.......................|.......................|.......................|.......................|.......................|.......................|
.......................|.......................|.......................|.......................|.......................|.......................|.......................|.......................|.......................|.......................|
.......................|.......................|.......................|C-0....................|C-0....................|.......................|.......................|.......................|.......................|.......................|
.......................|.......................|.......................|.......................|.......................|.......................|.......................|.......................|.......................|.......................|
.......................|.......................|.......................|.......................|.......................|.......................|.......................|.......................|.......................|.......................|
.......................|.......................|.......................|.......................|.......................|.......................|.......................|.......................|.......................|.......................|
.......................|.......................|.......................|.......................|.......................|.......................|.......................|.......................|.......................|.......................|
.......................|.......................|.......................|.......................|.......................|.......................|.......................|.......................|.......................|.......................|
.......................|.......................|.......................|.......................|.......................|.......................|B-3....................|.......................|.......................|.......................|
.......................|.......................|.......................|.......................|.......................|.......................|.......................|.......................|.......................|.......................|
.......................|.......................|.......................|.......................|.......................|.......................|.......................|.......................|.......................|.......................|
.......................|.......................|.......................|.......................|.......................|.......................|.......................|.......................|.......................|.......................|
.......................|.......0452............|.......................|.......................|.......................|.......................|.......................|.......................|.......................|.......................|
.......................|.......................|.......................|.......................|.......................|.......................|.......................|.......................|.......................|.......................|
.......................|.......................|.......................|C-0....................|C-0....................|.......................|.......................|.......................|.......................|.......................|
.......................|.......................|.......................|.......................|.......................|.......................|.......................|.......................|.......................|.......................|
.......................|.......................|.......................|.......................|.......................|.......................|.......................|.......................|.......................|.......................|
.......................|.......................|.......................|.......................|.......................|.......................|.......................|.......................|.......................|.......................|
.......................|.......................|.......................|.......................|.......................|.......................|.......................|.......................|.......................|.......................|
.......................|.......................|.......................|.......................|.......................|.......................|.......................|.......................|.......................|.......................|
.......................|.......................|.......................|.......................|.......................|.......................|A-3....................|.......................|.......................|.......................|
.......................|.......................|.......................|.......................|.......................|.......................|.......................|.......................|.......................|.......................|
.......................|.......................|.......................|.......................|.......................|.......................|.......................|.......................|.......................|.......................|
.......................|.......................|.......................|.......................|.......................|.......................|.......................|.......................|.......................|.......................|
.......................|.......................|.......................|.......................|.......................|.......................|.......................|.......................|.......................|.......................|
.......................|.......................|.......................|.......................|.......................|.......................|.......................|.......................|.......................|.......................|
.......................|.......................|.......................|C-0....................|C-0....................|.......................|.......................|.......................|.......................|.......................|
.......................|.......................|.......................|.......................|.......................|.......................|.......................|.......................|.......................|.......................|
.......................|.......................|.......................|.......................|.......................|.......................|.......................|.......................|.......................|.......................|
.......................|.......................|.......................|.......................|.......................|.......................|.......................|.......................|.......................|.......................|
.......................|.......................|.......................|.......................|.......................|.......................|.......................|.......................|.......................|.......................|
.......................|.......................|.......................|.......................|.......................|.......................|.......................|.......................|.......................|.......................|
.......................|.......................|.......................|.......................|.......................|.......................|D-4....................|.......................|.......................|.......................|
.......................|.......................|.......................|.......................|.......................|.......................|.......................|.......................|.......................|.......................|
.......................|.......................|.......................|.......................|.......................|.......................|.......................|.......................|.......................|.......................|
.......................|.......................|.......................|.......................|.......................|.......................|.......................|.......................|.......................|.......................|
.......................|.......................|.......................|.......................|.......................|.......................|.......................|.......................|.......................|.......................|
.......................|.......................|.......................|.......................|.......................|.......................|.......................|.......................|.......................|.......................|
.......................|.......................|.......................|C-0....................|C-0....................|.......................|.......................|.......................|.......................|.......................|
.......................|.......................|.......................|.......................|.......................|.......................|.......................|.......................|.......................|.......................|
.......................|.......................|.......................|.......................|.......................|.......................|.......................|.......................|.......................|.......................|
.......................|.......................|.......................|.......................|.......................|.......................|.......................|.......................|.......................|.......................|
.......................|.......................|.......................|.......................|.......................|.......................|.......................|.......................|.......................|.......................|
.......................|.......................|.......................|.......................|.......................|.......................|.......................|.......................|.......................|.......................|
.......................|.......................|.......................|.......................|.......................|.......................|C#4....................|.......................|.......................|.......................|
.......................|.......................|.......................|.......................|.......................|.......................|.......................|.......................|.......................|.......................|
.......................|.......................|.......................|.......................|.......................|.......................|.......................|.......................|.......................|.......................|
.......................|.......................|.......................|.......................|.......................|.......................|.......................|.......................|.......................|.......................|
.......................|.......................|.......................|.......................|.......................|.......................|.......................|.......................|.......................|.......................|
.......................|.......................|.......................|.......................|.......................|.......................|.......................|.......................|.......................|.......................|
.......................|.......................|.......................|C-0....................|C-0....................|.......................|.......................|.......................|.......................|.......................|
.......................|.......................|.......................|.......................|.......................|.......................|.......................|.......................|.......................|.......................|
.......................|.......................|.......................|.......................|.......................|.......................|.......................|.......................|.......................|.......................|
.......................|.......................|.......................|.......................|.......................|.......................|.......................|.......................|.......................|.......................|
.......................|.......................|.......................|.......................|.......................|.......................|.......................|.......................|.......................|.......................|
.......................|.......................|.......................|.......................|.......................|.......................|.......................|.......................|.......................|.......................|
.......................|.......................|.......................|.......................|.......................|.......................|E-4....................|.......................|.......................|.......................|
.......................|.......................|.......................|.......................|.......................|.......................|.......................|.......................|.......................|.......................|
.......................|.......................|.......................|.......................|.......................|.......................|.......................|.......................|.......................|.......................|
C-0....................|.......................|C-0....................|.......................|.......................|.......................|.......................|.......................|.......................|.......................|
A-3....0400............|.......................|F#3....0400............|.......................|.......................|.......................|.......................|.......................|.......................|.......................|
.......................|.......................|.......................|.......................|.......................|.......................|.......................|.......................|.......................|.......................|
.......................|.......................|.......................|C-0....................|C-0....................|.......................|.......................|.......................|.......................|.......................|
.......................|.......................|.......................|.......................|.......................|.......................|.......................|.......................|.......................|.......................|
.......................|.......................|.......................|.......................|.......................|.......................|.......................|.......................|.......................|.......................|
.......................|.......................|.......................|.......................|.......................|.......................|.......................|.......................|.......................|.......................|
.......................|.......................|.......................|.......................|.......................|.......................|.......................|.......................|.......................|.......................|
.......................|.......................|.......................|.......................|.......................|.......................|.......................|.......................|.......................|.......................|
.......................|.......................|.......................|.......................|.......................|.......................|D-4....................|.......................|.......................|.......................|
.......................|.......................|.......................|.......................|.......................|.......................|.......................|.......................|.......................|.......................|
.......................|.......................|.......................|.......................|.......................|.......................|.......................|.......................|.......................|.......................|
.......................|.......................|.......................|.......................|.......................|.......................|.......................|.......................|.......................|.......................|
.......................|.......................|.......................|.......................|.......................|.......................|.......................|.......................|.......................|.......................|
.......................|.......................|.......................|.......................|.......................|.......................|.......................|.......................|.......................|.......................|
.......................|.......................|.......................|C-0....................|C-0....................|.......................|.......................|.......................|.......................|.......................|
.......................|.......................|.......................|.......................|.......................|.......................|.......................|.......................|.......................|.......................|
.......................|.......................|.......................|.......................|.......................|.......................|.......................|.......................|.......................|.......................|
.......................|.......................|.......................|.......................|.......................|.......................|.......................|.......................|.......................|.......................|
.......................|.......................|.......................|.......................|.......................|.......................|.......................|.......................|.......................|.......................|
.......................|.......................|.......................|.......................|.......................|.......................|.......................|.......................|.......................|.......................|
.......................|.......................|.......................|.......................|.......................|.......................|F#4....................|.......................|.......................|.......................|
.......................|.......................|.......................|.......................|.......................|.......................|.......................|.......................|.......................|.......................|
.......................|.......................|.......................|.......................|.......................|.......................|.......................|.......................|.......................|.......................|
.......................|C-0....................|.......................|.......................|.......................|.......................|.......................|.......................|.......................|.......................|
.......0452............|A-3....0400............|.......0452............|.......................|.......................|.......................|.......................|.......................|.......................|.......................|
.......................|.......................|.......................|.......................|.......................|.......................|.......................|.......................|.......................|.......................|
.......................|.......................|.......................|C-0....................|C-0....................|.......................|.......................|.......................|.......................|.......................|
.......................|.......................|.......................|.......................|.......................|.......................|.......................|.......................|.......................|.......................|
.......................|.......................|.......................|.......................|.......................|.......................|.......................|.......................|.......................|.......................|
.......................|.......................|.......................|.......................|.......................|.......................|.......................|.......................|.......................|.......................|
.......................|.......................|.......................|.......................|.......................|.......................|.......................|.......................|.......................|.......................|
.......................|.......................|.......................|.......................|.......................|.......................|.......................|.......................|.......................|.......................|
org.tildearrow.furnace - Pattern Data (219)
0
.......................|.......................|.......................|.......................|.......................|.......................|D-4....................|.......................|.......................|.......................|
.......................|.......................|.......................|.......................|.......................|.......................|.......................|.......................|.......................|.......................|
.......................|.......................|.......................|.......................|.......................|.......................|.......................|.......................|.......................|.......................|
.......................|.......................|.......................|.......................|.......................|.......................|.......................|.......................|.......................|.......................|
.......................|.......................|.......................|.......................|.......................|.......................|.......................|.......................|.......................|.......................|
.......................|.......................|.......................|.......................|.......................|.......................|.......................|.......................|.......................|.......................|
.......................|.......................|.......................|C-0....................|C-0....................|.......................|.......................|.......................|.......................|.......................|
.......................|.......................|.......................|.......................|.......................|.......................|.......................|.......................|.......................|.......................|
.......................|.......................|.......................|.......................|.......................|.......................|.......................|.......................|.......................|.......................|
.......................|.......................|.......................|.......................|.......................|.......................|.......................|.......................|.......................|.......................|
.......................|.......................|.......................|.......................|.......................|.......................|.......................|.......................|.......................|.......................|
.......................|.......................|.......................|.......................|.......................|.......................|.......................|.......................|.......................|.......................|
.......................|.......................|.......................|.......................|.......................|.......................|C#4....................|.......................|.......................|.......................|
.......................|.......................|.......................|.......................|.......................|.......................|.......................|.......................|.......................|.......................|
.......................|.......................|.......................|.......................|.......................|.......................|.......................|.......................|.......................|.......................|
.......................|.......................|.......................|.......................|.......................|.......................|.......................|.......................|.......................|.......................|
.......................|.......0452............|.......................|.......................|.......................|.......................|.......................|.......................|.......................|.......................|
.......................|.......................|.......................|.......................|.......................|.......................|.......................|.......................|.......................|.......................|
.......................|.......................|.......................|F#5....................|C-0....................|.......................|.......................|.......................|.......................|.......................|
.......................|.......................|.......................|.......................|.......................|.......................|.......................|.......................|.......................|.......................|
.......................|.......................|.......................|.......................|.......................|.......................|.......................|.......................|.......................|.......................|
.......................|.......................|.......................|.......................|.......................|.......................|.......................|.......................|.......................|.......................|
.......................|.......................|.......................|.......................|.......................|.......................|.......................|.......................|.......................|.......................|
.......................|.......................|.......................|.......................|.......................|.......................|.......................|.......................|.......................|.......................|
.......................|.......................|.......................|.......................|.......................|.......................|A-3....................|.......................|.......................|.......................|
.......................|.......................|.......................|.......................|.......................|.......................|.......................|.......................|.......................|.......................|
.......................|.......................|.......................|.......................|.......................|.......................|.......................|.......................|.......................|.......................|
.......................|.......................|.......................|.......................|.......................|.......................|.......................|.......................|.......................|.......................|
.......................|.......................|.......................|.......................|.......................|.......................|.......................|.......................|.......................|.......................|
.......................|.......................|.......................|.......................|.......................|.......................|.......................|.......................|.......................|.......................|
.......................|.......................|.......................|D-5....................|F#5....................|.......................|.......................|.......................|.......................|.......................|
.......................|.......................|.......................|.......................|.......................|.......................|.......................|.......................|.......................|.......................|
.......................|.......................|.......................|.......................|.......................|.......................|.......................|.......................|.......................|.......................|
.......................|.......................|.......................|.......................|.......................|.......................|.......................|.......................|.......................|.......................|
.......................|.......................|.......................|.......................|.......................|.......................|.......................|.......................|.......................|.......................|
.......................|.......................|.......................|.......................|.......................|.......................|.......................|.......................|.......................|.......................|
.......................|.......................|.......................|.......................|.......................|.......................|F#3....................|.......................|.......................|.......................|
.......................|.......................|.......................|.......................|.......................|.......................|.......................|.......................|.......................|.......................|
.......................|.......................|.......................|.......................|.......................|.......................|.......................|.......................|.......................|.......................|
.......................|.......................|.......................|.......................|.......................|.......................|.......................|.......................|.......................|.......................|
.......................|.......................|.......................|.......................|.......................|.......................|.......................|.......................|.......................|.......................|
.......................|.......................|.......................|.......................|.......................|.......................|.......................|.......................|.......................|.......................|
.......................|.......................|.......................|C#5....................|D-5....................|.......................|.......................|.......................|.......................|.......................|
.......................|.......................|.......................|.......................|.......................|.......................|.......................|.......................|.......................|.......................|
.......................|.......................|.......................|.......................|.......................|.......................|.......................|.......................|.......................|.......................|
.......................|.......................|.......................|.......................|.......................|.......................|.......................|.......................|.......................|.......................|
.......................|.......................|.......................|.......................|.......................|.......................|.......................|.......................|.......................|.......................|
.......................|.......................|.......................|.......................|.......................|.......................|.......................|.......................|.......................|.......................|
.......................|.......................|.......................|.......................|.......................|.......................|D-3....................|.......................|.......................|.......................|
.......................|.......................|.......................|.......................|.......................|.......................|.......................|.......................|.......................|.......................|
.......................|.......................|.......................|.......................|.......................|.......................|.......................|.......................|.......................|.......................|
.......................|.......................|.......................|.......................|.......................|.......................|.......................|.......................|.......................|.......................|
.......................|.......................|.......................|.......................|.......................|.......................|.......................|.......................|.......................|.......................|
.......................|.......................|.......................|.......................|.......................|.......................|.......................|.......................|.......................|.......................|
.......................|.......................|.......................|A-4....................|C#5....................|.......................|.......................|.......................|.......................|.......................|
.......................|.......................|.......................|.......................|.......................|.......................|.......................|.......................|.......................|.......................|
.......................|.......................|.......................|.......................|.......................|.......................|.......................|.......................|.......................|.......................|
.......................|.......................|.......................|.......................|.......................|.......................|.......................|.......................|.......................|.......................|
.......................|.......................|.......................|.......................|.......................|.......................|.......................|.......................|.......................|.......................|
.......................|.......................|.......................|.......................|.......................|.......................|.......................|.......................|.......................|.......................|
.......................|.......................|.......................|.......................|.......................|.......................|C#3....................|.......................|.......................|.......................|
.......................|.......................|.......................|.......................|.......................|.......................|.......................|.......................|.......................|.......................|
.......................|.......................|.......................|.......................|.......................|.......................|.......................|.......................|.......................|.......................|
C-0....................|.......................|C-0....................|.......................|.......................|.......................|.......................|.......................|.......................|.......................|
A#3....0400............|.......................|G-3....0400............|.......................|.......................|.......................|.......................|.......................|.......................|.......................|
.......................|.......................|.......................|.......................|.......................|.......................|.......................|.......................|.......................|.......................|
.......................|.......................|.......................|D-4....................|A-4....................|.......................|.......................|.......................|.......................|.......................|
.......................|.......................|.......................|.......................|.......................|.......................|.......................|.......................|.......................|.......................|
.......................|.......................|.......................|.......................|.......................|.......................|.......................|.......................|.......................|.......................|
.......................|.......................|.......................|.......................|.......................|.......................|.......................|.......................|.......................|.......................|
.......................|.......................|.......................|.......................|.......................|.......................|.......................|.......................|.......................|.......................|
.......................|.......................|.......................|.......................|.......................|.......................|.......................|.......................|.......................|.......................|
.......................|.......................|.......................|.......................|.......................|.......................|A-2....................|.......................|.......................|.......................|
.......................|.......................|.......................|.......................|.......................|.......................|.......................|.......................|.......................|.......................|
.......................|.......................|.......................|.......................|.......................|.......................|.......................|.......................|.......................|.......................|
.......................|.......................|.......................|.......................|.......................|.......................|.......................|.......................|.......................|.......................|
.......................|.......................|.......................|.......................|.......................|.......................|.......................|.......................|.......................|.......................|
.......................|.......................|.......................|.......................|.......................|.......................|.......................|.......................|.......................|.......................|
.......................|.......................|.......................|E-4....................|D-4....................|.......................|.......................|.......................|.......................|.......................|
.......................|.......................|.......................|.......................|.......................|.......................|.......................|.......................|.......................|.......................|
.......................|.......................|.......................|.......................|.......................|.......................|.......................|.......................|.......................|.......................|
.......................|.......................|.......................|.......................|.......................|.......................|.......................|.......................|.......................|.......................|
.......................|.......................|.......................|.......................|.......................|.......................|.......................|.......................|.......................|.......................|
.......................|.......................|.......................|.......................|.......................|.......................|.......................|.......................|.......................|.......................|
.......................|.......................|.......................|.......................|.......................|.......................|D-2....................|.......................|.......................|.......................|
.......................|.......................|.......................|.......................|.......................|.......................|.......................|.......................|.......................|.......................|
.......................|.......................|.......................|.......................|.......................|.......................|.......................|.......................|.......................|.......................|
.......................|C-0....................|.......................|.......................|.......................|.......................|.......................|.......................|.......................|.......................|
.......0452............|A#3....0400............|.......0452............|.......................|.......................|.......................|.......................|.......................|.......................|.......................|
.......................|.......................|.......................|.......................|.......................|.......................|.......................|.......................|.......................|.......................|
.......................|.......................|.......................|G-4....................|E-4....................|.......................|.......................|.......................|.......................|.......................|
.......................|.......................|.......................|.......................|.......................|.......................|.......................|.......................|.......................|.......................|
.......................|.......................|.......................|.......................|.......................|.......................|.......................|.......................|.......................|.......................|
.......................|.......................|.......................|.......................|.......................|.......................|.......................|.......................|.......................|.......................|
.......................|.......................|.......................|.......................|.......................|.......................|.......................|.......................|.......................|.......................|
.......................|.......................|.......................|.......................|.......................|.......................|.......................|.......................|.......................|.......................|
.......................|.......................|.......................|.......................|.......................|.......................|E-2....................|.......................|.......................|.......................|
.......................|.......................|.......................|.......................|.......................|.......................|.......................|.......................|.......................|.......................|
.......................|.......................|.......................|.......................|.......................|.......................|.......................|.......................|.......................|.......................|
.......................|.......................|.......................|.......................|.......................|.......................|.......................|.......................|.......................|.......................|
.......................|.......................|.......................|.......................|.......................|.......................|.......................|.......................|.......................|.......................|
.......................|.......................|.......................|.......................|.......................|.......................|.......................|.......................|.......................|.......................|
.......................|.......................|.......................|A#4....................|G-4....................|.......................|.......................|.......................|.......................|.......................|
.......................|.......................|.......................|.......................|.......................|.......................|.......................|.......................|.......................|.......................|
.......................|.......................|.......................|.......................|.......................|.......................|.......................|.......................|.......................|.......................|
.......................|.......................|.......................|.......................|.......................|.......................|.......................|.......................|.......................|.......................|
.......................|.......................|.......................|.......................|.......................|.......................|.......................|.......................|.......................|.......................|
.......................|.......................|.......................|.......................|.......................|.......................|.......................|.......................|.......................|.......................|
.......................|.......................|.......................|.......................|.......................|.......................|G-2....................|.......................|.......................|.......................|
.......................|.......................|.......................|.......................|.......................|.......................|.......................|.......................|.......................|.......................|
.......................|.......................|.......................|.......................|.......................|.......................|.......................|.......................|.......................|.......................|
.......................|.......................|.......................|.......................|.......................|.......................|.......................|.......................|.......................|.......................|
.......................|.......0452............|.......................|.......................|.......................|.......................|.......................|.......................|.......................|.......................|
.......................|.......................|.......................|.......................|.......................|.......................|.......................|.......................|.......................|.......................|
.......................|.......................|.......................|D-5....................|A#4....................|.......................|.......................|.......................|.......................|.......................|
.......................|.......................|.......................|.......................|.......................|.......................|.......................|.......................|.......................|.......................|
.......................|.......................|.......................|.......................|.......................|.......................|.......................|.......................|.......................|.......................|
.......................|.......................|.......................|.......................|.......................|.......................|.......................|.......................|.......................|.......................|
.......................|.......................|.......................|.......................|.......................|.......................|.......................|.......................|.......................|.......................|
.......................|.......................|.......................|.......................|.......................|.......................|.......................|.......................|.......................|.......................|
.......................|.......................|.......................|.......................|.......................|.......................|A#2....................|.......................|.......................|.......................|
.......................|.......................|.......................|.......................|.......................|.......................|.......................|.......................|.......................|.......................|
.......................|.......................|.......................|.......................|.......................|.......................|.......................|.......................|.......................|.......................|
.......................|.......................|.......................|.......................|.......................|.......................|.......................|.......................|.......................|.......................|
.......................|.......................|.......................|.......................|.......................|.......................|.......................|.......................|.......................|.......................|
.......................|.......................|.......................|.......................|.......................|.......................|.......................|.......................|.......................|.......................|
.......................|.......................|.......................|E-5....................|D-5....................|.......................|.......................|.......................|.......................|.......................|
.......................|.......................|.......................|.......................|.......................|.......................|.......................|.......................|.......................|.......................|
.......................|.......................|.......................|.......................|.......................|.......................|.......................|.......................|.......................|.......................|
.......................|.......................|.......................|.......................|.......................|.......................|.......................|.......................|.......................|.......................|
.......................|.......................|.......................|.......................|.......................|.......................|.......................|.......................|.......................|.......................|
.......................|.......................|.......................|.......................|.......................|.......................|.......................|.......................|.......................|.......................|
.......................|.......................|.......................|.......................|.......................|.......................|D-3....................|.......................|.......................|.......................|
.......................|.......................|.......................|.......................|.......................|.......................|.......................|.......................|.......................|.......................|
.......................|.......................|.......................|.......................|.......................|.......................|.......................|.......................|.......................|.......................|
.......................|.......................|.......................|.......................|.......................|.......................|.......................|.......................|.......................|.......................|
.......................|.......................|.......................|.......................|.......................|.......................|.......................|.......................|.......................|.......................|
.......................|.......................|.......................|.......................|.......................|.......................|.......................|.......................|.......................|.......................|
.......................|.......................|.......................|G-5....................|E-5....................|.......................|.......................|.......................|.......................|.......................|
.......................|.......................|.......................|.......................|.......................|.......................|.......................|.......................|.......................|.......................|
.......................|.......................|.......................|.......................|.......................|.......................|.......................|.......................|.......................|.......................|
.......................|.......................|.......................|.......................|.......................|.......................|.......................|.......................|.......................|.......................|
.......................|.......................|.......................|.......................|.......................|.......................|.......................|.......................|.......................|.......................|
.......................|.......................|.......................|.......................|.......................|.......................|.......................|.......................|.......................|.......................|
.......................|.......................|.......................|.......................|.......................|.......................|E-3....................|.......................|.......................|.......................|
.......................|.......................|.......................|.......................|.......................|.......................|.......................|.......................|.......................|.......................|
.......................|.......................|.......................|.......................|.......................|.......................|.......................|.......................|.......................|.......................|
.......................|.......................|.......................|.......................|.......................|.......................|.......................|.......................|.......................|.......................|
.......................|.......................|.......................|.......................|.......................|.......................|.......................|.......................|.......................|.......................|
.......................|.......................|.......................|.......................|.......................|.......................|.......................|.......................|.......................|.......................|
.......................|.......................|.......................|C-0....................|G-5....................|.......................|.......................|.......................|.......................|.......................|
.......................|.......................|.......................|.......................|.......................|.......................|.......................|.......................|.......................|.......................|
.......................|.......................|.......................|.......................|.......................|.......................|.......................|.......................|.......................|.......................|
.......................|.......................|.......................|.......................|.......................|.......................|.......................|.......................|.......................|.......................|
.......................|.......................|.......................|.......................|.......................|.......................|.......................|.......................|.......................|.......................|
.......................|.......................|.......................|.......................|.......................|.......................|.......................|.......................|.......................|.......................|
.......................|.......................|.......................|.......................|.......................|.......................|G-3....................|.......................|.......................|.......................|
.......................|.......................|.......................|.......................|.......................|.......................|.......................|.......................|.......................|.......................|
.......................|.......................|.......................|.......................|.......................|.......................|.......................|.......................|.......................|.......................|
C-0....................|.......................|C-0....................|.......................|.......................|.......................|.......................|.......................|.......................|.......................|
G-3....0400............|.......................|A#2....0400............|.......................|.......................|.......................|.......................|.......................|.......................|.......................|
.......................|.......................|.......................|.......................|.......................|.......................|.......................|.......................|.......................|.......................|
.......................|.......................|.......................|D-5....................|C-0....................|.......................|.......................|.......................|.......................|.......................|
.......................|.......................|.......................|.......................|.......................|.......................|.......................|.......................|.......................|.......................|
.......................|.......................|.......................|.......................|.......................|.......................|.......................|.......................|.......................|.......................|
.......................|.......................|.......................|.......................|.......................|.......................|.......................|.......................|.......................|.......................|
.......................|.......................|.......................|.......................|.......................|.......................|.......................|.......................|.......................|.......................|
.......................|.......................|.......................|.......................|.......................|.......................|.......................|.......................|.......................|.......................|
.......................|.......................|.......................|.......................|.......................|.......................|A#3....................|.......................|.......................|.......................|
.......................|.......................|.......................|.......................|.......................|.......................|.......................|.......................|.......................|.......................|
.......................|.......................|.......................|.......................|.......................|.......................|.......................|.......................|.......................|.......................|
.......................|.......................|.......................|.......................|.......................|.......................|.......................|.......................|.......................|.......................|
.......................|.......................|.......................|.......................|.......................|.......................|.......................|.......................|.......................|.......................|
.......................|.......................|.......................|.......................|.......................|.......................|.......................|.......................|.......................|.......................|
.......................|.......................|.......................|C#5....................|D-5....................|.......................|.......................|.......................|.......................|.......................|
.......................|.......................|.......................|.......................|.......................|.......................|.......................|.......................|.......................|.......................|
.......................|.......................|.......................|.......................|.......................|.......................|.......................|.......................|.......................|.......................|
.......................|.......................|.......................|.......................|.......................|.......................|.......................|.......................|.......................|.......................|
.......................|.......................|.......................|.......................|.......................|.......................|.......................|.......................|.......................|.......................|
.......................|.......................|.......................|.......................|.......................|.......................|.......................|.......................|.......................|.......................|
.......................|.......................|.......................|.......................|.......................|.......................|D-3....................|.......................|.......................|.......................|
.......................|.......................|.......................|.......................|.......................|.......................|.......................|.......................|.......................|.......................|
.......................|.......................|.......................|.......................|.......................|.......................|.......................|.......................|.......................|.......................|
.......................|C-0....................|.......................|.......................|.......................|.......................|.......................|.......................|.......................|.......................|
.......0452............|G-3....0400............|.......0452............|.......................|.......................|.......................|.......................|.......................|.......................|.......................|
.......................|.......................|.......................|.......................|.......................|.......................|.......................|.......................|.......................|.......................|
.......................|.......................|.......................|E-5....................|C#5....................|.......................|.......................|.......................|.......................|.......................|
.......................|.......................|.......................|.......................|.......................|.......................|.......................|.......................|.......................|.......................|
.......................|.......................|.......................|.......................|.......................|.......................|.......................|.......................|.......................|.......................|
.......................|.......................|.......................|.......................|.......................|.......................|.......................|.......................|.......................|.......................|
.......................|.......................|.......................|.......................|.......................|.......................|.......................|.......................|.......................|.......................|
.......................|.......................|.......................|.......................|.......................|.......................|.......................|.......................|.......................|.......................|
.......................|.......................|.......................|.......................|.......................|.......................|C#3....................|.......................|.......................|.......................|
.......................|.......................|.......................|.......................|.......................|.......................|.......................|.......................|.......................|.......................|
.......................|.......................|.......................|.......................|.......................|.......................|.......................|.......................|.......................|.......................|
.......................|.......................|.......................|.......................|.......................|.......................|.......................|.......................|.......................|.......................|
.......................|.......................|.......................|.......................|.......................|.......................|.......................|.......................|.......................|.......................|
.......................|.......................|.......................|.......................|.......................|.......................|.......................|.......................|.......................|.......................|
.......................|.......................|.......................|D-5....................|E-5....................|.......................|.......................|.......................|.......................|.......................|
.......................|.......................|.......................|.......................|.......................|.......................|.......................|.......................|.......................|.......................|
.......................|.......................|.......................|.......................|.......................|.......................|.......................|.......................|.......................|.......................|
.......................|.......................|.......................|.......................|.......................|.......................|.......................|.......................|.......................|.......................|
.......................|.......................|.......................|.......................|.......................|.......................|.......................|.......................|.......................|.......................|
.......................|.......................|.......................|.......................|.......................|.......................|.......................|.......................|.......................|.......................|
.......................|.......................|.......................|.......................|.......................|.......................|E-3....................|.......................|.......................|.......................|
.......................|.......................|.......................|.......................|.......................|.......................|.......................|.......................|.......................|.......................|
.......................|.......................|.......................|.......................|.......................|.......................|.......................|.......................|.......................|.......................|
.......................|.......................|.......................|.......................|.......................|.......................|.......................|.......................|.......................|.......................|
.......................|.......0452............|.......................|.......................|.......................|.......................|.......................|.......................|.......................|.......................|
.......................|.......................|.......................|.......................|.......................|.......................|.......................|.......................|.......................|.......................|
.......................|.......................|.......................|F-5....................|D-5....................|.......................|.......................|.......................|.......................|.......................|
.......................|.......................|.......................|.......................|.......................|.......................|.......................|.......................|.......................|.......................|
.......................|.......................|.......................|.......................|.......................|.......................|.......................|.......................|.......................|.......................|
.......................|.......................|.......................|.......................|.......................|.......................|.......................|.......................|.......................|.......................|
.......................|.......................|.......................|.......................|.......................|.......................|.......................|.......................|.......................|.......................|
.......................|.......................|.......................|.......................|.......................|.......................|.......................|.......................|.......................|.......................|
.......................|.......................|.......................|.......................|.......................|.......................|D-3....................|.......................|.......................|.......................|
.......................|.......................|.......................|.......................|.......................|.......................|.......................|.......................|.......................|.......................|
.......................|.......................|.......................|.......................|.......................|.......................|.......................|.......................|.......................|.......................|
.......................|.......................|.......................|.......................|.......................|.......................|.......................|.......................|.......................|.......................|
.......................|.......................|.......................|.......................|.......................|.......................|.......................|.......................|.......................|.......................|
.......................|.......................|.......................|.......................|.......................|.......................|.......................|.......................|.......................|.......................|
.......................|.......................|.......................|E-5....................|F-5....................|.......................|.......................|.......................|.......................|.......................|
.......................|.......................|.......................|.......................|.......................|.......................|.......................|.......................|.......................|.......................|
.......................|.......................|.......................|.......................|.......................|.......................|.......................|.......................|.......................|.......................|
.......................|.......................|.......................|.......................|.......................|.......................|.......................|.......................|.......................|.......................|
.......................|.......................|.......................|.......................|.......................|.......................|.......................|.......................|.......................|.......................|
.......................|.......................|.......................|.......................|.......................|.......................|.......................|.......................|.......................|.......................|
.......................|.......................|.......................|.......................|.......................|.......................|F-3....................|.......................|.......................|.......................|
.......................|.......................|.......................|.......................|.......................|.......................|.......................|.......................|.......................|.......................|
.......................|.......................|.......................|.......................|.......................|.......................|.......................|.......................|.......................|.......................|
.......................|.......................|.......................|.......................|.......................|.......................|.......................|.......................|.......................|.......................|
.......................|.......................|.......................|.......................|.......................|.......................|.......................|.......................|.......................|.......................|
.......................|.......................|.......................|.......................|.......................|.......................|.......................|.......................|.......................|.......................|
.......................|.......................|.......................|G-5....................|E-5....................|.......................|.......................|.......................|.......................|.......................|
.......................|.......................|.......................|.......................|.......................|.......................|.......................|.......................|.......................|.......................|
.......................|.......................|.......................|.......................|.......................|.......................|.......................|.......................|.......................|.......................|
.......................|.......................|.......................|.......................|.......................|.......................|.......................|.......................|.......................|.......................|
.......................|.......................|.......................|.......................|.......................|.......................|.......................|.......................|.......................|.......................|
.......................|.......................|.......................|.......................|.......................|.......................|.......................|.......................|.......................|.......................|
.......................|.......................|.......................|.......................|.......................|.......................|E-3....................|.......................|.......................|.......................|
.......................|.......................|.......................|.......................|.......................|.......................|.......................|.......................|.......................|.......................|
.......................|.......................|.......................|.......................|.......................|.......................|.......................|.......................|.......................|.......................|
.......................|.......................|.......................|.......................|.......................|.......................|.......................|.......................|.......................|.......................|
.......................|.......................|.......................|.......................|.......................|.......................|.......................|.......................|.......................|.......................|
.......................|.......................|.......................|.......................|.......................|.......................|.......................|.......................|.......................|.......................|
.......................|.......................|.......................|F-5....................|G-5....................|.......................|.......................|.......................|.......................|.......................|
.......................|.......................|.......................|.......................|.......................|.......................|.......................|.......................|.......................|.......................|
.......................|.......................|.......................|.......................|.......................|.......................|.......................|.......................|.......................|.......................|
.......................|.......................|.......................|.......................|.......................|.......................|.......................|.......................|.......................|.......................|
.......................|.......................|.......................|.......................|.......................|.......................|.......................|.......................|.......................|.......................|
.......................|.......................|.......................|.......................|.......................|.......................|.......................|.......................|.......................|.......................|
.......................|.......................|.......................|.......................|.......................|.......................|G-3....................|.......................|.......................|.......................|
.......................|.......................|.......................|.......................|.......................|.......................|.......................|.......................|.......................|.......................|
.......................|.......................|.......................|.......................|.......................|.......................|.......................|.......................|.......................|.......................|
C-0....................|.......................|C-0....................|.......................|.......................|.......................|.......................|.......................|.......................|.......................|
org.tildearrow.furnace - Pattern Data (219)
0
F#3....0400............|.......................|D-3....0400............|.......................|.......................|.......................|.......................|.......................|.......................|.......................|
.......................|.......................|.......................|.......................|.......................|.......................|.......................|.......................|.......................|.......................|
.......................|.......................|.......................|C-0....................|F-5....................|.......................|.......................|.......................|.......................|.......................|
.......................|.......................|.......................|.......................|.......................|.......................|.......................|.......................|.......................|.......................|
.......................|.......................|.......................|.......................|.......................|.......................|.......................|.......................|.......................|.......................|
.......................|.......................|.......................|.......................|.......................|.......................|.......................|.......................|.......................|.......................|
.......................|.......................|.......................|.......................|.......................|.......................|.......................|.......................|.......................|.......................|
.......................|.......................|.......................|.......................|.......................|.......................|.......................|.......................|.......................|.......................|
.......................|.......................|.......................|.......................|.......................|.......................|F-3....................|.......................|.......................|.......................|
.......................|.......................|.......................|.......................|.......................|.......................|.......................|.......................|.......................|.......................|
.......................|.......................|.......................|.......................|.......................|.......................|.......................|.......................|.......................|.......................|
.......................|.......................|.......................|.......................|.......................|.......................|.......................|.......................|.......................|.......................|
.......................|.......................|.......................|.......................|.......................|.......................|.......................|.......................|.......................|.......................|
.......................|.......................|.......................|.......................|.......................|.......................|.......................|.......................|.......................|.......................|
.......................|.......................|.......................|F#5....................|C-0....................|.......................|.......................|.......................|.......................|.......................|
.......................|.......................|.......................|.......................|.......................|.......................|.......................|.......................|.......................|.......................|
.......................|.......................|.......................|.......................|.......................|.......................|.......................|.......................|.......................|.......................|
.......................|.......................|.......................|.......................|.......................|.......................|.......................|.......................|.......................|.......................|
.......................|.......................|.......................|.......................|.......................|.......................|.......................|.......................|.......................|.......................|
.......................|.......................|.......................|.......................|.......................|.......................|.......................|.......................|.......................|.......................|
.......................|.......................|.......................|.......................|.......................|.......................|A-3....................|.......................|.......................|.......................|
.......................|.......................|.......................|.......................|.......................|.......................|.......................|.......................|.......................|.......................|
.......................|.......................|.......................|.......................|.......................|.......................|.......................|.......................|.......................|.......................|
.......................|C-0....................|.......................|.......................|.......................|.......................|.......................|.......................|.......................|.......................|
.......0452............|F#3....0400............|.......0452............|.......................|.......................|.......................|.......................|.......................|.......................|.......................|
.......................|.......................|.......................|.......................|.......................|.......................|.......................|.......................|.......................|.......................|
.......................|.......................|.......................|D-5....................|F#5....................|.......................|.......................|.......................|.......................|.......................|
.......................|.......................|.......................|.......................|.......................|.......................|.......................|.......................|.......................|.......................|
.......................|.......................|.......................|.......................|.......................|.......................|.......................|.......................|.......................|.......................|
.......................|.......................|.......................|.......................|.......................|.......................|.......................|.......................|.......................|.......................|
.......................|.......................|.......................|.......................|.......................|.......................|.......................|.......................|.......................|.......................|
.......................|.......................|.......................|.......................|.......................|.......................|.......................|.......................|.......................|.......................|
.......................|.......................|.......................|.......................|.......................|.......................|F#3....................|.......................|.......................|.......................|
.......................|.......................|.......................|.......................|.......................|.......................|.......................|.......................|.......................|.......................|
.......................|.......................|.......................|.......................|.......................|.......................|.......................|.......................|.......................|.......................|
.......................|.......................|.......................|.......................|.......................|.......................|.......................|.......................|.......................|.......................|
.......................|.......................|.......................|.......................|.......................|.......................|.......................|.......................|.......................|.......................|
.......................|.......................|.......................|.......................|.......................|.......................|.......................|.......................|.......................|.......................|
.......................|.......................|.......................|C#5....................|D-5....................|.......................|.......................|.......................|.......................|.......................|
.......................|.......................|.......................|.......................|.......................|.......................|.......................|.......................|.......................|.......................|
.......................|.......................|.......................|.......................|.......................|.......................|.......................|.......................|.......................|.......................|
.......................|.......................|.......................|.......................|.......................|.......................|.......................|.......................|.......................|.......................|
.......................|.......................|.......................|.......................|.......................|.......................|.......................|.......................|.......................|.......................|
.......................|.......................|.......................|.......................|.......................|.......................|.......................|.......................|.......................|.......................|
.......................|.......................|.......................|.......................|.......................|.......................|D-3....................|.......................|.......................|.......................|
.......................|.......................|.......................|.......................|.......................|.......................|.......................|.......................|.......................|.......................|
.......................|.......................|.......................|.......................|.......................|.......................|.......................|.......................|.......................|.......................|
.......................|.......................|.......................|.......................|.......................|.......................|.......................|.......................|.......................|.......................|
.......................|.......0452............|.......................|.......................|.......................|.......................|.......................|.......................|.......................|.......................|
.......................|.......................|.......................|.......................|.......................|.......................|.......................|.......................|.......................|.......................|
.......................|.......................|.......................|A-4....................|C#5....................|.......................|.......................|.......................|.......................|.......................|
.......................|.......................|.......................|.......................|.......................|.......................|.......................|.......................|.......................|.......................|
.......................|.......................|.......................|.......................|.......................|.......................|.......................|.......................|.......................|.......................|
.......................|.......................|.......................|.......................|.......................|.......................|.......................|.......................|.......................|.......................|
.......................|.......................|.......................|.......................|.......................|.......................|.......................|.......................|.......................|.......................|
.......................|.......................|.......................|.......................|.......................|.......................|.......................|.......................|.......................|.......................|
.......................|.......................|.......................|.......................|.......................|.......................|C#3....................|.......................|.......................|.......................|
.......................|.......................|.......................|.......................|.......................|.......................|.......................|.......................|.......................|.......................|
.......................|.......................|.......................|.......................|.......................|.......................|.......................|.......................|.......................|.......................|
.......................|.......................|.......................|.......................|.......................|.......................|.......................|.......................|.......................|.......................|
.......................|.......................|.......................|.......................|.......................|.......................|.......................|.......................|.......................|.......................|
.......................|.......................|.......................|.......................|.......................|.......................|.......................|.......................|.......................|.......................|
.......................|.......................|.......................|F#4....................|A-4....................|.......................|.......................|.......................|.......................|.......................|
.......................|.......................|.......................|.......................|.......................|.......................|.......................|.......................|.......................|.......................|
.......................|.......................|.......................|.......................|.......................|.......................|.......................|.......................|.......................|.......................|
.......................|.......................|.......................|.......................|.......................|.......................|.......................|.......................|.......................|.......................|
.......................|.......................|.......................|.......................|.......................|.......................|.......................|.......................|.......................|.......................|
.......................|.......................|.......................|.......................|.......................|.......................|.......................|.......................|.......................|.......................|
.......................|.......................|.......................|.......................|.......................|.......................|A-2....................|.......................|.......................|.......................|
.......................|.......................|.......................|.......................|.......................|.......................|.......................|.......................|.......................|.......................|
.......................|.......................|.......................|.......................|.......................|.......................|.......................|.......................|.......................|.......................|
.......................|.......................|.......................|.......................|.......................|.......................|.......................|.......................|.......................|.......................|
.......................|.......................|.......................|.......................|.......................|.......................|.......................|.......................|.......................|.......................|
.......................|.......................|.......................|.......................|.......................|.......................|.......................|.......................|.......................|.......................|
.......................|.......................|.......................|D-4....................|F#4....................|.......................|.......................|.......................|.......................|.......................|
.......................|.......................|.......................|.......................|.......................|.......................|.......................|.......................|.......................|.......................|
.......................|.......................|.......................|.......................|.......................|.......................|.......................|.......................|.......................|.......................|
.......................|.......................|.......................|.......................|.......................|.......................|.......................|.......................|.......................|.......................|
.......................|.......................|.......................|.......................|.......................|.......................|.......................|.......................|.......................|.......................|
.......................|.......................|.......................|.......................|.......................|.......................|.......................|.......................|.......................|.......................|
.......................|.......................|.......................|.......................|.......................|.......................|F#2....................|.......................|.......................|.......................|
.......................|.......................|.......................|.......................|.......................|.......................|.......................|.......................|.......................|.......................|
.......................|.......................|.......................|.......................|.......................|.......................|.......................|.......................|.......................|.......................|
.......................|.......................|.......................|.......................|.......................|.......................|.......................|.......................|.......................|.......................|
.......................|.......................|.......................|.......................|.......................|.......................|.......................|.......................|.......................|.......................|
.......................|.......................|.......................|.......................|.......................|.......................|.......................|.......................|.......................|.......................|
.......................|.......................|.......................|C#4....................|D-4....................|.......................|.......................|.......................|.......................|.......................|
.......................|.......................|.......................|.......................|.......................|.......................|.......................|.......................|.......................|.......................|
.......................|.......................|.......................|.......................|.......................|.......................|.......................|.......................|.......................|.......................|
.......................|.......................|.......................|.......................|.......................|.......................|.......................|.......................|.......................|.......................|
.......................|.......................|.......................|.......................|.......................|.......................|.......................|.......................|.......................|.......................|
.......................|.......................|.......................|.......................|.......................|.......................|.......................|.......................|.......................|.......................|
.......................|.......................|.......................|.......................|.......................|.......................|D-2....................|.......................|.......................|.......................|
.......................|.......................|.......................|.......................|.......................|.......................|.......................|.......................|.......................|.......................|
.......................|.......................|.......................|.......................|.......................|.......................|.......................|.......................|.......................|.......................|
C-0....................|.......................|C-0....................|.......................|.......................|.......................|.......................|.......................|.......................|.......................|
F#3....0400............|.......................|D-3....0400............|.......................|.......................|.......................|.......................|.......................|.......................|.......................|
.......................|.......................|.......................|.......................|.......................|.......................|.......................|.......................|.......................|.......................|
.......................|.......................|.......................|A-3....................|C#4....................|.......................|.......................|.......................|.......................|.......................|
.......................|.......................|.......................|.......................|.......................|.......................|.......................|.......................|.......................|.......................|
.......................|.......................|.......................|.......................|.......................|.......................|.......................|.......................|.......................|.......................|
.......................|.......................|.......................|.......................|.......................|.......................|.......................|.......................|.......................|.......................|
.......................|.......................|.......................|.......................|.......................|.......................|.......................|.......................|.......................|.......................|
.......................|.......................|.......................|.......................|.......................|.......................|.......................|.......................|.......................|.......................|
.......................|.......................|.......................|.......................|.......................|.......................|C#2....................|.......................|.......................|.......................|
.......................|.......................|.......................|.......................|.......................|.......................|.......................|.......................|.......................|.......................|
.......................|.......................|.......................|.......................|.......................|.......................|.......................|.......................|.......................|.......................|
.......................|.......................|.......................|.......................|.......................|.......................|.......................|.......................|.......................|.......................|
.......................|.......................|.......................|.......................|.......................|.......................|.......................|.......................|.......................|.......................|
.......................|.......................|.......................|.......................|.......................|.......................|.......................|.......................|.......................|.......................|
.......................|.......................|.......................|F#3....................|A-3....................|.......................|.......................|.......................|.......................|.......................|
.......................|.......................|.......................|.......................|.......................|.......................|.......................|.......................|.......................|.......................|
.......................|.......................|.......................|.......................|.......................|.......................|.......................|.......................|.......................|.......................|
.......................|.......................|.......................|.......................|.......................|.......................|.......................|.......................|.......................|.......................|
.......................|.......................|.......................|.......................|.......................|.......................|.......................|.......................|.......................|.......................|
.......................|.......................|.......................|.......................|.......................|.......................|.......................|.......................|.......................|.......................|
.......................|.......................|.......................|.......................|.......................|.......................|A-1....................|.......................|.......................|.......................|
.......................|.......................|.......................|.......................|.......................|.......................|.......................|.......................|.......................|.......................|
.......................|.......................|.......................|.......................|.......................|.......................|.......................|.......................|.......................|.......................|
.......................|C-0....................|.......................|.......................|.......................|.......................|.......................|.......................|.......................|.......................|
.......0452............|F#3....0400............|.......0452............|.......................|.......................|.......................|.......................|.......................|.......................|.......................|
.......................|.......................|.......................|.......................|.......................|.......................|.......................|.......................|.......................|.......................|
.......................|.......................|.......................|D-3....................|F#3....................|.......................|.......................|.......................|.......................|.......................|
.......................|.......................|.......................|.......................|.......................|.......................|.......................|.......................|.......................|.......................|
.......................|.......................|.......................|.......................|.......................|.......................|.......................|.......................|.......................|.......................|
.......................|.......................|.......................|.......................|.......................|.......................|.......................|.......................|.......................|.......................|
.......................|.......................|.......................|.......................|.......................|.......................|.......................|.......................|.......................|.......................|
.......................|.......................|.......................|.......................|.......................|.......................|.......................|.......................|.......................|.......................|
.......................|.......................|.......................|.......................|.......................|.......................|F#1....................|.......................|.......................|.......................|
.......................|.......................|.......................|.......................|.......................|.......................|.......................|.......................|.......................|.......................|
.......................|.......................|.......................|.......................|.......................|.......................|.......................|.......................|.......................|.......................|
.......................|.......................|.......................|.......................|.......................|.......................|.......................|.......................|.......................|.......................|
.......................|.......................|.......................|.......................|.......................|.......................|.......................|.......................|.......................|.......................|
.......................|.......................|.......................|.......................|.......................|.......................|.......................|.......................|.......................|.......................|
.......................|.......................|.......................|C#3....................|D-3....................|.......................|.......................|.......................|.......................|.......................|
.......................|.......................|.......................|.......................|.......................|.......................|.......................|.......................|.......................|.......................|
.......................|.......................|.......................|.......................|.......................|.......................|.......................|.......................|.......................|.......................|
.......................|.......................|.......................|.......................|.......................|.......................|.......................|.......................|.......................|.......................|
.......................|.......................|.......................|.......................|.......................|.......................|.......................|.......................|.......................|.......................|
.......................|.......................|.......................|.......................|.......................|.......................|.......................|.......................|.......................|.......................|
.......................|.......................|.......................|.......................|.......................|.......................|D-1....................|.......................|.......................|.......................|
.......................|.......................|.......................|.......................|.......................|.......................|.......................|.......................|.......................|.......................|
.......................|.......................|.......................|.......................|.......................|.......................|.......................|.......................|.......................|.......................|
.......................|.......................|.......................|.......................|.......................|.......................|.......................|.......................|.......................|.......................|
.......................|.......0452............|.......................|.......................|.......................|.......................|.......................|.......................|.......................|.......................|
.......................|.......................|.......................|.......................|.......................|.......................|.......................|.......................|.......................|.......................|
.......................|.......................|.......................|E-3....................|C#3....................|.......................|.......................|.......................|.......................|.......................|
.......................|.......................|.......................|.......................|.......................|.......................|.......................|.......................|.......................|.......................|
.......................|.......................|.......................|.......................|.......................|.......................|.......................|.......................|.......................|.......................|
.......................|.......................|.......................|.......................|.......................|.......................|.......................|.......................|.......................|.......................|
.......................|.......................|.......................|.......................|.......................|.......................|.......................|.......................|.......................|.......................|
.......................|.......................|.......................|.......................|.......................|.......................|.......................|.......................|.......................|.......................|
.......................|.......................|.......................|.......................|.......................|.......................|C#1....................|.......................|.......................|.......................|
.......................|.......................|.......................|.......................|.......................|.......................|.......................|.......................|.......................|.......................|
.......................|.......................|.......................|.......................|.......................|.......................|.......................|.......................|.......................|.......................|
.......................|.......................|.......................|.......................|.......................|.......................|.......................|.......................|.......................|.......................|
.......................|.......................|.......................|.......................|.......................|.......................|.......................|.......................|.......................|.......................|
.......................|.......................|.......................|.......................|.......................|.......................|.......................|.......................|.......................|.......................|
.......................|.......................|.......................|D-3....................|E-3....................|.......................|.......................|.......................|.......................|.......................|
.......................|.......................|.......................|.......................|.......................|.......................|.......................|.......................|.......................|.......................|
.......................|.......................|.......................|.......................|.......................|.......................|.......................|.......................|.......................|.......................|
.......................|.......................|.......................|.......................|.......................|.......................|.......................|.......................|.......................|.......................|
.......................|.......................|.......................|.......................|.......................|.......................|.......................|.......................|.......................|.......................|
.......................|.......................|.......................|.......................|.......................|.......................|.......................|.......................|.......................|.......................|
.......................|.......................|.......................|.......................|.......................|.......................|E-1....................|.......................|.......................|.......................|
.......................|.......................|.......................|.......................|.......................|.......................|.......................|.......................|.......................|.......................|
.......................|.......................|.......................|.......................|.......................|.......................|.......................|.......................|.......................|.......................|
.......................|.......................|.......................|.......................|.......................|.......................|.......................|.......................|.......................|.......................|
.......................|.......................|.......................|.......................|.......................|.......................|.......................|.......................|.......................|.......................|
.......................|.......................|.......................|.......................|.......................|.......................|.......................|.......................|.......................|.......................|
.......................|.......................|.......................|F#3....................|D-3....................|.......................|.......................|.......................|.......................|.......................|
.......................|.......................|.......................|.......................|.......................|.......................|.......................|.......................|.......................|.......................|
.......................|.......................|.......................|.......................|.......................|.......................|.......................|.......................|.......................|.......................|
.......................|.......................|.......................|.......................|.......................|.......................|.......................|.......................|.......................|.......................|
.......................|.......................|.......................|.......................|.......................|.......................|.......................|.......................|.......................|.......................|
.......................|.......................|.......................|.......................|.......................|.......................|.......................|.......................|.......................|.......................|
.......................|.......................|.......................|.......................|.......................|.......................|D-1....................|.......................|.......................|.......................|
.......................|.......................|.......................|.......................|.......................|.......................|.......................|.......................|.......................|.......................|
.......................|.......................|.......................|.......................|.......................|.......................|.......................|.......................|.......................|.......................|
.......................|.......................|.......................|.......................|.......................|.......................|.......................|.......................|.......................|.......................|
.......................|.......................|.......................|.......................|.......................|.......................|.......................|.......................|.......................|.......................|
.......................|.......................|.......................|.......................|.......................|.......................|.......................|.......................|.......................|.......................|
.......................|.......................|.......................|E-3....................|F#3....................|.......................|.......................|.......................|.......................|.......................|
.......................|.......................|.......................|.......................|.......................|.......................|.......................|.......................|.......................|.......................|
.......................|.......................|.......................|.......................|.......................|.......................|.......................|.......................|.......................|.......................|
.......................|.......................|.......................|.......................|.......................|.......................|.......................|.......................|.......................|.......................|
.......................|.......................|.......................|.......................|.......................|.......................|.......................|.......................|.......................|.......................|
.......................|.......................|.......................|.......................|.......................|.......................|.......................|.......................|.......................|.......................|
.......................|.......................|.......................|.......................|.......................|.......................|F#1....................|.......................|.......................|.......................|
.......................|.......................|.......................|.......................|.......................|.......................|.......................|.......................|.......................|.......................|
.......................|.......................|.......................|.......................|.......................|.......................|.......................|.......................|.......................|.......................|
C-0....................|.......................|C-0....................|.......................|.......................|.......................|.......................|.......................|.......................|.......................|
G-3....0400............|.......................|D-3....0400............|.......................|.......................|.......................|.......................|.......................|.......................|.......................|
.......................|.......................|.......................|.......................|.......................|.......................|.......................|.......................|.......................|.......................|
.......................|.......................|.......................|G-3....................|E-3....................|.......................|.......................|.......................|.......................|.......................|
.......................|.......................|.......................|.......................|.......................|.......................|.......................|.......................|.......................|.......................|
.......................|.......................|.......................|.......................|.......................|.......................|.......................|.......................|.......................|.......................|
.......................|.......................|.......................|.......................|.......................|.......................|.......................|.......................|.......................|.......................|
.......................|.......................|.......................|.......................|.......................|.......................|.......................|.......................|.......................|.......................|
.......................|.......................|.......................|.......................|.......................|.......................|.......................|.......................|.......................|.......................|
.......................|.......................|.......................|.......................|.......................|.......................|E-1....................|.......................|.......................|.......................|
.......................|.......................|.......................|.......................|.......................|.......................|.......................|.......................|.......................|.......................|
.......................|.......................|.......................|.......................|.......................|.......................|.......................|.......................|.......................|.......................|
.......................|.......................|.......................|.......................|.......................|.......................|.......................|.......................|.......................|.......................|
.......................|.......................|.......................|.......................|.......................|.......................|.......................|.......................|.......................|.......................|
.......................|.......................|.......................|.......................|.......................|.......................|.......................|.......................|.......................|.......................|
.......................|.......................|.......................|A#3....................|G-3....................|.......................|.......................|.......................|.......................|.......................|
.......................|.......................|.......................|.......................|.......................|.......................|.......................|.......................|.......................|.......................|
.......................|.......................|.......................|.......................|.......................|.......................|.......................|.......................|.......................|.......................|
.......................|.......................|.......................|.......................|.......................|.......................|.......................|.......................|.......................|.......................|
.......................|.......................|.......................|.......................|.......................|.......................|.......................|.......................|.......................|.......................|
.......................|.......................|.......................|.......................|.......................|.......................|.......................|.......................|.......................|.......................|
.......................|.......................|.......................|.......................|.......................|.......................|G-1....................|.......................|.......................|.......................|
.......................|.......................|.......................|.......................|.......................|.......................|.......................|.......................|.......................|.......................|
.......................|.......................|.......................|.......................|.......................|.......................|.......................|.......................|.......................|.......................|
.......................|C-0....................|.......................|.......................|.......................|.......................|.......................|.......................|.......................|.......................|
.......0452............|G-3....0400............|.......0452............|.......................|.......................|.......................|.......................|.......................|.......................|.......................|
.......................|.......................|.......................|.......................|.......................|.......................|.......................|.......................|.......................|.......................|
.......................|.......................|.......................|D-4....................|A#3....................|.......................|.......................|.......................|.......................|.......................|
.......................|.......................|.......................|.......................|.......................|.......................|.......................|.......................|.......................|.......................|
.......................|.......................|.......................|.......................|.......................|.......................|.......................|.......................|.......................|.......................|
.......................|.......................|.......................|.......................|.......................|.......................|.......................|.......................|.......................|.......................|
.......................|.......................|.......................|.......................|.......................|.......................|.......................|.......................|.......................|.......................|
.......................|.......................|.......................|.......................|.......................|.......................|.......................|.......................|.......................|.......................|
.......................|.......................|.......................|.......................|.......................|.......................|A#1....................|.......................|.......................|.......................|
.......................|.......................|.......................|.......................|.......................|.......................|.......................|.......................|.......................|.......................|
.......................|.......................|.......................|.......................|.......................|.......................|.......................|.......................|.......................|.......................|
.......................|.......................|.......................|.......................|.......................|.......................|.......................|.......................|.......................|.......................|
.......................|.......................|.......................|.......................|.......................|.......................|.......................|.......................|.......................|.......................|
.......................|.......................|.......................|.......................|.......................|.......................|.......................|.......................|.......................|.......................|
.......................|.......................|.......................|E-4....................|D-4....................|.......................|.......................|.......................|.......................|.......................|
.......................|.......................|.......................|.......................|.......................|.......................|.......................|.......................|.......................|.......................|
.......................|.......................|.......................|.......................|.......................|.......................|.......................|.......................|.......................|.......................|
.......................|.......................|.......................|.......................|.......................|.......................|.......................|.......................|.......................|.......................|
.......................|.......................|.......................|.......................|.......................|.......................|.......................|.......................|.......................|.......................|
.......................|.......................|.......................|.......................|.......................|.......................|.......................|.......................|.......................|.......................|
.......................|.......................|.......................|.......................|.......................|.......................|D-2....................|.......................|.......................|.......................|
.......................|.......................|.......................|.......................|.......................|.......................|.......................|.......................|.......................|.......................|
.......................|.......................|.......................|.......................|.......................|.......................|.......................|.......................|.......................|.......................|
.......................|.......................|.......................|.......................|.......................|.......................|.......................|.......................|.......................|.......................|
.......................|.......0452............|.......................|.......................|.......................|.......................|.......................|.......................|.......................|.......................|
.......................|.......................|.......................|.......................|.......................|.......................|.......................|.......................|.......................|.......................|
.......................|.......................|.......................|G-4....................|E-4....................|.......................|.......................|.......................|.......................|.......................|
.......................|.......................|.......................|.......................|.......................|.......................|.......................|.......................|.......................|.......................|
.......................|.......................|.......................|.......................|.......................|.......................|.......................|.......................|.......................|.......................|
.......................|.......................|.......................|.......................|.......................|.......................|.......................|.......................|.......................|.......................|
.......................|.......................|.......................|.......................|.......................|.......................|.......................|.......................|.......................|.......................|
.......................|.......................|.......................|.......................|.......................|.......................|.......................|.......................|.......................|.......................|
.......................|.......................|.......................|.......................|.......................|.......................|E-2....................|.......................|.......................|.......................|
.......................|.......................|.......................|.......................|.......................|.......................|.......................|.......................|.......................|.......................|
.......................|.......................|.......................|.......................|.......................|.......................|.......................|.......................|.......................|.......................|
.......................|.......................|.......................|.......................|.......................|.......................|.......................|.......................|.......................|.......................|
.......................|.......................|.......................|.......................|.......................|.......................|.......................|.......................|.......................|.......................|
.......................|.......................|.......................|.......................|.......................|.......................|.......................|.......................|.......................|.......................|
.......................|.......................|.......................|F#4....................|G-4....................|.......................|.......................|.......................|.......................|.......................|
.......................|.......................|.......................|.......................|.......................|.......................|.......................|.......................|.......................|.......................|
org.tildearrow.furnace - Pattern Data (219)
0
.......................|.......................|.......................|.......................|.......................|.......................|.......................|.......................|.......................|.......................|
.......................|.......................|.......................|.......................|.......................|.......................|.......................|.......................|.......................|.......................|
.......................|.......................|.......................|.......................|.......................|.......................|.......................|.......................|.......................|.......................|
.......................|.......................|.......................|.......................|.......................|.......................|.......................|.......................|.......................|.......................|
.......................|.......................|.......................|.......................|.......................|.......................|G-2....................|.......................|.......................|.......................|
.......................|.......................|.......................|.......................|.......................|.......................|.......................|.......................|.......................|.......................|
.......................|.......................|.......................|.......................|.......................|.......................|.......................|.......................|.......................|.......................|
.......................|.......................|.......................|.......................|.......................|.......................|.......................|.......................|.......................|.......................|
.......................|.......................|.......................|.......................|.......................|.......................|.......................|.......................|.......................|.......................|
.......................|.......................|.......................|.......................|.......................|.......................|.......................|.......................|.......................|.......................|
.......................|.......................|.......................|E-4....................|F#4....................|.......................|.......................|.......................|.......................|.......................|
.......................|.......................|.......................|.......................|.......................|.......................|.......................|.......................|.......................|.......................|
.......................|.......................|.......................|.......................|.......................|.......................|.......................|.......................|.......................|.......................|
.......................|.......................|.......................|.......................|.......................|.......................|.......................|.......................|.......................|.......................|
.......................|.......................|.......................|.......................|.......................|.......................|.......................|.......................|.......................|.......................|
.......................|.......................|.......................|.......................|.......................|.......................|.......................|.......................|.......................|.......................|
.......................|.......................|.......................|.......................|.......................|.......................|F#2....................|.......................|.......................|.......................|
.......................|.......................|.......................|.......................|.......................|.......................|.......................|.......................|.......................|.......................|
.......................|.......................|.......................|.......................|.......................|.......................|.......................|.......................|.......................|.......................|
.......................|.......................|.......................|.......................|.......................|.......................|.......................|.......................|.......................|.......................|
.......................|.......................|.......................|.......................|.......................|.......................|.......................|.......................|.......................|.......................|
.......................|.......................|.......................|.......................|.......................|.......................|.......................|.......................|.......................|.......................|
.......................|.......................|.......................|D-4....................|E-4....................|.......................|.......................|.......................|.......................|.......................|
.......................|.......................|.......................|.......................|.......................|.......................|.......................|.......................|.......................|.......................|
.......................|.......................|.......................|.......................|.......................|.......................|.......................|.......................|.......................|.......................|
.......................|.......................|.......................|.......................|.......................|.......................|.......................|.......................|.......................|.......................|
.......................|.......................|.......................|.......................|.......................|.......................|.......................|.......................|.......................|.......................|
.......................|.......................|.......................|.......................|.......................|.......................|.......................|.......................|.......................|.......................|
.......................|.......................|.......................|.......................|.......................|.......................|E-2....................|.......................|.......................|.......................|
.......................|.......................|.......................|.......................|.......................|.......................|.......................|.......................|.......................|.......................|
.......................|.......................|.......................|.......................|.......................|.......................|.......................|.......................|.......................|.......................|
C-0....................|.......................|C-0....................|.......................|.......................|.......................|.......................|.......................|.......................|.......................|
G-3....0400............|.......................|D-3....0400............|.......................|.......................|.......................|.......................|.......................|.......................|.......................|
.......................|.......................|.......................|.......................|.......................|.......................|.......................|.......................|.......................|.......................|
.......................|.......................|.......................|G-4....................|D-4....................|.......................|.......................|.......................|.......................|.......................|
.......................|.......................|.......................|.......................|.......................|.......................|.......................|.......................|.......................|.......................|
.......................|.......................|.......................|.......................|.......................|.......................|.......................|.......................|.......................|.......................|
.......................|.......................|.......................|.......................|.......................|.......................|.......................|.......................|.......................|.......................|
.......................|.......................|.......................|.......................|.......................|.......................|.......................|.......................|.......................|.......................|
.......................|.......................|.......................|.......................|.......................|.......................|.......................|.......................|.......................|.......................|
.......................|.......................|.......................|.......................|.......................|.......................|D-2....................|.......................|.......................|.......................|
.......................|.......................|.......................|.......................|.......................|.......................|.......................|.......................|.......................|.......................|
.......................|.......................|.......................|.......................|.......................|.......................|.......................|.......................|.......................|.......................|
.......................|.......................|.......................|.......................|.......................|.......................|.......................|.......................|.......................|.......................|
.......................|.......................|.......................|.......................|.......................|.......................|.......................|.......................|.......................|.......................|
.......................|.......................|.......................|.......................|.......................|.......................|.......................|.......................|.......................|.......................|
.......................|.......................|.......................|A#4....................|G-4....................|.......................|.......................|.......................|.......................|.......................|
.......................|.......................|.......................|.......................|.......................|.......................|.......................|.......................|.......................|.......................|
.......................|.......................|.......................|.......................|.......................|.......................|.......................|.......................|.......................|.......................|
.......................|.......................|.......................|.......................|.......................|.......................|.......................|.......................|.......................|.......................|
.......................|.......................|.......................|.......................|.......................|.......................|.......................|.......................|.......................|.......................|
.......................|.......................|.......................|.......................|.......................|.......................|.......................|.......................|.......................|.......................|
.......................|.......................|.......................|.......................|.......................|.......................|G-2....................|.......................|.......................|.......................|
.......................|.......................|.......................|.......................|.......................|.......................|.......................|.......................|.......................|.......................|
.......................|.......................|.......................|.......................|.......................|.......................|.......................|.......................|.......................|.......................|
.......................|C-0....................|.......................|.......................|.......................|.......................|.......................|.......................|.......................|.......................|
.......0452............|G-3....0400............|.......0452............|.......................|.......................|.......................|.......................|.......................|.......................|.......................|
.......................|.......................|.......................|.......................|.......................|.......................|.......................|.......................|.......................|.......................|
.......................|.......................|.......................|D-5....................|A#4....................|.......................|.......................|.......................|.......................|.......................|
.......................|.......................|.......................|.......................|.......................|.......................|.......................|.......................|.......................|.......................|
.......................|.......................|.......................|.......................|.......................|.......................|.......................|.......................|.......................|.......................|
.......................|.......................|.......................|.......................|.......................|.......................|.......................|.......................|.......................|.......................|
.......................|.......................|.......................|.......................|.......................|.......................|.......................|.......................|.......................|.......................|
.......................|.......................|.......................|.......................|.......................|.......................|.......................|.......................|.......................|.......................|
.......................|.......................|.......................|.......................|.......................|.......................|A#2....................|.......................|.......................|.......................|
.......................|.......................|.......................|.......................|.......................|.......................|.......................|.......................|.......................|.......................|
.......................|.......................|.......................|.......................|.......................|.......................|.......................|.......................|.......................|.......................|
.......................|.......................|.......................|.......................|.......................|.......................|.......................|.......................|.......................|.......................|
.......................|.......................|.......................|.......................|.......................|.......................|.......................|.......................|.......................|.......................|
.......................|.......................|.......................|.......................|.......................|.......................|.......................|.......................|.......................|.......................|
.......................|.......................|.......................|E-5....................|D-5....................|.......................|.......................|.......................|.......................|.......................|
.......................|.......................|.......................|.......................|.......................|.......................|.......................|.......................|.......................|.......................|
.......................|.......................|.......................|.......................|.......................|.......................|.......................|.......................|.......................|.......................|
.......................|.......................|.......................|.......................|.......................|.......................|.......................|.......................|.......................|.......................|
.......................|.......................|.......................|.......................|.......................|.......................|.......................|.......................|.......................|.......................|
.......................|.......................|.......................|.......................|.......................|.......................|.......................|.......................|.......................|.......................|
.......................|.......................|.......................|.......................|.......................|.......................|D-3....................|.......................|.......................|.......................|
.......................|.......................|.......................|.......................|.......................|.......................|.......................|.......................|.......................|.......................|
.......................|.......................|.......................|.......................|.......................|.......................|.......................|.......................|.......................|.......................|
.......................|.......................|.......................|.......................|.......................|.......................|.......................|.......................|.......................|.......................|
.......................|.......0452............|.......................|.......................|.......................|.......................|.......................|.......................|.......................|.......................|
.......................|.......................|.......................|.......................|.......................|.......................|.......................|.......................|.......................|.......................|
.......................|.......................|.......................|G-5....................|E-5....................|.......................|.......................|.......................|.......................|.......................|
.......................|.......................|.......................|.......................|.......................|.......................|.......................|.......................|.......................|.......................|
.......................|.......................|.......................|.......................|.......................|.......................|.......................|.......................|.......................|.......................|
.......................|.......................|.......................|.......................|.......................|.......................|.......................|.......................|.......................|.......................|
.......................|.......................|.......................|.......................|.......................|.......................|.......................|.......................|.......................|.......................|
.......................|.......................|.......................|.......................|.......................|.......................|.......................|.......................|.......................|.......................|
.......................|.......................|.......................|.......................|.......................|.......................|E-3....................|.......................|.......................|.......................|
.......................|.......................|.......................|.......................|.......................|.......................|.......................|.......................|.......................|.......................|
.......................|.......................|.......................|.......................|.......................|.......................|.......................|.......................|.......................|.......................|
.......................|.......................|.......................|.......................|.......................|.......................|.......................|.......................|.......................|.......................|
.......................|.......................|.......................|.......................|.......................|.......................|.......................|.......................|.......................|.......................|
.......................|.......................|.......................|.......................|.......................|.......................|.......................|.......................|.......................|.......................|
.......................|.......................|.......................|F#5....................|G-5....................|.......................|.......................|.......................|.......................|.......................|
.......................|.......................|.......................|.......................|.......................|.......................|.......................|.......................|.......................|.......................|
.......................|.......................|.......................|.......................|.......................|.......................|.......................|.......................|.......................|.......................|
.......................|.......................|.......................|.......................|.......................|.......................|.......................|.......................|.......................|.......................|
.......................|.......................|.......................|.......................|.......................|.......................|.......................|.......................|.......................|.......................|
.......................|.......................|.......................|.......................|.......................|.......................|.......................|.......................|.......................|.......................|
.......................|.......................|.......................|.......................|.......................|.......................|G-3....................|.......................|.......................|.......................|
.......................|.......................|.......................|.......................|.......................|.......................|.......................|.......................|.......................|.......................|
.......................|.......................|.......................|.......................|.......................|.......................|.......................|.......................|.......................|.......................|
.......................|.......................|.......................|.......................|.......................|.......................|.......................|.......................|.......................|.......................|
.......................|.......................|.......................|.......................|.......................|.......................|.......................|.......................|.......................|.......................|
.......................|.......................|.......................|.......................|.......................|.......................|.......................|.......................|.......................|.......................|
.......................|.......................|.......................|E-5....................|F#5....................|.......................|.......................|.......................|.......................|.......................|
.......................|.......................|.......................|.......................|.......................|.......................|.......................|.......................|.......................|.......................|
.......................|.......................|.......................|.......................|.......................|.......................|.......................|.......................|.......................|.......................|
.......................|.......................|.......................|.......................|.......................|.......................|.......................|.......................|.......................|.......................|
.......................|.......................|.......................|.......................|.......................|.......................|.......................|.......................|.......................|.......................|
.......................|.......................|.......................|.......................|.......................|.......................|.......................|.......................|.......................|.......................|
.......................|.......................|.......................|.......................|.......................|.......................|F#3....................|.......................|.......................|.......................|
.......................|.......................|.......................|.......................|.......................|.......................|.......................|.......................|.......................|.......................|
.......................|.......................|.......................|.......................|.......................|.......................|.......................|.......................|.......................|.......................|
.......................|.......................|.......................|.......................|.......................|.......................|.......................|.......................|.......................|.......................|
.......................|.......................|.......................|.......................|.......................|.......................|.......................|.......................|.......................|.......................|
.......................|.......................|.......................|.......................|.......................|.......................|.......................|.......................|.......................|.......................|
.......................|.......................|.......................|D-5....................|E-5....................|.......................|.......................|.......................|.......................|.......................|
.......................|.......................|.......................|.......................|.......................|.......................|.......................|.......................|.......................|.......................|
.......................|.......................|.......................|.......................|.......................|.......................|.......................|.......................|.......................|.......................|
.......................|.......................|.......................|.......................|.......................|.......................|.......................|.......................|.......................|.......................|
.......................|.......................|.......................|.......................|.......................|.......................|.......................|.......................|.......................|.......................|
.......................|.......................|.......................|.......................|.......................|.......................|.......................|.......................|.......................|.......................|
.......................|.......................|.......................|.......................|.......................|.......................|E-3....................|.......................|.......................|.......................|
.......................|.......................|.......................|.......................|.......................|.......................|.......................|.......................|.......................|.......................|
.......................|.......................|.......................|.......................|.......................|.......................|.......................|.......................|.......................|.......................|
C-0....................|.......................|C-0....................|.......................|.......................|.......................|.......................|.......................|.......................|.......................|
D-3....0400............|.......................|A#2....0400............|.......................|.......................|.......................|.......................|.......................|.......................|.......................|
.......................|.......................|.......................|.......................|.......................|.......................|.......................|.......................|.......................|.......................|
.......................|.......................|.......................|C-0....................|D-5....................|.......................|.......................|.......................|.......................|.......................|
.......................|.......................|.......................|.......................|.......................|.......................|.......................|.......................|.......................|.......................|
.......................|.......................|.......................|.......................|.......................|.......................|.......................|.......................|.......................|.......................|
.......................|.......................|.......................|.......................|.......................|.......................|.......................|.......................|.......................|.......................|
.......................|.......................|.......................|.......................|.......................|.......................|.......................|.......................|.......................|.......................|
.......................|.......................|.......................|.......................|.......................|.......................|.......................|.......................|.......................|.......................|
.......................|.......................|.......................|.......................|.......................|.......................|D-3....................|.......................|.......................|.......................|
.......................|.......................|.......................|.......................|.......................|.......................|.......................|.......................|.......................|.......................|
.......................|.......................|.......................|.......................|.......................|.......................|.......................|.......................|.......................|.......................|
.......................|.......................|.......................|.......................|.......................|.......................|.......................|.......................|.......................|.......................|
.......................|.......................|.......................|.......................|.......................|.......................|.......................|.......................|.......................|.......................|
.......................|.......................|.......................|.......................|.......................|.......................|.......................|.......................|.......................|.......................|
.......................|.......................|.......................|G-5....................|C-0....................|.......................|.......................|.......................|.......................|.......................|
.......................|.......................|.......................|.......................|.......................|.......................|.......................|.......................|.......................|.......................|
.......................|.......................|.......................|.......................|.......................|.......................|.......................|.......................|.......................|.......................|
.......................|.......................|.......................|.......................|.......................|.......................|.......................|.......................|.......................|.......................|
.......................|.......................|.......................|.......................|.......................|.......................|.......................|.......................|.......................|.......................|
.......................|.......................|.......................|.......................|.......................|.......................|.......................|.......................|.......................|.......................|
.......................|.......................|.......................|.......................|.......................|.......................|A#3....................|.......................|.......................|.......................|
.......................|.......................|.......................|.......................|.......................|.......................|.......................|.......................|.......................|.......................|
.......................|.......................|.......................|.......................|.......................|.......................|.......................|.......................|.......................|.......................|
.......................|C-0....................|.......................|.......................|.......................|.......................|.......................|.......................|.......................|.......................|
.......0452............|D-3....0400............|.......0452............|.......................|.......................|.......................|.......................|.......................|.......................|.......................|
.......................|.......................|.......................|.......................|.......................|.......................|.......................|.......................|.......................|.......................|
.......................|.......................|.......................|D-5....................|G-5....................|.......................|.......................|.......................|.......................|.......................|
.......................|.......................|.......................|.......................|.......................|.......................|.......................|.......................|.......................|.......................|
.......................|.......................|.......................|.......................|.......................|.......................|.......................|.......................|.......................|.......................|
.......................|.......................|.......................|.......................|.......................|.......................|.......................|.......................|.......................|.......................|
.......................|.......................|.......................|.......................|.......................|.......................|.......................|.......................|.......................|.......................|
.......................|.......................|.......................|.......................|.......................|.......................|.......................|.......................|.......................|.......................|
.......................|.......................|.......................|.......................|.......................|.......................|G-3....................|.......................|.......................|.......................|
.......................|.......................|.......................|.......................|.......................|.......................|.......................|.......................|.......................|.......................|
.......................|.......................|.......................|.......................|.......................|.......................|.......................|.......................|.......................|.......................|
.......................|.......................|.......................|.......................|.......................|.......................|.......................|.......................|.......................|.......................|
.......................|.......................|.......................|.......................|.......................|.......................|.......................|.......................|.......................|.......................|
.......................|.......................|.......................|.......................|.......................|.......................|.......................|.......................|.......................|.......................|
.......................|.......................|.......................|G-5....................|D-5....................|.......................|.......................|.......................|.......................|.......................|
.......................|.......................|.......................|.......................|.......................|.......................|.......................|.......................|.......................|.......................|
.......................|.......................|.......................|.......................|.......................|.......................|.......................|.......................|.......................|.......................|
.......................|.......................|.......................|.......................|.......................|.......................|.......................|.......................|.......................|.......................|
.......................|.......................|.......................|.......................|.......................|.......................|.......................|.......................|.......................|.......................|
.......................|.......................|.......................|.......................|.......................|.......................|.......................|.......................|.......................|.......................|
.......................|.......................|.......................|.......................|.......................|.......................|D-3....................|.......................|.......................|.......................|
.......................|.......................|.......................|.......................|.......................|.......................|.......................|.......................|.......................|.......................|
.......................|.......................|.......................|.......................|.......................|.......................|.......................|.......................|.......................|.......................|
.......................|.......................|.......................|.......................|.......................|.......................|.......................|.......................|.......................|.......................|
.......................|.......0452............|.......................|.......................|.......................|.......................|.......................|.......................|.......................|.......................|
.......................|.......................|.......................|.......................|.......................|.......................|.......................|.......................|.......................|.......................|
.......................|.......................|.......................|D-5....................|G-5....................|.......................|.......................|.......................|.......................|.......................|
.......................|.......................|.......................|.......................|.......................|.......................|.......................|.......................|.......................|.......................|
.......................|.......................|.......................|.......................|.......................|.......................|.......................|.......................|.......................|.......................|
.......................|.......................|.......................|.......................|.......................|.......................|.......................|.......................|.......................|.......................|
.......................|.......................|.......................|.......................|.......................|.......................|.......................|.......................|.......................|.......................|
.......................|.......................|.......................|.......................|.......................|.......................|.......................|.......................|.......................|.......................|
.......................|.......................|.......................|.......................|.......................|.......................|G-3....................|.......................|.......................|.......................|
.......................|.......................|.......................|.......................|.......................|.......................|.......................|.......................|.......................|.......................|
.......................|.......................|.......................|.......................|.......................|.......................|.......................|.......................|.......................|.......................|
.......................|.......................|.......................|.......................|.......................|.......................|.......................|.......................|.......................|.......................|
.......................|.......................|.......................|.......................|.......................|.......................|.......................|.......................|.......................|.......................|
.......................|.......................|.......................|.......................|.......................|.......................|.......................|.......................|.......................|.......................|
.......................|.......................|.......................|A#4....................|D-5....................|.......................|.......................|.......................|.......................|.......................|
.......................|.......................|.......................|.......................|.......................|.......................|.......................|.......................|.......................|.......................|
.......................|.......................|.......................|.......................|.......................|.......................|.......................|.......................|.......................|.......................|
.......................|.......................|.......................|.......................|.......................|.......................|.......................|.......................|.......................|.......................|
.......................|.......................|.......................|.......................|.......................|.......................|.......................|.......................|.......................|.......................|
.......................|.......................|.......................|.......................|.......................|.......................|.......................|.......................|.......................|.......................|
.......................|.......................|.......................|.......................|.......................|.......................|D-3....................|.......................|.......................|.......................|
.......................|.......................|.......................|.......................|.......................|.......................|.......................|.......................|.......................|.......................|
.......................|.......................|.......................|.......................|.......................|.......................|.......................|.......................|.......................|.......................|
.......................|.......................|.......................|.......................|.......................|.......................|.......................|.......................|.......................|.......................|
.......................|.......................|.......................|.......................|.......................|.......................|.......................|.......................|.......................|.......................|
.......................|.......................|.......................|.......................|.......................|.......................|.......................|.......................|.......................|.......................|
.......................|.......................|.......................|G-4....................|A#4....................|.......................|.......................|.......................|.......................|.......................|
.......................|.......................|.......................|.......................|.......................|.......................|.......................|.......................|.......................|.......................|
.......................|.......................|.......................|.......................|.......................|.......................|.......................|.......................|.......................|.......................|
.......................|.......................|.......................|.......................|.......................|.......................|.......................|.......................|.......................|.......................|
.......................|.......................|.......................|.......................|.......................|.......................|.......................|.......................|.......................|.......................|
.......................|.......................|.......................|.......................|.......................|.......................|.......................|.......................|.......................|.......................|
.......................|.......................|.......................|.......................|.......................|.......................|A#2....................|.......................|.......................|.......................|
.......................|.......................|.......................|.......................|.......................|.......................|.......................|.......................|.......................|.......................|
.......................|.......................|.......................|.......................|.......................|.......................|.......................|.......................|.......................|.......................|
.......................|.......................|.......................|.......................|.......................|.......................|.......................|.......................|.......................|.......................|
.......................|.......................|.......................|.......................|.......................|.......................|.......................|.......................|.......................|.......................|
.......................|.......................|.......................|.......................|.......................|.......................|.......................|.......................|.......................|.......................|
.......................|.......................|.......................|D-4....................|G-4....................|.......................|.......................|.......................|.......................|.......................|
.......................|.......................|.......................|.......................|.......................|.......................|.......................|.......................|.......................|.......................|
.......................|.......................|.......................|.......................|.......................|.......................|.......................|.......................|.......................|.......................|
.......................|.......................|.......................|.......................|.......................|.......................|.......................|.......................|.......................|.......................|
.......................|.......................|.......................|.......................|.......................|.......................|.......................|.......................|.......................|.......................|
.......................|.......................|.......................|.......................|.......................|.......................|.......................|.......................|.......................|.......................|
.......................|.......................|.......................|.......................|.......................|.......................|G-2....................|.......................|.......................|.......................|
.......................|.......................|.......................|.......................|.......................|.......................|.......................|.......................|.......................|.......................|
.......................|.......................|.......................|.......................|.......................|.......................|.......................|.......................|.......................|.......................|
C-0....................|.......................|C-0....................|.......................|.......................|.......................|.......................|.......................|.......................|.......................|
A#3....0400............|.......................|G-3....0400............|.......................|.......................|.......................|.......................|.......................|.......................|.......................|
.......................|.......................|.......................|.......................|.......................|.......................|.......................|.......................|.......................|.......................|
.......................|.......................|.......................|A#3....................|D-4....................|.......................|.......................|.......................|.......................|.......................|
.......................|.......................|.......................|.......................|.......................|.......................|.......................|.......................|.......................|.......................|
.......................|.......................|.......................|.......................|.......................|.......................|.......................|.......................|.......................|.......................|
.......................|.......................|.......................|.......................|.......................|.......................|.......................|.......................|.......................|.......................|
.......................|.......................|.......................|.......................|.......................|.......................|.......................|.......................|.......................|.......................|
.......................|.......................|.......................|.......................|.......................|.......................|.......................|.......................|.......................|.......................|
.......................|.......................|.......................|.......................|.......................|.......................|D-2....................|.......................|.......................|.......................|
.......................|.......................|.......................|.......................|.......................|.......................|.......................|.......................|.......................|.......................|
.......................|.......................|.......................|.......................|.......................|.......................|.......................|.......................|.......................|.......................|
.......................|.......................|.......................|.......................|.......................|.......................|.......................|.......................|.......................|.......................|
.......................|.......................|.......................|.......................|.......................|.......................|.......................|.......................|.......................|.......................|
.......................|.......................|.......................|.......................|.......................|.......................|.......................|.......................|.......................|.......................|
.......................|.......................|.......................|D-4....................|A#3....................|.......................|.......................|.......................|.......................|.......................|
.......................|.......................|.......................|.......................|.......................|.......................|.......................|.......................|.......................|.......................|
.......................|.......................|.......................|.......................|.......................|.......................|.......................|.......................|.......................|.......................|
.......................|.......................|.......................|.......................|.......................|.......................|.......................|.......................|.......................|.......................|
.......................|.......................|.......................|.......................|.......................|.......................|.......................|.......................|.......................|.......................|
.......................|.......................|.......................|.......................|.......................|.......................|.......................|.......................|.......................|.......................|
.......................|.......................|.......................|.......................|.......................|.......................|A#1....................|.......................|.......................|.......................|
.......................|.......................|.......................|.......................|.......................|.......................|.......................|.......................|.......................|.......................|
.......................|.......................|.......................|.......................|.......................|.......................|.......................|.......................|.......................|.......................|
.......................|C-0....................|.......................|.......................|.......................|.......................|.......................|.......................|.......................|.......................|
.......0452............|A#3....0400............|.......0452............|.......................|.......................|.......................|.......................|.......................|.......................|.......................|
.......................|.......................|.......................|.......................|.......................|.......................|.......................|.......................|.......................|.......................|
.......................|.......................|.......................|G-4....................|D-4....................|.......................|.......................|.......................|.......................|.......................|
.......................|.......................|.......................|.......................|.......................|.......................|.......................|.......................|.......................|.......................|
.......................|.......................|.......................|.......................|.......................|.......................|.......................|.......................|.......................|.......................|
.......................|.......................|.......................|.......................|.......................|.......................|.......................|.......................|.......................|.......................|
.......................|.......................|.......................|.......................|.......................|.......................|.......................|.......................|.......................|.......................|
.......................|.......................|.......................|.......................|.......................|.......................|.......................|.......................|.......................|.......................|
org.tildearrow.furnace - Pattern Data (219)
0
.......................|.......................|.......................|.......................|.......................|.......................|D-2....................|.......................|.......................|.......................|
.......................|.......................|.......................|.......................|.......................|.......................|.......................|.......................|.......................|.......................|
.......................|.......................|.......................|.......................|.......................|.......................|.......................|.......................|.......................|.......................|
.......................|.......................|.......................|.......................|.......................|.......................|.......................|.......................|.......................|.......................|
.......................|.......................|.......................|.......................|.......................|.......................|.......................|.......................|.......................|.......................|
.......................|.......................|.......................|.......................|.......................|.......................|.......................|.......................|.......................|.......................|
.......................|.......................|.......................|A#4....................|G-4....................|.......................|.......................|.......................|.......................|.......................|
.......................|.......................|.......................|.......................|.......................|.......................|.......................|.......................|.......................|.......................|
.......................|.......................|.......................|.......................|.......................|.......................|.......................|.......................|.......................|.......................|
.......................|.......................|.......................|.......................|.......................|.......................|.......................|.......................|.......................|.......................|
.......................|.......................|.......................|.......................|.......................|.......................|.......................|.......................|.......................|.......................|
.......................|.......................|.......................|.......................|.......................|.......................|.......................|.......................|.......................|.......................|
.......................|.......................|.......................|.......................|.......................|.......................|G-2....................|.......................|.......................|.......................|
.......................|.......................|.......................|.......................|.......................|.......................|.......................|.......................|.......................|.......................|
.......................|.......................|.......................|.......................|.......................|.......................|.......................|.......................|.......................|.......................|
.......................|.......................|.......................|.......................|.......................|.......................|.......................|.......................|.......................|.......................|
.......................|.......0452............|.......................|.......................|.......................|.......................|.......................|.......................|.......................|.......................|
.......................|.......................|.......................|.......................|.......................|.......................|.......................|.......................|.......................|.......................|
.......................|.......................|.......................|G-4....................|A#4....................|.......................|.......................|.......................|.......................|.......................|
.......................|.......................|.......................|.......................|.......................|.......................|.......................|.......................|.......................|.......................|
.......................|.......................|.......................|.......................|.......................|.......................|.......................|.......................|.......................|.......................|
.......................|.......................|.......................|.......................|.......................|.......................|.......................|.......................|.......................|.......................|
.......................|.......................|.......................|.......................|.......................|.......................|.......................|.......................|.......................|.......................|
.......................|.......................|.......................|.......................|.......................|.......................|.......................|.......................|.......................|.......................|
.......................|.......................|.......................|.......................|.......................|.......................|A#2....................|.......................|.......................|.......................|
.......................|.......................|.......................|.......................|.......................|.......................|.......................|.......................|.......................|.......................|
.......................|.......................|.......................|.......................|.......................|.......................|.......................|.......................|.......................|.......................|
.......................|.......................|.......................|.......................|.......................|.......................|.......................|.......................|.......................|.......................|
.......................|.......................|.......................|.......................|.......................|.......................|.......................|.......................|.......................|.......................|
.......................|.......................|.......................|.......................|.......................|.......................|.......................|.......................|.......................|.......................|
.......................|.......................|.......................|A#4....................|G-4....................|.......................|.......................|.......................|.......................|.......................|
.......................|.......................|.......................|.......................|.......................|.......................|.......................|.......................|.......................|.......................|
.......................|.......................|.......................|.......................|.......................|.......................|.......................|.......................|.......................|.......................|
.......................|.......................|.......................|.......................|.......................|.......................|.......................|.......................|.......................|.......................|
.......................|.......................|.......................|.......................|.......................|.......................|.......................|.......................|.......................|.......................|
.......................|.......................|.......................|.......................|.......................|.......................|.......................|.......................|.......................|.......................|
.......................|.......................|.......................|.......................|.......................|.......................|G-2....................|.......................|.......................|.......................|
.......................|.......................|.......................|.......................|.......................|.......................|.......................|.......................|.......................|.......................|
.......................|.......................|.......................|.......................|.......................|.......................|.......................|.......................|.......................|.......................|
.......................|.......................|.......................|.......................|.......................|.......................|.......................|.......................|.......................|.......................|
.......................|.......................|.......................|.......................|.......................|.......................|.......................|.......................|.......................|.......................|
.......................|.......................|.......................|.......................|.......................|.......................|.......................|.......................|.......................|.......................|
.......................|.......................|.......................|D-5....................|A#4....................|.......................|.......................|.......................|.......................|.......................|
.......................|.......................|.......................|.......................|.......................|.......................|.......................|.......................|.......................|.......................|
.......................|.......................|.......................|.......................|.......................|.......................|.......................|.......................|.......................|.......................|
.......................|.......................|.......................|.......................|.......................|.......................|.......................|.......................|.......................|.......................|
.......................|.......................|.......................|.......................|.......................|.......................|.......................|.......................|.......................|.......................|
.......................|.......................|.......................|.......................|.......................|.......................|.......................|.......................|.......................|.......................|
.......................|.......................|.......................|.......................|.......................|.......................|A#2....................|.......................|.......................|.......................|
.......................|.......................|.......................|.......................|.......................|.......................|.......................|.......................|.......................|.......................|
.......................|.......................|.......................|.......................|.......................|.......................|.......................|.......................|.......................|.......................|
.......................|.......................|.......................|.......................|.......................|.......................|.......................|.......................|.......................|.......................|
.......................|.......................|.......................|.......................|.......................|.......................|.......................|.......................|.......................|.......................|
.......................|.......................|.......................|.......................|.......................|.......................|.......................|.......................|.......................|.......................|
.......................|.......................|.......................|F#5....................|D-5....................|.......................|.......................|.......................|.......................|.......................|
.......................|.......................|.......................|.......................|.......................|.......................|.......................|.......................|.......................|.......................|
.......................|.......................|.......................|.......................|.......................|.......................|.......................|.......................|.......................|.......................|
.......................|.......................|.......................|.......................|.......................|.......................|.......................|.......................|.......................|.......................|
.......................|.......................|.......................|.......................|.......................|.......................|.......................|.......................|.......................|.......................|
.......................|.......................|.......................|.......................|.......................|.......................|.......................|.......................|.......................|.......................|
.......................|.......................|.......................|.......................|.......................|.......................|D-3....................|.......................|.......................|.......................|
.......................|.......................|.......................|.......................|.......................|.......................|.......................|.......................|.......................|.......................|
.......................|.......................|.......................|.......................|.......................|.......................|.......................|.......................|.......................|.......................|
C-0....................|.......................|C-0....................|.......................|.......................|.......................|.......................|.......................|.......................|.......................|
A-3....0400............|.......................|F#3....0400............|.......................|.......................|.......................|.......................|.......................|.......................|.......................|
.......................|.......................|.......................|.......................|.......................|.......................|.......................|.......................|.......................|.......................|
.......................|.......................|.......................|E-5....................|F#5....................|.......................|.......................|.......................|.......................|.......................|
.......................|.......................|.......................|.......................|.......................|.......................|.......................|.......................|.......................|.......................|
.......................|.......................|.......................|.......................|.......................|.......................|.......................|.......................|.......................|.......................|
.......................|.......................|.......................|.......................|.......................|.......................|.......................|.......................|.......................|.......................|
.......................|.......................|.......................|.......................|.......................|.......................|.......................|.......................|.......................|.......................|
.......................|.......................|.......................|.......................|.......................|.......................|.......................|.......................|.......................|.......................|
.......................|.......................|.......................|.......................|.......................|.......................|F#3....................|.......................|.......................|.......................|
.......................|.......................|.......................|.......................|.......................|.......................|.......................|.......................|.......................|.......................|
.......................|.......................|.......................|.......................|.......................|.......................|.......................|.......................|.......................|.......................|
.......................|.......................|.......................|.......................|.......................|.......................|.......................|.......................|.......................|.......................|
.......................|.......................|.......................|.......................|.......................|.......................|.......................|.......................|.......................|.......................|
.......................|.......................|.......................|.......................|.......................|.......................|.......................|.......................|.......................|.......................|
.......................|.......................|.......................|D-5....................|E-5....................|.......................|.......................|.......................|.......................|.......................|
.......................|.......................|.......................|.......................|.......................|.......................|.......................|.......................|.......................|.......................|
.......................|.......................|.......................|.......................|.......................|.......................|.......................|.......................|.......................|.......................|
.......................|.......................|.......................|.......................|.......................|.......................|.......................|.......................|.......................|.......................|
.......................|.......................|.......................|.......................|.......................|.......................|.......................|.......................|.......................|.......................|
.......................|.......................|.......................|.......................|.......................|.......................|.......................|.......................|.......................|.......................|
.......................|.......................|.......................|.......................|.......................|.......................|E-3....................|.......................|.......................|.......................|
.......................|.......................|.......................|.......................|.......................|.......................|.......................|.......................|.......................|.......................|
.......................|.......................|.......................|.......................|.......................|.......................|.......................|.......................|.......................|.......................|
.......................|C-0....................|.......................|.......................|.......................|.......................|.......................|.......................|.......................|.......................|
.......0452............|A-3....0400............|.......0452............|.......................|.......................|.......................|.......................|.......................|.......................|.......................|
.......................|.......................|.......................|.......................|.......................|.......................|.......................|.......................|.......................|.......................|
.......................|.......................|.......................|A-4....................|D-5....................|.......................|.......................|.......................|.......................|.......................|
.......................|.......................|.......................|.......................|.......................|.......................|.......................|.......................|.......................|.......................|
.......................|.......................|.......................|.......................|.......................|.......................|.......................|.......................|.......................|.......................|
.......................|.......................|.......................|.......................|.......................|.......................|.......................|.......................|.......................|.......................|
.......................|.......................|.......................|.......................|.......................|.......................|.......................|.......................|.......................|.......................|
.......................|.......................|.......................|.......................|.......................|.......................|.......................|.......................|.......................|.......................|
.......................|.......................|.......................|.......................|.......................|.......................|D-3....................|.......................|.......................|.......................|
.......................|.......................|.......................|.......................|.......................|.......................|.......................|.......................|.......................|.......................|
.......................|.......................|.......................|.......................|.......................|.......................|.......................|.......................|.......................|.......................|
.......................|.......................|.......................|.......................|.......................|.......................|.......................|.......................|.......................|.......................|
.......................|.......................|.......................|.......................|.......................|.......................|.......................|.......................|.......................|.......................|
.......................|.......................|.......................|.......................|.......................|.......................|.......................|.......................|.......................|.......................|
.......................|.......................|.......................|F#4....................|A-4....................|.......................|.......................|.......................|.......................|.......................|
.......................|.......................|.......................|.......................|.......................|.......................|.......................|.......................|.......................|.......................|
.......................|.......................|.......................|.......................|.......................|.......................|.......................|.......................|.......................|.......................|
.......................|.......................|.......................|.......................|.......................|.......................|.......................|.......................|.......................|.......................|
.......................|.......................|.......................|.......................|.......................|.......................|.......................|.......................|.......................|.......................|
.......................|.......................|.......................|.......................|.......................|.......................|.......................|.......................|.......................|.......................|
.......................|.......................|.......................|.......................|.......................|.......................|A-2....................|.......................|.......................|.......................|
.......................|.......................|.......................|.......................|.......................|.......................|.......................|.......................|.......................|.......................|
.......................|.......................|.......................|.......................|.......................|.......................|.......................|.......................|.......................|.......................|
.......................|.......................|.......................|.......................|.......................|.......................|.......................|.......................|.......................|.......................|
.......................|.......0452............|.......................|.......................|.......................|.......................|.......................|.......................|.......................|.......................|
.......................|.......................|.......................|.......................|.......................|.......................|.......................|.......................|.......................|.......................|
.......................|.......................|.......................|E-4....................|F#4....................|.......................|.......................|.......................|.......................|.......................|
.......................|.......................|.......................|.......................|.......................|.......................|.......................|.......................|.......................|.......................|
.......................|.......................|.......................|.......................|.......................|.......................|.......................|.......................|.......................|.......................|
.......................|.......................|.......................|.......................|.......................|.......................|.......................|.......................|.......................|.......................|
.......................|.......................|.......................|.......................|.......................|.......................|.......................|.......................|.......................|.......................|
.......................|.......................|.......................|.......................|.......................|.......................|.......................|.......................|.......................|.......................|
.......................|.......................|.......................|.......................|.......................|.......................|F#2....................|.......................|.......................|.......................|
.......................|.......................|.......................|.......................|.......................|.......................|.......................|.......................|.......................|.......................|
.......................|.......................|.......................|.......................|.......................|.......................|.......................|.......................|.......................|.......................|
.......................|.......................|.......................|.......................|.......................|.......................|.......................|.......................|.......................|.......................|
.......................|.......................|.......................|.......................|.......................|.......................|.......................|.......................|.......................|.......................|
.......................|.......................|.......................|.......................|.......................|.......................|.......................|.......................|.......................|.......................|
.......................|.......................|.......................|D-4....................|E-4....................|.......................|.......................|.......................|.......................|.......................|
.......................|.......................|.......................|.......................|.......................|.......................|.......................|.......................|.......................|.......................|
.......................|.......................|.......................|.......................|.......................|.......................|.......................|.......................|.......................|.......................|
.......................|.......................|.......................|.......................|.......................|.......................|.......................|.......................|.......................|.......................|
.......................|.......................|.......................|.......................|.......................|.......................|.......................|.......................|.......................|.......................|
.......................|.......................|.......................|.......................|.......................|.......................|.......................|.......................|.......................|.......................|
.......................|.......................|.......................|.......................|.......................|.......................|E-2....................|.......................|.......................|.......................|
.......................|.......................|.......................|.......................|.......................|.......................|.......................|.......................|.......................|.......................|
.......................|.......................|.......................|.......................|.......................|.......................|.......................|.......................|.......................|.......................|
.......................|.......................|.......................|.......................|.......................|.......................|.......................|.......................|.......................|.......................|
.......................|.......................|.......................|.......................|.......................|.......................|.......................|.......................|.......................|.......................|
.......................|.......................|.......................|.......................|.......................|.......................|.......................|.......................|.......................|.......................|
.......................|.......................|.......................|A-3....................|D-4....................|.......................|.......................|.......................|.......................|.......................|
.......................|.......................|.......................|.......................|.......................|.......................|.......................|.......................|.......................|.......................|
.......................|.......................|.......................|.......................|.......................|.......................|.......................|.......................|.......................|.......................|
.......................|.......................|.......................|.......................|.......................|.......................|.......................|.......................|.......................|.......................|
.......................|.......................|.......................|.......................|.......................|.......................|.......................|.......................|.......................|.......................|
.......................|.......................|.......................|.......................|.......................|.......................|.......................|.......................|.......................|.......................|
.......................|.......................|.......................|.......................|.......................|.......................|D-2....................|.......................|.......................|.......................|
.......................|.......................|.......................|.......................|.......................|.......................|.......................|.......................|.......................|.......................|
.......................|.......................|.......................|.......................|.......................|.......................|.......................|.......................|.......................|.......................|
.......................|.......................|.......................|.......................|.......................|.......................|.......................|.......................|.......................|.......................|
.......................|.......................|.......................|.......................|.......................|.......................|.......................|.......................|.......................|.......................|
.......................|.......................|.......................|.......................|.......................|.......................|.......................|.......................|.......................|.......................|
.......................|.......................|.......................|F#3....................|A-3....................|.......................|.......................|.......................|.......................|.......................|
.......................|.......................|.......................|.......................|.......................|.......................|.......................|.......................|.......................|.......................|
.......................|.......................|.......................|.......................|.......................|.......................|.......................|.......................|.......................|.......................|
.......................|.......................|.......................|.......................|.......................|.......................|.......................|.......................|.......................|.......................|
.......................|.......................|.......................|.......................|.......................|.......................|.......................|.......................|.......................|.......................|
.......................|.......................|.......................|.......................|.......................|.......................|.......................|.......................|.......................|.......................|
.......................|.......................|.......................|.......................|.......................|.......................|A-1....................|.......................|.......................|.......................|
.......................|.......................|.......................|.......................|.......................|.......................|.......................|.......................|.......................|.......................|
.......................|.......................|.......................|.......................|.......................|.......................|.......................|.......................|.......................|.......................|
C-0....................|.......................|C-0....................|.......................|.......................|.......................|.......................|.......................|.......................|.......................|
D-4....0400............|.......................|A#3....0400............|.......................|.......................|.......................|.......................|.......................|.......................|.......................|
.......................|.......................|.......................|.......................|.......................|.......................|.......................|.......................|.......................|.......................|
.......................|.......................|.......................|E-5....................|F#3....................|.......................|.......................|.......................|.......................|.......................|
.......................|.......................|.......................|.......................|.......................|.......................|.......................|.......................|.......................|.......................|
.......................|.......................|.......................|.......................|.......................|.......................|.......................|.......................|.......................|.......................|
.......................|.......................|.......................|.......................|.......................|.......................|.......................|.......................|.......................|.......................|
.......................|.......................|.......................|.......................|.......................|.......................|.......................|.......................|.......................|.......................|
.......................|.......................|.......................|.......................|.......................|.......................|.......................|.......................|.......................|.......................|
.......................|.......................|.......................|.......................|.......................|.......................|F#1....................|.......................|.......................|.......................|
.......................|.......................|.......................|.......................|.......................|.......................|.......................|.......................|.......................|.......................|
.......................|.......................|.......................|.......................|.......................|.......................|.......................|.......................|.......................|.......................|
.......................|.......................|.......................|.......................|.......................|.......................|.......................|.......................|.......................|.......................|
.......................|.......................|.......................|.......................|.......................|.......................|.......................|.......................|.......................|.......................|
.......................|.......................|.......................|.......................|.......................|.......................|.......................|.......................|.......................|.......................|
.......................|.......................|.......................|D-5....................|E-5....................|.......................|.......................|.......................|.......................|.......................|
.......................|.......................|.......................|.......................|.......................|.......................|.......................|.......................|.......................|.......................|
.......................|.......................|.......................|.......................|.......................|.......................|.......................|.......................|.......................|.......................|
.......................|.......................|.......................|.......................|.......................|.......................|.......................|.......................|.......................|.......................|
.......................|.......................|.......................|.......................|.......................|.......................|.......................|.......................|.......................|.......................|
.......................|.......................|.......................|.......................|.......................|.......................|.......................|.......................|.......................|.......................|
.......................|.......................|.......................|.......................|.......................|.......................|E-3....................|.......................|.......................|.......................|
.......................|.......................|.......................|.......................|.......................|.......................|.......................|.......................|.......................|.......................|
.......................|.......................|.......................|.......................|.......................|.......................|.......................|.......................|.......................|.......................|
.......................|C-0....................|.......................|.......................|.......................|.......................|.......................|.......................|.......................|.......................|
.......0452............|D-4....0400............|.......0452............|.......................|.......................|.......................|.......................|.......................|.......................|.......................|
.......................|.......................|.......................|.......................|.......................|.......................|.......................|.......................|.......................|.......................|
.......................|.......................|.......................|A#4....................|D-5....................|.......................|.......................|.......................|.......................|.......................|
.......................|.......................|.......................|.......................|.......................|.......................|.......................|.......................|.......................|.......................|
.......................|.......................|.......................|.......................|.......................|.......................|.......................|.......................|.......................|.......................|
.......................|.......................|.......................|.......................|.......................|.......................|.......................|.......................|.......................|.......................|
.......................|.......................|.......................|.......................|.......................|.......................|.......................|.......................|.......................|.......................|
.......................|.......................|.......................|.......................|.......................|.......................|.......................|.......................|.......................|.......................|
.......................|.......................|.......................|.......................|.......................|.......................|D-3....................|.......................|.......................|.......................|
.......................|.......................|.......................|.......................|.......................|.......................|.......................|.......................|.......................|.......................|
.......................|.......................|.......................|.......................|.......................|.......................|.......................|.......................|.......................|.......................|
.......................|.......................|.......................|.......................|.......................|.......................|.......................|.......................|.......................|.......................|
.......................|.......................|.......................|.......................|.......................|.......................|.......................|.......................|.......................|.......................|
.......................|.......................|.......................|.......................|.......................|.......................|.......................|.......................|.......................|.......................|
.......................|.......................|.......................|G-4....................|A#4....................|.......................|.......................|.......................|.......................|.......................|
.......................|.......................|.......................|.......................|.......................|.......................|.......................|.......................|.......................|.......................|
.......................|.......................|.......................|.......................|.......................|.......................|.......................|.......................|.......................|.......................|
.......................|.......................|.......................|.......................|.......................|.......................|.......................|.......................|.......................|.......................|
.......................|.......................|.......................|.......................|.......................|.......................|.......................|.......................|.......................|.......................|
.......................|.......................|.......................|.......................|.......................|.......................|.......................|.......................|.......................|.......................|
.......................|.......................|.......................|.......................|.......................|.......................|A#2....................|.......................|.......................|.......................|
.......................|.......................|.......................|.......................|.......................|.......................|.......................|.......................|.......................|.......................|
.......................|.......................|.......................|.......................|.......................|.......................|.......................|.......................|.......................|.......................|
.......................|.......................|.......................|.......................|.......................|.......................|.......................|.......................|.......................|.......................|
.......................|.......0452............|.......................|.......................|.......................|.......................|.......................|.......................|.......................|.......................|
.......................|.......................|.......................|.......................|.......................|.......................|.......................|.......................|.......................|.......................|
.......................|.......................|.......................|E-4....................|G-4....................|.......................|.......................|.......................|.......................|.......................|
.......................|.......................|.......................|.......................|.......................|.......................|.......................|.......................|.......................|.......................|
.......................|.......................|.......................|.......................|.......................|.......................|.......................|.......................|.......................|.......................|
.......................|.......................|.......................|.......................|.......................|.......................|.......................|.......................|.......................|.......................|
.......................|.......................|.......................|.......................|.......................|.......................|.......................|.......................|.......................|.......................|
.......................|.......................|.......................|.......................|.......................|.......................|.......................|.......................|.......................|.......................|
.......................|.......................|.......................|.......................|.......................|.......................|G-2....................|.......................|.......................|.......................|
.......................|.......................|.......................|.......................|.......................|.......................|.......................|.......................|.......................|.......................|
.......................|.......................|.......................|.......................|.......................|.......................|.......................|.......................|.......................|.......................|
.......................|.......................|.......................|.......................|.......................|.......................|.......................|.......................|.......................|.......................|
.......................|.......................|.......................|.......................|.......................|.......................|.......................|.......................|.......................|.......................|
.......................|.......................|.......................|.......................|.......................|.......................|.......................|.......................|.......................|.......................|
.......................|.......................|.......................|D-4....................|E-4....................|.......................|.......................|.......................|.......................|.......................|
.......................|.......................|.......................|.......................|.......................|.......................|.......................|.......................|.......................|.......................|
.......................|.......................|.......................|.......................|.......................|.......................|.......................|.......................|.......................|.......................|
.......................|.......................|.......................|.......................|.......................|.......................|.......................|.......................|.......................|.......................|
.......................|.......................|.......................|.......................|.......................|.......................|.......................|.......................|.......................|.......................|
.......................|.......................|.......................|.......................|.......................|.......................|.......................|.......................|.......................|.......................|
.......................|.......................|.......................|.......................|.......................|.......................|E-2....................|.......................|.......................|.......................|
.......................|.......................|.......................|.......................|.......................|.......................|.......................|.......................|.......................|.......................|
.......................|.......................|.......................|.......................|.......................|.......................|.......................|.......................|.......................|.......................|
.......................|.......................|.......................|.......................|.......................|.......................|.......................|.......................|.......................|.......................|
.......................|.......................|.......................|.......................|.......................|.......................|.......................|.......................|.......................|.......................|
.......................|.......................|.......................|.......................|.......................|.......................|.......................|.......................|.......................|.......................|
.......................|.......................|.......................|A#3....................|D-4....................|.......................|.......................|.......................|.......................|.......................|
.......................|.......................|.......................|.......................|.......................|.......................|.......................|.......................|.......................|.......................|
.......................|.......................|.......................|.......................|.......................|.......................|.......................|.......................|.......................|.......................|
.......................|.......................|.......................|.......................|.......................|.......................|.......................|.......................|.......................|.......................|
.......................|.......................|.......................|.......................|.......................|.......................|.......................|.......................|.......................|.......................|
.......................|.......................|.......................|.......................|.......................|.......................|.......................|.......................|.......................|.......................|
.......................|.......................|.......................|.......................|.......................|.......................|D-2....................|.......................|.......................|.......................|
.......................|.......................|.......................|.......................|.......................|.......................|.......................|.......................|.......................|.......................|
.......................|.......................|.......................|.......................|.......................|.......................|.......................|.......................|.......................|.......................|
.......................|.......................|.......................|.......................|.......................|.......................|.......................|.......................|.......................|.......................|
.......................|.......................|.......................|.......................|.......................|.......................|.......................|.......................|.......................|.......................|
.......................|.......................|.......................|.......................|.......................|.......................|.......................|.......................|.......................|.......................|
.......................|.......................|.......................|G-3....................|A#3....................|.......................|.......................|.......................|.......................|.......................|
.......................|.......................|.......................|.......................|.......................|.......................|.......................|.......................|.......................|.......................|
.......................|.......................|.......................|.......................|.......................|.......................|.......................|.......................|.......................|.......................|
.......................|.......................|.......................|.......................|.......................|.......................|.......................|.......................|.......................|.......................|
.......................|.......................|.......................|.......................|.......................|.......................|.......................|.......................|.......................|.......................|
.......................|.......................|.......................|.......................|.......................|.......................|.......................|.......................|.......................|.......................|
.......................|.......................|.......................|.......................|.......................|.......................|A#1....................|.......................|.......................|.......................|
.......................|.......................|.......................|.......................|.......................|.......................|.......................|.......................|.......................|.......................|
.......................|.......................|.......................|.......................|.......................|.......................|.......................|.......................|.......................|.......................|
C-0....................|.......................|C-0....................|.......................|.......................|.......................|.......................|.......................|.......................|.......................|
org.tildearrow.furnace - Pattern Data (219)
0
C#4....0400............|.......................|A-3....0400............|.......................|.......................|.......................|.......................|.......................|.......................|.......................|
.......................|.......................|.......................|.......................|.......................|.......................|.......................|.......................|.......................|.......................|
.......................|.......................|.......................|C#5....................|G-3....................|.......................|.......................|.......................|.......................|.......................|
.......................|.......................|.......................|.......................|.......................|.......................|.......................|.......................|.......................|.......................|
.......................|.......................|.......................|.......................|.......................|.......................|.......................|.......................|.......................|.......................|
.......................|.......................|.......................|.......................|.......................|.......................|.......................|.......................|.......................|.......................|
.......................|.......................|.......................|.......................|.......................|.......................|.......................|.......................|.......................|.......................|
.......................|.......................|.......................|.......................|.......................|.......................|.......................|.......................|.......................|.......................|
.......................|.......................|.......................|.......................|.......................|.......................|G-1....................|.......................|.......................|.......................|
.......................|.......................|.......................|.......................|.......................|.......................|.......................|.......................|.......................|.......................|
.......................|.......................|.......................|.......................|.......................|.......................|.......................|.......................|.......................|.......................|
.......................|.......................|.......................|.......................|.......................|.......................|.......................|.......................|.......................|.......................|
.......................|.......................|.......................|.......................|.......................|.......................|.......................|.......................|.......................|.......................|
.......................|.......................|.......................|.......................|.......................|.......................|.......................|.......................|.......................|.......................|
.......................|.......................|.......................|B-4....................|C#5....................|.......................|.......................|.......................|.......................|.......................|
.......................|.......................|.......................|.......................|.......................|.......................|.......................|.......................|.......................|.......................|
.......................|.......................|.......................|.......................|.......................|.......................|.......................|.......................|.......................|.......................|
.......................|.......................|.......................|.......................|.......................|.......................|.......................|.......................|.......................|.......................|
.......................|.......................|.......................|.......................|.......................|.......................|.......................|.......................|.......................|.......................|
.......................|.......................|.......................|.......................|.......................|.......................|.......................|.......................|.......................|.......................|
.......................|.......................|.......................|.......................|.......................|.......................|C#3....................|.......................|.......................|.......................|
.......................|.......................|.......................|.......................|.......................|.......................|.......................|.......................|.......................|.......................|
.......................|.......................|.......................|.......................|.......................|.......................|.......................|.......................|.......................|.......................|
.......................|C-0....................|.......................|.......................|.......................|.......................|.......................|.......................|.......................|.......................|
.......0452............|C#4....0400............|.......0452............|.......................|.......................|.......................|.......................|.......................|.......................|.......................|
.......................|.......................|.......................|.......................|.......................|.......................|.......................|.......................|.......................|.......................|
.......................|.......................|.......................|A-4....................|B-4....................|.......................|.......................|.......................|.......................|.......................|
.......................|.......................|.......................|.......................|.......................|.......................|.......................|.......................|.......................|.......................|
.......................|.......................|.......................|.......................|.......................|.......................|.......................|.......................|.......................|.......................|
.......................|.......................|.......................|.......................|.......................|.......................|.......................|.......................|.......................|.......................|
.......................|.......................|.......................|.......................|.......................|.......................|.......................|.......................|.......................|.......................|
.......................|.......................|.......................|.......................|.......................|.......................|.......................|.......................|.......................|.......................|
.......................|.......................|.......................|.......................|.......................|.......................|B-2....................|.......................|.......................|.......................|
.......................|.......................|.......................|.......................|.......................|.......................|.......................|.......................|.......................|.......................|
.......................|.......................|.......................|.......................|.......................|.......................|.......................|.......................|.......................|.......................|
.......................|.......................|.......................|.......................|.......................|.......................|.......................|.......................|.......................|.......................|
.......................|.......................|.......................|.......................|.......................|.......................|.......................|.......................|.......................|.......................|
.......................|.......................|.......................|.......................|.......................|.......................|.......................|.......................|.......................|.......................|
.......................|.......................|.......................|E-4....................|A-4....................|.......................|.......................|.......................|.......................|.......................|
.......................|.......................|.......................|.......................|.......................|.......................|.......................|.......................|.......................|.......................|
.......................|.......................|.......................|.......................|.......................|.......................|.......................|.......................|.......................|.......................|
.......................|.......................|.......................|.......................|.......................|.......................|.......................|.......................|.......................|.......................|
.......................|.......................|.......................|.......................|.......................|.......................|.......................|.......................|.......................|.......................|
.......................|.......................|.......................|.......................|.......................|.......................|.......................|.......................|.......................|.......................|
.......................|.......................|.......................|.......................|.......................|.......................|A-2....................|.......................|.......................|.......................|
.......................|.......................|.......................|.......................|.......................|.......................|.......................|.......................|.......................|.......................|
.......................|.......................|.......................|.......................|.......................|.......................|.......................|.......................|.......................|.......................|
.......................|.......................|.......................|.......................|.......................|.......................|.......................|.......................|.......................|.......................|
.......................|.......0452............|.......................|.......................|.......................|.......................|.......................|.......................|.......................|.......................|
.......................|.......................|.......................|.......................|.......................|.......................|.......................|.......................|.......................|.......................|
.......................|.......................|.......................|D-4....................|E-4....................|.......................|.......................|.......................|.......................|.......................|
.......................|.......................|.......................|.......................|.......................|.......................|.......................|.......................|.......................|.......................|
.......................|.......................|.......................|.......................|.......................|.......................|.......................|.......................|.......................|.......................|
.......................|.......................|.......................|.......................|.......................|.......................|.......................|.......................|.......................|.......................|
.......................|.......................|.......................|.......................|.......................|.......................|.......................|.......................|.......................|.......................|
.......................|.......................|.......................|.......................|.......................|.......................|.......................|.......................|.......................|.......................|
.......................|.......................|.......................|.......................|.......................|.......................|E-2....................|.......................|.......................|.......................|
.......................|.......................|.......................|.......................|.......................|.......................|.......................|.......................|.......................|.......................|
.......................|.......................|.......................|.......................|.......................|.......................|.......................|.......................|.......................|.......................|
.......................|.......................|.......................|.......................|.......................|.......................|.......................|.......................|.......................|.......................|
.......................|.......................|.......................|.......................|.......................|.......................|.......................|.......................|.......................|.......................|
.......................|.......................|.......................|.......................|.......................|.......................|.......................|.......................|.......................|.......................|
.......................|.......................|.......................|C#4....................|D-4....................|.......................|.......................|.......................|.......................|.......................|
.......................|.......................|.......................|.......................|.......................|.......................|.......................|.......................|.......................|.......................|
.......................|.......................|.......................|.......................|.......................|.......................|.......................|.......................|.......................|.......................|
.......................|.......................|.......................|.......................|.......................|.......................|.......................|.......................|.......................|.......................|
.......................|.......................|.......................|.......................|.......................|.......................|.......................|.......................|.......................|.......................|
.......................|.......................|.......................|.......................|.......................|.......................|.......................|.......................|.......................|.......................|
.......................|.......................|.......................|.......................|.......................|.......................|D-2....................|.......................|.......................|.......................|
.......................|.......................|.......................|.......................|.......................|.......................|.......................|.......................|.......................|.......................|
.......................|.......................|.......................|.......................|.......................|.......................|.......................|.......................|.......................|.......................|
.......................|.......................|.......................|.......................|.......................|.......................|.......................|.......................|.......................|.......................|
.......................|.......................|.......................|.......................|.......................|.......................|.......................|.......................|.......................|.......................|
.......................|.......................|.......................|.......................|.......................|.......................|.......................|.......................|.......................|.......................|
.......................|.......................|.......................|A-3....................|C#4....................|.......................|.......................|.......................|.......................|.......................|
.......................|.......................|.......................|.......................|.......................|.......................|.......................|.......................|.......................|.......................|
.......................|.......................|.......................|.......................|.......................|.......................|.......................|.......................|.......................|.......................|
.......................|.......................|.......................|.......................|.......................|.......................|.......................|.......................|.......................|.......................|
.......................|.......................|.......................|.......................|.......................|.......................|.......................|.......................|.......................|.......................|
.......................|.......................|.......................|.......................|.......................|.......................|.......................|.......................|.......................|.......................|
.......................|.......................|.......................|.......................|.......................|.......................|C#2....................|.......................|.......................|.......................|
.......................|.......................|.......................|.......................|.......................|.......................|.......................|.......................|.......................|.......................|
.......................|.......................|.......................|.......................|.......................|.......................|.......................|.......................|.......................|.......................|
.......................|.......................|.......................|.......................|.......................|.......................|.......................|.......................|.......................|.......................|
.......................|.......................|.......................|.......................|.......................|.......................|.......................|.......................|.......................|.......................|
.......................|.......................|.......................|.......................|.......................|.......................|.......................|.......................|.......................|.......................|
.......................|.......................|.......................|E-3....................|A-3....................|.......................|.......................|.......................|.......................|.......................|
.......................|.......................|.......................|.......................|.......................|.......................|.......................|.......................|.......................|.......................|
.......................|.......................|.......................|.......................|.......................|.......................|.......................|.......................|.......................|.......................|
.......................|.......................|.......................|.......................|.......................|.......................|.......................|.......................|.......................|.......................|
.......................|.......................|.......................|.......................|.......................|.......................|.......................|.......................|.......................|.......................|
.......................|.......................|.......................|.......................|.......................|.......................|.......................|.......................|.......................|.......................|
.......................|.......................|.......................|.......................|.......................|.......................|A-1....................|.......................|.......................|.......................|
.......................|.......................|.......................|.......................|.......................|.......................|.......................|.......................|.......................|.......................|
.......................|.......................|.......................|.......................|.......................|.......................|.......................|.......................|.......................|.......................|
C-0....................|.......................|C-0....................|.......................|.......................|.......................|.......................|.......................|.......................|.......................|
G#3....0400............|.......................|D-3....0400............|.......................|.......................|.......................|.......................|.......................|.......................|.......................|
.......................|.......................|.......................|.......................|.......................|.......................|.......................|.......................|.......................|.......................|
.......................|.......................|.......................|D-3....................|E-3....................|.......................|.......................|.......................|.......................|.......................|
.......................|.......................|.......................|.......................|.......................|.......................|.......................|.......................|.......................|.......................|
.......................|.......................|.......................|.......................|.......................|.......................|.......................|.......................|.......................|.......................|
.......................|.......................|.......................|.......................|.......................|.......................|.......................|.......................|.......................|.......................|
.......................|.......................|.......................|.......................|.......................|.......................|.......................|.......................|.......................|.......................|
.......................|.......................|.......................|.......................|.......................|.......................|.......................|.......................|.......................|.......................|
.......................|.......................|.......................|.......................|.......................|.......................|E-1....................|.......................|.......................|.......................|
.......................|.......................|.......................|.......................|.......................|.......................|.......................|.......................|.......................|.......................|
.......................|.......................|.......................|.......................|.......................|.......................|.......................|.......................|.......................|.......................|
.......................|.......................|.......................|.......................|.......................|.......................|.......................|.......................|.......................|.......................|
.......................|.......................|.......................|.......................|.......................|.......................|.......................|.......................|.......................|.......................|
.......................|.......................|.......................|.......................|.......................|.......................|.......................|.......................|.......................|.......................|
.......................|.......................|.......................|E-3....................|D-3....................|.......................|.......................|.......................|.......................|.......................|
.......................|.......................|.......................|.......................|.......................|.......................|.......................|.......................|.......................|.......................|
.......................|.......................|.......................|.......................|.......................|.......................|.......................|.......................|.......................|.......................|
.......................|.......................|.......................|.......................|.......................|.......................|.......................|.......................|.......................|.......................|
.......................|.......................|.......................|.......................|.......................|.......................|.......................|.......................|.......................|.......................|
.......................|.......................|.......................|.......................|.......................|.......................|.......................|.......................|.......................|.......................|
.......................|.......................|.......................|.......................|.......................|.......................|D-1....................|.......................|.......................|.......................|
.......................|.......................|.......................|.......................|.......................|.......................|.......................|.......................|.......................|.......................|
.......................|.......................|.......................|.......................|.......................|.......................|.......................|.......................|.......................|.......................|
.......................|C-0....................|.......................|.......................|.......................|.......................|.......................|.......................|.......................|.......................|
.......0452............|G#3....0400............|.......0452............|.......................|.......................|.......................|.......................|.......................|.......................|.......................|
.......................|.......................|.......................|.......................|.......................|.......................|.......................|.......................|.......................|.......................|
.......................|.......................|.......................|G#3....................|E-3....................|.......................|.......................|.......................|.......................|.......................|
.......................|.......................|.......................|.......................|.......................|.......................|.......................|.......................|.......................|.......................|
.......................|.......................|.......................|.......................|.......................|.......................|.......................|.......................|.......................|.......................|
.......................|.......................|.......................|.......................|.......................|.......................|.......................|.......................|.......................|.......................|
.......................|.......................|.......................|.......................|.......................|.......................|.......................|.......................|.......................|.......................|
.......................|.......................|.......................|.......................|.......................|.......................|.......................|.......................|.......................|.......................|
.......................|.......................|.......................|.......................|.......................|.......................|E-1....................|.......................|.......................|.......................|
.......................|.......................|.......................|.......................|.......................|.......................|.......................|.......................|.......................|.......................|
.......................|.......................|.......................|.......................|.......................|.......................|.......................|.......................|.......................|.......................|
.......................|.......................|.......................|.......................|.......................|.......................|.......................|.......................|.......................|.......................|
.......................|.......................|.......................|.......................|.......................|.......................|.......................|.......................|.......................|.......................|
.......................|.......................|.......................|.......................|.......................|.......................|.......................|.......................|.......................|.......................|
.......................|.......................|.......................|B-3....................|G#3....................|.......................|.......................|.......................|.......................|.......................|
.......................|.......................|.......................|.......................|.......................|.......................|.......................|.......................|.......................|.......................|
.......................|.......................|.......................|.......................|.......................|.......................|.......................|.......................|.......................|.......................|
.......................|.......................|.......................|.......................|.......................|.......................|.......................|.......................|.......................|.......................|
.......................|.......................|.......................|.......................|.......................|.......................|.......................|.......................|.......................|.......................|
.......................|.......................|.......................|.......................|.......................|.......................|.......................|.......................|.......................|.......................|
.......................|.......................|.......................|.......................|.......................|.......................|G#1....................|.......................|.......................|.......................|
.......................|.......................|.......................|.......................|.......................|.......................|.......................|.......................|.......................|.......................|
.......................|.......................|.......................|.......................|.......................|.......................|.......................|.......................|.......................|.......................|
.......................|.......................|.......................|.......................|.......................|.......................|.......................|.......................|.......................|.......................|
.......................|.......0452............|.......................|.......................|.......................|.......................|.......................|.......................|.......................|.......................|
.......................|.......................|.......................|.......................|.......................|.......................|.......................|.......................|.......................|.......................|
.......................|.......................|.......................|D-4....................|B-3....................|.......................|.......................|.......................|.......................|.......................|
.......................|.......................|.......................|.......................|.......................|.......................|.......................|.......................|.......................|.......................|
.......................|.......................|.......................|.......................|.......................|.......................|.......................|.......................|.......................|.......................|
.......................|.......................|.......................|.......................|.......................|.......................|.......................|.......................|.......................|.......................|
.......................|.......................|.......................|.......................|.......................|.......................|.......................|.......................|.......................|.......................|
.......................|.......................|.......................|.......................|.......................|.......................|.......................|.......................|.......................|.......................|
.......................|.......................|.......................|.......................|.......................|.......................|B-1....................|.......................|.......................|.......................|
.......................|.......................|.......................|.......................|.......................|.......................|.......................|.......................|.......................|.......................|
.......................|.......................|.......................|.......................|.......................|.......................|.......................|.......................|.......................|.......................|
.......................|.......................|.......................|.......................|.......................|.......................|.......................|.......................|.......................|.......................|
.......................|.......................|.......................|.......................|.......................|.......................|.......................|.......................|.......................|.......................|
.......................|.......................|.......................|.......................|.......................|.......................|.......................|.......................|.......................|.......................|
.......................|.......................|.......................|E-4....................|D-4....................|.......................|.......................|.......................|.......................|.......................|
.......................|.......................|.......................|.......................|.......................|.......................|.......................|.......................|.......................|.......................|
.......................|.......................|.......................|.......................|.......................|.......................|.......................|.......................|.......................|.......................|
.......................|.......................|.......................|.......................|.......................|.......................|.......................|.......................|.......................|.......................|
.......................|.......................|.......................|.......................|.......................|.......................|.......................|.......................|.......................|.......................|
.......................|.......................|.......................|.......................|.......................|.......................|.......................|.......................|.......................|.......................|
.......................|.......................|.......................|.......................|.......................|.......................|D-2....................|.......................|.......................|.......................|
.......................|.......................|.......................|.......................|.......................|.......................|.......................|.......................|.......................|.......................|
.......................|.......................|.......................|.......................|.......................|.......................|.......................|.......................|.......................|.......................|
.......................|.......................|.......................|.......................|.......................|.......................|.......................|.......................|.......................|.......................|
.......................|.......................|.......................|.......................|.......................|.......................|.......................|.......................|.......................|.......................|
.......................|.......................|.......................|.......................|.......................|.......................|.......................|.......................|.......................|.......................|
.......................|.......................|.......................|G#4....................|E-4....................|.......................|.......................|.......................|.......................|.......................|
.......................|.......................|.......................|.......................|.......................|.......................|.......................|.......................|.......................|.......................|
.......................|.......................|.......................|.......................|.......................|.......................|.......................|.......................|.......................|.......................|
.......................|.......................|.......................|.......................|.......................|.......................|.......................|.......................|.......................|.......................|
.......................|.......................|.......................|.......................|.......................|.......................|.......................|.......................|.......................|.......................|
.......................|.......................|.......................|.......................|.......................|.......................|.......................|.......................|.......................|.......................|
.......................|.......................|.......................|.......................|.......................|.......................|E-2....................|.......................|.......................|.......................|
.......................|.......................|.......................|.......................|.......................|.......................|.......................|.......................|.......................|.......................|
.......................|.......................|.......................|.......................|.......................|.......................|.......................|.......................|.......................|.......................|
.......................|.......................|.......................|.......................|.......................|.......................|.......................|.......................|.......................|.......................|
.......................|.......................|.......................|.......................|.......................|.......................|.......................|.......................|.......................|.......................|
.......................|.......................|.......................|.......................|.......................|.......................|.......................|.......................|.......................|.......................|
.......................|.......................|.......................|B-4....................|G#4....................|.......................|.......................|.......................|.......................|.......................|
.......................|.......................|.......................|.......................|.......................|.......................|.......................|.......................|.......................|.......................|
.......................|.......................|.......................|.......................|.......................|.......................|.......................|.......................|.......................|.......................|
.......................|.......................|.......................|.......................|.......................|.......................|.......................|.......................|.......................|.......................|
.......................|.......................|.......................|.......................|.......................|.......................|.......................|.......................|.......................|.......................|
.......................|.......................|.......................|.......................|.......................|.......................|.......................|.......................|.......................|.......................|
.......................|.......................|.......................|.......................|.......................|.......................|G#2....................|.......................|.......................|.......................|
.......................|.......................|.......................|.......................|.......................|.......................|.......................|.......................|.......................|.......................|
.......................|.......................|.......................|.......................|.......................|.......................|.......................|.......................|.......................|.......................|
C-0....................|.......................|C-0....................|.......................|.......................|.......................|.......................|.......................|.......................|.......................|
B-3....0400EA00........|.......................|F-3....0400EA00........|.......................|.......................|.......................|.......................|.......................|.......................|.......................|
.......................|.......................|.......................|.......................|.......................|.......................|.......................|.......................|.......................|.......................|
.......................|.......................|.......................|D-5....0400EA00........|B-4....................|.......................|.......................|.......................|.......................|.......................|
.......................|.......................|.......................|.......................|.......................|.......................|.......................|.......................|.......................|.......................|
.......................|.......................|.......................|.......................|.......................|.......................|.......................|.......................|.......................|.......................|
.......................|.......................|.......................|.......................|.......................|.......................|.......................|.......................|.......................|.......................|
.......................|.......................|.......................|.......................|.......................|.......................|.......................|.......................|.......................|.......................|
.......................|.......................|.......................|.......................|.......................|.......................|.......................|.......................|.......................|.......................|
.......................|.......................|.......................|.......................|.......................|.......................|B-2....................|.......................|.......................|.......................|
.......................|.......................|.......................|.......................|.......................|.......................|.......................|.......................|.......................|.......................|
.......................|.......................|.......................|.......................|.......................|.......................|.......................|.......................|.......................|.......................|
.......................|.......................|.......................|.......................|.......................|.......................|.......................|.......................|.......................|.......................|
.......................|.......................|.......................|.......................|.......................|.......................|.......................|.......................|.......................|.......................|
.......................|.......................|.......................|.......................|.......................|.......................|.......................|.......................|.......................|.......................|
.......................|.......................|.......................|B-4....................|D-5....0400EA00........|.......................|.......................|.......................|.......................|.......................|
.......................|.......................|.......................|.......................|.......................|.......................|.......................|.......................|.......................|.......................|
.......................|.......................|.......................|.......................|.......................|.......................|.......................|.......................|.......................|.......................|
.......................|.......................|.......................|.......................|.......................|.......................|.......................|.......................|.......................|.......................|
.......................|.......................|.......................|.......................|.......................|.......................|.......................|.......................|.......................|.......................|
.......................|.......................|.......................|.......................|.......................|.......................|.......................|.......................|.......................|.......................|
.......................|.......................|.......................|.......................|.......................|.......................|D-3....0400EA00........|.......................|.......................|.......................|
.......................|.......................|.......................|.......................|.......................|.......................|.......................|.......................|.......................|.......................|
.......................|.......................|.......................|.......................|.......................|.......................|.......................|.......................|.......................|.......................|
.......................|C-0....0B010D98........|.......................|.......................|.......................|.......................|.......................|.......................|.......................|.......................|
.......................|.......................|.......................|.......................|.......................|.......................|.......................|.......................|.......................|.......................|
.......................|.......................|.......................|.......................|.......................|.......................|.......................|.......................|.......................|.......................|
.......................|.......................|.......................|.......................|.......................|.......................|.......................|.......................|.......................|.......................|
.......................|.......................|.......................|.......................|.......................|.......................|.......................|.......................|.......................|.......................|
.......................|.......................|.......................|.......................|.......................|.......................|.......................|.......................|.......................|.......................|
.......................|.......................|.......................|.......................|.......................|.......................|.......................|.......................|.......................|.......................|
.......................|.......................|.......................|.......................|.......................|.......................|.......................|.......................|.......................|.......................|
.......................|.......................|.......................|.......................|.......................|.......................|.......................|.......................|.......................|.......................|
.......................|.......................|.......................|.......................|.......................|.......................|.......................|.......................|.......................|.......................|
.......................|.......................|.......................|.......................|.......................|.......................|.......................|.......................|.......................|.......................|
.......................|.......................|.......................|.......................|.......................|.......................|.......................|.......................|.......................|.......................|
.......................|.......................|.......................|.......................|.......................|.......................|.......................|.......................|.......................|.......................|
.......................|.......................|.......................|.......................|.......................|.......................|.......................|.......................|.......................|.......................|
.......................|.......................|.......................|.......................|.......................|.......................|.......................|.......................|.......................|.......................|
.......................|.......................|.......................|.......................|.......................|.......................|.......................|.......................|.......................|.......................|
.......................|.......................|.......................|.......................|.......................|.......................|.......................|.......................|.......................|.......................|
.......................|.......................|.......................|.......................|.......................|.......................|.......................|.......................|.......................|.......................|
.......................|.......................|.......................|.......................|.......................|.......................|.......................|.......................|.......................|.......................|
.......................|.......................|.......................|.......................|.......................|.......................|.......................|.......................|.......................|.......................|
.......................|.......................|.......................|.......................|.......................|.......................|.......................|.......................|.......................|.......................|
.......................|.......................|.......................|.......................|.......................|.......................|.......................|.......................|.......................|.......................|
.......................|.......................|.......................|.......................|.......................|.......................|.......................|.......................|.......................|.......................|
.......................|.......................|.......................|.......................|.......................|.......................|.......................|.......................|.......................|.......................|
.......................|.......................|.......................|.......................|.......................|.......................|.......................|.......................|.......................|.......................|
.......................|.......................|.......................|.......................|.......................|.......................|.......................|.......................|.......................|.......................|
.......................|.......................|.......................|.......................|.......................|.......................|.......................|.......................|.......................|.......................|
.......................|.......................|.......................|.......................|.......................|.......................|.......................|.......................|.......................|.......................|
.......................|.......................|.......................|.......................|.......................|.......................|.......................|.......................|.......................|.......................|
.......................|.......................|.......................|.......................|.......................|.......................|.......................|.......................|.......................|.......................|
.......................|.......................|.......................|.......................|.......................|.......................|.......................|.......................|.......................|.......................|
.......................|.......................|.......................|.......................|.......................|.......................|.......................|.......................|.......................|.......................|
.......................|.......................|.......................|.......................|.......................|.......................|.......................|.......................|.......................|.......................|
.......................|.......................|.......................|.......................|.......................|.......................|.......................|.......................|.......................|.......................|
.......................|.......................|.......................|.......................|.......................|.......................|.......................|.......................|.......................|.......................|
.......................|.......................|.......................|.......................|.......................|.......................|.......................|.......................|.......................|.......................|
.......................|.......................|.......................|.......................|.......................|.......................|.......................|.......................|.......................|.......................|
.......................|.......................|.......................|.......................|.......................|.......................|.......................|.......................|.......................|.......................|
.......................|.......................|.......................|.......................|.......................|.......................|.......................|.......................|.......................|.......................|
.......................|.......................|.......................|.......................|.......................|.......................|.......................|.......................|.......................|.......................|
.......................|.......................|.......................|.......................|.......................|.......................|.......................|.......................|.......................|.......................|
